<?xml version="1.0" encoding="utf-8"?>
<svg xmlns="http://www.w3.org/2000/svg" xmlns:xlink="http://www.w3.org/1999/xlink" width="600" height="400" viewBox="0 0 2400 1600">
<defs>
  <clipPath id="clip470">
    <rect x="0" y="0" width="2400" height="1600"/>
  </clipPath>
</defs>
<path clip-path="url(#clip470)" d="M0 1600 L2400 1600 L2400 0 L0 0  Z" fill="#ffffff" fill-rule="evenodd" fill-opacity="1"/>
<defs>
  <clipPath id="clip471">
    <rect x="251" y="123" width="2102" height="1301"/>
  </clipPath>
</defs>
<path clip-path="url(#clip470)" d="M251.842 1423.18 L2352.76 1423.18 L2352.76 123.472 L251.842 123.472  Z" fill="#ffffff" fill-rule="evenodd" fill-opacity="1"/>
<polyline clip-path="url(#clip471)" style="stroke:#000000; stroke-linecap:round; stroke-linejoin:round; stroke-width:2; stroke-opacity:0.1; fill:none" points="298.089,1423.18 298.089,123.472 "/>
<polyline clip-path="url(#clip471)" style="stroke:#000000; stroke-linecap:round; stroke-linejoin:round; stroke-width:2; stroke-opacity:0.1; fill:none" points="958.754,1423.18 958.754,123.472 "/>
<polyline clip-path="url(#clip471)" style="stroke:#000000; stroke-linecap:round; stroke-linejoin:round; stroke-width:2; stroke-opacity:0.1; fill:none" points="1619.42,1423.18 1619.42,123.472 "/>
<polyline clip-path="url(#clip471)" style="stroke:#000000; stroke-linecap:round; stroke-linejoin:round; stroke-width:2; stroke-opacity:0.1; fill:none" points="2280.08,1423.18 2280.08,123.472 "/>
<polyline clip-path="url(#clip471)" style="stroke:#000000; stroke-linecap:round; stroke-linejoin:round; stroke-width:2; stroke-opacity:0.1; fill:none" points="251.842,1063.35 2352.76,1063.35 "/>
<polyline clip-path="url(#clip471)" style="stroke:#000000; stroke-linecap:round; stroke-linejoin:round; stroke-width:2; stroke-opacity:0.1; fill:none" points="251.842,461.41 2352.76,461.41 "/>
<polyline clip-path="url(#clip470)" style="stroke:#000000; stroke-linecap:round; stroke-linejoin:round; stroke-width:4; stroke-opacity:1; fill:none" points="251.842,1423.18 2352.76,1423.18 "/>
<polyline clip-path="url(#clip470)" style="stroke:#000000; stroke-linecap:round; stroke-linejoin:round; stroke-width:4; stroke-opacity:1; fill:none" points="298.089,1423.18 298.089,1404.28 "/>
<polyline clip-path="url(#clip470)" style="stroke:#000000; stroke-linecap:round; stroke-linejoin:round; stroke-width:4; stroke-opacity:1; fill:none" points="958.754,1423.18 958.754,1404.28 "/>
<polyline clip-path="url(#clip470)" style="stroke:#000000; stroke-linecap:round; stroke-linejoin:round; stroke-width:4; stroke-opacity:1; fill:none" points="1619.42,1423.18 1619.42,1404.28 "/>
<polyline clip-path="url(#clip470)" style="stroke:#000000; stroke-linecap:round; stroke-linejoin:round; stroke-width:4; stroke-opacity:1; fill:none" points="2280.08,1423.18 2280.08,1404.28 "/>
<path clip-path="url(#clip470)" d="M298.089 1454.1 Q294.478 1454.1 292.649 1457.66 Q290.844 1461.2 290.844 1468.33 Q290.844 1475.44 292.649 1479.01 Q294.478 1482.55 298.089 1482.55 Q301.723 1482.55 303.529 1479.01 Q305.357 1475.44 305.357 1468.33 Q305.357 1461.2 303.529 1457.66 Q301.723 1454.1 298.089 1454.1 M298.089 1450.39 Q303.899 1450.39 306.955 1455 Q310.033 1459.58 310.033 1468.33 Q310.033 1477.06 306.955 1481.67 Q303.899 1486.25 298.089 1486.25 Q292.279 1486.25 289.2 1481.67 Q286.145 1477.06 286.145 1468.33 Q286.145 1459.58 289.2 1455 Q292.279 1450.39 298.089 1450.39 Z" fill="#000000" fill-rule="nonzero" fill-opacity="1" /><path clip-path="url(#clip470)" d="M918.36 1481.64 L925.999 1481.64 L925.999 1455.28 L917.689 1456.95 L917.689 1452.69 L925.953 1451.02 L930.629 1451.02 L930.629 1481.64 L938.268 1481.64 L938.268 1485.58 L918.36 1485.58 L918.36 1481.64 Z" fill="#000000" fill-rule="nonzero" fill-opacity="1" /><path clip-path="url(#clip470)" d="M957.712 1454.1 Q954.101 1454.1 952.272 1457.66 Q950.467 1461.2 950.467 1468.33 Q950.467 1475.44 952.272 1479.01 Q954.101 1482.55 957.712 1482.55 Q961.346 1482.55 963.152 1479.01 Q964.98 1475.44 964.98 1468.33 Q964.98 1461.2 963.152 1457.66 Q961.346 1454.1 957.712 1454.1 M957.712 1450.39 Q963.522 1450.39 966.578 1455 Q969.656 1459.58 969.656 1468.33 Q969.656 1477.06 966.578 1481.67 Q963.522 1486.25 957.712 1486.25 Q951.902 1486.25 948.823 1481.67 Q945.767 1477.06 945.767 1468.33 Q945.767 1459.58 948.823 1455 Q951.902 1450.39 957.712 1450.39 Z" fill="#000000" fill-rule="nonzero" fill-opacity="1" /><path clip-path="url(#clip470)" d="M987.874 1454.1 Q984.263 1454.1 982.434 1457.66 Q980.628 1461.2 980.628 1468.33 Q980.628 1475.44 982.434 1479.01 Q984.263 1482.55 987.874 1482.55 Q991.508 1482.55 993.314 1479.01 Q995.142 1475.44 995.142 1468.33 Q995.142 1461.2 993.314 1457.66 Q991.508 1454.1 987.874 1454.1 M987.874 1450.39 Q993.684 1450.39 996.739 1455 Q999.818 1459.58 999.818 1468.33 Q999.818 1477.06 996.739 1481.67 Q993.684 1486.25 987.874 1486.25 Q982.064 1486.25 978.985 1481.67 Q975.929 1477.06 975.929 1468.33 Q975.929 1459.58 978.985 1455 Q982.064 1450.39 987.874 1450.39 Z" fill="#000000" fill-rule="nonzero" fill-opacity="1" /><path clip-path="url(#clip470)" d="M1583.11 1481.64 L1599.43 1481.64 L1599.43 1485.58 L1577.49 1485.58 L1577.49 1481.64 Q1580.15 1478.89 1584.73 1474.26 Q1589.34 1469.61 1590.52 1468.27 Q1592.76 1465.74 1593.64 1464.01 Q1594.55 1462.25 1594.55 1460.56 Q1594.55 1457.8 1592.6 1456.07 Q1590.68 1454.33 1587.58 1454.33 Q1585.38 1454.33 1582.93 1455.09 Q1580.49 1455.86 1577.72 1457.41 L1577.72 1452.69 Q1580.54 1451.55 1582.99 1450.97 Q1585.45 1450.39 1587.49 1450.39 Q1592.86 1450.39 1596.05 1453.08 Q1599.24 1455.77 1599.24 1460.26 Q1599.24 1462.39 1598.43 1464.31 Q1597.65 1466.2 1595.54 1468.8 Q1594.96 1469.47 1591.86 1472.69 Q1588.76 1475.88 1583.11 1481.64 Z" fill="#000000" fill-rule="nonzero" fill-opacity="1" /><path clip-path="url(#clip470)" d="M1619.24 1454.1 Q1615.63 1454.1 1613.8 1457.66 Q1612 1461.2 1612 1468.33 Q1612 1475.44 1613.8 1479.01 Q1615.63 1482.55 1619.24 1482.55 Q1622.88 1482.55 1624.68 1479.01 Q1626.51 1475.44 1626.51 1468.33 Q1626.51 1461.2 1624.68 1457.66 Q1622.88 1454.1 1619.24 1454.1 M1619.24 1450.39 Q1625.05 1450.39 1628.11 1455 Q1631.19 1459.58 1631.19 1468.33 Q1631.19 1477.06 1628.11 1481.67 Q1625.05 1486.25 1619.24 1486.25 Q1613.43 1486.25 1610.36 1481.67 Q1607.3 1477.06 1607.3 1468.33 Q1607.3 1459.58 1610.36 1455 Q1613.43 1450.39 1619.24 1450.39 Z" fill="#000000" fill-rule="nonzero" fill-opacity="1" /><path clip-path="url(#clip470)" d="M1649.41 1454.1 Q1645.8 1454.1 1643.97 1457.66 Q1642.16 1461.2 1642.16 1468.33 Q1642.16 1475.44 1643.97 1479.01 Q1645.8 1482.55 1649.41 1482.55 Q1653.04 1482.55 1654.85 1479.01 Q1656.67 1475.44 1656.67 1468.33 Q1656.67 1461.2 1654.85 1457.66 Q1653.04 1454.1 1649.41 1454.1 M1649.41 1450.39 Q1655.22 1450.39 1658.27 1455 Q1661.35 1459.58 1661.35 1468.33 Q1661.35 1477.06 1658.27 1481.67 Q1655.22 1486.25 1649.41 1486.25 Q1643.6 1486.25 1640.52 1481.67 Q1637.46 1477.06 1637.46 1468.33 Q1637.46 1459.58 1640.52 1455 Q1643.6 1450.39 1649.41 1450.39 Z" fill="#000000" fill-rule="nonzero" fill-opacity="1" /><path clip-path="url(#clip470)" d="M2253.84 1466.95 Q2257.2 1467.66 2259.08 1469.93 Q2260.97 1472.2 2260.97 1475.53 Q2260.97 1480.65 2257.46 1483.45 Q2253.94 1486.25 2247.46 1486.25 Q2245.28 1486.25 2242.96 1485.81 Q2240.67 1485.39 2238.22 1484.54 L2238.22 1480.02 Q2240.16 1481.16 2242.48 1481.74 Q2244.79 1482.32 2247.32 1482.32 Q2251.71 1482.32 2254.01 1480.58 Q2256.32 1478.84 2256.32 1475.53 Q2256.32 1472.48 2254.17 1470.77 Q2252.04 1469.03 2248.22 1469.03 L2244.19 1469.03 L2244.19 1465.19 L2248.4 1465.19 Q2251.85 1465.19 2253.68 1463.82 Q2255.51 1462.43 2255.51 1459.84 Q2255.51 1457.18 2253.61 1455.77 Q2251.74 1454.33 2248.22 1454.33 Q2246.3 1454.33 2244.1 1454.75 Q2241.9 1455.16 2239.26 1456.04 L2239.26 1451.88 Q2241.92 1451.14 2244.24 1450.77 Q2246.58 1450.39 2248.64 1450.39 Q2253.96 1450.39 2257.06 1452.83 Q2260.16 1455.23 2260.16 1459.35 Q2260.16 1462.22 2258.52 1464.21 Q2256.88 1466.18 2253.84 1466.95 Z" fill="#000000" fill-rule="nonzero" fill-opacity="1" /><path clip-path="url(#clip470)" d="M2279.84 1454.1 Q2276.23 1454.1 2274.4 1457.66 Q2272.59 1461.2 2272.59 1468.33 Q2272.59 1475.44 2274.4 1479.01 Q2276.23 1482.55 2279.84 1482.55 Q2283.47 1482.55 2285.28 1479.01 Q2287.11 1475.44 2287.11 1468.33 Q2287.11 1461.2 2285.28 1457.66 Q2283.47 1454.1 2279.84 1454.1 M2279.84 1450.39 Q2285.65 1450.39 2288.71 1455 Q2291.78 1459.58 2291.78 1468.33 Q2291.78 1477.06 2288.71 1481.67 Q2285.65 1486.25 2279.84 1486.25 Q2274.03 1486.25 2270.95 1481.67 Q2267.9 1477.06 2267.9 1468.33 Q2267.9 1459.58 2270.95 1455 Q2274.03 1450.39 2279.84 1450.39 Z" fill="#000000" fill-rule="nonzero" fill-opacity="1" /><path clip-path="url(#clip470)" d="M2310 1454.1 Q2306.39 1454.1 2304.56 1457.66 Q2302.76 1461.2 2302.76 1468.33 Q2302.76 1475.44 2304.56 1479.01 Q2306.39 1482.55 2310 1482.55 Q2313.64 1482.55 2315.44 1479.01 Q2317.27 1475.44 2317.27 1468.33 Q2317.27 1461.2 2315.44 1457.66 Q2313.64 1454.1 2310 1454.1 M2310 1450.39 Q2315.81 1450.39 2318.87 1455 Q2321.95 1459.58 2321.95 1468.33 Q2321.95 1477.06 2318.87 1481.67 Q2315.81 1486.25 2310 1486.25 Q2304.19 1486.25 2301.11 1481.67 Q2298.06 1477.06 2298.06 1468.33 Q2298.06 1459.58 2301.11 1455 Q2304.19 1450.39 2310 1450.39 Z" fill="#000000" fill-rule="nonzero" fill-opacity="1" /><path clip-path="url(#clip470)" d="M1170.02 1520.52 L1176.45 1520.52 L1176.45 1568.04 L1170.02 1568.04 L1170.02 1520.52 Z" fill="#000000" fill-rule="nonzero" fill-opacity="1" /><path clip-path="url(#clip470)" d="M1194.78 1522.27 L1194.78 1532.4 L1206.85 1532.4 L1206.85 1536.95 L1194.78 1536.95 L1194.78 1556.3 Q1194.78 1560.66 1195.96 1561.9 Q1197.17 1563.14 1200.83 1563.14 L1206.85 1563.14 L1206.85 1568.04 L1200.83 1568.04 Q1194.05 1568.04 1191.47 1565.53 Q1188.89 1562.98 1188.89 1556.3 L1188.89 1536.95 L1184.6 1536.95 L1184.6 1532.4 L1188.89 1532.4 L1188.89 1522.27 L1194.78 1522.27 Z" fill="#000000" fill-rule="nonzero" fill-opacity="1" /><path clip-path="url(#clip470)" d="M1245.04 1548.76 L1245.04 1551.62 L1218.11 1551.62 Q1218.49 1557.67 1221.74 1560.85 Q1225.02 1564 1230.84 1564 Q1234.22 1564 1237.37 1563.17 Q1240.55 1562.35 1243.67 1560.69 L1243.67 1566.23 Q1240.52 1567.57 1237.21 1568.27 Q1233.9 1568.97 1230.49 1568.97 Q1221.96 1568.97 1216.97 1564 Q1212 1559.04 1212 1550.57 Q1212 1541.82 1216.71 1536.69 Q1221.45 1531.54 1229.48 1531.54 Q1236.67 1531.54 1240.84 1536.18 Q1245.04 1540.8 1245.04 1548.76 M1239.18 1547.04 Q1239.12 1542.23 1236.48 1539.37 Q1233.87 1536.5 1229.54 1536.5 Q1224.64 1536.5 1221.68 1539.27 Q1218.75 1542.04 1218.3 1547.07 L1239.18 1547.04 Z" fill="#000000" fill-rule="nonzero" fill-opacity="1" /><path clip-path="url(#clip470)" d="M1275.31 1537.87 Q1274.32 1537.3 1273.14 1537.04 Q1272 1536.76 1270.6 1536.76 Q1265.63 1536.76 1262.96 1540 Q1260.32 1543.22 1260.32 1549.27 L1260.32 1568.04 L1254.43 1568.04 L1254.43 1532.4 L1260.32 1532.4 L1260.32 1537.93 Q1262.16 1534.69 1265.12 1533.13 Q1268.08 1531.54 1272.32 1531.54 Q1272.92 1531.54 1273.65 1531.63 Q1274.39 1531.7 1275.28 1531.85 L1275.31 1537.87 Z" fill="#000000" fill-rule="nonzero" fill-opacity="1" /><path clip-path="url(#clip470)" d="M1297.65 1550.12 Q1290.55 1550.12 1287.82 1551.75 Q1285.08 1553.37 1285.08 1557.29 Q1285.08 1560.4 1287.12 1562.25 Q1289.19 1564.07 1292.72 1564.07 Q1297.59 1564.07 1300.52 1560.63 Q1303.48 1557.16 1303.48 1551.43 L1303.48 1550.12 L1297.65 1550.12 M1309.33 1547.71 L1309.33 1568.04 L1303.48 1568.04 L1303.48 1562.63 Q1301.47 1565.88 1298.48 1567.44 Q1295.49 1568.97 1291.16 1568.97 Q1285.68 1568.97 1282.44 1565.91 Q1279.22 1562.82 1279.22 1557.67 Q1279.22 1551.65 1283.23 1548.6 Q1287.28 1545.54 1295.27 1545.54 L1303.48 1545.54 L1303.48 1544.97 Q1303.48 1540.93 1300.8 1538.73 Q1298.16 1536.5 1293.36 1536.5 Q1290.3 1536.5 1287.4 1537.23 Q1284.51 1537.97 1281.83 1539.43 L1281.83 1534.02 Q1285.05 1532.78 1288.07 1532.17 Q1291.1 1531.54 1293.96 1531.54 Q1301.69 1531.54 1305.51 1535.55 Q1309.33 1539.56 1309.33 1547.71 Z" fill="#000000" fill-rule="nonzero" fill-opacity="1" /><path clip-path="url(#clip470)" d="M1327.19 1522.27 L1327.19 1532.4 L1339.25 1532.4 L1339.25 1536.95 L1327.19 1536.95 L1327.19 1556.3 Q1327.19 1560.66 1328.37 1561.9 Q1329.58 1563.14 1333.24 1563.14 L1339.25 1563.14 L1339.25 1568.04 L1333.24 1568.04 Q1326.46 1568.04 1323.88 1565.53 Q1321.3 1562.98 1321.3 1556.3 L1321.3 1536.95 L1317 1536.95 L1317 1532.4 L1321.3 1532.4 L1321.3 1522.27 L1327.19 1522.27 Z" fill="#000000" fill-rule="nonzero" fill-opacity="1" /><path clip-path="url(#clip470)" d="M1346.95 1532.4 L1352.81 1532.4 L1352.81 1568.04 L1346.95 1568.04 L1346.95 1532.4 M1346.95 1518.52 L1352.81 1518.52 L1352.81 1525.93 L1346.95 1525.93 L1346.95 1518.52 Z" fill="#000000" fill-rule="nonzero" fill-opacity="1" /><path clip-path="url(#clip470)" d="M1378.88 1536.5 Q1374.17 1536.5 1371.43 1540.19 Q1368.69 1543.85 1368.69 1550.25 Q1368.69 1556.65 1371.4 1560.34 Q1374.14 1564 1378.88 1564 Q1383.56 1564 1386.29 1560.31 Q1389.03 1556.62 1389.03 1550.25 Q1389.03 1543.92 1386.29 1540.23 Q1383.56 1536.5 1378.88 1536.5 M1378.88 1531.54 Q1386.52 1531.54 1390.88 1536.5 Q1395.24 1541.47 1395.24 1550.25 Q1395.24 1559 1390.88 1564 Q1386.52 1568.97 1378.88 1568.97 Q1371.21 1568.97 1366.85 1564 Q1362.52 1559 1362.52 1550.25 Q1362.52 1541.47 1366.85 1536.5 Q1371.21 1531.54 1378.88 1531.54 Z" fill="#000000" fill-rule="nonzero" fill-opacity="1" /><path clip-path="url(#clip470)" d="M1434.58 1546.53 L1434.58 1568.04 L1428.72 1568.04 L1428.72 1546.72 Q1428.72 1541.66 1426.75 1539.14 Q1424.78 1536.63 1420.83 1536.63 Q1416.09 1536.63 1413.35 1539.65 Q1410.61 1542.68 1410.61 1547.9 L1410.61 1568.04 L1404.72 1568.04 L1404.72 1532.4 L1410.61 1532.4 L1410.61 1537.93 Q1412.71 1534.72 1415.55 1533.13 Q1418.41 1531.54 1422.13 1531.54 Q1428.28 1531.54 1431.43 1535.36 Q1434.58 1539.14 1434.58 1546.53 Z" fill="#000000" fill-rule="nonzero" fill-opacity="1" /><polyline clip-path="url(#clip470)" style="stroke:#000000; stroke-linecap:round; stroke-linejoin:round; stroke-width:4; stroke-opacity:1; fill:none" points="251.842,1423.18 251.842,123.472 "/>
<polyline clip-path="url(#clip470)" style="stroke:#000000; stroke-linecap:round; stroke-linejoin:round; stroke-width:4; stroke-opacity:1; fill:none" points="251.842,1063.35 270.74,1063.35 "/>
<polyline clip-path="url(#clip470)" style="stroke:#000000; stroke-linecap:round; stroke-linejoin:round; stroke-width:4; stroke-opacity:1; fill:none" points="251.842,461.41 270.74,461.41 "/>
<path clip-path="url(#clip470)" d="M114.931 1083.14 L122.57 1083.14 L122.57 1056.78 L114.26 1058.45 L114.26 1054.19 L122.524 1052.52 L127.2 1052.52 L127.2 1083.14 L134.839 1083.14 L134.839 1087.08 L114.931 1087.08 L114.931 1083.14 Z" fill="#000000" fill-rule="nonzero" fill-opacity="1" /><path clip-path="url(#clip470)" d="M154.283 1055.6 Q150.672 1055.6 148.843 1059.16 Q147.038 1062.7 147.038 1069.83 Q147.038 1076.94 148.843 1080.51 Q150.672 1084.05 154.283 1084.05 Q157.917 1084.05 159.723 1080.51 Q161.552 1076.94 161.552 1069.83 Q161.552 1062.7 159.723 1059.16 Q157.917 1055.6 154.283 1055.6 M154.283 1051.89 Q160.093 1051.89 163.149 1056.5 Q166.227 1061.08 166.227 1069.83 Q166.227 1078.56 163.149 1083.17 Q160.093 1087.75 154.283 1087.75 Q148.473 1087.75 145.394 1083.17 Q142.339 1078.56 142.339 1069.83 Q142.339 1061.08 145.394 1056.5 Q148.473 1051.89 154.283 1051.89 Z" fill="#000000" fill-rule="nonzero" fill-opacity="1" /><path clip-path="url(#clip470)" d="M166.227 1046 L190.339 1046 L190.339 1049.19 L166.227 1049.19 L166.227 1046 Z" fill="#000000" fill-rule="nonzero" fill-opacity="1" /><path clip-path="url(#clip470)" d="M210.05 1044.53 Q212.777 1045.11 214.3 1046.96 Q215.842 1048.8 215.842 1051.51 Q215.842 1055.66 212.984 1057.94 Q210.125 1060.21 204.859 1060.21 Q203.091 1060.21 201.21 1059.86 Q199.348 1059.52 197.354 1058.82 L197.354 1055.16 Q198.934 1056.08 200.815 1056.55 Q202.696 1057.02 204.746 1057.02 Q208.319 1057.02 210.181 1055.61 Q212.062 1054.2 212.062 1051.51 Q212.062 1049.02 210.313 1047.63 Q208.583 1046.22 205.479 1046.22 L202.207 1046.22 L202.207 1043.1 L205.63 1043.1 Q208.432 1043.1 209.918 1041.99 Q211.404 1040.86 211.404 1038.75 Q211.404 1036.59 209.861 1035.44 Q208.338 1034.28 205.479 1034.28 Q203.918 1034.28 202.132 1034.62 Q200.345 1034.96 198.201 1035.67 L198.201 1032.28 Q200.364 1031.68 202.244 1031.38 Q204.144 1031.08 205.818 1031.08 Q210.144 1031.08 212.664 1033.06 Q215.184 1035.01 215.184 1038.36 Q215.184 1040.69 213.849 1042.31 Q212.513 1043.91 210.05 1044.53 Z" fill="#000000" fill-rule="nonzero" fill-opacity="1" /><path clip-path="url(#clip470)" d="M145.137 481.202 L152.776 481.202 L152.776 454.837 L144.465 456.503 L144.465 452.244 L152.729 450.577 L157.405 450.577 L157.405 481.202 L165.044 481.202 L165.044 485.137 L145.137 485.137 L145.137 481.202 Z" fill="#000000" fill-rule="nonzero" fill-opacity="1" /><path clip-path="url(#clip470)" d="M184.488 453.656 Q180.877 453.656 179.049 457.221 Q177.243 460.762 177.243 467.892 Q177.243 474.999 179.049 478.563 Q180.877 482.105 184.488 482.105 Q188.123 482.105 189.928 478.563 Q191.757 474.999 191.757 467.892 Q191.757 460.762 189.928 457.221 Q188.123 453.656 184.488 453.656 M184.488 449.952 Q190.299 449.952 193.354 454.559 Q196.433 459.142 196.433 467.892 Q196.433 476.619 193.354 481.225 Q190.299 485.809 184.488 485.809 Q178.678 485.809 175.6 481.225 Q172.544 476.619 172.544 467.892 Q172.544 459.142 175.6 454.559 Q178.678 449.952 184.488 449.952 Z" fill="#000000" fill-rule="nonzero" fill-opacity="1" /><path clip-path="url(#clip470)" d="M206.138 432.148 Q203.204 432.148 201.718 435.045 Q200.251 437.922 200.251 443.715 Q200.251 449.489 201.718 452.386 Q203.204 455.263 206.138 455.263 Q209.09 455.263 210.557 452.386 Q212.043 449.489 212.043 443.715 Q212.043 437.922 210.557 435.045 Q209.09 432.148 206.138 432.148 M206.138 429.139 Q210.858 429.139 213.341 432.882 Q215.842 436.606 215.842 443.715 Q215.842 450.806 213.341 454.548 Q210.858 458.272 206.138 458.272 Q201.417 458.272 198.915 454.548 Q196.433 450.806 196.433 443.715 Q196.433 436.606 198.915 432.882 Q201.417 429.139 206.138 429.139 Z" fill="#000000" fill-rule="nonzero" fill-opacity="1" /><path clip-path="url(#clip470)" d="M16.4842 840.023 L16.4842 833.593 L58.5933 833.593 L58.5933 810.454 L64.0042 810.454 L64.0042 840.023 L16.4842 840.023 Z" fill="#000000" fill-rule="nonzero" fill-opacity="1" /><path clip-path="url(#clip470)" d="M32.4621 791.293 Q32.4621 796.004 36.1542 798.741 Q39.8145 801.478 46.212 801.478 Q52.6095 801.478 56.3017 798.773 Q59.9619 796.036 59.9619 791.293 Q59.9619 786.614 56.2698 783.877 Q52.5777 781.14 46.212 781.14 Q39.8781 781.14 36.186 783.877 Q32.4621 786.614 32.4621 791.293 M27.4968 791.293 Q27.4968 783.654 32.4621 779.294 Q37.4273 774.933 46.212 774.933 Q54.9649 774.933 59.9619 779.294 Q64.9272 783.654 64.9272 791.293 Q64.9272 798.964 59.9619 803.324 Q54.9649 807.653 46.212 807.653 Q37.4273 807.653 32.4621 803.324 Q27.4968 798.964 27.4968 791.293 Z" fill="#000000" fill-rule="nonzero" fill-opacity="1" /><path clip-path="url(#clip470)" d="M29.4065 742.5 L34.9447 742.5 Q33.6716 744.983 33.035 747.656 Q32.3984 750.33 32.3984 753.194 Q32.3984 757.555 33.7352 759.751 Q35.072 761.915 37.7456 761.915 Q39.7826 761.915 40.9603 760.356 Q42.1061 758.796 43.1565 754.086 L43.6021 752.08 Q44.9389 745.842 47.3897 743.232 Q49.8086 740.59 54.1691 740.59 Q59.1344 740.59 62.0308 744.537 Q64.9272 748.452 64.9272 755.327 Q64.9272 758.192 64.3543 761.311 Q63.8132 764.398 62.6992 767.836 L56.6518 767.836 Q58.3387 764.589 59.198 761.438 Q60.0256 758.287 60.0256 755.2 Q60.0256 751.062 58.6251 748.834 Q57.1929 746.606 54.6147 746.606 Q52.2276 746.606 50.9545 748.229 Q49.6813 749.821 48.5037 755.263 L48.0262 757.3 Q46.8804 762.743 44.5251 765.162 Q42.138 767.581 38.0002 767.581 Q32.9713 767.581 30.2341 764.016 Q27.4968 760.451 27.4968 753.895 Q27.4968 750.648 27.9743 747.784 Q28.4517 744.919 29.4065 742.5 Z" fill="#000000" fill-rule="nonzero" fill-opacity="1" /><path clip-path="url(#clip470)" d="M29.4065 708.539 L34.9447 708.539 Q33.6716 711.022 33.035 713.695 Q32.3984 716.369 32.3984 719.233 Q32.3984 723.594 33.7352 725.79 Q35.072 727.954 37.7456 727.954 Q39.7826 727.954 40.9603 726.395 Q42.1061 724.835 43.1565 720.125 L43.6021 718.119 Q44.9389 711.881 47.3897 709.271 Q49.8086 706.629 54.1691 706.629 Q59.1344 706.629 62.0308 710.576 Q64.9272 714.491 64.9272 721.366 Q64.9272 724.23 64.3543 727.35 Q63.8132 730.437 62.6992 733.875 L56.6518 733.875 Q58.3387 730.628 59.198 727.477 Q60.0256 724.326 60.0256 721.239 Q60.0256 717.101 58.6251 714.873 Q57.1929 712.645 54.6147 712.645 Q52.2276 712.645 50.9545 714.268 Q49.6813 715.86 48.5037 721.302 L48.0262 723.339 Q46.8804 728.782 44.5251 731.201 Q42.138 733.62 38.0002 733.62 Q32.9713 733.62 30.2341 730.055 Q27.4968 726.49 27.4968 719.934 Q27.4968 716.687 27.9743 713.823 Q28.4517 710.958 29.4065 708.539 Z" fill="#000000" fill-rule="nonzero" fill-opacity="1" /><path clip-path="url(#clip470)" d="M1036.36 12.096 L1087.52 12.096 L1087.52 18.9825 L1066.05 18.9825 L1066.05 72.576 L1057.83 72.576 L1057.83 18.9825 L1036.36 18.9825 L1036.36 12.096 Z" fill="#000000" fill-rule="nonzero" fill-opacity="1" /><path clip-path="url(#clip470)" d="M1109.19 34.1734 Q1107.94 33.4443 1106.44 33.1202 Q1104.98 32.7556 1103.2 32.7556 Q1096.88 32.7556 1093.48 36.8875 Q1090.11 40.9789 1090.11 48.6757 L1090.11 72.576 L1082.62 72.576 L1082.62 27.2059 L1090.11 27.2059 L1090.11 34.2544 Q1092.46 30.1225 1096.23 28.1376 Q1100 26.1121 1105.38 26.1121 Q1106.15 26.1121 1107.09 26.2337 Q1108.02 26.3147 1109.15 26.5172 L1109.19 34.1734 Z" fill="#000000" fill-rule="nonzero" fill-opacity="1" /><path clip-path="url(#clip470)" d="M1137.63 49.7694 Q1128.6 49.7694 1125.11 51.8354 Q1121.63 53.9013 1121.63 58.8839 Q1121.63 62.8538 1124.22 65.2034 Q1126.85 67.5124 1131.35 67.5124 Q1137.55 67.5124 1141.28 63.1374 Q1145.04 58.7219 1145.04 51.4303 L1145.04 49.7694 L1137.63 49.7694 M1152.5 46.6907 L1152.5 72.576 L1145.04 72.576 L1145.04 65.6895 Q1142.49 69.8214 1138.68 71.8063 Q1134.88 73.7508 1129.37 73.7508 Q1122.4 73.7508 1118.27 69.8619 Q1114.18 65.9325 1114.18 59.3701 Q1114.18 51.7138 1119.28 47.825 Q1124.42 43.9361 1134.59 43.9361 L1145.04 43.9361 L1145.04 43.2069 Q1145.04 38.0623 1141.64 35.2672 Q1138.28 32.4315 1132.16 32.4315 Q1128.27 32.4315 1124.59 33.3632 Q1120.9 34.295 1117.5 36.1584 L1117.5 29.2718 Q1121.59 27.692 1125.44 26.9223 Q1129.29 26.1121 1132.93 26.1121 Q1142.77 26.1121 1147.64 31.2163 Q1152.5 36.3204 1152.5 46.6907 Z" fill="#000000" fill-rule="nonzero" fill-opacity="1" /><path clip-path="url(#clip470)" d="M1167.85 27.2059 L1175.3 27.2059 L1175.3 72.576 L1167.85 72.576 L1167.85 27.2059 M1167.85 9.54393 L1175.3 9.54393 L1175.3 18.9825 L1167.85 18.9825 L1167.85 9.54393 Z" fill="#000000" fill-rule="nonzero" fill-opacity="1" /><path clip-path="url(#clip470)" d="M1228.61 45.1919 L1228.61 72.576 L1221.16 72.576 L1221.16 45.4349 Q1221.16 38.994 1218.65 35.7938 Q1216.14 32.5936 1211.11 32.5936 Q1205.08 32.5936 1201.59 36.4419 Q1198.11 40.2903 1198.11 46.9338 L1198.11 72.576 L1190.62 72.576 L1190.62 27.2059 L1198.11 27.2059 L1198.11 34.2544 Q1200.78 30.163 1204.39 28.1376 Q1208.03 26.1121 1212.77 26.1121 Q1220.59 26.1121 1224.6 30.9732 Q1228.61 35.7938 1228.61 45.1919 Z" fill="#000000" fill-rule="nonzero" fill-opacity="1" /><path clip-path="url(#clip470)" d="M1243.48 27.2059 L1250.93 27.2059 L1250.93 72.576 L1243.48 72.576 L1243.48 27.2059 M1243.48 9.54393 L1250.93 9.54393 L1250.93 18.9825 L1243.48 18.9825 L1243.48 9.54393 Z" fill="#000000" fill-rule="nonzero" fill-opacity="1" /><path clip-path="url(#clip470)" d="M1304.24 45.1919 L1304.24 72.576 L1296.79 72.576 L1296.79 45.4349 Q1296.79 38.994 1294.28 35.7938 Q1291.77 32.5936 1286.74 32.5936 Q1280.71 32.5936 1277.22 36.4419 Q1273.74 40.2903 1273.74 46.9338 L1273.74 72.576 L1266.25 72.576 L1266.25 27.2059 L1273.74 27.2059 L1273.74 34.2544 Q1276.41 30.163 1280.02 28.1376 Q1283.66 26.1121 1288.4 26.1121 Q1296.22 26.1121 1300.23 30.9732 Q1304.24 35.7938 1304.24 45.1919 Z" fill="#000000" fill-rule="nonzero" fill-opacity="1" /><path clip-path="url(#clip470)" d="M1348.97 49.3643 Q1348.97 41.2625 1345.6 36.8065 Q1342.28 32.3505 1336.25 32.3505 Q1330.25 32.3505 1326.89 36.8065 Q1323.57 41.2625 1323.57 49.3643 Q1323.57 57.4256 1326.89 61.8816 Q1330.25 66.3376 1336.25 66.3376 Q1342.28 66.3376 1345.6 61.8816 Q1348.97 57.4256 1348.97 49.3643 M1356.42 66.9452 Q1356.42 78.5308 1351.27 84.1616 Q1346.13 89.8329 1335.52 89.8329 Q1331.59 89.8329 1328.1 89.2252 Q1324.62 88.6581 1321.34 87.4428 L1321.34 80.1917 Q1324.62 81.9741 1327.82 82.8248 Q1331.02 83.6755 1334.34 83.6755 Q1341.67 83.6755 1345.32 79.8271 Q1348.97 76.0193 1348.97 68.282 L1348.97 64.5957 Q1346.66 68.6061 1343.05 70.5911 Q1339.45 72.576 1334.42 72.576 Q1326.08 72.576 1320.97 66.2161 Q1315.87 59.8562 1315.87 49.3643 Q1315.87 38.832 1320.97 32.472 Q1326.08 26.1121 1334.42 26.1121 Q1339.45 26.1121 1343.05 28.0971 Q1346.66 30.082 1348.97 34.0924 L1348.97 27.2059 L1356.42 27.2059 L1356.42 66.9452 Z" fill="#000000" fill-rule="nonzero" fill-opacity="1" /><path clip-path="url(#clip470)" d="M1398.47 12.096 L1406.65 12.096 L1406.65 65.6895 L1436.1 65.6895 L1436.1 72.576 L1398.47 72.576 L1398.47 12.096 Z" fill="#000000" fill-rule="nonzero" fill-opacity="1" /><path clip-path="url(#clip470)" d="M1460.49 32.4315 Q1454.49 32.4315 1451.01 37.1306 Q1447.52 41.7891 1447.52 49.9314 Q1447.52 58.0738 1450.97 62.7728 Q1454.45 67.4314 1460.49 67.4314 Q1466.44 67.4314 1469.93 62.7323 Q1473.41 58.0333 1473.41 49.9314 Q1473.41 41.8701 1469.93 37.1711 Q1466.44 32.4315 1460.49 32.4315 M1460.49 26.1121 Q1470.21 26.1121 1475.76 32.4315 Q1481.31 38.7509 1481.31 49.9314 Q1481.31 61.0714 1475.76 67.4314 Q1470.21 73.7508 1460.49 73.7508 Q1450.72 73.7508 1445.17 67.4314 Q1439.67 61.0714 1439.67 49.9314 Q1439.67 38.7509 1445.17 32.4315 Q1450.72 26.1121 1460.49 26.1121 Z" fill="#000000" fill-rule="nonzero" fill-opacity="1" /><path clip-path="url(#clip470)" d="M1522.59 28.5427 L1522.59 35.5912 Q1519.43 33.9709 1516.02 33.1607 Q1512.62 32.3505 1508.98 32.3505 Q1503.43 32.3505 1500.63 34.0519 Q1497.88 35.7533 1497.88 39.156 Q1497.88 41.7486 1499.86 43.2475 Q1501.85 44.7058 1507.84 46.0426 L1510.39 46.6097 Q1518.33 48.3111 1521.66 51.4303 Q1525.02 54.509 1525.02 60.0587 Q1525.02 66.3781 1519.99 70.0644 Q1515.01 73.7508 1506.26 73.7508 Q1502.62 73.7508 1498.65 73.0216 Q1494.72 72.3329 1490.34 70.9151 L1490.34 63.2184 Q1494.47 65.3654 1498.48 66.4591 Q1502.49 67.5124 1506.42 67.5124 Q1511.69 67.5124 1514.53 65.73 Q1517.36 63.9071 1517.36 60.6258 Q1517.36 57.5877 1515.3 55.9673 Q1513.27 54.3469 1506.34 52.8481 L1503.75 52.2405 Q1496.82 50.7821 1493.74 47.7845 Q1490.67 44.7463 1490.67 39.4801 Q1490.67 33.0797 1495.2 29.5959 Q1499.74 26.1121 1508.09 26.1121 Q1512.22 26.1121 1515.86 26.7198 Q1519.51 27.3274 1522.59 28.5427 Z" fill="#000000" fill-rule="nonzero" fill-opacity="1" /><path clip-path="url(#clip470)" d="M1565.81 28.5427 L1565.81 35.5912 Q1562.65 33.9709 1559.25 33.1607 Q1555.85 32.3505 1552.2 32.3505 Q1546.65 32.3505 1543.85 34.0519 Q1541.1 35.7533 1541.1 39.156 Q1541.1 41.7486 1543.08 43.2475 Q1545.07 44.7058 1551.07 46.0426 L1553.62 46.6097 Q1561.56 48.3111 1564.88 51.4303 Q1568.24 54.509 1568.24 60.0587 Q1568.24 66.3781 1563.22 70.0644 Q1558.24 73.7508 1549.49 73.7508 Q1545.84 73.7508 1541.87 73.0216 Q1537.94 72.3329 1533.57 70.9151 L1533.57 63.2184 Q1537.7 65.3654 1541.71 66.4591 Q1545.72 67.5124 1549.65 67.5124 Q1554.91 67.5124 1557.75 65.73 Q1560.58 63.9071 1560.58 60.6258 Q1560.58 57.5877 1558.52 55.9673 Q1556.49 54.3469 1549.57 52.8481 L1546.97 52.2405 Q1540.05 50.7821 1536.97 47.7845 Q1533.89 44.7463 1533.89 39.4801 Q1533.89 33.0797 1538.43 29.5959 Q1542.96 26.1121 1551.31 26.1121 Q1555.44 26.1121 1559.09 26.7198 Q1562.73 27.3274 1565.81 28.5427 Z" fill="#000000" fill-rule="nonzero" fill-opacity="1" /><polyline clip-path="url(#clip471)" style="stroke:#009af9; stroke-linecap:round; stroke-linejoin:round; stroke-width:4; stroke-opacity:1; fill:none" points="311.302,252.59 317.909,160.256 324.515,171.433 331.122,240.518 337.729,259.148 344.335,272.965 350.942,282.319 357.549,290.298 364.155,298.713 370.762,303.217 377.369,308.122 383.975,321.192 390.582,355.238 397.189,418.862 403.795,467.765 410.402,492.042 417.009,502.532 423.615,502.849 430.222,512.935 436.828,526.823 443.435,541.44 450.042,554.734 456.648,556.773 463.255,567.502 469.862,581.21 476.468,592.722 483.075,601.199 489.682,603.166 496.288,609.517 502.895,622.678 509.502,634.12 516.108,634.462 522.715,634.137 529.322,637.481 535.928,652.616 542.535,645.595 549.141,651.761 555.748,665.633 562.355,663.05 568.961,665.291 575.568,675.99 582.175,677.122 588.781,686.328 595.388,684.652 601.995,681.677 608.601,709.339 615.208,702.157 621.815,689.773 628.421,687.506 635.028,705.335 641.635,719.461 648.241,713.594 654.848,715.901 661.454,724.694 668.061,763.452 674.668,740.493 681.274,739.052 687.881,763.625 694.488,737.976 701.094,773.81 707.701,766.949 714.308,770.385 720.914,785.851 727.521,783.689 734.128,776.07 740.734,781.849 747.341,817.749 753.947,793.03 760.554,817.284 767.161,812.065 773.767,844.78 780.374,834.869 786.981,800.483 793.587,867.074 800.194,810.382 806.801,827.284 813.407,833.763 820.014,824.387 826.621,861.296 833.227,870.657 839.834,851.201 846.441,854.208 853.047,896.874 859.654,874.05 866.26,896.687 872.867,887.429 879.474,850.487 886.08,869.996 892.687,875.146 899.294,859.766 905.9,883.067 912.507,894.308 919.114,891.785 925.72,871.83 932.327,864.301 938.934,901.682 945.54,933.767 952.147,872.684 958.754,876.897 965.36,891.655 971.967,859.422 978.573,852.502 985.18,902.738 991.787,874.795 998.393,917.955 1005,924.172 1011.61,868.67 1018.21,904.818 1024.82,862.264 1031.43,899.847 1038.03,934.705 1044.64,875.38 1051.25,956.775 1057.85,890.625 1064.46,899.292 1071.07,1001.77 1077.67,916.643 1084.28,909.279 1090.89,878.885 1097.49,867.034 1104.1,968.584 1110.71,897.811 1117.31,920.391 1123.92,870.927 1130.53,899.671 1137.13,904.636 1143.74,921.658 1150.35,947.828 1156.95,872.825 1163.56,986.162 1170.17,948.849 1176.77,921.697 1183.38,927.556 1189.99,916.002 1196.59,925.084 1203.2,989.375 1209.81,886.332 1216.41,953.315 1223.02,1022.43 1229.63,934.56 1236.23,916.04 1242.84,841.819 1249.45,924.406 1256.05,917.649 1262.66,888.527 1269.27,962.451 1275.87,935.158 1282.48,844.18 1289.09,900.867 1295.69,913.304 1302.3,945.476 1308.91,935.442 1315.51,988.051 1322.12,923.007 1328.73,1014.81 1335.33,924.207 1341.94,873.308 1348.55,894.017 1355.15,945.847 1361.76,866.547 1368.37,967.059 1374.97,960.856 1381.58,943.378 1388.19,1006.1 1394.79,877.87 1401.4,1000.23 1408.01,905.68 1414.61,951.855 1421.22,945.96 1427.83,973.105 1434.43,903.008 1441.04,960.462 1447.65,971.848 1454.25,1059.03 1460.86,1209.11 1467.47,971.16 1474.07,934.117 1480.68,1180.23 1487.29,1008.65 1493.89,964.863 1500.5,1042.66 1507.11,947.287 1513.71,926.006 1520.32,1002.05 1526.93,977.111 1533.53,880.863 1540.14,1005.98 1546.75,905.539 1553.35,953.168 1559.96,886.388 1566.56,932.187 1573.17,943.661 1579.78,1029.97 1586.38,940.163 1592.99,925.155 1599.6,946.732 1606.2,931.28 1612.81,942.146 1619.42,982.108 1626.02,1003.12 1632.63,1119.33 1639.24,959.632 1645.84,905.523 1652.45,963.487 1659.06,920.372 1665.66,909.476 1672.27,922.805 1678.88,887.977 1685.48,968.526 1692.09,936.955 1698.7,962.631 1705.3,1067.55 1711.91,902.626 1718.52,1386.4 1725.12,946.304 1731.73,928.356 1738.34,918.337 1744.94,925.182 1751.55,905.946 1758.16,992.746 1764.76,949.806 1771.37,1051.2 1777.98,963.699 1784.58,962.991 1791.19,966.448 1797.8,929.625 1804.4,923.433 1811.01,1025.51 1817.62,949.517 1824.22,911.205 1830.83,904.582 1837.44,906.079 1844.04,968.043 1850.65,1041.56 1857.26,936.075 1863.86,1031.27 1870.47,934.406 1877.08,973.99 1883.68,929.395 1890.29,979.393 1896.9,975.832 1903.5,888.027 1910.11,963.728 1916.72,913.801 1923.32,961.507 1929.93,915.968 1936.54,1014.05 1943.14,1059.36 1949.75,981.475 1956.36,995.686 1962.96,1053.27 1969.57,1161.8 1976.18,1160.6 1982.78,957.612 1989.39,953.293 1996,960.442 2002.6,928.146 2009.21,990.25 2015.82,958.736 2022.42,1047.71 2029.03,957.067 2035.64,950.278 2042.24,925.504 2048.85,982.52 2055.46,929.833 2062.06,1065.98 2068.67,1056.15 2075.28,985.869 2081.88,957.041 2088.49,949.369 2095.1,955.706 2101.7,927.383 2108.31,1003.05 2114.92,958.225 2121.52,1031.33 2128.13,955.883 2134.74,950.717 2141.34,988.395 2147.95,889.79 2154.56,946.707 2161.16,1125.78 2167.77,1082.13 2174.38,919.343 2180.98,962.487 2187.59,1156.18 2194.2,1019.5 2200.8,968.9 2207.41,1023.36 2214.02,1038.82 2220.62,943.516 2227.23,1068.75 2233.84,1174.99 2240.44,971.004 2247.05,934 2253.66,925.373 2260.26,943.406 2266.87,955.923 2273.48,1088.18 2280.08,926.481 2286.69,914.361 2293.3,941.372 "/>
</svg>
