<?xml version="1.0" encoding="utf-8"?>
<svg xmlns="http://www.w3.org/2000/svg" xmlns:xlink="http://www.w3.org/1999/xlink" width="600" height="400" viewBox="0 0 2400 1600">
<defs>
  <clipPath id="clip980">
    <rect x="0" y="0" width="2400" height="1600"/>
  </clipPath>
</defs>
<path clip-path="url(#clip980)" d="M0 1600 L2400 1600 L2400 0 L0 0  Z" fill="#ffffff" fill-rule="evenodd" fill-opacity="1"/>
<defs>
  <clipPath id="clip981">
    <rect x="110" y="47" width="2243" height="1377"/>
  </clipPath>
</defs>
<path clip-path="url(#clip980)" d="M110.881 1423.18 L2352.76 1423.18 L2352.76 47.2441 L110.881 47.2441  Z" fill="#ffffff" fill-rule="evenodd" fill-opacity="1"/>
<polyline clip-path="url(#clip981)" style="stroke:#000000; stroke-linecap:round; stroke-linejoin:round; stroke-width:2; stroke-opacity:0.1; fill:none" points="110.881,1423.18 110.881,47.2441 "/>
<polyline clip-path="url(#clip981)" style="stroke:#000000; stroke-linecap:round; stroke-linejoin:round; stroke-width:2; stroke-opacity:0.1; fill:none" points="858.173,1423.18 858.173,47.2441 "/>
<polyline clip-path="url(#clip981)" style="stroke:#000000; stroke-linecap:round; stroke-linejoin:round; stroke-width:2; stroke-opacity:0.1; fill:none" points="1605.46,1423.18 1605.46,47.2441 "/>
<polyline clip-path="url(#clip981)" style="stroke:#000000; stroke-linecap:round; stroke-linejoin:round; stroke-width:2; stroke-opacity:0.1; fill:none" points="2352.76,1423.18 2352.76,47.2441 "/>
<polyline clip-path="url(#clip981)" style="stroke:#000000; stroke-linecap:round; stroke-linejoin:round; stroke-width:2; stroke-opacity:0.1; fill:none" points="110.881,1330.45 2352.76,1330.45 "/>
<polyline clip-path="url(#clip981)" style="stroke:#000000; stroke-linecap:round; stroke-linejoin:round; stroke-width:2; stroke-opacity:0.1; fill:none" points="110.881,1000.52 2352.76,1000.52 "/>
<polyline clip-path="url(#clip981)" style="stroke:#000000; stroke-linecap:round; stroke-linejoin:round; stroke-width:2; stroke-opacity:0.1; fill:none" points="110.881,670.596 2352.76,670.596 "/>
<polyline clip-path="url(#clip981)" style="stroke:#000000; stroke-linecap:round; stroke-linejoin:round; stroke-width:2; stroke-opacity:0.1; fill:none" points="110.881,340.668 2352.76,340.668 "/>
<polyline clip-path="url(#clip980)" style="stroke:#000000; stroke-linecap:round; stroke-linejoin:round; stroke-width:4; stroke-opacity:1; fill:none" points="110.881,1423.18 2352.76,1423.18 "/>
<polyline clip-path="url(#clip980)" style="stroke:#000000; stroke-linecap:round; stroke-linejoin:round; stroke-width:4; stroke-opacity:1; fill:none" points="110.881,1423.18 110.881,1404.28 "/>
<polyline clip-path="url(#clip980)" style="stroke:#000000; stroke-linecap:round; stroke-linejoin:round; stroke-width:4; stroke-opacity:1; fill:none" points="858.173,1423.18 858.173,1404.28 "/>
<polyline clip-path="url(#clip980)" style="stroke:#000000; stroke-linecap:round; stroke-linejoin:round; stroke-width:4; stroke-opacity:1; fill:none" points="1605.46,1423.18 1605.46,1404.28 "/>
<polyline clip-path="url(#clip980)" style="stroke:#000000; stroke-linecap:round; stroke-linejoin:round; stroke-width:4; stroke-opacity:1; fill:none" points="2352.76,1423.18 2352.76,1404.28 "/>
<path clip-path="url(#clip980)" d="M110.881 1454.1 Q107.27 1454.1 105.441 1457.66 Q103.636 1461.2 103.636 1468.33 Q103.636 1475.44 105.441 1479.01 Q107.27 1482.55 110.881 1482.55 Q114.515 1482.55 116.321 1479.01 Q118.149 1475.44 118.149 1468.33 Q118.149 1461.2 116.321 1457.66 Q114.515 1454.1 110.881 1454.1 M110.881 1450.39 Q116.691 1450.39 119.747 1455 Q122.825 1459.58 122.825 1468.33 Q122.825 1477.06 119.747 1481.67 Q116.691 1486.25 110.881 1486.25 Q105.071 1486.25 101.992 1481.67 Q98.9365 1477.06 98.9365 1468.33 Q98.9365 1459.58 101.992 1455 Q105.071 1450.39 110.881 1450.39 Z" fill="#000000" fill-rule="nonzero" fill-opacity="1" /><path clip-path="url(#clip980)" d="M832.872 1451.02 L851.228 1451.02 L851.228 1454.96 L837.154 1454.96 L837.154 1463.43 Q838.173 1463.08 839.191 1462.92 Q840.21 1462.73 841.228 1462.73 Q847.015 1462.73 850.395 1465.9 Q853.774 1469.08 853.774 1474.49 Q853.774 1480.07 850.302 1483.17 Q846.83 1486.25 840.511 1486.25 Q838.335 1486.25 836.066 1485.88 Q833.821 1485.51 831.413 1484.77 L831.413 1480.07 Q833.497 1481.2 835.719 1481.76 Q837.941 1482.32 840.418 1482.32 Q844.423 1482.32 846.761 1480.21 Q849.099 1478.1 849.099 1474.49 Q849.099 1470.88 846.761 1468.77 Q844.423 1466.67 840.418 1466.67 Q838.543 1466.67 836.668 1467.08 Q834.816 1467.5 832.872 1468.38 L832.872 1451.02 Z" fill="#000000" fill-rule="nonzero" fill-opacity="1" /><path clip-path="url(#clip980)" d="M872.987 1454.1 Q869.376 1454.1 867.548 1457.66 Q865.742 1461.2 865.742 1468.33 Q865.742 1475.44 867.548 1479.01 Q869.376 1482.55 872.987 1482.55 Q876.622 1482.55 878.427 1479.01 Q880.256 1475.44 880.256 1468.33 Q880.256 1461.2 878.427 1457.66 Q876.622 1454.1 872.987 1454.1 M872.987 1450.39 Q878.797 1450.39 881.853 1455 Q884.932 1459.58 884.932 1468.33 Q884.932 1477.06 881.853 1481.67 Q878.797 1486.25 872.987 1486.25 Q867.177 1486.25 864.098 1481.67 Q861.043 1477.06 861.043 1468.33 Q861.043 1459.58 864.098 1455 Q867.177 1450.39 872.987 1450.39 Z" fill="#000000" fill-rule="nonzero" fill-opacity="1" /><path clip-path="url(#clip980)" d="M1565.07 1481.64 L1572.71 1481.64 L1572.71 1455.28 L1564.4 1456.95 L1564.4 1452.69 L1572.66 1451.02 L1577.34 1451.02 L1577.34 1481.64 L1584.98 1481.64 L1584.98 1485.58 L1565.07 1485.58 L1565.07 1481.64 Z" fill="#000000" fill-rule="nonzero" fill-opacity="1" /><path clip-path="url(#clip980)" d="M1604.42 1454.1 Q1600.81 1454.1 1598.98 1457.66 Q1597.18 1461.2 1597.18 1468.33 Q1597.18 1475.44 1598.98 1479.01 Q1600.81 1482.55 1604.42 1482.55 Q1608.06 1482.55 1609.86 1479.01 Q1611.69 1475.44 1611.69 1468.33 Q1611.69 1461.2 1609.86 1457.66 Q1608.06 1454.1 1604.42 1454.1 M1604.42 1450.39 Q1610.23 1450.39 1613.29 1455 Q1616.37 1459.58 1616.37 1468.33 Q1616.37 1477.06 1613.29 1481.67 Q1610.23 1486.25 1604.42 1486.25 Q1598.61 1486.25 1595.53 1481.67 Q1592.48 1477.06 1592.48 1468.33 Q1592.48 1459.58 1595.53 1455 Q1598.61 1450.39 1604.42 1450.39 Z" fill="#000000" fill-rule="nonzero" fill-opacity="1" /><path clip-path="url(#clip980)" d="M1634.58 1454.1 Q1630.97 1454.1 1629.14 1457.66 Q1627.34 1461.2 1627.34 1468.33 Q1627.34 1475.44 1629.14 1479.01 Q1630.97 1482.55 1634.58 1482.55 Q1638.22 1482.55 1640.02 1479.01 Q1641.85 1475.44 1641.85 1468.33 Q1641.85 1461.2 1640.02 1457.66 Q1638.22 1454.1 1634.58 1454.1 M1634.58 1450.39 Q1640.39 1450.39 1643.45 1455 Q1646.53 1459.58 1646.53 1468.33 Q1646.53 1477.06 1643.45 1481.67 Q1640.39 1486.25 1634.58 1486.25 Q1628.77 1486.25 1625.7 1481.67 Q1622.64 1477.06 1622.64 1468.33 Q1622.64 1459.58 1625.7 1455 Q1628.77 1450.39 1634.58 1450.39 Z" fill="#000000" fill-rule="nonzero" fill-opacity="1" /><path clip-path="url(#clip980)" d="M2312.36 1481.64 L2320 1481.64 L2320 1455.28 L2311.69 1456.95 L2311.69 1452.69 L2319.96 1451.02 L2324.63 1451.02 L2324.63 1481.64 L2332.27 1481.64 L2332.27 1485.58 L2312.36 1485.58 L2312.36 1481.64 Z" fill="#000000" fill-rule="nonzero" fill-opacity="1" /><path clip-path="url(#clip980)" d="M2341.76 1451.02 L2360.12 1451.02 L2360.12 1454.96 L2346.04 1454.96 L2346.04 1463.43 Q2347.06 1463.08 2348.08 1462.92 Q2349.1 1462.73 2350.12 1462.73 Q2355.9 1462.73 2359.28 1465.9 Q2362.66 1469.08 2362.66 1474.49 Q2362.66 1480.07 2359.19 1483.17 Q2355.72 1486.25 2349.4 1486.25 Q2347.22 1486.25 2344.96 1485.88 Q2342.71 1485.51 2340.3 1484.77 L2340.3 1480.07 Q2342.39 1481.2 2344.61 1481.76 Q2346.83 1482.32 2349.31 1482.32 Q2353.31 1482.32 2355.65 1480.21 Q2357.99 1478.1 2357.99 1474.49 Q2357.99 1470.88 2355.65 1468.77 Q2353.31 1466.67 2349.31 1466.67 Q2347.43 1466.67 2345.56 1467.08 Q2343.71 1467.5 2341.76 1468.38 L2341.76 1451.02 Z" fill="#000000" fill-rule="nonzero" fill-opacity="1" /><path clip-path="url(#clip980)" d="M2381.88 1454.1 Q2378.27 1454.1 2376.44 1457.66 Q2374.63 1461.2 2374.63 1468.33 Q2374.63 1475.44 2376.44 1479.01 Q2378.27 1482.55 2381.88 1482.55 Q2385.51 1482.55 2387.32 1479.01 Q2389.14 1475.44 2389.14 1468.33 Q2389.14 1461.2 2387.32 1457.66 Q2385.51 1454.1 2381.88 1454.1 M2381.88 1450.39 Q2387.69 1450.39 2390.74 1455 Q2393.82 1459.58 2393.82 1468.33 Q2393.82 1477.06 2390.74 1481.67 Q2387.69 1486.25 2381.88 1486.25 Q2376.07 1486.25 2372.99 1481.67 Q2369.93 1477.06 2369.93 1468.33 Q2369.93 1459.58 2372.99 1455 Q2376.07 1450.39 2381.88 1450.39 Z" fill="#000000" fill-rule="nonzero" fill-opacity="1" /><path clip-path="url(#clip980)" d="M1230.88 1522.27 L1230.88 1532.4 L1242.94 1532.4 L1242.94 1536.95 L1230.88 1536.95 L1230.88 1556.3 Q1230.88 1560.66 1232.06 1561.9 Q1233.27 1563.14 1236.93 1563.14 L1242.94 1563.14 L1242.94 1568.04 L1236.93 1568.04 Q1230.15 1568.04 1227.57 1565.53 Q1224.99 1562.98 1224.99 1556.3 L1224.99 1536.95 L1220.69 1536.95 L1220.69 1532.4 L1224.99 1532.4 L1224.99 1522.27 L1230.88 1522.27 Z" fill="#000000" fill-rule="nonzero" fill-opacity="1" /><polyline clip-path="url(#clip980)" style="stroke:#000000; stroke-linecap:round; stroke-linejoin:round; stroke-width:4; stroke-opacity:1; fill:none" points="110.881,1423.18 110.881,47.2441 "/>
<polyline clip-path="url(#clip980)" style="stroke:#000000; stroke-linecap:round; stroke-linejoin:round; stroke-width:4; stroke-opacity:1; fill:none" points="110.881,1330.45 129.779,1330.45 "/>
<polyline clip-path="url(#clip980)" style="stroke:#000000; stroke-linecap:round; stroke-linejoin:round; stroke-width:4; stroke-opacity:1; fill:none" points="110.881,1000.52 129.779,1000.52 "/>
<polyline clip-path="url(#clip980)" style="stroke:#000000; stroke-linecap:round; stroke-linejoin:round; stroke-width:4; stroke-opacity:1; fill:none" points="110.881,670.596 129.779,670.596 "/>
<polyline clip-path="url(#clip980)" style="stroke:#000000; stroke-linecap:round; stroke-linejoin:round; stroke-width:4; stroke-opacity:1; fill:none" points="110.881,340.668 129.779,340.668 "/>
<path clip-path="url(#clip980)" d="M62.9365 1316.25 Q59.3254 1316.25 57.4967 1319.82 Q55.6912 1323.36 55.6912 1330.49 Q55.6912 1337.59 57.4967 1341.16 Q59.3254 1344.7 62.9365 1344.7 Q66.5707 1344.7 68.3763 1341.16 Q70.205 1337.59 70.205 1330.49 Q70.205 1323.36 68.3763 1319.82 Q66.5707 1316.25 62.9365 1316.25 M62.9365 1312.55 Q68.7467 1312.55 71.8022 1317.15 Q74.8809 1321.74 74.8809 1330.49 Q74.8809 1339.21 71.8022 1343.82 Q68.7467 1348.4 62.9365 1348.4 Q57.1264 1348.4 54.0477 1343.82 Q50.9921 1339.21 50.9921 1330.49 Q50.9921 1321.74 54.0477 1317.15 Q57.1264 1312.55 62.9365 1312.55 Z" fill="#000000" fill-rule="nonzero" fill-opacity="1" /><path clip-path="url(#clip980)" d="M54.9736 1013.87 L62.6124 1013.87 L62.6124 987.504 L54.3023 989.17 L54.3023 984.911 L62.5661 983.245 L67.242 983.245 L67.242 1013.87 L74.8809 1013.87 L74.8809 1017.8 L54.9736 1017.8 L54.9736 1013.87 Z" fill="#000000" fill-rule="nonzero" fill-opacity="1" /><path clip-path="url(#clip980)" d="M58.5615 683.941 L74.8809 683.941 L74.8809 687.876 L52.9366 687.876 L52.9366 683.941 Q55.5986 681.186 60.1819 676.557 Q64.7883 671.904 65.9689 670.562 Q68.2143 668.038 69.0939 666.302 Q69.9967 664.543 69.9967 662.853 Q69.9967 660.099 68.0522 658.362 Q66.1309 656.626 63.0291 656.626 Q60.83 656.626 58.3763 657.39 Q55.9458 658.154 53.168 659.705 L53.168 654.983 Q55.9921 653.849 58.4458 653.27 Q60.8995 652.691 62.9365 652.691 Q68.3068 652.691 71.5013 655.376 Q74.6957 658.062 74.6957 662.552 Q74.6957 664.682 73.8855 666.603 Q73.0985 668.501 70.992 671.094 Q70.4133 671.765 67.3115 674.983 Q64.2096 678.177 58.5615 683.941 Z" fill="#000000" fill-rule="nonzero" fill-opacity="1" /><path clip-path="url(#clip980)" d="M67.7513 339.314 Q71.1078 340.031 72.9827 342.3 Q74.8809 344.568 74.8809 347.902 Q74.8809 353.017 71.3624 355.818 Q67.8439 358.619 61.3624 358.619 Q59.1865 358.619 56.8717 358.179 Q54.5801 357.763 52.1264 356.906 L52.1264 352.392 Q54.0708 353.527 56.3856 354.105 Q58.7004 354.684 61.2236 354.684 Q65.6217 354.684 67.9133 352.948 Q70.2281 351.212 70.2281 347.902 Q70.2281 344.846 68.0754 343.133 Q65.9457 341.397 62.1263 341.397 L58.0986 341.397 L58.0986 337.555 L62.3115 337.555 Q65.7606 337.555 67.5893 336.189 Q69.418 334.8 69.418 332.207 Q69.418 329.545 67.5198 328.133 Q65.6448 326.698 62.1263 326.698 Q60.205 326.698 58.006 327.115 Q55.8069 327.531 53.168 328.411 L53.168 324.244 Q55.8301 323.504 58.1449 323.133 Q60.4828 322.763 62.543 322.763 Q67.867 322.763 70.9689 325.193 Q74.0707 327.601 74.0707 331.721 Q74.0707 334.592 72.4272 336.582 Q70.7837 338.55 67.7513 339.314 Z" fill="#000000" fill-rule="nonzero" fill-opacity="1" /><polyline clip-path="url(#clip981)" style="stroke:#009af9; stroke-linecap:round; stroke-linejoin:round; stroke-width:4; stroke-opacity:1; fill:none" points="110.881,218.667 113.125,151.44 115.369,113.304 117.613,94.0667 119.857,86.5249 122.101,86.1857 124.346,90.0838 126.59,96.3304 128.834,103.777 131.078,111.742 133.322,119.831 135.566,127.82 137.81,135.584 140.054,143.057 142.299,150.209 144.543,157.032 146.787,163.525 149.031,169.699 151.275,175.566 153.519,181.139 155.763,186.433 158.007,191.463 160.252,196.243 162.496,200.786 164.74,205.106 166.984,209.215 169.228,213.124 171.472,216.844 173.716,220.384 175.96,223.755 178.204,226.966 180.449,230.024 182.693,232.938 184.937,235.715 187.181,238.362 189.425,240.885 191.669,243.291 193.913,245.586 196.157,247.774 198.402,249.86 200.646,251.851 202.89,253.751 205.134,255.564 207.378,257.294 209.622,258.944 211.866,260.519 214.11,262.023 216.354,263.459 218.599,264.829 220.843,266.137 223.087,267.386 225.331,268.578 227.575,269.717 229.819,270.804 232.063,271.843 234.307,272.834 236.552,273.781 238.796,274.685 241.04,275.549 243.284,276.374 245.528,277.162 247.772,277.914 250.016,278.633 252.26,279.32 254.505,279.976 256.749,280.602 258.993,281.201 261.237,281.773 263.481,282.319 265.725,282.841 267.969,283.34 270.213,283.816 272.457,284.271 274.702,284.706 276.946,285.121 279.19,285.518 281.434,285.898 283.678,286.26 285.922,286.606 288.166,286.937 290.41,287.253 292.655,287.555 294.899,287.843 297.143,288.119 299.387,288.383 301.631,288.635 303.875,288.875 306.119,289.105 308.363,289.325 310.607,289.535 312.852,289.735 315.096,289.927 317.34,290.11 319.584,290.285 321.828,290.453 324.072,290.613 326.316,290.765 328.56,290.911 330.805,291.051 333.049,291.184 335.293,291.311 337.537,291.433 339.781,291.55 342.025,291.661 344.269,291.767 346.513,291.869 348.758,291.966 351.002,292.058 353.246,292.147 355.49,292.232 357.734,292.313 359.978,292.39 362.222,292.464 364.466,292.535 366.71,292.602 368.955,292.667 371.199,292.728 373.443,292.787 375.687,292.843 377.931,292.897 380.175,292.949 382.419,292.998 384.663,293.045 386.908,293.09 389.152,293.133 391.396,293.174 393.64,293.213 395.884,293.25 398.128,293.286 400.372,293.32 402.616,293.353 404.86,293.384 407.105,293.414 409.349,293.443 411.593,293.47 413.837,293.496 416.081,293.521 418.325,293.545 420.569,293.568 422.813,293.589 425.058,293.61 427.302,293.63 429.546,293.649 431.79,293.667 434.034,293.684 436.278,293.701 438.522,293.717 440.766,293.732 443.011,293.747 445.255,293.76 447.499,293.774 449.743,293.786 451.987,293.798 454.231,293.81 456.475,293.821 458.719,293.831 460.963,293.841 463.208,293.851 465.452,293.86 467.696,293.869 469.94,293.877 472.184,293.885 474.428,293.893 476.672,293.9 478.916,293.907 481.161,293.914 483.405,293.921 485.649,293.927 487.893,293.933 490.137,293.938 492.381,293.943 494.625,293.949 496.869,293.953 499.113,293.958 501.358,293.963 503.602,293.967 505.846,293.971 508.09,293.975 510.334,293.979 512.578,293.982 514.822,293.985 517.066,293.989 519.311,293.992 521.555,293.995 523.799,293.998 526.043,294 528.287,294.003 530.531,294.005 532.775,294.008 535.019,294.01 537.264,294.012 539.508,294.014 541.752,294.016 543.996,294.018 546.24,294.02 548.484,294.022 550.728,294.023 552.972,294.025 555.216,294.026 557.461,294.028 559.705,294.029 561.949,294.031 564.193,294.032 566.437,294.033 568.681,294.034 570.925,294.035 573.169,294.036 575.414,294.037 577.658,294.038 579.902,294.039 582.146,294.04 584.39,294.041 586.634,294.042 588.878,294.042 591.122,294.043 593.367,294.044 595.611,294.044 597.855,294.045 600.099,294.046 602.343,294.046 604.587,294.047 606.831,294.047 609.075,294.048 611.319,294.048 613.564,294.049 615.808,294.049 618.052,294.05 620.296,294.05 622.54,294.05 624.784,294.051 627.028,294.051 629.272,294.052 631.517,294.052 633.761,294.052 636.005,294.052 638.249,294.053 640.493,294.053 642.737,294.053 644.981,294.054 647.225,294.054 649.469,294.054 651.714,294.054 653.958,294.054 656.202,294.055 658.446,294.055 660.69,294.055 662.934,294.055 665.178,294.055 667.422,294.055 669.667,294.056 671.911,294.056 674.155,294.056 676.399,294.056 678.643,294.056 680.887,294.056 683.131,294.056 685.375,294.056 687.62,294.057 689.864,294.057 692.108,294.057 694.352,294.057 696.596,294.057 698.84,294.057 701.084,294.057 703.328,294.057 705.572,294.057 707.817,294.057 710.061,294.057 712.305,294.057 714.549,294.058 716.793,294.058 719.037,294.058 721.281,294.058 723.525,294.058 725.77,294.058 728.014,294.058 730.258,294.058 732.502,294.058 734.746,294.058 736.99,294.058 739.234,294.058 741.478,294.058 743.722,294.058 745.967,294.058 748.211,294.058 750.455,294.058 752.699,294.058 754.943,294.058 757.187,294.058 759.431,294.058 761.675,294.058 763.92,294.058 766.164,294.058 768.408,294.058 770.652,294.058 772.896,294.058 775.14,294.058 777.384,294.058 779.628,294.058 781.873,294.058 784.117,294.059 786.361,294.059 788.605,294.059 790.849,294.059 793.093,294.059 795.337,294.059 797.581,294.059 799.825,294.059 802.07,294.059 804.314,294.059 806.558,294.059 808.802,294.059 811.046,294.059 813.29,294.059 815.534,294.059 817.778,294.059 820.023,294.059 822.267,294.059 824.511,294.059 826.755,294.059 828.999,294.059 831.243,294.059 833.487,294.059 835.731,294.059 837.975,294.059 840.22,294.059 842.464,294.059 844.708,294.059 846.952,294.059 849.196,294.059 851.44,294.059 853.684,294.059 855.928,294.059 858.173,294.059 860.417,294.059 862.661,294.059 864.905,294.059 867.149,294.059 869.393,294.059 871.637,294.059 873.881,294.059 876.126,294.059 878.37,294.059 880.614,294.059 882.858,294.059 885.102,294.059 887.346,294.059 889.59,294.059 891.834,294.059 894.078,294.059 896.323,294.059 898.567,294.059 900.811,294.059 903.055,294.059 905.299,294.059 907.543,294.059 909.787,294.059 912.031,294.059 914.276,294.059 916.52,294.059 918.764,294.059 921.008,294.059 923.252,294.059 925.496,294.059 927.74,294.059 929.984,294.059 932.228,294.059 934.473,294.059 936.717,294.059 938.961,294.059 941.205,294.059 943.449,294.059 945.693,294.059 947.937,294.059 950.181,294.059 952.426,294.059 954.67,294.059 956.914,294.059 959.158,294.059 961.402,294.059 963.646,294.059 965.89,294.059 968.134,294.059 970.379,294.059 972.623,294.059 974.867,294.059 977.111,294.059 979.355,294.059 981.599,294.059 983.843,294.059 986.087,294.059 988.331,294.059 990.576,294.059 992.82,294.059 995.064,294.059 997.308,294.059 999.552,294.059 1001.8,294.059 1004.04,294.059 1006.28,294.059 1008.53,294.059 1010.77,294.059 1013.02,294.059 1015.26,294.059 1017.51,294.059 1019.75,294.059 1021.99,294.059 1024.24,294.059 1026.48,294.059 1028.73,294.059 1030.97,294.059 1033.21,294.059 1035.46,294.059 1037.7,294.059 1039.95,294.059 1042.19,294.059 1044.43,294.059 1046.68,294.059 1048.92,294.059 1051.17,294.059 1053.41,294.059 1055.66,294.059 1057.9,294.059 1060.14,294.059 1062.39,294.059 1064.63,294.059 1066.88,294.059 1069.12,294.059 1071.36,294.059 1073.61,294.059 1075.85,294.059 1078.1,294.059 1080.34,294.059 1082.58,294.059 1084.83,294.059 1087.07,294.059 1089.32,294.059 1091.56,294.059 1093.81,294.059 1096.05,294.059 1098.29,294.059 1100.54,294.059 1102.78,294.059 1105.03,294.059 1107.27,294.059 1109.51,294.059 1111.76,294.059 1114,294.059 1116.25,294.059 1118.49,294.059 1120.73,294.059 1122.98,294.059 1125.22,294.059 1127.47,294.059 1129.71,294.059 1131.96,294.059 1134.2,294.059 1136.44,294.059 1138.69,294.059 1140.93,294.059 1143.18,294.059 1145.42,294.059 1147.66,294.059 1149.91,294.059 1152.15,294.059 1154.4,294.059 1156.64,294.059 1158.88,294.059 1161.13,294.059 1163.37,294.059 1165.62,294.059 1167.86,294.059 1170.11,294.059 1172.35,294.059 1174.59,294.059 1176.84,294.059 1179.08,294.059 1181.33,294.059 1183.57,294.059 1185.81,294.059 1188.06,294.059 1190.3,294.059 1192.55,294.059 1194.79,294.059 1197.03,294.059 1199.28,294.059 1201.52,294.059 1203.77,294.059 1206.01,294.059 1208.26,294.059 1210.5,294.059 1212.74,294.059 1214.99,294.059 1217.23,294.059 1219.48,294.059 1221.72,294.059 1223.96,294.059 1226.21,294.059 1228.45,294.059 1230.7,294.059 1232.94,294.059 1235.18,294.059 1237.43,294.059 1239.67,294.059 1241.92,294.059 1244.16,294.059 1246.41,294.059 1248.65,294.059 1250.89,294.059 1253.14,294.059 1255.38,294.059 1257.63,294.059 1259.87,294.059 1262.11,294.059 1264.36,294.059 1266.6,294.059 1268.85,294.059 1271.09,294.059 1273.33,294.059 1275.58,294.059 1277.82,294.059 1280.07,294.059 1282.31,294.059 1284.56,294.059 1286.8,294.059 1289.04,294.059 1291.29,294.059 1293.53,294.059 1295.78,294.059 1298.02,294.059 1300.26,294.059 1302.51,294.059 1304.75,294.059 1307,294.059 1309.24,294.059 1311.48,294.059 1313.73,294.059 1315.97,294.059 1318.22,294.059 1320.46,294.059 1322.71,294.059 1324.95,294.059 1327.19,294.059 1329.44,294.059 1331.68,294.059 1333.93,294.059 1336.17,294.059 1338.41,294.059 1340.66,294.059 1342.9,294.059 1345.15,294.059 1347.39,294.059 1349.63,294.059 1351.88,294.059 1354.12,294.059 1356.37,294.059 1358.61,294.059 1360.86,294.059 1363.1,294.059 1365.34,294.059 1367.59,294.059 1369.83,294.059 1372.08,294.059 1374.32,294.059 1376.56,294.059 1378.81,294.059 1381.05,294.059 1383.3,294.059 1385.54,294.059 1387.78,294.059 1390.03,294.059 1392.27,294.059 1394.52,294.059 1396.76,294.059 1399.01,294.059 1401.25,294.059 1403.49,294.059 1405.74,294.059 1407.98,294.059 1410.23,294.059 1412.47,294.059 1414.71,294.059 1416.96,294.059 1419.2,294.059 1421.45,294.059 1423.69,294.059 1425.93,294.059 1428.18,294.059 1430.42,294.059 1432.67,294.059 1434.91,294.059 1437.16,294.059 1439.4,294.059 1441.64,294.059 1443.89,294.059 1446.13,294.059 1448.38,294.059 1450.62,294.059 1452.86,294.059 1455.11,294.059 1457.35,294.059 1459.6,294.059 1461.84,294.059 1464.08,294.059 1466.33,294.059 1468.57,294.059 1470.82,294.059 1473.06,294.059 1475.31,294.059 1477.55,294.059 1479.79,294.059 1482.04,294.059 1484.28,294.059 1486.53,294.059 1488.77,294.059 1491.01,294.059 1493.26,294.059 1495.5,294.059 1497.75,294.059 1499.99,294.059 1502.23,294.059 1504.48,294.059 1506.72,294.059 1508.97,294.059 1511.21,294.059 1513.46,294.059 1515.7,294.059 1517.94,294.059 1520.19,294.059 1522.43,294.059 1524.68,294.059 1526.92,294.059 1529.16,294.059 1531.41,294.059 1533.65,294.059 1535.9,294.059 1538.14,294.059 1540.38,294.059 1542.63,294.059 1544.87,294.059 1547.12,294.059 1549.36,294.059 1551.61,294.059 1553.85,294.059 1556.09,294.059 1558.34,294.059 1560.58,294.059 1562.83,294.059 1565.07,294.059 1567.31,294.059 1569.56,294.059 1571.8,294.059 1574.05,294.059 1576.29,294.059 1578.53,294.059 1580.78,294.059 1583.02,294.059 1585.27,294.059 1587.51,294.059 1589.76,294.059 1592,294.059 1594.24,294.059 1596.49,294.059 1598.73,294.059 1600.98,294.059 1603.22,294.059 1605.46,294.059 1607.71,294.059 1609.95,294.059 1612.2,294.059 1614.44,294.059 1616.68,294.059 1618.93,294.059 1621.17,294.059 1623.42,294.059 1625.66,294.059 1627.91,294.059 1630.15,294.059 1632.39,294.059 1634.64,294.059 1636.88,294.059 1639.13,294.059 1641.37,294.059 1643.61,294.059 1645.86,294.059 1648.1,294.059 1650.35,294.059 1652.59,294.059 1654.83,294.059 1657.08,294.059 1659.32,294.059 1661.57,294.059 1663.81,294.059 1666.06,294.059 1668.3,294.059 1670.54,294.059 1672.79,294.059 1675.03,294.059 1677.28,294.059 1679.52,294.059 1681.76,294.059 1684.01,294.059 1686.25,294.059 1688.5,294.059 1690.74,294.059 1692.98,294.059 1695.23,294.059 1697.47,294.059 1699.72,294.059 1701.96,294.059 1704.21,294.059 1706.45,294.059 1708.69,294.059 1710.94,294.059 1713.18,294.059 1715.43,294.059 1717.67,294.059 1719.91,294.059 1722.16,294.059 1724.4,294.059 1726.65,294.059 1728.89,294.059 1731.13,294.059 1733.38,294.059 1735.62,294.059 1737.87,294.059 1740.11,294.059 1742.36,294.059 1744.6,294.059 1746.84,294.059 1749.09,294.059 1751.33,294.059 1753.58,294.059 1755.82,294.059 1758.06,294.059 1760.31,294.059 1762.55,294.059 1764.8,294.059 1767.04,294.059 1769.28,294.059 1771.53,294.059 1773.77,294.059 1776.02,294.059 1778.26,294.059 1780.51,294.059 1782.75,294.059 1784.99,294.059 1787.24,294.059 1789.48,294.059 1791.73,294.059 1793.97,294.059 1796.21,294.059 1798.46,294.059 1800.7,294.059 1802.95,294.059 1805.19,294.059 1807.43,294.059 1809.68,294.059 1811.92,294.059 1814.17,294.059 1816.41,294.059 1818.66,294.059 1820.9,294.059 1823.14,294.059 1825.39,294.059 1827.63,294.059 1829.88,294.059 1832.12,294.059 1834.36,294.059 1836.61,294.059 1838.85,294.059 1841.1,294.059 1843.34,294.059 1845.58,294.059 1847.83,294.059 1850.07,294.059 1852.32,294.059 1854.56,294.059 1856.81,294.059 1859.05,294.059 1861.29,294.059 1863.54,294.059 1865.78,294.059 1868.03,294.059 1870.27,294.059 1872.51,294.059 1874.76,294.059 1877,294.059 1879.25,294.059 1881.49,294.059 1883.74,294.059 1885.98,294.059 1888.22,294.059 1890.47,294.059 1892.71,294.059 1894.96,294.059 1897.2,294.059 1899.44,294.059 1901.69,294.059 1903.93,294.059 1906.18,294.059 1908.42,294.059 1910.66,294.059 1912.91,294.059 1915.15,294.059 1917.4,294.059 1919.64,294.059 1921.89,294.059 1924.13,294.059 1926.37,294.059 1928.62,294.059 1930.86,294.059 1933.11,294.059 1935.35,294.059 1937.59,294.059 1939.84,294.059 1942.08,294.059 1944.33,294.059 1946.57,294.059 1948.81,294.059 1951.06,294.059 1953.3,294.059 1955.55,294.059 1957.79,294.059 1960.04,294.059 1962.28,294.059 1964.52,294.059 1966.77,294.059 1969.01,294.059 1971.26,294.059 1973.5,294.059 1975.74,294.059 1977.99,294.059 1980.23,294.059 1982.48,294.059 1984.72,294.059 1986.96,294.059 1989.21,294.059 1991.45,294.059 1993.7,294.059 1995.94,294.059 1998.19,294.059 2000.43,294.059 2002.67,294.059 2004.92,294.059 2007.16,294.059 2009.41,294.059 2011.65,294.059 2013.89,294.059 2016.14,294.059 2018.38,294.059 2020.63,294.059 2022.87,294.059 2025.11,294.059 2027.36,294.059 2029.6,294.059 2031.85,294.059 2034.09,294.059 2036.34,294.059 2038.58,294.059 2040.82,294.059 2043.07,294.059 2045.31,294.059 2047.56,294.059 2049.8,294.059 2052.04,294.059 2054.29,294.059 2056.53,294.059 2058.78,294.059 2061.02,294.059 2063.26,294.059 2065.51,294.059 2067.75,294.059 2070,294.059 2072.24,294.059 2074.49,294.059 2076.73,294.059 2078.97,294.059 2081.22,294.059 2083.46,294.059 2085.71,294.059 2087.95,294.059 2090.19,294.059 2092.44,294.059 2094.68,294.059 2096.93,294.059 2099.17,294.059 2101.41,294.059 2103.66,294.059 2105.9,294.059 2108.15,294.059 2110.39,294.059 2112.64,294.059 2114.88,294.059 2117.12,294.059 2119.37,294.059 2121.61,294.059 2123.86,294.059 2126.1,294.059 2128.34,294.059 2130.59,294.059 2132.83,294.059 2135.08,294.059 2137.32,294.059 2139.56,294.059 2141.81,294.059 2144.05,294.059 2146.3,294.059 2148.54,294.059 2150.79,294.059 2153.03,294.059 2155.27,294.059 2157.52,294.059 2159.76,294.059 2162.01,294.059 2164.25,294.059 2166.49,294.059 2168.74,294.059 2170.98,294.059 2173.23,294.059 2175.47,294.059 2177.71,294.059 2179.96,294.059 2182.2,294.059 2184.45,294.059 2186.69,294.059 2188.94,294.059 2191.18,294.059 2193.42,294.059 2195.67,294.059 2197.91,294.059 2200.16,294.059 2202.4,294.059 2204.64,294.059 2206.89,294.059 2209.13,294.059 2211.38,294.059 2213.62,294.059 2215.86,294.059 2218.11,294.059 2220.35,294.059 2222.6,294.059 2224.84,294.059 2227.09,294.059 2229.33,294.059 2231.57,294.059 2233.82,294.059 2236.06,294.059 2238.31,294.059 2240.55,294.059 2242.79,294.059 2245.04,294.059 2247.28,294.059 2249.53,294.059 2251.77,294.059 2254.01,294.059 2256.26,294.059 2258.5,294.059 2260.75,294.059 2262.99,294.059 2265.24,294.059 2267.48,294.059 2269.72,294.059 2271.97,294.059 2274.21,294.059 2276.46,294.059 2278.7,294.059 2280.94,294.059 2283.19,294.059 2285.43,294.059 2287.68,294.059 2289.92,294.059 2292.16,294.059 2294.41,294.059 2296.65,294.059 2298.9,294.059 2301.14,294.059 2303.39,294.059 2305.63,294.059 2307.87,294.059 2310.12,294.059 2312.36,294.059 2314.61,294.059 2316.85,294.059 2319.09,294.059 2321.34,294.059 2323.58,294.059 2325.83,294.059 2328.07,294.059 2330.31,294.059 2332.56,294.059 2334.8,294.059 2337.05,294.059 2339.29,294.059 2341.54,294.059 2343.78,294.059 2346.02,294.059 2348.27,294.059 2350.51,294.059 2352.76,294.059 "/>
<polyline clip-path="url(#clip981)" style="stroke:#e26f46; stroke-linecap:round; stroke-linejoin:round; stroke-width:4; stroke-opacity:1; fill:none" points="110.881,765.015 113.125,990.862 115.369,1149.63 117.613,1247.34 119.857,1308.22 122.101,1344.92 124.346,1365.85 126.59,1377.02 128.834,1382.34 131.078,1384.24 133.322,1384.18 135.566,1383.01 137.81,1381.24 140.054,1379.18 142.299,1376.99 144.543,1374.79 146.787,1372.62 149.031,1370.53 151.275,1368.53 153.519,1366.62 155.763,1364.82 158.007,1363.1 160.252,1361.48 162.496,1359.95 164.74,1358.51 166.984,1357.14 169.228,1355.84 171.472,1354.62 173.716,1353.46 175.96,1352.36 178.204,1351.32 180.449,1350.33 182.693,1349.4 184.937,1348.51 187.181,1347.66 189.425,1346.86 191.669,1346.1 193.913,1345.37 196.157,1344.68 198.402,1344.03 200.646,1343.4 202.89,1342.81 205.134,1342.24 207.378,1341.7 209.622,1341.19 211.866,1340.7 214.11,1340.24 216.354,1339.79 218.599,1339.37 220.843,1338.96 223.087,1338.58 225.331,1338.21 227.575,1337.86 229.819,1337.53 232.063,1337.21 234.307,1336.9 236.552,1336.61 238.796,1336.34 241.04,1336.07 243.284,1335.82 245.528,1335.58 247.772,1335.35 250.016,1335.13 252.26,1334.92 254.505,1334.72 256.749,1334.53 258.993,1334.35 261.237,1334.18 263.481,1334.01 265.725,1333.85 267.969,1333.7 270.213,1333.55 272.457,1333.42 274.702,1333.28 276.946,1333.16 279.19,1333.04 281.434,1332.92 283.678,1332.81 285.922,1332.71 288.166,1332.61 290.41,1332.51 292.655,1332.42 294.899,1332.33 297.143,1332.25 299.387,1332.17 301.631,1332.09 303.875,1332.02 306.119,1331.95 308.363,1331.88 310.607,1331.82 312.852,1331.76 315.096,1331.7 317.34,1331.65 319.584,1331.59 321.828,1331.54 324.072,1331.49 326.316,1331.45 328.56,1331.4 330.805,1331.36 333.049,1331.32 335.293,1331.28 337.537,1331.25 339.781,1331.21 342.025,1331.18 344.269,1331.14 346.513,1331.11 348.758,1331.08 351.002,1331.06 353.246,1331.03 355.49,1331 357.734,1330.98 359.978,1330.96 362.222,1330.93 364.466,1330.91 366.71,1330.89 368.955,1330.87 371.199,1330.85 373.443,1330.84 375.687,1330.82 377.931,1330.8 380.175,1330.79 382.419,1330.77 384.663,1330.76 386.908,1330.75 389.152,1330.73 391.396,1330.72 393.64,1330.71 395.884,1330.7 398.128,1330.69 400.372,1330.68 402.616,1330.67 404.86,1330.66 407.105,1330.65 409.349,1330.64 411.593,1330.63 413.837,1330.62 416.081,1330.62 418.325,1330.61 420.569,1330.6 422.813,1330.59 425.058,1330.59 427.302,1330.58 429.546,1330.58 431.79,1330.57 434.034,1330.57 436.278,1330.56 438.522,1330.56 440.766,1330.55 443.011,1330.55 445.255,1330.54 447.499,1330.54 449.743,1330.54 451.987,1330.53 454.231,1330.53 456.475,1330.52 458.719,1330.52 460.963,1330.52 463.208,1330.52 465.452,1330.51 467.696,1330.51 469.94,1330.51 472.184,1330.51 474.428,1330.5 476.672,1330.5 478.916,1330.5 481.161,1330.5 483.405,1330.49 485.649,1330.49 487.893,1330.49 490.137,1330.49 492.381,1330.49 494.625,1330.49 496.869,1330.48 499.113,1330.48 501.358,1330.48 503.602,1330.48 505.846,1330.48 508.09,1330.48 510.334,1330.48 512.578,1330.48 514.822,1330.48 517.066,1330.47 519.311,1330.47 521.555,1330.47 523.799,1330.47 526.043,1330.47 528.287,1330.47 530.531,1330.47 532.775,1330.47 535.019,1330.47 537.264,1330.47 539.508,1330.47 541.752,1330.47 543.996,1330.46 546.24,1330.46 548.484,1330.46 550.728,1330.46 552.972,1330.46 555.216,1330.46 557.461,1330.46 559.705,1330.46 561.949,1330.46 564.193,1330.46 566.437,1330.46 568.681,1330.46 570.925,1330.46 573.169,1330.46 575.414,1330.46 577.658,1330.46 579.902,1330.46 582.146,1330.46 584.39,1330.46 586.634,1330.46 588.878,1330.46 591.122,1330.46 593.367,1330.46 595.611,1330.46 597.855,1330.46 600.099,1330.46 602.343,1330.46 604.587,1330.46 606.831,1330.46 609.075,1330.46 611.319,1330.46 613.564,1330.46 615.808,1330.46 618.052,1330.46 620.296,1330.46 622.54,1330.46 624.784,1330.46 627.028,1330.46 629.272,1330.45 631.517,1330.45 633.761,1330.45 636.005,1330.45 638.249,1330.45 640.493,1330.45 642.737,1330.45 644.981,1330.45 647.225,1330.45 649.469,1330.45 651.714,1330.45 653.958,1330.45 656.202,1330.45 658.446,1330.45 660.69,1330.45 662.934,1330.45 665.178,1330.45 667.422,1330.45 669.667,1330.45 671.911,1330.45 674.155,1330.45 676.399,1330.45 678.643,1330.45 680.887,1330.45 683.131,1330.45 685.375,1330.45 687.62,1330.45 689.864,1330.45 692.108,1330.45 694.352,1330.45 696.596,1330.45 698.84,1330.45 701.084,1330.45 703.328,1330.45 705.572,1330.45 707.817,1330.45 710.061,1330.45 712.305,1330.45 714.549,1330.45 716.793,1330.45 719.037,1330.45 721.281,1330.45 723.525,1330.45 725.77,1330.45 728.014,1330.45 730.258,1330.45 732.502,1330.45 734.746,1330.45 736.99,1330.45 739.234,1330.45 741.478,1330.45 743.722,1330.45 745.967,1330.45 748.211,1330.45 750.455,1330.45 752.699,1330.45 754.943,1330.45 757.187,1330.45 759.431,1330.45 761.675,1330.45 763.92,1330.45 766.164,1330.45 768.408,1330.45 770.652,1330.45 772.896,1330.45 775.14,1330.45 777.384,1330.45 779.628,1330.45 781.873,1330.45 784.117,1330.45 786.361,1330.45 788.605,1330.45 790.849,1330.45 793.093,1330.45 795.337,1330.45 797.581,1330.45 799.825,1330.45 802.07,1330.45 804.314,1330.45 806.558,1330.45 808.802,1330.45 811.046,1330.45 813.29,1330.45 815.534,1330.45 817.778,1330.45 820.023,1330.45 822.267,1330.45 824.511,1330.45 826.755,1330.45 828.999,1330.45 831.243,1330.45 833.487,1330.45 835.731,1330.45 837.975,1330.45 840.22,1330.45 842.464,1330.45 844.708,1330.45 846.952,1330.45 849.196,1330.45 851.44,1330.45 853.684,1330.45 855.928,1330.45 858.173,1330.45 860.417,1330.45 862.661,1330.45 864.905,1330.45 867.149,1330.45 869.393,1330.45 871.637,1330.45 873.881,1330.45 876.126,1330.45 878.37,1330.45 880.614,1330.45 882.858,1330.45 885.102,1330.45 887.346,1330.45 889.59,1330.45 891.834,1330.45 894.078,1330.45 896.323,1330.45 898.567,1330.45 900.811,1330.45 903.055,1330.45 905.299,1330.45 907.543,1330.45 909.787,1330.45 912.031,1330.45 914.276,1330.45 916.52,1330.45 918.764,1330.45 921.008,1330.45 923.252,1330.45 925.496,1330.45 927.74,1330.45 929.984,1330.45 932.228,1330.45 934.473,1330.45 936.717,1330.45 938.961,1330.45 941.205,1330.45 943.449,1330.45 945.693,1330.45 947.937,1330.45 950.181,1330.45 952.426,1330.45 954.67,1330.45 956.914,1330.45 959.158,1330.45 961.402,1330.45 963.646,1330.45 965.89,1330.45 968.134,1330.45 970.379,1330.45 972.623,1330.45 974.867,1330.45 977.111,1330.45 979.355,1330.45 981.599,1330.45 983.843,1330.45 986.087,1330.45 988.331,1330.45 990.576,1330.45 992.82,1330.45 995.064,1330.45 997.308,1330.45 999.552,1330.45 1001.8,1330.45 1004.04,1330.45 1006.28,1330.45 1008.53,1330.45 1010.77,1330.45 1013.02,1330.45 1015.26,1330.45 1017.51,1330.45 1019.75,1330.45 1021.99,1330.45 1024.24,1330.45 1026.48,1330.45 1028.73,1330.45 1030.97,1330.45 1033.21,1330.45 1035.46,1330.45 1037.7,1330.45 1039.95,1330.45 1042.19,1330.45 1044.43,1330.45 1046.68,1330.45 1048.92,1330.45 1051.17,1330.45 1053.41,1330.45 1055.66,1330.45 1057.9,1330.45 1060.14,1330.45 1062.39,1330.45 1064.63,1330.45 1066.88,1330.45 1069.12,1330.45 1071.36,1330.45 1073.61,1330.45 1075.85,1330.45 1078.1,1330.45 1080.34,1330.45 1082.58,1330.45 1084.83,1330.45 1087.07,1330.45 1089.32,1330.45 1091.56,1330.45 1093.81,1330.45 1096.05,1330.45 1098.29,1330.45 1100.54,1330.45 1102.78,1330.45 1105.03,1330.45 1107.27,1330.45 1109.51,1330.45 1111.76,1330.45 1114,1330.45 1116.25,1330.45 1118.49,1330.45 1120.73,1330.45 1122.98,1330.45 1125.22,1330.45 1127.47,1330.45 1129.71,1330.45 1131.96,1330.45 1134.2,1330.45 1136.44,1330.45 1138.69,1330.45 1140.93,1330.45 1143.18,1330.45 1145.42,1330.45 1147.66,1330.45 1149.91,1330.45 1152.15,1330.45 1154.4,1330.45 1156.64,1330.45 1158.88,1330.45 1161.13,1330.45 1163.37,1330.45 1165.62,1330.45 1167.86,1330.45 1170.11,1330.45 1172.35,1330.45 1174.59,1330.45 1176.84,1330.45 1179.08,1330.45 1181.33,1330.45 1183.57,1330.45 1185.81,1330.45 1188.06,1330.45 1190.3,1330.45 1192.55,1330.45 1194.79,1330.45 1197.03,1330.45 1199.28,1330.45 1201.52,1330.45 1203.77,1330.45 1206.01,1330.45 1208.26,1330.45 1210.5,1330.45 1212.74,1330.45 1214.99,1330.45 1217.23,1330.45 1219.48,1330.45 1221.72,1330.45 1223.96,1330.45 1226.21,1330.45 1228.45,1330.45 1230.7,1330.45 1232.94,1330.45 1235.18,1330.45 1237.43,1330.45 1239.67,1330.45 1241.92,1330.45 1244.16,1330.45 1246.41,1330.45 1248.65,1330.45 1250.89,1330.45 1253.14,1330.45 1255.38,1330.45 1257.63,1330.45 1259.87,1330.45 1262.11,1330.45 1264.36,1330.45 1266.6,1330.45 1268.85,1330.45 1271.09,1330.45 1273.33,1330.45 1275.58,1330.45 1277.82,1330.45 1280.07,1330.45 1282.31,1330.45 1284.56,1330.45 1286.8,1330.45 1289.04,1330.45 1291.29,1330.45 1293.53,1330.45 1295.78,1330.45 1298.02,1330.45 1300.26,1330.45 1302.51,1330.45 1304.75,1330.45 1307,1330.45 1309.24,1330.45 1311.48,1330.45 1313.73,1330.45 1315.97,1330.45 1318.22,1330.45 1320.46,1330.45 1322.71,1330.45 1324.95,1330.45 1327.19,1330.45 1329.44,1330.45 1331.68,1330.45 1333.93,1330.45 1336.17,1330.45 1338.41,1330.45 1340.66,1330.45 1342.9,1330.45 1345.15,1330.45 1347.39,1330.45 1349.63,1330.45 1351.88,1330.45 1354.12,1330.45 1356.37,1330.45 1358.61,1330.45 1360.86,1330.45 1363.1,1330.45 1365.34,1330.45 1367.59,1330.45 1369.83,1330.45 1372.08,1330.45 1374.32,1330.45 1376.56,1330.45 1378.81,1330.45 1381.05,1330.45 1383.3,1330.45 1385.54,1330.45 1387.78,1330.45 1390.03,1330.45 1392.27,1330.45 1394.52,1330.45 1396.76,1330.45 1399.01,1330.45 1401.25,1330.45 1403.49,1330.45 1405.74,1330.45 1407.98,1330.45 1410.23,1330.45 1412.47,1330.45 1414.71,1330.45 1416.96,1330.45 1419.2,1330.45 1421.45,1330.45 1423.69,1330.45 1425.93,1330.45 1428.18,1330.45 1430.42,1330.45 1432.67,1330.45 1434.91,1330.45 1437.16,1330.45 1439.4,1330.45 1441.64,1330.45 1443.89,1330.45 1446.13,1330.45 1448.38,1330.45 1450.62,1330.45 1452.86,1330.45 1455.11,1330.45 1457.35,1330.45 1459.6,1330.45 1461.84,1330.45 1464.08,1330.45 1466.33,1330.45 1468.57,1330.45 1470.82,1330.45 1473.06,1330.45 1475.31,1330.45 1477.55,1330.45 1479.79,1330.45 1482.04,1330.45 1484.28,1330.45 1486.53,1330.45 1488.77,1330.45 1491.01,1330.45 1493.26,1330.45 1495.5,1330.45 1497.75,1330.45 1499.99,1330.45 1502.23,1330.45 1504.48,1330.45 1506.72,1330.45 1508.97,1330.45 1511.21,1330.45 1513.46,1330.45 1515.7,1330.45 1517.94,1330.45 1520.19,1330.45 1522.43,1330.45 1524.68,1330.45 1526.92,1330.45 1529.16,1330.45 1531.41,1330.45 1533.65,1330.45 1535.9,1330.45 1538.14,1330.45 1540.38,1330.45 1542.63,1330.45 1544.87,1330.45 1547.12,1330.45 1549.36,1330.45 1551.61,1330.45 1553.85,1330.45 1556.09,1330.45 1558.34,1330.45 1560.58,1330.45 1562.83,1330.45 1565.07,1330.45 1567.31,1330.45 1569.56,1330.45 1571.8,1330.45 1574.05,1330.45 1576.29,1330.45 1578.53,1330.45 1580.78,1330.45 1583.02,1330.45 1585.27,1330.45 1587.51,1330.45 1589.76,1330.45 1592,1330.45 1594.24,1330.45 1596.49,1330.45 1598.73,1330.45 1600.98,1330.45 1603.22,1330.45 1605.46,1330.45 1607.71,1330.45 1609.95,1330.45 1612.2,1330.45 1614.44,1330.45 1616.68,1330.45 1618.93,1330.45 1621.17,1330.45 1623.42,1330.45 1625.66,1330.45 1627.91,1330.45 1630.15,1330.45 1632.39,1330.45 1634.64,1330.45 1636.88,1330.45 1639.13,1330.45 1641.37,1330.45 1643.61,1330.45 1645.86,1330.45 1648.1,1330.45 1650.35,1330.45 1652.59,1330.45 1654.83,1330.45 1657.08,1330.45 1659.32,1330.45 1661.57,1330.45 1663.81,1330.45 1666.06,1330.45 1668.3,1330.45 1670.54,1330.45 1672.79,1330.45 1675.03,1330.45 1677.28,1330.45 1679.52,1330.45 1681.76,1330.45 1684.01,1330.45 1686.25,1330.45 1688.5,1330.45 1690.74,1330.45 1692.98,1330.45 1695.23,1330.45 1697.47,1330.45 1699.72,1330.45 1701.96,1330.45 1704.21,1330.45 1706.45,1330.45 1708.69,1330.45 1710.94,1330.45 1713.18,1330.45 1715.43,1330.45 1717.67,1330.45 1719.91,1330.45 1722.16,1330.45 1724.4,1330.45 1726.65,1330.45 1728.89,1330.45 1731.13,1330.45 1733.38,1330.45 1735.62,1330.45 1737.87,1330.45 1740.11,1330.45 1742.36,1330.45 1744.6,1330.45 1746.84,1330.45 1749.09,1330.45 1751.33,1330.45 1753.58,1330.45 1755.82,1330.45 1758.06,1330.45 1760.31,1330.45 1762.55,1330.45 1764.8,1330.45 1767.04,1330.45 1769.28,1330.45 1771.53,1330.45 1773.77,1330.45 1776.02,1330.45 1778.26,1330.45 1780.51,1330.45 1782.75,1330.45 1784.99,1330.45 1787.24,1330.45 1789.48,1330.45 1791.73,1330.45 1793.97,1330.45 1796.21,1330.45 1798.46,1330.45 1800.7,1330.45 1802.95,1330.45 1805.19,1330.45 1807.43,1330.45 1809.68,1330.45 1811.92,1330.45 1814.17,1330.45 1816.41,1330.45 1818.66,1330.45 1820.9,1330.45 1823.14,1330.45 1825.39,1330.45 1827.63,1330.45 1829.88,1330.45 1832.12,1330.45 1834.36,1330.45 1836.61,1330.45 1838.85,1330.45 1841.1,1330.45 1843.34,1330.45 1845.58,1330.45 1847.83,1330.45 1850.07,1330.45 1852.32,1330.45 1854.56,1330.45 1856.81,1330.45 1859.05,1330.45 1861.29,1330.45 1863.54,1330.45 1865.78,1330.45 1868.03,1330.45 1870.27,1330.45 1872.51,1330.45 1874.76,1330.45 1877,1330.45 1879.25,1330.45 1881.49,1330.45 1883.74,1330.45 1885.98,1330.45 1888.22,1330.45 1890.47,1330.45 1892.71,1330.45 1894.96,1330.45 1897.2,1330.45 1899.44,1330.45 1901.69,1330.45 1903.93,1330.45 1906.18,1330.45 1908.42,1330.45 1910.66,1330.45 1912.91,1330.45 1915.15,1330.45 1917.4,1330.45 1919.64,1330.45 1921.89,1330.45 1924.13,1330.45 1926.37,1330.45 1928.62,1330.45 1930.86,1330.45 1933.11,1330.45 1935.35,1330.45 1937.59,1330.45 1939.84,1330.45 1942.08,1330.45 1944.33,1330.45 1946.57,1330.45 1948.81,1330.45 1951.06,1330.45 1953.3,1330.45 1955.55,1330.45 1957.79,1330.45 1960.04,1330.45 1962.28,1330.45 1964.52,1330.45 1966.77,1330.45 1969.01,1330.45 1971.26,1330.45 1973.5,1330.45 1975.74,1330.45 1977.99,1330.45 1980.23,1330.45 1982.48,1330.45 1984.72,1330.45 1986.96,1330.45 1989.21,1330.45 1991.45,1330.45 1993.7,1330.45 1995.94,1330.45 1998.19,1330.45 2000.43,1330.45 2002.67,1330.45 2004.92,1330.45 2007.16,1330.45 2009.41,1330.45 2011.65,1330.45 2013.89,1330.45 2016.14,1330.45 2018.38,1330.45 2020.63,1330.45 2022.87,1330.45 2025.11,1330.45 2027.36,1330.45 2029.6,1330.45 2031.85,1330.45 2034.09,1330.45 2036.34,1330.45 2038.58,1330.45 2040.82,1330.45 2043.07,1330.45 2045.31,1330.45 2047.56,1330.45 2049.8,1330.45 2052.04,1330.45 2054.29,1330.45 2056.53,1330.45 2058.78,1330.45 2061.02,1330.45 2063.26,1330.45 2065.51,1330.45 2067.75,1330.45 2070,1330.45 2072.24,1330.45 2074.49,1330.45 2076.73,1330.45 2078.97,1330.45 2081.22,1330.45 2083.46,1330.45 2085.71,1330.45 2087.95,1330.45 2090.19,1330.45 2092.44,1330.45 2094.68,1330.45 2096.93,1330.45 2099.17,1330.45 2101.41,1330.45 2103.66,1330.45 2105.9,1330.45 2108.15,1330.45 2110.39,1330.45 2112.64,1330.45 2114.88,1330.45 2117.12,1330.45 2119.37,1330.45 2121.61,1330.45 2123.86,1330.45 2126.1,1330.45 2128.34,1330.45 2130.59,1330.45 2132.83,1330.45 2135.08,1330.45 2137.32,1330.45 2139.56,1330.45 2141.81,1330.45 2144.05,1330.45 2146.3,1330.45 2148.54,1330.45 2150.79,1330.45 2153.03,1330.45 2155.27,1330.45 2157.52,1330.45 2159.76,1330.45 2162.01,1330.45 2164.25,1330.45 2166.49,1330.45 2168.74,1330.45 2170.98,1330.45 2173.23,1330.45 2175.47,1330.45 2177.71,1330.45 2179.96,1330.45 2182.2,1330.45 2184.45,1330.45 2186.69,1330.45 2188.94,1330.45 2191.18,1330.45 2193.42,1330.45 2195.67,1330.45 2197.91,1330.45 2200.16,1330.45 2202.4,1330.45 2204.64,1330.45 2206.89,1330.45 2209.13,1330.45 2211.38,1330.45 2213.62,1330.45 2215.86,1330.45 2218.11,1330.45 2220.35,1330.45 2222.6,1330.45 2224.84,1330.45 2227.09,1330.45 2229.33,1330.45 2231.57,1330.45 2233.82,1330.45 2236.06,1330.45 2238.31,1330.45 2240.55,1330.45 2242.79,1330.45 2245.04,1330.45 2247.28,1330.45 2249.53,1330.45 2251.77,1330.45 2254.01,1330.45 2256.26,1330.45 2258.5,1330.45 2260.75,1330.45 2262.99,1330.45 2265.24,1330.45 2267.48,1330.45 2269.72,1330.45 2271.97,1330.45 2274.21,1330.45 2276.46,1330.45 2278.7,1330.45 2280.94,1330.45 2283.19,1330.45 2285.43,1330.45 2287.68,1330.45 2289.92,1330.45 2292.16,1330.45 2294.41,1330.45 2296.65,1330.45 2298.9,1330.45 2301.14,1330.45 2303.39,1330.45 2305.63,1330.45 2307.87,1330.45 2310.12,1330.45 2312.36,1330.45 2314.61,1330.45 2316.85,1330.45 2319.09,1330.45 2321.34,1330.45 2323.58,1330.45 2325.83,1330.45 2328.07,1330.45 2330.31,1330.45 2332.56,1330.45 2334.8,1330.45 2337.05,1330.45 2339.29,1330.45 2341.54,1330.45 2343.78,1330.45 2346.02,1330.45 2348.27,1330.45 2350.51,1330.45 2352.76,1330.45 "/>
<path clip-path="url(#clip980)" d="M1986.29 248.629 L2278.03 248.629 L2278.03 93.1086 L1986.29 93.1086  Z" fill="#ffffff" fill-rule="evenodd" fill-opacity="1"/>
<polyline clip-path="url(#clip980)" style="stroke:#000000; stroke-linecap:round; stroke-linejoin:round; stroke-width:4; stroke-opacity:1; fill:none" points="1986.29,248.629 2278.03,248.629 2278.03,93.1086 1986.29,93.1086 1986.29,248.629 "/>
<polyline clip-path="url(#clip980)" style="stroke:#009af9; stroke-linecap:round; stroke-linejoin:round; stroke-width:4; stroke-opacity:1; fill:none" points="2011.2,144.949 2160.66,144.949 "/>
<path clip-path="url(#clip980)" d="M2204.83 145.794 L2190.08 145.794 Q2190.43 152.715 2192.03 155.655 Q2194.02 159.266 2197.47 159.266 Q2200.94 159.266 2202.86 155.631 Q2204.55 152.437 2204.83 145.794 M2204.76 141.858 Q2204.11 135.284 2202.86 132.97 Q2200.87 129.312 2197.47 129.312 Q2193.93 129.312 2192.05 132.923 Q2190.57 135.84 2190.13 141.858 L2204.76 141.858 M2197.47 125.84 Q2203.02 125.84 2206.2 130.747 Q2209.37 135.632 2209.37 144.289 Q2209.37 152.923 2206.2 157.83 Q2203.02 162.761 2197.47 162.761 Q2191.89 162.761 2188.74 157.83 Q2185.57 152.923 2185.57 144.289 Q2185.57 135.632 2188.74 130.747 Q2191.89 125.84 2197.47 125.84 Z" fill="#000000" fill-rule="nonzero" fill-opacity="1" /><polyline clip-path="url(#clip980)" style="stroke:#e26f46; stroke-linecap:round; stroke-linejoin:round; stroke-width:4; stroke-opacity:1; fill:none" points="2011.2,196.789 2160.66,196.789 "/>
<path clip-path="url(#clip980)" d="M2204.83 197.634 L2190.08 197.634 Q2190.43 204.555 2192.03 207.495 Q2194.02 211.106 2197.47 211.106 Q2200.94 211.106 2202.86 207.471 Q2204.55 204.277 2204.83 197.634 M2204.76 193.698 Q2204.11 187.124 2202.86 184.81 Q2200.87 181.152 2197.47 181.152 Q2193.93 181.152 2192.05 184.763 Q2190.57 187.68 2190.13 193.698 L2204.76 193.698 M2197.47 177.68 Q2203.02 177.68 2206.2 182.587 Q2209.37 187.472 2209.37 196.129 Q2209.37 204.763 2206.2 209.67 Q2203.02 214.601 2197.47 214.601 Q2191.89 214.601 2188.74 209.67 Q2185.57 204.763 2185.57 196.129 Q2185.57 187.472 2188.74 182.587 Q2191.89 177.68 2197.47 177.68 Z" fill="#000000" fill-rule="nonzero" fill-opacity="1" /><path clip-path="url(#clip980)" d="M2216.89 218.05 L2230.73 218.05 L2230.73 221.476 L2216.89 221.476 L2216.89 218.05 Z" fill="#000000" fill-rule="nonzero" fill-opacity="1" /><path clip-path="url(#clip980)" d="M2244.34 180.782 L2244.34 188.143 L2253.12 188.143 L2253.12 191.453 L2244.34 191.453 L2244.34 205.527 Q2244.34 208.698 2245.2 209.601 Q2246.08 210.504 2248.74 210.504 L2253.12 210.504 L2253.12 214.069 L2248.74 214.069 Q2243.81 214.069 2241.94 212.24 Q2240.06 210.388 2240.06 205.527 L2240.06 191.453 L2236.94 191.453 L2236.94 188.143 L2240.06 188.143 L2240.06 180.782 L2244.34 180.782 Z" fill="#000000" fill-rule="nonzero" fill-opacity="1" /></svg>
