<?xml version="1.0" encoding="utf-8"?>
<svg xmlns="http://www.w3.org/2000/svg" xmlns:xlink="http://www.w3.org/1999/xlink" width="600" height="400" viewBox="0 0 2400 1600">
<defs>
  <clipPath id="clip920">
    <rect x="0" y="0" width="2400" height="1600"/>
  </clipPath>
</defs>
<path clip-path="url(#clip920)" d="M0 1600 L2400 1600 L2400 0 L0 0  Z" fill="#ffffff" fill-rule="evenodd" fill-opacity="1"/>
<defs>
  <clipPath id="clip921">
    <rect x="110" y="47" width="2243" height="1377"/>
  </clipPath>
</defs>
<path clip-path="url(#clip920)" d="M110.881 1423.18 L2352.76 1423.18 L2352.76 47.2441 L110.881 47.2441  Z" fill="#ffffff" fill-rule="evenodd" fill-opacity="1"/>
<polyline clip-path="url(#clip921)" style="stroke:#000000; stroke-linecap:round; stroke-linejoin:round; stroke-width:2; stroke-opacity:0.1; fill:none" points="110.881,1423.18 110.881,47.2441 "/>
<polyline clip-path="url(#clip921)" style="stroke:#000000; stroke-linecap:round; stroke-linejoin:round; stroke-width:2; stroke-opacity:0.1; fill:none" points="858.173,1423.18 858.173,47.2441 "/>
<polyline clip-path="url(#clip921)" style="stroke:#000000; stroke-linecap:round; stroke-linejoin:round; stroke-width:2; stroke-opacity:0.1; fill:none" points="1605.46,1423.18 1605.46,47.2441 "/>
<polyline clip-path="url(#clip921)" style="stroke:#000000; stroke-linecap:round; stroke-linejoin:round; stroke-width:2; stroke-opacity:0.1; fill:none" points="2352.76,1423.18 2352.76,47.2441 "/>
<polyline clip-path="url(#clip921)" style="stroke:#000000; stroke-linecap:round; stroke-linejoin:round; stroke-width:2; stroke-opacity:0.1; fill:none" points="110.881,1332.24 2352.76,1332.24 "/>
<polyline clip-path="url(#clip921)" style="stroke:#000000; stroke-linecap:round; stroke-linejoin:round; stroke-width:2; stroke-opacity:0.1; fill:none" points="110.881,1002.25 2352.76,1002.25 "/>
<polyline clip-path="url(#clip921)" style="stroke:#000000; stroke-linecap:round; stroke-linejoin:round; stroke-width:2; stroke-opacity:0.1; fill:none" points="110.881,672.268 2352.76,672.268 "/>
<polyline clip-path="url(#clip921)" style="stroke:#000000; stroke-linecap:round; stroke-linejoin:round; stroke-width:2; stroke-opacity:0.1; fill:none" points="110.881,342.282 2352.76,342.282 "/>
<polyline clip-path="url(#clip920)" style="stroke:#000000; stroke-linecap:round; stroke-linejoin:round; stroke-width:4; stroke-opacity:1; fill:none" points="110.881,1423.18 2352.76,1423.18 "/>
<polyline clip-path="url(#clip920)" style="stroke:#000000; stroke-linecap:round; stroke-linejoin:round; stroke-width:4; stroke-opacity:1; fill:none" points="110.881,1423.18 110.881,1404.28 "/>
<polyline clip-path="url(#clip920)" style="stroke:#000000; stroke-linecap:round; stroke-linejoin:round; stroke-width:4; stroke-opacity:1; fill:none" points="858.173,1423.18 858.173,1404.28 "/>
<polyline clip-path="url(#clip920)" style="stroke:#000000; stroke-linecap:round; stroke-linejoin:round; stroke-width:4; stroke-opacity:1; fill:none" points="1605.46,1423.18 1605.46,1404.28 "/>
<polyline clip-path="url(#clip920)" style="stroke:#000000; stroke-linecap:round; stroke-linejoin:round; stroke-width:4; stroke-opacity:1; fill:none" points="2352.76,1423.18 2352.76,1404.28 "/>
<path clip-path="url(#clip920)" d="M110.881 1454.1 Q107.27 1454.1 105.441 1457.66 Q103.636 1461.2 103.636 1468.33 Q103.636 1475.44 105.441 1479.01 Q107.27 1482.55 110.881 1482.55 Q114.515 1482.55 116.321 1479.01 Q118.149 1475.44 118.149 1468.33 Q118.149 1461.2 116.321 1457.66 Q114.515 1454.1 110.881 1454.1 M110.881 1450.39 Q116.691 1450.39 119.747 1455 Q122.825 1459.58 122.825 1468.33 Q122.825 1477.06 119.747 1481.67 Q116.691 1486.25 110.881 1486.25 Q105.071 1486.25 101.992 1481.67 Q98.9365 1477.06 98.9365 1468.33 Q98.9365 1459.58 101.992 1455 Q105.071 1450.39 110.881 1450.39 Z" fill="#000000" fill-rule="nonzero" fill-opacity="1" /><path clip-path="url(#clip920)" d="M832.872 1451.02 L851.228 1451.02 L851.228 1454.96 L837.154 1454.96 L837.154 1463.43 Q838.173 1463.08 839.191 1462.92 Q840.21 1462.73 841.228 1462.73 Q847.015 1462.73 850.395 1465.9 Q853.774 1469.08 853.774 1474.49 Q853.774 1480.07 850.302 1483.17 Q846.83 1486.25 840.511 1486.25 Q838.335 1486.25 836.066 1485.88 Q833.821 1485.51 831.413 1484.77 L831.413 1480.07 Q833.497 1481.2 835.719 1481.76 Q837.941 1482.32 840.418 1482.32 Q844.423 1482.32 846.761 1480.21 Q849.099 1478.1 849.099 1474.49 Q849.099 1470.88 846.761 1468.77 Q844.423 1466.67 840.418 1466.67 Q838.543 1466.67 836.668 1467.08 Q834.816 1467.5 832.872 1468.38 L832.872 1451.02 Z" fill="#000000" fill-rule="nonzero" fill-opacity="1" /><path clip-path="url(#clip920)" d="M872.987 1454.1 Q869.376 1454.1 867.548 1457.66 Q865.742 1461.2 865.742 1468.33 Q865.742 1475.44 867.548 1479.01 Q869.376 1482.55 872.987 1482.55 Q876.622 1482.55 878.427 1479.01 Q880.256 1475.44 880.256 1468.33 Q880.256 1461.2 878.427 1457.66 Q876.622 1454.1 872.987 1454.1 M872.987 1450.39 Q878.797 1450.39 881.853 1455 Q884.932 1459.58 884.932 1468.33 Q884.932 1477.06 881.853 1481.67 Q878.797 1486.25 872.987 1486.25 Q867.177 1486.25 864.098 1481.67 Q861.043 1477.06 861.043 1468.33 Q861.043 1459.58 864.098 1455 Q867.177 1450.39 872.987 1450.39 Z" fill="#000000" fill-rule="nonzero" fill-opacity="1" /><path clip-path="url(#clip920)" d="M1565.07 1481.64 L1572.71 1481.64 L1572.71 1455.28 L1564.4 1456.95 L1564.4 1452.69 L1572.66 1451.02 L1577.34 1451.02 L1577.34 1481.64 L1584.98 1481.64 L1584.98 1485.58 L1565.07 1485.58 L1565.07 1481.64 Z" fill="#000000" fill-rule="nonzero" fill-opacity="1" /><path clip-path="url(#clip920)" d="M1604.42 1454.1 Q1600.81 1454.1 1598.98 1457.66 Q1597.18 1461.2 1597.18 1468.33 Q1597.18 1475.44 1598.98 1479.01 Q1600.81 1482.55 1604.42 1482.55 Q1608.06 1482.55 1609.86 1479.01 Q1611.69 1475.44 1611.69 1468.33 Q1611.69 1461.2 1609.86 1457.66 Q1608.06 1454.1 1604.42 1454.1 M1604.42 1450.39 Q1610.23 1450.39 1613.29 1455 Q1616.37 1459.58 1616.37 1468.33 Q1616.37 1477.06 1613.29 1481.67 Q1610.23 1486.25 1604.42 1486.25 Q1598.61 1486.25 1595.53 1481.67 Q1592.48 1477.06 1592.48 1468.33 Q1592.48 1459.58 1595.53 1455 Q1598.61 1450.39 1604.42 1450.39 Z" fill="#000000" fill-rule="nonzero" fill-opacity="1" /><path clip-path="url(#clip920)" d="M1634.58 1454.1 Q1630.97 1454.1 1629.14 1457.66 Q1627.34 1461.2 1627.34 1468.33 Q1627.34 1475.44 1629.14 1479.01 Q1630.97 1482.55 1634.58 1482.55 Q1638.22 1482.55 1640.02 1479.01 Q1641.85 1475.44 1641.85 1468.33 Q1641.85 1461.2 1640.02 1457.66 Q1638.22 1454.1 1634.58 1454.1 M1634.58 1450.39 Q1640.39 1450.39 1643.45 1455 Q1646.53 1459.58 1646.53 1468.33 Q1646.53 1477.06 1643.45 1481.67 Q1640.39 1486.25 1634.58 1486.25 Q1628.77 1486.25 1625.7 1481.67 Q1622.64 1477.06 1622.64 1468.33 Q1622.64 1459.58 1625.7 1455 Q1628.77 1450.39 1634.58 1450.39 Z" fill="#000000" fill-rule="nonzero" fill-opacity="1" /><path clip-path="url(#clip920)" d="M2312.36 1481.64 L2320 1481.64 L2320 1455.28 L2311.69 1456.95 L2311.69 1452.69 L2319.96 1451.02 L2324.63 1451.02 L2324.63 1481.64 L2332.27 1481.64 L2332.27 1485.58 L2312.36 1485.58 L2312.36 1481.64 Z" fill="#000000" fill-rule="nonzero" fill-opacity="1" /><path clip-path="url(#clip920)" d="M2341.76 1451.02 L2360.12 1451.02 L2360.12 1454.96 L2346.04 1454.96 L2346.04 1463.43 Q2347.06 1463.08 2348.08 1462.92 Q2349.1 1462.73 2350.12 1462.73 Q2355.9 1462.73 2359.28 1465.9 Q2362.66 1469.08 2362.66 1474.49 Q2362.66 1480.07 2359.19 1483.17 Q2355.72 1486.25 2349.4 1486.25 Q2347.22 1486.25 2344.96 1485.88 Q2342.71 1485.51 2340.3 1484.77 L2340.3 1480.07 Q2342.39 1481.2 2344.61 1481.76 Q2346.83 1482.32 2349.31 1482.32 Q2353.31 1482.32 2355.65 1480.21 Q2357.99 1478.1 2357.99 1474.49 Q2357.99 1470.88 2355.65 1468.77 Q2353.31 1466.67 2349.31 1466.67 Q2347.43 1466.67 2345.56 1467.08 Q2343.71 1467.5 2341.76 1468.38 L2341.76 1451.02 Z" fill="#000000" fill-rule="nonzero" fill-opacity="1" /><path clip-path="url(#clip920)" d="M2381.88 1454.1 Q2378.27 1454.1 2376.44 1457.66 Q2374.63 1461.2 2374.63 1468.33 Q2374.63 1475.44 2376.44 1479.01 Q2378.27 1482.55 2381.88 1482.55 Q2385.51 1482.55 2387.32 1479.01 Q2389.14 1475.44 2389.14 1468.33 Q2389.14 1461.2 2387.32 1457.66 Q2385.51 1454.1 2381.88 1454.1 M2381.88 1450.39 Q2387.69 1450.39 2390.74 1455 Q2393.82 1459.58 2393.82 1468.33 Q2393.82 1477.06 2390.74 1481.67 Q2387.69 1486.25 2381.88 1486.25 Q2376.07 1486.25 2372.99 1481.67 Q2369.93 1477.06 2369.93 1468.33 Q2369.93 1459.58 2372.99 1455 Q2376.07 1450.39 2381.88 1450.39 Z" fill="#000000" fill-rule="nonzero" fill-opacity="1" /><path clip-path="url(#clip920)" d="M1230.88 1522.27 L1230.88 1532.4 L1242.94 1532.4 L1242.94 1536.95 L1230.88 1536.95 L1230.88 1556.3 Q1230.88 1560.66 1232.06 1561.9 Q1233.27 1563.14 1236.93 1563.14 L1242.94 1563.14 L1242.94 1568.04 L1236.93 1568.04 Q1230.15 1568.04 1227.57 1565.53 Q1224.99 1562.98 1224.99 1556.3 L1224.99 1536.95 L1220.69 1536.95 L1220.69 1532.4 L1224.99 1532.4 L1224.99 1522.27 L1230.88 1522.27 Z" fill="#000000" fill-rule="nonzero" fill-opacity="1" /><polyline clip-path="url(#clip920)" style="stroke:#000000; stroke-linecap:round; stroke-linejoin:round; stroke-width:4; stroke-opacity:1; fill:none" points="110.881,1423.18 110.881,47.2441 "/>
<polyline clip-path="url(#clip920)" style="stroke:#000000; stroke-linecap:round; stroke-linejoin:round; stroke-width:4; stroke-opacity:1; fill:none" points="110.881,1332.24 129.779,1332.24 "/>
<polyline clip-path="url(#clip920)" style="stroke:#000000; stroke-linecap:round; stroke-linejoin:round; stroke-width:4; stroke-opacity:1; fill:none" points="110.881,1002.25 129.779,1002.25 "/>
<polyline clip-path="url(#clip920)" style="stroke:#000000; stroke-linecap:round; stroke-linejoin:round; stroke-width:4; stroke-opacity:1; fill:none" points="110.881,672.268 129.779,672.268 "/>
<polyline clip-path="url(#clip920)" style="stroke:#000000; stroke-linecap:round; stroke-linejoin:round; stroke-width:4; stroke-opacity:1; fill:none" points="110.881,342.282 129.779,342.282 "/>
<path clip-path="url(#clip920)" d="M62.9365 1318.04 Q59.3254 1318.04 57.4967 1321.6 Q55.6912 1325.15 55.6912 1332.28 Q55.6912 1339.38 57.4967 1342.95 Q59.3254 1346.49 62.9365 1346.49 Q66.5707 1346.49 68.3763 1342.95 Q70.205 1339.38 70.205 1332.28 Q70.205 1325.15 68.3763 1321.6 Q66.5707 1318.04 62.9365 1318.04 M62.9365 1314.34 Q68.7467 1314.34 71.8022 1318.94 Q74.8809 1323.53 74.8809 1332.28 Q74.8809 1341 71.8022 1345.61 Q68.7467 1350.19 62.9365 1350.19 Q57.1264 1350.19 54.0477 1345.61 Q50.9921 1341 50.9921 1332.28 Q50.9921 1323.53 54.0477 1318.94 Q57.1264 1314.34 62.9365 1314.34 Z" fill="#000000" fill-rule="nonzero" fill-opacity="1" /><path clip-path="url(#clip920)" d="M54.9736 1015.6 L62.6124 1015.6 L62.6124 989.234 L54.3023 990.9 L54.3023 986.641 L62.5661 984.975 L67.242 984.975 L67.242 1015.6 L74.8809 1015.6 L74.8809 1019.53 L54.9736 1019.53 L54.9736 1015.6 Z" fill="#000000" fill-rule="nonzero" fill-opacity="1" /><path clip-path="url(#clip920)" d="M58.5615 685.613 L74.8809 685.613 L74.8809 689.548 L52.9366 689.548 L52.9366 685.613 Q55.5986 682.859 60.1819 678.229 Q64.7883 673.576 65.9689 672.234 Q68.2143 669.711 69.0939 667.974 Q69.9967 666.215 69.9967 664.525 Q69.9967 661.771 68.0522 660.035 Q66.1309 658.299 63.0291 658.299 Q60.83 658.299 58.3763 659.062 Q55.9458 659.826 53.168 661.377 L53.168 656.655 Q55.9921 655.521 58.4458 654.942 Q60.8995 654.363 62.9365 654.363 Q68.3068 654.363 71.5013 657.049 Q74.6957 659.734 74.6957 664.224 Q74.6957 666.354 73.8855 668.275 Q73.0985 670.173 70.992 672.766 Q70.4133 673.437 67.3115 676.655 Q64.2096 679.849 58.5615 685.613 Z" fill="#000000" fill-rule="nonzero" fill-opacity="1" /><path clip-path="url(#clip920)" d="M67.7513 340.928 Q71.1078 341.646 72.9827 343.914 Q74.8809 346.183 74.8809 349.516 Q74.8809 354.632 71.3624 357.433 Q67.8439 360.233 61.3624 360.233 Q59.1865 360.233 56.8717 359.794 Q54.5801 359.377 52.1264 358.521 L52.1264 354.007 Q54.0708 355.141 56.3856 355.72 Q58.7004 356.298 61.2236 356.298 Q65.6217 356.298 67.9133 354.562 Q70.2281 352.826 70.2281 349.516 Q70.2281 346.46 68.0754 344.747 Q65.9457 343.011 62.1263 343.011 L58.0986 343.011 L58.0986 339.169 L62.3115 339.169 Q65.7606 339.169 67.5893 337.803 Q69.418 336.414 69.418 333.822 Q69.418 331.16 67.5198 329.748 Q65.6448 328.312 62.1263 328.312 Q60.205 328.312 58.006 328.729 Q55.8069 329.146 53.168 330.025 L53.168 325.859 Q55.8301 325.118 58.1449 324.748 Q60.4828 324.377 62.543 324.377 Q67.867 324.377 70.9689 326.808 Q74.0707 329.215 74.0707 333.335 Q74.0707 336.206 72.4272 338.197 Q70.7837 340.164 67.7513 340.928 Z" fill="#000000" fill-rule="nonzero" fill-opacity="1" /><polyline clip-path="url(#clip921)" style="stroke:#009af9; stroke-linecap:round; stroke-linejoin:round; stroke-width:4; stroke-opacity:1; fill:none" points="110.881,220.26 112.648,164.529 114.414,128.119 116.181,105.911 117.947,93.3753 119.714,87.5029 121.481,86.1857 123.247,87.8992 125.014,91.562 126.781,96.4308 128.547,102.008 130.314,107.963 132.081,114.079 133.847,120.218 135.614,126.29 137.381,132.238 139.147,138.029 140.914,143.642 142.681,149.069 144.447,154.305 146.214,159.35 147.98,164.208 149.747,168.883 151.514,173.381 153.28,177.708 155.047,181.871 156.814,185.876 158.58,189.729 160.347,193.437 162.114,197.005 163.88,200.44 165.647,203.747 167.414,206.933 169.18,210 170.947,212.955 172.714,215.802 174.48,218.545 176.247,221.189 178.013,223.739 179.78,226.196 181.547,228.566 183.313,230.851 185.08,233.055 186.847,235.18 188.613,237.231 190.38,239.21 192.147,241.12 193.913,242.962 195.68,244.74 197.447,246.456 199.213,248.112 200.98,249.711 202.747,251.255 204.513,252.746 206.28,254.184 208.046,255.574 209.813,256.915 211.58,258.21 213.346,259.462 215.113,260.67 216.88,261.837 218.646,262.965 220.413,264.053 222.18,265.105 223.946,266.121 225.713,267.102 227.48,268.05 229.246,268.966 231.013,269.851 232.78,270.706 234.546,271.532 236.313,272.33 238.079,273.101 239.846,273.845 241.613,274.565 243.379,275.261 245.146,275.933 246.913,276.583 248.679,277.21 250.446,277.817 252.213,278.403 253.979,278.969 255.746,279.516 257.513,280.045 259.279,280.556 261.046,281.051 262.813,281.528 264.579,281.99 266.346,282.436 268.112,282.867 269.879,283.283 271.646,283.686 273.412,284.075 275.179,284.451 276.946,284.815 278.712,285.166 280.479,285.506 282.246,285.834 284.012,286.152 285.779,286.458 287.546,286.755 289.312,287.041 291.079,287.318 292.846,287.586 294.612,287.845 296.379,288.095 298.145,288.337 299.912,288.571 301.679,288.797 303.445,289.015 305.212,289.226 306.979,289.43 308.745,289.628 310.512,289.818 312.279,290.003 314.045,290.181 315.812,290.353 317.579,290.52 319.345,290.681 321.112,290.837 322.879,290.987 324.645,291.133 326.412,291.273 328.178,291.409 329.945,291.54 331.712,291.667 333.478,291.79 335.245,291.909 337.012,292.024 338.778,292.135 340.545,292.242 342.312,292.346 344.078,292.446 345.845,292.543 347.612,292.636 349.378,292.727 351.145,292.814 352.912,292.899 354.678,292.981 356.445,293.06 358.211,293.137 359.978,293.211 361.745,293.282 363.511,293.351 365.278,293.418 367.045,293.483 368.811,293.545 370.578,293.605 372.345,293.664 374.111,293.72 375.878,293.775 377.645,293.827 379.411,293.878 381.178,293.928 382.945,293.975 384.711,294.021 386.478,294.066 388.244,294.109 390.011,294.151 391.778,294.191 393.544,294.23 395.311,294.267 397.078,294.304 398.844,294.339 400.611,294.373 402.378,294.406 404.144,294.438 405.911,294.468 407.678,294.498 409.444,294.527 411.211,294.554 412.978,294.581 414.744,294.607 416.511,294.632 418.277,294.656 420.044,294.68 421.811,294.703 423.577,294.724 425.344,294.746 427.111,294.766 428.877,294.786 430.644,294.805 432.411,294.823 434.177,294.841 435.944,294.859 437.711,294.875 439.477,294.892 441.244,294.907 443.011,294.922 444.777,294.937 446.544,294.951 448.31,294.965 450.077,294.978 451.844,294.991 453.61,295.003 455.377,295.015 457.144,295.027 458.91,295.038 460.677,295.048 462.444,295.059 464.21,295.069 465.977,295.079 467.744,295.088 469.51,295.097 471.277,295.106 473.044,295.114 474.81,295.123 476.577,295.131 478.343,295.138 480.11,295.146 481.877,295.153 483.643,295.16 485.41,295.167 487.177,295.173 488.943,295.179 490.71,295.185 492.477,295.191 494.243,295.197 496.01,295.203 497.777,295.208 499.543,295.213 501.31,295.218 503.077,295.223 504.843,295.227 506.61,295.232 508.376,295.236 510.143,295.24 511.91,295.244 513.676,295.248 515.443,295.252 517.21,295.256 518.976,295.259 520.743,295.263 522.51,295.266 524.276,295.269 526.043,295.272 527.81,295.275 529.576,295.278 531.343,295.281 533.11,295.284 534.876,295.286 536.643,295.289 538.409,295.291 540.176,295.294 541.943,295.296 543.709,295.298 545.476,295.3 547.243,295.302 549.009,295.304 550.776,295.306 552.543,295.308 554.309,295.31 556.076,295.312 557.843,295.313 559.609,295.315 561.376,295.317 563.143,295.318 564.909,295.32 566.676,295.321 568.442,295.322 570.209,295.324 571.976,295.325 573.742,295.326 575.509,295.327 577.276,295.329 579.042,295.33 580.809,295.331 582.576,295.332 584.342,295.333 586.109,295.334 587.876,295.335 589.642,295.336 591.409,295.337 593.176,295.337 594.942,295.338 596.709,295.339 598.475,295.34 600.242,295.341 602.009,295.341 603.775,295.342 605.542,295.343 607.309,295.343 609.075,295.344 610.842,295.345 612.609,295.345 614.375,295.346 616.142,295.346 617.909,295.347 619.675,295.347 621.442,295.348 623.209,295.348 624.975,295.349 626.742,295.349 628.508,295.35 630.275,295.35 632.042,295.35 633.808,295.351 635.575,295.351 637.342,295.352 639.108,295.352 640.875,295.352 642.642,295.353 644.408,295.353 646.175,295.353 647.942,295.354 649.708,295.354 651.475,295.354 653.242,295.354 655.008,295.355 656.775,295.355 658.541,295.355 660.308,295.355 662.075,295.356 663.841,295.356 665.608,295.356 667.375,295.356 669.141,295.357 670.908,295.357 672.675,295.357 674.441,295.357 676.208,295.357 677.975,295.357 679.741,295.358 681.508,295.358 683.275,295.358 685.041,295.358 686.808,295.358 688.574,295.358 690.341,295.358 692.108,295.359 693.874,295.359 695.641,295.359 697.408,295.359 699.174,295.359 700.941,295.359 702.708,295.359 704.474,295.359 706.241,295.36 708.008,295.36 709.774,295.36 711.541,295.36 713.308,295.36 715.074,295.36 716.841,295.36 718.607,295.36 720.374,295.36 722.141,295.36 723.907,295.36 725.674,295.36 727.441,295.361 729.207,295.361 730.974,295.361 732.741,295.361 734.507,295.361 736.274,295.361 738.041,295.361 739.807,295.361 741.574,295.361 743.341,295.361 745.107,295.361 746.874,295.361 748.64,295.361 750.407,295.361 752.174,295.361 753.94,295.361 755.707,295.361 757.474,295.361 759.24,295.361 761.007,295.361 762.774,295.361 764.54,295.361 766.307,295.362 768.074,295.362 769.84,295.362 771.607,295.362 773.374,295.362 775.14,295.362 776.907,295.362 778.673,295.362 780.44,295.362 782.207,295.362 783.973,295.362 785.74,295.362 787.507,295.362 789.273,295.362 791.04,295.362 792.807,295.362 794.573,295.362 796.34,295.362 798.107,295.362 799.873,295.362 801.64,295.362 803.407,295.362 805.173,295.362 806.94,295.362 808.706,295.362 810.473,295.362 812.24,295.362 814.006,295.362 815.773,295.362 817.54,295.362 819.306,295.362 821.073,295.362 822.84,295.362 824.606,295.362 826.373,295.362 828.14,295.362 829.906,295.362 831.673,295.362 833.44,295.362 835.206,295.362 836.973,295.362 838.739,295.362 840.506,295.362 842.273,295.362 844.039,295.362 845.806,295.362 847.573,295.362 849.339,295.362 851.106,295.362 852.873,295.362 854.639,295.362 856.406,295.362 858.173,295.362 859.939,295.362 861.706,295.362 863.473,295.362 865.239,295.362 867.006,295.362 868.772,295.362 870.539,295.362 872.306,295.362 874.072,295.362 875.839,295.362 877.606,295.362 879.372,295.362 881.139,295.362 882.906,295.362 884.672,295.362 886.439,295.362 888.206,295.362 889.972,295.362 891.739,295.362 893.505,295.362 895.272,295.362 897.039,295.362 898.805,295.362 900.572,295.362 902.339,295.362 904.105,295.362 905.872,295.362 907.639,295.362 909.405,295.362 911.172,295.362 912.939,295.362 914.705,295.362 916.472,295.362 918.239,295.362 920.005,295.362 921.772,295.362 923.538,295.362 925.305,295.362 927.072,295.362 928.838,295.362 930.605,295.362 932.372,295.362 934.138,295.362 935.905,295.362 937.672,295.362 939.438,295.362 941.205,295.362 942.972,295.362 944.738,295.362 946.505,295.362 948.272,295.362 950.038,295.362 951.805,295.362 953.571,295.362 955.338,295.362 957.105,295.362 958.871,295.362 960.638,295.362 962.405,295.362 964.171,295.362 965.938,295.362 967.705,295.362 969.471,295.362 971.238,295.362 973.005,295.362 974.771,295.362 976.538,295.362 978.305,295.362 980.071,295.362 981.838,295.362 983.604,295.362 985.371,295.362 987.138,295.362 988.904,295.362 990.671,295.362 992.438,295.362 994.204,295.362 995.971,295.362 997.738,295.362 999.504,295.362 1001.27,295.362 1003.04,295.362 1004.8,295.362 1006.57,295.362 1008.34,295.362 1010.1,295.362 1011.87,295.362 1013.64,295.362 1015.4,295.362 1017.17,295.362 1018.94,295.362 1020.7,295.362 1022.47,295.362 1024.24,295.362 1026,295.362 1027.77,295.362 1029.54,295.362 1031.3,295.362 1033.07,295.362 1034.84,295.362 1036.6,295.362 1038.37,295.362 1040.14,295.362 1041.9,295.362 1043.67,295.362 1045.44,295.362 1047.2,295.362 1048.97,295.362 1050.74,295.362 1052.5,295.362 1054.27,295.362 1056.04,295.362 1057.8,295.362 1059.57,295.362 1061.34,295.362 1063.1,295.362 1064.87,295.362 1066.64,295.362 1068.4,295.362 1070.17,295.362 1071.94,295.362 1073.7,295.362 1075.47,295.362 1077.24,295.362 1079,295.362 1080.77,295.362 1082.54,295.362 1084.3,295.362 1086.07,295.362 1087.84,295.362 1089.6,295.362 1091.37,295.362 1093.14,295.362 1094.9,295.362 1096.67,295.362 1098.44,295.362 1100.2,295.362 1101.97,295.362 1103.74,295.362 1105.5,295.362 1107.27,295.362 1109.04,295.362 1110.8,295.362 1112.57,295.362 1114.34,295.362 1116.1,295.362 1117.87,295.362 1119.64,295.362 1121.4,295.362 1123.17,295.362 1124.94,295.362 1126.7,295.362 1128.47,295.362 1130.24,295.362 1132,295.362 1133.77,295.362 1135.54,295.362 1137.3,295.362 1139.07,295.362 1140.84,295.362 1142.6,295.362 1144.37,295.362 1146.14,295.362 1147.9,295.362 1149.67,295.362 1151.44,295.362 1153.2,295.362 1154.97,295.362 1156.74,295.362 1158.5,295.362 1160.27,295.362 1162.04,295.362 1163.8,295.362 1165.57,295.362 1167.34,295.362 1169.1,295.362 1170.87,295.362 1172.64,295.362 1174.4,295.362 1176.17,295.362 1177.94,295.362 1179.7,295.362 1181.47,295.362 1183.24,295.362 1185,295.362 1186.77,295.362 1188.54,295.362 1190.3,295.362 1192.07,295.362 1193.84,295.362 1195.6,295.362 1197.37,295.362 1199.14,295.362 1200.9,295.362 1202.67,295.362 1204.44,295.362 1206.2,295.362 1207.97,295.362 1209.74,295.362 1211.5,295.362 1213.27,295.362 1215.04,295.362 1216.8,295.362 1218.57,295.362 1220.34,295.362 1222.1,295.362 1223.87,295.362 1225.64,295.362 1227.4,295.362 1229.17,295.362 1230.94,295.362 1232.7,295.362 1234.47,295.362 1236.24,295.362 1238,295.362 1239.77,295.362 1241.53,295.362 1243.3,295.362 1245.07,295.362 1246.83,295.362 1248.6,295.362 1250.37,295.362 1252.13,295.362 1253.9,295.362 1255.67,295.362 1257.43,295.362 1259.2,295.362 1260.97,295.362 1262.73,295.362 1264.5,295.362 1266.27,295.362 1268.03,295.362 1269.8,295.362 1271.57,295.362 1273.33,295.362 1275.1,295.362 1276.87,295.362 1278.63,295.362 1280.4,295.362 1282.17,295.362 1283.93,295.362 1285.7,295.362 1287.47,295.362 1289.23,295.362 1291,295.362 1292.77,295.362 1294.53,295.362 1296.3,295.362 1298.07,295.362 1299.83,295.362 1301.6,295.362 1303.37,295.362 1305.13,295.362 1306.9,295.362 1308.67,295.362 1310.43,295.362 1312.2,295.362 1313.97,295.362 1315.73,295.362 1317.5,295.362 1319.27,295.362 1321.03,295.362 1322.8,295.362 1324.57,295.362 1326.33,295.362 1328.1,295.362 1329.87,295.362 1331.63,295.362 1333.4,295.362 1335.17,295.362 1336.93,295.362 1338.7,295.362 1340.47,295.362 1342.23,295.362 1344,295.362 1345.77,295.362 1347.53,295.362 1349.3,295.362 1351.07,295.362 1352.83,295.362 1354.6,295.362 1356.37,295.362 1358.13,295.362 1359.9,295.362 1361.67,295.362 1363.43,295.362 1365.2,295.362 1366.97,295.362 1368.73,295.362 1370.5,295.362 1372.27,295.362 1374.03,295.362 1375.8,295.362 1377.57,295.362 1379.33,295.362 1381.1,295.362 1382.87,295.362 1384.63,295.362 1386.4,295.362 1388.17,295.362 1389.93,295.362 1391.7,295.362 1393.47,295.362 1395.23,295.362 1397,295.362 1398.77,295.362 1400.53,295.362 1402.3,295.362 1404.07,295.362 1405.83,295.362 1407.6,295.362 1409.37,295.362 1411.13,295.362 1412.9,295.362 1414.67,295.362 1416.43,295.362 1418.2,295.362 1419.97,295.362 1421.73,295.362 1423.5,295.362 1425.27,295.362 1427.03,295.362 1428.8,295.362 1430.57,295.362 1432.33,295.362 1434.1,295.362 1435.87,295.362 1437.63,295.362 1439.4,295.362 1441.17,295.362 1442.93,295.362 1444.7,295.362 1446.47,295.362 1448.23,295.362 1450,295.362 1451.77,295.362 1453.53,295.362 1455.3,295.362 1457.07,295.362 1458.83,295.362 1460.6,295.362 1462.37,295.362 1464.13,295.362 1465.9,295.362 1467.67,295.362 1469.43,295.362 1471.2,295.362 1472.97,295.362 1474.73,295.362 1476.5,295.362 1478.27,295.362 1480.03,295.362 1481.8,295.362 1483.57,295.362 1485.33,295.362 1487.1,295.362 1488.87,295.362 1490.63,295.362 1492.4,295.362 1494.17,295.362 1495.93,295.362 1497.7,295.362 1499.47,295.362 1501.23,295.362 1503,295.362 1504.77,295.362 1506.53,295.362 1508.3,295.362 1510.07,295.362 1511.83,295.362 1513.6,295.362 1515.37,295.362 1517.13,295.362 1518.9,295.362 1520.67,295.362 1522.43,295.362 1524.2,295.362 1525.97,295.362 1527.73,295.362 1529.5,295.362 1531.27,295.362 1533.03,295.362 1534.8,295.362 1536.57,295.362 1538.33,295.362 1540.1,295.362 1541.86,295.362 1543.63,295.362 1545.4,295.362 1547.16,295.362 1548.93,295.362 1550.7,295.362 1552.46,295.362 1554.23,295.362 1556,295.362 1557.76,295.362 1559.53,295.362 1561.3,295.362 1563.06,295.362 1564.83,295.362 1566.6,295.362 1568.36,295.362 1570.13,295.362 1571.9,295.362 1573.66,295.362 1575.43,295.362 1577.2,295.362 1578.96,295.362 1580.73,295.362 1582.5,295.362 1584.26,295.362 1586.03,295.362 1587.8,295.362 1589.56,295.362 1591.33,295.362 1593.1,295.362 1594.86,295.362 1596.63,295.362 1598.4,295.362 1600.16,295.362 1601.93,295.362 1603.7,295.362 1605.46,295.362 1607.23,295.362 1609,295.362 1610.76,295.362 1612.53,295.362 1614.3,295.362 1616.06,295.362 1617.83,295.362 1619.6,295.362 1621.36,295.362 1623.13,295.362 1624.9,295.362 1626.66,295.362 1628.43,295.362 1630.2,295.362 1631.96,295.362 1633.73,295.362 1635.5,295.362 1637.26,295.362 1639.03,295.362 1640.8,295.362 1642.56,295.362 1644.33,295.362 1646.1,295.362 1647.86,295.362 1649.63,295.362 1651.4,295.362 1653.16,295.362 1654.93,295.362 1656.7,295.362 1658.46,295.362 1660.23,295.362 1662,295.362 1663.76,295.362 1665.53,295.362 1667.3,295.362 1669.06,295.362 1670.83,295.362 1672.6,295.362 1674.36,295.362 1676.13,295.362 1677.9,295.362 1679.66,295.362 1681.43,295.362 1683.2,295.362 1684.96,295.362 1686.73,295.362 1688.5,295.362 1690.26,295.362 1692.03,295.362 1693.8,295.362 1695.56,295.362 1697.33,295.362 1699.1,295.362 1700.86,295.362 1702.63,295.362 1704.4,295.362 1706.16,295.362 1707.93,295.362 1709.7,295.362 1711.46,295.362 1713.23,295.362 1715,295.362 1716.76,295.362 1718.53,295.362 1720.3,295.362 1722.06,295.362 1723.83,295.362 1725.6,295.362 1727.36,295.362 1729.13,295.362 1730.9,295.362 1732.66,295.362 1734.43,295.362 1736.2,295.362 1737.96,295.362 1739.73,295.362 1741.5,295.362 1743.26,295.362 1745.03,295.362 1746.8,295.362 1748.56,295.362 1750.33,295.362 1752.1,295.362 1753.86,295.362 1755.63,295.362 1757.4,295.362 1759.16,295.362 1760.93,295.362 1762.7,295.362 1764.46,295.362 1766.23,295.362 1768,295.362 1769.76,295.362 1771.53,295.362 1773.3,295.362 1775.06,295.362 1776.83,295.362 1778.6,295.362 1780.36,295.362 1782.13,295.362 1783.9,295.362 1785.66,295.362 1787.43,295.362 1789.2,295.362 1790.96,295.362 1792.73,295.362 1794.5,295.362 1796.26,295.362 1798.03,295.362 1799.8,295.362 1801.56,295.362 1803.33,295.362 1805.1,295.362 1806.86,295.362 1808.63,295.362 1810.4,295.362 1812.16,295.362 1813.93,295.362 1815.7,295.362 1817.46,295.362 1819.23,295.362 1821,295.362 1822.76,295.362 1824.53,295.362 1826.3,295.362 1828.06,295.362 1829.83,295.362 1831.6,295.362 1833.36,295.362 1835.13,295.362 1836.89,295.362 1838.66,295.362 1840.43,295.362 1842.19,295.362 1843.96,295.362 1845.73,295.362 1847.49,295.362 1849.26,295.362 1851.03,295.362 1852.79,295.362 1854.56,295.362 1856.33,295.362 1858.09,295.362 1859.86,295.362 1861.63,295.362 1863.39,295.362 1865.16,295.362 1866.93,295.362 1868.69,295.362 1870.46,295.362 1872.23,295.362 1873.99,295.362 1875.76,295.362 1877.53,295.362 1879.29,295.362 1881.06,295.362 1882.83,295.362 1884.59,295.362 1886.36,295.362 1888.13,295.362 1889.89,295.362 1891.66,295.362 1893.43,295.362 1895.19,295.362 1896.96,295.362 1898.73,295.362 1900.49,295.362 1902.26,295.362 1904.03,295.362 1905.79,295.362 1907.56,295.362 1909.33,295.362 1911.09,295.362 1912.86,295.362 1914.63,295.362 1916.39,295.362 1918.16,295.362 1919.93,295.362 1921.69,295.362 1923.46,295.362 1925.23,295.362 1926.99,295.362 1928.76,295.362 1930.53,295.362 1932.29,295.362 1934.06,295.362 1935.83,295.362 1937.59,295.362 1939.36,295.362 1941.13,295.362 1942.89,295.362 1944.66,295.362 1946.43,295.362 1948.19,295.362 1949.96,295.362 1951.73,295.362 1953.49,295.362 1955.26,295.362 1957.03,295.362 1958.79,295.362 1960.56,295.362 1962.33,295.362 1964.09,295.362 1965.86,295.362 1967.63,295.362 1969.39,295.362 1971.16,295.362 1972.93,295.362 1974.69,295.362 1976.46,295.362 1978.23,295.362 1979.99,295.362 1981.76,295.362 1983.53,295.362 1985.29,295.362 1987.06,295.362 1988.83,295.362 1990.59,295.362 1992.36,295.362 1994.13,295.362 1995.89,295.362 1997.66,295.362 1999.43,295.362 2001.19,295.362 2002.96,295.362 2004.73,295.362 2006.49,295.362 2008.26,295.362 2010.03,295.362 2011.79,295.362 2013.56,295.362 2015.33,295.362 2017.09,295.362 2018.86,295.362 2020.63,295.362 2022.39,295.362 2024.16,295.362 2025.93,295.362 2027.69,295.362 2029.46,295.362 2031.23,295.362 2032.99,295.362 2034.76,295.362 2036.53,295.362 2038.29,295.362 2040.06,295.362 2041.83,295.362 2043.59,295.362 2045.36,295.362 2047.13,295.362 2048.89,295.362 2050.66,295.362 2052.43,295.362 2054.19,295.362 2055.96,295.362 2057.73,295.362 2059.49,295.362 2061.26,295.362 2063.03,295.362 2064.79,295.362 2066.56,295.362 2068.33,295.362 2070.09,295.362 2071.86,295.362 2073.63,295.362 2075.39,295.362 2077.16,295.362 2078.93,295.362 2080.69,295.362 2082.46,295.362 2084.23,295.362 2085.99,295.362 2087.76,295.362 2089.53,295.362 2091.29,295.362 2093.06,295.362 2094.83,295.362 2096.59,295.362 2098.36,295.362 2100.13,295.362 2101.89,295.362 2103.66,295.362 2105.43,295.362 2107.19,295.362 2108.96,295.362 2110.73,295.362 2112.49,295.362 2114.26,295.362 2116.03,295.362 2117.79,295.362 2119.56,295.362 2121.33,295.362 2123.09,295.362 2124.86,295.362 2126.63,295.362 2128.39,295.362 2130.16,295.362 2131.93,295.362 2133.69,295.362 2135.46,295.362 2137.22,295.362 2138.99,295.362 2140.76,295.362 2142.52,295.362 2144.29,295.362 2146.06,295.362 2147.82,295.362 2149.59,295.362 2151.36,295.362 2153.12,295.362 2154.89,295.362 2156.66,295.362 2158.42,295.362 2160.19,295.362 2161.96,295.362 2163.72,295.362 2165.49,295.362 2167.26,295.362 2169.02,295.362 2170.79,295.362 2172.56,295.362 2174.32,295.362 2176.09,295.362 2177.86,295.362 2179.62,295.362 2181.39,295.362 2183.16,295.362 2184.92,295.362 2186.69,295.362 2188.46,295.362 2190.22,295.362 2191.99,295.362 2193.76,295.362 2195.52,295.362 2197.29,295.362 2199.06,295.362 2200.82,295.362 2202.59,295.362 2204.36,295.362 2206.12,295.362 2207.89,295.362 2209.66,295.362 2211.42,295.362 2213.19,295.362 2214.96,295.362 2216.72,295.362 2218.49,295.362 2220.26,295.362 2222.02,295.362 2223.79,295.362 2225.56,295.362 2227.32,295.362 2229.09,295.362 2230.86,295.362 2232.62,295.362 2234.39,295.362 2236.16,295.362 2237.92,295.362 2239.69,295.362 2241.46,295.362 2243.22,295.362 2244.99,295.362 2246.76,295.362 2248.52,295.362 2250.29,295.362 2252.06,295.362 2253.82,295.362 2255.59,295.362 2257.36,295.362 2259.12,295.362 2260.89,295.362 2262.66,295.362 2264.42,295.362 2266.19,295.362 2267.96,295.362 2269.72,295.362 2271.49,295.362 2273.26,295.362 2275.02,295.362 2276.79,295.362 2278.56,295.362 2280.32,295.362 2282.09,295.362 2283.86,295.362 2285.62,295.362 2287.39,295.362 2289.16,295.362 2290.92,295.362 2292.69,295.362 2294.46,295.362 2296.22,295.362 2297.99,295.362 2299.76,295.362 2301.52,295.362 2303.29,295.362 2305.06,295.362 2306.82,295.362 2308.59,295.362 2310.36,295.362 2312.12,295.362 2313.89,295.362 2315.66,295.362 2317.42,295.362 2319.19,295.362 2320.96,295.362 2322.72,295.362 2324.49,295.362 2326.26,295.362 2328.02,295.362 2329.79,295.362 2331.56,295.362 2333.32,295.362 2335.09,295.362 2336.86,295.362 2338.62,295.362 2340.39,295.362 2342.16,295.362 2343.92,295.362 2345.69,295.362 2347.46,295.362 2349.22,295.362 2350.99,295.362 2352.76,295.362 "/>
<polyline clip-path="url(#clip921)" style="stroke:#e26f46; stroke-linecap:round; stroke-linejoin:round; stroke-width:4; stroke-opacity:1; fill:none" points="110.881,766.704 112.648,948.982 114.414,1091.86 116.181,1190.41 117.947,1257.84 119.714,1304.34 121.481,1335.72 123.247,1356.24 125.014,1369.18 126.781,1376.99 128.547,1381.39 130.314,1383.55 132.081,1384.24 133.847,1383.99 135.614,1383.15 137.381,1381.93 139.147,1380.5 140.914,1378.95 142.681,1377.34 144.447,1375.73 146.214,1374.13 147.98,1372.56 149.747,1371.03 151.514,1369.56 153.28,1368.14 155.047,1366.78 156.814,1365.47 158.58,1364.21 160.347,1363.01 162.114,1361.86 163.88,1360.75 165.647,1359.7 167.414,1358.68 169.18,1357.71 170.947,1356.78 172.714,1355.88 174.48,1355.03 176.247,1354.2 178.013,1353.41 179.78,1352.65 181.547,1351.92 183.313,1351.22 185.08,1350.55 186.847,1349.9 188.613,1349.28 190.38,1348.68 192.147,1348.11 193.913,1347.55 195.68,1347.02 197.447,1346.5 199.213,1346.01 200.98,1345.53 202.747,1345.07 204.513,1344.63 206.28,1344.2 208.046,1343.79 209.813,1343.39 211.58,1343.01 213.346,1342.64 215.113,1342.29 216.88,1341.94 218.646,1341.61 220.413,1341.29 222.18,1340.98 223.946,1340.69 225.713,1340.4 227.48,1340.12 229.246,1339.86 231.013,1339.6 232.78,1339.35 234.546,1339.11 236.313,1338.88 238.079,1338.65 239.846,1338.44 241.613,1338.23 243.379,1338.03 245.146,1337.83 246.913,1337.64 248.679,1337.46 250.446,1337.28 252.213,1337.11 253.979,1336.95 255.746,1336.79 257.513,1336.64 259.279,1336.49 261.046,1336.35 262.813,1336.21 264.579,1336.08 266.346,1335.95 268.112,1335.83 269.879,1335.71 271.646,1335.59 273.412,1335.48 275.179,1335.37 276.946,1335.26 278.712,1335.16 280.479,1335.07 282.246,1334.97 284.012,1334.88 285.779,1334.79 287.546,1334.71 289.312,1334.62 291.079,1334.54 292.846,1334.47 294.612,1334.39 296.379,1334.32 298.145,1334.25 299.912,1334.18 301.679,1334.12 303.445,1334.06 305.212,1334 306.979,1333.94 308.745,1333.88 310.512,1333.83 312.279,1333.77 314.045,1333.72 315.812,1333.67 317.579,1333.63 319.345,1333.58 321.112,1333.53 322.879,1333.49 324.645,1333.45 326.412,1333.41 328.178,1333.37 329.945,1333.33 331.712,1333.3 333.478,1333.26 335.245,1333.23 337.012,1333.2 338.778,1333.16 340.545,1333.13 342.312,1333.1 344.078,1333.07 345.845,1333.05 347.612,1333.02 349.378,1332.99 351.145,1332.97 352.912,1332.95 354.678,1332.92 356.445,1332.9 358.211,1332.88 359.978,1332.86 361.745,1332.83 363.511,1332.82 365.278,1332.8 367.045,1332.78 368.811,1332.76 370.578,1332.74 372.345,1332.73 374.111,1332.71 375.878,1332.69 377.645,1332.68 379.411,1332.66 381.178,1332.65 382.945,1332.64 384.711,1332.62 386.478,1332.61 388.244,1332.6 390.011,1332.59 391.778,1332.58 393.544,1332.56 395.311,1332.55 397.078,1332.54 398.844,1332.53 400.611,1332.52 402.378,1332.51 404.144,1332.5 405.911,1332.5 407.678,1332.49 409.444,1332.48 411.211,1332.47 412.978,1332.46 414.744,1332.46 416.511,1332.45 418.277,1332.44 420.044,1332.44 421.811,1332.43 423.577,1332.42 425.344,1332.42 427.111,1332.41 428.877,1332.41 430.644,1332.4 432.411,1332.39 434.177,1332.39 435.944,1332.38 437.711,1332.38 439.477,1332.38 441.244,1332.37 443.011,1332.37 444.777,1332.36 446.544,1332.36 448.31,1332.35 450.077,1332.35 451.844,1332.35 453.61,1332.34 455.377,1332.34 457.144,1332.34 458.91,1332.33 460.677,1332.33 462.444,1332.33 464.21,1332.32 465.977,1332.32 467.744,1332.32 469.51,1332.32 471.277,1332.31 473.044,1332.31 474.81,1332.31 476.577,1332.31 478.343,1332.3 480.11,1332.3 481.877,1332.3 483.643,1332.3 485.41,1332.3 487.177,1332.29 488.943,1332.29 490.71,1332.29 492.477,1332.29 494.243,1332.29 496.01,1332.29 497.777,1332.28 499.543,1332.28 501.31,1332.28 503.077,1332.28 504.843,1332.28 506.61,1332.28 508.376,1332.28 510.143,1332.28 511.91,1332.27 513.676,1332.27 515.443,1332.27 517.21,1332.27 518.976,1332.27 520.743,1332.27 522.51,1332.27 524.276,1332.27 526.043,1332.27 527.81,1332.27 529.576,1332.26 531.343,1332.26 533.11,1332.26 534.876,1332.26 536.643,1332.26 538.409,1332.26 540.176,1332.26 541.943,1332.26 543.709,1332.26 545.476,1332.26 547.243,1332.26 549.009,1332.26 550.776,1332.26 552.543,1332.26 554.309,1332.26 556.076,1332.26 557.843,1332.25 559.609,1332.25 561.376,1332.25 563.143,1332.25 564.909,1332.25 566.676,1332.25 568.442,1332.25 570.209,1332.25 571.976,1332.25 573.742,1332.25 575.509,1332.25 577.276,1332.25 579.042,1332.25 580.809,1332.25 582.576,1332.25 584.342,1332.25 586.109,1332.25 587.876,1332.25 589.642,1332.25 591.409,1332.25 593.176,1332.25 594.942,1332.25 596.709,1332.25 598.475,1332.25 600.242,1332.25 602.009,1332.25 603.775,1332.25 605.542,1332.25 607.309,1332.25 609.075,1332.25 610.842,1332.25 612.609,1332.25 614.375,1332.25 616.142,1332.25 617.909,1332.25 619.675,1332.24 621.442,1332.24 623.209,1332.24 624.975,1332.24 626.742,1332.24 628.508,1332.24 630.275,1332.24 632.042,1332.24 633.808,1332.24 635.575,1332.24 637.342,1332.24 639.108,1332.24 640.875,1332.24 642.642,1332.24 644.408,1332.24 646.175,1332.24 647.942,1332.24 649.708,1332.24 651.475,1332.24 653.242,1332.24 655.008,1332.24 656.775,1332.24 658.541,1332.24 660.308,1332.24 662.075,1332.24 663.841,1332.24 665.608,1332.24 667.375,1332.24 669.141,1332.24 670.908,1332.24 672.675,1332.24 674.441,1332.24 676.208,1332.24 677.975,1332.24 679.741,1332.24 681.508,1332.24 683.275,1332.24 685.041,1332.24 686.808,1332.24 688.574,1332.24 690.341,1332.24 692.108,1332.24 693.874,1332.24 695.641,1332.24 697.408,1332.24 699.174,1332.24 700.941,1332.24 702.708,1332.24 704.474,1332.24 706.241,1332.24 708.008,1332.24 709.774,1332.24 711.541,1332.24 713.308,1332.24 715.074,1332.24 716.841,1332.24 718.607,1332.24 720.374,1332.24 722.141,1332.24 723.907,1332.24 725.674,1332.24 727.441,1332.24 729.207,1332.24 730.974,1332.24 732.741,1332.24 734.507,1332.24 736.274,1332.24 738.041,1332.24 739.807,1332.24 741.574,1332.24 743.341,1332.24 745.107,1332.24 746.874,1332.24 748.64,1332.24 750.407,1332.24 752.174,1332.24 753.94,1332.24 755.707,1332.24 757.474,1332.24 759.24,1332.24 761.007,1332.24 762.774,1332.24 764.54,1332.24 766.307,1332.24 768.074,1332.24 769.84,1332.24 771.607,1332.24 773.374,1332.24 775.14,1332.24 776.907,1332.24 778.673,1332.24 780.44,1332.24 782.207,1332.24 783.973,1332.24 785.74,1332.24 787.507,1332.24 789.273,1332.24 791.04,1332.24 792.807,1332.24 794.573,1332.24 796.34,1332.24 798.107,1332.24 799.873,1332.24 801.64,1332.24 803.407,1332.24 805.173,1332.24 806.94,1332.24 808.706,1332.24 810.473,1332.24 812.24,1332.24 814.006,1332.24 815.773,1332.24 817.54,1332.24 819.306,1332.24 821.073,1332.24 822.84,1332.24 824.606,1332.24 826.373,1332.24 828.14,1332.24 829.906,1332.24 831.673,1332.24 833.44,1332.24 835.206,1332.24 836.973,1332.24 838.739,1332.24 840.506,1332.24 842.273,1332.24 844.039,1332.24 845.806,1332.24 847.573,1332.24 849.339,1332.24 851.106,1332.24 852.873,1332.24 854.639,1332.24 856.406,1332.24 858.173,1332.24 859.939,1332.24 861.706,1332.24 863.473,1332.24 865.239,1332.24 867.006,1332.24 868.772,1332.24 870.539,1332.24 872.306,1332.24 874.072,1332.24 875.839,1332.24 877.606,1332.24 879.372,1332.24 881.139,1332.24 882.906,1332.24 884.672,1332.24 886.439,1332.24 888.206,1332.24 889.972,1332.24 891.739,1332.24 893.505,1332.24 895.272,1332.24 897.039,1332.24 898.805,1332.24 900.572,1332.24 902.339,1332.24 904.105,1332.24 905.872,1332.24 907.639,1332.24 909.405,1332.24 911.172,1332.24 912.939,1332.24 914.705,1332.24 916.472,1332.24 918.239,1332.24 920.005,1332.24 921.772,1332.24 923.538,1332.24 925.305,1332.24 927.072,1332.24 928.838,1332.24 930.605,1332.24 932.372,1332.24 934.138,1332.24 935.905,1332.24 937.672,1332.24 939.438,1332.24 941.205,1332.24 942.972,1332.24 944.738,1332.24 946.505,1332.24 948.272,1332.24 950.038,1332.24 951.805,1332.24 953.571,1332.24 955.338,1332.24 957.105,1332.24 958.871,1332.24 960.638,1332.24 962.405,1332.24 964.171,1332.24 965.938,1332.24 967.705,1332.24 969.471,1332.24 971.238,1332.24 973.005,1332.24 974.771,1332.24 976.538,1332.24 978.305,1332.24 980.071,1332.24 981.838,1332.24 983.604,1332.24 985.371,1332.24 987.138,1332.24 988.904,1332.24 990.671,1332.24 992.438,1332.24 994.204,1332.24 995.971,1332.24 997.738,1332.24 999.504,1332.24 1001.27,1332.24 1003.04,1332.24 1004.8,1332.24 1006.57,1332.24 1008.34,1332.24 1010.1,1332.24 1011.87,1332.24 1013.64,1332.24 1015.4,1332.24 1017.17,1332.24 1018.94,1332.24 1020.7,1332.24 1022.47,1332.24 1024.24,1332.24 1026,1332.24 1027.77,1332.24 1029.54,1332.24 1031.3,1332.24 1033.07,1332.24 1034.84,1332.24 1036.6,1332.24 1038.37,1332.24 1040.14,1332.24 1041.9,1332.24 1043.67,1332.24 1045.44,1332.24 1047.2,1332.24 1048.97,1332.24 1050.74,1332.24 1052.5,1332.24 1054.27,1332.24 1056.04,1332.24 1057.8,1332.24 1059.57,1332.24 1061.34,1332.24 1063.1,1332.24 1064.87,1332.24 1066.64,1332.24 1068.4,1332.24 1070.17,1332.24 1071.94,1332.24 1073.7,1332.24 1075.47,1332.24 1077.24,1332.24 1079,1332.24 1080.77,1332.24 1082.54,1332.24 1084.3,1332.24 1086.07,1332.24 1087.84,1332.24 1089.6,1332.24 1091.37,1332.24 1093.14,1332.24 1094.9,1332.24 1096.67,1332.24 1098.44,1332.24 1100.2,1332.24 1101.97,1332.24 1103.74,1332.24 1105.5,1332.24 1107.27,1332.24 1109.04,1332.24 1110.8,1332.24 1112.57,1332.24 1114.34,1332.24 1116.1,1332.24 1117.87,1332.24 1119.64,1332.24 1121.4,1332.24 1123.17,1332.24 1124.94,1332.24 1126.7,1332.24 1128.47,1332.24 1130.24,1332.24 1132,1332.24 1133.77,1332.24 1135.54,1332.24 1137.3,1332.24 1139.07,1332.24 1140.84,1332.24 1142.6,1332.24 1144.37,1332.24 1146.14,1332.24 1147.9,1332.24 1149.67,1332.24 1151.44,1332.24 1153.2,1332.24 1154.97,1332.24 1156.74,1332.24 1158.5,1332.24 1160.27,1332.24 1162.04,1332.24 1163.8,1332.24 1165.57,1332.24 1167.34,1332.24 1169.1,1332.24 1170.87,1332.24 1172.64,1332.24 1174.4,1332.24 1176.17,1332.24 1177.94,1332.24 1179.7,1332.24 1181.47,1332.24 1183.24,1332.24 1185,1332.24 1186.77,1332.24 1188.54,1332.24 1190.3,1332.24 1192.07,1332.24 1193.84,1332.24 1195.6,1332.24 1197.37,1332.24 1199.14,1332.24 1200.9,1332.24 1202.67,1332.24 1204.44,1332.24 1206.2,1332.24 1207.97,1332.24 1209.74,1332.24 1211.5,1332.24 1213.27,1332.24 1215.04,1332.24 1216.8,1332.24 1218.57,1332.24 1220.34,1332.24 1222.1,1332.24 1223.87,1332.24 1225.64,1332.24 1227.4,1332.24 1229.17,1332.24 1230.94,1332.24 1232.7,1332.24 1234.47,1332.24 1236.24,1332.24 1238,1332.24 1239.77,1332.24 1241.53,1332.24 1243.3,1332.24 1245.07,1332.24 1246.83,1332.24 1248.6,1332.24 1250.37,1332.24 1252.13,1332.24 1253.9,1332.24 1255.67,1332.24 1257.43,1332.24 1259.2,1332.24 1260.97,1332.24 1262.73,1332.24 1264.5,1332.24 1266.27,1332.24 1268.03,1332.24 1269.8,1332.24 1271.57,1332.24 1273.33,1332.24 1275.1,1332.24 1276.87,1332.24 1278.63,1332.24 1280.4,1332.24 1282.17,1332.24 1283.93,1332.24 1285.7,1332.24 1287.47,1332.24 1289.23,1332.24 1291,1332.24 1292.77,1332.24 1294.53,1332.24 1296.3,1332.24 1298.07,1332.24 1299.83,1332.24 1301.6,1332.24 1303.37,1332.24 1305.13,1332.24 1306.9,1332.24 1308.67,1332.24 1310.43,1332.24 1312.2,1332.24 1313.97,1332.24 1315.73,1332.24 1317.5,1332.24 1319.27,1332.24 1321.03,1332.24 1322.8,1332.24 1324.57,1332.24 1326.33,1332.24 1328.1,1332.24 1329.87,1332.24 1331.63,1332.24 1333.4,1332.24 1335.17,1332.24 1336.93,1332.24 1338.7,1332.24 1340.47,1332.24 1342.23,1332.24 1344,1332.24 1345.77,1332.24 1347.53,1332.24 1349.3,1332.24 1351.07,1332.24 1352.83,1332.24 1354.6,1332.24 1356.37,1332.24 1358.13,1332.24 1359.9,1332.24 1361.67,1332.24 1363.43,1332.24 1365.2,1332.24 1366.97,1332.24 1368.73,1332.24 1370.5,1332.24 1372.27,1332.24 1374.03,1332.24 1375.8,1332.24 1377.57,1332.24 1379.33,1332.24 1381.1,1332.24 1382.87,1332.24 1384.63,1332.24 1386.4,1332.24 1388.17,1332.24 1389.93,1332.24 1391.7,1332.24 1393.47,1332.24 1395.23,1332.24 1397,1332.24 1398.77,1332.24 1400.53,1332.24 1402.3,1332.24 1404.07,1332.24 1405.83,1332.24 1407.6,1332.24 1409.37,1332.24 1411.13,1332.24 1412.9,1332.24 1414.67,1332.24 1416.43,1332.24 1418.2,1332.24 1419.97,1332.24 1421.73,1332.24 1423.5,1332.24 1425.27,1332.24 1427.03,1332.24 1428.8,1332.24 1430.57,1332.24 1432.33,1332.24 1434.1,1332.24 1435.87,1332.24 1437.63,1332.24 1439.4,1332.24 1441.17,1332.24 1442.93,1332.24 1444.7,1332.24 1446.47,1332.24 1448.23,1332.24 1450,1332.24 1451.77,1332.24 1453.53,1332.24 1455.3,1332.24 1457.07,1332.24 1458.83,1332.24 1460.6,1332.24 1462.37,1332.24 1464.13,1332.24 1465.9,1332.24 1467.67,1332.24 1469.43,1332.24 1471.2,1332.24 1472.97,1332.24 1474.73,1332.24 1476.5,1332.24 1478.27,1332.24 1480.03,1332.24 1481.8,1332.24 1483.57,1332.24 1485.33,1332.24 1487.1,1332.24 1488.87,1332.24 1490.63,1332.24 1492.4,1332.24 1494.17,1332.24 1495.93,1332.24 1497.7,1332.24 1499.47,1332.24 1501.23,1332.24 1503,1332.24 1504.77,1332.24 1506.53,1332.24 1508.3,1332.24 1510.07,1332.24 1511.83,1332.24 1513.6,1332.24 1515.37,1332.24 1517.13,1332.24 1518.9,1332.24 1520.67,1332.24 1522.43,1332.24 1524.2,1332.24 1525.97,1332.24 1527.73,1332.24 1529.5,1332.24 1531.27,1332.24 1533.03,1332.24 1534.8,1332.24 1536.57,1332.24 1538.33,1332.24 1540.1,1332.24 1541.86,1332.24 1543.63,1332.24 1545.4,1332.24 1547.16,1332.24 1548.93,1332.24 1550.7,1332.24 1552.46,1332.24 1554.23,1332.24 1556,1332.24 1557.76,1332.24 1559.53,1332.24 1561.3,1332.24 1563.06,1332.24 1564.83,1332.24 1566.6,1332.24 1568.36,1332.24 1570.13,1332.24 1571.9,1332.24 1573.66,1332.24 1575.43,1332.24 1577.2,1332.24 1578.96,1332.24 1580.73,1332.24 1582.5,1332.24 1584.26,1332.24 1586.03,1332.24 1587.8,1332.24 1589.56,1332.24 1591.33,1332.24 1593.1,1332.24 1594.86,1332.24 1596.63,1332.24 1598.4,1332.24 1600.16,1332.24 1601.93,1332.24 1603.7,1332.24 1605.46,1332.24 1607.23,1332.24 1609,1332.24 1610.76,1332.24 1612.53,1332.24 1614.3,1332.24 1616.06,1332.24 1617.83,1332.24 1619.6,1332.24 1621.36,1332.24 1623.13,1332.24 1624.9,1332.24 1626.66,1332.24 1628.43,1332.24 1630.2,1332.24 1631.96,1332.24 1633.73,1332.24 1635.5,1332.24 1637.26,1332.24 1639.03,1332.24 1640.8,1332.24 1642.56,1332.24 1644.33,1332.24 1646.1,1332.24 1647.86,1332.24 1649.63,1332.24 1651.4,1332.24 1653.16,1332.24 1654.93,1332.24 1656.7,1332.24 1658.46,1332.24 1660.23,1332.24 1662,1332.24 1663.76,1332.24 1665.53,1332.24 1667.3,1332.24 1669.06,1332.24 1670.83,1332.24 1672.6,1332.24 1674.36,1332.24 1676.13,1332.24 1677.9,1332.24 1679.66,1332.24 1681.43,1332.24 1683.2,1332.24 1684.96,1332.24 1686.73,1332.24 1688.5,1332.24 1690.26,1332.24 1692.03,1332.24 1693.8,1332.24 1695.56,1332.24 1697.33,1332.24 1699.1,1332.24 1700.86,1332.24 1702.63,1332.24 1704.4,1332.24 1706.16,1332.24 1707.93,1332.24 1709.7,1332.24 1711.46,1332.24 1713.23,1332.24 1715,1332.24 1716.76,1332.24 1718.53,1332.24 1720.3,1332.24 1722.06,1332.24 1723.83,1332.24 1725.6,1332.24 1727.36,1332.24 1729.13,1332.24 1730.9,1332.24 1732.66,1332.24 1734.43,1332.24 1736.2,1332.24 1737.96,1332.24 1739.73,1332.24 1741.5,1332.24 1743.26,1332.24 1745.03,1332.24 1746.8,1332.24 1748.56,1332.24 1750.33,1332.24 1752.1,1332.24 1753.86,1332.24 1755.63,1332.24 1757.4,1332.24 1759.16,1332.24 1760.93,1332.24 1762.7,1332.24 1764.46,1332.24 1766.23,1332.24 1768,1332.24 1769.76,1332.24 1771.53,1332.24 1773.3,1332.24 1775.06,1332.24 1776.83,1332.24 1778.6,1332.24 1780.36,1332.24 1782.13,1332.24 1783.9,1332.24 1785.66,1332.24 1787.43,1332.24 1789.2,1332.24 1790.96,1332.24 1792.73,1332.24 1794.5,1332.24 1796.26,1332.24 1798.03,1332.24 1799.8,1332.24 1801.56,1332.24 1803.33,1332.24 1805.1,1332.24 1806.86,1332.24 1808.63,1332.24 1810.4,1332.24 1812.16,1332.24 1813.93,1332.24 1815.7,1332.24 1817.46,1332.24 1819.23,1332.24 1821,1332.24 1822.76,1332.24 1824.53,1332.24 1826.3,1332.24 1828.06,1332.24 1829.83,1332.24 1831.6,1332.24 1833.36,1332.24 1835.13,1332.24 1836.89,1332.24 1838.66,1332.24 1840.43,1332.24 1842.19,1332.24 1843.96,1332.24 1845.73,1332.24 1847.49,1332.24 1849.26,1332.24 1851.03,1332.24 1852.79,1332.24 1854.56,1332.24 1856.33,1332.24 1858.09,1332.24 1859.86,1332.24 1861.63,1332.24 1863.39,1332.24 1865.16,1332.24 1866.93,1332.24 1868.69,1332.24 1870.46,1332.24 1872.23,1332.24 1873.99,1332.24 1875.76,1332.24 1877.53,1332.24 1879.29,1332.24 1881.06,1332.24 1882.83,1332.24 1884.59,1332.24 1886.36,1332.24 1888.13,1332.24 1889.89,1332.24 1891.66,1332.24 1893.43,1332.24 1895.19,1332.24 1896.96,1332.24 1898.73,1332.24 1900.49,1332.24 1902.26,1332.24 1904.03,1332.24 1905.79,1332.24 1907.56,1332.24 1909.33,1332.24 1911.09,1332.24 1912.86,1332.24 1914.63,1332.24 1916.39,1332.24 1918.16,1332.24 1919.93,1332.24 1921.69,1332.24 1923.46,1332.24 1925.23,1332.24 1926.99,1332.24 1928.76,1332.24 1930.53,1332.24 1932.29,1332.24 1934.06,1332.24 1935.83,1332.24 1937.59,1332.24 1939.36,1332.24 1941.13,1332.24 1942.89,1332.24 1944.66,1332.24 1946.43,1332.24 1948.19,1332.24 1949.96,1332.24 1951.73,1332.24 1953.49,1332.24 1955.26,1332.24 1957.03,1332.24 1958.79,1332.24 1960.56,1332.24 1962.33,1332.24 1964.09,1332.24 1965.86,1332.24 1967.63,1332.24 1969.39,1332.24 1971.16,1332.24 1972.93,1332.24 1974.69,1332.24 1976.46,1332.24 1978.23,1332.24 1979.99,1332.24 1981.76,1332.24 1983.53,1332.24 1985.29,1332.24 1987.06,1332.24 1988.83,1332.24 1990.59,1332.24 1992.36,1332.24 1994.13,1332.24 1995.89,1332.24 1997.66,1332.24 1999.43,1332.24 2001.19,1332.24 2002.96,1332.24 2004.73,1332.24 2006.49,1332.24 2008.26,1332.24 2010.03,1332.24 2011.79,1332.24 2013.56,1332.24 2015.33,1332.24 2017.09,1332.24 2018.86,1332.24 2020.63,1332.24 2022.39,1332.24 2024.16,1332.24 2025.93,1332.24 2027.69,1332.24 2029.46,1332.24 2031.23,1332.24 2032.99,1332.24 2034.76,1332.24 2036.53,1332.24 2038.29,1332.24 2040.06,1332.24 2041.83,1332.24 2043.59,1332.24 2045.36,1332.24 2047.13,1332.24 2048.89,1332.24 2050.66,1332.24 2052.43,1332.24 2054.19,1332.24 2055.96,1332.24 2057.73,1332.24 2059.49,1332.24 2061.26,1332.24 2063.03,1332.24 2064.79,1332.24 2066.56,1332.24 2068.33,1332.24 2070.09,1332.24 2071.86,1332.24 2073.63,1332.24 2075.39,1332.24 2077.16,1332.24 2078.93,1332.24 2080.69,1332.24 2082.46,1332.24 2084.23,1332.24 2085.99,1332.24 2087.76,1332.24 2089.53,1332.24 2091.29,1332.24 2093.06,1332.24 2094.83,1332.24 2096.59,1332.24 2098.36,1332.24 2100.13,1332.24 2101.89,1332.24 2103.66,1332.24 2105.43,1332.24 2107.19,1332.24 2108.96,1332.24 2110.73,1332.24 2112.49,1332.24 2114.26,1332.24 2116.03,1332.24 2117.79,1332.24 2119.56,1332.24 2121.33,1332.24 2123.09,1332.24 2124.86,1332.24 2126.63,1332.24 2128.39,1332.24 2130.16,1332.24 2131.93,1332.24 2133.69,1332.24 2135.46,1332.24 2137.22,1332.24 2138.99,1332.24 2140.76,1332.24 2142.52,1332.24 2144.29,1332.24 2146.06,1332.24 2147.82,1332.24 2149.59,1332.24 2151.36,1332.24 2153.12,1332.24 2154.89,1332.24 2156.66,1332.24 2158.42,1332.24 2160.19,1332.24 2161.96,1332.24 2163.72,1332.24 2165.49,1332.24 2167.26,1332.24 2169.02,1332.24 2170.79,1332.24 2172.56,1332.24 2174.32,1332.24 2176.09,1332.24 2177.86,1332.24 2179.62,1332.24 2181.39,1332.24 2183.16,1332.24 2184.92,1332.24 2186.69,1332.24 2188.46,1332.24 2190.22,1332.24 2191.99,1332.24 2193.76,1332.24 2195.52,1332.24 2197.29,1332.24 2199.06,1332.24 2200.82,1332.24 2202.59,1332.24 2204.36,1332.24 2206.12,1332.24 2207.89,1332.24 2209.66,1332.24 2211.42,1332.24 2213.19,1332.24 2214.96,1332.24 2216.72,1332.24 2218.49,1332.24 2220.26,1332.24 2222.02,1332.24 2223.79,1332.24 2225.56,1332.24 2227.32,1332.24 2229.09,1332.24 2230.86,1332.24 2232.62,1332.24 2234.39,1332.24 2236.16,1332.24 2237.92,1332.24 2239.69,1332.24 2241.46,1332.24 2243.22,1332.24 2244.99,1332.24 2246.76,1332.24 2248.52,1332.24 2250.29,1332.24 2252.06,1332.24 2253.82,1332.24 2255.59,1332.24 2257.36,1332.24 2259.12,1332.24 2260.89,1332.24 2262.66,1332.24 2264.42,1332.24 2266.19,1332.24 2267.96,1332.24 2269.72,1332.24 2271.49,1332.24 2273.26,1332.24 2275.02,1332.24 2276.79,1332.24 2278.56,1332.24 2280.32,1332.24 2282.09,1332.24 2283.86,1332.24 2285.62,1332.24 2287.39,1332.24 2289.16,1332.24 2290.92,1332.24 2292.69,1332.24 2294.46,1332.24 2296.22,1332.24 2297.99,1332.24 2299.76,1332.24 2301.52,1332.24 2303.29,1332.24 2305.06,1332.24 2306.82,1332.24 2308.59,1332.24 2310.36,1332.24 2312.12,1332.24 2313.89,1332.24 2315.66,1332.24 2317.42,1332.24 2319.19,1332.24 2320.96,1332.24 2322.72,1332.24 2324.49,1332.24 2326.26,1332.24 2328.02,1332.24 2329.79,1332.24 2331.56,1332.24 2333.32,1332.24 2335.09,1332.24 2336.86,1332.24 2338.62,1332.24 2340.39,1332.24 2342.16,1332.24 2343.92,1332.24 2345.69,1332.24 2347.46,1332.24 2349.22,1332.24 2350.99,1332.24 2352.76,1332.24 "/>
<path clip-path="url(#clip920)" d="M1986.29 248.629 L2278.03 248.629 L2278.03 93.1086 L1986.29 93.1086  Z" fill="#ffffff" fill-rule="evenodd" fill-opacity="1"/>
<polyline clip-path="url(#clip920)" style="stroke:#000000; stroke-linecap:round; stroke-linejoin:round; stroke-width:4; stroke-opacity:1; fill:none" points="1986.29,248.629 2278.03,248.629 2278.03,93.1086 1986.29,93.1086 1986.29,248.629 "/>
<polyline clip-path="url(#clip920)" style="stroke:#009af9; stroke-linecap:round; stroke-linejoin:round; stroke-width:4; stroke-opacity:1; fill:none" points="2011.2,144.949 2160.66,144.949 "/>
<path clip-path="url(#clip920)" d="M2204.83 145.794 L2190.08 145.794 Q2190.43 152.715 2192.03 155.655 Q2194.02 159.266 2197.47 159.266 Q2200.94 159.266 2202.86 155.631 Q2204.55 152.437 2204.83 145.794 M2204.76 141.858 Q2204.11 135.284 2202.86 132.97 Q2200.87 129.312 2197.47 129.312 Q2193.93 129.312 2192.05 132.923 Q2190.57 135.84 2190.13 141.858 L2204.76 141.858 M2197.47 125.84 Q2203.02 125.84 2206.2 130.747 Q2209.37 135.632 2209.37 144.289 Q2209.37 152.923 2206.2 157.83 Q2203.02 162.761 2197.47 162.761 Q2191.89 162.761 2188.74 157.83 Q2185.57 152.923 2185.57 144.289 Q2185.57 135.632 2188.74 130.747 Q2191.89 125.84 2197.47 125.84 Z" fill="#000000" fill-rule="nonzero" fill-opacity="1" /><polyline clip-path="url(#clip920)" style="stroke:#e26f46; stroke-linecap:round; stroke-linejoin:round; stroke-width:4; stroke-opacity:1; fill:none" points="2011.2,196.789 2160.66,196.789 "/>
<path clip-path="url(#clip920)" d="M2204.83 197.634 L2190.08 197.634 Q2190.43 204.555 2192.03 207.495 Q2194.02 211.106 2197.47 211.106 Q2200.94 211.106 2202.86 207.471 Q2204.55 204.277 2204.83 197.634 M2204.76 193.698 Q2204.11 187.124 2202.86 184.81 Q2200.87 181.152 2197.47 181.152 Q2193.93 181.152 2192.05 184.763 Q2190.57 187.68 2190.13 193.698 L2204.76 193.698 M2197.47 177.68 Q2203.02 177.68 2206.2 182.587 Q2209.37 187.472 2209.37 196.129 Q2209.37 204.763 2206.2 209.67 Q2203.02 214.601 2197.47 214.601 Q2191.89 214.601 2188.74 209.67 Q2185.57 204.763 2185.57 196.129 Q2185.57 187.472 2188.74 182.587 Q2191.89 177.68 2197.47 177.68 Z" fill="#000000" fill-rule="nonzero" fill-opacity="1" /><path clip-path="url(#clip920)" d="M2216.89 218.05 L2230.73 218.05 L2230.73 221.476 L2216.89 221.476 L2216.89 218.05 Z" fill="#000000" fill-rule="nonzero" fill-opacity="1" /><path clip-path="url(#clip920)" d="M2244.34 180.782 L2244.34 188.143 L2253.12 188.143 L2253.12 191.453 L2244.34 191.453 L2244.34 205.527 Q2244.34 208.698 2245.2 209.601 Q2246.08 210.504 2248.74 210.504 L2253.12 210.504 L2253.12 214.069 L2248.74 214.069 Q2243.81 214.069 2241.94 212.24 Q2240.06 210.388 2240.06 205.527 L2240.06 191.453 L2236.94 191.453 L2236.94 188.143 L2240.06 188.143 L2240.06 180.782 L2244.34 180.782 Z" fill="#000000" fill-rule="nonzero" fill-opacity="1" /></svg>
