<?xml version="1.0" encoding="utf-8"?>
<svg xmlns="http://www.w3.org/2000/svg" xmlns:xlink="http://www.w3.org/1999/xlink" width="600" height="400" viewBox="0 0 2400 1600">
<defs>
  <clipPath id="clip950">
    <rect x="0" y="0" width="2400" height="1600"/>
  </clipPath>
</defs>
<path clip-path="url(#clip950)" d="M0 1600 L2400 1600 L2400 0 L0 0  Z" fill="#ffffff" fill-rule="evenodd" fill-opacity="1"/>
<defs>
  <clipPath id="clip951">
    <rect x="110" y="47" width="2243" height="1377"/>
  </clipPath>
</defs>
<path clip-path="url(#clip950)" d="M110.881 1423.18 L2352.76 1423.18 L2352.76 47.2441 L110.881 47.2441  Z" fill="#ffffff" fill-rule="evenodd" fill-opacity="1"/>
<polyline clip-path="url(#clip951)" style="stroke:#000000; stroke-linecap:round; stroke-linejoin:round; stroke-width:2; stroke-opacity:0.1; fill:none" points="110.881,1423.18 110.881,47.2441 "/>
<polyline clip-path="url(#clip951)" style="stroke:#000000; stroke-linecap:round; stroke-linejoin:round; stroke-width:2; stroke-opacity:0.1; fill:none" points="484.527,1423.18 484.527,47.2441 "/>
<polyline clip-path="url(#clip951)" style="stroke:#000000; stroke-linecap:round; stroke-linejoin:round; stroke-width:2; stroke-opacity:0.1; fill:none" points="858.173,1423.18 858.173,47.2441 "/>
<polyline clip-path="url(#clip951)" style="stroke:#000000; stroke-linecap:round; stroke-linejoin:round; stroke-width:2; stroke-opacity:0.1; fill:none" points="1231.82,1423.18 1231.82,47.2441 "/>
<polyline clip-path="url(#clip951)" style="stroke:#000000; stroke-linecap:round; stroke-linejoin:round; stroke-width:2; stroke-opacity:0.1; fill:none" points="1605.46,1423.18 1605.46,47.2441 "/>
<polyline clip-path="url(#clip951)" style="stroke:#000000; stroke-linecap:round; stroke-linejoin:round; stroke-width:2; stroke-opacity:0.1; fill:none" points="1979.11,1423.18 1979.11,47.2441 "/>
<polyline clip-path="url(#clip951)" style="stroke:#000000; stroke-linecap:round; stroke-linejoin:round; stroke-width:2; stroke-opacity:0.1; fill:none" points="2352.76,1423.18 2352.76,47.2441 "/>
<polyline clip-path="url(#clip951)" style="stroke:#000000; stroke-linecap:round; stroke-linejoin:round; stroke-width:2; stroke-opacity:0.1; fill:none" points="110.881,1384.24 2352.76,1384.24 "/>
<polyline clip-path="url(#clip951)" style="stroke:#000000; stroke-linecap:round; stroke-linejoin:round; stroke-width:2; stroke-opacity:0.1; fill:none" points="110.881,971.013 2352.76,971.013 "/>
<polyline clip-path="url(#clip951)" style="stroke:#000000; stroke-linecap:round; stroke-linejoin:round; stroke-width:2; stroke-opacity:0.1; fill:none" points="110.881,557.788 2352.76,557.788 "/>
<polyline clip-path="url(#clip951)" style="stroke:#000000; stroke-linecap:round; stroke-linejoin:round; stroke-width:2; stroke-opacity:0.1; fill:none" points="110.881,144.562 2352.76,144.562 "/>
<polyline clip-path="url(#clip950)" style="stroke:#000000; stroke-linecap:round; stroke-linejoin:round; stroke-width:4; stroke-opacity:1; fill:none" points="110.881,1423.18 2352.76,1423.18 "/>
<polyline clip-path="url(#clip950)" style="stroke:#000000; stroke-linecap:round; stroke-linejoin:round; stroke-width:4; stroke-opacity:1; fill:none" points="110.881,1423.18 110.881,1404.28 "/>
<polyline clip-path="url(#clip950)" style="stroke:#000000; stroke-linecap:round; stroke-linejoin:round; stroke-width:4; stroke-opacity:1; fill:none" points="484.527,1423.18 484.527,1404.28 "/>
<polyline clip-path="url(#clip950)" style="stroke:#000000; stroke-linecap:round; stroke-linejoin:round; stroke-width:4; stroke-opacity:1; fill:none" points="858.173,1423.18 858.173,1404.28 "/>
<polyline clip-path="url(#clip950)" style="stroke:#000000; stroke-linecap:round; stroke-linejoin:round; stroke-width:4; stroke-opacity:1; fill:none" points="1231.82,1423.18 1231.82,1404.28 "/>
<polyline clip-path="url(#clip950)" style="stroke:#000000; stroke-linecap:round; stroke-linejoin:round; stroke-width:4; stroke-opacity:1; fill:none" points="1605.46,1423.18 1605.46,1404.28 "/>
<polyline clip-path="url(#clip950)" style="stroke:#000000; stroke-linecap:round; stroke-linejoin:round; stroke-width:4; stroke-opacity:1; fill:none" points="1979.11,1423.18 1979.11,1404.28 "/>
<polyline clip-path="url(#clip950)" style="stroke:#000000; stroke-linecap:round; stroke-linejoin:round; stroke-width:4; stroke-opacity:1; fill:none" points="2352.76,1423.18 2352.76,1404.28 "/>
<path clip-path="url(#clip950)" d="M110.881 1454.1 Q107.27 1454.1 105.441 1457.66 Q103.636 1461.2 103.636 1468.33 Q103.636 1475.44 105.441 1479.01 Q107.27 1482.55 110.881 1482.55 Q114.515 1482.55 116.321 1479.01 Q118.149 1475.44 118.149 1468.33 Q118.149 1461.2 116.321 1457.66 Q114.515 1454.1 110.881 1454.1 M110.881 1450.39 Q116.691 1450.39 119.747 1455 Q122.825 1459.58 122.825 1468.33 Q122.825 1477.06 119.747 1481.67 Q116.691 1486.25 110.881 1486.25 Q105.071 1486.25 101.992 1481.67 Q98.9365 1477.06 98.9365 1468.33 Q98.9365 1459.58 101.992 1455 Q105.071 1450.39 110.881 1450.39 Z" fill="#000000" fill-rule="nonzero" fill-opacity="1" /><path clip-path="url(#clip950)" d="M463.3 1481.64 L479.619 1481.64 L479.619 1485.58 L457.675 1485.58 L457.675 1481.64 Q460.337 1478.89 464.92 1474.26 Q469.527 1469.61 470.707 1468.27 Q472.953 1465.74 473.832 1464.01 Q474.735 1462.25 474.735 1460.56 Q474.735 1457.8 472.791 1456.07 Q470.869 1454.33 467.768 1454.33 Q465.568 1454.33 463.115 1455.09 Q460.684 1455.86 457.906 1457.41 L457.906 1452.69 Q460.731 1451.55 463.184 1450.97 Q465.638 1450.39 467.675 1450.39 Q473.045 1450.39 476.24 1453.08 Q479.434 1455.77 479.434 1460.26 Q479.434 1462.39 478.624 1464.31 Q477.837 1466.2 475.73 1468.8 Q475.152 1469.47 472.05 1472.69 Q468.948 1475.88 463.3 1481.64 Z" fill="#000000" fill-rule="nonzero" fill-opacity="1" /><path clip-path="url(#clip950)" d="M499.434 1454.1 Q495.823 1454.1 493.994 1457.66 Q492.189 1461.2 492.189 1468.33 Q492.189 1475.44 493.994 1479.01 Q495.823 1482.55 499.434 1482.55 Q503.068 1482.55 504.874 1479.01 Q506.703 1475.44 506.703 1468.33 Q506.703 1461.2 504.874 1457.66 Q503.068 1454.1 499.434 1454.1 M499.434 1450.39 Q505.244 1450.39 508.3 1455 Q511.378 1459.58 511.378 1468.33 Q511.378 1477.06 508.3 1481.67 Q505.244 1486.25 499.434 1486.25 Q493.624 1486.25 490.545 1481.67 Q487.49 1477.06 487.49 1468.33 Q487.49 1459.58 490.545 1455 Q493.624 1450.39 499.434 1450.39 Z" fill="#000000" fill-rule="nonzero" fill-opacity="1" /><path clip-path="url(#clip950)" d="M846.344 1455.09 L834.538 1473.54 L846.344 1473.54 L846.344 1455.09 M845.117 1451.02 L850.997 1451.02 L850.997 1473.54 L855.927 1473.54 L855.927 1477.43 L850.997 1477.43 L850.997 1485.58 L846.344 1485.58 L846.344 1477.43 L830.742 1477.43 L830.742 1472.92 L845.117 1451.02 Z" fill="#000000" fill-rule="nonzero" fill-opacity="1" /><path clip-path="url(#clip950)" d="M873.659 1454.1 Q870.047 1454.1 868.219 1457.66 Q866.413 1461.2 866.413 1468.33 Q866.413 1475.44 868.219 1479.01 Q870.047 1482.55 873.659 1482.55 Q877.293 1482.55 879.098 1479.01 Q880.927 1475.44 880.927 1468.33 Q880.927 1461.2 879.098 1457.66 Q877.293 1454.1 873.659 1454.1 M873.659 1450.39 Q879.469 1450.39 882.524 1455 Q885.603 1459.58 885.603 1468.33 Q885.603 1477.06 882.524 1481.67 Q879.469 1486.25 873.659 1486.25 Q867.848 1486.25 864.77 1481.67 Q861.714 1477.06 861.714 1468.33 Q861.714 1459.58 864.77 1455 Q867.848 1450.39 873.659 1450.39 Z" fill="#000000" fill-rule="nonzero" fill-opacity="1" /><path clip-path="url(#clip950)" d="M1217.22 1466.44 Q1214.08 1466.44 1212.22 1468.59 Q1210.39 1470.74 1210.39 1474.49 Q1210.39 1478.22 1212.22 1480.39 Q1214.08 1482.55 1217.22 1482.55 Q1220.37 1482.55 1222.2 1480.39 Q1224.05 1478.22 1224.05 1474.49 Q1224.05 1470.74 1222.2 1468.59 Q1220.37 1466.44 1217.22 1466.44 M1226.51 1451.78 L1226.51 1456.04 Q1224.75 1455.21 1222.94 1454.77 Q1221.16 1454.33 1219.4 1454.33 Q1214.77 1454.33 1212.32 1457.45 Q1209.89 1460.58 1209.54 1466.9 Q1210.9 1464.89 1212.96 1463.82 Q1215.02 1462.73 1217.5 1462.73 Q1222.71 1462.73 1225.72 1465.9 Q1228.75 1469.05 1228.75 1474.49 Q1228.75 1479.82 1225.6 1483.03 Q1222.46 1486.25 1217.22 1486.25 Q1211.23 1486.25 1208.06 1481.67 Q1204.89 1477.06 1204.89 1468.33 Q1204.89 1460.14 1208.77 1455.28 Q1212.66 1450.39 1219.21 1450.39 Q1220.97 1450.39 1222.76 1450.74 Q1224.56 1451.09 1226.51 1451.78 Z" fill="#000000" fill-rule="nonzero" fill-opacity="1" /><path clip-path="url(#clip950)" d="M1246.81 1454.1 Q1243.2 1454.1 1241.37 1457.66 Q1239.56 1461.2 1239.56 1468.33 Q1239.56 1475.44 1241.37 1479.01 Q1243.2 1482.55 1246.81 1482.55 Q1250.44 1482.55 1252.25 1479.01 Q1254.08 1475.44 1254.08 1468.33 Q1254.08 1461.2 1252.25 1457.66 Q1250.44 1454.1 1246.81 1454.1 M1246.81 1450.39 Q1252.62 1450.39 1255.67 1455 Q1258.75 1459.58 1258.75 1468.33 Q1258.75 1477.06 1255.67 1481.67 Q1252.62 1486.25 1246.81 1486.25 Q1241 1486.25 1237.92 1481.67 Q1234.86 1477.06 1234.86 1468.33 Q1234.86 1459.58 1237.92 1455 Q1241 1450.39 1246.81 1450.39 Z" fill="#000000" fill-rule="nonzero" fill-opacity="1" /><path clip-path="url(#clip950)" d="M1590.34 1469.17 Q1587 1469.17 1585.08 1470.95 Q1583.18 1472.73 1583.18 1475.86 Q1583.18 1478.98 1585.08 1480.77 Q1587 1482.55 1590.34 1482.55 Q1593.67 1482.55 1595.59 1480.77 Q1597.51 1478.96 1597.51 1475.86 Q1597.51 1472.73 1595.59 1470.95 Q1593.69 1469.17 1590.34 1469.17 M1585.66 1467.18 Q1582.65 1466.44 1580.96 1464.38 Q1579.3 1462.32 1579.3 1459.35 Q1579.3 1455.21 1582.24 1452.8 Q1585.2 1450.39 1590.34 1450.39 Q1595.5 1450.39 1598.44 1452.8 Q1601.38 1455.21 1601.38 1459.35 Q1601.38 1462.32 1599.69 1464.38 Q1598.02 1466.44 1595.04 1467.18 Q1598.42 1467.96 1600.29 1470.26 Q1602.19 1472.55 1602.19 1475.86 Q1602.19 1480.88 1599.11 1483.57 Q1596.05 1486.25 1590.34 1486.25 Q1584.62 1486.25 1581.54 1483.57 Q1578.49 1480.88 1578.49 1475.86 Q1578.49 1472.55 1580.38 1470.26 Q1582.28 1467.96 1585.66 1467.18 M1583.95 1459.79 Q1583.95 1462.48 1585.61 1463.98 Q1587.3 1465.49 1590.34 1465.49 Q1593.35 1465.49 1595.04 1463.98 Q1596.75 1462.48 1596.75 1459.79 Q1596.75 1457.11 1595.04 1455.6 Q1593.35 1454.1 1590.34 1454.1 Q1587.3 1454.1 1585.61 1455.6 Q1583.95 1457.11 1583.95 1459.79 Z" fill="#000000" fill-rule="nonzero" fill-opacity="1" /><path clip-path="url(#clip950)" d="M1620.5 1454.1 Q1616.89 1454.1 1615.06 1457.66 Q1613.25 1461.2 1613.25 1468.33 Q1613.25 1475.44 1615.06 1479.01 Q1616.89 1482.55 1620.5 1482.55 Q1624.13 1482.55 1625.94 1479.01 Q1627.77 1475.44 1627.77 1468.33 Q1627.77 1461.2 1625.94 1457.66 Q1624.13 1454.1 1620.5 1454.1 M1620.5 1450.39 Q1626.31 1450.39 1629.36 1455 Q1632.44 1459.58 1632.44 1468.33 Q1632.44 1477.06 1629.36 1481.67 Q1626.31 1486.25 1620.5 1486.25 Q1614.69 1486.25 1611.61 1481.67 Q1608.55 1477.06 1608.55 1468.33 Q1608.55 1459.58 1611.61 1455 Q1614.69 1450.39 1620.5 1450.39 Z" fill="#000000" fill-rule="nonzero" fill-opacity="1" /><path clip-path="url(#clip950)" d="M1938.72 1481.64 L1946.36 1481.64 L1946.36 1455.28 L1938.05 1456.95 L1938.05 1452.69 L1946.31 1451.02 L1950.99 1451.02 L1950.99 1481.64 L1958.62 1481.64 L1958.62 1485.58 L1938.72 1485.58 L1938.72 1481.64 Z" fill="#000000" fill-rule="nonzero" fill-opacity="1" /><path clip-path="url(#clip950)" d="M1978.07 1454.1 Q1974.46 1454.1 1972.63 1457.66 Q1970.82 1461.2 1970.82 1468.33 Q1970.82 1475.44 1972.63 1479.01 Q1974.46 1482.55 1978.07 1482.55 Q1981.7 1482.55 1983.51 1479.01 Q1985.34 1475.44 1985.34 1468.33 Q1985.34 1461.2 1983.51 1457.66 Q1981.7 1454.1 1978.07 1454.1 M1978.07 1450.39 Q1983.88 1450.39 1986.93 1455 Q1990.01 1459.58 1990.01 1468.33 Q1990.01 1477.06 1986.93 1481.67 Q1983.88 1486.25 1978.07 1486.25 Q1972.26 1486.25 1969.18 1481.67 Q1966.12 1477.06 1966.12 1468.33 Q1966.12 1459.58 1969.18 1455 Q1972.26 1450.39 1978.07 1450.39 Z" fill="#000000" fill-rule="nonzero" fill-opacity="1" /><path clip-path="url(#clip950)" d="M2008.23 1454.1 Q2004.62 1454.1 2002.79 1457.66 Q2000.98 1461.2 2000.98 1468.33 Q2000.98 1475.44 2002.79 1479.01 Q2004.62 1482.55 2008.23 1482.55 Q2011.86 1482.55 2013.67 1479.01 Q2015.5 1475.44 2015.5 1468.33 Q2015.5 1461.2 2013.67 1457.66 Q2011.86 1454.1 2008.23 1454.1 M2008.23 1450.39 Q2014.04 1450.39 2017.1 1455 Q2020.17 1459.58 2020.17 1468.33 Q2020.17 1477.06 2017.1 1481.67 Q2014.04 1486.25 2008.23 1486.25 Q2002.42 1486.25 1999.34 1481.67 Q1996.29 1477.06 1996.29 1468.33 Q1996.29 1459.58 1999.34 1455 Q2002.42 1450.39 2008.23 1450.39 Z" fill="#000000" fill-rule="nonzero" fill-opacity="1" /><path clip-path="url(#clip950)" d="M2312.36 1481.64 L2320 1481.64 L2320 1455.28 L2311.69 1456.95 L2311.69 1452.69 L2319.96 1451.02 L2324.63 1451.02 L2324.63 1481.64 L2332.27 1481.64 L2332.27 1485.58 L2312.36 1485.58 L2312.36 1481.64 Z" fill="#000000" fill-rule="nonzero" fill-opacity="1" /><path clip-path="url(#clip950)" d="M2345.74 1481.64 L2362.06 1481.64 L2362.06 1485.58 L2340.12 1485.58 L2340.12 1481.64 Q2342.78 1478.89 2347.36 1474.26 Q2351.97 1469.61 2353.15 1468.27 Q2355.39 1465.74 2356.27 1464.01 Q2357.18 1462.25 2357.18 1460.56 Q2357.18 1457.8 2355.23 1456.07 Q2353.31 1454.33 2350.21 1454.33 Q2348.01 1454.33 2345.56 1455.09 Q2343.13 1455.86 2340.35 1457.41 L2340.35 1452.69 Q2343.17 1451.55 2345.63 1450.97 Q2348.08 1450.39 2350.12 1450.39 Q2355.49 1450.39 2358.68 1453.08 Q2361.88 1455.77 2361.88 1460.26 Q2361.88 1462.39 2361.07 1464.31 Q2360.28 1466.2 2358.17 1468.8 Q2357.59 1469.47 2354.49 1472.69 Q2351.39 1475.88 2345.74 1481.64 Z" fill="#000000" fill-rule="nonzero" fill-opacity="1" /><path clip-path="url(#clip950)" d="M2381.88 1454.1 Q2378.27 1454.1 2376.44 1457.66 Q2374.63 1461.2 2374.63 1468.33 Q2374.63 1475.44 2376.44 1479.01 Q2378.27 1482.55 2381.88 1482.55 Q2385.51 1482.55 2387.32 1479.01 Q2389.14 1475.44 2389.14 1468.33 Q2389.14 1461.2 2387.32 1457.66 Q2385.51 1454.1 2381.88 1454.1 M2381.88 1450.39 Q2387.69 1450.39 2390.74 1455 Q2393.82 1459.58 2393.82 1468.33 Q2393.82 1477.06 2390.74 1481.67 Q2387.69 1486.25 2381.88 1486.25 Q2376.07 1486.25 2372.99 1481.67 Q2369.93 1477.06 2369.93 1468.33 Q2369.93 1459.58 2372.99 1455 Q2376.07 1450.39 2381.88 1450.39 Z" fill="#000000" fill-rule="nonzero" fill-opacity="1" /><path clip-path="url(#clip950)" d="M1230.88 1522.27 L1230.88 1532.4 L1242.94 1532.4 L1242.94 1536.95 L1230.88 1536.95 L1230.88 1556.3 Q1230.88 1560.66 1232.06 1561.9 Q1233.27 1563.14 1236.93 1563.14 L1242.94 1563.14 L1242.94 1568.04 L1236.93 1568.04 Q1230.15 1568.04 1227.57 1565.53 Q1224.99 1562.98 1224.99 1556.3 L1224.99 1536.95 L1220.69 1536.95 L1220.69 1532.4 L1224.99 1532.4 L1224.99 1522.27 L1230.88 1522.27 Z" fill="#000000" fill-rule="nonzero" fill-opacity="1" /><polyline clip-path="url(#clip950)" style="stroke:#000000; stroke-linecap:round; stroke-linejoin:round; stroke-width:4; stroke-opacity:1; fill:none" points="110.881,1423.18 110.881,47.2441 "/>
<polyline clip-path="url(#clip950)" style="stroke:#000000; stroke-linecap:round; stroke-linejoin:round; stroke-width:4; stroke-opacity:1; fill:none" points="110.881,1384.24 129.779,1384.24 "/>
<polyline clip-path="url(#clip950)" style="stroke:#000000; stroke-linecap:round; stroke-linejoin:round; stroke-width:4; stroke-opacity:1; fill:none" points="110.881,971.013 129.779,971.013 "/>
<polyline clip-path="url(#clip950)" style="stroke:#000000; stroke-linecap:round; stroke-linejoin:round; stroke-width:4; stroke-opacity:1; fill:none" points="110.881,557.788 129.779,557.788 "/>
<polyline clip-path="url(#clip950)" style="stroke:#000000; stroke-linecap:round; stroke-linejoin:round; stroke-width:4; stroke-opacity:1; fill:none" points="110.881,144.562 129.779,144.562 "/>
<path clip-path="url(#clip950)" d="M62.9365 1370.04 Q59.3254 1370.04 57.4967 1373.6 Q55.6912 1377.14 55.6912 1384.27 Q55.6912 1391.38 57.4967 1394.94 Q59.3254 1398.49 62.9365 1398.49 Q66.5707 1398.49 68.3763 1394.94 Q70.205 1391.38 70.205 1384.27 Q70.205 1377.14 68.3763 1373.6 Q66.5707 1370.04 62.9365 1370.04 M62.9365 1366.33 Q68.7467 1366.33 71.8022 1370.94 Q74.8809 1375.52 74.8809 1384.27 Q74.8809 1393 71.8022 1397.61 Q68.7467 1402.19 62.9365 1402.19 Q57.1264 1402.19 54.0477 1397.61 Q50.9921 1393 50.9921 1384.27 Q50.9921 1375.52 54.0477 1370.94 Q57.1264 1366.33 62.9365 1366.33 Z" fill="#000000" fill-rule="nonzero" fill-opacity="1" /><path clip-path="url(#clip950)" d="M54.9736 984.358 L62.6124 984.358 L62.6124 957.992 L54.3023 959.659 L54.3023 955.4 L62.5661 953.733 L67.242 953.733 L67.242 984.358 L74.8809 984.358 L74.8809 988.293 L54.9736 988.293 L54.9736 984.358 Z" fill="#000000" fill-rule="nonzero" fill-opacity="1" /><path clip-path="url(#clip950)" d="M58.5615 571.132 L74.8809 571.132 L74.8809 575.068 L52.9366 575.068 L52.9366 571.132 Q55.5986 568.378 60.1819 563.748 Q64.7883 559.095 65.9689 557.753 Q68.2143 555.23 69.0939 553.494 Q69.9967 551.734 69.9967 550.045 Q69.9967 547.29 68.0522 545.554 Q66.1309 543.818 63.0291 543.818 Q60.83 543.818 58.3763 544.582 Q55.9458 545.346 53.168 546.896 L53.168 542.174 Q55.9921 541.04 58.4458 540.461 Q60.8995 539.883 62.9365 539.883 Q68.3068 539.883 71.5013 542.568 Q74.6957 545.253 74.6957 549.744 Q74.6957 551.873 73.8855 553.795 Q73.0985 555.693 70.992 558.285 Q70.4133 558.957 67.3115 562.174 Q64.2096 565.369 58.5615 571.132 Z" fill="#000000" fill-rule="nonzero" fill-opacity="1" /><path clip-path="url(#clip950)" d="M67.7513 143.208 Q71.1078 143.926 72.9827 146.194 Q74.8809 148.463 74.8809 151.796 Q74.8809 156.912 71.3624 159.713 Q67.8439 162.514 61.3624 162.514 Q59.1865 162.514 56.8717 162.074 Q54.5801 161.657 52.1264 160.801 L52.1264 156.287 Q54.0708 157.421 56.3856 158 Q58.7004 158.578 61.2236 158.578 Q65.6217 158.578 67.9133 156.842 Q70.2281 155.106 70.2281 151.796 Q70.2281 148.74 68.0754 147.028 Q65.9457 145.291 62.1263 145.291 L58.0986 145.291 L58.0986 141.449 L62.3115 141.449 Q65.7606 141.449 67.5893 140.083 Q69.418 138.694 69.418 136.102 Q69.418 133.44 67.5198 132.028 Q65.6448 130.592 62.1263 130.592 Q60.205 130.592 58.006 131.009 Q55.8069 131.426 53.168 132.305 L53.168 128.139 Q55.8301 127.398 58.1449 127.028 Q60.4828 126.657 62.543 126.657 Q67.867 126.657 70.9689 129.088 Q74.0707 131.495 74.0707 135.616 Q74.0707 138.486 72.4272 140.477 Q70.7837 142.444 67.7513 143.208 Z" fill="#000000" fill-rule="nonzero" fill-opacity="1" /><polyline clip-path="url(#clip951)" style="stroke:#009af9; stroke-linecap:round; stroke-linejoin:round; stroke-width:4; stroke-opacity:1; fill:none" points="110.881,1384.24 113.125,1375.79 115.369,1353.79 117.613,1322.8 119.857,1286.24 122.101,1246.42 124.346,1204.8 126.59,1162.32 128.834,1119.65 131.078,1077.25 133.322,1035.48 135.566,994.578 137.81,954.766 140.054,916.19 142.299,878.989 144.543,843.262 146.787,809.082 149.031,776.521 151.275,745.595 153.519,716.351 155.763,688.807 158.007,662.959 160.252,638.814 162.496,616.309 164.74,595.361 166.984,575.877 169.228,557.723 171.472,540.772 173.716,524.879 175.96,509.945 178.204,495.907 180.449,482.673 182.693,470.117 184.937,458.152 187.181,446.756 189.425,435.875 191.669,425.453 193.913,415.454 196.157,405.843 198.402,396.583 200.646,387.635 202.89,378.977 205.134,370.589 207.378,362.449 209.622,354.536 211.866,346.836 214.11,339.337 216.354,332.029 218.599,324.897 220.843,317.934 223.087,311.134 225.331,304.492 227.575,298.004 229.819,291.663 232.063,285.467 234.307,279.414 236.552,273.502 238.796,267.728 241.04,262.092 243.284,256.595 245.528,251.233 247.772,246.004 250.016,240.906 252.26,235.936 254.505,231.096 256.749,226.385 258.993,221.808 261.237,217.359 263.481,213.035 265.725,208.833 267.969,204.751 270.213,200.79 272.457,196.948 274.702,193.222 276.946,189.609 279.19,186.107 281.434,182.711 283.678,179.422 285.922,176.237 288.166,173.156 290.41,170.174 292.655,167.288 294.899,164.496 297.143,161.794 299.387,159.181 301.631,156.654 303.875,154.213 306.119,151.853 308.363,149.572 310.607,147.367 312.852,145.236 315.096,143.177 317.34,141.187 319.584,139.267 321.828,137.412 324.072,135.62 326.316,133.89 328.56,132.218 330.805,130.604 333.049,129.045 335.293,127.541 337.537,126.089 339.781,124.687 342.025,123.333 344.269,122.027 346.513,120.765 348.758,119.548 351.002,118.372 353.246,117.238 355.49,116.144 357.734,115.087 359.978,114.068 362.222,113.084 364.466,112.135 366.71,111.219 368.955,110.334 371.199,109.481 373.443,108.658 375.687,107.864 377.931,107.097 380.175,106.358 382.419,105.645 384.663,104.956 386.908,104.292 389.152,103.651 391.396,103.032 393.64,102.436 395.884,101.86 398.128,101.305 400.372,100.77 402.616,100.253 404.86,99.755 407.105,99.2741 409.349,98.8101 411.593,98.3624 413.837,97.9305 416.081,97.5139 418.325,97.1122 420.569,96.7248 422.813,96.3511 425.058,95.9906 427.302,95.6428 429.546,95.3073 431.79,94.9836 434.034,94.6712 436.278,94.3699 438.522,94.0793 440.766,93.799 443.011,93.5288 445.255,93.2682 447.499,93.0169 449.743,92.7744 451.987,92.5405 454.231,92.3148 456.475,92.0971 458.719,91.887 460.963,91.6844 463.208,91.489 465.452,91.3005 467.696,91.1189 469.94,90.9437 472.184,90.7748 474.428,90.6118 476.672,90.4546 478.916,90.3029 481.161,90.1565 483.405,90.0153 485.649,89.8791 487.893,89.7478 490.137,89.6211 492.381,89.4991 494.625,89.3814 496.869,89.2679 499.113,89.1584 501.358,89.0528 503.602,88.9509 505.846,88.8525 508.09,88.7577 510.334,88.6661 512.578,88.5779 514.822,88.4928 517.066,88.4108 519.311,88.3318 521.555,88.2555 523.799,88.182 526.043,88.1111 528.287,88.0426 530.531,87.9765 532.775,87.9128 535.019,87.8513 537.264,87.792 539.508,87.7349 541.752,87.6798 543.996,87.6267 546.24,87.5756 548.484,87.5262 550.728,87.4785 552.972,87.4326 555.216,87.3882 557.461,87.3454 559.705,87.3041 561.949,87.2643 564.193,87.2259 566.437,87.1889 568.681,87.1533 570.925,87.1189 573.169,87.0858 575.414,87.0538 577.658,87.0229 579.902,86.9931 582.146,86.9644 584.39,86.9366 586.634,86.9099 588.878,86.8841 591.122,86.8593 593.367,86.8353 595.611,86.8123 597.855,86.79 600.099,86.7686 602.343,86.7478 604.587,86.7278 606.831,86.7085 609.075,86.6899 611.319,86.6719 613.564,86.6546 615.808,86.6379 618.052,86.6219 620.296,86.6064 622.54,86.5915 624.784,86.5771 627.028,86.5631 629.272,86.5497 631.517,86.5367 633.761,86.5242 636.005,86.5121 638.249,86.5005 640.493,86.4893 642.737,86.4785 644.981,86.4682 647.225,86.4581 649.469,86.4485 651.714,86.4391 653.958,86.4301 656.202,86.4214 658.446,86.413 660.69,86.4049 662.934,86.397 665.178,86.3895 667.422,86.3823 669.667,86.3753 671.911,86.3686 674.155,86.3621 676.399,86.3559 678.643,86.3498 680.887,86.344 683.131,86.3383 685.375,86.3329 687.62,86.3276 689.864,86.3225 692.108,86.3177 694.352,86.313 696.596,86.3085 698.84,86.3042 701.084,86.3 703.328,86.2959 705.572,86.292 707.817,86.2882 710.061,86.2845 712.305,86.281 714.549,86.2776 716.793,86.2743 719.037,86.2712 721.281,86.2682 723.525,86.2653 725.77,86.2625 728.014,86.2597 730.258,86.2571 732.502,86.2545 734.746,86.2521 736.99,86.2497 739.234,86.2474 741.478,86.2452 743.722,86.2431 745.967,86.2411 748.211,86.2391 750.455,86.2373 752.699,86.2354 754.943,86.2337 757.187,86.232 759.431,86.2303 761.675,86.2287 763.92,86.2271 766.164,86.2256 768.408,86.2242 770.652,86.2229 772.896,86.2216 775.14,86.2203 777.384,86.2191 779.628,86.2179 781.873,86.2168 784.117,86.2157 786.361,86.2146 788.605,86.2135 790.849,86.2125 793.093,86.2116 795.337,86.2107 797.581,86.2098 799.825,86.209 802.07,86.2082 804.314,86.2074 806.558,86.2066 808.802,86.2058 811.046,86.2051 813.29,86.2044 815.534,86.2037 817.778,86.2031 820.023,86.2024 822.267,86.2018 824.511,86.2012 826.755,86.2006 828.999,86.2 831.243,86.1995 833.487,86.199 835.731,86.1985 837.975,86.198 840.22,86.1976 842.464,86.1971 844.708,86.1967 846.952,86.1964 849.196,86.196 851.44,86.1957 853.684,86.1954 855.928,86.1951 858.173,86.1947 860.417,86.1944 862.661,86.1941 864.905,86.1938 867.149,86.1935 869.393,86.1932 871.637,86.193 873.881,86.1927 876.126,86.1924 878.37,86.1922 880.614,86.1919 882.858,86.1917 885.102,86.1914 887.346,86.1912 889.59,86.191 891.834,86.1907 894.078,86.1905 896.323,86.1903 898.567,86.1901 900.811,86.1899 903.055,86.1897 905.299,86.1895 907.543,86.1893 909.787,86.1892 912.031,86.189 914.276,86.1888 916.52,86.1887 918.764,86.1885 921.008,86.1884 923.252,86.1882 925.496,86.1881 927.74,86.188 929.984,86.1879 932.228,86.1877 934.473,86.1876 936.717,86.1875 938.961,86.1874 941.205,86.1873 943.449,86.1873 945.693,86.1872 947.937,86.1871 950.181,86.1871 952.426,86.187 954.67,86.1869 956.914,86.1869 959.158,86.1869 961.402,86.1868 963.646,86.1868 965.89,86.1867 968.134,86.1867 970.379,86.1867 972.623,86.1866 974.867,86.1866 977.111,86.1866 979.355,86.1866 981.599,86.1865 983.843,86.1865 986.087,86.1865 988.331,86.1864 990.576,86.1864 992.82,86.1864 995.064,86.1864 997.308,86.1863 999.552,86.1863 1001.8,86.1863 1004.04,86.1863 1006.28,86.1863 1008.53,86.1862 1010.77,86.1862 1013.02,86.1862 1015.26,86.1862 1017.51,86.1862 1019.75,86.1861 1021.99,86.1861 1024.24,86.1861 1026.48,86.1861 1028.73,86.1861 1030.97,86.1861 1033.21,86.1861 1035.46,86.1861 1037.7,86.1861 1039.95,86.1861 1042.19,86.1861 1044.43,86.186 1046.68,86.186 1048.92,86.186 1051.17,86.186 1053.41,86.186 1055.66,86.186 1057.9,86.186 1060.14,86.186 1062.39,86.186 1064.63,86.186 1066.88,86.186 1069.12,86.186 1071.36,86.186 1073.61,86.186 1075.85,86.1859 1078.1,86.1859 1080.34,86.1859 1082.58,86.1859 1084.83,86.1859 1087.07,86.1859 1089.32,86.1859 1091.56,86.1859 1093.81,86.1859 1096.05,86.1859 1098.29,86.1859 1100.54,86.1859 1102.78,86.1859 1105.03,86.1859 1107.27,86.1859 1109.51,86.1859 1111.76,86.1858 1114,86.1858 1116.25,86.1858 1118.49,86.1858 1120.73,86.1858 1122.98,86.1858 1125.22,86.1858 1127.47,86.1858 1129.71,86.1858 1131.96,86.1858 1134.2,86.1858 1136.44,86.1858 1138.69,86.1858 1140.93,86.1858 1143.18,86.1858 1145.42,86.1858 1147.66,86.1858 1149.91,86.1858 1152.15,86.1858 1154.4,86.1858 1156.64,86.1858 1158.88,86.1858 1161.13,86.1857 1163.37,86.1857 1165.62,86.1857 1167.86,86.1857 1170.11,86.1857 1172.35,86.1857 1174.59,86.1857 1176.84,86.1857 1179.08,86.1857 1181.33,86.1857 1183.57,86.1857 1185.81,86.1857 1188.06,86.1857 1190.3,86.1857 1192.55,86.1857 1194.79,86.1857 1197.03,86.1857 1199.28,86.1857 1201.52,86.1857 1203.77,86.1857 1206.01,86.1857 1208.26,86.1857 1210.5,86.1857 1212.74,86.1857 1214.99,86.1857 1217.23,86.1857 1219.48,86.1857 1221.72,86.1857 1223.96,86.1857 1226.21,86.1857 1228.45,86.1857 1230.7,86.1857 1232.94,86.1857 1235.18,86.1857 1237.43,86.1857 1239.67,86.1857 1241.92,86.1857 1244.16,86.1857 1246.41,86.1857 1248.65,86.1857 1250.89,86.1857 1253.14,86.1857 1255.38,86.1857 1257.63,86.1857 1259.87,86.1857 1262.11,86.1857 1264.36,86.1857 1266.6,86.1857 1268.85,86.1857 1271.09,86.1857 1273.33,86.1857 1275.58,86.1857 1277.82,86.1857 1280.07,86.1857 1282.31,86.1857 1284.56,86.1857 1286.8,86.1857 1289.04,86.1857 1291.29,86.1857 1293.53,86.1857 1295.78,86.1857 1298.02,86.1857 1300.26,86.1857 1302.51,86.1857 1304.75,86.1857 1307,86.1857 1309.24,86.1857 1311.48,86.1857 1313.73,86.1857 1315.97,86.1857 1318.22,86.1857 1320.46,86.1857 1322.71,86.1857 1324.95,86.1857 1327.19,86.1857 1329.44,86.1857 1331.68,86.1857 1333.93,86.1857 1336.17,86.1857 1338.41,86.1857 1340.66,86.1857 1342.9,86.1857 1345.15,86.1857 1347.39,86.1857 1349.63,86.1857 1351.88,86.1857 1354.12,86.1857 1356.37,86.1857 1358.61,86.1857 1360.86,86.1857 1363.1,86.1857 1365.34,86.1857 1367.59,86.1857 1369.83,86.1857 1372.08,86.1857 1374.32,86.1857 1376.56,86.1857 1378.81,86.1857 1381.05,86.1857 1383.3,86.1857 1385.54,86.1857 1387.78,86.1857 1390.03,86.1857 1392.27,86.1857 1394.52,86.1857 1396.76,86.1857 1399.01,86.1857 1401.25,86.1857 1403.49,86.1857 1405.74,86.1857 1407.98,86.1857 1410.23,86.1857 1412.47,86.1857 1414.71,86.1858 1416.96,86.1858 1419.2,86.1858 1421.45,86.1858 1423.69,86.1858 1425.93,86.1858 1428.18,86.1858 1430.42,86.1858 1432.67,86.1858 1434.91,86.1858 1437.16,86.1858 1439.4,86.1858 1441.64,86.1858 1443.89,86.1858 1446.13,86.1858 1448.38,86.1858 1450.62,86.1858 1452.86,86.1858 1455.11,86.1858 1457.35,86.1858 1459.6,86.1858 1461.84,86.1858 1464.08,86.1858 1466.33,86.1858 1468.57,86.1858 1470.82,86.1858 1473.06,86.1858 1475.31,86.1858 1477.55,86.1858 1479.79,86.1858 1482.04,86.1858 1484.28,86.1858 1486.53,86.1858 1488.77,86.1858 1491.01,86.1858 1493.26,86.1858 1495.5,86.1858 1497.75,86.1858 1499.99,86.1858 1502.23,86.1858 1504.48,86.1858 1506.72,86.1858 1508.97,86.1858 1511.21,86.1858 1513.46,86.1858 1515.7,86.1858 1517.94,86.1858 1520.19,86.1858 1522.43,86.1858 1524.68,86.1858 1526.92,86.1858 1529.16,86.1858 1531.41,86.1858 1533.65,86.1858 1535.9,86.1858 1538.14,86.1858 1540.38,86.1858 1542.63,86.1858 1544.87,86.1858 1547.12,86.1858 1549.36,86.1858 1551.61,86.1858 1553.85,86.1858 1556.09,86.1858 1558.34,86.1858 1560.58,86.1858 1562.83,86.1858 1565.07,86.1858 1567.31,86.1858 1569.56,86.1858 1571.8,86.1858 1574.05,86.1858 1576.29,86.1858 1578.53,86.1858 1580.78,86.1858 1583.02,86.1858 1585.27,86.1858 1587.51,86.1858 1589.76,86.1858 1592,86.1858 1594.24,86.1858 1596.49,86.1858 1598.73,86.1858 1600.98,86.1858 1603.22,86.1858 1605.46,86.1858 1607.71,86.1858 1609.95,86.1858 1612.2,86.1858 1614.44,86.1858 1616.68,86.1858 1618.93,86.1858 1621.17,86.1858 1623.42,86.1858 1625.66,86.1858 1627.91,86.1858 1630.15,86.1858 1632.39,86.1858 1634.64,86.1858 1636.88,86.1858 1639.13,86.1858 1641.37,86.1858 1643.61,86.1858 1645.86,86.1858 1648.1,86.1858 1650.35,86.1858 1652.59,86.1858 1654.83,86.1858 1657.08,86.1858 1659.32,86.1858 1661.57,86.1858 1663.81,86.1858 1666.06,86.1858 1668.3,86.1858 1670.54,86.1858 1672.79,86.1858 1675.03,86.1858 1677.28,86.1858 1679.52,86.1858 1681.76,86.1858 1684.01,86.1858 1686.25,86.1858 1688.5,86.1858 1690.74,86.1858 1692.98,86.1858 1695.23,86.1858 1697.47,86.1858 1699.72,86.1858 1701.96,86.1858 1704.21,86.1858 1706.45,86.1858 1708.69,86.1858 1710.94,86.1858 1713.18,86.1858 1715.43,86.1858 1717.67,86.1858 1719.91,86.1858 1722.16,86.1858 1724.4,86.1858 1726.65,86.1858 1728.89,86.1858 1731.13,86.1858 1733.38,86.1858 1735.62,86.1858 1737.87,86.1858 1740.11,86.1858 1742.36,86.1858 1744.6,86.1858 1746.84,86.1858 1749.09,86.1858 1751.33,86.1858 1753.58,86.1858 1755.82,86.1858 1758.06,86.1858 1760.31,86.1858 1762.55,86.1858 1764.8,86.1858 1767.04,86.1858 1769.28,86.1858 1771.53,86.1858 1773.77,86.1858 1776.02,86.1858 1778.26,86.1858 1780.51,86.1858 1782.75,86.1858 1784.99,86.1858 1787.24,86.1858 1789.48,86.1858 1791.73,86.1858 1793.97,86.1858 1796.21,86.1858 1798.46,86.1858 1800.7,86.1858 1802.95,86.1858 1805.19,86.1858 1807.43,86.1858 1809.68,86.1858 1811.92,86.1858 1814.17,86.1858 1816.41,86.1858 1818.66,86.1858 1820.9,86.1858 1823.14,86.1858 1825.39,86.1858 1827.63,86.1858 1829.88,86.1858 1832.12,86.1858 1834.36,86.1858 1836.61,86.1858 1838.85,86.1858 1841.1,86.1858 1843.34,86.1858 1845.58,86.1858 1847.83,86.1858 1850.07,86.1858 1852.32,86.1858 1854.56,86.1858 1856.81,86.1858 1859.05,86.1858 1861.29,86.1858 1863.54,86.1858 1865.78,86.1858 1868.03,86.1858 1870.27,86.1858 1872.51,86.1858 1874.76,86.1858 1877,86.1858 1879.25,86.1858 1881.49,86.1858 1883.74,86.1858 1885.98,86.1858 1888.22,86.1858 1890.47,86.1858 1892.71,86.1858 1894.96,86.1858 1897.2,86.1858 1899.44,86.1858 1901.69,86.1858 1903.93,86.1858 1906.18,86.1858 1908.42,86.1858 1910.66,86.1858 1912.91,86.1858 1915.15,86.1858 1917.4,86.1858 1919.64,86.1858 1921.89,86.1858 1924.13,86.1858 1926.37,86.1858 1928.62,86.1858 1930.86,86.1858 1933.11,86.1858 1935.35,86.1858 1937.59,86.1858 1939.84,86.1858 1942.08,86.1858 1944.33,86.1858 1946.57,86.1858 1948.81,86.1858 1951.06,86.1858 1953.3,86.1858 1955.55,86.1858 1957.79,86.1858 1960.04,86.1858 1962.28,86.1858 1964.52,86.1858 1966.77,86.1858 1969.01,86.1858 1971.26,86.1858 1973.5,86.1858 1975.74,86.1858 1977.99,86.1858 1980.23,86.1858 1982.48,86.1858 1984.72,86.1858 1986.96,86.1858 1989.21,86.1858 1991.45,86.1858 1993.7,86.1858 1995.94,86.1858 1998.19,86.1858 2000.43,86.1858 2002.67,86.1858 2004.92,86.1858 2007.16,86.1858 2009.41,86.1858 2011.65,86.1858 2013.89,86.1858 2016.14,86.1858 2018.38,86.1858 2020.63,86.1858 2022.87,86.1858 2025.11,86.1858 2027.36,86.1858 2029.6,86.1858 2031.85,86.1858 2034.09,86.1858 2036.34,86.1858 2038.58,86.1858 2040.82,86.1858 2043.07,86.1858 2045.31,86.1858 2047.56,86.1858 2049.8,86.1858 2052.04,86.1858 2054.29,86.1858 2056.53,86.1858 2058.78,86.1858 2061.02,86.1858 2063.26,86.1858 2065.51,86.1858 2067.75,86.1858 2070,86.1858 2072.24,86.1858 2074.49,86.1858 2076.73,86.1858 2078.97,86.1858 2081.22,86.1858 2083.46,86.1858 2085.71,86.1858 2087.95,86.1858 2090.19,86.1858 2092.44,86.1858 2094.68,86.1858 2096.93,86.1858 2099.17,86.1858 2101.41,86.1858 2103.66,86.1858 2105.9,86.1858 2108.15,86.1858 2110.39,86.1858 2112.64,86.1858 2114.88,86.1858 2117.12,86.1858 2119.37,86.1858 2121.61,86.1858 2123.86,86.1858 2126.1,86.1858 2128.34,86.1858 2130.59,86.1858 2132.83,86.1858 2135.08,86.1858 2137.32,86.1858 2139.56,86.1858 2141.81,86.1858 2144.05,86.1858 2146.3,86.1858 2148.54,86.1858 2150.79,86.1858 2153.03,86.1858 2155.27,86.1858 2157.52,86.1858 2159.76,86.1858 2162.01,86.1858 2164.25,86.1858 2166.49,86.1858 2168.74,86.1858 2170.98,86.1858 2173.23,86.1858 2175.47,86.1858 2177.71,86.1858 2179.96,86.1858 2182.2,86.1858 2184.45,86.1858 2186.69,86.1858 2188.94,86.1858 2191.18,86.1858 2193.42,86.1858 2195.67,86.1858 2197.91,86.1858 2200.16,86.1858 2202.4,86.1858 2204.64,86.1858 2206.89,86.1858 2209.13,86.1858 2211.38,86.1858 2213.62,86.1858 2215.86,86.1858 2218.11,86.1858 2220.35,86.1858 2222.6,86.1858 2224.84,86.1858 2227.09,86.1858 2229.33,86.1858 2231.57,86.1858 2233.82,86.1858 2236.06,86.1858 2238.31,86.1858 2240.55,86.1858 2242.79,86.1858 2245.04,86.1858 2247.28,86.1858 2249.53,86.1858 2251.77,86.1858 2254.01,86.1858 2256.26,86.1858 2258.5,86.1858 2260.75,86.1858 2262.99,86.1858 2265.24,86.1858 2267.48,86.1858 2269.72,86.1858 2271.97,86.1858 2274.21,86.1858 2276.46,86.1858 2278.7,86.1858 2280.94,86.1858 2283.19,86.1858 2285.43,86.1858 2287.68,86.1858 2289.92,86.1858 2292.16,86.1858 2294.41,86.1858 2296.65,86.1858 2298.9,86.1858 2301.14,86.1858 2303.39,86.1858 2305.63,86.1858 2307.87,86.1858 2310.12,86.1858 2312.36,86.1858 2314.61,86.1858 2316.85,86.1858 2319.09,86.1858 2321.34,86.1858 2323.58,86.1858 2325.83,86.1858 2328.07,86.1858 2330.31,86.1858 2332.56,86.1858 2334.8,86.1858 2337.05,86.1858 2339.29,86.1858 2341.54,86.1858 2343.78,86.1858 2346.02,86.1858 2348.27,86.1858 2350.51,86.1858 2352.76,86.1858 "/>
<polyline clip-path="url(#clip951)" style="stroke:#e26f46; stroke-linecap:round; stroke-linejoin:round; stroke-width:4; stroke-opacity:1; fill:none" points="110.881,1384.24 113.125,1250.61 115.369,1158.01 117.613,1099.16 119.857,1063.84 122.101,1043.62 124.346,1033.08 126.59,1029.03 128.834,1029.58 131.078,1033.47 133.322,1039.81 135.566,1048.04 137.81,1057.74 140.054,1068.66 142.299,1080.53 144.543,1093.17 146.787,1106.37 149.031,1119.91 151.275,1133.77 153.519,1147.81 155.763,1161.99 158.007,1176.21 160.252,1190.12 162.496,1203.51 164.74,1216.14 166.984,1227.75 169.228,1238.29 171.472,1247.77 173.716,1256.32 175.96,1263.99 178.204,1270.75 180.449,1276.7 182.693,1282.1 184.937,1287.09 187.181,1291.58 189.425,1295.64 191.669,1299.33 193.913,1302.68 196.157,1305.7 198.402,1308.46 200.646,1310.99 202.89,1313.32 205.134,1315.46 207.378,1317.44 209.622,1319.28 211.866,1321 214.11,1322.61 216.354,1324.13 218.599,1325.58 220.843,1326.96 223.087,1328.3 225.331,1329.58 227.575,1330.83 229.819,1332.06 232.063,1333.26 234.307,1334.44 236.552,1335.6 238.796,1336.75 241.04,1337.89 243.284,1339.01 245.528,1340.12 247.772,1341.23 250.016,1342.33 252.26,1343.43 254.505,1344.53 256.749,1345.61 258.993,1346.67 261.237,1347.71 263.481,1348.74 265.725,1349.76 267.969,1350.77 270.213,1351.76 272.457,1352.73 274.702,1353.68 276.946,1354.61 279.19,1355.53 281.434,1356.43 283.678,1357.31 285.922,1358.17 288.166,1359 290.41,1359.81 292.655,1360.6 294.899,1361.37 297.143,1362.12 299.387,1362.86 301.631,1363.56 303.875,1364.25 306.119,1364.92 308.363,1365.56 310.607,1366.19 312.852,1366.8 315.096,1367.4 317.34,1367.97 319.584,1368.52 321.828,1369.06 324.072,1369.58 326.316,1370.08 328.56,1370.57 330.805,1371.04 333.049,1371.49 335.293,1371.93 337.537,1372.36 339.781,1372.77 342.025,1373.17 344.269,1373.55 346.513,1373.92 348.758,1374.28 351.002,1374.63 353.246,1374.96 355.49,1375.29 357.734,1375.6 359.978,1375.9 362.222,1376.19 364.466,1376.47 366.71,1376.75 368.955,1377.01 371.199,1377.26 373.443,1377.51 375.687,1377.74 377.931,1377.97 380.175,1378.19 382.419,1378.4 384.663,1378.61 386.908,1378.81 389.152,1379 391.396,1379.18 393.64,1379.36 395.884,1379.53 398.128,1379.7 400.372,1379.86 402.616,1380.01 404.86,1380.16 407.105,1380.31 409.349,1380.44 411.593,1380.58 413.837,1380.71 416.081,1380.83 418.325,1380.95 420.569,1381.07 422.813,1381.18 425.058,1381.29 427.302,1381.39 429.546,1381.49 431.79,1381.59 434.034,1381.69 436.278,1381.78 438.522,1381.86 440.766,1381.95 443.011,1382.03 445.255,1382.11 447.499,1382.18 449.743,1382.25 451.987,1382.32 454.231,1382.39 456.475,1382.46 458.719,1382.52 460.963,1382.58 463.208,1382.64 465.452,1382.7 467.696,1382.75 469.94,1382.81 472.184,1382.86 474.428,1382.9 476.672,1382.95 478.916,1383 481.161,1383.04 483.405,1383.08 485.649,1383.13 487.893,1383.17 490.137,1383.2 492.381,1383.24 494.625,1383.28 496.869,1383.31 499.113,1383.34 501.358,1383.37 503.602,1383.4 505.846,1383.43 508.09,1383.46 510.334,1383.49 512.578,1383.52 514.822,1383.54 517.066,1383.57 519.311,1383.59 521.555,1383.61 523.799,1383.64 526.043,1383.66 528.287,1383.68 530.531,1383.7 532.775,1383.72 535.019,1383.74 537.264,1383.75 539.508,1383.77 541.752,1383.79 543.996,1383.8 546.24,1383.82 548.484,1383.83 550.728,1383.85 552.972,1383.86 555.216,1383.88 557.461,1383.89 559.705,1383.9 561.949,1383.91 564.193,1383.92 566.437,1383.94 568.681,1383.95 570.925,1383.96 573.169,1383.97 575.414,1383.98 577.658,1383.99 579.902,1383.99 582.146,1384 584.39,1384.01 586.634,1384.02 588.878,1384.03 591.122,1384.04 593.367,1384.04 595.611,1384.05 597.855,1384.06 600.099,1384.06 602.343,1384.07 604.587,1384.07 606.831,1384.08 609.075,1384.09 611.319,1384.09 613.564,1384.1 615.808,1384.1 618.052,1384.11 620.296,1384.11 622.54,1384.12 624.784,1384.12 627.028,1384.12 629.272,1384.13 631.517,1384.13 633.761,1384.14 636.005,1384.14 638.249,1384.14 640.493,1384.15 642.737,1384.15 644.981,1384.15 647.225,1384.16 649.469,1384.16 651.714,1384.16 653.958,1384.16 656.202,1384.17 658.446,1384.17 660.69,1384.17 662.934,1384.17 665.178,1384.18 667.422,1384.18 669.667,1384.18 671.911,1384.18 674.155,1384.18 676.399,1384.19 678.643,1384.19 680.887,1384.19 683.131,1384.19 685.375,1384.19 687.62,1384.2 689.864,1384.2 692.108,1384.2 694.352,1384.2 696.596,1384.2 698.84,1384.2 701.084,1384.2 703.328,1384.2 705.572,1384.21 707.817,1384.21 710.061,1384.21 712.305,1384.21 714.549,1384.21 716.793,1384.21 719.037,1384.21 721.281,1384.21 723.525,1384.21 725.77,1384.21 728.014,1384.22 730.258,1384.22 732.502,1384.22 734.746,1384.22 736.99,1384.22 739.234,1384.22 741.478,1384.22 743.722,1384.22 745.967,1384.22 748.211,1384.22 750.455,1384.22 752.699,1384.22 754.943,1384.22 757.187,1384.22 759.431,1384.22 761.675,1384.23 763.92,1384.23 766.164,1384.23 768.408,1384.23 770.652,1384.23 772.896,1384.23 775.14,1384.23 777.384,1384.23 779.628,1384.23 781.873,1384.23 784.117,1384.23 786.361,1384.23 788.605,1384.23 790.849,1384.23 793.093,1384.23 795.337,1384.23 797.581,1384.23 799.825,1384.23 802.07,1384.23 804.314,1384.23 806.558,1384.23 808.802,1384.23 811.046,1384.23 813.29,1384.23 815.534,1384.23 817.778,1384.23 820.023,1384.23 822.267,1384.23 824.511,1384.23 826.755,1384.23 828.999,1384.23 831.243,1384.23 833.487,1384.23 835.731,1384.23 837.975,1384.23 840.22,1384.23 842.464,1384.23 844.708,1384.23 846.952,1384.24 849.196,1384.24 851.44,1384.24 853.684,1384.24 855.928,1384.24 858.173,1384.24 860.417,1384.24 862.661,1384.24 864.905,1384.24 867.149,1384.24 869.393,1384.24 871.637,1384.24 873.881,1384.24 876.126,1384.24 878.37,1384.24 880.614,1384.24 882.858,1384.24 885.102,1384.24 887.346,1384.24 889.59,1384.24 891.834,1384.24 894.078,1384.24 896.323,1384.24 898.567,1384.24 900.811,1384.24 903.055,1384.24 905.299,1384.24 907.543,1384.24 909.787,1384.24 912.031,1384.24 914.276,1384.24 916.52,1384.24 918.764,1384.24 921.008,1384.24 923.252,1384.24 925.496,1384.24 927.74,1384.24 929.984,1384.24 932.228,1384.24 934.473,1384.24 936.717,1384.24 938.961,1384.24 941.205,1384.24 943.449,1384.24 945.693,1384.24 947.937,1384.24 950.181,1384.24 952.426,1384.24 954.67,1384.24 956.914,1384.24 959.158,1384.24 961.402,1384.24 963.646,1384.24 965.89,1384.24 968.134,1384.24 970.379,1384.24 972.623,1384.24 974.867,1384.24 977.111,1384.24 979.355,1384.24 981.599,1384.24 983.843,1384.24 986.087,1384.24 988.331,1384.24 990.576,1384.24 992.82,1384.24 995.064,1384.24 997.308,1384.24 999.552,1384.24 1001.8,1384.24 1004.04,1384.24 1006.28,1384.24 1008.53,1384.24 1010.77,1384.24 1013.02,1384.24 1015.26,1384.24 1017.51,1384.24 1019.75,1384.24 1021.99,1384.24 1024.24,1384.24 1026.48,1384.24 1028.73,1384.24 1030.97,1384.24 1033.21,1384.24 1035.46,1384.24 1037.7,1384.24 1039.95,1384.24 1042.19,1384.24 1044.43,1384.24 1046.68,1384.24 1048.92,1384.24 1051.17,1384.24 1053.41,1384.24 1055.66,1384.24 1057.9,1384.24 1060.14,1384.24 1062.39,1384.24 1064.63,1384.24 1066.88,1384.24 1069.12,1384.24 1071.36,1384.24 1073.61,1384.24 1075.85,1384.24 1078.1,1384.24 1080.34,1384.24 1082.58,1384.24 1084.83,1384.24 1087.07,1384.24 1089.32,1384.24 1091.56,1384.24 1093.81,1384.24 1096.05,1384.24 1098.29,1384.24 1100.54,1384.24 1102.78,1384.24 1105.03,1384.24 1107.27,1384.24 1109.51,1384.24 1111.76,1384.24 1114,1384.24 1116.25,1384.24 1118.49,1384.24 1120.73,1384.24 1122.98,1384.24 1125.22,1384.24 1127.47,1384.24 1129.71,1384.24 1131.96,1384.24 1134.2,1384.24 1136.44,1384.24 1138.69,1384.24 1140.93,1384.24 1143.18,1384.24 1145.42,1384.24 1147.66,1384.24 1149.91,1384.24 1152.15,1384.24 1154.4,1384.24 1156.64,1384.24 1158.88,1384.24 1161.13,1384.24 1163.37,1384.24 1165.62,1384.24 1167.86,1384.24 1170.11,1384.24 1172.35,1384.24 1174.59,1384.24 1176.84,1384.24 1179.08,1384.24 1181.33,1384.24 1183.57,1384.24 1185.81,1384.24 1188.06,1384.24 1190.3,1384.24 1192.55,1384.24 1194.79,1384.24 1197.03,1384.24 1199.28,1384.24 1201.52,1384.24 1203.77,1384.24 1206.01,1384.24 1208.26,1384.24 1210.5,1384.24 1212.74,1384.24 1214.99,1384.24 1217.23,1384.24 1219.48,1384.24 1221.72,1384.24 1223.96,1384.24 1226.21,1384.24 1228.45,1384.24 1230.7,1384.24 1232.94,1384.24 1235.18,1384.24 1237.43,1384.24 1239.67,1384.24 1241.92,1384.24 1244.16,1384.24 1246.41,1384.24 1248.65,1384.24 1250.89,1384.24 1253.14,1384.24 1255.38,1384.24 1257.63,1384.24 1259.87,1384.24 1262.11,1384.24 1264.36,1384.24 1266.6,1384.24 1268.85,1384.24 1271.09,1384.24 1273.33,1384.24 1275.58,1384.24 1277.82,1384.24 1280.07,1384.24 1282.31,1384.24 1284.56,1384.24 1286.8,1384.24 1289.04,1384.24 1291.29,1384.24 1293.53,1384.24 1295.78,1384.24 1298.02,1384.24 1300.26,1384.24 1302.51,1384.24 1304.75,1384.24 1307,1384.24 1309.24,1384.24 1311.48,1384.24 1313.73,1384.24 1315.97,1384.24 1318.22,1384.24 1320.46,1384.24 1322.71,1384.24 1324.95,1384.24 1327.19,1384.24 1329.44,1384.24 1331.68,1384.24 1333.93,1384.24 1336.17,1384.24 1338.41,1384.24 1340.66,1384.24 1342.9,1384.24 1345.15,1384.24 1347.39,1384.24 1349.63,1384.24 1351.88,1384.24 1354.12,1384.24 1356.37,1384.24 1358.61,1384.24 1360.86,1384.24 1363.1,1384.24 1365.34,1384.24 1367.59,1384.24 1369.83,1384.24 1372.08,1384.24 1374.32,1384.24 1376.56,1384.24 1378.81,1384.24 1381.05,1384.24 1383.3,1384.24 1385.54,1384.24 1387.78,1384.24 1390.03,1384.24 1392.27,1384.24 1394.52,1384.24 1396.76,1384.24 1399.01,1384.24 1401.25,1384.24 1403.49,1384.24 1405.74,1384.24 1407.98,1384.24 1410.23,1384.24 1412.47,1384.24 1414.71,1384.24 1416.96,1384.24 1419.2,1384.24 1421.45,1384.24 1423.69,1384.24 1425.93,1384.24 1428.18,1384.24 1430.42,1384.24 1432.67,1384.24 1434.91,1384.24 1437.16,1384.24 1439.4,1384.24 1441.64,1384.24 1443.89,1384.24 1446.13,1384.24 1448.38,1384.24 1450.62,1384.24 1452.86,1384.24 1455.11,1384.24 1457.35,1384.24 1459.6,1384.24 1461.84,1384.24 1464.08,1384.24 1466.33,1384.24 1468.57,1384.24 1470.82,1384.24 1473.06,1384.24 1475.31,1384.24 1477.55,1384.24 1479.79,1384.24 1482.04,1384.24 1484.28,1384.24 1486.53,1384.24 1488.77,1384.24 1491.01,1384.24 1493.26,1384.24 1495.5,1384.24 1497.75,1384.24 1499.99,1384.24 1502.23,1384.24 1504.48,1384.24 1506.72,1384.24 1508.97,1384.24 1511.21,1384.24 1513.46,1384.24 1515.7,1384.24 1517.94,1384.24 1520.19,1384.24 1522.43,1384.24 1524.68,1384.24 1526.92,1384.24 1529.16,1384.24 1531.41,1384.24 1533.65,1384.24 1535.9,1384.24 1538.14,1384.24 1540.38,1384.24 1542.63,1384.24 1544.87,1384.24 1547.12,1384.24 1549.36,1384.24 1551.61,1384.24 1553.85,1384.24 1556.09,1384.24 1558.34,1384.24 1560.58,1384.24 1562.83,1384.24 1565.07,1384.24 1567.31,1384.24 1569.56,1384.24 1571.8,1384.24 1574.05,1384.24 1576.29,1384.24 1578.53,1384.24 1580.78,1384.24 1583.02,1384.24 1585.27,1384.24 1587.51,1384.24 1589.76,1384.24 1592,1384.24 1594.24,1384.24 1596.49,1384.24 1598.73,1384.24 1600.98,1384.24 1603.22,1384.24 1605.46,1384.24 1607.71,1384.24 1609.95,1384.24 1612.2,1384.24 1614.44,1384.24 1616.68,1384.24 1618.93,1384.24 1621.17,1384.24 1623.42,1384.24 1625.66,1384.24 1627.91,1384.24 1630.15,1384.24 1632.39,1384.24 1634.64,1384.24 1636.88,1384.24 1639.13,1384.24 1641.37,1384.24 1643.61,1384.24 1645.86,1384.24 1648.1,1384.24 1650.35,1384.24 1652.59,1384.24 1654.83,1384.24 1657.08,1384.24 1659.32,1384.24 1661.57,1384.24 1663.81,1384.24 1666.06,1384.24 1668.3,1384.24 1670.54,1384.24 1672.79,1384.24 1675.03,1384.24 1677.28,1384.24 1679.52,1384.24 1681.76,1384.24 1684.01,1384.24 1686.25,1384.24 1688.5,1384.24 1690.74,1384.24 1692.98,1384.24 1695.23,1384.24 1697.47,1384.24 1699.72,1384.24 1701.96,1384.24 1704.21,1384.24 1706.45,1384.24 1708.69,1384.24 1710.94,1384.24 1713.18,1384.24 1715.43,1384.24 1717.67,1384.24 1719.91,1384.24 1722.16,1384.24 1724.4,1384.24 1726.65,1384.24 1728.89,1384.24 1731.13,1384.24 1733.38,1384.24 1735.62,1384.24 1737.87,1384.24 1740.11,1384.24 1742.36,1384.24 1744.6,1384.24 1746.84,1384.24 1749.09,1384.24 1751.33,1384.24 1753.58,1384.24 1755.82,1384.24 1758.06,1384.24 1760.31,1384.24 1762.55,1384.24 1764.8,1384.24 1767.04,1384.24 1769.28,1384.24 1771.53,1384.24 1773.77,1384.24 1776.02,1384.24 1778.26,1384.24 1780.51,1384.24 1782.75,1384.24 1784.99,1384.24 1787.24,1384.24 1789.48,1384.24 1791.73,1384.24 1793.97,1384.24 1796.21,1384.24 1798.46,1384.24 1800.7,1384.24 1802.95,1384.24 1805.19,1384.24 1807.43,1384.24 1809.68,1384.24 1811.92,1384.24 1814.17,1384.24 1816.41,1384.24 1818.66,1384.24 1820.9,1384.24 1823.14,1384.24 1825.39,1384.24 1827.63,1384.24 1829.88,1384.24 1832.12,1384.24 1834.36,1384.24 1836.61,1384.24 1838.85,1384.24 1841.1,1384.24 1843.34,1384.24 1845.58,1384.24 1847.83,1384.24 1850.07,1384.24 1852.32,1384.24 1854.56,1384.24 1856.81,1384.24 1859.05,1384.24 1861.29,1384.24 1863.54,1384.24 1865.78,1384.24 1868.03,1384.24 1870.27,1384.24 1872.51,1384.24 1874.76,1384.24 1877,1384.24 1879.25,1384.24 1881.49,1384.24 1883.74,1384.24 1885.98,1384.24 1888.22,1384.24 1890.47,1384.24 1892.71,1384.24 1894.96,1384.24 1897.2,1384.24 1899.44,1384.24 1901.69,1384.24 1903.93,1384.24 1906.18,1384.24 1908.42,1384.24 1910.66,1384.24 1912.91,1384.24 1915.15,1384.24 1917.4,1384.24 1919.64,1384.24 1921.89,1384.24 1924.13,1384.24 1926.37,1384.24 1928.62,1384.24 1930.86,1384.24 1933.11,1384.24 1935.35,1384.24 1937.59,1384.24 1939.84,1384.24 1942.08,1384.24 1944.33,1384.24 1946.57,1384.24 1948.81,1384.24 1951.06,1384.24 1953.3,1384.24 1955.55,1384.24 1957.79,1384.24 1960.04,1384.24 1962.28,1384.24 1964.52,1384.24 1966.77,1384.24 1969.01,1384.24 1971.26,1384.24 1973.5,1384.24 1975.74,1384.24 1977.99,1384.24 1980.23,1384.24 1982.48,1384.24 1984.72,1384.24 1986.96,1384.24 1989.21,1384.24 1991.45,1384.24 1993.7,1384.24 1995.94,1384.24 1998.19,1384.24 2000.43,1384.24 2002.67,1384.24 2004.92,1384.24 2007.16,1384.24 2009.41,1384.24 2011.65,1384.24 2013.89,1384.24 2016.14,1384.24 2018.38,1384.24 2020.63,1384.24 2022.87,1384.24 2025.11,1384.24 2027.36,1384.24 2029.6,1384.24 2031.85,1384.24 2034.09,1384.24 2036.34,1384.24 2038.58,1384.24 2040.82,1384.24 2043.07,1384.24 2045.31,1384.24 2047.56,1384.24 2049.8,1384.24 2052.04,1384.24 2054.29,1384.24 2056.53,1384.24 2058.78,1384.24 2061.02,1384.24 2063.26,1384.24 2065.51,1384.24 2067.75,1384.24 2070,1384.24 2072.24,1384.24 2074.49,1384.24 2076.73,1384.24 2078.97,1384.24 2081.22,1384.24 2083.46,1384.24 2085.71,1384.24 2087.95,1384.24 2090.19,1384.24 2092.44,1384.24 2094.68,1384.24 2096.93,1384.24 2099.17,1384.24 2101.41,1384.24 2103.66,1384.24 2105.9,1384.24 2108.15,1384.24 2110.39,1384.24 2112.64,1384.24 2114.88,1384.24 2117.12,1384.24 2119.37,1384.24 2121.61,1384.24 2123.86,1384.24 2126.1,1384.24 2128.34,1384.24 2130.59,1384.24 2132.83,1384.24 2135.08,1384.24 2137.32,1384.24 2139.56,1384.24 2141.81,1384.24 2144.05,1384.24 2146.3,1384.24 2148.54,1384.24 2150.79,1384.24 2153.03,1384.24 2155.27,1384.24 2157.52,1384.24 2159.76,1384.24 2162.01,1384.24 2164.25,1384.24 2166.49,1384.24 2168.74,1384.24 2170.98,1384.24 2173.23,1384.24 2175.47,1384.24 2177.71,1384.24 2179.96,1384.24 2182.2,1384.24 2184.45,1384.24 2186.69,1384.24 2188.94,1384.24 2191.18,1384.24 2193.42,1384.24 2195.67,1384.24 2197.91,1384.24 2200.16,1384.24 2202.4,1384.24 2204.64,1384.24 2206.89,1384.24 2209.13,1384.24 2211.38,1384.24 2213.62,1384.24 2215.86,1384.24 2218.11,1384.24 2220.35,1384.24 2222.6,1384.24 2224.84,1384.24 2227.09,1384.24 2229.33,1384.24 2231.57,1384.24 2233.82,1384.24 2236.06,1384.24 2238.31,1384.24 2240.55,1384.24 2242.79,1384.24 2245.04,1384.24 2247.28,1384.24 2249.53,1384.24 2251.77,1384.24 2254.01,1384.24 2256.26,1384.24 2258.5,1384.24 2260.75,1384.24 2262.99,1384.24 2265.24,1384.24 2267.48,1384.24 2269.72,1384.24 2271.97,1384.24 2274.21,1384.24 2276.46,1384.24 2278.7,1384.24 2280.94,1384.24 2283.19,1384.24 2285.43,1384.24 2287.68,1384.24 2289.92,1384.24 2292.16,1384.24 2294.41,1384.24 2296.65,1384.24 2298.9,1384.24 2301.14,1384.24 2303.39,1384.24 2305.63,1384.24 2307.87,1384.24 2310.12,1384.24 2312.36,1384.24 2314.61,1384.24 2316.85,1384.24 2319.09,1384.24 2321.34,1384.24 2323.58,1384.24 2325.83,1384.24 2328.07,1384.24 2330.31,1384.24 2332.56,1384.24 2334.8,1384.24 2337.05,1384.24 2339.29,1384.24 2341.54,1384.24 2343.78,1384.24 2346.02,1384.24 2348.27,1384.24 2350.51,1384.24 2352.76,1384.24 "/>
<path clip-path="url(#clip950)" d="M185.61 248.629 L477.343 248.629 L477.343 93.1086 L185.61 93.1086  Z" fill="#ffffff" fill-rule="evenodd" fill-opacity="1"/>
<polyline clip-path="url(#clip950)" style="stroke:#000000; stroke-linecap:round; stroke-linejoin:round; stroke-width:4; stroke-opacity:1; fill:none" points="185.61,248.629 477.343,248.629 477.343,93.1086 185.61,93.1086 185.61,248.629 "/>
<polyline clip-path="url(#clip950)" style="stroke:#009af9; stroke-linecap:round; stroke-linejoin:round; stroke-width:4; stroke-opacity:1; fill:none" points="210.52,144.949 359.978,144.949 "/>
<path clip-path="url(#clip950)" d="M404.147 145.794 L389.402 145.794 Q389.749 152.715 391.346 155.655 Q393.337 159.266 396.786 159.266 Q400.258 159.266 402.179 155.631 Q403.869 152.437 404.147 145.794 M404.078 141.858 Q403.429 135.284 402.179 132.97 Q400.189 129.312 396.786 129.312 Q393.244 129.312 391.369 132.923 Q389.888 135.84 389.448 141.858 L404.078 141.858 M396.786 125.84 Q402.341 125.84 405.513 130.747 Q408.684 135.632 408.684 144.289 Q408.684 152.923 405.513 157.83 Q402.341 162.761 396.786 162.761 Q391.207 162.761 388.059 157.83 Q384.888 152.923 384.888 144.289 Q384.888 135.632 388.059 130.747 Q391.207 125.84 396.786 125.84 Z" fill="#000000" fill-rule="nonzero" fill-opacity="1" /><polyline clip-path="url(#clip950)" style="stroke:#e26f46; stroke-linecap:round; stroke-linejoin:round; stroke-width:4; stroke-opacity:1; fill:none" points="210.52,196.789 359.978,196.789 "/>
<path clip-path="url(#clip950)" d="M404.147 197.634 L389.402 197.634 Q389.749 204.555 391.346 207.495 Q393.337 211.106 396.786 211.106 Q400.258 211.106 402.179 207.471 Q403.869 204.277 404.147 197.634 M404.078 193.698 Q403.429 187.124 402.179 184.81 Q400.189 181.152 396.786 181.152 Q393.244 181.152 391.369 184.763 Q389.888 187.68 389.448 193.698 L404.078 193.698 M396.786 177.68 Q402.341 177.68 405.513 182.587 Q408.684 187.472 408.684 196.129 Q408.684 204.763 405.513 209.67 Q402.341 214.601 396.786 214.601 Q391.207 214.601 388.059 209.67 Q384.888 204.763 384.888 196.129 Q384.888 187.472 388.059 182.587 Q391.207 177.68 396.786 177.68 Z" fill="#000000" fill-rule="nonzero" fill-opacity="1" /><path clip-path="url(#clip950)" d="M416.207 218.05 L430.05 218.05 L430.05 221.476 L416.207 221.476 L416.207 218.05 Z" fill="#000000" fill-rule="nonzero" fill-opacity="1" /><path clip-path="url(#clip950)" d="M443.661 180.782 L443.661 188.143 L452.434 188.143 L452.434 191.453 L443.661 191.453 L443.661 205.527 Q443.661 208.698 444.517 209.601 Q445.397 210.504 448.059 210.504 L452.434 210.504 L452.434 214.069 L448.059 214.069 Q443.128 214.069 441.253 212.24 Q439.378 210.388 439.378 205.527 L439.378 191.453 L436.253 191.453 L436.253 188.143 L439.378 188.143 L439.378 180.782 L443.661 180.782 Z" fill="#000000" fill-rule="nonzero" fill-opacity="1" /></svg>
