<?xml version="1.0" encoding="utf-8"?>
<svg xmlns="http://www.w3.org/2000/svg" xmlns:xlink="http://www.w3.org/1999/xlink" width="600" height="400" viewBox="0 0 2400 1600">
<defs>
  <clipPath id="clip910">
    <rect x="0" y="0" width="2400" height="1600"/>
  </clipPath>
</defs>
<path clip-path="url(#clip910)" d="M0 1600 L2400 1600 L2400 0 L0 0  Z" fill="#ffffff" fill-rule="evenodd" fill-opacity="1"/>
<defs>
  <clipPath id="clip911">
    <rect x="110" y="47" width="2243" height="1377"/>
  </clipPath>
</defs>
<path clip-path="url(#clip910)" d="M110.881 1423.18 L2352.76 1423.18 L2352.76 47.2441 L110.881 47.2441  Z" fill="#ffffff" fill-rule="evenodd" fill-opacity="1"/>
<polyline clip-path="url(#clip911)" style="stroke:#000000; stroke-linecap:round; stroke-linejoin:round; stroke-width:2; stroke-opacity:0.1; fill:none" points="110.881,1423.18 110.881,47.2441 "/>
<polyline clip-path="url(#clip911)" style="stroke:#000000; stroke-linecap:round; stroke-linejoin:round; stroke-width:2; stroke-opacity:0.1; fill:none" points="484.527,1423.18 484.527,47.2441 "/>
<polyline clip-path="url(#clip911)" style="stroke:#000000; stroke-linecap:round; stroke-linejoin:round; stroke-width:2; stroke-opacity:0.1; fill:none" points="858.173,1423.18 858.173,47.2441 "/>
<polyline clip-path="url(#clip911)" style="stroke:#000000; stroke-linecap:round; stroke-linejoin:round; stroke-width:2; stroke-opacity:0.1; fill:none" points="1231.82,1423.18 1231.82,47.2441 "/>
<polyline clip-path="url(#clip911)" style="stroke:#000000; stroke-linecap:round; stroke-linejoin:round; stroke-width:2; stroke-opacity:0.1; fill:none" points="1605.46,1423.18 1605.46,47.2441 "/>
<polyline clip-path="url(#clip911)" style="stroke:#000000; stroke-linecap:round; stroke-linejoin:round; stroke-width:2; stroke-opacity:0.1; fill:none" points="1979.11,1423.18 1979.11,47.2441 "/>
<polyline clip-path="url(#clip911)" style="stroke:#000000; stroke-linecap:round; stroke-linejoin:round; stroke-width:2; stroke-opacity:0.1; fill:none" points="2352.76,1423.18 2352.76,47.2441 "/>
<polyline clip-path="url(#clip911)" style="stroke:#000000; stroke-linecap:round; stroke-linejoin:round; stroke-width:2; stroke-opacity:0.1; fill:none" points="110.881,1384.24 2352.76,1384.24 "/>
<polyline clip-path="url(#clip911)" style="stroke:#000000; stroke-linecap:round; stroke-linejoin:round; stroke-width:2; stroke-opacity:0.1; fill:none" points="110.881,971.587 2352.76,971.587 "/>
<polyline clip-path="url(#clip911)" style="stroke:#000000; stroke-linecap:round; stroke-linejoin:round; stroke-width:2; stroke-opacity:0.1; fill:none" points="110.881,558.935 2352.76,558.935 "/>
<polyline clip-path="url(#clip911)" style="stroke:#000000; stroke-linecap:round; stroke-linejoin:round; stroke-width:2; stroke-opacity:0.1; fill:none" points="110.881,146.283 2352.76,146.283 "/>
<polyline clip-path="url(#clip910)" style="stroke:#000000; stroke-linecap:round; stroke-linejoin:round; stroke-width:4; stroke-opacity:1; fill:none" points="110.881,1423.18 2352.76,1423.18 "/>
<polyline clip-path="url(#clip910)" style="stroke:#000000; stroke-linecap:round; stroke-linejoin:round; stroke-width:4; stroke-opacity:1; fill:none" points="110.881,1423.18 110.881,1404.28 "/>
<polyline clip-path="url(#clip910)" style="stroke:#000000; stroke-linecap:round; stroke-linejoin:round; stroke-width:4; stroke-opacity:1; fill:none" points="484.527,1423.18 484.527,1404.28 "/>
<polyline clip-path="url(#clip910)" style="stroke:#000000; stroke-linecap:round; stroke-linejoin:round; stroke-width:4; stroke-opacity:1; fill:none" points="858.173,1423.18 858.173,1404.28 "/>
<polyline clip-path="url(#clip910)" style="stroke:#000000; stroke-linecap:round; stroke-linejoin:round; stroke-width:4; stroke-opacity:1; fill:none" points="1231.82,1423.18 1231.82,1404.28 "/>
<polyline clip-path="url(#clip910)" style="stroke:#000000; stroke-linecap:round; stroke-linejoin:round; stroke-width:4; stroke-opacity:1; fill:none" points="1605.46,1423.18 1605.46,1404.28 "/>
<polyline clip-path="url(#clip910)" style="stroke:#000000; stroke-linecap:round; stroke-linejoin:round; stroke-width:4; stroke-opacity:1; fill:none" points="1979.11,1423.18 1979.11,1404.28 "/>
<polyline clip-path="url(#clip910)" style="stroke:#000000; stroke-linecap:round; stroke-linejoin:round; stroke-width:4; stroke-opacity:1; fill:none" points="2352.76,1423.18 2352.76,1404.28 "/>
<path clip-path="url(#clip910)" d="M110.881 1454.1 Q107.27 1454.1 105.441 1457.66 Q103.636 1461.2 103.636 1468.33 Q103.636 1475.44 105.441 1479.01 Q107.27 1482.55 110.881 1482.55 Q114.515 1482.55 116.321 1479.01 Q118.149 1475.44 118.149 1468.33 Q118.149 1461.2 116.321 1457.66 Q114.515 1454.1 110.881 1454.1 M110.881 1450.39 Q116.691 1450.39 119.747 1455 Q122.825 1459.58 122.825 1468.33 Q122.825 1477.06 119.747 1481.67 Q116.691 1486.25 110.881 1486.25 Q105.071 1486.25 101.992 1481.67 Q98.9365 1477.06 98.9365 1468.33 Q98.9365 1459.58 101.992 1455 Q105.071 1450.39 110.881 1450.39 Z" fill="#000000" fill-rule="nonzero" fill-opacity="1" /><path clip-path="url(#clip910)" d="M463.3 1481.64 L479.619 1481.64 L479.619 1485.58 L457.675 1485.58 L457.675 1481.64 Q460.337 1478.89 464.92 1474.26 Q469.527 1469.61 470.707 1468.27 Q472.953 1465.74 473.832 1464.01 Q474.735 1462.25 474.735 1460.56 Q474.735 1457.8 472.791 1456.07 Q470.869 1454.33 467.768 1454.33 Q465.568 1454.33 463.115 1455.09 Q460.684 1455.86 457.906 1457.41 L457.906 1452.69 Q460.731 1451.55 463.184 1450.97 Q465.638 1450.39 467.675 1450.39 Q473.045 1450.39 476.24 1453.08 Q479.434 1455.77 479.434 1460.26 Q479.434 1462.39 478.624 1464.31 Q477.837 1466.2 475.73 1468.8 Q475.152 1469.47 472.05 1472.69 Q468.948 1475.88 463.3 1481.64 Z" fill="#000000" fill-rule="nonzero" fill-opacity="1" /><path clip-path="url(#clip910)" d="M499.434 1454.1 Q495.823 1454.1 493.994 1457.66 Q492.189 1461.2 492.189 1468.33 Q492.189 1475.44 493.994 1479.01 Q495.823 1482.55 499.434 1482.55 Q503.068 1482.55 504.874 1479.01 Q506.703 1475.44 506.703 1468.33 Q506.703 1461.2 504.874 1457.66 Q503.068 1454.1 499.434 1454.1 M499.434 1450.39 Q505.244 1450.39 508.3 1455 Q511.378 1459.58 511.378 1468.33 Q511.378 1477.06 508.3 1481.67 Q505.244 1486.25 499.434 1486.25 Q493.624 1486.25 490.545 1481.67 Q487.49 1477.06 487.49 1468.33 Q487.49 1459.58 490.545 1455 Q493.624 1450.39 499.434 1450.39 Z" fill="#000000" fill-rule="nonzero" fill-opacity="1" /><path clip-path="url(#clip910)" d="M846.344 1455.09 L834.538 1473.54 L846.344 1473.54 L846.344 1455.09 M845.117 1451.02 L850.997 1451.02 L850.997 1473.54 L855.927 1473.54 L855.927 1477.43 L850.997 1477.43 L850.997 1485.58 L846.344 1485.58 L846.344 1477.43 L830.742 1477.43 L830.742 1472.92 L845.117 1451.02 Z" fill="#000000" fill-rule="nonzero" fill-opacity="1" /><path clip-path="url(#clip910)" d="M873.659 1454.1 Q870.047 1454.1 868.219 1457.66 Q866.413 1461.2 866.413 1468.33 Q866.413 1475.44 868.219 1479.01 Q870.047 1482.55 873.659 1482.55 Q877.293 1482.55 879.098 1479.01 Q880.927 1475.44 880.927 1468.33 Q880.927 1461.2 879.098 1457.66 Q877.293 1454.1 873.659 1454.1 M873.659 1450.39 Q879.469 1450.39 882.524 1455 Q885.603 1459.58 885.603 1468.33 Q885.603 1477.06 882.524 1481.67 Q879.469 1486.25 873.659 1486.25 Q867.848 1486.25 864.77 1481.67 Q861.714 1477.06 861.714 1468.33 Q861.714 1459.58 864.77 1455 Q867.848 1450.39 873.659 1450.39 Z" fill="#000000" fill-rule="nonzero" fill-opacity="1" /><path clip-path="url(#clip910)" d="M1217.22 1466.44 Q1214.08 1466.44 1212.22 1468.59 Q1210.39 1470.74 1210.39 1474.49 Q1210.39 1478.22 1212.22 1480.39 Q1214.08 1482.55 1217.22 1482.55 Q1220.37 1482.55 1222.2 1480.39 Q1224.05 1478.22 1224.05 1474.49 Q1224.05 1470.74 1222.2 1468.59 Q1220.37 1466.44 1217.22 1466.44 M1226.51 1451.78 L1226.51 1456.04 Q1224.75 1455.21 1222.94 1454.77 Q1221.16 1454.33 1219.4 1454.33 Q1214.77 1454.33 1212.32 1457.45 Q1209.89 1460.58 1209.54 1466.9 Q1210.9 1464.89 1212.96 1463.82 Q1215.02 1462.73 1217.5 1462.73 Q1222.71 1462.73 1225.72 1465.9 Q1228.75 1469.05 1228.75 1474.49 Q1228.75 1479.82 1225.6 1483.03 Q1222.46 1486.25 1217.22 1486.25 Q1211.23 1486.25 1208.06 1481.67 Q1204.89 1477.06 1204.89 1468.33 Q1204.89 1460.14 1208.77 1455.28 Q1212.66 1450.39 1219.21 1450.39 Q1220.97 1450.39 1222.76 1450.74 Q1224.56 1451.09 1226.51 1451.78 Z" fill="#000000" fill-rule="nonzero" fill-opacity="1" /><path clip-path="url(#clip910)" d="M1246.81 1454.1 Q1243.2 1454.1 1241.37 1457.66 Q1239.56 1461.2 1239.56 1468.33 Q1239.56 1475.44 1241.37 1479.01 Q1243.2 1482.55 1246.81 1482.55 Q1250.44 1482.55 1252.25 1479.01 Q1254.08 1475.44 1254.08 1468.33 Q1254.08 1461.2 1252.25 1457.66 Q1250.44 1454.1 1246.81 1454.1 M1246.81 1450.39 Q1252.62 1450.39 1255.67 1455 Q1258.75 1459.58 1258.75 1468.33 Q1258.75 1477.06 1255.67 1481.67 Q1252.62 1486.25 1246.81 1486.25 Q1241 1486.25 1237.92 1481.67 Q1234.86 1477.06 1234.86 1468.33 Q1234.86 1459.58 1237.92 1455 Q1241 1450.39 1246.81 1450.39 Z" fill="#000000" fill-rule="nonzero" fill-opacity="1" /><path clip-path="url(#clip910)" d="M1590.34 1469.17 Q1587 1469.17 1585.08 1470.95 Q1583.18 1472.73 1583.18 1475.86 Q1583.18 1478.98 1585.08 1480.77 Q1587 1482.55 1590.34 1482.55 Q1593.67 1482.55 1595.59 1480.77 Q1597.51 1478.96 1597.51 1475.86 Q1597.51 1472.73 1595.59 1470.95 Q1593.69 1469.17 1590.34 1469.17 M1585.66 1467.18 Q1582.65 1466.44 1580.96 1464.38 Q1579.3 1462.32 1579.3 1459.35 Q1579.3 1455.21 1582.24 1452.8 Q1585.2 1450.39 1590.34 1450.39 Q1595.5 1450.39 1598.44 1452.8 Q1601.38 1455.21 1601.38 1459.35 Q1601.38 1462.32 1599.69 1464.38 Q1598.02 1466.44 1595.04 1467.18 Q1598.42 1467.96 1600.29 1470.26 Q1602.19 1472.55 1602.19 1475.86 Q1602.19 1480.88 1599.11 1483.57 Q1596.05 1486.25 1590.34 1486.25 Q1584.62 1486.25 1581.54 1483.57 Q1578.49 1480.88 1578.49 1475.86 Q1578.49 1472.55 1580.38 1470.26 Q1582.28 1467.96 1585.66 1467.18 M1583.95 1459.79 Q1583.95 1462.48 1585.61 1463.98 Q1587.3 1465.49 1590.34 1465.49 Q1593.35 1465.49 1595.04 1463.98 Q1596.75 1462.48 1596.75 1459.79 Q1596.75 1457.11 1595.04 1455.6 Q1593.35 1454.1 1590.34 1454.1 Q1587.3 1454.1 1585.61 1455.6 Q1583.95 1457.11 1583.95 1459.79 Z" fill="#000000" fill-rule="nonzero" fill-opacity="1" /><path clip-path="url(#clip910)" d="M1620.5 1454.1 Q1616.89 1454.1 1615.06 1457.66 Q1613.25 1461.2 1613.25 1468.33 Q1613.25 1475.44 1615.06 1479.01 Q1616.89 1482.55 1620.5 1482.55 Q1624.13 1482.55 1625.94 1479.01 Q1627.77 1475.44 1627.77 1468.33 Q1627.77 1461.2 1625.94 1457.66 Q1624.13 1454.1 1620.5 1454.1 M1620.5 1450.39 Q1626.31 1450.39 1629.36 1455 Q1632.44 1459.58 1632.44 1468.33 Q1632.44 1477.06 1629.36 1481.67 Q1626.31 1486.25 1620.5 1486.25 Q1614.69 1486.25 1611.61 1481.67 Q1608.55 1477.06 1608.55 1468.33 Q1608.55 1459.58 1611.61 1455 Q1614.69 1450.39 1620.5 1450.39 Z" fill="#000000" fill-rule="nonzero" fill-opacity="1" /><path clip-path="url(#clip910)" d="M1938.72 1481.64 L1946.36 1481.64 L1946.36 1455.28 L1938.05 1456.95 L1938.05 1452.69 L1946.31 1451.02 L1950.99 1451.02 L1950.99 1481.64 L1958.62 1481.64 L1958.62 1485.58 L1938.72 1485.58 L1938.72 1481.64 Z" fill="#000000" fill-rule="nonzero" fill-opacity="1" /><path clip-path="url(#clip910)" d="M1978.07 1454.1 Q1974.46 1454.1 1972.63 1457.66 Q1970.82 1461.2 1970.82 1468.33 Q1970.82 1475.44 1972.63 1479.01 Q1974.46 1482.55 1978.07 1482.55 Q1981.7 1482.55 1983.51 1479.01 Q1985.34 1475.44 1985.34 1468.33 Q1985.34 1461.2 1983.51 1457.66 Q1981.7 1454.1 1978.07 1454.1 M1978.07 1450.39 Q1983.88 1450.39 1986.93 1455 Q1990.01 1459.58 1990.01 1468.33 Q1990.01 1477.06 1986.93 1481.67 Q1983.88 1486.25 1978.07 1486.25 Q1972.26 1486.25 1969.18 1481.67 Q1966.12 1477.06 1966.12 1468.33 Q1966.12 1459.58 1969.18 1455 Q1972.26 1450.39 1978.07 1450.39 Z" fill="#000000" fill-rule="nonzero" fill-opacity="1" /><path clip-path="url(#clip910)" d="M2008.23 1454.1 Q2004.62 1454.1 2002.79 1457.66 Q2000.98 1461.2 2000.98 1468.33 Q2000.98 1475.44 2002.79 1479.01 Q2004.62 1482.55 2008.23 1482.55 Q2011.86 1482.55 2013.67 1479.01 Q2015.5 1475.44 2015.5 1468.33 Q2015.5 1461.2 2013.67 1457.66 Q2011.86 1454.1 2008.23 1454.1 M2008.23 1450.39 Q2014.04 1450.39 2017.1 1455 Q2020.17 1459.58 2020.17 1468.33 Q2020.17 1477.06 2017.1 1481.67 Q2014.04 1486.25 2008.23 1486.25 Q2002.42 1486.25 1999.34 1481.67 Q1996.29 1477.06 1996.29 1468.33 Q1996.29 1459.58 1999.34 1455 Q2002.42 1450.39 2008.23 1450.39 Z" fill="#000000" fill-rule="nonzero" fill-opacity="1" /><path clip-path="url(#clip910)" d="M2312.36 1481.64 L2320 1481.64 L2320 1455.28 L2311.69 1456.95 L2311.69 1452.69 L2319.96 1451.02 L2324.63 1451.02 L2324.63 1481.64 L2332.27 1481.64 L2332.27 1485.58 L2312.36 1485.58 L2312.36 1481.64 Z" fill="#000000" fill-rule="nonzero" fill-opacity="1" /><path clip-path="url(#clip910)" d="M2345.74 1481.64 L2362.06 1481.64 L2362.06 1485.58 L2340.12 1485.58 L2340.12 1481.64 Q2342.78 1478.89 2347.36 1474.26 Q2351.97 1469.61 2353.15 1468.27 Q2355.39 1465.74 2356.27 1464.01 Q2357.18 1462.25 2357.18 1460.56 Q2357.18 1457.8 2355.23 1456.07 Q2353.31 1454.33 2350.21 1454.33 Q2348.01 1454.33 2345.56 1455.09 Q2343.13 1455.86 2340.35 1457.41 L2340.35 1452.69 Q2343.17 1451.55 2345.63 1450.97 Q2348.08 1450.39 2350.12 1450.39 Q2355.49 1450.39 2358.68 1453.08 Q2361.88 1455.77 2361.88 1460.26 Q2361.88 1462.39 2361.07 1464.31 Q2360.28 1466.2 2358.17 1468.8 Q2357.59 1469.47 2354.49 1472.69 Q2351.39 1475.88 2345.74 1481.64 Z" fill="#000000" fill-rule="nonzero" fill-opacity="1" /><path clip-path="url(#clip910)" d="M2381.88 1454.1 Q2378.27 1454.1 2376.44 1457.66 Q2374.63 1461.2 2374.63 1468.33 Q2374.63 1475.44 2376.44 1479.01 Q2378.27 1482.55 2381.88 1482.55 Q2385.51 1482.55 2387.32 1479.01 Q2389.14 1475.44 2389.14 1468.33 Q2389.14 1461.2 2387.32 1457.66 Q2385.51 1454.1 2381.88 1454.1 M2381.88 1450.39 Q2387.69 1450.39 2390.74 1455 Q2393.82 1459.58 2393.82 1468.33 Q2393.82 1477.06 2390.74 1481.67 Q2387.69 1486.25 2381.88 1486.25 Q2376.07 1486.25 2372.99 1481.67 Q2369.93 1477.06 2369.93 1468.33 Q2369.93 1459.58 2372.99 1455 Q2376.07 1450.39 2381.88 1450.39 Z" fill="#000000" fill-rule="nonzero" fill-opacity="1" /><path clip-path="url(#clip910)" d="M1230.88 1522.27 L1230.88 1532.4 L1242.94 1532.4 L1242.94 1536.95 L1230.88 1536.95 L1230.88 1556.3 Q1230.88 1560.66 1232.06 1561.9 Q1233.27 1563.14 1236.93 1563.14 L1242.94 1563.14 L1242.94 1568.04 L1236.93 1568.04 Q1230.15 1568.04 1227.57 1565.53 Q1224.99 1562.98 1224.99 1556.3 L1224.99 1536.95 L1220.69 1536.95 L1220.69 1532.4 L1224.99 1532.4 L1224.99 1522.27 L1230.88 1522.27 Z" fill="#000000" fill-rule="nonzero" fill-opacity="1" /><polyline clip-path="url(#clip910)" style="stroke:#000000; stroke-linecap:round; stroke-linejoin:round; stroke-width:4; stroke-opacity:1; fill:none" points="110.881,1423.18 110.881,47.2441 "/>
<polyline clip-path="url(#clip910)" style="stroke:#000000; stroke-linecap:round; stroke-linejoin:round; stroke-width:4; stroke-opacity:1; fill:none" points="110.881,1384.24 129.779,1384.24 "/>
<polyline clip-path="url(#clip910)" style="stroke:#000000; stroke-linecap:round; stroke-linejoin:round; stroke-width:4; stroke-opacity:1; fill:none" points="110.881,971.587 129.779,971.587 "/>
<polyline clip-path="url(#clip910)" style="stroke:#000000; stroke-linecap:round; stroke-linejoin:round; stroke-width:4; stroke-opacity:1; fill:none" points="110.881,558.935 129.779,558.935 "/>
<polyline clip-path="url(#clip910)" style="stroke:#000000; stroke-linecap:round; stroke-linejoin:round; stroke-width:4; stroke-opacity:1; fill:none" points="110.881,146.283 129.779,146.283 "/>
<path clip-path="url(#clip910)" d="M62.9365 1370.04 Q59.3254 1370.04 57.4967 1373.6 Q55.6912 1377.14 55.6912 1384.27 Q55.6912 1391.38 57.4967 1394.94 Q59.3254 1398.49 62.9365 1398.49 Q66.5707 1398.49 68.3763 1394.94 Q70.205 1391.38 70.205 1384.27 Q70.205 1377.14 68.3763 1373.6 Q66.5707 1370.04 62.9365 1370.04 M62.9365 1366.33 Q68.7467 1366.33 71.8022 1370.94 Q74.8809 1375.52 74.8809 1384.27 Q74.8809 1393 71.8022 1397.61 Q68.7467 1402.19 62.9365 1402.19 Q57.1264 1402.19 54.0477 1397.61 Q50.9921 1393 50.9921 1384.27 Q50.9921 1375.52 54.0477 1370.94 Q57.1264 1366.33 62.9365 1366.33 Z" fill="#000000" fill-rule="nonzero" fill-opacity="1" /><path clip-path="url(#clip910)" d="M54.9736 984.931 L62.6124 984.931 L62.6124 958.566 L54.3023 960.232 L54.3023 955.973 L62.5661 954.307 L67.242 954.307 L67.242 984.931 L74.8809 984.931 L74.8809 988.867 L54.9736 988.867 L54.9736 984.931 Z" fill="#000000" fill-rule="nonzero" fill-opacity="1" /><path clip-path="url(#clip910)" d="M58.5615 572.28 L74.8809 572.28 L74.8809 576.215 L52.9366 576.215 L52.9366 572.28 Q55.5986 569.525 60.1819 564.895 Q64.7883 560.243 65.9689 558.9 Q68.2143 556.377 69.0939 554.641 Q69.9967 552.882 69.9967 551.192 Q69.9967 548.437 68.0522 546.701 Q66.1309 544.965 63.0291 544.965 Q60.83 544.965 58.3763 545.729 Q55.9458 546.493 53.168 548.044 L53.168 543.322 Q55.9921 542.187 58.4458 541.609 Q60.8995 541.03 62.9365 541.03 Q68.3068 541.03 71.5013 543.715 Q74.6957 546.4 74.6957 550.891 Q74.6957 553.021 73.8855 554.942 Q73.0985 556.84 70.992 559.433 Q70.4133 560.104 67.3115 563.321 Q64.2096 566.516 58.5615 572.28 Z" fill="#000000" fill-rule="nonzero" fill-opacity="1" /><path clip-path="url(#clip910)" d="M67.7513 144.929 Q71.1078 145.647 72.9827 147.915 Q74.8809 150.184 74.8809 153.517 Q74.8809 158.633 71.3624 161.434 Q67.8439 164.234 61.3624 164.234 Q59.1865 164.234 56.8717 163.795 Q54.5801 163.378 52.1264 162.521 L52.1264 158.008 Q54.0708 159.142 56.3856 159.721 Q58.7004 160.299 61.2236 160.299 Q65.6217 160.299 67.9133 158.563 Q70.2281 156.827 70.2281 153.517 Q70.2281 150.461 68.0754 148.748 Q65.9457 147.012 62.1263 147.012 L58.0986 147.012 L58.0986 143.17 L62.3115 143.17 Q65.7606 143.17 67.5893 141.804 Q69.418 140.415 69.418 137.823 Q69.418 135.161 67.5198 133.748 Q65.6448 132.313 62.1263 132.313 Q60.205 132.313 58.006 132.73 Q55.8069 133.147 53.168 134.026 L53.168 129.86 Q55.8301 129.119 58.1449 128.749 Q60.4828 128.378 62.543 128.378 Q67.867 128.378 70.9689 130.809 Q74.0707 133.216 74.0707 137.336 Q74.0707 140.207 72.4272 142.198 Q70.7837 144.165 67.7513 144.929 Z" fill="#000000" fill-rule="nonzero" fill-opacity="1" /><polyline clip-path="url(#clip911)" style="stroke:#009af9; stroke-linecap:round; stroke-linejoin:round; stroke-width:4; stroke-opacity:1; fill:none" points="110.881,1384.24 113.125,1376.11 115.369,1355.05 117.613,1325.53 119.857,1290.88 122.101,1253.25 124.346,1214.01 126.59,1174.02 128.834,1133.88 131.078,1094.04 133.322,1054.8 135.566,1016.41 137.81,979.049 140.054,942.839 142.299,907.895 144.543,874.279 146.787,842.05 149.031,811.229 151.275,781.817 153.519,753.829 155.763,727.249 158.007,702.085 160.252,678.342 162.496,655.986 164.74,635.006 166.984,615.352 169.228,596.945 171.472,579.711 173.716,563.561 175.96,548.408 178.204,534.166 180.449,520.753 182.693,508.11 184.937,496.177 187.181,484.885 189.425,474.18 191.669,464.024 193.913,454.372 196.157,445.18 198.402,436.412 200.646,428.04 202.89,420.03 205.134,412.348 207.378,404.969 209.622,397.873 211.866,391.037 214.11,384.438 216.354,378.056 218.599,371.88 220.843,365.896 223.087,360.086 225.331,354.437 227.575,348.941 229.819,343.59 232.063,338.373 234.307,333.282 236.552,328.309 238.796,323.449 241.04,318.698 243.284,314.05 245.528,309.498 247.772,305.039 250.016,300.67 252.26,296.388 254.505,292.191 256.749,288.073 258.993,284.033 261.237,280.069 263.481,276.18 265.725,272.363 267.969,268.616 270.213,264.937 272.457,261.325 274.702,257.779 276.946,254.297 279.19,250.879 281.434,247.523 283.678,244.227 285.922,240.992 288.166,237.815 290.41,234.696 292.655,231.634 294.899,228.629 297.143,225.678 299.387,222.782 301.631,219.939 303.875,217.15 306.119,214.414 308.363,211.728 310.607,209.092 312.852,206.505 315.096,203.965 317.34,201.473 319.584,199.028 321.828,196.63 324.072,194.28 326.316,191.977 328.56,189.717 330.805,187.501 333.049,185.328 335.293,183.196 337.537,181.106 339.781,179.057 342.025,177.049 344.269,175.082 346.513,173.153 348.758,171.262 351.002,169.409 353.246,167.592 355.49,165.812 357.734,164.067 359.978,162.358 362.222,160.685 364.466,159.046 366.71,157.44 368.955,155.867 371.199,154.325 373.443,152.815 375.687,151.336 377.931,149.888 380.175,148.47 382.419,147.082 384.663,145.723 386.908,144.392 389.152,143.09 391.396,141.814 393.64,140.564 395.884,139.341 398.128,138.144 400.372,136.973 402.616,135.827 404.86,134.706 407.105,133.608 409.349,132.534 411.593,131.483 413.837,130.454 416.081,129.447 418.325,128.461 420.569,127.497 422.813,126.555 425.058,125.634 427.302,124.732 429.546,123.85 431.79,122.987 434.034,122.143 436.278,121.317 438.522,120.509 440.766,119.719 443.011,118.947 445.255,118.192 447.499,117.454 449.743,116.732 451.987,116.026 454.231,115.336 456.475,114.661 458.719,114 460.963,113.355 463.208,112.724 465.452,112.108 467.696,111.506 469.94,110.917 472.184,110.341 474.428,109.779 476.672,109.228 478.916,108.691 481.161,108.165 483.405,107.651 485.649,107.149 487.893,106.659 490.137,106.18 492.381,105.712 494.625,105.254 496.869,104.807 499.113,104.37 501.358,103.943 503.602,103.525 505.846,103.118 508.09,102.719 510.334,102.331 512.578,101.951 514.822,101.58 517.066,101.217 519.311,100.862 521.555,100.516 523.799,100.178 526.043,99.8471 528.287,99.5243 530.531,99.2091 532.775,98.9014 535.019,98.6009 537.264,98.3073 539.508,98.0204 541.752,97.7401 543.996,97.4663 546.24,97.1988 548.484,96.9375 550.728,96.6824 552.972,96.4346 555.216,96.1932 557.461,95.9565 559.705,95.7245 561.949,95.4972 564.193,95.2747 566.437,95.0568 568.681,94.8436 570.925,94.6352 573.169,94.4314 575.414,94.2324 577.658,94.0381 579.902,93.8484 582.146,93.6635 584.39,93.4833 586.634,93.3078 588.878,93.137 591.122,92.971 593.367,92.8098 595.611,92.6519 597.855,92.4974 600.099,92.3463 602.343,92.1985 604.587,92.0541 606.831,91.913 609.075,91.7753 611.319,91.6409 613.564,91.5099 615.808,91.3823 618.052,91.2582 620.296,91.1376 622.54,91.0195 624.784,90.9038 627.028,90.7906 629.272,90.6798 631.517,90.5715 633.761,90.4656 636.005,90.3622 638.249,90.2612 640.493,90.1627 642.737,90.0666 644.981,89.973 647.225,89.8818 649.469,89.7931 651.714,89.7072 653.958,89.6231 656.202,89.5408 658.446,89.4602 660.69,89.3813 662.934,89.3042 665.178,89.2288 667.422,89.1551 669.667,89.0832 671.911,89.013 674.155,88.9446 676.399,88.8779 678.643,88.8129 680.887,88.7496 683.131,88.6883 685.375,88.6286 687.62,88.5701 689.864,88.5128 692.108,88.4567 694.352,88.4018 696.596,88.3482 698.84,88.2958 701.084,88.2447 703.328,88.1947 705.572,88.146 707.817,88.0985 710.061,88.0523 712.305,88.0072 714.549,87.9635 716.793,87.9211 719.037,87.8795 721.281,87.8388 723.525,87.799 725.77,87.76 728.014,87.7219 730.258,87.6847 732.502,87.6483 734.746,87.6127 736.99,87.5781 739.234,87.5443 741.478,87.5113 743.722,87.4792 745.967,87.448 748.211,87.4177 750.455,87.3883 752.699,87.3595 754.943,87.3313 757.187,87.3036 759.431,87.2766 761.675,87.2502 763.92,87.2243 766.164,87.1991 768.408,87.1744 770.652,87.1504 772.896,87.1269 775.14,87.1041 777.384,87.0818 779.628,87.0601 781.873,87.0391 784.117,87.0187 786.361,86.9988 788.605,86.9792 790.849,86.9601 793.093,86.9414 795.337,86.9231 797.581,86.9052 799.825,86.8877 802.07,86.8706 804.314,86.8539 806.558,86.8376 808.802,86.8217 811.046,86.8062 813.29,86.7912 815.534,86.7765 817.778,86.7623 820.023,86.7485 822.267,86.735 824.511,86.7219 826.755,86.7089 828.999,86.6963 831.243,86.6839 833.487,86.6718 835.731,86.66 837.975,86.6484 840.22,86.6371 842.464,86.6261 844.708,86.6153 846.952,86.6048 849.196,86.5946 851.44,86.5847 853.684,86.575 855.928,86.5656 858.173,86.5565 860.417,86.5477 862.661,86.539 864.905,86.5305 867.149,86.5222 869.393,86.514 871.637,86.5061 873.881,86.4983 876.126,86.4906 878.37,86.4832 880.614,86.4759 882.858,86.4688 885.102,86.4618 887.346,86.4551 889.59,86.4485 891.834,86.4421 894.078,86.4358 896.323,86.4298 898.567,86.4239 900.811,86.4182 903.055,86.4127 905.299,86.4072 907.543,86.4019 909.787,86.3967 912.031,86.3916 914.276,86.3866 916.52,86.3817 918.764,86.3769 921.008,86.3722 923.252,86.3676 925.496,86.3631 927.74,86.3588 929.984,86.3545 932.228,86.3503 934.473,86.3463 936.717,86.3424 938.961,86.3385 941.205,86.3348 943.449,86.3312 945.693,86.3277 947.937,86.3243 950.181,86.321 952.426,86.3178 954.67,86.3146 956.914,86.3115 959.158,86.3085 961.402,86.3055 963.646,86.3025 965.89,86.2997 968.134,86.2969 970.379,86.2941 972.623,86.2915 974.867,86.2888 977.111,86.2863 979.355,86.2838 981.599,86.2814 983.843,86.279 986.087,86.2767 988.331,86.2744 990.576,86.2723 992.82,86.2701 995.064,86.2681 997.308,86.2661 999.552,86.2642 1001.8,86.2623 1004.04,86.2605 1006.28,86.2587 1008.53,86.257 1010.77,86.2553 1013.02,86.2536 1015.26,86.2519 1017.51,86.2503 1019.75,86.2487 1021.99,86.2472 1024.24,86.2456 1026.48,86.2441 1028.73,86.2427 1030.97,86.2413 1033.21,86.2399 1035.46,86.2385 1037.7,86.2372 1039.95,86.2359 1042.19,86.2347 1044.43,86.2334 1046.68,86.2322 1048.92,86.2311 1051.17,86.23 1053.41,86.2289 1055.66,86.2278 1057.9,86.2268 1060.14,86.2258 1062.39,86.2249 1064.63,86.2239 1066.88,86.223 1069.12,86.2221 1071.36,86.2213 1073.61,86.2204 1075.85,86.2196 1078.1,86.2188 1080.34,86.2179 1082.58,86.2171 1084.83,86.2164 1087.07,86.2156 1089.32,86.2149 1091.56,86.2141 1093.81,86.2134 1096.05,86.2127 1098.29,86.212 1100.54,86.2114 1102.78,86.2107 1105.03,86.2101 1107.27,86.2094 1109.51,86.2088 1111.76,86.2083 1114,86.2077 1116.25,86.2071 1118.49,86.2066 1120.73,86.206 1122.98,86.2055 1125.22,86.205 1127.47,86.2046 1129.71,86.2041 1131.96,86.2036 1134.2,86.2032 1136.44,86.2028 1138.69,86.2024 1140.93,86.202 1143.18,86.2016 1145.42,86.2013 1147.66,86.2009 1149.91,86.2005 1152.15,86.2002 1154.4,86.1998 1156.64,86.1995 1158.88,86.1991 1161.13,86.1988 1163.37,86.1985 1165.62,86.1981 1167.86,86.1978 1170.11,86.1975 1172.35,86.1972 1174.59,86.1969 1176.84,86.1966 1179.08,86.1963 1181.33,86.1961 1183.57,86.1958 1185.81,86.1955 1188.06,86.1953 1190.3,86.195 1192.55,86.1948 1194.79,86.1945 1197.03,86.1943 1199.28,86.1941 1201.52,86.1939 1203.77,86.1936 1206.01,86.1934 1208.26,86.1932 1210.5,86.193 1212.74,86.1928 1214.99,86.1927 1217.23,86.1925 1219.48,86.1923 1221.72,86.1921 1223.96,86.192 1226.21,86.1918 1228.45,86.1917 1230.7,86.1916 1232.94,86.1914 1235.18,86.1913 1237.43,86.1912 1239.67,86.191 1241.92,86.1909 1244.16,86.1908 1246.41,86.1907 1248.65,86.1905 1250.89,86.1904 1253.14,86.1903 1255.38,86.1902 1257.63,86.1901 1259.87,86.19 1262.11,86.1899 1264.36,86.1898 1266.6,86.1897 1268.85,86.1895 1271.09,86.1894 1273.33,86.1893 1275.58,86.1893 1277.82,86.1892 1280.07,86.1891 1282.31,86.189 1284.56,86.1889 1286.8,86.1888 1289.04,86.1887 1291.29,86.1886 1293.53,86.1885 1295.78,86.1885 1298.02,86.1884 1300.26,86.1883 1302.51,86.1882 1304.75,86.1882 1307,86.1881 1309.24,86.188 1311.48,86.188 1313.73,86.1879 1315.97,86.1878 1318.22,86.1878 1320.46,86.1877 1322.71,86.1876 1324.95,86.1876 1327.19,86.1875 1329.44,86.1875 1331.68,86.1874 1333.93,86.1874 1336.17,86.1873 1338.41,86.1873 1340.66,86.1873 1342.9,86.1872 1345.15,86.1872 1347.39,86.1871 1349.63,86.1871 1351.88,86.1871 1354.12,86.1871 1356.37,86.187 1358.61,86.187 1360.86,86.187 1363.1,86.1869 1365.34,86.1869 1367.59,86.1869 1369.83,86.1869 1372.08,86.1868 1374.32,86.1868 1376.56,86.1868 1378.81,86.1867 1381.05,86.1867 1383.3,86.1867 1385.54,86.1867 1387.78,86.1866 1390.03,86.1866 1392.27,86.1866 1394.52,86.1866 1396.76,86.1865 1399.01,86.1865 1401.25,86.1865 1403.49,86.1865 1405.74,86.1865 1407.98,86.1864 1410.23,86.1864 1412.47,86.1864 1414.71,86.1864 1416.96,86.1864 1419.2,86.1863 1421.45,86.1863 1423.69,86.1863 1425.93,86.1863 1428.18,86.1863 1430.42,86.1862 1432.67,86.1862 1434.91,86.1862 1437.16,86.1862 1439.4,86.1862 1441.64,86.1862 1443.89,86.1861 1446.13,86.1861 1448.38,86.1861 1450.62,86.1861 1452.86,86.1861 1455.11,86.1861 1457.35,86.1861 1459.6,86.186 1461.84,86.186 1464.08,86.186 1466.33,86.186 1468.57,86.186 1470.82,86.186 1473.06,86.186 1475.31,86.186 1477.55,86.1859 1479.79,86.1859 1482.04,86.1859 1484.28,86.1859 1486.53,86.1859 1488.77,86.1859 1491.01,86.1859 1493.26,86.1859 1495.5,86.1859 1497.75,86.1859 1499.99,86.1859 1502.23,86.1859 1504.48,86.1858 1506.72,86.1858 1508.97,86.1858 1511.21,86.1858 1513.46,86.1858 1515.7,86.1858 1517.94,86.1858 1520.19,86.1858 1522.43,86.1858 1524.68,86.1858 1526.92,86.1858 1529.16,86.1858 1531.41,86.1858 1533.65,86.1858 1535.9,86.1858 1538.14,86.1858 1540.38,86.1858 1542.63,86.1858 1544.87,86.1858 1547.12,86.1858 1549.36,86.1858 1551.61,86.1858 1553.85,86.1858 1556.09,86.1858 1558.34,86.1858 1560.58,86.1858 1562.83,86.1858 1565.07,86.1858 1567.31,86.1858 1569.56,86.1858 1571.8,86.1858 1574.05,86.1858 1576.29,86.1858 1578.53,86.1858 1580.78,86.1858 1583.02,86.1858 1585.27,86.1858 1587.51,86.1858 1589.76,86.1858 1592,86.1857 1594.24,86.1857 1596.49,86.1857 1598.73,86.1857 1600.98,86.1857 1603.22,86.1857 1605.46,86.1857 1607.71,86.1857 1609.95,86.1857 1612.2,86.1857 1614.44,86.1857 1616.68,86.1857 1618.93,86.1857 1621.17,86.1857 1623.42,86.1857 1625.66,86.1857 1627.91,86.1857 1630.15,86.1857 1632.39,86.1857 1634.64,86.1857 1636.88,86.1857 1639.13,86.1857 1641.37,86.1857 1643.61,86.1857 1645.86,86.1857 1648.1,86.1857 1650.35,86.1857 1652.59,86.1857 1654.83,86.1857 1657.08,86.1857 1659.32,86.1857 1661.57,86.1857 1663.81,86.1857 1666.06,86.1857 1668.3,86.1857 1670.54,86.1857 1672.79,86.1857 1675.03,86.1857 1677.28,86.1857 1679.52,86.1857 1681.76,86.1857 1684.01,86.1857 1686.25,86.1857 1688.5,86.1857 1690.74,86.1857 1692.98,86.1857 1695.23,86.1857 1697.47,86.1857 1699.72,86.1857 1701.96,86.1857 1704.21,86.1857 1706.45,86.1857 1708.69,86.1857 1710.94,86.1857 1713.18,86.1857 1715.43,86.1857 1717.67,86.1857 1719.91,86.1857 1722.16,86.1857 1724.4,86.1857 1726.65,86.1857 1728.89,86.1857 1731.13,86.1857 1733.38,86.1857 1735.62,86.1857 1737.87,86.1857 1740.11,86.1857 1742.36,86.1857 1744.6,86.1857 1746.84,86.1857 1749.09,86.1857 1751.33,86.1857 1753.58,86.1857 1755.82,86.1857 1758.06,86.1857 1760.31,86.1857 1762.55,86.1857 1764.8,86.1857 1767.04,86.1857 1769.28,86.1857 1771.53,86.1857 1773.77,86.1857 1776.02,86.1857 1778.26,86.1857 1780.51,86.1857 1782.75,86.1857 1784.99,86.1857 1787.24,86.1857 1789.48,86.1857 1791.73,86.1857 1793.97,86.1857 1796.21,86.1857 1798.46,86.1857 1800.7,86.1857 1802.95,86.1857 1805.19,86.1857 1807.43,86.1857 1809.68,86.1857 1811.92,86.1857 1814.17,86.1857 1816.41,86.1857 1818.66,86.1857 1820.9,86.1857 1823.14,86.1857 1825.39,86.1857 1827.63,86.1857 1829.88,86.1857 1832.12,86.1857 1834.36,86.1857 1836.61,86.1857 1838.85,86.1857 1841.1,86.1857 1843.34,86.1857 1845.58,86.1857 1847.83,86.1857 1850.07,86.1857 1852.32,86.1857 1854.56,86.1857 1856.81,86.1857 1859.05,86.1857 1861.29,86.1857 1863.54,86.1857 1865.78,86.1857 1868.03,86.1857 1870.27,86.1857 1872.51,86.1857 1874.76,86.1857 1877,86.1857 1879.25,86.1857 1881.49,86.1857 1883.74,86.1857 1885.98,86.1857 1888.22,86.1857 1890.47,86.1857 1892.71,86.1857 1894.96,86.1857 1897.2,86.1857 1899.44,86.1857 1901.69,86.1857 1903.93,86.1857 1906.18,86.1857 1908.42,86.1857 1910.66,86.1857 1912.91,86.1857 1915.15,86.1857 1917.4,86.1857 1919.64,86.1857 1921.89,86.1857 1924.13,86.1857 1926.37,86.1857 1928.62,86.1857 1930.86,86.1857 1933.11,86.1857 1935.35,86.1857 1937.59,86.1857 1939.84,86.1857 1942.08,86.1857 1944.33,86.1857 1946.57,86.1857 1948.81,86.1857 1951.06,86.1857 1953.3,86.1857 1955.55,86.1857 1957.79,86.1857 1960.04,86.1857 1962.28,86.1857 1964.52,86.1857 1966.77,86.1857 1969.01,86.1857 1971.26,86.1857 1973.5,86.1857 1975.74,86.1857 1977.99,86.1857 1980.23,86.1857 1982.48,86.1857 1984.72,86.1857 1986.96,86.1857 1989.21,86.1857 1991.45,86.1857 1993.7,86.1857 1995.94,86.1857 1998.19,86.1857 2000.43,86.1857 2002.67,86.1857 2004.92,86.1857 2007.16,86.1857 2009.41,86.1857 2011.65,86.1857 2013.89,86.1857 2016.14,86.1857 2018.38,86.1857 2020.63,86.1857 2022.87,86.1857 2025.11,86.1857 2027.36,86.1857 2029.6,86.1857 2031.85,86.1857 2034.09,86.1857 2036.34,86.1857 2038.58,86.1857 2040.82,86.1857 2043.07,86.1857 2045.31,86.1857 2047.56,86.1857 2049.8,86.1857 2052.04,86.1857 2054.29,86.1857 2056.53,86.1857 2058.78,86.1857 2061.02,86.1857 2063.26,86.1857 2065.51,86.1857 2067.75,86.1857 2070,86.1857 2072.24,86.1857 2074.49,86.1857 2076.73,86.1857 2078.97,86.1857 2081.22,86.1857 2083.46,86.1857 2085.71,86.1857 2087.95,86.1857 2090.19,86.1857 2092.44,86.1857 2094.68,86.1857 2096.93,86.1857 2099.17,86.1857 2101.41,86.1857 2103.66,86.1857 2105.9,86.1857 2108.15,86.1857 2110.39,86.1857 2112.64,86.1857 2114.88,86.1857 2117.12,86.1857 2119.37,86.1857 2121.61,86.1857 2123.86,86.1857 2126.1,86.1857 2128.34,86.1857 2130.59,86.1857 2132.83,86.1857 2135.08,86.1857 2137.32,86.1857 2139.56,86.1857 2141.81,86.1857 2144.05,86.1857 2146.3,86.1857 2148.54,86.1857 2150.79,86.1857 2153.03,86.1857 2155.27,86.1857 2157.52,86.1857 2159.76,86.1857 2162.01,86.1857 2164.25,86.1857 2166.49,86.1857 2168.74,86.1857 2170.98,86.1857 2173.23,86.1857 2175.47,86.1857 2177.71,86.1857 2179.96,86.1857 2182.2,86.1857 2184.45,86.1857 2186.69,86.1857 2188.94,86.1857 2191.18,86.1857 2193.42,86.1857 2195.67,86.1857 2197.91,86.1857 2200.16,86.1857 2202.4,86.1857 2204.64,86.1857 2206.89,86.1857 2209.13,86.1857 2211.38,86.1857 2213.62,86.1857 2215.86,86.1857 2218.11,86.1857 2220.35,86.1857 2222.6,86.1857 2224.84,86.1857 2227.09,86.1857 2229.33,86.1857 2231.57,86.1857 2233.82,86.1857 2236.06,86.1857 2238.31,86.1857 2240.55,86.1857 2242.79,86.1857 2245.04,86.1857 2247.28,86.1857 2249.53,86.1857 2251.77,86.1857 2254.01,86.1857 2256.26,86.1857 2258.5,86.1857 2260.75,86.1857 2262.99,86.1857 2265.24,86.1857 2267.48,86.1857 2269.72,86.1857 2271.97,86.1857 2274.21,86.1857 2276.46,86.1857 2278.7,86.1857 2280.94,86.1857 2283.19,86.1857 2285.43,86.1857 2287.68,86.1857 2289.92,86.1857 2292.16,86.1857 2294.41,86.1857 2296.65,86.1857 2298.9,86.1857 2301.14,86.1857 2303.39,86.1857 2305.63,86.1857 2307.87,86.1857 2310.12,86.1857 2312.36,86.1857 2314.61,86.1857 2316.85,86.1857 2319.09,86.1857 2321.34,86.1857 2323.58,86.1857 2325.83,86.1857 2328.07,86.1857 2330.31,86.1857 2332.56,86.1857 2334.8,86.1857 2337.05,86.1857 2339.29,86.1857 2341.54,86.1857 2343.78,86.1857 2346.02,86.1857 2348.27,86.1857 2350.51,86.1857 2352.76,86.1857 "/>
<polyline clip-path="url(#clip911)" style="stroke:#e26f46; stroke-linecap:round; stroke-linejoin:round; stroke-width:4; stroke-opacity:1; fill:none" points="110.881,1384.24 113.125,1255.94 115.369,1168.19 117.613,1113.37 119.857,1081.05 122.101,1062.8 124.346,1053.44 126.59,1050.02 128.834,1050.81 131.078,1054.69 133.322,1060.84 135.566,1068.7 137.81,1077.82 140.054,1087.94 142.299,1098.76 144.543,1110.12 146.787,1121.75 149.031,1133.52 151.275,1145.33 153.519,1157.08 155.763,1168.87 158.007,1180.65 160.252,1192.35 162.496,1203.95 164.74,1215.19 166.984,1225.91 169.228,1236.02 171.472,1245.41 173.716,1254.06 175.96,1261.99 178.204,1269.25 180.449,1275.92 182.693,1282.02 184.937,1287.59 187.181,1292.73 189.425,1297.48 191.669,1301.84 193.913,1305.85 196.157,1309.55 198.402,1312.95 200.646,1316.08 202.89,1318.94 205.134,1321.59 207.378,1324.03 209.622,1326.27 211.866,1328.33 214.11,1330.23 216.354,1332 218.599,1333.64 220.843,1335.15 223.087,1336.55 225.331,1337.87 227.575,1339.1 229.819,1340.25 232.063,1341.33 234.307,1342.36 236.552,1343.33 238.796,1344.24 241.04,1345.11 243.284,1345.94 245.528,1346.74 247.772,1347.5 250.016,1348.24 252.26,1348.94 254.505,1349.62 256.749,1350.29 258.993,1350.93 261.237,1351.55 263.481,1352.16 265.725,1352.75 267.969,1353.33 270.213,1353.89 272.457,1354.45 274.702,1354.99 276.946,1355.52 279.19,1356.04 281.434,1356.55 283.678,1357.05 285.922,1357.55 288.166,1358.03 290.41,1358.51 292.655,1358.98 294.899,1359.45 297.143,1359.9 299.387,1360.35 301.631,1360.79 303.875,1361.23 306.119,1361.65 308.363,1362.07 310.607,1362.48 312.852,1362.9 315.096,1363.3 317.34,1363.71 319.584,1364.1 321.828,1364.49 324.072,1364.87 326.316,1365.24 328.56,1365.61 330.805,1365.96 333.049,1366.32 335.293,1366.67 337.537,1367.02 339.781,1367.36 342.025,1367.69 344.269,1368.01 346.513,1368.33 348.758,1368.65 351.002,1368.96 353.246,1369.27 355.49,1369.57 357.734,1369.87 359.978,1370.16 362.222,1370.45 364.466,1370.73 366.71,1371 368.955,1371.27 371.199,1371.54 373.443,1371.8 375.687,1372.06 377.931,1372.31 380.175,1372.56 382.419,1372.8 384.663,1373.04 386.908,1373.27 389.152,1373.5 391.396,1373.73 393.64,1373.95 395.884,1374.17 398.128,1374.39 400.372,1374.59 402.616,1374.8 404.86,1375 407.105,1375.2 409.349,1375.39 411.593,1375.58 413.837,1375.77 416.081,1375.95 418.325,1376.13 420.569,1376.31 422.813,1376.48 425.058,1376.65 427.302,1376.81 429.546,1376.97 431.79,1377.13 434.034,1377.29 436.278,1377.44 438.522,1377.59 440.766,1377.74 443.011,1377.88 445.255,1378.02 447.499,1378.16 449.743,1378.29 451.987,1378.43 454.231,1378.55 456.475,1378.68 458.719,1378.81 460.963,1378.93 463.208,1379.05 465.452,1379.17 467.696,1379.28 469.94,1379.39 472.184,1379.5 474.428,1379.61 476.672,1379.71 478.916,1379.81 481.161,1379.91 483.405,1380.01 485.649,1380.11 487.893,1380.2 490.137,1380.29 492.381,1380.38 494.625,1380.47 496.869,1380.56 499.113,1380.64 501.358,1380.73 503.602,1380.81 505.846,1380.89 508.09,1380.96 510.334,1381.04 512.578,1381.11 514.822,1381.18 517.066,1381.25 519.311,1381.32 521.555,1381.39 523.799,1381.46 526.043,1381.52 528.287,1381.58 530.531,1381.65 532.775,1381.71 535.019,1381.76 537.264,1381.82 539.508,1381.88 541.752,1381.93 543.996,1381.99 546.24,1382.04 548.484,1382.09 550.728,1382.14 552.972,1382.19 555.216,1382.24 557.461,1382.28 559.705,1382.33 561.949,1382.37 564.193,1382.42 566.437,1382.46 568.681,1382.5 570.925,1382.54 573.169,1382.58 575.414,1382.62 577.658,1382.66 579.902,1382.7 582.146,1382.74 584.39,1382.77 586.634,1382.81 588.878,1382.84 591.122,1382.87 593.367,1382.91 595.611,1382.94 597.855,1382.97 600.099,1383 602.343,1383.03 604.587,1383.06 606.831,1383.09 609.075,1383.11 611.319,1383.14 613.564,1383.17 615.808,1383.19 618.052,1383.22 620.296,1383.24 622.54,1383.26 624.784,1383.29 627.028,1383.31 629.272,1383.33 631.517,1383.35 633.761,1383.38 636.005,1383.4 638.249,1383.42 640.493,1383.44 642.737,1383.46 644.981,1383.47 647.225,1383.49 649.469,1383.51 651.714,1383.53 653.958,1383.54 656.202,1383.56 658.446,1383.58 660.69,1383.59 662.934,1383.61 665.178,1383.62 667.422,1383.64 669.667,1383.65 671.911,1383.67 674.155,1383.68 676.399,1383.69 678.643,1383.71 680.887,1383.72 683.131,1383.73 685.375,1383.74 687.62,1383.76 689.864,1383.77 692.108,1383.78 694.352,1383.79 696.596,1383.8 698.84,1383.81 701.084,1383.82 703.328,1383.83 705.572,1383.84 707.817,1383.85 710.061,1383.86 712.305,1383.87 714.549,1383.88 716.793,1383.89 719.037,1383.9 721.281,1383.9 723.525,1383.91 725.77,1383.92 728.014,1383.93 730.258,1383.93 732.502,1383.94 734.746,1383.95 736.99,1383.96 739.234,1383.96 741.478,1383.97 743.722,1383.98 745.967,1383.98 748.211,1383.99 750.455,1383.99 752.699,1384 754.943,1384.01 757.187,1384.01 759.431,1384.02 761.675,1384.02 763.92,1384.03 766.164,1384.03 768.408,1384.04 770.652,1384.04 772.896,1384.05 775.14,1384.05 777.384,1384.06 779.628,1384.06 781.873,1384.07 784.117,1384.07 786.361,1384.07 788.605,1384.08 790.849,1384.08 793.093,1384.09 795.337,1384.09 797.581,1384.09 799.825,1384.1 802.07,1384.1 804.314,1384.1 806.558,1384.11 808.802,1384.11 811.046,1384.11 813.29,1384.12 815.534,1384.12 817.778,1384.12 820.023,1384.12 822.267,1384.13 824.511,1384.13 826.755,1384.13 828.999,1384.13 831.243,1384.14 833.487,1384.14 835.731,1384.14 837.975,1384.14 840.22,1384.15 842.464,1384.15 844.708,1384.15 846.952,1384.15 849.196,1384.16 851.44,1384.16 853.684,1384.16 855.928,1384.16 858.173,1384.16 860.417,1384.16 862.661,1384.17 864.905,1384.17 867.149,1384.17 869.393,1384.17 871.637,1384.17 873.881,1384.17 876.126,1384.18 878.37,1384.18 880.614,1384.18 882.858,1384.18 885.102,1384.18 887.346,1384.18 889.59,1384.18 891.834,1384.19 894.078,1384.19 896.323,1384.19 898.567,1384.19 900.811,1384.19 903.055,1384.19 905.299,1384.19 907.543,1384.19 909.787,1384.2 912.031,1384.2 914.276,1384.2 916.52,1384.2 918.764,1384.2 921.008,1384.2 923.252,1384.2 925.496,1384.2 927.74,1384.2 929.984,1384.2 932.228,1384.2 934.473,1384.21 936.717,1384.21 938.961,1384.21 941.205,1384.21 943.449,1384.21 945.693,1384.21 947.937,1384.21 950.181,1384.21 952.426,1384.21 954.67,1384.21 956.914,1384.21 959.158,1384.21 961.402,1384.21 963.646,1384.21 965.89,1384.22 968.134,1384.22 970.379,1384.22 972.623,1384.22 974.867,1384.22 977.111,1384.22 979.355,1384.22 981.599,1384.22 983.843,1384.22 986.087,1384.22 988.331,1384.22 990.576,1384.22 992.82,1384.22 995.064,1384.22 997.308,1384.22 999.552,1384.22 1001.8,1384.22 1004.04,1384.22 1006.28,1384.22 1008.53,1384.22 1010.77,1384.22 1013.02,1384.22 1015.26,1384.22 1017.51,1384.23 1019.75,1384.23 1021.99,1384.23 1024.24,1384.23 1026.48,1384.23 1028.73,1384.23 1030.97,1384.23 1033.21,1384.23 1035.46,1384.23 1037.7,1384.23 1039.95,1384.23 1042.19,1384.23 1044.43,1384.23 1046.68,1384.23 1048.92,1384.23 1051.17,1384.23 1053.41,1384.23 1055.66,1384.23 1057.9,1384.23 1060.14,1384.23 1062.39,1384.23 1064.63,1384.23 1066.88,1384.23 1069.12,1384.23 1071.36,1384.23 1073.61,1384.23 1075.85,1384.23 1078.1,1384.23 1080.34,1384.23 1082.58,1384.23 1084.83,1384.23 1087.07,1384.23 1089.32,1384.23 1091.56,1384.23 1093.81,1384.23 1096.05,1384.23 1098.29,1384.23 1100.54,1384.23 1102.78,1384.23 1105.03,1384.23 1107.27,1384.23 1109.51,1384.23 1111.76,1384.23 1114,1384.23 1116.25,1384.23 1118.49,1384.23 1120.73,1384.23 1122.98,1384.23 1125.22,1384.23 1127.47,1384.23 1129.71,1384.23 1131.96,1384.23 1134.2,1384.23 1136.44,1384.23 1138.69,1384.23 1140.93,1384.23 1143.18,1384.24 1145.42,1384.24 1147.66,1384.24 1149.91,1384.24 1152.15,1384.24 1154.4,1384.24 1156.64,1384.24 1158.88,1384.24 1161.13,1384.24 1163.37,1384.24 1165.62,1384.24 1167.86,1384.24 1170.11,1384.24 1172.35,1384.24 1174.59,1384.24 1176.84,1384.24 1179.08,1384.24 1181.33,1384.24 1183.57,1384.24 1185.81,1384.24 1188.06,1384.24 1190.3,1384.24 1192.55,1384.24 1194.79,1384.24 1197.03,1384.24 1199.28,1384.24 1201.52,1384.24 1203.77,1384.24 1206.01,1384.24 1208.26,1384.24 1210.5,1384.24 1212.74,1384.24 1214.99,1384.24 1217.23,1384.24 1219.48,1384.24 1221.72,1384.24 1223.96,1384.24 1226.21,1384.24 1228.45,1384.24 1230.7,1384.24 1232.94,1384.24 1235.18,1384.24 1237.43,1384.24 1239.67,1384.24 1241.92,1384.24 1244.16,1384.24 1246.41,1384.24 1248.65,1384.24 1250.89,1384.24 1253.14,1384.24 1255.38,1384.24 1257.63,1384.24 1259.87,1384.24 1262.11,1384.24 1264.36,1384.24 1266.6,1384.24 1268.85,1384.24 1271.09,1384.24 1273.33,1384.24 1275.58,1384.24 1277.82,1384.24 1280.07,1384.24 1282.31,1384.24 1284.56,1384.24 1286.8,1384.24 1289.04,1384.24 1291.29,1384.24 1293.53,1384.24 1295.78,1384.24 1298.02,1384.24 1300.26,1384.24 1302.51,1384.24 1304.75,1384.24 1307,1384.24 1309.24,1384.24 1311.48,1384.24 1313.73,1384.24 1315.97,1384.24 1318.22,1384.24 1320.46,1384.24 1322.71,1384.24 1324.95,1384.24 1327.19,1384.24 1329.44,1384.24 1331.68,1384.24 1333.93,1384.24 1336.17,1384.24 1338.41,1384.24 1340.66,1384.24 1342.9,1384.24 1345.15,1384.24 1347.39,1384.24 1349.63,1384.24 1351.88,1384.24 1354.12,1384.24 1356.37,1384.24 1358.61,1384.24 1360.86,1384.24 1363.1,1384.24 1365.34,1384.24 1367.59,1384.24 1369.83,1384.24 1372.08,1384.24 1374.32,1384.24 1376.56,1384.24 1378.81,1384.24 1381.05,1384.24 1383.3,1384.24 1385.54,1384.24 1387.78,1384.24 1390.03,1384.24 1392.27,1384.24 1394.52,1384.24 1396.76,1384.24 1399.01,1384.24 1401.25,1384.24 1403.49,1384.24 1405.74,1384.24 1407.98,1384.24 1410.23,1384.24 1412.47,1384.24 1414.71,1384.24 1416.96,1384.24 1419.2,1384.24 1421.45,1384.24 1423.69,1384.24 1425.93,1384.24 1428.18,1384.24 1430.42,1384.24 1432.67,1384.24 1434.91,1384.24 1437.16,1384.24 1439.4,1384.24 1441.64,1384.24 1443.89,1384.24 1446.13,1384.24 1448.38,1384.24 1450.62,1384.24 1452.86,1384.24 1455.11,1384.24 1457.35,1384.24 1459.6,1384.24 1461.84,1384.24 1464.08,1384.24 1466.33,1384.24 1468.57,1384.24 1470.82,1384.24 1473.06,1384.24 1475.31,1384.24 1477.55,1384.24 1479.79,1384.24 1482.04,1384.24 1484.28,1384.24 1486.53,1384.24 1488.77,1384.24 1491.01,1384.24 1493.26,1384.24 1495.5,1384.24 1497.75,1384.24 1499.99,1384.24 1502.23,1384.24 1504.48,1384.24 1506.72,1384.24 1508.97,1384.24 1511.21,1384.24 1513.46,1384.24 1515.7,1384.24 1517.94,1384.24 1520.19,1384.24 1522.43,1384.24 1524.68,1384.24 1526.92,1384.24 1529.16,1384.24 1531.41,1384.24 1533.65,1384.24 1535.9,1384.24 1538.14,1384.24 1540.38,1384.24 1542.63,1384.24 1544.87,1384.24 1547.12,1384.24 1549.36,1384.24 1551.61,1384.24 1553.85,1384.24 1556.09,1384.24 1558.34,1384.24 1560.58,1384.24 1562.83,1384.24 1565.07,1384.24 1567.31,1384.24 1569.56,1384.24 1571.8,1384.24 1574.05,1384.24 1576.29,1384.24 1578.53,1384.24 1580.78,1384.24 1583.02,1384.24 1585.27,1384.24 1587.51,1384.24 1589.76,1384.24 1592,1384.24 1594.24,1384.24 1596.49,1384.24 1598.73,1384.24 1600.98,1384.24 1603.22,1384.24 1605.46,1384.24 1607.71,1384.24 1609.95,1384.24 1612.2,1384.24 1614.44,1384.24 1616.68,1384.24 1618.93,1384.24 1621.17,1384.24 1623.42,1384.24 1625.66,1384.24 1627.91,1384.24 1630.15,1384.24 1632.39,1384.24 1634.64,1384.24 1636.88,1384.24 1639.13,1384.24 1641.37,1384.24 1643.61,1384.24 1645.86,1384.24 1648.1,1384.24 1650.35,1384.24 1652.59,1384.24 1654.83,1384.24 1657.08,1384.24 1659.32,1384.24 1661.57,1384.24 1663.81,1384.24 1666.06,1384.24 1668.3,1384.24 1670.54,1384.24 1672.79,1384.24 1675.03,1384.24 1677.28,1384.24 1679.52,1384.24 1681.76,1384.24 1684.01,1384.24 1686.25,1384.24 1688.5,1384.24 1690.74,1384.24 1692.98,1384.24 1695.23,1384.24 1697.47,1384.24 1699.72,1384.24 1701.96,1384.24 1704.21,1384.24 1706.45,1384.24 1708.69,1384.24 1710.94,1384.24 1713.18,1384.24 1715.43,1384.24 1717.67,1384.24 1719.91,1384.24 1722.16,1384.24 1724.4,1384.24 1726.65,1384.24 1728.89,1384.24 1731.13,1384.24 1733.38,1384.24 1735.62,1384.24 1737.87,1384.24 1740.11,1384.24 1742.36,1384.24 1744.6,1384.24 1746.84,1384.24 1749.09,1384.24 1751.33,1384.24 1753.58,1384.24 1755.82,1384.24 1758.06,1384.24 1760.31,1384.24 1762.55,1384.24 1764.8,1384.24 1767.04,1384.24 1769.28,1384.24 1771.53,1384.24 1773.77,1384.24 1776.02,1384.24 1778.26,1384.24 1780.51,1384.24 1782.75,1384.24 1784.99,1384.24 1787.24,1384.24 1789.48,1384.24 1791.73,1384.24 1793.97,1384.24 1796.21,1384.24 1798.46,1384.24 1800.7,1384.24 1802.95,1384.24 1805.19,1384.24 1807.43,1384.24 1809.68,1384.24 1811.92,1384.24 1814.17,1384.24 1816.41,1384.24 1818.66,1384.24 1820.9,1384.24 1823.14,1384.24 1825.39,1384.24 1827.63,1384.24 1829.88,1384.24 1832.12,1384.24 1834.36,1384.24 1836.61,1384.24 1838.85,1384.24 1841.1,1384.24 1843.34,1384.24 1845.58,1384.24 1847.83,1384.24 1850.07,1384.24 1852.32,1384.24 1854.56,1384.24 1856.81,1384.24 1859.05,1384.24 1861.29,1384.24 1863.54,1384.24 1865.78,1384.24 1868.03,1384.24 1870.27,1384.24 1872.51,1384.24 1874.76,1384.24 1877,1384.24 1879.25,1384.24 1881.49,1384.24 1883.74,1384.24 1885.98,1384.24 1888.22,1384.24 1890.47,1384.24 1892.71,1384.24 1894.96,1384.24 1897.2,1384.24 1899.44,1384.24 1901.69,1384.24 1903.93,1384.24 1906.18,1384.24 1908.42,1384.24 1910.66,1384.24 1912.91,1384.24 1915.15,1384.24 1917.4,1384.24 1919.64,1384.24 1921.89,1384.24 1924.13,1384.24 1926.37,1384.24 1928.62,1384.24 1930.86,1384.24 1933.11,1384.24 1935.35,1384.24 1937.59,1384.24 1939.84,1384.24 1942.08,1384.24 1944.33,1384.24 1946.57,1384.24 1948.81,1384.24 1951.06,1384.24 1953.3,1384.24 1955.55,1384.24 1957.79,1384.24 1960.04,1384.24 1962.28,1384.24 1964.52,1384.24 1966.77,1384.24 1969.01,1384.24 1971.26,1384.24 1973.5,1384.24 1975.74,1384.24 1977.99,1384.24 1980.23,1384.24 1982.48,1384.24 1984.72,1384.24 1986.96,1384.24 1989.21,1384.24 1991.45,1384.24 1993.7,1384.24 1995.94,1384.24 1998.19,1384.24 2000.43,1384.24 2002.67,1384.24 2004.92,1384.24 2007.16,1384.24 2009.41,1384.24 2011.65,1384.24 2013.89,1384.24 2016.14,1384.24 2018.38,1384.24 2020.63,1384.24 2022.87,1384.24 2025.11,1384.24 2027.36,1384.24 2029.6,1384.24 2031.85,1384.24 2034.09,1384.24 2036.34,1384.24 2038.58,1384.24 2040.82,1384.24 2043.07,1384.24 2045.31,1384.24 2047.56,1384.24 2049.8,1384.24 2052.04,1384.24 2054.29,1384.24 2056.53,1384.24 2058.78,1384.24 2061.02,1384.24 2063.26,1384.24 2065.51,1384.24 2067.75,1384.24 2070,1384.24 2072.24,1384.24 2074.49,1384.24 2076.73,1384.24 2078.97,1384.24 2081.22,1384.24 2083.46,1384.24 2085.71,1384.24 2087.95,1384.24 2090.19,1384.24 2092.44,1384.24 2094.68,1384.24 2096.93,1384.24 2099.17,1384.24 2101.41,1384.24 2103.66,1384.24 2105.9,1384.24 2108.15,1384.24 2110.39,1384.24 2112.64,1384.24 2114.88,1384.24 2117.12,1384.24 2119.37,1384.24 2121.61,1384.24 2123.86,1384.24 2126.1,1384.24 2128.34,1384.24 2130.59,1384.24 2132.83,1384.24 2135.08,1384.24 2137.32,1384.24 2139.56,1384.24 2141.81,1384.24 2144.05,1384.24 2146.3,1384.24 2148.54,1384.24 2150.79,1384.24 2153.03,1384.24 2155.27,1384.24 2157.52,1384.24 2159.76,1384.24 2162.01,1384.24 2164.25,1384.24 2166.49,1384.24 2168.74,1384.24 2170.98,1384.24 2173.23,1384.24 2175.47,1384.24 2177.71,1384.24 2179.96,1384.24 2182.2,1384.24 2184.45,1384.24 2186.69,1384.24 2188.94,1384.24 2191.18,1384.24 2193.42,1384.24 2195.67,1384.24 2197.91,1384.24 2200.16,1384.24 2202.4,1384.24 2204.64,1384.24 2206.89,1384.24 2209.13,1384.24 2211.38,1384.24 2213.62,1384.24 2215.86,1384.24 2218.11,1384.24 2220.35,1384.24 2222.6,1384.24 2224.84,1384.24 2227.09,1384.24 2229.33,1384.24 2231.57,1384.24 2233.82,1384.24 2236.06,1384.24 2238.31,1384.24 2240.55,1384.24 2242.79,1384.24 2245.04,1384.24 2247.28,1384.24 2249.53,1384.24 2251.77,1384.24 2254.01,1384.24 2256.26,1384.24 2258.5,1384.24 2260.75,1384.24 2262.99,1384.24 2265.24,1384.24 2267.48,1384.24 2269.72,1384.24 2271.97,1384.24 2274.21,1384.24 2276.46,1384.24 2278.7,1384.24 2280.94,1384.24 2283.19,1384.24 2285.43,1384.24 2287.68,1384.24 2289.92,1384.24 2292.16,1384.24 2294.41,1384.24 2296.65,1384.24 2298.9,1384.24 2301.14,1384.24 2303.39,1384.24 2305.63,1384.24 2307.87,1384.24 2310.12,1384.24 2312.36,1384.24 2314.61,1384.24 2316.85,1384.24 2319.09,1384.24 2321.34,1384.24 2323.58,1384.24 2325.83,1384.24 2328.07,1384.24 2330.31,1384.24 2332.56,1384.24 2334.8,1384.24 2337.05,1384.24 2339.29,1384.24 2341.54,1384.24 2343.78,1384.24 2346.02,1384.24 2348.27,1384.24 2350.51,1384.24 2352.76,1384.24 "/>
<path clip-path="url(#clip910)" d="M185.61 248.629 L477.343 248.629 L477.343 93.1086 L185.61 93.1086  Z" fill="#ffffff" fill-rule="evenodd" fill-opacity="1"/>
<polyline clip-path="url(#clip910)" style="stroke:#000000; stroke-linecap:round; stroke-linejoin:round; stroke-width:4; stroke-opacity:1; fill:none" points="185.61,248.629 477.343,248.629 477.343,93.1086 185.61,93.1086 185.61,248.629 "/>
<polyline clip-path="url(#clip910)" style="stroke:#009af9; stroke-linecap:round; stroke-linejoin:round; stroke-width:4; stroke-opacity:1; fill:none" points="210.52,144.949 359.978,144.949 "/>
<path clip-path="url(#clip910)" d="M404.147 145.794 L389.402 145.794 Q389.749 152.715 391.346 155.655 Q393.337 159.266 396.786 159.266 Q400.258 159.266 402.179 155.631 Q403.869 152.437 404.147 145.794 M404.078 141.858 Q403.429 135.284 402.179 132.97 Q400.189 129.312 396.786 129.312 Q393.244 129.312 391.369 132.923 Q389.888 135.84 389.448 141.858 L404.078 141.858 M396.786 125.84 Q402.341 125.84 405.513 130.747 Q408.684 135.632 408.684 144.289 Q408.684 152.923 405.513 157.83 Q402.341 162.761 396.786 162.761 Q391.207 162.761 388.059 157.83 Q384.888 152.923 384.888 144.289 Q384.888 135.632 388.059 130.747 Q391.207 125.84 396.786 125.84 Z" fill="#000000" fill-rule="nonzero" fill-opacity="1" /><polyline clip-path="url(#clip910)" style="stroke:#e26f46; stroke-linecap:round; stroke-linejoin:round; stroke-width:4; stroke-opacity:1; fill:none" points="210.52,196.789 359.978,196.789 "/>
<path clip-path="url(#clip910)" d="M404.147 197.634 L389.402 197.634 Q389.749 204.555 391.346 207.495 Q393.337 211.106 396.786 211.106 Q400.258 211.106 402.179 207.471 Q403.869 204.277 404.147 197.634 M404.078 193.698 Q403.429 187.124 402.179 184.81 Q400.189 181.152 396.786 181.152 Q393.244 181.152 391.369 184.763 Q389.888 187.68 389.448 193.698 L404.078 193.698 M396.786 177.68 Q402.341 177.68 405.513 182.587 Q408.684 187.472 408.684 196.129 Q408.684 204.763 405.513 209.67 Q402.341 214.601 396.786 214.601 Q391.207 214.601 388.059 209.67 Q384.888 204.763 384.888 196.129 Q384.888 187.472 388.059 182.587 Q391.207 177.68 396.786 177.68 Z" fill="#000000" fill-rule="nonzero" fill-opacity="1" /><path clip-path="url(#clip910)" d="M416.207 218.05 L430.05 218.05 L430.05 221.476 L416.207 221.476 L416.207 218.05 Z" fill="#000000" fill-rule="nonzero" fill-opacity="1" /><path clip-path="url(#clip910)" d="M443.661 180.782 L443.661 188.143 L452.434 188.143 L452.434 191.453 L443.661 191.453 L443.661 205.527 Q443.661 208.698 444.517 209.601 Q445.397 210.504 448.059 210.504 L452.434 210.504 L452.434 214.069 L448.059 214.069 Q443.128 214.069 441.253 212.24 Q439.378 210.388 439.378 205.527 L439.378 191.453 L436.253 191.453 L436.253 188.143 L439.378 188.143 L439.378 180.782 L443.661 180.782 Z" fill="#000000" fill-rule="nonzero" fill-opacity="1" /></svg>
