<?xml version="1.0" encoding="utf-8"?>
<svg xmlns="http://www.w3.org/2000/svg" xmlns:xlink="http://www.w3.org/1999/xlink" width="600" height="400" viewBox="0 0 2400 1600">
<defs>
  <clipPath id="clip580">
    <rect x="0" y="0" width="2400" height="1600"/>
  </clipPath>
</defs>
<path clip-path="url(#clip580)" d="M0 1600 L2400 1600 L2400 0 L0 0  Z" fill="#ffffff" fill-rule="evenodd" fill-opacity="1"/>
<defs>
  <clipPath id="clip581">
    <rect x="110" y="47" width="2243" height="1377"/>
  </clipPath>
</defs>
<path clip-path="url(#clip580)" d="M110.881 1423.18 L2352.76 1423.18 L2352.76 47.2441 L110.881 47.2441  Z" fill="#ffffff" fill-rule="evenodd" fill-opacity="1"/>
<polyline clip-path="url(#clip581)" style="stroke:#000000; stroke-linecap:round; stroke-linejoin:round; stroke-width:2; stroke-opacity:0.1; fill:none" points="110.881,1423.18 110.881,47.2441 "/>
<polyline clip-path="url(#clip581)" style="stroke:#000000; stroke-linecap:round; stroke-linejoin:round; stroke-width:2; stroke-opacity:0.1; fill:none" points="484.527,1423.18 484.527,47.2441 "/>
<polyline clip-path="url(#clip581)" style="stroke:#000000; stroke-linecap:round; stroke-linejoin:round; stroke-width:2; stroke-opacity:0.1; fill:none" points="858.173,1423.18 858.173,47.2441 "/>
<polyline clip-path="url(#clip581)" style="stroke:#000000; stroke-linecap:round; stroke-linejoin:round; stroke-width:2; stroke-opacity:0.1; fill:none" points="1231.82,1423.18 1231.82,47.2441 "/>
<polyline clip-path="url(#clip581)" style="stroke:#000000; stroke-linecap:round; stroke-linejoin:round; stroke-width:2; stroke-opacity:0.1; fill:none" points="1605.46,1423.18 1605.46,47.2441 "/>
<polyline clip-path="url(#clip581)" style="stroke:#000000; stroke-linecap:round; stroke-linejoin:round; stroke-width:2; stroke-opacity:0.1; fill:none" points="1979.11,1423.18 1979.11,47.2441 "/>
<polyline clip-path="url(#clip581)" style="stroke:#000000; stroke-linecap:round; stroke-linejoin:round; stroke-width:2; stroke-opacity:0.1; fill:none" points="2352.76,1423.18 2352.76,47.2441 "/>
<polyline clip-path="url(#clip581)" style="stroke:#000000; stroke-linecap:round; stroke-linejoin:round; stroke-width:2; stroke-opacity:0.1; fill:none" points="110.881,1384.24 2352.76,1384.24 "/>
<polyline clip-path="url(#clip581)" style="stroke:#000000; stroke-linecap:round; stroke-linejoin:round; stroke-width:2; stroke-opacity:0.1; fill:none" points="110.881,971.538 2352.76,971.538 "/>
<polyline clip-path="url(#clip581)" style="stroke:#000000; stroke-linecap:round; stroke-linejoin:round; stroke-width:2; stroke-opacity:0.1; fill:none" points="110.881,558.838 2352.76,558.838 "/>
<polyline clip-path="url(#clip581)" style="stroke:#000000; stroke-linecap:round; stroke-linejoin:round; stroke-width:2; stroke-opacity:0.1; fill:none" points="110.881,146.138 2352.76,146.138 "/>
<polyline clip-path="url(#clip580)" style="stroke:#000000; stroke-linecap:round; stroke-linejoin:round; stroke-width:4; stroke-opacity:1; fill:none" points="110.881,1423.18 2352.76,1423.18 "/>
<polyline clip-path="url(#clip580)" style="stroke:#000000; stroke-linecap:round; stroke-linejoin:round; stroke-width:4; stroke-opacity:1; fill:none" points="110.881,1423.18 110.881,1404.28 "/>
<polyline clip-path="url(#clip580)" style="stroke:#000000; stroke-linecap:round; stroke-linejoin:round; stroke-width:4; stroke-opacity:1; fill:none" points="484.527,1423.18 484.527,1404.28 "/>
<polyline clip-path="url(#clip580)" style="stroke:#000000; stroke-linecap:round; stroke-linejoin:round; stroke-width:4; stroke-opacity:1; fill:none" points="858.173,1423.18 858.173,1404.28 "/>
<polyline clip-path="url(#clip580)" style="stroke:#000000; stroke-linecap:round; stroke-linejoin:round; stroke-width:4; stroke-opacity:1; fill:none" points="1231.82,1423.18 1231.82,1404.28 "/>
<polyline clip-path="url(#clip580)" style="stroke:#000000; stroke-linecap:round; stroke-linejoin:round; stroke-width:4; stroke-opacity:1; fill:none" points="1605.46,1423.18 1605.46,1404.28 "/>
<polyline clip-path="url(#clip580)" style="stroke:#000000; stroke-linecap:round; stroke-linejoin:round; stroke-width:4; stroke-opacity:1; fill:none" points="1979.11,1423.18 1979.11,1404.28 "/>
<polyline clip-path="url(#clip580)" style="stroke:#000000; stroke-linecap:round; stroke-linejoin:round; stroke-width:4; stroke-opacity:1; fill:none" points="2352.76,1423.18 2352.76,1404.28 "/>
<path clip-path="url(#clip580)" d="M110.881 1454.1 Q107.27 1454.1 105.441 1457.66 Q103.636 1461.2 103.636 1468.33 Q103.636 1475.44 105.441 1479.01 Q107.27 1482.55 110.881 1482.55 Q114.515 1482.55 116.321 1479.01 Q118.149 1475.44 118.149 1468.33 Q118.149 1461.2 116.321 1457.66 Q114.515 1454.1 110.881 1454.1 M110.881 1450.39 Q116.691 1450.39 119.747 1455 Q122.825 1459.58 122.825 1468.33 Q122.825 1477.06 119.747 1481.67 Q116.691 1486.25 110.881 1486.25 Q105.071 1486.25 101.992 1481.67 Q98.9365 1477.06 98.9365 1468.33 Q98.9365 1459.58 101.992 1455 Q105.071 1450.39 110.881 1450.39 Z" fill="#000000" fill-rule="nonzero" fill-opacity="1" /><path clip-path="url(#clip580)" d="M463.3 1481.64 L479.619 1481.64 L479.619 1485.58 L457.675 1485.58 L457.675 1481.64 Q460.337 1478.89 464.92 1474.26 Q469.527 1469.61 470.707 1468.27 Q472.953 1465.74 473.832 1464.01 Q474.735 1462.25 474.735 1460.56 Q474.735 1457.8 472.791 1456.07 Q470.869 1454.33 467.768 1454.33 Q465.568 1454.33 463.115 1455.09 Q460.684 1455.86 457.906 1457.41 L457.906 1452.69 Q460.731 1451.55 463.184 1450.97 Q465.638 1450.39 467.675 1450.39 Q473.045 1450.39 476.24 1453.08 Q479.434 1455.77 479.434 1460.26 Q479.434 1462.39 478.624 1464.31 Q477.837 1466.2 475.73 1468.8 Q475.152 1469.47 472.05 1472.69 Q468.948 1475.88 463.3 1481.64 Z" fill="#000000" fill-rule="nonzero" fill-opacity="1" /><path clip-path="url(#clip580)" d="M499.434 1454.1 Q495.823 1454.1 493.994 1457.66 Q492.189 1461.2 492.189 1468.33 Q492.189 1475.44 493.994 1479.01 Q495.823 1482.55 499.434 1482.55 Q503.068 1482.55 504.874 1479.01 Q506.703 1475.44 506.703 1468.33 Q506.703 1461.2 504.874 1457.66 Q503.068 1454.1 499.434 1454.1 M499.434 1450.39 Q505.244 1450.39 508.3 1455 Q511.378 1459.58 511.378 1468.33 Q511.378 1477.06 508.3 1481.67 Q505.244 1486.25 499.434 1486.25 Q493.624 1486.25 490.545 1481.67 Q487.49 1477.06 487.49 1468.33 Q487.49 1459.58 490.545 1455 Q493.624 1450.39 499.434 1450.39 Z" fill="#000000" fill-rule="nonzero" fill-opacity="1" /><path clip-path="url(#clip580)" d="M846.344 1455.09 L834.538 1473.54 L846.344 1473.54 L846.344 1455.09 M845.117 1451.02 L850.997 1451.02 L850.997 1473.54 L855.927 1473.54 L855.927 1477.43 L850.997 1477.43 L850.997 1485.58 L846.344 1485.58 L846.344 1477.43 L830.742 1477.43 L830.742 1472.92 L845.117 1451.02 Z" fill="#000000" fill-rule="nonzero" fill-opacity="1" /><path clip-path="url(#clip580)" d="M873.659 1454.1 Q870.047 1454.1 868.219 1457.66 Q866.413 1461.2 866.413 1468.33 Q866.413 1475.44 868.219 1479.01 Q870.047 1482.55 873.659 1482.55 Q877.293 1482.55 879.098 1479.01 Q880.927 1475.44 880.927 1468.33 Q880.927 1461.2 879.098 1457.66 Q877.293 1454.1 873.659 1454.1 M873.659 1450.39 Q879.469 1450.39 882.524 1455 Q885.603 1459.58 885.603 1468.33 Q885.603 1477.06 882.524 1481.67 Q879.469 1486.25 873.659 1486.25 Q867.848 1486.25 864.77 1481.67 Q861.714 1477.06 861.714 1468.33 Q861.714 1459.58 864.77 1455 Q867.848 1450.39 873.659 1450.39 Z" fill="#000000" fill-rule="nonzero" fill-opacity="1" /><path clip-path="url(#clip580)" d="M1217.22 1466.44 Q1214.08 1466.44 1212.22 1468.59 Q1210.39 1470.74 1210.39 1474.49 Q1210.39 1478.22 1212.22 1480.39 Q1214.08 1482.55 1217.22 1482.55 Q1220.37 1482.55 1222.2 1480.39 Q1224.05 1478.22 1224.05 1474.49 Q1224.05 1470.74 1222.2 1468.59 Q1220.37 1466.44 1217.22 1466.44 M1226.51 1451.78 L1226.51 1456.04 Q1224.75 1455.21 1222.94 1454.77 Q1221.16 1454.33 1219.4 1454.33 Q1214.77 1454.33 1212.32 1457.45 Q1209.89 1460.58 1209.54 1466.9 Q1210.9 1464.89 1212.96 1463.82 Q1215.02 1462.73 1217.5 1462.73 Q1222.71 1462.73 1225.72 1465.9 Q1228.75 1469.05 1228.75 1474.49 Q1228.75 1479.82 1225.6 1483.03 Q1222.46 1486.25 1217.22 1486.25 Q1211.23 1486.25 1208.06 1481.67 Q1204.89 1477.06 1204.89 1468.33 Q1204.89 1460.14 1208.77 1455.28 Q1212.66 1450.39 1219.21 1450.39 Q1220.97 1450.39 1222.76 1450.74 Q1224.56 1451.09 1226.51 1451.78 Z" fill="#000000" fill-rule="nonzero" fill-opacity="1" /><path clip-path="url(#clip580)" d="M1246.81 1454.1 Q1243.2 1454.1 1241.37 1457.66 Q1239.56 1461.2 1239.56 1468.33 Q1239.56 1475.44 1241.37 1479.01 Q1243.2 1482.55 1246.81 1482.55 Q1250.44 1482.55 1252.25 1479.01 Q1254.08 1475.44 1254.08 1468.33 Q1254.08 1461.2 1252.25 1457.66 Q1250.44 1454.1 1246.81 1454.1 M1246.81 1450.39 Q1252.62 1450.39 1255.67 1455 Q1258.75 1459.58 1258.75 1468.33 Q1258.75 1477.06 1255.67 1481.67 Q1252.62 1486.25 1246.81 1486.25 Q1241 1486.25 1237.92 1481.67 Q1234.86 1477.06 1234.86 1468.33 Q1234.86 1459.58 1237.92 1455 Q1241 1450.39 1246.81 1450.39 Z" fill="#000000" fill-rule="nonzero" fill-opacity="1" /><path clip-path="url(#clip580)" d="M1590.34 1469.17 Q1587 1469.17 1585.08 1470.95 Q1583.18 1472.73 1583.18 1475.86 Q1583.18 1478.98 1585.08 1480.77 Q1587 1482.55 1590.34 1482.55 Q1593.67 1482.55 1595.59 1480.77 Q1597.51 1478.96 1597.51 1475.86 Q1597.51 1472.73 1595.59 1470.95 Q1593.69 1469.17 1590.34 1469.17 M1585.66 1467.18 Q1582.65 1466.44 1580.96 1464.38 Q1579.3 1462.32 1579.3 1459.35 Q1579.3 1455.21 1582.24 1452.8 Q1585.2 1450.39 1590.34 1450.39 Q1595.5 1450.39 1598.44 1452.8 Q1601.38 1455.21 1601.38 1459.35 Q1601.38 1462.32 1599.69 1464.38 Q1598.02 1466.44 1595.04 1467.18 Q1598.42 1467.96 1600.29 1470.26 Q1602.19 1472.55 1602.19 1475.86 Q1602.19 1480.88 1599.11 1483.57 Q1596.05 1486.25 1590.34 1486.25 Q1584.62 1486.25 1581.54 1483.57 Q1578.49 1480.88 1578.49 1475.86 Q1578.49 1472.55 1580.38 1470.26 Q1582.28 1467.96 1585.66 1467.18 M1583.95 1459.79 Q1583.95 1462.48 1585.61 1463.98 Q1587.3 1465.49 1590.34 1465.49 Q1593.35 1465.49 1595.04 1463.98 Q1596.75 1462.48 1596.75 1459.79 Q1596.75 1457.11 1595.04 1455.6 Q1593.35 1454.1 1590.34 1454.1 Q1587.3 1454.1 1585.61 1455.6 Q1583.95 1457.11 1583.95 1459.79 Z" fill="#000000" fill-rule="nonzero" fill-opacity="1" /><path clip-path="url(#clip580)" d="M1620.5 1454.1 Q1616.89 1454.1 1615.06 1457.66 Q1613.25 1461.2 1613.25 1468.33 Q1613.25 1475.44 1615.06 1479.01 Q1616.89 1482.55 1620.5 1482.55 Q1624.13 1482.55 1625.94 1479.01 Q1627.77 1475.44 1627.77 1468.33 Q1627.77 1461.2 1625.94 1457.66 Q1624.13 1454.1 1620.5 1454.1 M1620.5 1450.39 Q1626.31 1450.39 1629.36 1455 Q1632.44 1459.58 1632.44 1468.33 Q1632.44 1477.06 1629.36 1481.67 Q1626.31 1486.25 1620.5 1486.25 Q1614.69 1486.25 1611.61 1481.67 Q1608.55 1477.06 1608.55 1468.33 Q1608.55 1459.58 1611.61 1455 Q1614.69 1450.39 1620.5 1450.39 Z" fill="#000000" fill-rule="nonzero" fill-opacity="1" /><path clip-path="url(#clip580)" d="M1938.72 1481.64 L1946.36 1481.64 L1946.36 1455.28 L1938.05 1456.95 L1938.05 1452.69 L1946.31 1451.02 L1950.99 1451.02 L1950.99 1481.64 L1958.62 1481.64 L1958.62 1485.58 L1938.72 1485.58 L1938.72 1481.64 Z" fill="#000000" fill-rule="nonzero" fill-opacity="1" /><path clip-path="url(#clip580)" d="M1978.07 1454.1 Q1974.46 1454.1 1972.63 1457.66 Q1970.82 1461.2 1970.82 1468.33 Q1970.82 1475.44 1972.63 1479.01 Q1974.46 1482.55 1978.07 1482.55 Q1981.7 1482.55 1983.51 1479.01 Q1985.34 1475.44 1985.34 1468.33 Q1985.34 1461.2 1983.51 1457.66 Q1981.7 1454.1 1978.07 1454.1 M1978.07 1450.39 Q1983.88 1450.39 1986.93 1455 Q1990.01 1459.58 1990.01 1468.33 Q1990.01 1477.06 1986.93 1481.67 Q1983.88 1486.25 1978.07 1486.25 Q1972.26 1486.25 1969.18 1481.67 Q1966.12 1477.06 1966.12 1468.33 Q1966.12 1459.58 1969.18 1455 Q1972.26 1450.39 1978.07 1450.39 Z" fill="#000000" fill-rule="nonzero" fill-opacity="1" /><path clip-path="url(#clip580)" d="M2008.23 1454.1 Q2004.62 1454.1 2002.79 1457.66 Q2000.98 1461.2 2000.98 1468.33 Q2000.98 1475.44 2002.79 1479.01 Q2004.62 1482.55 2008.23 1482.55 Q2011.86 1482.55 2013.67 1479.01 Q2015.5 1475.44 2015.5 1468.33 Q2015.5 1461.2 2013.67 1457.66 Q2011.86 1454.1 2008.23 1454.1 M2008.23 1450.39 Q2014.04 1450.39 2017.1 1455 Q2020.17 1459.58 2020.17 1468.33 Q2020.17 1477.06 2017.1 1481.67 Q2014.04 1486.25 2008.23 1486.25 Q2002.42 1486.25 1999.34 1481.67 Q1996.29 1477.06 1996.29 1468.33 Q1996.29 1459.58 1999.34 1455 Q2002.42 1450.39 2008.23 1450.39 Z" fill="#000000" fill-rule="nonzero" fill-opacity="1" /><path clip-path="url(#clip580)" d="M2312.36 1481.64 L2320 1481.64 L2320 1455.28 L2311.69 1456.95 L2311.69 1452.69 L2319.96 1451.02 L2324.63 1451.02 L2324.63 1481.64 L2332.27 1481.64 L2332.27 1485.58 L2312.36 1485.58 L2312.36 1481.64 Z" fill="#000000" fill-rule="nonzero" fill-opacity="1" /><path clip-path="url(#clip580)" d="M2345.74 1481.64 L2362.06 1481.64 L2362.06 1485.58 L2340.12 1485.58 L2340.12 1481.64 Q2342.78 1478.89 2347.36 1474.26 Q2351.97 1469.61 2353.15 1468.27 Q2355.39 1465.74 2356.27 1464.01 Q2357.18 1462.25 2357.18 1460.56 Q2357.18 1457.8 2355.23 1456.07 Q2353.31 1454.33 2350.21 1454.33 Q2348.01 1454.33 2345.56 1455.09 Q2343.13 1455.86 2340.35 1457.41 L2340.35 1452.69 Q2343.17 1451.55 2345.63 1450.97 Q2348.08 1450.39 2350.12 1450.39 Q2355.49 1450.39 2358.68 1453.08 Q2361.88 1455.77 2361.88 1460.26 Q2361.88 1462.39 2361.07 1464.31 Q2360.28 1466.2 2358.17 1468.8 Q2357.59 1469.47 2354.49 1472.69 Q2351.39 1475.88 2345.74 1481.64 Z" fill="#000000" fill-rule="nonzero" fill-opacity="1" /><path clip-path="url(#clip580)" d="M2381.88 1454.1 Q2378.27 1454.1 2376.44 1457.66 Q2374.63 1461.2 2374.63 1468.33 Q2374.63 1475.44 2376.44 1479.01 Q2378.27 1482.55 2381.88 1482.55 Q2385.51 1482.55 2387.32 1479.01 Q2389.14 1475.44 2389.14 1468.33 Q2389.14 1461.2 2387.32 1457.66 Q2385.51 1454.1 2381.88 1454.1 M2381.88 1450.39 Q2387.69 1450.39 2390.74 1455 Q2393.82 1459.58 2393.82 1468.33 Q2393.82 1477.06 2390.74 1481.67 Q2387.69 1486.25 2381.88 1486.25 Q2376.07 1486.25 2372.99 1481.67 Q2369.93 1477.06 2369.93 1468.33 Q2369.93 1459.58 2372.99 1455 Q2376.07 1450.39 2381.88 1450.39 Z" fill="#000000" fill-rule="nonzero" fill-opacity="1" /><path clip-path="url(#clip580)" d="M1230.88 1522.27 L1230.88 1532.4 L1242.94 1532.4 L1242.94 1536.95 L1230.88 1536.95 L1230.88 1556.3 Q1230.88 1560.66 1232.06 1561.9 Q1233.27 1563.14 1236.93 1563.14 L1242.94 1563.14 L1242.94 1568.04 L1236.93 1568.04 Q1230.15 1568.04 1227.57 1565.53 Q1224.99 1562.98 1224.99 1556.3 L1224.99 1536.95 L1220.69 1536.95 L1220.69 1532.4 L1224.99 1532.4 L1224.99 1522.27 L1230.88 1522.27 Z" fill="#000000" fill-rule="nonzero" fill-opacity="1" /><polyline clip-path="url(#clip580)" style="stroke:#000000; stroke-linecap:round; stroke-linejoin:round; stroke-width:4; stroke-opacity:1; fill:none" points="110.881,1423.18 110.881,47.2441 "/>
<polyline clip-path="url(#clip580)" style="stroke:#000000; stroke-linecap:round; stroke-linejoin:round; stroke-width:4; stroke-opacity:1; fill:none" points="110.881,1384.24 129.779,1384.24 "/>
<polyline clip-path="url(#clip580)" style="stroke:#000000; stroke-linecap:round; stroke-linejoin:round; stroke-width:4; stroke-opacity:1; fill:none" points="110.881,971.538 129.779,971.538 "/>
<polyline clip-path="url(#clip580)" style="stroke:#000000; stroke-linecap:round; stroke-linejoin:round; stroke-width:4; stroke-opacity:1; fill:none" points="110.881,558.838 129.779,558.838 "/>
<polyline clip-path="url(#clip580)" style="stroke:#000000; stroke-linecap:round; stroke-linejoin:round; stroke-width:4; stroke-opacity:1; fill:none" points="110.881,146.138 129.779,146.138 "/>
<path clip-path="url(#clip580)" d="M62.9365 1370.04 Q59.3254 1370.04 57.4967 1373.6 Q55.6912 1377.14 55.6912 1384.27 Q55.6912 1391.38 57.4967 1394.94 Q59.3254 1398.49 62.9365 1398.49 Q66.5707 1398.49 68.3763 1394.94 Q70.205 1391.38 70.205 1384.27 Q70.205 1377.14 68.3763 1373.6 Q66.5707 1370.04 62.9365 1370.04 M62.9365 1366.33 Q68.7467 1366.33 71.8022 1370.94 Q74.8809 1375.52 74.8809 1384.27 Q74.8809 1393 71.8022 1397.61 Q68.7467 1402.19 62.9365 1402.19 Q57.1264 1402.19 54.0477 1397.61 Q50.9921 1393 50.9921 1384.27 Q50.9921 1375.52 54.0477 1370.94 Q57.1264 1366.33 62.9365 1366.33 Z" fill="#000000" fill-rule="nonzero" fill-opacity="1" /><path clip-path="url(#clip580)" d="M54.9736 984.883 L62.6124 984.883 L62.6124 958.517 L54.3023 960.184 L54.3023 955.925 L62.5661 954.258 L67.242 954.258 L67.242 984.883 L74.8809 984.883 L74.8809 988.818 L54.9736 988.818 L54.9736 984.883 Z" fill="#000000" fill-rule="nonzero" fill-opacity="1" /><path clip-path="url(#clip580)" d="M58.5615 572.183 L74.8809 572.183 L74.8809 576.118 L52.9366 576.118 L52.9366 572.183 Q55.5986 569.428 60.1819 564.798 Q64.7883 560.146 65.9689 558.803 Q68.2143 556.28 69.0939 554.544 Q69.9967 552.785 69.9967 551.095 Q69.9967 548.34 68.0522 546.604 Q66.1309 544.868 63.0291 544.868 Q60.83 544.868 58.3763 545.632 Q55.9458 546.396 53.168 547.947 L53.168 543.224 Q55.9921 542.09 58.4458 541.511 Q60.8995 540.933 62.9365 540.933 Q68.3068 540.933 71.5013 543.618 Q74.6957 546.303 74.6957 550.794 Q74.6957 552.923 73.8855 554.845 Q73.0985 556.743 70.992 559.335 Q70.4133 560.007 67.3115 563.224 Q64.2096 566.419 58.5615 572.183 Z" fill="#000000" fill-rule="nonzero" fill-opacity="1" /><path clip-path="url(#clip580)" d="M67.7513 144.783 Q71.1078 145.501 72.9827 147.77 Q74.8809 150.038 74.8809 153.371 Q74.8809 158.487 71.3624 161.288 Q67.8439 164.089 61.3624 164.089 Q59.1865 164.089 56.8717 163.649 Q54.5801 163.232 52.1264 162.376 L52.1264 157.862 Q54.0708 158.996 56.3856 159.575 Q58.7004 160.154 61.2236 160.154 Q65.6217 160.154 67.9133 158.418 Q70.2281 156.681 70.2281 153.371 Q70.2281 150.316 68.0754 148.603 Q65.9457 146.867 62.1263 146.867 L58.0986 146.867 L58.0986 143.024 L62.3115 143.024 Q65.7606 143.024 67.5893 141.658 Q69.418 140.27 69.418 137.677 Q69.418 135.015 67.5198 133.603 Q65.6448 132.168 62.1263 132.168 Q60.205 132.168 58.006 132.584 Q55.8069 133.001 53.168 133.881 L53.168 129.714 Q55.8301 128.973 58.1449 128.603 Q60.4828 128.233 62.543 128.233 Q67.867 128.233 70.9689 130.663 Q74.0707 133.071 74.0707 137.191 Q74.0707 140.061 72.4272 142.052 Q70.7837 144.02 67.7513 144.783 Z" fill="#000000" fill-rule="nonzero" fill-opacity="1" /><polyline clip-path="url(#clip581)" style="stroke:#009af9; stroke-linecap:round; stroke-linejoin:round; stroke-width:4; stroke-opacity:1; fill:none" points="110.881,1384.24 113.125,1376.15 115.369,1355.3 117.613,1326.17 119.857,1292.01 122.101,1254.86 124.346,1215.98 126.59,1176.17 128.834,1136.02 131.078,1095.94 133.322,1056.25 135.566,1017.2 137.81,978.992 140.054,941.805 142.299,905.772 144.543,871.033 146.787,837.673 149.031,805.793 151.275,775.452 153.519,746.689 155.763,719.562 158.007,694.069 160.252,670.218 162.496,647.991 164.74,627.312 166.984,608.106 169.228,590.265 171.472,573.659 173.716,558.159 175.96,543.617 178.204,529.98 180.449,517.167 182.693,505.05 184.937,493.489 187.181,482.471 189.425,471.947 191.669,461.858 193.913,452.163 196.157,442.83 198.402,433.818 200.646,425.087 202.89,416.619 205.134,408.391 207.378,400.378 209.622,392.561 211.866,384.928 214.11,377.464 216.354,370.155 218.599,362.986 220.843,355.952 223.087,349.047 225.331,342.262 227.575,335.589 229.819,329.026 232.063,322.57 234.307,316.218 236.552,309.968 238.796,303.816 241.04,297.765 243.284,291.812 245.528,285.959 247.772,280.205 250.016,274.553 252.26,269.009 254.505,263.567 256.749,258.224 258.993,252.979 261.237,247.832 263.481,242.79 265.725,237.857 267.969,233.045 270.213,228.347 272.457,223.758 274.702,219.277 276.946,214.907 279.19,210.648 281.434,206.501 283.678,202.463 285.922,198.532 288.166,194.709 290.41,190.992 292.655,187.384 294.899,183.883 297.143,180.486 299.387,177.191 301.631,173.996 303.875,170.899 306.119,167.9 308.363,164.998 310.607,162.188 312.852,159.468 315.096,156.837 317.34,154.291 319.584,151.831 321.828,149.454 324.072,147.158 326.316,144.94 328.56,142.797 330.805,140.727 333.049,138.729 335.293,136.801 337.537,134.94 339.781,133.146 342.025,131.414 344.269,129.743 346.513,128.131 348.758,126.576 351.002,125.077 353.246,123.633 355.49,122.241 357.734,120.899 359.978,119.605 362.222,118.358 364.466,117.156 366.71,115.998 368.955,114.883 371.199,113.809 373.443,112.774 375.687,111.777 377.931,110.817 380.175,109.891 382.419,109 384.663,108.142 386.908,107.316 389.152,106.521 391.396,105.755 393.64,105.018 395.884,104.308 398.128,103.624 400.372,102.966 402.616,102.332 404.86,101.722 407.105,101.135 409.349,100.57 411.593,100.026 413.837,99.5028 416.081,98.9989 418.325,98.5137 420.569,98.0467 422.813,97.5973 425.058,97.165 427.302,96.749 429.546,96.3487 431.79,95.9635 434.034,95.5927 436.278,95.2358 438.522,94.8924 440.766,94.5618 443.011,94.2437 445.255,93.9378 447.499,93.6435 449.743,93.3603 451.987,93.0879 454.231,92.8257 456.475,92.5735 458.719,92.3307 460.963,92.097 463.208,91.8722 465.452,91.6559 467.696,91.4479 469.94,91.2478 472.184,91.0554 474.428,90.8702 476.672,90.6921 478.916,90.5206 481.161,90.3557 483.405,90.1969 485.649,90.0442 487.893,89.8972 490.137,89.7559 492.381,89.6201 494.625,89.4894 496.869,89.3637 499.113,89.2427 501.358,89.1264 503.602,89.0144 505.846,88.9066 508.09,88.8029 510.334,88.7031 512.578,88.6072 514.822,88.515 517.066,88.4263 519.311,88.341 521.555,88.2589 523.799,88.18 526.043,88.104 528.287,88.0309 530.531,87.9605 532.775,87.8928 535.019,87.8277 537.264,87.7651 539.508,87.705 541.752,87.6471 543.996,87.5915 546.24,87.5379 548.484,87.4864 550.728,87.4368 552.972,87.3891 555.216,87.3432 557.461,87.299 559.705,87.2565 561.949,87.2157 564.193,87.1765 566.437,87.1387 568.681,87.1024 570.925,87.0675 573.169,87.0339 575.414,87.0016 577.658,86.9705 579.902,86.9405 582.146,86.9117 584.39,86.8839 586.634,86.8573 588.878,86.8317 591.122,86.8071 593.367,86.7835 595.611,86.7607 597.855,86.7388 600.099,86.7177 602.343,86.6974 604.587,86.6779 606.831,86.659 609.075,86.641 611.319,86.6236 613.564,86.6069 615.808,86.5909 618.052,86.5755 620.296,86.5606 622.54,86.5464 624.784,86.5326 627.028,86.5193 629.272,86.5066 631.517,86.4943 633.761,86.4825 636.005,86.4712 638.249,86.4603 640.493,86.4499 642.737,86.4399 644.981,86.4302 647.225,86.4209 649.469,86.4119 651.714,86.4032 653.958,86.3949 656.202,86.3869 658.446,86.3792 660.69,86.3718 662.934,86.3648 665.178,86.358 667.422,86.3514 669.667,86.3451 671.911,86.339 674.155,86.3332 676.399,86.3275 678.643,86.3221 680.887,86.3169 683.131,86.3118 685.375,86.307 687.62,86.3024 689.864,86.298 692.108,86.2938 694.352,86.2897 696.596,86.2857 698.84,86.2819 701.084,86.2782 703.328,86.2746 705.572,86.2712 707.817,86.2679 710.061,86.2648 712.305,86.2618 714.549,86.2589 716.793,86.2562 719.037,86.2535 721.281,86.2509 723.525,86.2484 725.77,86.246 728.014,86.2437 730.258,86.2414 732.502,86.2393 734.746,86.2372 736.99,86.2353 739.234,86.2334 741.478,86.2317 743.722,86.2299 745.967,86.2282 748.211,86.2266 750.455,86.225 752.699,86.2235 754.943,86.222 757.187,86.2206 759.431,86.2193 761.675,86.218 763.92,86.2168 766.164,86.2157 768.408,86.2146 770.652,86.2135 772.896,86.2124 775.14,86.2114 777.384,86.2104 779.628,86.2094 781.873,86.2085 784.117,86.2076 786.361,86.2068 788.605,86.206 790.849,86.2053 793.093,86.2045 795.337,86.2038 797.581,86.2031 799.825,86.2025 802.07,86.2018 804.314,86.2011 806.558,86.2005 808.802,86.2 811.046,86.1994 813.29,86.1989 815.534,86.1984 817.778,86.198 820.023,86.1975 822.267,86.1971 824.511,86.1966 826.755,86.1962 828.999,86.1958 831.243,86.1954 833.487,86.195 835.731,86.1946 837.975,86.1943 840.22,86.1939 842.464,86.1936 844.708,86.1933 846.952,86.193 849.196,86.1927 851.44,86.1924 853.684,86.1921 855.928,86.1919 858.173,86.1916 860.417,86.1914 862.661,86.1912 864.905,86.191 867.149,86.1908 869.393,86.1907 871.637,86.1905 873.881,86.1903 876.126,86.1901 878.37,86.19 880.614,86.1898 882.858,86.1897 885.102,86.1895 887.346,86.1893 889.59,86.1892 891.834,86.189 894.078,86.1889 896.323,86.1888 898.567,86.1886 900.811,86.1885 903.055,86.1884 905.299,86.1882 907.543,86.1881 909.787,86.188 912.031,86.1879 914.276,86.1878 916.52,86.1877 918.764,86.1876 921.008,86.1875 923.252,86.1874 925.496,86.1873 927.74,86.1872 929.984,86.1871 932.228,86.187 934.473,86.187 936.717,86.1869 938.961,86.1868 941.205,86.1867 943.449,86.1867 945.693,86.1866 947.937,86.1866 950.181,86.1865 952.426,86.1865 954.67,86.1864 956.914,86.1864 959.158,86.1863 961.402,86.1863 963.646,86.1863 965.89,86.1862 968.134,86.1862 970.379,86.1862 972.623,86.1862 974.867,86.1861 977.111,86.1861 979.355,86.1861 981.599,86.1861 983.843,86.1861 986.087,86.1861 988.331,86.1861 990.576,86.186 992.82,86.186 995.064,86.186 997.308,86.186 999.552,86.186 1001.8,86.186 1004.04,86.186 1006.28,86.186 1008.53,86.186 1010.77,86.1859 1013.02,86.1859 1015.26,86.1859 1017.51,86.1859 1019.75,86.1859 1021.99,86.1859 1024.24,86.1859 1026.48,86.1859 1028.73,86.1859 1030.97,86.1859 1033.21,86.1859 1035.46,86.1859 1037.7,86.1859 1039.95,86.1858 1042.19,86.1858 1044.43,86.1858 1046.68,86.1858 1048.92,86.1858 1051.17,86.1858 1053.41,86.1858 1055.66,86.1858 1057.9,86.1858 1060.14,86.1858 1062.39,86.1858 1064.63,86.1858 1066.88,86.1858 1069.12,86.1858 1071.36,86.1858 1073.61,86.1858 1075.85,86.1858 1078.1,86.1858 1080.34,86.1858 1082.58,86.1858 1084.83,86.1858 1087.07,86.1858 1089.32,86.1858 1091.56,86.1858 1093.81,86.1858 1096.05,86.1858 1098.29,86.1858 1100.54,86.1858 1102.78,86.1858 1105.03,86.1858 1107.27,86.1858 1109.51,86.1858 1111.76,86.1858 1114,86.1858 1116.25,86.1858 1118.49,86.1858 1120.73,86.1858 1122.98,86.1858 1125.22,86.1858 1127.47,86.1858 1129.71,86.1858 1131.96,86.1858 1134.2,86.1858 1136.44,86.1858 1138.69,86.1858 1140.93,86.1858 1143.18,86.1858 1145.42,86.1858 1147.66,86.1858 1149.91,86.1858 1152.15,86.1857 1154.4,86.1857 1156.64,86.1857 1158.88,86.1857 1161.13,86.1857 1163.37,86.1857 1165.62,86.1857 1167.86,86.1857 1170.11,86.1857 1172.35,86.1857 1174.59,86.1857 1176.84,86.1857 1179.08,86.1857 1181.33,86.1857 1183.57,86.1857 1185.81,86.1857 1188.06,86.1857 1190.3,86.1857 1192.55,86.1857 1194.79,86.1857 1197.03,86.1857 1199.28,86.1857 1201.52,86.1857 1203.77,86.1857 1206.01,86.1857 1208.26,86.1857 1210.5,86.1857 1212.74,86.1857 1214.99,86.1857 1217.23,86.1857 1219.48,86.1857 1221.72,86.1857 1223.96,86.1857 1226.21,86.1857 1228.45,86.1857 1230.7,86.1857 1232.94,86.1857 1235.18,86.1857 1237.43,86.1857 1239.67,86.1857 1241.92,86.1857 1244.16,86.1857 1246.41,86.1857 1248.65,86.1857 1250.89,86.1857 1253.14,86.1857 1255.38,86.1857 1257.63,86.1857 1259.87,86.1857 1262.11,86.1857 1264.36,86.1857 1266.6,86.1857 1268.85,86.1857 1271.09,86.1857 1273.33,86.1857 1275.58,86.1857 1277.82,86.1857 1280.07,86.1857 1282.31,86.1857 1284.56,86.1857 1286.8,86.1857 1289.04,86.1857 1291.29,86.1857 1293.53,86.1857 1295.78,86.1857 1298.02,86.1857 1300.26,86.1857 1302.51,86.1857 1304.75,86.1857 1307,86.1857 1309.24,86.1857 1311.48,86.1857 1313.73,86.1857 1315.97,86.1857 1318.22,86.1857 1320.46,86.1857 1322.71,86.1857 1324.95,86.1857 1327.19,86.1857 1329.44,86.1857 1331.68,86.1857 1333.93,86.1857 1336.17,86.1857 1338.41,86.1857 1340.66,86.1857 1342.9,86.1857 1345.15,86.1857 1347.39,86.1857 1349.63,86.1857 1351.88,86.1857 1354.12,86.1857 1356.37,86.1857 1358.61,86.1857 1360.86,86.1857 1363.1,86.1857 1365.34,86.1857 1367.59,86.1857 1369.83,86.1857 1372.08,86.1857 1374.32,86.1857 1376.56,86.1857 1378.81,86.1857 1381.05,86.1857 1383.3,86.1857 1385.54,86.1857 1387.78,86.1857 1390.03,86.1857 1392.27,86.1857 1394.52,86.1857 1396.76,86.1857 1399.01,86.1857 1401.25,86.1857 1403.49,86.1857 1405.74,86.1857 1407.98,86.1857 1410.23,86.1857 1412.47,86.1857 1414.71,86.1857 1416.96,86.1857 1419.2,86.1857 1421.45,86.1857 1423.69,86.1857 1425.93,86.1857 1428.18,86.1857 1430.42,86.1857 1432.67,86.1857 1434.91,86.1857 1437.16,86.1857 1439.4,86.1857 1441.64,86.1857 1443.89,86.1857 1446.13,86.1857 1448.38,86.1857 1450.62,86.1857 1452.86,86.1857 1455.11,86.1857 1457.35,86.1857 1459.6,86.1857 1461.84,86.1857 1464.08,86.1857 1466.33,86.1857 1468.57,86.1857 1470.82,86.1857 1473.06,86.1857 1475.31,86.1857 1477.55,86.1857 1479.79,86.1857 1482.04,86.1857 1484.28,86.1857 1486.53,86.1857 1488.77,86.1857 1491.01,86.1857 1493.26,86.1857 1495.5,86.1857 1497.75,86.1857 1499.99,86.1857 1502.23,86.1857 1504.48,86.1857 1506.72,86.1857 1508.97,86.1857 1511.21,86.1857 1513.46,86.1857 1515.7,86.1857 1517.94,86.1857 1520.19,86.1857 1522.43,86.1857 1524.68,86.1857 1526.92,86.1857 1529.16,86.1857 1531.41,86.1857 1533.65,86.1857 1535.9,86.1857 1538.14,86.1857 1540.38,86.1857 1542.63,86.1857 1544.87,86.1857 1547.12,86.1857 1549.36,86.1857 1551.61,86.1857 1553.85,86.1857 1556.09,86.1857 1558.34,86.1857 1560.58,86.1857 1562.83,86.1857 1565.07,86.1857 1567.31,86.1857 1569.56,86.1857 1571.8,86.1857 1574.05,86.1857 1576.29,86.1857 1578.53,86.1857 1580.78,86.1857 1583.02,86.1857 1585.27,86.1857 1587.51,86.1857 1589.76,86.1857 1592,86.1857 1594.24,86.1857 1596.49,86.1857 1598.73,86.1857 1600.98,86.1857 1603.22,86.1857 1605.46,86.1857 1607.71,86.1857 1609.95,86.1857 1612.2,86.1857 1614.44,86.1857 1616.68,86.1857 1618.93,86.1857 1621.17,86.1857 1623.42,86.1857 1625.66,86.1857 1627.91,86.1857 1630.15,86.1857 1632.39,86.1857 1634.64,86.1857 1636.88,86.1857 1639.13,86.1857 1641.37,86.1857 1643.61,86.1857 1645.86,86.1857 1648.1,86.1857 1650.35,86.1857 1652.59,86.1857 1654.83,86.1857 1657.08,86.1857 1659.32,86.1857 1661.57,86.1857 1663.81,86.1857 1666.06,86.1857 1668.3,86.1857 1670.54,86.1857 1672.79,86.1857 1675.03,86.1857 1677.28,86.1857 1679.52,86.1857 1681.76,86.1857 1684.01,86.1857 1686.25,86.1857 1688.5,86.1857 1690.74,86.1857 1692.98,86.1857 1695.23,86.1857 1697.47,86.1857 1699.72,86.1857 1701.96,86.1857 1704.21,86.1857 1706.45,86.1857 1708.69,86.1857 1710.94,86.1857 1713.18,86.1857 1715.43,86.1857 1717.67,86.1857 1719.91,86.1857 1722.16,86.1857 1724.4,86.1857 1726.65,86.1857 1728.89,86.1857 1731.13,86.1857 1733.38,86.1857 1735.62,86.1857 1737.87,86.1857 1740.11,86.1857 1742.36,86.1857 1744.6,86.1857 1746.84,86.1857 1749.09,86.1857 1751.33,86.1857 1753.58,86.1857 1755.82,86.1857 1758.06,86.1857 1760.31,86.1857 1762.55,86.1857 1764.8,86.1857 1767.04,86.1857 1769.28,86.1857 1771.53,86.1857 1773.77,86.1857 1776.02,86.1857 1778.26,86.1857 1780.51,86.1857 1782.75,86.1857 1784.99,86.1857 1787.24,86.1857 1789.48,86.1857 1791.73,86.1857 1793.97,86.1857 1796.21,86.1857 1798.46,86.1857 1800.7,86.1857 1802.95,86.1857 1805.19,86.1857 1807.43,86.1857 1809.68,86.1857 1811.92,86.1857 1814.17,86.1857 1816.41,86.1857 1818.66,86.1857 1820.9,86.1857 1823.14,86.1857 1825.39,86.1857 1827.63,86.1857 1829.88,86.1857 1832.12,86.1857 1834.36,86.1857 1836.61,86.1857 1838.85,86.1857 1841.1,86.1857 1843.34,86.1857 1845.58,86.1857 1847.83,86.1857 1850.07,86.1857 1852.32,86.1857 1854.56,86.1857 1856.81,86.1857 1859.05,86.1857 1861.29,86.1857 1863.54,86.1857 1865.78,86.1857 1868.03,86.1857 1870.27,86.1857 1872.51,86.1857 1874.76,86.1857 1877,86.1857 1879.25,86.1857 1881.49,86.1857 1883.74,86.1857 1885.98,86.1857 1888.22,86.1857 1890.47,86.1857 1892.71,86.1857 1894.96,86.1857 1897.2,86.1857 1899.44,86.1857 1901.69,86.1857 1903.93,86.1857 1906.18,86.1857 1908.42,86.1857 1910.66,86.1857 1912.91,86.1857 1915.15,86.1857 1917.4,86.1857 1919.64,86.1857 1921.89,86.1857 1924.13,86.1857 1926.37,86.1857 1928.62,86.1857 1930.86,86.1857 1933.11,86.1857 1935.35,86.1857 1937.59,86.1857 1939.84,86.1857 1942.08,86.1857 1944.33,86.1857 1946.57,86.1857 1948.81,86.1857 1951.06,86.1857 1953.3,86.1857 1955.55,86.1857 1957.79,86.1857 1960.04,86.1857 1962.28,86.1857 1964.52,86.1857 1966.77,86.1857 1969.01,86.1857 1971.26,86.1857 1973.5,86.1857 1975.74,86.1857 1977.99,86.1857 1980.23,86.1857 1982.48,86.1857 1984.72,86.1857 1986.96,86.1857 1989.21,86.1857 1991.45,86.1857 1993.7,86.1857 1995.94,86.1857 1998.19,86.1857 2000.43,86.1857 2002.67,86.1857 2004.92,86.1857 2007.16,86.1857 2009.41,86.1857 2011.65,86.1857 2013.89,86.1857 2016.14,86.1857 2018.38,86.1857 2020.63,86.1857 2022.87,86.1857 2025.11,86.1857 2027.36,86.1857 2029.6,86.1857 2031.85,86.1857 2034.09,86.1857 2036.34,86.1857 2038.58,86.1857 2040.82,86.1857 2043.07,86.1857 2045.31,86.1857 2047.56,86.1857 2049.8,86.1857 2052.04,86.1857 2054.29,86.1857 2056.53,86.1857 2058.78,86.1857 2061.02,86.1857 2063.26,86.1857 2065.51,86.1857 2067.75,86.1857 2070,86.1857 2072.24,86.1857 2074.49,86.1857 2076.73,86.1857 2078.97,86.1857 2081.22,86.1857 2083.46,86.1857 2085.71,86.1857 2087.95,86.1857 2090.19,86.1857 2092.44,86.1857 2094.68,86.1857 2096.93,86.1857 2099.17,86.1857 2101.41,86.1857 2103.66,86.1857 2105.9,86.1857 2108.15,86.1857 2110.39,86.1857 2112.64,86.1857 2114.88,86.1857 2117.12,86.1857 2119.37,86.1857 2121.61,86.1857 2123.86,86.1857 2126.1,86.1857 2128.34,86.1857 2130.59,86.1857 2132.83,86.1857 2135.08,86.1857 2137.32,86.1857 2139.56,86.1857 2141.81,86.1857 2144.05,86.1857 2146.3,86.1857 2148.54,86.1857 2150.79,86.1857 2153.03,86.1857 2155.27,86.1857 2157.52,86.1857 2159.76,86.1857 2162.01,86.1857 2164.25,86.1857 2166.49,86.1857 2168.74,86.1857 2170.98,86.1857 2173.23,86.1857 2175.47,86.1857 2177.71,86.1857 2179.96,86.1857 2182.2,86.1857 2184.45,86.1857 2186.69,86.1857 2188.94,86.1857 2191.18,86.1857 2193.42,86.1857 2195.67,86.1857 2197.91,86.1857 2200.16,86.1857 2202.4,86.1857 2204.64,86.1857 2206.89,86.1857 2209.13,86.1857 2211.38,86.1857 2213.62,86.1857 2215.86,86.1857 2218.11,86.1857 2220.35,86.1857 2222.6,86.1857 2224.84,86.1857 2227.09,86.1857 2229.33,86.1857 2231.57,86.1857 2233.82,86.1857 2236.06,86.1857 2238.31,86.1857 2240.55,86.1857 2242.79,86.1857 2245.04,86.1857 2247.28,86.1857 2249.53,86.1857 2251.77,86.1857 2254.01,86.1857 2256.26,86.1857 2258.5,86.1857 2260.75,86.1857 2262.99,86.1857 2265.24,86.1857 2267.48,86.1857 2269.72,86.1857 2271.97,86.1857 2274.21,86.1857 2276.46,86.1857 2278.7,86.1857 2280.94,86.1857 2283.19,86.1857 2285.43,86.1857 2287.68,86.1857 2289.92,86.1857 2292.16,86.1857 2294.41,86.1857 2296.65,86.1857 2298.9,86.1857 2301.14,86.1857 2303.39,86.1857 2305.63,86.1857 2307.87,86.1857 2310.12,86.1857 2312.36,86.1857 2314.61,86.1857 2316.85,86.1857 2319.09,86.1857 2321.34,86.1857 2323.58,86.1857 2325.83,86.1857 2328.07,86.1857 2330.31,86.1857 2332.56,86.1857 2334.8,86.1857 2337.05,86.1857 2339.29,86.1857 2341.54,86.1857 2343.78,86.1857 2346.02,86.1857 2348.27,86.1857 2350.51,86.1857 2352.76,86.1857 "/>
<polyline clip-path="url(#clip581)" style="stroke:#e26f46; stroke-linecap:round; stroke-linejoin:round; stroke-width:4; stroke-opacity:1; fill:none" points="110.881,1384.24 113.125,1256.83 115.369,1170.78 117.613,1117.23 119.857,1085.21 122.101,1066.39 124.346,1055.8 126.59,1050.76 128.834,1049.75 131.078,1051.78 133.322,1056.17 135.566,1062.42 137.81,1070.2 140.054,1079.27 142.299,1089.49 144.543,1100.63 146.787,1112.59 149.031,1125.15 151.275,1138.16 153.519,1151.57 155.763,1165.16 158.007,1178.88 160.252,1192.5 162.496,1205.73 164.74,1218.39 166.984,1230.21 169.228,1241.03 171.472,1250.8 173.716,1259.55 175.96,1267.44 178.204,1274.34 180.449,1280.26 182.693,1285.47 184.937,1290.31 187.181,1294.65 189.425,1298.51 191.669,1301.98 193.913,1305.1 196.157,1307.89 198.402,1310.39 200.646,1312.69 202.89,1314.77 205.134,1316.66 207.378,1318.38 209.622,1319.96 211.866,1321.41 214.11,1322.74 216.354,1323.98 218.599,1325.14 220.843,1326.23 223.087,1327.25 225.331,1328.22 227.575,1329.16 229.819,1330.06 232.063,1330.93 234.307,1331.78 236.552,1332.61 238.796,1333.44 241.04,1334.27 243.284,1335.09 245.528,1335.92 247.772,1336.75 250.016,1337.59 252.26,1338.41 254.505,1339.24 256.749,1340.1 258.993,1340.99 261.237,1341.9 263.481,1342.83 265.725,1343.77 267.969,1344.68 270.213,1345.58 272.457,1346.48 274.702,1347.4 276.946,1348.32 279.19,1349.24 281.434,1350.15 283.678,1351.06 285.922,1351.96 288.166,1352.87 290.41,1353.77 292.655,1354.66 294.899,1355.52 297.143,1356.38 299.387,1357.22 301.631,1358.06 303.875,1358.87 306.119,1359.67 308.363,1360.45 310.607,1361.22 312.852,1361.97 315.096,1362.7 317.34,1363.42 319.584,1364.11 321.828,1364.79 324.072,1365.44 326.316,1366.08 328.56,1366.71 330.805,1367.31 333.049,1367.9 335.293,1368.47 337.537,1369.02 339.781,1369.56 342.025,1370.07 344.269,1370.58 346.513,1371.06 348.758,1371.54 351.002,1371.99 353.246,1372.43 355.49,1372.86 357.734,1373.27 359.978,1373.66 362.222,1374.05 364.466,1374.42 366.71,1374.78 368.955,1375.13 371.199,1375.46 373.443,1375.78 375.687,1376.09 377.931,1376.39 380.175,1376.68 382.419,1376.96 384.663,1377.23 386.908,1377.49 389.152,1377.74 391.396,1377.98 393.64,1378.21 395.884,1378.44 398.128,1378.65 400.372,1378.86 402.616,1379.06 404.86,1379.26 407.105,1379.44 409.349,1379.62 411.593,1379.8 413.837,1379.96 416.081,1380.12 418.325,1380.28 420.569,1380.43 422.813,1380.57 425.058,1380.71 427.302,1380.84 429.546,1380.97 431.79,1381.09 434.034,1381.21 436.278,1381.32 438.522,1381.43 440.766,1381.54 443.011,1381.64 445.255,1381.74 447.499,1381.83 449.743,1381.93 451.987,1382.01 454.231,1382.1 456.475,1382.18 458.719,1382.26 460.963,1382.33 463.208,1382.4 465.452,1382.47 467.696,1382.54 469.94,1382.6 472.184,1382.67 474.428,1382.73 476.672,1382.78 478.916,1382.84 481.161,1382.89 483.405,1382.94 485.649,1382.99 487.893,1383.04 490.137,1383.09 492.381,1383.13 494.625,1383.17 496.869,1383.21 499.113,1383.25 501.358,1383.29 503.602,1383.32 505.846,1383.36 508.09,1383.39 510.334,1383.42 512.578,1383.46 514.822,1383.49 517.066,1383.51 519.311,1383.54 521.555,1383.57 523.799,1383.59 526.043,1383.62 528.287,1383.64 530.531,1383.66 532.775,1383.69 535.019,1383.71 537.264,1383.73 539.508,1383.75 541.752,1383.77 543.996,1383.78 546.24,1383.8 548.484,1383.82 550.728,1383.83 552.972,1383.85 555.216,1383.86 557.461,1383.88 559.705,1383.89 561.949,1383.91 564.193,1383.92 566.437,1383.93 568.681,1383.94 570.925,1383.95 573.169,1383.96 575.414,1383.97 577.658,1383.98 579.902,1383.99 582.146,1384 584.39,1384.01 586.634,1384.02 588.878,1384.03 591.122,1384.04 593.367,1384.04 595.611,1384.05 597.855,1384.06 600.099,1384.07 602.343,1384.07 604.587,1384.08 606.831,1384.09 609.075,1384.09 611.319,1384.1 613.564,1384.1 615.808,1384.11 618.052,1384.11 620.296,1384.12 622.54,1384.12 624.784,1384.13 627.028,1384.13 629.272,1384.13 631.517,1384.14 633.761,1384.14 636.005,1384.15 638.249,1384.15 640.493,1384.15 642.737,1384.16 644.981,1384.16 647.225,1384.16 649.469,1384.16 651.714,1384.17 653.958,1384.17 656.202,1384.17 658.446,1384.18 660.69,1384.18 662.934,1384.18 665.178,1384.18 667.422,1384.18 669.667,1384.19 671.911,1384.19 674.155,1384.19 676.399,1384.19 678.643,1384.19 680.887,1384.2 683.131,1384.2 685.375,1384.2 687.62,1384.2 689.864,1384.2 692.108,1384.2 694.352,1384.2 696.596,1384.21 698.84,1384.21 701.084,1384.21 703.328,1384.21 705.572,1384.21 707.817,1384.21 710.061,1384.21 712.305,1384.21 714.549,1384.21 716.793,1384.22 719.037,1384.22 721.281,1384.22 723.525,1384.22 725.77,1384.22 728.014,1384.22 730.258,1384.22 732.502,1384.22 734.746,1384.22 736.99,1384.22 739.234,1384.22 741.478,1384.22 743.722,1384.22 745.967,1384.22 748.211,1384.22 750.455,1384.23 752.699,1384.23 754.943,1384.23 757.187,1384.23 759.431,1384.23 761.675,1384.23 763.92,1384.23 766.164,1384.23 768.408,1384.23 770.652,1384.23 772.896,1384.23 775.14,1384.23 777.384,1384.23 779.628,1384.23 781.873,1384.23 784.117,1384.23 786.361,1384.23 788.605,1384.23 790.849,1384.23 793.093,1384.23 795.337,1384.23 797.581,1384.23 799.825,1384.23 802.07,1384.23 804.314,1384.23 806.558,1384.23 808.802,1384.23 811.046,1384.23 813.29,1384.23 815.534,1384.23 817.778,1384.23 820.023,1384.23 822.267,1384.23 824.511,1384.23 826.755,1384.23 828.999,1384.23 831.243,1384.24 833.487,1384.24 835.731,1384.24 837.975,1384.24 840.22,1384.24 842.464,1384.24 844.708,1384.24 846.952,1384.24 849.196,1384.24 851.44,1384.24 853.684,1384.24 855.928,1384.24 858.173,1384.24 860.417,1384.24 862.661,1384.24 864.905,1384.24 867.149,1384.24 869.393,1384.24 871.637,1384.24 873.881,1384.24 876.126,1384.24 878.37,1384.24 880.614,1384.24 882.858,1384.24 885.102,1384.24 887.346,1384.24 889.59,1384.24 891.834,1384.24 894.078,1384.24 896.323,1384.24 898.567,1384.24 900.811,1384.24 903.055,1384.24 905.299,1384.24 907.543,1384.24 909.787,1384.24 912.031,1384.24 914.276,1384.24 916.52,1384.24 918.764,1384.24 921.008,1384.24 923.252,1384.24 925.496,1384.24 927.74,1384.24 929.984,1384.24 932.228,1384.24 934.473,1384.24 936.717,1384.24 938.961,1384.24 941.205,1384.24 943.449,1384.24 945.693,1384.24 947.937,1384.24 950.181,1384.24 952.426,1384.24 954.67,1384.24 956.914,1384.24 959.158,1384.24 961.402,1384.24 963.646,1384.24 965.89,1384.24 968.134,1384.24 970.379,1384.24 972.623,1384.24 974.867,1384.24 977.111,1384.24 979.355,1384.24 981.599,1384.24 983.843,1384.24 986.087,1384.24 988.331,1384.24 990.576,1384.24 992.82,1384.24 995.064,1384.24 997.308,1384.24 999.552,1384.24 1001.8,1384.24 1004.04,1384.24 1006.28,1384.24 1008.53,1384.24 1010.77,1384.24 1013.02,1384.24 1015.26,1384.24 1017.51,1384.24 1019.75,1384.24 1021.99,1384.24 1024.24,1384.24 1026.48,1384.24 1028.73,1384.24 1030.97,1384.24 1033.21,1384.24 1035.46,1384.24 1037.7,1384.24 1039.95,1384.24 1042.19,1384.24 1044.43,1384.24 1046.68,1384.24 1048.92,1384.24 1051.17,1384.24 1053.41,1384.24 1055.66,1384.24 1057.9,1384.24 1060.14,1384.24 1062.39,1384.24 1064.63,1384.24 1066.88,1384.24 1069.12,1384.24 1071.36,1384.24 1073.61,1384.24 1075.85,1384.24 1078.1,1384.24 1080.34,1384.24 1082.58,1384.24 1084.83,1384.24 1087.07,1384.24 1089.32,1384.24 1091.56,1384.24 1093.81,1384.24 1096.05,1384.24 1098.29,1384.24 1100.54,1384.24 1102.78,1384.24 1105.03,1384.24 1107.27,1384.24 1109.51,1384.24 1111.76,1384.24 1114,1384.24 1116.25,1384.24 1118.49,1384.24 1120.73,1384.24 1122.98,1384.24 1125.22,1384.24 1127.47,1384.24 1129.71,1384.24 1131.96,1384.24 1134.2,1384.24 1136.44,1384.24 1138.69,1384.24 1140.93,1384.24 1143.18,1384.24 1145.42,1384.24 1147.66,1384.24 1149.91,1384.24 1152.15,1384.24 1154.4,1384.24 1156.64,1384.24 1158.88,1384.24 1161.13,1384.24 1163.37,1384.24 1165.62,1384.24 1167.86,1384.24 1170.11,1384.24 1172.35,1384.24 1174.59,1384.24 1176.84,1384.24 1179.08,1384.24 1181.33,1384.24 1183.57,1384.24 1185.81,1384.24 1188.06,1384.24 1190.3,1384.24 1192.55,1384.24 1194.79,1384.24 1197.03,1384.24 1199.28,1384.24 1201.52,1384.24 1203.77,1384.24 1206.01,1384.24 1208.26,1384.24 1210.5,1384.24 1212.74,1384.24 1214.99,1384.24 1217.23,1384.24 1219.48,1384.24 1221.72,1384.24 1223.96,1384.24 1226.21,1384.24 1228.45,1384.24 1230.7,1384.24 1232.94,1384.24 1235.18,1384.24 1237.43,1384.24 1239.67,1384.24 1241.92,1384.24 1244.16,1384.24 1246.41,1384.24 1248.65,1384.24 1250.89,1384.24 1253.14,1384.24 1255.38,1384.24 1257.63,1384.24 1259.87,1384.24 1262.11,1384.24 1264.36,1384.24 1266.6,1384.24 1268.85,1384.24 1271.09,1384.24 1273.33,1384.24 1275.58,1384.24 1277.82,1384.24 1280.07,1384.24 1282.31,1384.24 1284.56,1384.24 1286.8,1384.24 1289.04,1384.24 1291.29,1384.24 1293.53,1384.24 1295.78,1384.24 1298.02,1384.24 1300.26,1384.24 1302.51,1384.24 1304.75,1384.24 1307,1384.24 1309.24,1384.24 1311.48,1384.24 1313.73,1384.24 1315.97,1384.24 1318.22,1384.24 1320.46,1384.24 1322.71,1384.24 1324.95,1384.24 1327.19,1384.24 1329.44,1384.24 1331.68,1384.24 1333.93,1384.24 1336.17,1384.24 1338.41,1384.24 1340.66,1384.24 1342.9,1384.24 1345.15,1384.24 1347.39,1384.24 1349.63,1384.24 1351.88,1384.24 1354.12,1384.24 1356.37,1384.24 1358.61,1384.24 1360.86,1384.24 1363.1,1384.24 1365.34,1384.24 1367.59,1384.24 1369.83,1384.24 1372.08,1384.24 1374.32,1384.24 1376.56,1384.24 1378.81,1384.24 1381.05,1384.24 1383.3,1384.24 1385.54,1384.24 1387.78,1384.24 1390.03,1384.24 1392.27,1384.24 1394.52,1384.24 1396.76,1384.24 1399.01,1384.24 1401.25,1384.24 1403.49,1384.24 1405.74,1384.24 1407.98,1384.24 1410.23,1384.24 1412.47,1384.24 1414.71,1384.24 1416.96,1384.24 1419.2,1384.24 1421.45,1384.24 1423.69,1384.24 1425.93,1384.24 1428.18,1384.24 1430.42,1384.24 1432.67,1384.24 1434.91,1384.24 1437.16,1384.24 1439.4,1384.24 1441.64,1384.24 1443.89,1384.24 1446.13,1384.24 1448.38,1384.24 1450.62,1384.24 1452.86,1384.24 1455.11,1384.24 1457.35,1384.24 1459.6,1384.24 1461.84,1384.24 1464.08,1384.24 1466.33,1384.24 1468.57,1384.24 1470.82,1384.24 1473.06,1384.24 1475.31,1384.24 1477.55,1384.24 1479.79,1384.24 1482.04,1384.24 1484.28,1384.24 1486.53,1384.24 1488.77,1384.24 1491.01,1384.24 1493.26,1384.24 1495.5,1384.24 1497.75,1384.24 1499.99,1384.24 1502.23,1384.24 1504.48,1384.24 1506.72,1384.24 1508.97,1384.24 1511.21,1384.24 1513.46,1384.24 1515.7,1384.24 1517.94,1384.24 1520.19,1384.24 1522.43,1384.24 1524.68,1384.24 1526.92,1384.24 1529.16,1384.24 1531.41,1384.24 1533.65,1384.24 1535.9,1384.24 1538.14,1384.24 1540.38,1384.24 1542.63,1384.24 1544.87,1384.24 1547.12,1384.24 1549.36,1384.24 1551.61,1384.24 1553.85,1384.24 1556.09,1384.24 1558.34,1384.24 1560.58,1384.24 1562.83,1384.24 1565.07,1384.24 1567.31,1384.24 1569.56,1384.24 1571.8,1384.24 1574.05,1384.24 1576.29,1384.24 1578.53,1384.24 1580.78,1384.24 1583.02,1384.24 1585.27,1384.24 1587.51,1384.24 1589.76,1384.24 1592,1384.24 1594.24,1384.24 1596.49,1384.24 1598.73,1384.24 1600.98,1384.24 1603.22,1384.24 1605.46,1384.24 1607.71,1384.24 1609.95,1384.24 1612.2,1384.24 1614.44,1384.24 1616.68,1384.24 1618.93,1384.24 1621.17,1384.24 1623.42,1384.24 1625.66,1384.24 1627.91,1384.24 1630.15,1384.24 1632.39,1384.24 1634.64,1384.24 1636.88,1384.24 1639.13,1384.24 1641.37,1384.24 1643.61,1384.24 1645.86,1384.24 1648.1,1384.24 1650.35,1384.24 1652.59,1384.24 1654.83,1384.24 1657.08,1384.24 1659.32,1384.24 1661.57,1384.24 1663.81,1384.24 1666.06,1384.24 1668.3,1384.24 1670.54,1384.24 1672.79,1384.24 1675.03,1384.24 1677.28,1384.24 1679.52,1384.24 1681.76,1384.24 1684.01,1384.24 1686.25,1384.24 1688.5,1384.24 1690.74,1384.24 1692.98,1384.24 1695.23,1384.24 1697.47,1384.24 1699.72,1384.24 1701.96,1384.24 1704.21,1384.24 1706.45,1384.24 1708.69,1384.24 1710.94,1384.24 1713.18,1384.24 1715.43,1384.24 1717.67,1384.24 1719.91,1384.24 1722.16,1384.24 1724.4,1384.24 1726.65,1384.24 1728.89,1384.24 1731.13,1384.24 1733.38,1384.24 1735.62,1384.24 1737.87,1384.24 1740.11,1384.24 1742.36,1384.24 1744.6,1384.24 1746.84,1384.24 1749.09,1384.24 1751.33,1384.24 1753.58,1384.24 1755.82,1384.24 1758.06,1384.24 1760.31,1384.24 1762.55,1384.24 1764.8,1384.24 1767.04,1384.24 1769.28,1384.24 1771.53,1384.24 1773.77,1384.24 1776.02,1384.24 1778.26,1384.24 1780.51,1384.24 1782.75,1384.24 1784.99,1384.24 1787.24,1384.24 1789.48,1384.24 1791.73,1384.24 1793.97,1384.24 1796.21,1384.24 1798.46,1384.24 1800.7,1384.24 1802.95,1384.24 1805.19,1384.24 1807.43,1384.24 1809.68,1384.24 1811.92,1384.24 1814.17,1384.24 1816.41,1384.24 1818.66,1384.24 1820.9,1384.24 1823.14,1384.24 1825.39,1384.24 1827.63,1384.24 1829.88,1384.24 1832.12,1384.24 1834.36,1384.24 1836.61,1384.24 1838.85,1384.24 1841.1,1384.24 1843.34,1384.24 1845.58,1384.24 1847.83,1384.24 1850.07,1384.24 1852.32,1384.24 1854.56,1384.24 1856.81,1384.24 1859.05,1384.24 1861.29,1384.24 1863.54,1384.24 1865.78,1384.24 1868.03,1384.24 1870.27,1384.24 1872.51,1384.24 1874.76,1384.24 1877,1384.24 1879.25,1384.24 1881.49,1384.24 1883.74,1384.24 1885.98,1384.24 1888.22,1384.24 1890.47,1384.24 1892.71,1384.24 1894.96,1384.24 1897.2,1384.24 1899.44,1384.24 1901.69,1384.24 1903.93,1384.24 1906.18,1384.24 1908.42,1384.24 1910.66,1384.24 1912.91,1384.24 1915.15,1384.24 1917.4,1384.24 1919.64,1384.24 1921.89,1384.24 1924.13,1384.24 1926.37,1384.24 1928.62,1384.24 1930.86,1384.24 1933.11,1384.24 1935.35,1384.24 1937.59,1384.24 1939.84,1384.24 1942.08,1384.24 1944.33,1384.24 1946.57,1384.24 1948.81,1384.24 1951.06,1384.24 1953.3,1384.24 1955.55,1384.24 1957.79,1384.24 1960.04,1384.24 1962.28,1384.24 1964.52,1384.24 1966.77,1384.24 1969.01,1384.24 1971.26,1384.24 1973.5,1384.24 1975.74,1384.24 1977.99,1384.24 1980.23,1384.24 1982.48,1384.24 1984.72,1384.24 1986.96,1384.24 1989.21,1384.24 1991.45,1384.24 1993.7,1384.24 1995.94,1384.24 1998.19,1384.24 2000.43,1384.24 2002.67,1384.24 2004.92,1384.24 2007.16,1384.24 2009.41,1384.24 2011.65,1384.24 2013.89,1384.24 2016.14,1384.24 2018.38,1384.24 2020.63,1384.24 2022.87,1384.24 2025.11,1384.24 2027.36,1384.24 2029.6,1384.24 2031.85,1384.24 2034.09,1384.24 2036.34,1384.24 2038.58,1384.24 2040.82,1384.24 2043.07,1384.24 2045.31,1384.24 2047.56,1384.24 2049.8,1384.24 2052.04,1384.24 2054.29,1384.24 2056.53,1384.24 2058.78,1384.24 2061.02,1384.24 2063.26,1384.24 2065.51,1384.24 2067.75,1384.24 2070,1384.24 2072.24,1384.24 2074.49,1384.24 2076.73,1384.24 2078.97,1384.24 2081.22,1384.24 2083.46,1384.24 2085.71,1384.24 2087.95,1384.24 2090.19,1384.24 2092.44,1384.24 2094.68,1384.24 2096.93,1384.24 2099.17,1384.24 2101.41,1384.24 2103.66,1384.24 2105.9,1384.24 2108.15,1384.24 2110.39,1384.24 2112.64,1384.24 2114.88,1384.24 2117.12,1384.24 2119.37,1384.24 2121.61,1384.24 2123.86,1384.24 2126.1,1384.24 2128.34,1384.24 2130.59,1384.24 2132.83,1384.24 2135.08,1384.24 2137.32,1384.24 2139.56,1384.24 2141.81,1384.24 2144.05,1384.24 2146.3,1384.24 2148.54,1384.24 2150.79,1384.24 2153.03,1384.24 2155.27,1384.24 2157.52,1384.24 2159.76,1384.24 2162.01,1384.24 2164.25,1384.24 2166.49,1384.24 2168.74,1384.24 2170.98,1384.24 2173.23,1384.24 2175.47,1384.24 2177.71,1384.24 2179.96,1384.24 2182.2,1384.24 2184.45,1384.24 2186.69,1384.24 2188.94,1384.24 2191.18,1384.24 2193.42,1384.24 2195.67,1384.24 2197.91,1384.24 2200.16,1384.24 2202.4,1384.24 2204.64,1384.24 2206.89,1384.24 2209.13,1384.24 2211.38,1384.24 2213.62,1384.24 2215.86,1384.24 2218.11,1384.24 2220.35,1384.24 2222.6,1384.24 2224.84,1384.24 2227.09,1384.24 2229.33,1384.24 2231.57,1384.24 2233.82,1384.24 2236.06,1384.24 2238.31,1384.24 2240.55,1384.24 2242.79,1384.24 2245.04,1384.24 2247.28,1384.24 2249.53,1384.24 2251.77,1384.24 2254.01,1384.24 2256.26,1384.24 2258.5,1384.24 2260.75,1384.24 2262.99,1384.24 2265.24,1384.24 2267.48,1384.24 2269.72,1384.24 2271.97,1384.24 2274.21,1384.24 2276.46,1384.24 2278.7,1384.24 2280.94,1384.24 2283.19,1384.24 2285.43,1384.24 2287.68,1384.24 2289.92,1384.24 2292.16,1384.24 2294.41,1384.24 2296.65,1384.24 2298.9,1384.24 2301.14,1384.24 2303.39,1384.24 2305.63,1384.24 2307.87,1384.24 2310.12,1384.24 2312.36,1384.24 2314.61,1384.24 2316.85,1384.24 2319.09,1384.24 2321.34,1384.24 2323.58,1384.24 2325.83,1384.24 2328.07,1384.24 2330.31,1384.24 2332.56,1384.24 2334.8,1384.24 2337.05,1384.24 2339.29,1384.24 2341.54,1384.24 2343.78,1384.24 2346.02,1384.24 2348.27,1384.24 2350.51,1384.24 2352.76,1384.24 "/>
<path clip-path="url(#clip580)" d="M185.61 248.629 L477.343 248.629 L477.343 93.1086 L185.61 93.1086  Z" fill="#ffffff" fill-rule="evenodd" fill-opacity="1"/>
<polyline clip-path="url(#clip580)" style="stroke:#000000; stroke-linecap:round; stroke-linejoin:round; stroke-width:4; stroke-opacity:1; fill:none" points="185.61,248.629 477.343,248.629 477.343,93.1086 185.61,93.1086 185.61,248.629 "/>
<polyline clip-path="url(#clip580)" style="stroke:#009af9; stroke-linecap:round; stroke-linejoin:round; stroke-width:4; stroke-opacity:1; fill:none" points="210.52,144.949 359.978,144.949 "/>
<path clip-path="url(#clip580)" d="M404.147 145.794 L389.402 145.794 Q389.749 152.715 391.346 155.655 Q393.337 159.266 396.786 159.266 Q400.258 159.266 402.179 155.631 Q403.869 152.437 404.147 145.794 M404.078 141.858 Q403.429 135.284 402.179 132.97 Q400.189 129.312 396.786 129.312 Q393.244 129.312 391.369 132.923 Q389.888 135.84 389.448 141.858 L404.078 141.858 M396.786 125.84 Q402.341 125.84 405.513 130.747 Q408.684 135.632 408.684 144.289 Q408.684 152.923 405.513 157.83 Q402.341 162.761 396.786 162.761 Q391.207 162.761 388.059 157.83 Q384.888 152.923 384.888 144.289 Q384.888 135.632 388.059 130.747 Q391.207 125.84 396.786 125.84 Z" fill="#000000" fill-rule="nonzero" fill-opacity="1" /><polyline clip-path="url(#clip580)" style="stroke:#e26f46; stroke-linecap:round; stroke-linejoin:round; stroke-width:4; stroke-opacity:1; fill:none" points="210.52,196.789 359.978,196.789 "/>
<path clip-path="url(#clip580)" d="M404.147 197.634 L389.402 197.634 Q389.749 204.555 391.346 207.495 Q393.337 211.106 396.786 211.106 Q400.258 211.106 402.179 207.471 Q403.869 204.277 404.147 197.634 M404.078 193.698 Q403.429 187.124 402.179 184.81 Q400.189 181.152 396.786 181.152 Q393.244 181.152 391.369 184.763 Q389.888 187.68 389.448 193.698 L404.078 193.698 M396.786 177.68 Q402.341 177.68 405.513 182.587 Q408.684 187.472 408.684 196.129 Q408.684 204.763 405.513 209.67 Q402.341 214.601 396.786 214.601 Q391.207 214.601 388.059 209.67 Q384.888 204.763 384.888 196.129 Q384.888 187.472 388.059 182.587 Q391.207 177.68 396.786 177.68 Z" fill="#000000" fill-rule="nonzero" fill-opacity="1" /><path clip-path="url(#clip580)" d="M416.207 218.05 L430.05 218.05 L430.05 221.476 L416.207 221.476 L416.207 218.05 Z" fill="#000000" fill-rule="nonzero" fill-opacity="1" /><path clip-path="url(#clip580)" d="M443.661 180.782 L443.661 188.143 L452.434 188.143 L452.434 191.453 L443.661 191.453 L443.661 205.527 Q443.661 208.698 444.517 209.601 Q445.397 210.504 448.059 210.504 L452.434 210.504 L452.434 214.069 L448.059 214.069 Q443.128 214.069 441.253 212.24 Q439.378 210.388 439.378 205.527 L439.378 191.453 L436.253 191.453 L436.253 188.143 L439.378 188.143 L439.378 180.782 L443.661 180.782 Z" fill="#000000" fill-rule="nonzero" fill-opacity="1" /></svg>
