<?xml version="1.0" encoding="utf-8"?>
<svg xmlns="http://www.w3.org/2000/svg" xmlns:xlink="http://www.w3.org/1999/xlink" width="600" height="400" viewBox="0 0 2400 1600">
<defs>
  <clipPath id="clip710">
    <rect x="0" y="0" width="2400" height="1600"/>
  </clipPath>
</defs>
<path clip-path="url(#clip710)" d="M0 1600 L2400 1600 L2400 0 L0 0  Z" fill="#ffffff" fill-rule="evenodd" fill-opacity="1"/>
<defs>
  <clipPath id="clip711">
    <rect x="112" y="47" width="2242" height="1377"/>
  </clipPath>
</defs>
<path clip-path="url(#clip710)" d="M112.177 1423.18 L2352.76 1423.18 L2352.76 47.2441 L112.177 47.2441  Z" fill="#ffffff" fill-rule="evenodd" fill-opacity="1"/>
<polyline clip-path="url(#clip711)" style="stroke:#000000; stroke-linecap:round; stroke-linejoin:round; stroke-width:2; stroke-opacity:0.1; fill:none" points="112.177,1423.18 112.177,47.2441 "/>
<polyline clip-path="url(#clip711)" style="stroke:#000000; stroke-linecap:round; stroke-linejoin:round; stroke-width:2; stroke-opacity:0.1; fill:none" points="859.037,1423.18 859.037,47.2441 "/>
<polyline clip-path="url(#clip711)" style="stroke:#000000; stroke-linecap:round; stroke-linejoin:round; stroke-width:2; stroke-opacity:0.1; fill:none" points="1605.9,1423.18 1605.9,47.2441 "/>
<polyline clip-path="url(#clip711)" style="stroke:#000000; stroke-linecap:round; stroke-linejoin:round; stroke-width:2; stroke-opacity:0.1; fill:none" points="2352.76,1423.18 2352.76,47.2441 "/>
<polyline clip-path="url(#clip711)" style="stroke:#000000; stroke-linecap:round; stroke-linejoin:round; stroke-width:2; stroke-opacity:0.1; fill:none" points="112.177,1307.84 2352.76,1307.84 "/>
<polyline clip-path="url(#clip711)" style="stroke:#000000; stroke-linecap:round; stroke-linejoin:round; stroke-width:2; stroke-opacity:0.1; fill:none" points="112.177,1034.78 2352.76,1034.78 "/>
<polyline clip-path="url(#clip711)" style="stroke:#000000; stroke-linecap:round; stroke-linejoin:round; stroke-width:2; stroke-opacity:0.1; fill:none" points="112.177,761.719 2352.76,761.719 "/>
<polyline clip-path="url(#clip711)" style="stroke:#000000; stroke-linecap:round; stroke-linejoin:round; stroke-width:2; stroke-opacity:0.1; fill:none" points="112.177,488.658 2352.76,488.658 "/>
<polyline clip-path="url(#clip711)" style="stroke:#000000; stroke-linecap:round; stroke-linejoin:round; stroke-width:2; stroke-opacity:0.1; fill:none" points="112.177,215.597 2352.76,215.597 "/>
<polyline clip-path="url(#clip710)" style="stroke:#000000; stroke-linecap:round; stroke-linejoin:round; stroke-width:4; stroke-opacity:1; fill:none" points="112.177,1423.18 2352.76,1423.18 "/>
<polyline clip-path="url(#clip710)" style="stroke:#000000; stroke-linecap:round; stroke-linejoin:round; stroke-width:4; stroke-opacity:1; fill:none" points="112.177,1423.18 112.177,1404.28 "/>
<polyline clip-path="url(#clip710)" style="stroke:#000000; stroke-linecap:round; stroke-linejoin:round; stroke-width:4; stroke-opacity:1; fill:none" points="859.037,1423.18 859.037,1404.28 "/>
<polyline clip-path="url(#clip710)" style="stroke:#000000; stroke-linecap:round; stroke-linejoin:round; stroke-width:4; stroke-opacity:1; fill:none" points="1605.9,1423.18 1605.9,1404.28 "/>
<polyline clip-path="url(#clip710)" style="stroke:#000000; stroke-linecap:round; stroke-linejoin:round; stroke-width:4; stroke-opacity:1; fill:none" points="2352.76,1423.18 2352.76,1404.28 "/>
<path clip-path="url(#clip710)" d="M112.177 1454.1 Q108.566 1454.1 106.737 1457.66 Q104.932 1461.2 104.932 1468.33 Q104.932 1475.44 106.737 1479.01 Q108.566 1482.55 112.177 1482.55 Q115.811 1482.55 117.617 1479.01 Q119.446 1475.44 119.446 1468.33 Q119.446 1461.2 117.617 1457.66 Q115.811 1454.1 112.177 1454.1 M112.177 1450.39 Q117.987 1450.39 121.043 1455 Q124.122 1459.58 124.122 1468.33 Q124.122 1477.06 121.043 1481.67 Q117.987 1486.25 112.177 1486.25 Q106.367 1486.25 103.288 1481.67 Q100.233 1477.06 100.233 1468.33 Q100.233 1459.58 103.288 1455 Q106.367 1450.39 112.177 1450.39 Z" fill="#000000" fill-rule="nonzero" fill-opacity="1" /><path clip-path="url(#clip710)" d="M833.736 1451.02 L852.092 1451.02 L852.092 1454.96 L838.018 1454.96 L838.018 1463.43 Q839.037 1463.08 840.055 1462.92 Q841.074 1462.73 842.092 1462.73 Q847.879 1462.73 851.259 1465.9 Q854.639 1469.08 854.639 1474.49 Q854.639 1480.07 851.166 1483.17 Q847.694 1486.25 841.375 1486.25 Q839.199 1486.25 836.93 1485.88 Q834.685 1485.51 832.278 1484.77 L832.278 1480.07 Q834.361 1481.2 836.583 1481.76 Q838.805 1482.32 841.282 1482.32 Q845.287 1482.32 847.625 1480.21 Q849.963 1478.1 849.963 1474.49 Q849.963 1470.88 847.625 1468.77 Q845.287 1466.67 841.282 1466.67 Q839.407 1466.67 837.532 1467.08 Q835.68 1467.5 833.736 1468.38 L833.736 1451.02 Z" fill="#000000" fill-rule="nonzero" fill-opacity="1" /><path clip-path="url(#clip710)" d="M873.851 1454.1 Q870.24 1454.1 868.412 1457.66 Q866.606 1461.2 866.606 1468.33 Q866.606 1475.44 868.412 1479.01 Q870.24 1482.55 873.851 1482.55 Q877.486 1482.55 879.291 1479.01 Q881.12 1475.44 881.12 1468.33 Q881.12 1461.2 879.291 1457.66 Q877.486 1454.1 873.851 1454.1 M873.851 1450.39 Q879.662 1450.39 882.717 1455 Q885.796 1459.58 885.796 1468.33 Q885.796 1477.06 882.717 1481.67 Q879.662 1486.25 873.851 1486.25 Q868.041 1486.25 864.963 1481.67 Q861.907 1477.06 861.907 1468.33 Q861.907 1459.58 864.963 1455 Q868.041 1450.39 873.851 1450.39 Z" fill="#000000" fill-rule="nonzero" fill-opacity="1" /><path clip-path="url(#clip710)" d="M1565.5 1481.64 L1573.14 1481.64 L1573.14 1455.28 L1564.83 1456.95 L1564.83 1452.69 L1573.1 1451.02 L1577.77 1451.02 L1577.77 1481.64 L1585.41 1481.64 L1585.41 1485.58 L1565.5 1485.58 L1565.5 1481.64 Z" fill="#000000" fill-rule="nonzero" fill-opacity="1" /><path clip-path="url(#clip710)" d="M1604.85 1454.1 Q1601.24 1454.1 1599.41 1457.66 Q1597.61 1461.2 1597.61 1468.33 Q1597.61 1475.44 1599.41 1479.01 Q1601.24 1482.55 1604.85 1482.55 Q1608.49 1482.55 1610.29 1479.01 Q1612.12 1475.44 1612.12 1468.33 Q1612.12 1461.2 1610.29 1457.66 Q1608.49 1454.1 1604.85 1454.1 M1604.85 1450.39 Q1610.66 1450.39 1613.72 1455 Q1616.8 1459.58 1616.8 1468.33 Q1616.8 1477.06 1613.72 1481.67 Q1610.66 1486.25 1604.85 1486.25 Q1599.04 1486.25 1595.97 1481.67 Q1592.91 1477.06 1592.91 1468.33 Q1592.91 1459.58 1595.97 1455 Q1599.04 1450.39 1604.85 1450.39 Z" fill="#000000" fill-rule="nonzero" fill-opacity="1" /><path clip-path="url(#clip710)" d="M1635.02 1454.1 Q1631.41 1454.1 1629.58 1457.66 Q1627.77 1461.2 1627.77 1468.33 Q1627.77 1475.44 1629.58 1479.01 Q1631.41 1482.55 1635.02 1482.55 Q1638.65 1482.55 1640.46 1479.01 Q1642.29 1475.44 1642.29 1468.33 Q1642.29 1461.2 1640.46 1457.66 Q1638.65 1454.1 1635.02 1454.1 M1635.02 1450.39 Q1640.83 1450.39 1643.88 1455 Q1646.96 1459.58 1646.96 1468.33 Q1646.96 1477.06 1643.88 1481.67 Q1640.83 1486.25 1635.02 1486.25 Q1629.21 1486.25 1626.13 1481.67 Q1623.07 1477.06 1623.07 1468.33 Q1623.07 1459.58 1626.13 1455 Q1629.21 1450.39 1635.02 1450.39 Z" fill="#000000" fill-rule="nonzero" fill-opacity="1" /><path clip-path="url(#clip710)" d="M2312.36 1481.64 L2320 1481.64 L2320 1455.28 L2311.69 1456.95 L2311.69 1452.69 L2319.96 1451.02 L2324.63 1451.02 L2324.63 1481.64 L2332.27 1481.64 L2332.27 1485.58 L2312.36 1485.58 L2312.36 1481.64 Z" fill="#000000" fill-rule="nonzero" fill-opacity="1" /><path clip-path="url(#clip710)" d="M2341.76 1451.02 L2360.12 1451.02 L2360.12 1454.96 L2346.04 1454.96 L2346.04 1463.43 Q2347.06 1463.08 2348.08 1462.92 Q2349.1 1462.73 2350.12 1462.73 Q2355.9 1462.73 2359.28 1465.9 Q2362.66 1469.08 2362.66 1474.49 Q2362.66 1480.07 2359.19 1483.17 Q2355.72 1486.25 2349.4 1486.25 Q2347.22 1486.25 2344.96 1485.88 Q2342.71 1485.51 2340.3 1484.77 L2340.3 1480.07 Q2342.39 1481.2 2344.61 1481.76 Q2346.83 1482.32 2349.31 1482.32 Q2353.31 1482.32 2355.65 1480.21 Q2357.99 1478.1 2357.99 1474.49 Q2357.99 1470.88 2355.65 1468.77 Q2353.31 1466.67 2349.31 1466.67 Q2347.43 1466.67 2345.56 1467.08 Q2343.71 1467.5 2341.76 1468.38 L2341.76 1451.02 Z" fill="#000000" fill-rule="nonzero" fill-opacity="1" /><path clip-path="url(#clip710)" d="M2381.88 1454.1 Q2378.27 1454.1 2376.44 1457.66 Q2374.63 1461.2 2374.63 1468.33 Q2374.63 1475.44 2376.44 1479.01 Q2378.27 1482.55 2381.88 1482.55 Q2385.51 1482.55 2387.32 1479.01 Q2389.14 1475.44 2389.14 1468.33 Q2389.14 1461.2 2387.32 1457.66 Q2385.51 1454.1 2381.88 1454.1 M2381.88 1450.39 Q2387.69 1450.39 2390.74 1455 Q2393.82 1459.58 2393.82 1468.33 Q2393.82 1477.06 2390.74 1481.67 Q2387.69 1486.25 2381.88 1486.25 Q2376.07 1486.25 2372.99 1481.67 Q2369.93 1477.06 2369.93 1468.33 Q2369.93 1459.58 2372.99 1455 Q2376.07 1450.39 2381.88 1450.39 Z" fill="#000000" fill-rule="nonzero" fill-opacity="1" /><path clip-path="url(#clip710)" d="M1231.53 1522.27 L1231.53 1532.4 L1243.59 1532.4 L1243.59 1536.95 L1231.53 1536.95 L1231.53 1556.3 Q1231.53 1560.66 1232.71 1561.9 Q1233.91 1563.14 1237.58 1563.14 L1243.59 1563.14 L1243.59 1568.04 L1237.58 1568.04 Q1230.8 1568.04 1228.22 1565.53 Q1225.64 1562.98 1225.64 1556.3 L1225.64 1536.95 L1221.34 1536.95 L1221.34 1532.4 L1225.64 1532.4 L1225.64 1522.27 L1231.53 1522.27 Z" fill="#000000" fill-rule="nonzero" fill-opacity="1" /><polyline clip-path="url(#clip710)" style="stroke:#000000; stroke-linecap:round; stroke-linejoin:round; stroke-width:4; stroke-opacity:1; fill:none" points="112.177,1423.18 112.177,47.2441 "/>
<polyline clip-path="url(#clip710)" style="stroke:#000000; stroke-linecap:round; stroke-linejoin:round; stroke-width:4; stroke-opacity:1; fill:none" points="112.177,1307.84 131.075,1307.84 "/>
<polyline clip-path="url(#clip710)" style="stroke:#000000; stroke-linecap:round; stroke-linejoin:round; stroke-width:4; stroke-opacity:1; fill:none" points="112.177,1034.78 131.075,1034.78 "/>
<polyline clip-path="url(#clip710)" style="stroke:#000000; stroke-linecap:round; stroke-linejoin:round; stroke-width:4; stroke-opacity:1; fill:none" points="112.177,761.719 131.075,761.719 "/>
<polyline clip-path="url(#clip710)" style="stroke:#000000; stroke-linecap:round; stroke-linejoin:round; stroke-width:4; stroke-opacity:1; fill:none" points="112.177,488.658 131.075,488.658 "/>
<polyline clip-path="url(#clip710)" style="stroke:#000000; stroke-linecap:round; stroke-linejoin:round; stroke-width:4; stroke-opacity:1; fill:none" points="112.177,215.597 131.075,215.597 "/>
<path clip-path="url(#clip710)" d="M64.2328 1293.64 Q60.6217 1293.64 58.793 1297.21 Q56.9875 1300.75 56.9875 1307.88 Q56.9875 1314.98 58.793 1318.55 Q60.6217 1322.09 64.2328 1322.09 Q67.867 1322.09 69.6726 1318.55 Q71.5013 1314.98 71.5013 1307.88 Q71.5013 1300.75 69.6726 1297.21 Q67.867 1293.64 64.2328 1293.64 M64.2328 1289.94 Q70.0429 1289.94 73.0985 1294.54 Q76.1772 1299.13 76.1772 1307.88 Q76.1772 1316.6 73.0985 1321.21 Q70.0429 1325.79 64.2328 1325.79 Q58.4226 1325.79 55.344 1321.21 Q52.2884 1316.6 52.2884 1307.88 Q52.2884 1299.13 55.344 1294.54 Q58.4226 1289.94 64.2328 1289.94 Z" fill="#000000" fill-rule="nonzero" fill-opacity="1" /><path clip-path="url(#clip710)" d="M56.2699 1048.13 L63.9087 1048.13 L63.9087 1021.76 L55.5986 1023.43 L55.5986 1019.17 L63.8624 1017.5 L68.5383 1017.5 L68.5383 1048.13 L76.1772 1048.13 L76.1772 1052.06 L56.2699 1052.06 L56.2699 1048.13 Z" fill="#000000" fill-rule="nonzero" fill-opacity="1" /><path clip-path="url(#clip710)" d="M59.8578 775.064 L76.1772 775.064 L76.1772 778.999 L54.2328 778.999 L54.2328 775.064 Q56.8949 772.31 61.4782 767.68 Q66.0846 763.027 67.2652 761.685 Q69.5105 759.162 70.3902 757.425 Q71.2929 755.666 71.2929 753.976 Q71.2929 751.222 69.3485 749.486 Q67.4272 747.75 64.3254 747.75 Q62.1263 747.75 59.6726 748.514 Q57.2421 749.277 54.4643 750.828 L54.4643 746.106 Q57.2884 744.972 59.7421 744.393 Q62.1958 743.814 64.2328 743.814 Q69.6031 743.814 72.7976 746.5 Q75.992 749.185 75.992 753.676 Q75.992 755.805 75.1818 757.726 Q74.3948 759.625 72.2883 762.217 Q71.7096 762.888 68.6078 766.106 Q65.5059 769.3 59.8578 775.064 Z" fill="#000000" fill-rule="nonzero" fill-opacity="1" /><path clip-path="url(#clip710)" d="M69.0476 487.304 Q72.404 488.022 74.279 490.29 Q76.1772 492.559 76.1772 495.892 Q76.1772 501.008 72.6587 503.809 Q69.1402 506.61 62.6587 506.61 Q60.4828 506.61 58.168 506.17 Q55.8764 505.753 53.4227 504.897 L53.4227 500.383 Q55.3671 501.517 57.6819 502.096 Q59.9967 502.675 62.5198 502.675 Q66.918 502.675 69.2096 500.938 Q71.5244 499.202 71.5244 495.892 Q71.5244 492.837 69.3717 491.124 Q67.242 489.388 63.4226 489.388 L59.3949 489.388 L59.3949 485.545 L63.6078 485.545 Q67.0569 485.545 68.8855 484.179 Q70.7142 482.79 70.7142 480.198 Q70.7142 477.536 68.8161 476.124 Q66.9411 474.689 63.4226 474.689 Q61.5013 474.689 59.3023 475.105 Q57.1032 475.522 54.4643 476.401 L54.4643 472.235 Q57.1264 471.494 59.4412 471.124 Q61.7791 470.753 63.8393 470.753 Q69.1633 470.753 72.2652 473.184 Q75.367 475.591 75.367 479.712 Q75.367 482.582 73.7235 484.573 Q72.08 486.54 69.0476 487.304 Z" fill="#000000" fill-rule="nonzero" fill-opacity="1" /><path clip-path="url(#clip710)" d="M66.5939 202.391 L54.7884 220.84 L66.5939 220.84 L66.5939 202.391 M65.367 198.317 L71.2466 198.317 L71.2466 220.84 L76.1772 220.84 L76.1772 224.729 L71.2466 224.729 L71.2466 232.877 L66.5939 232.877 L66.5939 224.729 L50.9921 224.729 L50.9921 220.215 L65.367 198.317 Z" fill="#000000" fill-rule="nonzero" fill-opacity="1" /><polyline clip-path="url(#clip711)" style="stroke:#009af9; stroke-linecap:round; stroke-linejoin:round; stroke-width:4; stroke-opacity:1; fill:none" points="112.177,87.927 113.838,86.1857 115.499,87.693 117.16,91.2445 118.821,96.0794 120.482,101.752 122.143,108.012 123.804,114.717 125.465,121.784 127.125,129.161 128.786,136.808 130.447,144.692 132.108,152.779 133.769,161.031 135.43,169.409 137.091,177.868 138.752,186.362 140.413,194.842 142.074,203.259 143.735,211.57 145.396,219.731 147.056,227.707 148.717,235.471 150.378,242.997 152.039,250.269 153.7,257.28 155.361,264.023 157.022,270.495 158.683,276.702 160.344,282.648 162.005,288.34 163.666,293.786 165.327,298.997 166.987,303.982 168.648,308.752 170.309,313.317 171.97,317.687 173.631,321.872 175.292,325.881 176.953,329.724 178.614,333.41 180.275,336.948 181.936,340.343 183.597,343.603 185.258,346.736 186.918,349.748 188.579,352.648 190.24,355.439 191.901,358.126 193.562,360.715 195.223,363.21 196.884,365.617 198.545,367.94 200.206,370.182 201.867,372.348 203.528,374.439 205.189,376.46 206.85,378.415 208.51,380.306 210.171,382.137 211.832,383.908 213.493,385.623 215.154,387.284 216.815,388.894 218.476,390.455 220.137,391.968 221.798,393.436 223.459,394.859 225.12,396.24 226.781,397.58 228.441,398.882 230.102,400.146 231.763,401.374 233.424,402.567 235.085,403.726 236.746,404.853 238.407,405.948 240.068,407.013 241.729,408.049 243.39,409.057 245.051,410.037 246.712,410.991 248.372,411.919 250.033,412.823 251.694,413.702 253.355,414.559 255.016,415.394 256.677,416.206 258.338,416.998 259.999,417.769 261.66,418.52 263.321,419.252 264.982,419.965 266.643,420.661 268.303,421.339 269.964,422.001 271.625,422.645 273.286,423.274 274.947,423.886 276.608,424.484 278.269,425.067 279.93,425.636 281.591,426.191 283.252,426.733 284.913,427.262 286.574,427.777 288.235,428.281 289.895,428.772 291.556,429.251 293.217,429.719 294.878,430.176 296.539,430.622 298.2,431.058 299.861,431.483 301.522,431.899 303.183,432.304 304.844,432.7 306.505,433.087 308.166,433.465 309.826,433.834 311.487,434.194 313.148,434.547 314.809,434.891 316.47,435.227 318.131,435.555 319.792,435.876 321.453,436.19 323.114,436.496 324.775,436.796 326.436,437.088 328.097,437.375 329.757,437.654 331.418,437.927 333.079,438.194 334.74,438.455 336.401,438.71 338.062,438.96 339.723,439.204 341.384,439.442 343.045,439.675 344.706,439.903 346.367,440.126 348.028,440.344 349.688,440.556 351.349,440.765 353.01,440.968 354.671,441.167 356.332,441.362 357.993,441.552 359.654,441.739 361.315,441.921 362.976,442.099 364.637,442.273 366.298,442.443 367.959,442.61 369.62,442.773 371.28,442.932 372.941,443.088 374.602,443.24 376.263,443.39 377.924,443.536 379.585,443.678 381.246,443.818 382.907,443.954 384.568,444.088 386.229,444.219 387.89,444.346 389.551,444.471 391.211,444.594 392.872,444.714 394.533,444.831 396.194,444.945 397.855,445.057 399.516,445.167 401.177,445.274 402.838,445.379 404.499,445.482 406.16,445.583 407.821,445.681 409.482,445.777 411.142,445.871 412.803,445.964 414.464,446.054 416.125,446.142 417.786,446.228 419.447,446.313 421.108,446.395 422.769,446.476 424.43,446.555 426.091,446.633 427.752,446.709 429.413,446.783 431.073,446.856 432.734,446.927 434.395,446.996 436.056,447.064 437.717,447.131 439.378,447.196 441.039,447.26 442.7,447.322 444.361,447.383 446.022,447.443 447.683,447.502 449.344,447.559 451.005,447.615 452.665,447.67 454.326,447.724 455.987,447.776 457.648,447.828 459.309,447.878 460.97,447.927 462.631,447.975 464.292,448.023 465.953,448.069 467.614,448.114 469.275,448.158 470.936,448.202 472.596,448.244 474.257,448.286 475.918,448.326 477.579,448.366 479.24,448.405 480.901,448.443 482.562,448.48 484.223,448.517 485.884,448.553 487.545,448.588 489.206,448.622 490.867,448.655 492.527,448.688 494.188,448.72 495.849,448.752 497.51,448.782 499.171,448.813 500.832,448.842 502.493,448.871 504.154,448.899 505.815,448.927 507.476,448.954 509.137,448.98 510.798,449.006 512.458,449.032 514.119,449.057 515.78,449.081 517.441,449.105 519.102,449.128 520.763,449.151 522.424,449.173 524.085,449.195 525.746,449.217 527.407,449.238 529.068,449.258 530.729,449.278 532.389,449.298 534.05,449.317 535.711,449.336 537.372,449.354 539.033,449.372 540.694,449.39 542.355,449.407 544.016,449.424 545.677,449.441 547.338,449.457 548.999,449.473 550.66,449.489 552.321,449.504 553.981,449.519 555.642,449.533 557.303,449.548 558.964,449.562 560.625,449.575 562.286,449.589 563.947,449.602 565.608,449.615 567.269,449.628 568.93,449.64 570.591,449.652 572.252,449.664 573.912,449.675 575.573,449.687 577.234,449.698 578.895,449.708 580.556,449.719 582.217,449.729 583.878,449.74 585.539,449.75 587.2,449.759 588.861,449.769 590.522,449.778 592.183,449.787 593.843,449.796 595.504,449.805 597.165,449.814 598.826,449.822 600.487,449.83 602.148,449.838 603.809,449.846 605.47,449.854 607.131,449.862 608.792,449.869 610.453,449.876 612.114,449.883 613.774,449.89 615.435,449.897 617.096,449.904 618.757,449.91 620.418,449.917 622.079,449.923 623.74,449.929 625.401,449.935 627.062,449.941 628.723,449.947 630.384,449.952 632.045,449.958 633.706,449.963 635.366,449.968 637.027,449.974 638.688,449.979 640.349,449.984 642.01,449.988 643.671,449.993 645.332,449.998 646.993,450.002 648.654,450.007 650.315,450.011 651.976,450.016 653.637,450.02 655.297,450.024 656.958,450.028 658.619,450.032 660.28,450.036 661.941,450.039 663.602,450.043 665.263,450.047 666.924,450.05 668.585,450.054 670.246,450.057 671.907,450.06 673.568,450.063 675.228,450.067 676.889,450.07 678.55,450.073 680.211,450.076 681.872,450.079 683.533,450.082 685.194,450.084 686.855,450.087 688.516,450.09 690.177,450.092 691.838,450.095 693.499,450.097 695.159,450.1 696.82,450.102 698.481,450.105 700.142,450.107 701.803,450.109 703.464,450.111 705.125,450.114 706.786,450.116 708.447,450.118 710.108,450.12 711.769,450.122 713.43,450.124 715.091,450.126 716.751,450.128 718.412,450.129 720.073,450.131 721.734,450.133 723.395,450.135 725.056,450.136 726.717,450.138 728.378,450.14 730.039,450.141 731.7,450.143 733.361,450.144 735.022,450.146 736.682,450.147 738.343,450.149 740.004,450.15 741.665,450.151 743.326,450.153 744.987,450.154 746.648,450.155 748.309,450.157 749.97,450.158 751.631,450.159 753.292,450.16 754.953,450.161 756.613,450.162 758.274,450.163 759.935,450.165 761.596,450.166 763.257,450.167 764.918,450.168 766.579,450.169 768.24,450.17 769.901,450.171 771.562,450.171 773.223,450.172 774.884,450.173 776.544,450.174 778.205,450.175 779.866,450.176 781.527,450.177 783.188,450.177 784.849,450.178 786.51,450.179 788.171,450.18 789.832,450.18 791.493,450.181 793.154,450.182 794.815,450.183 796.475,450.183 798.136,450.184 799.797,450.185 801.458,450.185 803.119,450.186 804.78,450.186 806.441,450.187 808.102,450.188 809.763,450.188 811.424,450.189 813.085,450.189 814.746,450.19 816.407,450.19 818.067,450.191 819.728,450.191 821.389,450.192 823.05,450.192 824.711,450.193 826.372,450.193 828.033,450.194 829.694,450.194 831.355,450.195 833.016,450.195 834.677,450.195 836.338,450.196 837.998,450.196 839.659,450.197 841.32,450.197 842.981,450.197 844.642,450.198 846.303,450.198 847.964,450.199 849.625,450.199 851.286,450.199 852.947,450.199 854.608,450.2 856.269,450.2 857.929,450.2 859.59,450.201 861.251,450.201 862.912,450.201 864.573,450.202 866.234,450.202 867.895,450.202 869.556,450.202 871.217,450.203 872.878,450.203 874.539,450.203 876.2,450.203 877.86,450.204 879.521,450.204 881.182,450.204 882.843,450.204 884.504,450.205 886.165,450.205 887.826,450.205 889.487,450.205 891.148,450.205 892.809,450.206 894.47,450.206 896.131,450.206 897.792,450.206 899.452,450.206 901.113,450.207 902.774,450.207 904.435,450.207 906.096,450.207 907.757,450.207 909.418,450.207 911.079,450.208 912.74,450.208 914.401,450.208 916.062,450.208 917.723,450.208 919.383,450.208 921.044,450.208 922.705,450.209 924.366,450.209 926.027,450.209 927.688,450.209 929.349,450.209 931.01,450.209 932.671,450.209 934.332,450.209 935.993,450.21 937.654,450.21 939.314,450.21 940.975,450.21 942.636,450.21 944.297,450.21 945.958,450.21 947.619,450.21 949.28,450.21 950.941,450.21 952.602,450.211 954.263,450.211 955.924,450.211 957.585,450.211 959.245,450.211 960.906,450.211 962.567,450.211 964.228,450.211 965.889,450.211 967.55,450.211 969.211,450.211 970.872,450.211 972.533,450.211 974.194,450.212 975.855,450.212 977.516,450.212 979.177,450.212 980.837,450.212 982.498,450.212 984.159,450.212 985.82,450.212 987.481,450.212 989.142,450.212 990.803,450.212 992.464,450.212 994.125,450.212 995.786,450.212 997.447,450.212 999.108,450.213 1000.77,450.213 1002.43,450.213 1004.09,450.213 1005.75,450.213 1007.41,450.213 1009.07,450.213 1010.73,450.213 1012.39,450.213 1014.06,450.213 1015.72,450.213 1017.38,450.213 1019.04,450.213 1020.7,450.213 1022.36,450.213 1024.02,450.213 1025.68,450.213 1027.34,450.213 1029,450.213 1030.66,450.213 1032.33,450.213 1033.99,450.213 1035.65,450.213 1037.31,450.213 1038.97,450.213 1040.63,450.214 1042.29,450.214 1043.95,450.214 1045.61,450.214 1047.27,450.214 1048.94,450.214 1050.6,450.214 1052.26,450.214 1053.92,450.214 1055.58,450.214 1057.24,450.214 1058.9,450.214 1060.56,450.214 1062.22,450.214 1063.88,450.214 1065.54,450.214 1067.21,450.214 1068.87,450.214 1070.53,450.214 1072.19,450.214 1073.85,450.214 1075.51,450.214 1077.17,450.214 1078.83,450.214 1080.49,450.214 1082.15,450.214 1083.81,450.214 1085.48,450.214 1087.14,450.214 1088.8,450.214 1090.46,450.214 1092.12,450.214 1093.78,450.214 1095.44,450.214 1097.1,450.214 1098.76,450.214 1100.42,450.214 1102.08,450.214 1103.75,450.214 1105.41,450.214 1107.07,450.214 1108.73,450.214 1110.39,450.214 1112.05,450.214 1113.71,450.214 1115.37,450.214 1117.03,450.214 1118.69,450.214 1120.35,450.214 1122.02,450.214 1123.68,450.214 1125.34,450.214 1127,450.214 1128.66,450.214 1130.32,450.214 1131.98,450.214 1133.64,450.214 1135.3,450.214 1136.96,450.214 1138.62,450.215 1140.29,450.215 1141.95,450.215 1143.61,450.215 1145.27,450.215 1146.93,450.215 1148.59,450.215 1150.25,450.214 1151.91,450.215 1153.57,450.215 1155.23,450.215 1156.89,450.215 1158.56,450.215 1160.22,450.215 1161.88,450.215 1163.54,450.215 1165.2,450.215 1166.86,450.215 1168.52,450.215 1170.18,450.215 1171.84,450.215 1173.5,450.215 1175.16,450.215 1176.83,450.215 1178.49,450.215 1180.15,450.215 1181.81,450.215 1183.47,450.215 1185.13,450.215 1186.79,450.215 1188.45,450.215 1190.11,450.215 1191.77,450.215 1193.43,450.215 1195.1,450.215 1196.76,450.215 1198.42,450.215 1200.08,450.215 1201.74,450.215 1203.4,450.215 1205.06,450.215 1206.72,450.215 1208.38,450.215 1210.04,450.215 1211.71,450.215 1213.37,450.215 1215.03,450.215 1216.69,450.215 1218.35,450.215 1220.01,450.215 1221.67,450.215 1223.33,450.215 1224.99,450.215 1226.65,450.215 1228.31,450.215 1229.98,450.215 1231.64,450.215 1233.3,450.215 1234.96,450.215 1236.62,450.215 1238.28,450.215 1239.94,450.215 1241.6,450.215 1243.26,450.215 1244.92,450.215 1246.58,450.215 1248.25,450.215 1249.91,450.215 1251.57,450.215 1253.23,450.215 1254.89,450.215 1256.55,450.215 1258.21,450.215 1259.87,450.215 1261.53,450.215 1263.19,450.215 1264.85,450.215 1266.52,450.215 1268.18,450.215 1269.84,450.215 1271.5,450.215 1273.16,450.215 1274.82,450.215 1276.48,450.215 1278.14,450.215 1279.8,450.215 1281.46,450.215 1283.12,450.215 1284.79,450.215 1286.45,450.215 1288.11,450.215 1289.77,450.215 1291.43,450.215 1293.09,450.215 1294.75,450.215 1296.41,450.215 1298.07,450.215 1299.73,450.215 1301.39,450.215 1303.06,450.215 1304.72,450.215 1306.38,450.215 1308.04,450.215 1309.7,450.215 1311.36,450.215 1313.02,450.215 1314.68,450.215 1316.34,450.215 1318,450.215 1319.66,450.215 1321.33,450.215 1322.99,450.215 1324.65,450.215 1326.31,450.215 1327.97,450.215 1329.63,450.215 1331.29,450.215 1332.95,450.215 1334.61,450.215 1336.27,450.215 1337.93,450.215 1339.6,450.215 1341.26,450.215 1342.92,450.215 1344.58,450.215 1346.24,450.215 1347.9,450.215 1349.56,450.215 1351.22,450.215 1352.88,450.215 1354.54,450.215 1356.2,450.215 1357.87,450.215 1359.53,450.215 1361.19,450.215 1362.85,450.215 1364.51,450.215 1366.17,450.215 1367.83,450.215 1369.49,450.215 1371.15,450.215 1372.81,450.215 1374.48,450.215 1376.14,450.215 1377.8,450.215 1379.46,450.215 1381.12,450.215 1382.78,450.215 1384.44,450.215 1386.1,450.215 1387.76,450.215 1389.42,450.215 1391.08,450.215 1392.75,450.215 1394.41,450.215 1396.07,450.215 1397.73,450.215 1399.39,450.215 1401.05,450.215 1402.71,450.215 1404.37,450.215 1406.03,450.215 1407.69,450.215 1409.35,450.215 1411.02,450.215 1412.68,450.215 1414.34,450.215 1416,450.215 1417.66,450.215 1419.32,450.215 1420.98,450.215 1422.64,450.215 1424.3,450.215 1425.96,450.215 1427.62,450.215 1429.29,450.215 1430.95,450.215 1432.61,450.215 1434.27,450.215 1435.93,450.215 1437.59,450.215 1439.25,450.215 1440.91,450.215 1442.57,450.215 1444.23,450.215 1445.89,450.215 1447.56,450.215 1449.22,450.215 1450.88,450.215 1452.54,450.215 1454.2,450.215 1455.86,450.215 1457.52,450.215 1459.18,450.215 1460.84,450.215 1462.5,450.215 1464.16,450.215 1465.83,450.215 1467.49,450.215 1469.15,450.215 1470.81,450.215 1472.47,450.215 1474.13,450.215 1475.79,450.215 1477.45,450.215 1479.11,450.215 1480.77,450.215 1482.43,450.215 1484.1,450.215 1485.76,450.215 1487.42,450.215 1489.08,450.215 1490.74,450.215 1492.4,450.215 1494.06,450.215 1495.72,450.215 1497.38,450.215 1499.04,450.215 1500.7,450.215 1502.37,450.215 1504.03,450.215 1505.69,450.215 1507.35,450.215 1509.01,450.215 1510.67,450.215 1512.33,450.215 1513.99,450.215 1515.65,450.215 1517.31,450.215 1518.97,450.215 1520.64,450.215 1522.3,450.215 1523.96,450.215 1525.62,450.215 1527.28,450.215 1528.94,450.215 1530.6,450.215 1532.26,450.215 1533.92,450.215 1535.58,450.215 1537.25,450.215 1538.91,450.215 1540.57,450.215 1542.23,450.215 1543.89,450.215 1545.55,450.215 1547.21,450.215 1548.87,450.215 1550.53,450.215 1552.19,450.215 1553.85,450.215 1555.52,450.215 1557.18,450.215 1558.84,450.215 1560.5,450.215 1562.16,450.215 1563.82,450.215 1565.48,450.215 1567.14,450.215 1568.8,450.215 1570.46,450.215 1572.12,450.215 1573.79,450.215 1575.45,450.215 1577.11,450.215 1578.77,450.215 1580.43,450.215 1582.09,450.215 1583.75,450.215 1585.41,450.215 1587.07,450.215 1588.73,450.215 1590.39,450.215 1592.06,450.215 1593.72,450.215 1595.38,450.215 1597.04,450.215 1598.7,450.215 1600.36,450.215 1602.02,450.215 1603.68,450.215 1605.34,450.215 1607,450.215 1608.66,450.215 1610.33,450.215 1611.99,450.215 1613.65,450.215 1615.31,450.215 1616.97,450.215 1618.63,450.215 1620.29,450.215 1621.95,450.215 1623.61,450.215 1625.27,450.215 1626.93,450.215 1628.6,450.215 1630.26,450.215 1631.92,450.215 1633.58,450.215 1635.24,450.215 1636.9,450.215 1638.56,450.215 1640.22,450.215 1641.88,450.215 1643.54,450.215 1645.2,450.215 1646.87,450.215 1648.53,450.215 1650.19,450.215 1651.85,450.215 1653.51,450.215 1655.17,450.215 1656.83,450.215 1658.49,450.215 1660.15,450.215 1661.81,450.215 1663.47,450.215 1665.14,450.215 1666.8,450.215 1668.46,450.215 1670.12,450.215 1671.78,450.215 1673.44,450.215 1675.1,450.215 1676.76,450.215 1678.42,450.215 1680.08,450.215 1681.74,450.215 1683.41,450.215 1685.07,450.215 1686.73,450.215 1688.39,450.215 1690.05,450.215 1691.71,450.215 1693.37,450.215 1695.03,450.215 1696.69,450.215 1698.35,450.215 1700.02,450.215 1701.68,450.215 1703.34,450.215 1705,450.215 1706.66,450.215 1708.32,450.215 1709.98,450.215 1711.64,450.215 1713.3,450.215 1714.96,450.215 1716.62,450.215 1718.29,450.215 1719.95,450.215 1721.61,450.215 1723.27,450.215 1724.93,450.215 1726.59,450.215 1728.25,450.215 1729.91,450.215 1731.57,450.215 1733.23,450.215 1734.89,450.215 1736.56,450.215 1738.22,450.215 1739.88,450.215 1741.54,450.215 1743.2,450.215 1744.86,450.215 1746.52,450.215 1748.18,450.215 1749.84,450.215 1751.5,450.215 1753.16,450.215 1754.83,450.215 1756.49,450.215 1758.15,450.215 1759.81,450.215 1761.47,450.215 1763.13,450.215 1764.79,450.215 1766.45,450.215 1768.11,450.215 1769.77,450.215 1771.43,450.215 1773.1,450.215 1774.76,450.215 1776.42,450.215 1778.08,450.215 1779.74,450.215 1781.4,450.215 1783.06,450.215 1784.72,450.215 1786.38,450.215 1788.04,450.215 1789.7,450.215 1791.37,450.215 1793.03,450.215 1794.69,450.215 1796.35,450.215 1798.01,450.215 1799.67,450.215 1801.33,450.215 1802.99,450.215 1804.65,450.215 1806.31,450.215 1807.97,450.215 1809.64,450.215 1811.3,450.215 1812.96,450.215 1814.62,450.215 1816.28,450.215 1817.94,450.215 1819.6,450.215 1821.26,450.215 1822.92,450.215 1824.58,450.215 1826.24,450.215 1827.91,450.215 1829.57,450.215 1831.23,450.215 1832.89,450.215 1834.55,450.215 1836.21,450.215 1837.87,450.215 1839.53,450.215 1841.19,450.215 1842.85,450.215 1844.51,450.215 1846.18,450.215 1847.84,450.215 1849.5,450.215 1851.16,450.215 1852.82,450.215 1854.48,450.215 1856.14,450.215 1857.8,450.215 1859.46,450.215 1861.12,450.215 1862.79,450.215 1864.45,450.215 1866.11,450.215 1867.77,450.215 1869.43,450.215 1871.09,450.215 1872.75,450.215 1874.41,450.215 1876.07,450.215 1877.73,450.215 1879.39,450.215 1881.06,450.215 1882.72,450.215 1884.38,450.215 1886.04,450.215 1887.7,450.215 1889.36,450.215 1891.02,450.215 1892.68,450.215 1894.34,450.215 1896,450.215 1897.66,450.215 1899.33,450.215 1900.99,450.215 1902.65,450.215 1904.31,450.215 1905.97,450.215 1907.63,450.215 1909.29,450.215 1910.95,450.215 1912.61,450.215 1914.27,450.215 1915.93,450.215 1917.6,450.215 1919.26,450.215 1920.92,450.215 1922.58,450.215 1924.24,450.215 1925.9,450.215 1927.56,450.215 1929.22,450.215 1930.88,450.215 1932.54,450.215 1934.2,450.215 1935.87,450.215 1937.53,450.215 1939.19,450.215 1940.85,450.215 1942.51,450.215 1944.17,450.215 1945.83,450.215 1947.49,450.215 1949.15,450.215 1950.81,450.215 1952.47,450.215 1954.14,450.215 1955.8,450.215 1957.46,450.215 1959.12,450.215 1960.78,450.215 1962.44,450.215 1964.1,450.215 1965.76,450.215 1967.42,450.215 1969.08,450.215 1970.74,450.215 1972.41,450.215 1974.07,450.215 1975.73,450.215 1977.39,450.215 1979.05,450.215 1980.71,450.215 1982.37,450.215 1984.03,450.215 1985.69,450.215 1987.35,450.215 1989.01,450.215 1990.68,450.215 1992.34,450.215 1994,450.215 1995.66,450.215 1997.32,450.215 1998.98,450.215 2000.64,450.215 2002.3,450.215 2003.96,450.215 2005.62,450.215 2007.28,450.215 2008.95,450.215 2010.61,450.215 2012.27,450.215 2013.93,450.215 2015.59,450.215 2017.25,450.215 2018.91,450.215 2020.57,450.215 2022.23,450.215 2023.89,450.215 2025.56,450.215 2027.22,450.215 2028.88,450.215 2030.54,450.215 2032.2,450.215 2033.86,450.215 2035.52,450.215 2037.18,450.215 2038.84,450.215 2040.5,450.215 2042.16,450.215 2043.83,450.215 2045.49,450.215 2047.15,450.215 2048.81,450.215 2050.47,450.215 2052.13,450.215 2053.79,450.215 2055.45,450.215 2057.11,450.215 2058.77,450.215 2060.43,450.215 2062.1,450.215 2063.76,450.215 2065.42,450.215 2067.08,450.215 2068.74,450.215 2070.4,450.215 2072.06,450.215 2073.72,450.215 2075.38,450.215 2077.04,450.215 2078.7,450.215 2080.37,450.215 2082.03,450.215 2083.69,450.215 2085.35,450.215 2087.01,450.215 2088.67,450.215 2090.33,450.215 2091.99,450.215 2093.65,450.215 2095.31,450.215 2096.97,450.215 2098.64,450.215 2100.3,450.215 2101.96,450.215 2103.62,450.215 2105.28,450.215 2106.94,450.215 2108.6,450.215 2110.26,450.215 2111.92,450.215 2113.58,450.215 2115.24,450.215 2116.91,450.215 2118.57,450.215 2120.23,450.215 2121.89,450.215 2123.55,450.215 2125.21,450.215 2126.87,450.215 2128.53,450.215 2130.19,450.215 2131.85,450.215 2133.51,450.215 2135.18,450.215 2136.84,450.215 2138.5,450.215 2140.16,450.215 2141.82,450.215 2143.48,450.215 2145.14,450.215 2146.8,450.215 2148.46,450.215 2150.12,450.215 2151.78,450.215 2153.45,450.215 2155.11,450.215 2156.77,450.215 2158.43,450.215 2160.09,450.215 2161.75,450.215 2163.41,450.215 2165.07,450.215 2166.73,450.215 2168.39,450.215 2170.05,450.215 2171.72,450.215 2173.38,450.215 2175.04,450.215 2176.7,450.215 2178.36,450.215 2180.02,450.215 2181.68,450.215 2183.34,450.215 2185,450.215 2186.66,450.215 2188.32,450.215 2189.99,450.215 2191.65,450.215 2193.31,450.215 2194.97,450.215 2196.63,450.215 2198.29,450.215 2199.95,450.215 2201.61,450.215 2203.27,450.215 2204.93,450.215 2206.6,450.215 2208.26,450.215 2209.92,450.215 2211.58,450.215 2213.24,450.215 2214.9,450.215 2216.56,450.215 2218.22,450.215 2219.88,450.215 2221.54,450.215 2223.2,450.215 2224.87,450.215 2226.53,450.215 2228.19,450.215 2229.85,450.215 2231.51,450.215 2233.17,450.215 2234.83,450.215 2236.49,450.215 2238.15,450.215 2239.81,450.215 2241.47,450.215 2243.14,450.215 2244.8,450.215 2246.46,450.215 2248.12,450.215 2249.78,450.215 2251.44,450.215 2253.1,450.215 2254.76,450.215 2256.42,450.215 2258.08,450.215 2259.74,450.215 2261.41,450.215 2263.07,450.215 2264.73,450.215 2266.39,450.215 2268.05,450.215 2269.71,450.215 2271.37,450.215 2273.03,450.215 2274.69,450.215 2276.35,450.215 2278.01,450.215 2279.68,450.215 2281.34,450.215 2283,450.215 2284.66,450.215 2286.32,450.215 2287.98,450.215 2289.64,450.215 2291.3,450.215 2292.96,450.215 2294.62,450.215 2296.28,450.215 2297.95,450.215 2299.61,450.215 2301.27,450.215 2302.93,450.215 2304.59,450.215 2306.25,450.215 2307.91,450.215 2309.57,450.215 2311.23,450.215 2312.89,450.215 2314.55,450.215 2316.22,450.215 2317.88,450.215 2319.54,450.215 2321.2,450.215 2322.86,450.215 2324.52,450.215 2326.18,450.215 2327.84,450.215 2329.5,450.215 2331.16,450.215 2332.82,450.215 2334.49,450.215 2336.15,450.215 2337.81,450.215 2339.47,450.215 2341.13,450.215 2342.79,450.215 2344.45,450.215 2346.11,450.215 2347.77,450.215 2349.43,450.215 2351.09,450.215 2352.76,450.215 "/>
<polyline clip-path="url(#clip711)" style="stroke:#e26f46; stroke-linecap:round; stroke-linejoin:round; stroke-width:4; stroke-opacity:1; fill:none" points="112.177,1272.84 113.838,1308.97 115.499,1332.03 117.16,1346.42 118.821,1355.58 120.482,1361.78 122.143,1366.3 123.804,1369.87 125.465,1372.86 127.125,1375.45 128.786,1377.73 130.447,1379.71 132.108,1381.37 133.769,1382.69 135.43,1383.62 137.091,1384.15 138.752,1384.24 140.413,1383.9 142.074,1383.13 143.735,1381.97 145.396,1380.46 147.056,1378.66 148.717,1376.62 150.378,1374.41 152.039,1372.08 153.7,1369.69 155.361,1367.26 157.022,1364.85 158.683,1362.48 160.344,1360.16 162.005,1357.91 163.666,1355.75 165.327,1353.67 166.987,1351.69 168.648,1349.8 170.309,1348 171.97,1346.29 173.631,1344.67 175.292,1343.14 176.953,1341.68 178.614,1340.3 180.275,1339 181.936,1337.76 183.597,1336.58 185.258,1335.47 186.918,1334.42 188.579,1333.42 190.24,1332.46 191.901,1331.56 193.562,1330.7 195.223,1329.88 196.884,1329.1 198.545,1328.36 200.206,1327.65 201.867,1326.98 203.528,1326.33 205.189,1325.72 206.85,1325.13 208.51,1324.57 210.171,1324.03 211.832,1323.51 213.493,1323.02 215.154,1322.55 216.815,1322.1 218.476,1321.66 220.137,1321.24 221.798,1320.84 223.459,1320.45 225.12,1320.08 226.781,1319.72 228.441,1319.38 230.102,1319.05 231.763,1318.72 233.424,1318.42 235.085,1318.12 236.746,1317.83 238.407,1317.56 240.068,1317.29 241.729,1317.03 243.39,1316.78 245.051,1316.54 246.712,1316.3 248.372,1316.08 250.033,1315.86 251.694,1315.65 253.355,1315.44 255.016,1315.25 256.677,1315.05 258.338,1314.87 259.999,1314.69 261.66,1314.51 263.321,1314.34 264.982,1314.18 266.643,1314.02 268.303,1313.86 269.964,1313.71 271.625,1313.56 273.286,1313.42 274.947,1313.29 276.608,1313.15 278.269,1313.02 279.93,1312.9 281.591,1312.77 283.252,1312.65 284.913,1312.54 286.574,1312.42 288.235,1312.31 289.895,1312.21 291.556,1312.1 293.217,1312 294.878,1311.9 296.539,1311.81 298.2,1311.71 299.861,1311.62 301.522,1311.53 303.183,1311.45 304.844,1311.36 306.505,1311.28 308.166,1311.2 309.826,1311.12 311.487,1311.05 313.148,1310.97 314.809,1310.9 316.47,1310.83 318.131,1310.76 319.792,1310.69 321.453,1310.63 323.114,1310.57 324.775,1310.5 326.436,1310.44 328.097,1310.38 329.757,1310.33 331.418,1310.27 333.079,1310.22 334.74,1310.16 336.401,1310.11 338.062,1310.06 339.723,1310.01 341.384,1309.96 343.045,1309.91 344.706,1309.87 346.367,1309.82 348.028,1309.78 349.688,1309.74 351.349,1309.69 353.01,1309.65 354.671,1309.61 356.332,1309.57 357.993,1309.53 359.654,1309.5 361.315,1309.46 362.976,1309.42 364.637,1309.39 366.298,1309.36 367.959,1309.32 369.62,1309.29 371.28,1309.26 372.941,1309.23 374.602,1309.2 376.263,1309.17 377.924,1309.14 379.585,1309.11 381.246,1309.08 382.907,1309.06 384.568,1309.03 386.229,1309 387.89,1308.98 389.551,1308.95 391.211,1308.93 392.872,1308.91 394.533,1308.88 396.194,1308.86 397.855,1308.84 399.516,1308.82 401.177,1308.8 402.838,1308.78 404.499,1308.76 406.16,1308.74 407.821,1308.72 409.482,1308.7 411.142,1308.68 412.803,1308.66 414.464,1308.64 416.125,1308.63 417.786,1308.61 419.447,1308.59 421.108,1308.58 422.769,1308.56 424.43,1308.55 426.091,1308.53 427.752,1308.52 429.413,1308.5 431.073,1308.49 432.734,1308.47 434.395,1308.46 436.056,1308.45 437.717,1308.43 439.378,1308.42 441.039,1308.41 442.7,1308.4 444.361,1308.39 446.022,1308.37 447.683,1308.36 449.344,1308.35 451.005,1308.34 452.665,1308.33 454.326,1308.32 455.987,1308.31 457.648,1308.3 459.309,1308.29 460.97,1308.28 462.631,1308.27 464.292,1308.26 465.953,1308.25 467.614,1308.24 469.275,1308.24 470.936,1308.23 472.596,1308.22 474.257,1308.21 475.918,1308.2 477.579,1308.2 479.24,1308.19 480.901,1308.18 482.562,1308.17 484.223,1308.17 485.884,1308.16 487.545,1308.15 489.206,1308.15 490.867,1308.14 492.527,1308.13 494.188,1308.13 495.849,1308.12 497.51,1308.12 499.171,1308.11 500.832,1308.1 502.493,1308.1 504.154,1308.09 505.815,1308.09 507.476,1308.08 509.137,1308.08 510.798,1308.07 512.458,1308.07 514.119,1308.06 515.78,1308.06 517.441,1308.05 519.102,1308.05 520.763,1308.04 522.424,1308.04 524.085,1308.04 525.746,1308.03 527.407,1308.03 529.068,1308.02 530.729,1308.02 532.389,1308.02 534.05,1308.01 535.711,1308.01 537.372,1308.01 539.033,1308 540.694,1308 542.355,1308 544.016,1307.99 545.677,1307.99 547.338,1307.99 548.999,1307.98 550.66,1307.98 552.321,1307.98 553.981,1307.97 555.642,1307.97 557.303,1307.97 558.964,1307.97 560.625,1307.96 562.286,1307.96 563.947,1307.96 565.608,1307.96 567.269,1307.95 568.93,1307.95 570.591,1307.95 572.252,1307.95 573.912,1307.94 575.573,1307.94 577.234,1307.94 578.895,1307.94 580.556,1307.94 582.217,1307.93 583.878,1307.93 585.539,1307.93 587.2,1307.93 588.861,1307.93 590.522,1307.92 592.183,1307.92 593.843,1307.92 595.504,1307.92 597.165,1307.92 598.826,1307.92 600.487,1307.91 602.148,1307.91 603.809,1307.91 605.47,1307.91 607.131,1307.91 608.792,1307.91 610.453,1307.91 612.114,1307.9 613.774,1307.9 615.435,1307.9 617.096,1307.9 618.757,1307.9 620.418,1307.9 622.079,1307.9 623.74,1307.9 625.401,1307.89 627.062,1307.89 628.723,1307.89 630.384,1307.89 632.045,1307.89 633.706,1307.89 635.366,1307.89 637.027,1307.89 638.688,1307.89 640.349,1307.89 642.01,1307.88 643.671,1307.88 645.332,1307.88 646.993,1307.88 648.654,1307.88 650.315,1307.88 651.976,1307.88 653.637,1307.88 655.297,1307.88 656.958,1307.88 658.619,1307.88 660.28,1307.88 661.941,1307.88 663.602,1307.87 665.263,1307.87 666.924,1307.87 668.585,1307.87 670.246,1307.87 671.907,1307.87 673.568,1307.87 675.228,1307.87 676.889,1307.87 678.55,1307.87 680.211,1307.87 681.872,1307.87 683.533,1307.87 685.194,1307.87 686.855,1307.87 688.516,1307.87 690.177,1307.86 691.838,1307.86 693.499,1307.86 695.159,1307.86 696.82,1307.86 698.481,1307.86 700.142,1307.86 701.803,1307.86 703.464,1307.86 705.125,1307.86 706.786,1307.86 708.447,1307.86 710.108,1307.86 711.769,1307.86 713.43,1307.86 715.091,1307.86 716.751,1307.86 718.412,1307.86 720.073,1307.86 721.734,1307.86 723.395,1307.86 725.056,1307.86 726.717,1307.86 728.378,1307.86 730.039,1307.86 731.7,1307.86 733.361,1307.86 735.022,1307.85 736.682,1307.85 738.343,1307.85 740.004,1307.85 741.665,1307.85 743.326,1307.85 744.987,1307.85 746.648,1307.85 748.309,1307.85 749.97,1307.85 751.631,1307.85 753.292,1307.85 754.953,1307.85 756.613,1307.85 758.274,1307.85 759.935,1307.85 761.596,1307.85 763.257,1307.85 764.918,1307.85 766.579,1307.85 768.24,1307.85 769.901,1307.85 771.562,1307.85 773.223,1307.85 774.884,1307.85 776.544,1307.85 778.205,1307.85 779.866,1307.85 781.527,1307.85 783.188,1307.85 784.849,1307.85 786.51,1307.85 788.171,1307.85 789.832,1307.85 791.493,1307.85 793.154,1307.85 794.815,1307.85 796.475,1307.85 798.136,1307.85 799.797,1307.85 801.458,1307.85 803.119,1307.85 804.78,1307.85 806.441,1307.85 808.102,1307.85 809.763,1307.85 811.424,1307.85 813.085,1307.85 814.746,1307.85 816.407,1307.85 818.067,1307.85 819.728,1307.85 821.389,1307.85 823.05,1307.85 824.711,1307.85 826.372,1307.85 828.033,1307.85 829.694,1307.85 831.355,1307.85 833.016,1307.85 834.677,1307.85 836.338,1307.85 837.998,1307.85 839.659,1307.85 841.32,1307.84 842.981,1307.84 844.642,1307.84 846.303,1307.84 847.964,1307.84 849.625,1307.84 851.286,1307.84 852.947,1307.84 854.608,1307.84 856.269,1307.84 857.929,1307.84 859.59,1307.84 861.251,1307.84 862.912,1307.84 864.573,1307.84 866.234,1307.84 867.895,1307.84 869.556,1307.84 871.217,1307.84 872.878,1307.84 874.539,1307.84 876.2,1307.84 877.86,1307.84 879.521,1307.84 881.182,1307.84 882.843,1307.84 884.504,1307.84 886.165,1307.84 887.826,1307.84 889.487,1307.84 891.148,1307.84 892.809,1307.84 894.47,1307.84 896.131,1307.84 897.792,1307.84 899.452,1307.84 901.113,1307.84 902.774,1307.84 904.435,1307.84 906.096,1307.84 907.757,1307.84 909.418,1307.84 911.079,1307.84 912.74,1307.84 914.401,1307.84 916.062,1307.84 917.723,1307.84 919.383,1307.84 921.044,1307.84 922.705,1307.84 924.366,1307.84 926.027,1307.84 927.688,1307.84 929.349,1307.84 931.01,1307.84 932.671,1307.84 934.332,1307.84 935.993,1307.84 937.654,1307.84 939.314,1307.84 940.975,1307.84 942.636,1307.84 944.297,1307.84 945.958,1307.84 947.619,1307.84 949.28,1307.84 950.941,1307.84 952.602,1307.84 954.263,1307.84 955.924,1307.84 957.585,1307.84 959.245,1307.84 960.906,1307.84 962.567,1307.84 964.228,1307.84 965.889,1307.84 967.55,1307.84 969.211,1307.84 970.872,1307.84 972.533,1307.84 974.194,1307.84 975.855,1307.84 977.516,1307.84 979.177,1307.84 980.837,1307.84 982.498,1307.84 984.159,1307.84 985.82,1307.84 987.481,1307.84 989.142,1307.84 990.803,1307.84 992.464,1307.84 994.125,1307.84 995.786,1307.84 997.447,1307.84 999.108,1307.84 1000.77,1307.84 1002.43,1307.84 1004.09,1307.84 1005.75,1307.84 1007.41,1307.84 1009.07,1307.84 1010.73,1307.84 1012.39,1307.84 1014.06,1307.84 1015.72,1307.84 1017.38,1307.84 1019.04,1307.84 1020.7,1307.84 1022.36,1307.84 1024.02,1307.84 1025.68,1307.84 1027.34,1307.84 1029,1307.84 1030.66,1307.84 1032.33,1307.84 1033.99,1307.84 1035.65,1307.84 1037.31,1307.84 1038.97,1307.84 1040.63,1307.84 1042.29,1307.84 1043.95,1307.84 1045.61,1307.84 1047.27,1307.84 1048.94,1307.84 1050.6,1307.84 1052.26,1307.84 1053.92,1307.84 1055.58,1307.84 1057.24,1307.84 1058.9,1307.84 1060.56,1307.84 1062.22,1307.84 1063.88,1307.84 1065.54,1307.84 1067.21,1307.84 1068.87,1307.84 1070.53,1307.84 1072.19,1307.84 1073.85,1307.84 1075.51,1307.84 1077.17,1307.84 1078.83,1307.84 1080.49,1307.84 1082.15,1307.84 1083.81,1307.84 1085.48,1307.84 1087.14,1307.84 1088.8,1307.84 1090.46,1307.84 1092.12,1307.84 1093.78,1307.84 1095.44,1307.84 1097.1,1307.84 1098.76,1307.84 1100.42,1307.84 1102.08,1307.84 1103.75,1307.84 1105.41,1307.84 1107.07,1307.84 1108.73,1307.84 1110.39,1307.84 1112.05,1307.84 1113.71,1307.84 1115.37,1307.84 1117.03,1307.84 1118.69,1307.84 1120.35,1307.84 1122.02,1307.84 1123.68,1307.84 1125.34,1307.84 1127,1307.84 1128.66,1307.84 1130.32,1307.84 1131.98,1307.84 1133.64,1307.84 1135.3,1307.84 1136.96,1307.84 1138.62,1307.84 1140.29,1307.84 1141.95,1307.84 1143.61,1307.84 1145.27,1307.84 1146.93,1307.84 1148.59,1307.84 1150.25,1307.84 1151.91,1307.84 1153.57,1307.84 1155.23,1307.84 1156.89,1307.84 1158.56,1307.84 1160.22,1307.84 1161.88,1307.84 1163.54,1307.84 1165.2,1307.84 1166.86,1307.84 1168.52,1307.84 1170.18,1307.84 1171.84,1307.84 1173.5,1307.84 1175.16,1307.84 1176.83,1307.84 1178.49,1307.84 1180.15,1307.84 1181.81,1307.84 1183.47,1307.84 1185.13,1307.84 1186.79,1307.84 1188.45,1307.84 1190.11,1307.84 1191.77,1307.84 1193.43,1307.84 1195.1,1307.84 1196.76,1307.84 1198.42,1307.84 1200.08,1307.84 1201.74,1307.84 1203.4,1307.84 1205.06,1307.84 1206.72,1307.84 1208.38,1307.84 1210.04,1307.84 1211.71,1307.84 1213.37,1307.84 1215.03,1307.84 1216.69,1307.84 1218.35,1307.84 1220.01,1307.84 1221.67,1307.84 1223.33,1307.84 1224.99,1307.84 1226.65,1307.84 1228.31,1307.84 1229.98,1307.84 1231.64,1307.84 1233.3,1307.84 1234.96,1307.84 1236.62,1307.84 1238.28,1307.84 1239.94,1307.84 1241.6,1307.84 1243.26,1307.84 1244.92,1307.84 1246.58,1307.84 1248.25,1307.84 1249.91,1307.84 1251.57,1307.84 1253.23,1307.84 1254.89,1307.84 1256.55,1307.84 1258.21,1307.84 1259.87,1307.84 1261.53,1307.84 1263.19,1307.84 1264.85,1307.84 1266.52,1307.84 1268.18,1307.84 1269.84,1307.84 1271.5,1307.84 1273.16,1307.84 1274.82,1307.84 1276.48,1307.84 1278.14,1307.84 1279.8,1307.84 1281.46,1307.84 1283.12,1307.84 1284.79,1307.84 1286.45,1307.84 1288.11,1307.84 1289.77,1307.84 1291.43,1307.84 1293.09,1307.84 1294.75,1307.84 1296.41,1307.84 1298.07,1307.84 1299.73,1307.84 1301.39,1307.84 1303.06,1307.84 1304.72,1307.84 1306.38,1307.84 1308.04,1307.84 1309.7,1307.84 1311.36,1307.84 1313.02,1307.84 1314.68,1307.84 1316.34,1307.84 1318,1307.84 1319.66,1307.84 1321.33,1307.84 1322.99,1307.84 1324.65,1307.84 1326.31,1307.84 1327.97,1307.84 1329.63,1307.84 1331.29,1307.84 1332.95,1307.84 1334.61,1307.84 1336.27,1307.84 1337.93,1307.84 1339.6,1307.84 1341.26,1307.84 1342.92,1307.84 1344.58,1307.84 1346.24,1307.84 1347.9,1307.84 1349.56,1307.84 1351.22,1307.84 1352.88,1307.84 1354.54,1307.84 1356.2,1307.84 1357.87,1307.84 1359.53,1307.84 1361.19,1307.84 1362.85,1307.84 1364.51,1307.84 1366.17,1307.84 1367.83,1307.84 1369.49,1307.84 1371.15,1307.84 1372.81,1307.84 1374.48,1307.84 1376.14,1307.84 1377.8,1307.84 1379.46,1307.84 1381.12,1307.84 1382.78,1307.84 1384.44,1307.84 1386.1,1307.84 1387.76,1307.84 1389.42,1307.84 1391.08,1307.84 1392.75,1307.84 1394.41,1307.84 1396.07,1307.84 1397.73,1307.84 1399.39,1307.84 1401.05,1307.84 1402.71,1307.84 1404.37,1307.84 1406.03,1307.84 1407.69,1307.84 1409.35,1307.84 1411.02,1307.84 1412.68,1307.84 1414.34,1307.84 1416,1307.84 1417.66,1307.84 1419.32,1307.84 1420.98,1307.84 1422.64,1307.84 1424.3,1307.84 1425.96,1307.84 1427.62,1307.84 1429.29,1307.84 1430.95,1307.84 1432.61,1307.84 1434.27,1307.84 1435.93,1307.84 1437.59,1307.84 1439.25,1307.84 1440.91,1307.84 1442.57,1307.84 1444.23,1307.84 1445.89,1307.84 1447.56,1307.84 1449.22,1307.84 1450.88,1307.84 1452.54,1307.84 1454.2,1307.84 1455.86,1307.84 1457.52,1307.84 1459.18,1307.84 1460.84,1307.84 1462.5,1307.84 1464.16,1307.84 1465.83,1307.84 1467.49,1307.84 1469.15,1307.84 1470.81,1307.84 1472.47,1307.84 1474.13,1307.84 1475.79,1307.84 1477.45,1307.84 1479.11,1307.84 1480.77,1307.84 1482.43,1307.84 1484.1,1307.84 1485.76,1307.84 1487.42,1307.84 1489.08,1307.84 1490.74,1307.84 1492.4,1307.84 1494.06,1307.84 1495.72,1307.84 1497.38,1307.84 1499.04,1307.84 1500.7,1307.84 1502.37,1307.84 1504.03,1307.84 1505.69,1307.84 1507.35,1307.84 1509.01,1307.84 1510.67,1307.84 1512.33,1307.84 1513.99,1307.84 1515.65,1307.84 1517.31,1307.84 1518.97,1307.84 1520.64,1307.84 1522.3,1307.84 1523.96,1307.84 1525.62,1307.84 1527.28,1307.84 1528.94,1307.84 1530.6,1307.84 1532.26,1307.84 1533.92,1307.84 1535.58,1307.84 1537.25,1307.84 1538.91,1307.84 1540.57,1307.84 1542.23,1307.84 1543.89,1307.84 1545.55,1307.84 1547.21,1307.84 1548.87,1307.84 1550.53,1307.84 1552.19,1307.84 1553.85,1307.84 1555.52,1307.84 1557.18,1307.84 1558.84,1307.84 1560.5,1307.84 1562.16,1307.84 1563.82,1307.84 1565.48,1307.84 1567.14,1307.84 1568.8,1307.84 1570.46,1307.84 1572.12,1307.84 1573.79,1307.84 1575.45,1307.84 1577.11,1307.84 1578.77,1307.84 1580.43,1307.84 1582.09,1307.84 1583.75,1307.84 1585.41,1307.84 1587.07,1307.84 1588.73,1307.84 1590.39,1307.84 1592.06,1307.84 1593.72,1307.84 1595.38,1307.84 1597.04,1307.84 1598.7,1307.84 1600.36,1307.84 1602.02,1307.84 1603.68,1307.84 1605.34,1307.84 1607,1307.84 1608.66,1307.84 1610.33,1307.84 1611.99,1307.84 1613.65,1307.84 1615.31,1307.84 1616.97,1307.84 1618.63,1307.84 1620.29,1307.84 1621.95,1307.84 1623.61,1307.84 1625.27,1307.84 1626.93,1307.84 1628.6,1307.84 1630.26,1307.84 1631.92,1307.84 1633.58,1307.84 1635.24,1307.84 1636.9,1307.84 1638.56,1307.84 1640.22,1307.84 1641.88,1307.84 1643.54,1307.84 1645.2,1307.84 1646.87,1307.84 1648.53,1307.84 1650.19,1307.84 1651.85,1307.84 1653.51,1307.84 1655.17,1307.84 1656.83,1307.84 1658.49,1307.84 1660.15,1307.84 1661.81,1307.84 1663.47,1307.84 1665.14,1307.84 1666.8,1307.84 1668.46,1307.84 1670.12,1307.84 1671.78,1307.84 1673.44,1307.84 1675.1,1307.84 1676.76,1307.84 1678.42,1307.84 1680.08,1307.84 1681.74,1307.84 1683.41,1307.84 1685.07,1307.84 1686.73,1307.84 1688.39,1307.84 1690.05,1307.84 1691.71,1307.84 1693.37,1307.84 1695.03,1307.84 1696.69,1307.84 1698.35,1307.84 1700.02,1307.84 1701.68,1307.84 1703.34,1307.84 1705,1307.84 1706.66,1307.84 1708.32,1307.84 1709.98,1307.84 1711.64,1307.84 1713.3,1307.84 1714.96,1307.84 1716.62,1307.84 1718.29,1307.84 1719.95,1307.84 1721.61,1307.84 1723.27,1307.84 1724.93,1307.84 1726.59,1307.84 1728.25,1307.84 1729.91,1307.84 1731.57,1307.84 1733.23,1307.84 1734.89,1307.84 1736.56,1307.84 1738.22,1307.84 1739.88,1307.84 1741.54,1307.84 1743.2,1307.84 1744.86,1307.84 1746.52,1307.84 1748.18,1307.84 1749.84,1307.84 1751.5,1307.84 1753.16,1307.84 1754.83,1307.84 1756.49,1307.84 1758.15,1307.84 1759.81,1307.84 1761.47,1307.84 1763.13,1307.84 1764.79,1307.84 1766.45,1307.84 1768.11,1307.84 1769.77,1307.84 1771.43,1307.84 1773.1,1307.84 1774.76,1307.84 1776.42,1307.84 1778.08,1307.84 1779.74,1307.84 1781.4,1307.84 1783.06,1307.84 1784.72,1307.84 1786.38,1307.84 1788.04,1307.84 1789.7,1307.84 1791.37,1307.84 1793.03,1307.84 1794.69,1307.84 1796.35,1307.84 1798.01,1307.84 1799.67,1307.84 1801.33,1307.84 1802.99,1307.84 1804.65,1307.84 1806.31,1307.84 1807.97,1307.84 1809.64,1307.84 1811.3,1307.84 1812.96,1307.84 1814.62,1307.84 1816.28,1307.84 1817.94,1307.84 1819.6,1307.84 1821.26,1307.84 1822.92,1307.84 1824.58,1307.84 1826.24,1307.84 1827.91,1307.84 1829.57,1307.84 1831.23,1307.84 1832.89,1307.84 1834.55,1307.84 1836.21,1307.84 1837.87,1307.84 1839.53,1307.84 1841.19,1307.84 1842.85,1307.84 1844.51,1307.84 1846.18,1307.84 1847.84,1307.84 1849.5,1307.84 1851.16,1307.84 1852.82,1307.84 1854.48,1307.84 1856.14,1307.84 1857.8,1307.84 1859.46,1307.84 1861.12,1307.84 1862.79,1307.84 1864.45,1307.84 1866.11,1307.84 1867.77,1307.84 1869.43,1307.84 1871.09,1307.84 1872.75,1307.84 1874.41,1307.84 1876.07,1307.84 1877.73,1307.84 1879.39,1307.84 1881.06,1307.84 1882.72,1307.84 1884.38,1307.84 1886.04,1307.84 1887.7,1307.84 1889.36,1307.84 1891.02,1307.84 1892.68,1307.84 1894.34,1307.84 1896,1307.84 1897.66,1307.84 1899.33,1307.84 1900.99,1307.84 1902.65,1307.84 1904.31,1307.84 1905.97,1307.84 1907.63,1307.84 1909.29,1307.84 1910.95,1307.84 1912.61,1307.84 1914.27,1307.84 1915.93,1307.84 1917.6,1307.84 1919.26,1307.84 1920.92,1307.84 1922.58,1307.84 1924.24,1307.84 1925.9,1307.84 1927.56,1307.84 1929.22,1307.84 1930.88,1307.84 1932.54,1307.84 1934.2,1307.84 1935.87,1307.84 1937.53,1307.84 1939.19,1307.84 1940.85,1307.84 1942.51,1307.84 1944.17,1307.84 1945.83,1307.84 1947.49,1307.84 1949.15,1307.84 1950.81,1307.84 1952.47,1307.84 1954.14,1307.84 1955.8,1307.84 1957.46,1307.84 1959.12,1307.84 1960.78,1307.84 1962.44,1307.84 1964.1,1307.84 1965.76,1307.84 1967.42,1307.84 1969.08,1307.84 1970.74,1307.84 1972.41,1307.84 1974.07,1307.84 1975.73,1307.84 1977.39,1307.84 1979.05,1307.84 1980.71,1307.84 1982.37,1307.84 1984.03,1307.84 1985.69,1307.84 1987.35,1307.84 1989.01,1307.84 1990.68,1307.84 1992.34,1307.84 1994,1307.84 1995.66,1307.84 1997.32,1307.84 1998.98,1307.84 2000.64,1307.84 2002.3,1307.84 2003.96,1307.84 2005.62,1307.84 2007.28,1307.84 2008.95,1307.84 2010.61,1307.84 2012.27,1307.84 2013.93,1307.84 2015.59,1307.84 2017.25,1307.84 2018.91,1307.84 2020.57,1307.84 2022.23,1307.84 2023.89,1307.84 2025.56,1307.84 2027.22,1307.84 2028.88,1307.84 2030.54,1307.84 2032.2,1307.84 2033.86,1307.84 2035.52,1307.84 2037.18,1307.84 2038.84,1307.84 2040.5,1307.84 2042.16,1307.84 2043.83,1307.84 2045.49,1307.84 2047.15,1307.84 2048.81,1307.84 2050.47,1307.84 2052.13,1307.84 2053.79,1307.84 2055.45,1307.84 2057.11,1307.84 2058.77,1307.84 2060.43,1307.84 2062.1,1307.84 2063.76,1307.84 2065.42,1307.84 2067.08,1307.84 2068.74,1307.84 2070.4,1307.84 2072.06,1307.84 2073.72,1307.84 2075.38,1307.84 2077.04,1307.84 2078.7,1307.84 2080.37,1307.84 2082.03,1307.84 2083.69,1307.84 2085.35,1307.84 2087.01,1307.84 2088.67,1307.84 2090.33,1307.84 2091.99,1307.84 2093.65,1307.84 2095.31,1307.84 2096.97,1307.84 2098.64,1307.84 2100.3,1307.84 2101.96,1307.84 2103.62,1307.84 2105.28,1307.84 2106.94,1307.84 2108.6,1307.84 2110.26,1307.84 2111.92,1307.84 2113.58,1307.84 2115.24,1307.84 2116.91,1307.84 2118.57,1307.84 2120.23,1307.84 2121.89,1307.84 2123.55,1307.84 2125.21,1307.84 2126.87,1307.84 2128.53,1307.84 2130.19,1307.84 2131.85,1307.84 2133.51,1307.84 2135.18,1307.84 2136.84,1307.84 2138.5,1307.84 2140.16,1307.84 2141.82,1307.84 2143.48,1307.84 2145.14,1307.84 2146.8,1307.84 2148.46,1307.84 2150.12,1307.84 2151.78,1307.84 2153.45,1307.84 2155.11,1307.84 2156.77,1307.84 2158.43,1307.84 2160.09,1307.84 2161.75,1307.84 2163.41,1307.84 2165.07,1307.84 2166.73,1307.84 2168.39,1307.84 2170.05,1307.84 2171.72,1307.84 2173.38,1307.84 2175.04,1307.84 2176.7,1307.84 2178.36,1307.84 2180.02,1307.84 2181.68,1307.84 2183.34,1307.84 2185,1307.84 2186.66,1307.84 2188.32,1307.84 2189.99,1307.84 2191.65,1307.84 2193.31,1307.84 2194.97,1307.84 2196.63,1307.84 2198.29,1307.84 2199.95,1307.84 2201.61,1307.84 2203.27,1307.84 2204.93,1307.84 2206.6,1307.84 2208.26,1307.84 2209.92,1307.84 2211.58,1307.84 2213.24,1307.84 2214.9,1307.84 2216.56,1307.84 2218.22,1307.84 2219.88,1307.84 2221.54,1307.84 2223.2,1307.84 2224.87,1307.84 2226.53,1307.84 2228.19,1307.84 2229.85,1307.84 2231.51,1307.84 2233.17,1307.84 2234.83,1307.84 2236.49,1307.84 2238.15,1307.84 2239.81,1307.84 2241.47,1307.84 2243.14,1307.84 2244.8,1307.84 2246.46,1307.84 2248.12,1307.84 2249.78,1307.84 2251.44,1307.84 2253.1,1307.84 2254.76,1307.84 2256.42,1307.84 2258.08,1307.84 2259.74,1307.84 2261.41,1307.84 2263.07,1307.84 2264.73,1307.84 2266.39,1307.84 2268.05,1307.84 2269.71,1307.84 2271.37,1307.84 2273.03,1307.84 2274.69,1307.84 2276.35,1307.84 2278.01,1307.84 2279.68,1307.84 2281.34,1307.84 2283,1307.84 2284.66,1307.84 2286.32,1307.84 2287.98,1307.84 2289.64,1307.84 2291.3,1307.84 2292.96,1307.84 2294.62,1307.84 2296.28,1307.84 2297.95,1307.84 2299.61,1307.84 2301.27,1307.84 2302.93,1307.84 2304.59,1307.84 2306.25,1307.84 2307.91,1307.84 2309.57,1307.84 2311.23,1307.84 2312.89,1307.84 2314.55,1307.84 2316.22,1307.84 2317.88,1307.84 2319.54,1307.84 2321.2,1307.84 2322.86,1307.84 2324.52,1307.84 2326.18,1307.84 2327.84,1307.84 2329.5,1307.84 2331.16,1307.84 2332.82,1307.84 2334.49,1307.84 2336.15,1307.84 2337.81,1307.84 2339.47,1307.84 2341.13,1307.84 2342.79,1307.84 2344.45,1307.84 2346.11,1307.84 2347.77,1307.84 2349.43,1307.84 2351.09,1307.84 2352.76,1307.84 "/>
<path clip-path="url(#clip710)" d="M1986.47 248.629 L2278.07 248.629 L2278.07 93.1086 L1986.47 93.1086  Z" fill="#ffffff" fill-rule="evenodd" fill-opacity="1"/>
<polyline clip-path="url(#clip710)" style="stroke:#000000; stroke-linecap:round; stroke-linejoin:round; stroke-width:4; stroke-opacity:1; fill:none" points="1986.47,248.629 2278.07,248.629 2278.07,93.1086 1986.47,93.1086 1986.47,248.629 "/>
<polyline clip-path="url(#clip710)" style="stroke:#009af9; stroke-linecap:round; stroke-linejoin:round; stroke-width:4; stroke-opacity:1; fill:none" points="2011.36,144.949 2160.73,144.949 "/>
<path clip-path="url(#clip710)" d="M2204.89 145.794 L2190.14 145.794 Q2190.49 152.715 2192.09 155.655 Q2194.08 159.266 2197.53 159.266 Q2201 159.266 2202.92 155.631 Q2204.61 152.437 2204.89 145.794 M2204.82 141.858 Q2204.17 135.284 2202.92 132.97 Q2200.93 129.312 2197.53 129.312 Q2193.99 129.312 2192.11 132.923 Q2190.63 135.84 2190.19 141.858 L2204.82 141.858 M2197.53 125.84 Q2203.08 125.84 2206.25 130.747 Q2209.42 135.632 2209.42 144.289 Q2209.42 152.923 2206.25 157.83 Q2203.08 162.761 2197.53 162.761 Q2191.95 162.761 2188.8 157.83 Q2185.63 152.923 2185.63 144.289 Q2185.63 135.632 2188.8 130.747 Q2191.95 125.84 2197.53 125.84 Z" fill="#000000" fill-rule="nonzero" fill-opacity="1" /><polyline clip-path="url(#clip710)" style="stroke:#e26f46; stroke-linecap:round; stroke-linejoin:round; stroke-width:4; stroke-opacity:1; fill:none" points="2011.36,196.789 2160.73,196.789 "/>
<path clip-path="url(#clip710)" d="M2204.89 197.634 L2190.14 197.634 Q2190.49 204.555 2192.09 207.495 Q2194.08 211.106 2197.53 211.106 Q2201 211.106 2202.92 207.471 Q2204.61 204.277 2204.89 197.634 M2204.82 193.698 Q2204.17 187.124 2202.92 184.81 Q2200.93 181.152 2197.53 181.152 Q2193.99 181.152 2192.11 184.763 Q2190.63 187.68 2190.19 193.698 L2204.82 193.698 M2197.53 177.68 Q2203.08 177.68 2206.25 182.587 Q2209.42 187.472 2209.42 196.129 Q2209.42 204.763 2206.25 209.67 Q2203.08 214.601 2197.53 214.601 Q2191.95 214.601 2188.8 209.67 Q2185.63 204.763 2185.63 196.129 Q2185.63 187.472 2188.8 182.587 Q2191.95 177.68 2197.53 177.68 Z" fill="#000000" fill-rule="nonzero" fill-opacity="1" /><path clip-path="url(#clip710)" d="M2216.95 218.05 L2230.79 218.05 L2230.79 221.476 L2216.95 221.476 L2216.95 218.05 Z" fill="#000000" fill-rule="nonzero" fill-opacity="1" /><path clip-path="url(#clip710)" d="M2244.4 180.782 L2244.4 188.143 L2253.17 188.143 L2253.17 191.453 L2244.4 191.453 L2244.4 205.527 Q2244.4 208.698 2245.26 209.601 Q2246.14 210.504 2248.8 210.504 L2253.17 210.504 L2253.17 214.069 L2248.8 214.069 Q2243.87 214.069 2241.99 212.24 Q2240.12 210.388 2240.12 205.527 L2240.12 191.453 L2236.99 191.453 L2236.99 188.143 L2240.12 188.143 L2240.12 180.782 L2244.4 180.782 Z" fill="#000000" fill-rule="nonzero" fill-opacity="1" /></svg>
