<?xml version="1.0" encoding="utf-8"?>
<svg xmlns="http://www.w3.org/2000/svg" xmlns:xlink="http://www.w3.org/1999/xlink" width="600" height="400" viewBox="0 0 2400 1600">
<defs>
  <clipPath id="clip710">
    <rect x="0" y="0" width="2400" height="1600"/>
  </clipPath>
</defs>
<path clip-path="url(#clip710)" d="M0 1600 L2400 1600 L2400 0 L0 0  Z" fill="#ffffff" fill-rule="evenodd" fill-opacity="1"/>
<defs>
  <clipPath id="clip711">
    <rect x="110" y="47" width="2243" height="1377"/>
  </clipPath>
</defs>
<path clip-path="url(#clip710)" d="M110.881 1423.18 L2352.76 1423.18 L2352.76 47.2441 L110.881 47.2441  Z" fill="#ffffff" fill-rule="evenodd" fill-opacity="1"/>
<polyline clip-path="url(#clip711)" style="stroke:#000000; stroke-linecap:round; stroke-linejoin:round; stroke-width:2; stroke-opacity:0.1; fill:none" points="110.881,1423.18 110.881,47.2441 "/>
<polyline clip-path="url(#clip711)" style="stroke:#000000; stroke-linecap:round; stroke-linejoin:round; stroke-width:2; stroke-opacity:0.1; fill:none" points="484.527,1423.18 484.527,47.2441 "/>
<polyline clip-path="url(#clip711)" style="stroke:#000000; stroke-linecap:round; stroke-linejoin:round; stroke-width:2; stroke-opacity:0.1; fill:none" points="858.173,1423.18 858.173,47.2441 "/>
<polyline clip-path="url(#clip711)" style="stroke:#000000; stroke-linecap:round; stroke-linejoin:round; stroke-width:2; stroke-opacity:0.1; fill:none" points="1231.82,1423.18 1231.82,47.2441 "/>
<polyline clip-path="url(#clip711)" style="stroke:#000000; stroke-linecap:round; stroke-linejoin:round; stroke-width:2; stroke-opacity:0.1; fill:none" points="1605.46,1423.18 1605.46,47.2441 "/>
<polyline clip-path="url(#clip711)" style="stroke:#000000; stroke-linecap:round; stroke-linejoin:round; stroke-width:2; stroke-opacity:0.1; fill:none" points="1979.11,1423.18 1979.11,47.2441 "/>
<polyline clip-path="url(#clip711)" style="stroke:#000000; stroke-linecap:round; stroke-linejoin:round; stroke-width:2; stroke-opacity:0.1; fill:none" points="2352.76,1423.18 2352.76,47.2441 "/>
<polyline clip-path="url(#clip711)" style="stroke:#000000; stroke-linecap:round; stroke-linejoin:round; stroke-width:2; stroke-opacity:0.1; fill:none" points="110.881,1384.24 2352.76,1384.24 "/>
<polyline clip-path="url(#clip711)" style="stroke:#000000; stroke-linecap:round; stroke-linejoin:round; stroke-width:2; stroke-opacity:0.1; fill:none" points="110.881,970.949 2352.76,970.949 "/>
<polyline clip-path="url(#clip711)" style="stroke:#000000; stroke-linecap:round; stroke-linejoin:round; stroke-width:2; stroke-opacity:0.1; fill:none" points="110.881,557.66 2352.76,557.66 "/>
<polyline clip-path="url(#clip711)" style="stroke:#000000; stroke-linecap:round; stroke-linejoin:round; stroke-width:2; stroke-opacity:0.1; fill:none" points="110.881,144.371 2352.76,144.371 "/>
<polyline clip-path="url(#clip710)" style="stroke:#000000; stroke-linecap:round; stroke-linejoin:round; stroke-width:4; stroke-opacity:1; fill:none" points="110.881,1423.18 2352.76,1423.18 "/>
<polyline clip-path="url(#clip710)" style="stroke:#000000; stroke-linecap:round; stroke-linejoin:round; stroke-width:4; stroke-opacity:1; fill:none" points="110.881,1423.18 110.881,1404.28 "/>
<polyline clip-path="url(#clip710)" style="stroke:#000000; stroke-linecap:round; stroke-linejoin:round; stroke-width:4; stroke-opacity:1; fill:none" points="484.527,1423.18 484.527,1404.28 "/>
<polyline clip-path="url(#clip710)" style="stroke:#000000; stroke-linecap:round; stroke-linejoin:round; stroke-width:4; stroke-opacity:1; fill:none" points="858.173,1423.18 858.173,1404.28 "/>
<polyline clip-path="url(#clip710)" style="stroke:#000000; stroke-linecap:round; stroke-linejoin:round; stroke-width:4; stroke-opacity:1; fill:none" points="1231.82,1423.18 1231.82,1404.28 "/>
<polyline clip-path="url(#clip710)" style="stroke:#000000; stroke-linecap:round; stroke-linejoin:round; stroke-width:4; stroke-opacity:1; fill:none" points="1605.46,1423.18 1605.46,1404.28 "/>
<polyline clip-path="url(#clip710)" style="stroke:#000000; stroke-linecap:round; stroke-linejoin:round; stroke-width:4; stroke-opacity:1; fill:none" points="1979.11,1423.18 1979.11,1404.28 "/>
<polyline clip-path="url(#clip710)" style="stroke:#000000; stroke-linecap:round; stroke-linejoin:round; stroke-width:4; stroke-opacity:1; fill:none" points="2352.76,1423.18 2352.76,1404.28 "/>
<path clip-path="url(#clip710)" d="M110.881 1454.1 Q107.27 1454.1 105.441 1457.66 Q103.636 1461.2 103.636 1468.33 Q103.636 1475.44 105.441 1479.01 Q107.27 1482.55 110.881 1482.55 Q114.515 1482.55 116.321 1479.01 Q118.149 1475.44 118.149 1468.33 Q118.149 1461.2 116.321 1457.66 Q114.515 1454.1 110.881 1454.1 M110.881 1450.39 Q116.691 1450.39 119.747 1455 Q122.825 1459.58 122.825 1468.33 Q122.825 1477.06 119.747 1481.67 Q116.691 1486.25 110.881 1486.25 Q105.071 1486.25 101.992 1481.67 Q98.9365 1477.06 98.9365 1468.33 Q98.9365 1459.58 101.992 1455 Q105.071 1450.39 110.881 1450.39 Z" fill="#000000" fill-rule="nonzero" fill-opacity="1" /><path clip-path="url(#clip710)" d="M463.3 1481.64 L479.619 1481.64 L479.619 1485.58 L457.675 1485.58 L457.675 1481.64 Q460.337 1478.89 464.92 1474.26 Q469.527 1469.61 470.707 1468.27 Q472.953 1465.74 473.832 1464.01 Q474.735 1462.25 474.735 1460.56 Q474.735 1457.8 472.791 1456.07 Q470.869 1454.33 467.768 1454.33 Q465.568 1454.33 463.115 1455.09 Q460.684 1455.86 457.906 1457.41 L457.906 1452.69 Q460.731 1451.55 463.184 1450.97 Q465.638 1450.39 467.675 1450.39 Q473.045 1450.39 476.24 1453.08 Q479.434 1455.77 479.434 1460.26 Q479.434 1462.39 478.624 1464.31 Q477.837 1466.2 475.73 1468.8 Q475.152 1469.47 472.05 1472.69 Q468.948 1475.88 463.3 1481.64 Z" fill="#000000" fill-rule="nonzero" fill-opacity="1" /><path clip-path="url(#clip710)" d="M499.434 1454.1 Q495.823 1454.1 493.994 1457.66 Q492.189 1461.2 492.189 1468.33 Q492.189 1475.44 493.994 1479.01 Q495.823 1482.55 499.434 1482.55 Q503.068 1482.55 504.874 1479.01 Q506.703 1475.44 506.703 1468.33 Q506.703 1461.2 504.874 1457.66 Q503.068 1454.1 499.434 1454.1 M499.434 1450.39 Q505.244 1450.39 508.3 1455 Q511.378 1459.58 511.378 1468.33 Q511.378 1477.06 508.3 1481.67 Q505.244 1486.25 499.434 1486.25 Q493.624 1486.25 490.545 1481.67 Q487.49 1477.06 487.49 1468.33 Q487.49 1459.58 490.545 1455 Q493.624 1450.39 499.434 1450.39 Z" fill="#000000" fill-rule="nonzero" fill-opacity="1" /><path clip-path="url(#clip710)" d="M846.344 1455.09 L834.538 1473.54 L846.344 1473.54 L846.344 1455.09 M845.117 1451.02 L850.997 1451.02 L850.997 1473.54 L855.927 1473.54 L855.927 1477.43 L850.997 1477.43 L850.997 1485.58 L846.344 1485.58 L846.344 1477.43 L830.742 1477.43 L830.742 1472.92 L845.117 1451.02 Z" fill="#000000" fill-rule="nonzero" fill-opacity="1" /><path clip-path="url(#clip710)" d="M873.659 1454.1 Q870.047 1454.1 868.219 1457.66 Q866.413 1461.2 866.413 1468.33 Q866.413 1475.44 868.219 1479.01 Q870.047 1482.55 873.659 1482.55 Q877.293 1482.55 879.098 1479.01 Q880.927 1475.44 880.927 1468.33 Q880.927 1461.2 879.098 1457.66 Q877.293 1454.1 873.659 1454.1 M873.659 1450.39 Q879.469 1450.39 882.524 1455 Q885.603 1459.58 885.603 1468.33 Q885.603 1477.06 882.524 1481.67 Q879.469 1486.25 873.659 1486.25 Q867.848 1486.25 864.77 1481.67 Q861.714 1477.06 861.714 1468.33 Q861.714 1459.58 864.77 1455 Q867.848 1450.39 873.659 1450.39 Z" fill="#000000" fill-rule="nonzero" fill-opacity="1" /><path clip-path="url(#clip710)" d="M1217.22 1466.44 Q1214.08 1466.44 1212.22 1468.59 Q1210.39 1470.74 1210.39 1474.49 Q1210.39 1478.22 1212.22 1480.39 Q1214.08 1482.55 1217.22 1482.55 Q1220.37 1482.55 1222.2 1480.39 Q1224.05 1478.22 1224.05 1474.49 Q1224.05 1470.74 1222.2 1468.59 Q1220.37 1466.44 1217.22 1466.44 M1226.51 1451.78 L1226.51 1456.04 Q1224.75 1455.21 1222.94 1454.77 Q1221.16 1454.33 1219.4 1454.33 Q1214.77 1454.33 1212.32 1457.45 Q1209.89 1460.58 1209.54 1466.9 Q1210.9 1464.89 1212.96 1463.82 Q1215.02 1462.73 1217.5 1462.73 Q1222.71 1462.73 1225.72 1465.9 Q1228.75 1469.05 1228.75 1474.49 Q1228.75 1479.82 1225.6 1483.03 Q1222.46 1486.25 1217.22 1486.25 Q1211.23 1486.25 1208.06 1481.67 Q1204.89 1477.06 1204.89 1468.33 Q1204.89 1460.14 1208.77 1455.28 Q1212.66 1450.39 1219.21 1450.39 Q1220.97 1450.39 1222.76 1450.74 Q1224.56 1451.09 1226.51 1451.78 Z" fill="#000000" fill-rule="nonzero" fill-opacity="1" /><path clip-path="url(#clip710)" d="M1246.81 1454.1 Q1243.2 1454.1 1241.37 1457.66 Q1239.56 1461.2 1239.56 1468.33 Q1239.56 1475.44 1241.37 1479.01 Q1243.2 1482.55 1246.81 1482.55 Q1250.44 1482.55 1252.25 1479.01 Q1254.08 1475.44 1254.08 1468.33 Q1254.08 1461.2 1252.25 1457.66 Q1250.44 1454.1 1246.81 1454.1 M1246.81 1450.39 Q1252.62 1450.39 1255.67 1455 Q1258.75 1459.58 1258.75 1468.33 Q1258.75 1477.06 1255.67 1481.67 Q1252.62 1486.25 1246.81 1486.25 Q1241 1486.25 1237.92 1481.67 Q1234.86 1477.06 1234.86 1468.33 Q1234.86 1459.58 1237.92 1455 Q1241 1450.39 1246.81 1450.39 Z" fill="#000000" fill-rule="nonzero" fill-opacity="1" /><path clip-path="url(#clip710)" d="M1590.34 1469.17 Q1587 1469.17 1585.08 1470.95 Q1583.18 1472.73 1583.18 1475.86 Q1583.18 1478.98 1585.08 1480.77 Q1587 1482.55 1590.34 1482.55 Q1593.67 1482.55 1595.59 1480.77 Q1597.51 1478.96 1597.51 1475.86 Q1597.51 1472.73 1595.59 1470.95 Q1593.69 1469.17 1590.34 1469.17 M1585.66 1467.18 Q1582.65 1466.44 1580.96 1464.38 Q1579.3 1462.32 1579.3 1459.35 Q1579.3 1455.21 1582.24 1452.8 Q1585.2 1450.39 1590.34 1450.39 Q1595.5 1450.39 1598.44 1452.8 Q1601.38 1455.21 1601.38 1459.35 Q1601.38 1462.32 1599.69 1464.38 Q1598.02 1466.44 1595.04 1467.18 Q1598.42 1467.96 1600.29 1470.26 Q1602.19 1472.55 1602.19 1475.86 Q1602.19 1480.88 1599.11 1483.57 Q1596.05 1486.25 1590.34 1486.25 Q1584.62 1486.25 1581.54 1483.57 Q1578.49 1480.88 1578.49 1475.86 Q1578.49 1472.55 1580.38 1470.26 Q1582.28 1467.96 1585.66 1467.18 M1583.95 1459.79 Q1583.95 1462.48 1585.61 1463.98 Q1587.3 1465.49 1590.34 1465.49 Q1593.35 1465.49 1595.04 1463.98 Q1596.75 1462.48 1596.75 1459.79 Q1596.75 1457.11 1595.04 1455.6 Q1593.35 1454.1 1590.34 1454.1 Q1587.3 1454.1 1585.61 1455.6 Q1583.95 1457.11 1583.95 1459.79 Z" fill="#000000" fill-rule="nonzero" fill-opacity="1" /><path clip-path="url(#clip710)" d="M1620.5 1454.1 Q1616.89 1454.1 1615.06 1457.66 Q1613.25 1461.2 1613.25 1468.33 Q1613.25 1475.44 1615.06 1479.01 Q1616.89 1482.55 1620.5 1482.55 Q1624.13 1482.55 1625.94 1479.01 Q1627.77 1475.44 1627.77 1468.33 Q1627.77 1461.2 1625.94 1457.66 Q1624.13 1454.1 1620.5 1454.1 M1620.5 1450.39 Q1626.31 1450.39 1629.36 1455 Q1632.44 1459.58 1632.44 1468.33 Q1632.44 1477.06 1629.36 1481.67 Q1626.31 1486.25 1620.5 1486.25 Q1614.69 1486.25 1611.61 1481.67 Q1608.55 1477.06 1608.55 1468.33 Q1608.55 1459.58 1611.61 1455 Q1614.69 1450.39 1620.5 1450.39 Z" fill="#000000" fill-rule="nonzero" fill-opacity="1" /><path clip-path="url(#clip710)" d="M1938.72 1481.64 L1946.36 1481.64 L1946.36 1455.28 L1938.05 1456.95 L1938.05 1452.69 L1946.31 1451.02 L1950.99 1451.02 L1950.99 1481.64 L1958.62 1481.64 L1958.62 1485.58 L1938.72 1485.58 L1938.72 1481.64 Z" fill="#000000" fill-rule="nonzero" fill-opacity="1" /><path clip-path="url(#clip710)" d="M1978.07 1454.1 Q1974.46 1454.1 1972.63 1457.66 Q1970.82 1461.2 1970.82 1468.33 Q1970.82 1475.44 1972.63 1479.01 Q1974.46 1482.55 1978.07 1482.55 Q1981.7 1482.55 1983.51 1479.01 Q1985.34 1475.44 1985.34 1468.33 Q1985.34 1461.2 1983.51 1457.66 Q1981.7 1454.1 1978.07 1454.1 M1978.07 1450.39 Q1983.88 1450.39 1986.93 1455 Q1990.01 1459.58 1990.01 1468.33 Q1990.01 1477.06 1986.93 1481.67 Q1983.88 1486.25 1978.07 1486.25 Q1972.26 1486.25 1969.18 1481.67 Q1966.12 1477.06 1966.12 1468.33 Q1966.12 1459.58 1969.18 1455 Q1972.26 1450.39 1978.07 1450.39 Z" fill="#000000" fill-rule="nonzero" fill-opacity="1" /><path clip-path="url(#clip710)" d="M2008.23 1454.1 Q2004.62 1454.1 2002.79 1457.66 Q2000.98 1461.2 2000.98 1468.33 Q2000.98 1475.44 2002.79 1479.01 Q2004.62 1482.55 2008.23 1482.55 Q2011.86 1482.55 2013.67 1479.01 Q2015.5 1475.44 2015.5 1468.33 Q2015.5 1461.2 2013.67 1457.66 Q2011.86 1454.1 2008.23 1454.1 M2008.23 1450.39 Q2014.04 1450.39 2017.1 1455 Q2020.17 1459.58 2020.17 1468.33 Q2020.17 1477.06 2017.1 1481.67 Q2014.04 1486.25 2008.23 1486.25 Q2002.42 1486.25 1999.34 1481.67 Q1996.29 1477.06 1996.29 1468.33 Q1996.29 1459.58 1999.34 1455 Q2002.42 1450.39 2008.23 1450.39 Z" fill="#000000" fill-rule="nonzero" fill-opacity="1" /><path clip-path="url(#clip710)" d="M2312.36 1481.64 L2320 1481.64 L2320 1455.28 L2311.69 1456.95 L2311.69 1452.69 L2319.96 1451.02 L2324.63 1451.02 L2324.63 1481.64 L2332.27 1481.64 L2332.27 1485.58 L2312.36 1485.58 L2312.36 1481.64 Z" fill="#000000" fill-rule="nonzero" fill-opacity="1" /><path clip-path="url(#clip710)" d="M2345.74 1481.64 L2362.06 1481.64 L2362.06 1485.58 L2340.12 1485.58 L2340.12 1481.64 Q2342.78 1478.89 2347.36 1474.26 Q2351.97 1469.61 2353.15 1468.27 Q2355.39 1465.74 2356.27 1464.01 Q2357.18 1462.25 2357.18 1460.56 Q2357.18 1457.8 2355.23 1456.07 Q2353.31 1454.33 2350.21 1454.33 Q2348.01 1454.33 2345.56 1455.09 Q2343.13 1455.86 2340.35 1457.41 L2340.35 1452.69 Q2343.17 1451.55 2345.63 1450.97 Q2348.08 1450.39 2350.12 1450.39 Q2355.49 1450.39 2358.68 1453.08 Q2361.88 1455.77 2361.88 1460.26 Q2361.88 1462.39 2361.07 1464.31 Q2360.28 1466.2 2358.17 1468.8 Q2357.59 1469.47 2354.49 1472.69 Q2351.39 1475.88 2345.74 1481.64 Z" fill="#000000" fill-rule="nonzero" fill-opacity="1" /><path clip-path="url(#clip710)" d="M2381.88 1454.1 Q2378.27 1454.1 2376.44 1457.66 Q2374.63 1461.2 2374.63 1468.33 Q2374.63 1475.44 2376.44 1479.01 Q2378.27 1482.55 2381.88 1482.55 Q2385.51 1482.55 2387.32 1479.01 Q2389.14 1475.44 2389.14 1468.33 Q2389.14 1461.2 2387.32 1457.66 Q2385.51 1454.1 2381.88 1454.1 M2381.88 1450.39 Q2387.69 1450.39 2390.74 1455 Q2393.82 1459.58 2393.82 1468.33 Q2393.82 1477.06 2390.74 1481.67 Q2387.69 1486.25 2381.88 1486.25 Q2376.07 1486.25 2372.99 1481.67 Q2369.93 1477.06 2369.93 1468.33 Q2369.93 1459.58 2372.99 1455 Q2376.07 1450.39 2381.88 1450.39 Z" fill="#000000" fill-rule="nonzero" fill-opacity="1" /><path clip-path="url(#clip710)" d="M1230.88 1522.27 L1230.88 1532.4 L1242.94 1532.4 L1242.94 1536.95 L1230.88 1536.95 L1230.88 1556.3 Q1230.88 1560.66 1232.06 1561.9 Q1233.27 1563.14 1236.93 1563.14 L1242.94 1563.14 L1242.94 1568.04 L1236.93 1568.04 Q1230.15 1568.04 1227.57 1565.53 Q1224.99 1562.98 1224.99 1556.3 L1224.99 1536.95 L1220.69 1536.95 L1220.69 1532.4 L1224.99 1532.4 L1224.99 1522.27 L1230.88 1522.27 Z" fill="#000000" fill-rule="nonzero" fill-opacity="1" /><polyline clip-path="url(#clip710)" style="stroke:#000000; stroke-linecap:round; stroke-linejoin:round; stroke-width:4; stroke-opacity:1; fill:none" points="110.881,1423.18 110.881,47.2441 "/>
<polyline clip-path="url(#clip710)" style="stroke:#000000; stroke-linecap:round; stroke-linejoin:round; stroke-width:4; stroke-opacity:1; fill:none" points="110.881,1384.24 129.779,1384.24 "/>
<polyline clip-path="url(#clip710)" style="stroke:#000000; stroke-linecap:round; stroke-linejoin:round; stroke-width:4; stroke-opacity:1; fill:none" points="110.881,970.949 129.779,970.949 "/>
<polyline clip-path="url(#clip710)" style="stroke:#000000; stroke-linecap:round; stroke-linejoin:round; stroke-width:4; stroke-opacity:1; fill:none" points="110.881,557.66 129.779,557.66 "/>
<polyline clip-path="url(#clip710)" style="stroke:#000000; stroke-linecap:round; stroke-linejoin:round; stroke-width:4; stroke-opacity:1; fill:none" points="110.881,144.371 129.779,144.371 "/>
<path clip-path="url(#clip710)" d="M62.9365 1370.04 Q59.3254 1370.04 57.4967 1373.6 Q55.6912 1377.14 55.6912 1384.27 Q55.6912 1391.38 57.4967 1394.94 Q59.3254 1398.49 62.9365 1398.49 Q66.5707 1398.49 68.3763 1394.94 Q70.205 1391.38 70.205 1384.27 Q70.205 1377.14 68.3763 1373.6 Q66.5707 1370.04 62.9365 1370.04 M62.9365 1366.33 Q68.7467 1366.33 71.8022 1370.94 Q74.8809 1375.52 74.8809 1384.27 Q74.8809 1393 71.8022 1397.61 Q68.7467 1402.19 62.9365 1402.19 Q57.1264 1402.19 54.0477 1397.61 Q50.9921 1393 50.9921 1384.27 Q50.9921 1375.52 54.0477 1370.94 Q57.1264 1366.33 62.9365 1366.33 Z" fill="#000000" fill-rule="nonzero" fill-opacity="1" /><path clip-path="url(#clip710)" d="M54.9736 984.294 L62.6124 984.294 L62.6124 957.928 L54.3023 959.595 L54.3023 955.336 L62.5661 953.669 L67.242 953.669 L67.242 984.294 L74.8809 984.294 L74.8809 988.229 L54.9736 988.229 L54.9736 984.294 Z" fill="#000000" fill-rule="nonzero" fill-opacity="1" /><path clip-path="url(#clip710)" d="M58.5615 571.005 L74.8809 571.005 L74.8809 574.94 L52.9366 574.94 L52.9366 571.005 Q55.5986 568.251 60.1819 563.621 Q64.7883 558.968 65.9689 557.626 Q68.2143 555.103 69.0939 553.366 Q69.9967 551.607 69.9967 549.917 Q69.9967 547.163 68.0522 545.427 Q66.1309 543.691 63.0291 543.691 Q60.83 543.691 58.3763 544.454 Q55.9458 545.218 53.168 546.769 L53.168 542.047 Q55.9921 540.913 58.4458 540.334 Q60.8995 539.755 62.9365 539.755 Q68.3068 539.755 71.5013 542.441 Q74.6957 545.126 74.6957 549.616 Q74.6957 551.746 73.8855 553.667 Q73.0985 555.565 70.992 558.158 Q70.4133 558.829 67.3115 562.047 Q64.2096 565.241 58.5615 571.005 Z" fill="#000000" fill-rule="nonzero" fill-opacity="1" /><path clip-path="url(#clip710)" d="M67.7513 143.017 Q71.1078 143.735 72.9827 146.003 Q74.8809 148.272 74.8809 151.605 Q74.8809 156.721 71.3624 159.522 Q67.8439 162.323 61.3624 162.323 Q59.1865 162.323 56.8717 161.883 Q54.5801 161.466 52.1264 160.61 L52.1264 156.096 Q54.0708 157.23 56.3856 157.809 Q58.7004 158.388 61.2236 158.388 Q65.6217 158.388 67.9133 156.652 Q70.2281 154.915 70.2281 151.605 Q70.2281 148.55 68.0754 146.837 Q65.9457 145.101 62.1263 145.101 L58.0986 145.101 L58.0986 141.258 L62.3115 141.258 Q65.7606 141.258 67.5893 139.892 Q69.418 138.503 69.418 135.911 Q69.418 133.249 67.5198 131.837 Q65.6448 130.402 62.1263 130.402 Q60.205 130.402 58.006 130.818 Q55.8069 131.235 53.168 132.115 L53.168 127.948 Q55.8301 127.207 58.1449 126.837 Q60.4828 126.466 62.543 126.466 Q67.867 126.466 70.9689 128.897 Q74.0707 131.304 74.0707 135.425 Q74.0707 138.295 72.4272 140.286 Q70.7837 142.253 67.7513 143.017 Z" fill="#000000" fill-rule="nonzero" fill-opacity="1" /><polyline clip-path="url(#clip711)" style="stroke:#009af9; stroke-linecap:round; stroke-linejoin:round; stroke-width:4; stroke-opacity:1; fill:none" points="110.881,1384.24 112.751,1378.56 114.62,1363.46 116.49,1341.7 118.36,1315.48 120.23,1286.4 122.1,1255.53 123.969,1223.57 125.839,1190.97 127.709,1158.08 129.579,1125.15 131.449,1092.36 133.318,1059.86 135.188,1027.77 137.058,996.183 138.928,965.186 140.797,934.838 142.667,905.202 144.537,876.333 146.407,848.261 148.277,821.036 150.146,794.698 152.016,769.269 153.886,744.802 155.756,721.346 157.626,698.925 159.495,677.585 161.365,657.37 163.235,638.271 165.105,620.281 166.975,603.392 168.844,587.552 170.714,572.703 172.584,558.788 174.454,545.743 176.323,533.5 178.193,521.997 180.063,511.17 181.933,500.963 183.803,491.333 185.672,482.235 187.542,473.62 189.412,465.438 191.282,457.661 193.152,450.259 195.021,443.201 196.891,436.453 198.761,429.993 200.631,423.801 202.5,417.856 204.37,412.134 206.24,406.617 208.11,401.29 209.98,396.143 211.849,391.16 213.719,386.327 215.589,381.633 217.459,377.072 219.329,372.634 221.198,368.31 223.068,364.092 224.938,359.971 226.808,355.945 228.677,352.009 230.547,348.156 232.417,344.379 234.287,340.676 236.157,337.043 238.026,333.478 239.896,329.977 241.766,326.536 243.636,323.151 245.506,319.821 247.375,316.544 249.245,313.318 251.115,310.142 252.985,307.012 254.855,303.926 256.724,300.883 258.594,297.883 260.464,294.925 262.334,292.007 264.203,289.126 266.073,286.283 267.943,283.476 269.813,280.705 271.683,277.969 273.552,275.267 275.422,272.599 277.292,269.963 279.162,267.359 281.032,264.786 282.901,262.245 284.771,259.734 286.641,257.253 288.511,254.801 290.38,252.379 292.25,249.985 294.12,247.62 295.99,245.282 297.86,242.972 299.729,240.69 301.599,238.434 303.469,236.206 305.339,234.004 307.209,231.828 309.078,229.678 310.948,227.554 312.818,225.455 314.688,223.382 316.557,221.334 318.427,219.31 320.297,217.31 322.167,215.335 324.037,213.385 325.906,211.458 327.776,209.556 329.646,207.677 331.516,205.822 333.386,203.991 335.255,202.182 337.125,200.396 338.995,198.632 340.865,196.89 342.735,195.17 344.604,193.473 346.474,191.799 348.344,190.147 350.214,188.516 352.083,186.907 353.953,185.319 355.823,183.752 357.693,182.205 359.563,180.678 361.432,179.173 363.302,177.687 365.172,176.222 367.042,174.778 368.912,173.354 370.781,171.949 372.651,170.564 374.521,169.197 376.391,167.85 378.26,166.52 380.13,165.21 382,163.918 383.87,162.645 385.74,161.39 387.609,160.154 389.479,158.935 391.349,157.734 393.219,156.55 395.089,155.383 396.958,154.233 398.828,153.1 400.698,151.983 402.568,150.883 404.437,149.8 406.307,148.733 408.177,147.682 410.047,146.647 411.917,145.627 413.786,144.623 415.656,143.633 417.526,142.659 419.396,141.699 421.266,140.754 423.135,139.824 425.005,138.908 426.875,138.007 428.745,137.12 430.615,136.247 432.484,135.387 434.354,134.54 436.224,133.706 438.094,132.886 439.963,132.078 441.833,131.283 443.703,130.502 445.573,129.733 447.443,128.976 449.312,128.232 451.182,127.499 453.052,126.778 454.922,126.069 456.792,125.371 458.661,124.684 460.531,124.008 462.401,123.344 464.271,122.69 466.14,122.048 468.01,121.416 469.88,120.795 471.75,120.183 473.62,119.582 475.489,118.991 477.359,118.409 479.229,117.837 481.099,117.274 482.969,116.721 484.838,116.178 486.708,115.644 488.578,115.119 490.448,114.602 492.318,114.095 494.187,113.595 496.057,113.105 497.927,112.622 499.797,112.147 501.666,111.681 503.536,111.223 505.406,110.773 507.276,110.33 509.146,109.896 511.015,109.468 512.885,109.049 514.755,108.636 516.625,108.23 518.495,107.831 520.364,107.439 522.234,107.054 524.104,106.676 525.974,106.304 527.843,105.939 529.713,105.58 531.583,105.228 533.453,104.882 535.323,104.542 537.192,104.207 539.062,103.879 540.932,103.556 542.802,103.239 544.672,102.927 546.541,102.622 548.411,102.321 550.281,102.026 552.151,101.737 554.02,101.452 555.89,101.173 557.76,100.898 559.63,100.628 561.5,100.363 563.369,100.103 565.239,99.8468 567.109,99.5956 568.979,99.3491 570.849,99.1071 572.718,98.8694 574.588,98.6361 576.458,98.4069 578.328,98.1818 580.198,97.9607 582.067,97.7435 583.937,97.5301 585.807,97.3206 587.677,97.1149 589.546,96.9129 591.416,96.7147 593.286,96.5201 595.156,96.3291 597.026,96.1416 598.895,95.9575 600.765,95.7766 602.635,95.599 604.505,95.4246 606.375,95.2533 608.244,95.0851 610.114,94.9199 611.984,94.7578 613.854,94.5988 615.723,94.4427 617.593,94.2895 619.463,94.1391 621.333,93.9914 623.203,93.8464 625.072,93.704 626.942,93.5642 628.812,93.4269 630.682,93.2921 632.552,93.1598 634.421,93.0299 636.291,92.9024 638.161,92.7774 640.031,92.6547 641.9,92.5342 643.77,92.416 645.64,92.2999 647.51,92.186 649.38,92.0741 651.249,91.9642 653.119,91.8563 654.989,91.7504 656.859,91.6465 658.729,91.5445 660.598,91.4444 662.468,91.3463 664.338,91.25 666.208,91.1554 668.078,91.0626 669.947,90.9715 671.817,90.8821 673.687,90.7942 675.557,90.708 677.426,90.6234 679.296,90.5403 681.166,90.4587 683.036,90.3788 684.906,90.3003 686.775,90.2234 688.645,90.1479 690.515,90.0738 692.385,90.001 694.255,89.9296 696.124,89.8594 697.994,89.7906 699.864,89.723 701.734,89.6566 703.603,89.5915 705.473,89.5277 707.343,89.465 709.213,89.4036 711.083,89.3433 712.952,89.2842 714.822,89.2261 716.692,89.1691 718.562,89.1131 720.432,89.0582 722.301,89.0043 724.171,88.9513 726.041,88.8994 727.911,88.8484 729.78,88.7984 731.65,88.7494 733.52,88.7013 735.39,88.6541 737.26,88.6078 739.129,88.5624 740.999,88.5177 742.869,88.4739 744.739,88.4309 746.609,88.3887 748.478,88.3473 750.348,88.3066 752.218,88.2667 754.088,88.2276 755.958,88.1893 757.827,88.1516 759.697,88.1147 761.567,88.0785 763.437,88.043 765.306,88.0081 767.176,87.9738 769.046,87.9402 770.916,87.9072 772.786,87.8747 774.655,87.8429 776.525,87.8117 778.395,87.7811 780.265,87.7511 782.135,87.7217 784.004,87.6929 785.874,87.6646 787.744,87.6368 789.614,87.6095 791.483,87.5827 793.353,87.5564 795.223,87.5306 797.093,87.5052 798.963,87.4804 800.832,87.456 802.702,87.432 804.572,87.4086 806.442,87.3856 808.312,87.3631 810.181,87.3409 812.051,87.3192 813.921,87.2979 815.791,87.277 817.661,87.2564 819.53,87.2362 821.4,87.2164 823.27,87.1969 825.14,87.1779 827.009,87.1592 828.879,87.1409 830.749,87.1229 832.619,87.1053 834.489,87.088 836.358,87.071 838.228,87.0544 840.098,87.038 841.968,87.0219 843.838,87.0062 845.707,86.9907 847.577,86.9755 849.447,86.9606 851.317,86.946 853.186,86.9316 855.056,86.9176 856.926,86.9039 858.796,86.8904 860.666,86.8771 862.535,86.8641 864.405,86.8513 866.275,86.8388 868.145,86.8264 870.015,86.8143 871.884,86.8024 873.754,86.7908 875.624,86.7794 877.494,86.7682 879.363,86.7573 881.233,86.7465 883.103,86.736 884.973,86.7256 886.843,86.7155 888.712,86.7055 890.582,86.6957 892.452,86.686 894.322,86.6766 896.192,86.6673 898.061,86.6582 899.931,86.6493 901.801,86.6405 903.671,86.632 905.541,86.6236 907.41,86.6154 909.28,86.6073 911.15,86.5994 913.02,86.5916 914.889,86.5839 916.759,86.5764 918.629,86.569 920.499,86.5617 922.369,86.5546 924.238,86.5477 926.108,86.5408 927.978,86.5342 929.848,86.5276 931.718,86.5212 933.587,86.5149 935.457,86.5087 937.327,86.5026 939.197,86.4966 941.066,86.4908 942.936,86.485 944.806,86.4793 946.676,86.4737 948.546,86.4683 950.415,86.463 952.285,86.4578 954.155,86.4527 956.025,86.4477 957.895,86.4427 959.764,86.4379 961.634,86.4332 963.504,86.4285 965.374,86.4239 967.243,86.4194 969.113,86.4149 970.983,86.4106 972.853,86.4063 974.723,86.4022 976.592,86.3981 978.462,86.3941 980.332,86.3902 982.202,86.3864 984.072,86.3826 985.941,86.3789 987.811,86.3753 989.681,86.3717 991.551,86.3682 993.421,86.3647 995.29,86.3613 997.16,86.3579 999.03,86.3547 1000.9,86.3515 1002.77,86.3484 1004.64,86.3454 1006.51,86.3424 1008.38,86.3395 1010.25,86.3366 1012.12,86.3337 1013.99,86.3309 1015.86,86.3282 1017.73,86.3254 1019.6,86.3228 1021.47,86.3202 1023.34,86.3176 1025.21,86.3152 1027.08,86.3127 1028.95,86.3104 1030.82,86.308 1032.69,86.3058 1034.56,86.3035 1036.43,86.3013 1038.3,86.2991 1040.17,86.2969 1042.03,86.2948 1043.9,86.2927 1045.77,86.2907 1047.64,86.2887 1049.51,86.2868 1051.38,86.2849 1053.25,86.283 1055.12,86.2812 1056.99,86.2794 1058.86,86.2777 1060.73,86.276 1062.6,86.2742 1064.47,86.2726 1066.34,86.2709 1068.21,86.2693 1070.08,86.2677 1071.95,86.2661 1073.82,86.2646 1075.69,86.2631 1077.56,86.2617 1079.43,86.2603 1081.3,86.2589 1083.17,86.2575 1085.04,86.2562 1086.91,86.2548 1088.78,86.2535 1090.65,86.2522 1092.52,86.2509 1094.39,86.2497 1096.26,86.2485 1098.13,86.2473 1100,86.2461 1101.87,86.245 1103.74,86.2439 1105.61,86.2429 1107.48,86.2418 1109.35,86.2407 1111.22,86.2397 1113.09,86.2387 1114.96,86.2376 1116.83,86.2366 1118.7,86.2357 1120.57,86.2347 1122.44,86.2338 1124.31,86.2329 1126.18,86.232 1128.05,86.2312 1129.91,86.2303 1131.78,86.2295 1133.65,86.2287 1135.52,86.2279 1137.39,86.2271 1139.26,86.2263 1141.13,86.2255 1143,86.2247 1144.87,86.2239 1146.74,86.2232 1148.61,86.2225 1150.48,86.2218 1152.35,86.2212 1154.22,86.2205 1156.09,86.2199 1157.96,86.2193 1159.83,86.2186 1161.7,86.218 1163.57,86.2174 1165.44,86.2168 1167.31,86.2162 1169.18,86.2156 1171.05,86.215 1172.92,86.2144 1174.79,86.2139 1176.66,86.2134 1178.53,86.2129 1180.4,86.2124 1182.27,86.2119 1184.14,86.2114 1186.01,86.2109 1187.88,86.2105 1189.75,86.21 1191.62,86.2095 1193.49,86.209 1195.36,86.2086 1197.23,86.2081 1199.1,86.2077 1200.97,86.2073 1202.84,86.207 1204.71,86.2066 1206.58,86.2062 1208.45,86.2058 1210.32,86.2054 1212.19,86.205 1214.06,86.2047 1215.93,86.2043 1217.79,86.2039 1219.66,86.2035 1221.53,86.2032 1223.4,86.2029 1225.27,86.2026 1227.14,86.2023 1229.01,86.202 1230.88,86.2017 1232.75,86.2014 1234.62,86.2011 1236.49,86.2008 1238.36,86.2005 1240.23,86.2002 1242.1,86.1999 1243.97,86.1996 1245.84,86.1994 1247.71,86.1991 1249.58,86.1989 1251.45,86.1987 1253.32,86.1984 1255.19,86.1982 1257.06,86.198 1258.93,86.1978 1260.8,86.1975 1262.67,86.1973 1264.54,86.197 1266.41,86.1968 1268.28,86.1966 1270.15,86.1964 1272.02,86.1962 1273.89,86.196 1275.76,86.1958 1277.63,86.1957 1279.5,86.1955 1281.37,86.1953 1283.24,86.1951 1285.11,86.1949 1286.98,86.1948 1288.85,86.1946 1290.72,86.1944 1292.59,86.1942 1294.46,86.194 1296.33,86.1939 1298.2,86.1937 1300.07,86.1936 1301.94,86.1935 1303.81,86.1934 1305.67,86.1932 1307.54,86.1931 1309.41,86.1929 1311.28,86.1928 1313.15,86.1926 1315.02,86.1925 1316.89,86.1923 1318.76,86.1922 1320.63,86.1921 1322.5,86.192 1324.37,86.1919 1326.24,86.1918 1328.11,86.1917 1329.98,86.1916 1331.85,86.1915 1333.72,86.1914 1335.59,86.1913 1337.46,86.1911 1339.33,86.191 1341.2,86.1909 1343.07,86.1908 1344.94,86.1907 1346.81,86.1906 1348.68,86.1905 1350.55,86.1904 1352.42,86.1904 1354.29,86.1903 1356.16,86.1902 1358.03,86.1901 1359.9,86.1901 1361.77,86.19 1363.64,86.1898 1365.51,86.1897 1367.38,86.1896 1369.25,86.1896 1371.12,86.1895 1372.99,86.1895 1374.86,86.1894 1376.73,86.1894 1378.6,86.1893 1380.47,86.1893 1382.34,86.1892 1384.21,86.1891 1386.08,86.189 1387.95,86.1889 1389.82,86.1889 1391.69,86.1888 1393.56,86.1887 1395.42,86.1887 1397.29,86.1886 1399.16,86.1886 1401.03,86.1886 1402.9,86.1885 1404.77,86.1885 1406.64,86.1884 1408.51,86.1884 1410.38,86.1883 1412.25,86.1882 1414.12,86.1882 1415.99,86.1881 1417.86,86.188 1419.73,86.188 1421.6,86.188 1423.47,86.188 1425.34,86.1879 1427.21,86.1879 1429.08,86.1879 1430.95,86.1879 1432.82,86.1878 1434.69,86.1878 1436.56,86.1877 1438.43,86.1876 1440.3,86.1876 1442.17,86.1875 1444.04,86.1875 1445.91,86.1875 1447.78,86.1875 1449.65,86.1875 1451.52,86.1874 1453.39,86.1874 1455.26,86.1874 1457.13,86.1874 1459,86.1873 1460.87,86.1873 1462.74,86.1872 1464.61,86.1872 1466.48,86.1871 1468.35,86.1871 1470.22,86.1871 1472.09,86.1871 1473.96,86.1871 1475.83,86.1871 1477.7,86.1871 1479.57,86.1871 1481.44,86.187 1483.3,86.187 1485.17,86.1869 1487.04,86.1869 1488.91,86.1869 1490.78,86.1868 1492.65,86.1868 1494.52,86.1868 1496.39,86.1868 1498.26,86.1868 1500.13,86.1868 1502,86.1868 1503.87,86.1868 1505.74,86.1868 1507.61,86.1867 1509.48,86.1867 1511.35,86.1867 1513.22,86.1866 1515.09,86.1866 1516.96,86.1865 1518.83,86.1865 1520.7,86.1865 1522.57,86.1865 1524.44,86.1866 1526.31,86.1866 1528.18,86.1866 1530.05,86.1865 1531.92,86.1865 1533.79,86.1865 1535.66,86.1865 1537.53,86.1864 1539.4,86.1864 1541.27,86.1863 1543.14,86.1863 1545.01,86.1863 1546.88,86.1864 1548.75,86.1864 1550.62,86.1864 1552.49,86.1864 1554.36,86.1864 1556.23,86.1864 1558.1,86.1863 1559.97,86.1863 1561.84,86.1863 1563.71,86.1862 1565.58,86.1862 1567.45,86.1862 1569.32,86.1862 1571.18,86.1862 1573.05,86.1862 1574.92,86.1862 1576.79,86.1862 1578.66,86.1862 1580.53,86.1862 1582.4,86.1862 1584.27,86.1862 1586.14,86.1862 1588.01,86.1861 1589.88,86.1861 1591.75,86.1861 1593.62,86.1861 1595.49,86.1861 1597.36,86.1861 1599.23,86.1861 1601.1,86.1861 1602.97,86.1861 1604.84,86.1861 1606.71,86.1861 1608.58,86.1861 1610.45,86.1861 1612.32,86.186 1614.19,86.186 1616.06,86.186 1617.93,86.186 1619.8,86.186 1621.67,86.186 1623.54,86.186 1625.41,86.1861 1627.28,86.1861 1629.15,86.1861 1631.02,86.1861 1632.89,86.186 1634.76,86.186 1636.63,86.186 1638.5,86.1859 1640.37,86.1859 1642.24,86.1859 1644.11,86.1859 1645.98,86.186 1647.85,86.186 1649.72,86.186 1651.59,86.186 1653.46,86.186 1655.33,86.186 1657.2,86.186 1659.06,86.1859 1660.93,86.1859 1662.8,86.1859 1664.67,86.1859 1666.54,86.1859 1668.41,86.1859 1670.28,86.1859 1672.15,86.1859 1674.02,86.1859 1675.89,86.186 1677.76,86.186 1679.63,86.1859 1681.5,86.1859 1683.37,86.1859 1685.24,86.1859 1687.11,86.1859 1688.98,86.1858 1690.85,86.1858 1692.72,86.1858 1694.59,86.1859 1696.46,86.1859 1698.33,86.1859 1700.2,86.1859 1702.07,86.1859 1703.94,86.1859 1705.81,86.1859 1707.68,86.1859 1709.55,86.1859 1711.42,86.1858 1713.29,86.1858 1715.16,86.1858 1717.03,86.1858 1718.9,86.1858 1720.77,86.1858 1722.64,86.1859 1724.51,86.1859 1726.38,86.1859 1728.25,86.1859 1730.12,86.1859 1731.99,86.1859 1733.86,86.1858 1735.73,86.1858 1737.6,86.1858 1739.47,86.1858 1741.34,86.1858 1743.21,86.1858 1745.08,86.1858 1746.94,86.1858 1748.81,86.1859 1750.68,86.1859 1752.55,86.1859 1754.42,86.1859 1756.29,86.1858 1758.16,86.1858 1760.03,86.1858 1761.9,86.1858 1763.77,86.1857 1765.64,86.1857 1767.51,86.1858 1769.38,86.1858 1771.25,86.1858 1773.12,86.1858 1774.99,86.1858 1776.86,86.1858 1778.73,86.1858 1780.6,86.1858 1782.47,86.1858 1784.34,86.1858 1786.21,86.1858 1788.08,86.1857 1789.95,86.1857 1791.82,86.1857 1793.69,86.1858 1795.56,86.1858 1797.43,86.1858 1799.3,86.1858 1801.17,86.1858 1803.04,86.1858 1804.91,86.1858 1806.78,86.1858 1808.65,86.1858 1810.52,86.1857 1812.39,86.1857 1814.26,86.1857 1816.13,86.1857 1818,86.1857 1819.87,86.1858 1821.74,86.1858 1823.61,86.1858 1825.48,86.1858 1827.35,86.1858 1829.22,86.1858 1831.09,86.1858 1832.96,86.1858 1834.82,86.1857 1836.69,86.1857 1838.56,86.1857 1840.43,86.1857 1842.3,86.1857 1844.17,86.1858 1846.04,86.1858 1847.91,86.1858 1849.78,86.1858 1851.65,86.1858 1853.52,86.1858 1855.39,86.1858 1857.26,86.1858 1859.13,86.1857 1861,86.1857 1862.87,86.1857 1864.74,86.1857 1866.61,86.1857 1868.48,86.1857 1870.35,86.1858 1872.22,86.1858 1874.09,86.1858 1875.96,86.1858 1877.83,86.1858 1879.7,86.1858 1881.57,86.1858 1883.44,86.1857 1885.31,86.1857 1887.18,86.1857 1889.05,86.1857 1890.92,86.1857 1892.79,86.1857 1894.66,86.1858 1896.53,86.1858 1898.4,86.1858 1900.27,86.1858 1902.14,86.1858 1904.01,86.1858 1905.88,86.1858 1907.75,86.1857 1909.62,86.1857 1911.49,86.1857 1913.36,86.1857 1915.23,86.1857 1917.1,86.1857 1918.97,86.1857 1920.84,86.1858 1922.7,86.1858 1924.57,86.1858 1926.44,86.1858 1928.31,86.1858 1930.18,86.1858 1932.05,86.1857 1933.92,86.1857 1935.79,86.1857 1937.66,86.1857 1939.53,86.1857 1941.4,86.1857 1943.27,86.1857 1945.14,86.1858 1947.01,86.1858 1948.88,86.1858 1950.75,86.1858 1952.62,86.1858 1954.49,86.1858 1956.36,86.1857 1958.23,86.1857 1960.1,86.1857 1961.97,86.1857 1963.84,86.1857 1965.71,86.1857 1967.58,86.1857 1969.45,86.1858 1971.32,86.1858 1973.19,86.1858 1975.06,86.1858 1976.93,86.1858 1978.8,86.1858 1980.67,86.1858 1982.54,86.1857 1984.41,86.1857 1986.28,86.1857 1988.15,86.1857 1990.02,86.1857 1991.89,86.1857 1993.76,86.1857 1995.63,86.1858 1997.5,86.1858 1999.37,86.1858 2001.24,86.1858 2003.11,86.1858 2004.98,86.1858 2006.85,86.1857 2008.72,86.1857 2010.58,86.1857 2012.45,86.1857 2014.32,86.1857 2016.19,86.1857 2018.06,86.1857 2019.93,86.1858 2021.8,86.1858 2023.67,86.1858 2025.54,86.1858 2027.41,86.1858 2029.28,86.1858 2031.15,86.1857 2033.02,86.1857 2034.89,86.1857 2036.76,86.1857 2038.63,86.1857 2040.5,86.1857 2042.37,86.1857 2044.24,86.1858 2046.11,86.1858 2047.98,86.1858 2049.85,86.1858 2051.72,86.1858 2053.59,86.1858 2055.46,86.1857 2057.33,86.1857 2059.2,86.1857 2061.07,86.1857 2062.94,86.1857 2064.81,86.1857 2066.68,86.1857 2068.55,86.1858 2070.42,86.1858 2072.29,86.1858 2074.16,86.1858 2076.03,86.1858 2077.9,86.1858 2079.77,86.1857 2081.64,86.1857 2083.51,86.1857 2085.38,86.1857 2087.25,86.1857 2089.12,86.1857 2090.99,86.1857 2092.86,86.1857 2094.73,86.1858 2096.6,86.1858 2098.46,86.1858 2100.33,86.1858 2102.2,86.1858 2104.07,86.1857 2105.94,86.1857 2107.81,86.1857 2109.68,86.1857 2111.55,86.1857 2113.42,86.1857 2115.29,86.1857 2117.16,86.1857 2119.03,86.1858 2120.9,86.1858 2122.77,86.1858 2124.64,86.1858 2126.51,86.1858 2128.38,86.1858 2130.25,86.1857 2132.12,86.1857 2133.99,86.1857 2135.86,86.1857 2137.73,86.1857 2139.6,86.1857 2141.47,86.1857 2143.34,86.1858 2145.21,86.1858 2147.08,86.1858 2148.95,86.1858 2150.82,86.1858 2152.69,86.1858 2154.56,86.1857 2156.43,86.1857 2158.3,86.1857 2160.17,86.1857 2162.04,86.1857 2163.91,86.1857 2165.78,86.1857 2167.65,86.1858 2169.52,86.1858 2171.39,86.1858 2173.26,86.1858 2175.13,86.1858 2177,86.1858 2178.87,86.1857 2180.74,86.1857 2182.61,86.1857 2184.48,86.1857 2186.34,86.1857 2188.21,86.1857 2190.08,86.1857 2191.95,86.1857 2193.82,86.1858 2195.69,86.1858 2197.56,86.1858 2199.43,86.1858 2201.3,86.1858 2203.17,86.1857 2205.04,86.1857 2206.91,86.1857 2208.78,86.1857 2210.65,86.1857 2212.52,86.1857 2214.39,86.1857 2216.26,86.1857 2218.13,86.1858 2220,86.1858 2221.87,86.1858 2223.74,86.1858 2225.61,86.1858 2227.48,86.1858 2229.35,86.1857 2231.22,86.1857 2233.09,86.1857 2234.96,86.1857 2236.83,86.1857 2238.7,86.1857 2240.57,86.1857 2242.44,86.1858 2244.31,86.1858 2246.18,86.1858 2248.05,86.1858 2249.92,86.1858 2251.79,86.1858 2253.66,86.1857 2255.53,86.1857 2257.4,86.1857 2259.27,86.1857 2261.14,86.1857 2263.01,86.1857 2264.88,86.1857 2266.75,86.1858 2268.62,86.1858 2270.49,86.1858 2272.36,86.1858 2274.22,86.1858 2276.09,86.1858 2277.96,86.1857 2279.83,86.1857 2281.7,86.1857 2283.57,86.1857 2285.44,86.1857 2287.31,86.1857 2289.18,86.1857 2291.05,86.1858 2292.92,86.1858 2294.79,86.1858 2296.66,86.1858 2298.53,86.1858 2300.4,86.1858 2302.27,86.1857 2304.14,86.1857 2306.01,86.1857 2307.88,86.1857 2309.75,86.1857 2311.62,86.1857 2313.49,86.1857 2315.36,86.1857 2317.23,86.1858 2319.1,86.1858 2320.97,86.1858 2322.84,86.1858 2324.71,86.1858 2326.58,86.1857 2328.45,86.1857 2330.32,86.1857 2332.19,86.1857 2334.06,86.1857 2335.93,86.1857 2337.8,86.1857 2339.67,86.1857 2341.54,86.1857 2343.41,86.1857 2345.28,86.1857 2347.15,86.1857 2349.02,86.1857 2350.89,86.1857 2352.76,86.1857 "/>
<polyline clip-path="url(#clip711)" style="stroke:#e26f46; stroke-linecap:round; stroke-linejoin:round; stroke-width:4; stroke-opacity:1; fill:none" points="110.881,1384.24 112.751,1275.62 114.62,1195.89 116.49,1141.34 118.36,1105.83 120.23,1083.35 122.1,1069.39 123.969,1061.05 125.839,1056.62 127.709,1055.03 129.579,1055.59 131.449,1057.83 133.318,1061.38 135.188,1065.98 137.058,1071.47 138.928,1077.65 140.797,1084.49 142.667,1091.86 144.537,1099.68 146.407,1107.95 148.277,1116.57 150.146,1125.53 152.016,1134.93 153.886,1144.73 155.756,1154.93 157.626,1165.6 159.495,1176.62 161.365,1187.78 163.235,1198.99 165.105,1210.09 166.975,1220.79 168.844,1231.01 170.714,1240.67 172.584,1249.67 174.454,1258.02 176.323,1265.71 178.193,1272.78 180.063,1279.29 181.933,1285.28 183.803,1290.76 185.672,1295.76 187.542,1300.34 189.412,1304.58 191.282,1308.47 193.152,1312.03 195.021,1315.3 196.891,1318.31 198.761,1321.09 200.631,1323.63 202.5,1325.96 204.37,1328.11 206.24,1330.1 208.11,1331.94 209.98,1333.64 211.849,1335.21 213.719,1336.67 215.589,1338.03 217.459,1339.29 219.329,1340.47 221.198,1341.56 223.068,1342.59 224.938,1343.56 226.808,1344.47 228.677,1345.32 230.547,1346.12 232.417,1346.88 234.287,1347.6 236.157,1348.29 238.026,1348.94 239.896,1349.55 241.766,1350.14 243.636,1350.7 245.506,1351.24 247.375,1351.76 249.245,1352.25 251.115,1352.73 252.985,1353.18 254.855,1353.63 256.724,1354.06 258.594,1354.48 260.464,1354.88 262.334,1355.26 264.203,1355.64 266.073,1356.01 267.943,1356.38 269.813,1356.73 271.683,1357.07 273.552,1357.41 275.422,1357.74 277.292,1358.06 279.162,1358.38 281.032,1358.69 282.901,1359 284.771,1359.3 286.641,1359.6 288.511,1359.89 290.38,1360.18 292.25,1360.46 294.12,1360.74 295.99,1361.02 297.86,1361.3 299.729,1361.57 301.599,1361.84 303.469,1362.1 305.339,1362.37 307.209,1362.63 309.078,1362.88 310.948,1363.14 312.818,1363.39 314.688,1363.64 316.557,1363.89 318.427,1364.14 320.297,1364.39 322.167,1364.63 324.037,1364.87 325.906,1365.11 327.776,1365.35 329.646,1365.58 331.516,1365.81 333.386,1366.04 335.255,1366.27 337.125,1366.5 338.995,1366.73 340.865,1366.95 342.735,1367.18 344.604,1367.4 346.474,1367.62 348.344,1367.83 350.214,1368.05 352.083,1368.26 353.953,1368.47 355.823,1368.68 357.693,1368.89 359.563,1369.1 361.432,1369.3 363.302,1369.51 365.172,1369.71 367.042,1369.9 368.912,1370.1 370.781,1370.29 372.651,1370.48 374.521,1370.68 376.391,1370.87 378.26,1371.06 380.13,1371.24 382,1371.43 383.87,1371.61 385.74,1371.79 387.609,1371.97 389.479,1372.14 391.349,1372.32 393.219,1372.49 395.089,1372.66 396.958,1372.83 398.828,1373 400.698,1373.17 402.568,1373.34 404.437,1373.5 406.307,1373.66 408.177,1373.81 410.047,1373.97 411.917,1374.12 413.786,1374.28 415.656,1374.43 417.526,1374.58 419.396,1374.73 421.266,1374.88 423.135,1375.02 425.005,1375.16 426.875,1375.3 428.745,1375.44 430.615,1375.57 432.484,1375.71 434.354,1375.84 436.224,1375.98 438.094,1376.11 439.963,1376.24 441.833,1376.37 443.703,1376.49 445.573,1376.61 447.443,1376.74 449.312,1376.86 451.182,1376.97 453.052,1377.09 454.922,1377.21 456.792,1377.32 458.661,1377.44 460.531,1377.55 462.401,1377.66 464.271,1377.76 466.14,1377.87 468.01,1377.97 469.88,1378.08 471.75,1378.18 473.62,1378.28 475.489,1378.38 477.359,1378.48 479.229,1378.57 481.099,1378.67 482.969,1378.76 484.838,1378.85 486.708,1378.94 488.578,1379.03 490.448,1379.12 492.318,1379.21 494.187,1379.29 496.057,1379.38 497.927,1379.46 499.797,1379.54 501.666,1379.62 503.536,1379.7 505.406,1379.78 507.276,1379.86 509.146,1379.93 511.015,1380 512.885,1380.08 514.755,1380.15 516.625,1380.22 518.495,1380.29 520.364,1380.36 522.234,1380.43 524.104,1380.49 525.974,1380.56 527.843,1380.62 529.713,1380.68 531.583,1380.75 533.453,1380.81 535.323,1380.87 537.192,1380.93 539.062,1380.99 540.932,1381.04 542.802,1381.1 544.672,1381.16 546.541,1381.21 548.411,1381.26 550.281,1381.32 552.151,1381.37 554.02,1381.42 555.89,1381.47 557.76,1381.52 559.63,1381.57 561.5,1381.61 563.369,1381.66 565.239,1381.71 567.109,1381.75 568.979,1381.8 570.849,1381.84 572.718,1381.88 574.588,1381.93 576.458,1381.97 578.328,1382.01 580.198,1382.05 582.067,1382.09 583.937,1382.13 585.807,1382.17 587.677,1382.2 589.546,1382.24 591.416,1382.28 593.286,1382.31 595.156,1382.35 597.026,1382.38 598.895,1382.41 600.765,1382.45 602.635,1382.48 604.505,1382.51 606.375,1382.54 608.244,1382.57 610.114,1382.6 611.984,1382.63 613.854,1382.66 615.723,1382.69 617.593,1382.72 619.463,1382.75 621.333,1382.78 623.203,1382.8 625.072,1382.83 626.942,1382.85 628.812,1382.88 630.682,1382.9 632.552,1382.93 634.421,1382.95 636.291,1382.98 638.161,1383 640.031,1383.02 641.9,1383.04 643.77,1383.07 645.64,1383.09 647.51,1383.11 649.38,1383.13 651.249,1383.15 653.119,1383.17 654.989,1383.19 656.859,1383.21 658.729,1383.23 660.598,1383.25 662.468,1383.27 664.338,1383.28 666.208,1383.3 668.078,1383.32 669.947,1383.34 671.817,1383.35 673.687,1383.37 675.557,1383.39 677.426,1383.4 679.296,1383.42 681.166,1383.43 683.036,1383.45 684.906,1383.46 686.775,1383.48 688.645,1383.49 690.515,1383.5 692.385,1383.52 694.255,1383.53 696.124,1383.54 697.994,1383.56 699.864,1383.57 701.734,1383.58 703.603,1383.59 705.473,1383.61 707.343,1383.62 709.213,1383.63 711.083,1383.64 712.952,1383.65 714.822,1383.66 716.692,1383.67 718.562,1383.68 720.432,1383.69 722.301,1383.7 724.171,1383.71 726.041,1383.72 727.911,1383.73 729.78,1383.74 731.65,1383.75 733.52,1383.76 735.39,1383.77 737.26,1383.78 739.129,1383.79 740.999,1383.8 742.869,1383.8 744.739,1383.81 746.609,1383.82 748.478,1383.83 750.348,1383.84 752.218,1383.84 754.088,1383.85 755.958,1383.86 757.827,1383.87 759.697,1383.87 761.567,1383.88 763.437,1383.89 765.306,1383.89 767.176,1383.9 769.046,1383.91 770.916,1383.91 772.786,1383.92 774.655,1383.92 776.525,1383.93 778.395,1383.94 780.265,1383.94 782.135,1383.95 784.004,1383.95 785.874,1383.96 787.744,1383.96 789.614,1383.97 791.483,1383.97 793.353,1383.98 795.223,1383.98 797.093,1383.99 798.963,1383.99 800.832,1384 802.702,1384 804.572,1384.01 806.442,1384.01 808.312,1384.01 810.181,1384.02 812.051,1384.02 813.921,1384.03 815.791,1384.03 817.661,1384.03 819.53,1384.04 821.4,1384.04 823.27,1384.05 825.14,1384.05 827.009,1384.05 828.879,1384.06 830.749,1384.06 832.619,1384.06 834.489,1384.07 836.358,1384.07 838.228,1384.07 840.098,1384.08 841.968,1384.08 843.838,1384.08 845.707,1384.09 847.577,1384.09 849.447,1384.09 851.317,1384.09 853.186,1384.1 855.056,1384.1 856.926,1384.1 858.796,1384.1 860.666,1384.11 862.535,1384.11 864.405,1384.11 866.275,1384.11 868.145,1384.12 870.015,1384.12 871.884,1384.12 873.754,1384.12 875.624,1384.13 877.494,1384.13 879.363,1384.13 881.233,1384.13 883.103,1384.13 884.973,1384.14 886.843,1384.14 888.712,1384.14 890.582,1384.14 892.452,1384.14 894.322,1384.14 896.192,1384.15 898.061,1384.15 899.931,1384.15 901.801,1384.15 903.671,1384.15 905.541,1384.15 907.41,1384.16 909.28,1384.16 911.15,1384.16 913.02,1384.16 914.889,1384.16 916.759,1384.16 918.629,1384.17 920.499,1384.17 922.369,1384.17 924.238,1384.17 926.108,1384.17 927.978,1384.17 929.848,1384.17 931.718,1384.17 933.587,1384.18 935.457,1384.18 937.327,1384.18 939.197,1384.18 941.066,1384.18 942.936,1384.18 944.806,1384.18 946.676,1384.18 948.546,1384.18 950.415,1384.19 952.285,1384.19 954.155,1384.19 956.025,1384.19 957.895,1384.19 959.764,1384.19 961.634,1384.19 963.504,1384.19 965.374,1384.19 967.243,1384.19 969.113,1384.19 970.983,1384.2 972.853,1384.2 974.723,1384.2 976.592,1384.2 978.462,1384.2 980.332,1384.2 982.202,1384.2 984.072,1384.2 985.941,1384.2 987.811,1384.2 989.681,1384.2 991.551,1384.2 993.421,1384.2 995.29,1384.2 997.16,1384.21 999.03,1384.21 1000.9,1384.21 1002.77,1384.21 1004.64,1384.21 1006.51,1384.21 1008.38,1384.21 1010.25,1384.21 1012.12,1384.21 1013.99,1384.21 1015.86,1384.21 1017.73,1384.21 1019.6,1384.21 1021.47,1384.21 1023.34,1384.21 1025.21,1384.21 1027.08,1384.21 1028.95,1384.21 1030.82,1384.21 1032.69,1384.22 1034.56,1384.22 1036.43,1384.22 1038.3,1384.22 1040.17,1384.22 1042.03,1384.22 1043.9,1384.22 1045.77,1384.22 1047.64,1384.22 1049.51,1384.22 1051.38,1384.22 1053.25,1384.22 1055.12,1384.22 1056.99,1384.22 1058.86,1384.22 1060.73,1384.22 1062.6,1384.22 1064.47,1384.22 1066.34,1384.22 1068.21,1384.22 1070.08,1384.22 1071.95,1384.22 1073.82,1384.22 1075.69,1384.22 1077.56,1384.22 1079.43,1384.22 1081.3,1384.22 1083.17,1384.22 1085.04,1384.22 1086.91,1384.22 1088.78,1384.23 1090.65,1384.23 1092.52,1384.23 1094.39,1384.23 1096.26,1384.23 1098.13,1384.23 1100,1384.23 1101.87,1384.23 1103.74,1384.23 1105.61,1384.23 1107.48,1384.23 1109.35,1384.23 1111.22,1384.23 1113.09,1384.23 1114.96,1384.23 1116.83,1384.23 1118.7,1384.23 1120.57,1384.23 1122.44,1384.23 1124.31,1384.23 1126.18,1384.23 1128.05,1384.23 1129.91,1384.23 1131.78,1384.23 1133.65,1384.23 1135.52,1384.23 1137.39,1384.23 1139.26,1384.23 1141.13,1384.23 1143,1384.23 1144.87,1384.23 1146.74,1384.23 1148.61,1384.23 1150.48,1384.23 1152.35,1384.23 1154.22,1384.23 1156.09,1384.23 1157.96,1384.23 1159.83,1384.23 1161.7,1384.23 1163.57,1384.23 1165.44,1384.23 1167.31,1384.23 1169.18,1384.23 1171.05,1384.23 1172.92,1384.23 1174.79,1384.23 1176.66,1384.23 1178.53,1384.23 1180.4,1384.23 1182.27,1384.23 1184.14,1384.23 1186.01,1384.23 1187.88,1384.23 1189.75,1384.23 1191.62,1384.23 1193.49,1384.23 1195.36,1384.23 1197.23,1384.23 1199.1,1384.23 1200.97,1384.23 1202.84,1384.23 1204.71,1384.23 1206.58,1384.23 1208.45,1384.23 1210.32,1384.23 1212.19,1384.23 1214.06,1384.23 1215.93,1384.23 1217.79,1384.23 1219.66,1384.23 1221.53,1384.23 1223.4,1384.23 1225.27,1384.23 1227.14,1384.23 1229.01,1384.23 1230.88,1384.23 1232.75,1384.23 1234.62,1384.24 1236.49,1384.24 1238.36,1384.24 1240.23,1384.24 1242.1,1384.24 1243.97,1384.24 1245.84,1384.24 1247.71,1384.24 1249.58,1384.24 1251.45,1384.24 1253.32,1384.24 1255.19,1384.24 1257.06,1384.24 1258.93,1384.24 1260.8,1384.24 1262.67,1384.24 1264.54,1384.24 1266.41,1384.24 1268.28,1384.24 1270.15,1384.24 1272.02,1384.24 1273.89,1384.24 1275.76,1384.24 1277.63,1384.24 1279.5,1384.24 1281.37,1384.24 1283.24,1384.24 1285.11,1384.24 1286.98,1384.24 1288.85,1384.24 1290.72,1384.24 1292.59,1384.24 1294.46,1384.24 1296.33,1384.24 1298.2,1384.24 1300.07,1384.24 1301.94,1384.24 1303.81,1384.24 1305.67,1384.24 1307.54,1384.24 1309.41,1384.24 1311.28,1384.24 1313.15,1384.24 1315.02,1384.24 1316.89,1384.24 1318.76,1384.24 1320.63,1384.24 1322.5,1384.24 1324.37,1384.24 1326.24,1384.24 1328.11,1384.24 1329.98,1384.24 1331.85,1384.24 1333.72,1384.24 1335.59,1384.24 1337.46,1384.24 1339.33,1384.24 1341.2,1384.24 1343.07,1384.24 1344.94,1384.24 1346.81,1384.24 1348.68,1384.24 1350.55,1384.24 1352.42,1384.24 1354.29,1384.24 1356.16,1384.24 1358.03,1384.24 1359.9,1384.24 1361.77,1384.24 1363.64,1384.24 1365.51,1384.24 1367.38,1384.24 1369.25,1384.24 1371.12,1384.24 1372.99,1384.24 1374.86,1384.24 1376.73,1384.24 1378.6,1384.24 1380.47,1384.24 1382.34,1384.24 1384.21,1384.24 1386.08,1384.24 1387.95,1384.24 1389.82,1384.24 1391.69,1384.24 1393.56,1384.24 1395.42,1384.24 1397.29,1384.24 1399.16,1384.24 1401.03,1384.24 1402.9,1384.24 1404.77,1384.24 1406.64,1384.24 1408.51,1384.24 1410.38,1384.24 1412.25,1384.24 1414.12,1384.24 1415.99,1384.24 1417.86,1384.24 1419.73,1384.24 1421.6,1384.24 1423.47,1384.24 1425.34,1384.24 1427.21,1384.24 1429.08,1384.24 1430.95,1384.24 1432.82,1384.24 1434.69,1384.24 1436.56,1384.24 1438.43,1384.24 1440.3,1384.24 1442.17,1384.24 1444.04,1384.24 1445.91,1384.24 1447.78,1384.24 1449.65,1384.24 1451.52,1384.24 1453.39,1384.24 1455.26,1384.24 1457.13,1384.24 1459,1384.24 1460.87,1384.24 1462.74,1384.24 1464.61,1384.24 1466.48,1384.24 1468.35,1384.24 1470.22,1384.24 1472.09,1384.24 1473.96,1384.24 1475.83,1384.24 1477.7,1384.24 1479.57,1384.24 1481.44,1384.24 1483.3,1384.24 1485.17,1384.24 1487.04,1384.24 1488.91,1384.24 1490.78,1384.24 1492.65,1384.24 1494.52,1384.24 1496.39,1384.24 1498.26,1384.24 1500.13,1384.24 1502,1384.24 1503.87,1384.24 1505.74,1384.24 1507.61,1384.24 1509.48,1384.24 1511.35,1384.24 1513.22,1384.24 1515.09,1384.24 1516.96,1384.24 1518.83,1384.24 1520.7,1384.24 1522.57,1384.24 1524.44,1384.24 1526.31,1384.24 1528.18,1384.24 1530.05,1384.24 1531.92,1384.24 1533.79,1384.24 1535.66,1384.24 1537.53,1384.24 1539.4,1384.24 1541.27,1384.24 1543.14,1384.24 1545.01,1384.24 1546.88,1384.24 1548.75,1384.24 1550.62,1384.24 1552.49,1384.24 1554.36,1384.24 1556.23,1384.24 1558.1,1384.24 1559.97,1384.24 1561.84,1384.24 1563.71,1384.24 1565.58,1384.24 1567.45,1384.24 1569.32,1384.24 1571.18,1384.24 1573.05,1384.24 1574.92,1384.24 1576.79,1384.24 1578.66,1384.24 1580.53,1384.24 1582.4,1384.24 1584.27,1384.24 1586.14,1384.24 1588.01,1384.24 1589.88,1384.24 1591.75,1384.24 1593.62,1384.24 1595.49,1384.24 1597.36,1384.24 1599.23,1384.24 1601.1,1384.24 1602.97,1384.24 1604.84,1384.24 1606.71,1384.24 1608.58,1384.24 1610.45,1384.24 1612.32,1384.24 1614.19,1384.24 1616.06,1384.24 1617.93,1384.24 1619.8,1384.24 1621.67,1384.24 1623.54,1384.24 1625.41,1384.24 1627.28,1384.24 1629.15,1384.24 1631.02,1384.24 1632.89,1384.24 1634.76,1384.24 1636.63,1384.24 1638.5,1384.24 1640.37,1384.24 1642.24,1384.24 1644.11,1384.24 1645.98,1384.24 1647.85,1384.24 1649.72,1384.24 1651.59,1384.24 1653.46,1384.24 1655.33,1384.24 1657.2,1384.24 1659.06,1384.24 1660.93,1384.24 1662.8,1384.24 1664.67,1384.24 1666.54,1384.24 1668.41,1384.24 1670.28,1384.24 1672.15,1384.24 1674.02,1384.24 1675.89,1384.24 1677.76,1384.24 1679.63,1384.24 1681.5,1384.24 1683.37,1384.24 1685.24,1384.24 1687.11,1384.24 1688.98,1384.24 1690.85,1384.24 1692.72,1384.24 1694.59,1384.24 1696.46,1384.24 1698.33,1384.24 1700.2,1384.24 1702.07,1384.24 1703.94,1384.24 1705.81,1384.24 1707.68,1384.24 1709.55,1384.24 1711.42,1384.24 1713.29,1384.24 1715.16,1384.24 1717.03,1384.24 1718.9,1384.24 1720.77,1384.24 1722.64,1384.24 1724.51,1384.24 1726.38,1384.24 1728.25,1384.24 1730.12,1384.24 1731.99,1384.24 1733.86,1384.24 1735.73,1384.24 1737.6,1384.24 1739.47,1384.24 1741.34,1384.24 1743.21,1384.24 1745.08,1384.24 1746.94,1384.24 1748.81,1384.24 1750.68,1384.24 1752.55,1384.24 1754.42,1384.24 1756.29,1384.24 1758.16,1384.24 1760.03,1384.24 1761.9,1384.24 1763.77,1384.24 1765.64,1384.24 1767.51,1384.24 1769.38,1384.24 1771.25,1384.24 1773.12,1384.24 1774.99,1384.24 1776.86,1384.24 1778.73,1384.24 1780.6,1384.24 1782.47,1384.24 1784.34,1384.24 1786.21,1384.24 1788.08,1384.24 1789.95,1384.24 1791.82,1384.24 1793.69,1384.24 1795.56,1384.24 1797.43,1384.24 1799.3,1384.24 1801.17,1384.24 1803.04,1384.24 1804.91,1384.24 1806.78,1384.24 1808.65,1384.24 1810.52,1384.24 1812.39,1384.24 1814.26,1384.24 1816.13,1384.24 1818,1384.24 1819.87,1384.24 1821.74,1384.24 1823.61,1384.24 1825.48,1384.24 1827.35,1384.24 1829.22,1384.24 1831.09,1384.24 1832.96,1384.24 1834.82,1384.24 1836.69,1384.24 1838.56,1384.24 1840.43,1384.24 1842.3,1384.24 1844.17,1384.24 1846.04,1384.24 1847.91,1384.24 1849.78,1384.24 1851.65,1384.24 1853.52,1384.24 1855.39,1384.24 1857.26,1384.24 1859.13,1384.24 1861,1384.24 1862.87,1384.24 1864.74,1384.24 1866.61,1384.24 1868.48,1384.24 1870.35,1384.24 1872.22,1384.24 1874.09,1384.24 1875.96,1384.24 1877.83,1384.24 1879.7,1384.24 1881.57,1384.24 1883.44,1384.24 1885.31,1384.24 1887.18,1384.24 1889.05,1384.24 1890.92,1384.24 1892.79,1384.24 1894.66,1384.24 1896.53,1384.24 1898.4,1384.24 1900.27,1384.24 1902.14,1384.24 1904.01,1384.24 1905.88,1384.24 1907.75,1384.24 1909.62,1384.24 1911.49,1384.24 1913.36,1384.24 1915.23,1384.24 1917.1,1384.24 1918.97,1384.24 1920.84,1384.24 1922.7,1384.24 1924.57,1384.24 1926.44,1384.24 1928.31,1384.24 1930.18,1384.24 1932.05,1384.24 1933.92,1384.24 1935.79,1384.24 1937.66,1384.24 1939.53,1384.24 1941.4,1384.24 1943.27,1384.24 1945.14,1384.24 1947.01,1384.24 1948.88,1384.24 1950.75,1384.24 1952.62,1384.24 1954.49,1384.24 1956.36,1384.24 1958.23,1384.24 1960.1,1384.24 1961.97,1384.24 1963.84,1384.24 1965.71,1384.24 1967.58,1384.24 1969.45,1384.24 1971.32,1384.24 1973.19,1384.24 1975.06,1384.24 1976.93,1384.24 1978.8,1384.24 1980.67,1384.24 1982.54,1384.24 1984.41,1384.24 1986.28,1384.24 1988.15,1384.24 1990.02,1384.24 1991.89,1384.24 1993.76,1384.24 1995.63,1384.24 1997.5,1384.24 1999.37,1384.24 2001.24,1384.24 2003.11,1384.24 2004.98,1384.24 2006.85,1384.24 2008.72,1384.24 2010.58,1384.24 2012.45,1384.24 2014.32,1384.24 2016.19,1384.24 2018.06,1384.24 2019.93,1384.24 2021.8,1384.24 2023.67,1384.24 2025.54,1384.24 2027.41,1384.24 2029.28,1384.24 2031.15,1384.24 2033.02,1384.24 2034.89,1384.24 2036.76,1384.24 2038.63,1384.24 2040.5,1384.24 2042.37,1384.24 2044.24,1384.24 2046.11,1384.24 2047.98,1384.24 2049.85,1384.24 2051.72,1384.24 2053.59,1384.24 2055.46,1384.24 2057.33,1384.24 2059.2,1384.24 2061.07,1384.24 2062.94,1384.24 2064.81,1384.24 2066.68,1384.24 2068.55,1384.24 2070.42,1384.24 2072.29,1384.24 2074.16,1384.24 2076.03,1384.24 2077.9,1384.24 2079.77,1384.24 2081.64,1384.24 2083.51,1384.24 2085.38,1384.24 2087.25,1384.24 2089.12,1384.24 2090.99,1384.24 2092.86,1384.24 2094.73,1384.24 2096.6,1384.24 2098.46,1384.24 2100.33,1384.24 2102.2,1384.24 2104.07,1384.24 2105.94,1384.24 2107.81,1384.24 2109.68,1384.24 2111.55,1384.24 2113.42,1384.24 2115.29,1384.24 2117.16,1384.24 2119.03,1384.24 2120.9,1384.24 2122.77,1384.24 2124.64,1384.24 2126.51,1384.24 2128.38,1384.24 2130.25,1384.24 2132.12,1384.24 2133.99,1384.24 2135.86,1384.24 2137.73,1384.24 2139.6,1384.24 2141.47,1384.24 2143.34,1384.24 2145.21,1384.24 2147.08,1384.24 2148.95,1384.24 2150.82,1384.24 2152.69,1384.24 2154.56,1384.24 2156.43,1384.24 2158.3,1384.24 2160.17,1384.24 2162.04,1384.24 2163.91,1384.24 2165.78,1384.24 2167.65,1384.24 2169.52,1384.24 2171.39,1384.24 2173.26,1384.24 2175.13,1384.24 2177,1384.24 2178.87,1384.24 2180.74,1384.24 2182.61,1384.24 2184.48,1384.24 2186.34,1384.24 2188.21,1384.24 2190.08,1384.24 2191.95,1384.24 2193.82,1384.24 2195.69,1384.24 2197.56,1384.24 2199.43,1384.24 2201.3,1384.24 2203.17,1384.24 2205.04,1384.24 2206.91,1384.24 2208.78,1384.24 2210.65,1384.24 2212.52,1384.24 2214.39,1384.24 2216.26,1384.24 2218.13,1384.24 2220,1384.24 2221.87,1384.24 2223.74,1384.24 2225.61,1384.24 2227.48,1384.24 2229.35,1384.24 2231.22,1384.24 2233.09,1384.24 2234.96,1384.24 2236.83,1384.24 2238.7,1384.24 2240.57,1384.24 2242.44,1384.24 2244.31,1384.24 2246.18,1384.24 2248.05,1384.24 2249.92,1384.24 2251.79,1384.24 2253.66,1384.24 2255.53,1384.24 2257.4,1384.24 2259.27,1384.24 2261.14,1384.24 2263.01,1384.24 2264.88,1384.24 2266.75,1384.24 2268.62,1384.24 2270.49,1384.24 2272.36,1384.24 2274.22,1384.24 2276.09,1384.24 2277.96,1384.24 2279.83,1384.24 2281.7,1384.24 2283.57,1384.24 2285.44,1384.24 2287.31,1384.24 2289.18,1384.24 2291.05,1384.24 2292.92,1384.24 2294.79,1384.24 2296.66,1384.24 2298.53,1384.24 2300.4,1384.24 2302.27,1384.24 2304.14,1384.24 2306.01,1384.24 2307.88,1384.24 2309.75,1384.24 2311.62,1384.24 2313.49,1384.24 2315.36,1384.24 2317.23,1384.24 2319.1,1384.24 2320.97,1384.24 2322.84,1384.24 2324.71,1384.24 2326.58,1384.24 2328.45,1384.24 2330.32,1384.24 2332.19,1384.24 2334.06,1384.24 2335.93,1384.24 2337.8,1384.24 2339.67,1384.24 2341.54,1384.24 2343.41,1384.24 2345.28,1384.24 2347.15,1384.24 2349.02,1384.24 2350.89,1384.24 2352.76,1384.24 "/>
<path clip-path="url(#clip710)" d="M185.61 248.629 L477.343 248.629 L477.343 93.1086 L185.61 93.1086  Z" fill="#ffffff" fill-rule="evenodd" fill-opacity="1"/>
<polyline clip-path="url(#clip710)" style="stroke:#000000; stroke-linecap:round; stroke-linejoin:round; stroke-width:4; stroke-opacity:1; fill:none" points="185.61,248.629 477.343,248.629 477.343,93.1086 185.61,93.1086 185.61,248.629 "/>
<polyline clip-path="url(#clip710)" style="stroke:#009af9; stroke-linecap:round; stroke-linejoin:round; stroke-width:4; stroke-opacity:1; fill:none" points="210.52,144.949 359.978,144.949 "/>
<path clip-path="url(#clip710)" d="M404.147 145.794 L389.402 145.794 Q389.749 152.715 391.346 155.655 Q393.337 159.266 396.786 159.266 Q400.258 159.266 402.179 155.631 Q403.869 152.437 404.147 145.794 M404.078 141.858 Q403.429 135.284 402.179 132.97 Q400.189 129.312 396.786 129.312 Q393.244 129.312 391.369 132.923 Q389.888 135.84 389.448 141.858 L404.078 141.858 M396.786 125.84 Q402.341 125.84 405.513 130.747 Q408.684 135.632 408.684 144.289 Q408.684 152.923 405.513 157.83 Q402.341 162.761 396.786 162.761 Q391.207 162.761 388.059 157.83 Q384.888 152.923 384.888 144.289 Q384.888 135.632 388.059 130.747 Q391.207 125.84 396.786 125.84 Z" fill="#000000" fill-rule="nonzero" fill-opacity="1" /><polyline clip-path="url(#clip710)" style="stroke:#e26f46; stroke-linecap:round; stroke-linejoin:round; stroke-width:4; stroke-opacity:1; fill:none" points="210.52,196.789 359.978,196.789 "/>
<path clip-path="url(#clip710)" d="M404.147 197.634 L389.402 197.634 Q389.749 204.555 391.346 207.495 Q393.337 211.106 396.786 211.106 Q400.258 211.106 402.179 207.471 Q403.869 204.277 404.147 197.634 M404.078 193.698 Q403.429 187.124 402.179 184.81 Q400.189 181.152 396.786 181.152 Q393.244 181.152 391.369 184.763 Q389.888 187.68 389.448 193.698 L404.078 193.698 M396.786 177.68 Q402.341 177.68 405.513 182.587 Q408.684 187.472 408.684 196.129 Q408.684 204.763 405.513 209.67 Q402.341 214.601 396.786 214.601 Q391.207 214.601 388.059 209.67 Q384.888 204.763 384.888 196.129 Q384.888 187.472 388.059 182.587 Q391.207 177.68 396.786 177.68 Z" fill="#000000" fill-rule="nonzero" fill-opacity="1" /><path clip-path="url(#clip710)" d="M416.207 218.05 L430.05 218.05 L430.05 221.476 L416.207 221.476 L416.207 218.05 Z" fill="#000000" fill-rule="nonzero" fill-opacity="1" /><path clip-path="url(#clip710)" d="M443.661 180.782 L443.661 188.143 L452.434 188.143 L452.434 191.453 L443.661 191.453 L443.661 205.527 Q443.661 208.698 444.517 209.601 Q445.397 210.504 448.059 210.504 L452.434 210.504 L452.434 214.069 L448.059 214.069 Q443.128 214.069 441.253 212.24 Q439.378 210.388 439.378 205.527 L439.378 191.453 L436.253 191.453 L436.253 188.143 L439.378 188.143 L439.378 180.782 L443.661 180.782 Z" fill="#000000" fill-rule="nonzero" fill-opacity="1" /></svg>
