<?xml version="1.0" encoding="utf-8"?>
<svg xmlns="http://www.w3.org/2000/svg" xmlns:xlink="http://www.w3.org/1999/xlink" width="600" height="400" viewBox="0 0 2400 1600">
<defs>
  <clipPath id="clip820">
    <rect x="0" y="0" width="2400" height="1600"/>
  </clipPath>
</defs>
<path clip-path="url(#clip820)" d="M0 1600 L2400 1600 L2400 0 L0 0  Z" fill="#ffffff" fill-rule="evenodd" fill-opacity="1"/>
<defs>
  <clipPath id="clip821">
    <rect x="288" y="123" width="2065" height="1301"/>
  </clipPath>
</defs>
<path clip-path="url(#clip820)" d="M288.311 1423.18 L2352.76 1423.18 L2352.76 123.472 L288.311 123.472  Z" fill="#ffffff" fill-rule="evenodd" fill-opacity="1"/>
<polyline clip-path="url(#clip821)" style="stroke:#000000; stroke-linecap:round; stroke-linejoin:round; stroke-width:2; stroke-opacity:0.1; fill:none" points="333.754,1423.18 333.754,123.472 "/>
<polyline clip-path="url(#clip821)" style="stroke:#000000; stroke-linecap:round; stroke-linejoin:round; stroke-width:2; stroke-opacity:0.1; fill:none" points="982.951,1423.18 982.951,123.472 "/>
<polyline clip-path="url(#clip821)" style="stroke:#000000; stroke-linecap:round; stroke-linejoin:round; stroke-width:2; stroke-opacity:0.1; fill:none" points="1632.15,1423.18 1632.15,123.472 "/>
<polyline clip-path="url(#clip821)" style="stroke:#000000; stroke-linecap:round; stroke-linejoin:round; stroke-width:2; stroke-opacity:0.1; fill:none" points="2281.34,1423.18 2281.34,123.472 "/>
<polyline clip-path="url(#clip821)" style="stroke:#000000; stroke-linecap:round; stroke-linejoin:round; stroke-width:2; stroke-opacity:0.1; fill:none" points="288.311,956.826 2352.76,956.826 "/>
<polyline clip-path="url(#clip821)" style="stroke:#000000; stroke-linecap:round; stroke-linejoin:round; stroke-width:2; stroke-opacity:0.1; fill:none" points="288.311,459.083 2352.76,459.083 "/>
<polyline clip-path="url(#clip820)" style="stroke:#000000; stroke-linecap:round; stroke-linejoin:round; stroke-width:4; stroke-opacity:1; fill:none" points="288.311,1423.18 2352.76,1423.18 "/>
<polyline clip-path="url(#clip820)" style="stroke:#000000; stroke-linecap:round; stroke-linejoin:round; stroke-width:4; stroke-opacity:1; fill:none" points="333.754,1423.18 333.754,1404.28 "/>
<polyline clip-path="url(#clip820)" style="stroke:#000000; stroke-linecap:round; stroke-linejoin:round; stroke-width:4; stroke-opacity:1; fill:none" points="982.951,1423.18 982.951,1404.28 "/>
<polyline clip-path="url(#clip820)" style="stroke:#000000; stroke-linecap:round; stroke-linejoin:round; stroke-width:4; stroke-opacity:1; fill:none" points="1632.15,1423.18 1632.15,1404.28 "/>
<polyline clip-path="url(#clip820)" style="stroke:#000000; stroke-linecap:round; stroke-linejoin:round; stroke-width:4; stroke-opacity:1; fill:none" points="2281.34,1423.18 2281.34,1404.28 "/>
<path clip-path="url(#clip820)" d="M333.754 1454.1 Q330.143 1454.1 328.315 1457.66 Q326.509 1461.2 326.509 1468.33 Q326.509 1475.44 328.315 1479.01 Q330.143 1482.55 333.754 1482.55 Q337.389 1482.55 339.194 1479.01 Q341.023 1475.44 341.023 1468.33 Q341.023 1461.2 339.194 1457.66 Q337.389 1454.1 333.754 1454.1 M333.754 1450.39 Q339.565 1450.39 342.62 1455 Q345.699 1459.58 345.699 1468.33 Q345.699 1477.06 342.62 1481.67 Q339.565 1486.25 333.754 1486.25 Q327.944 1486.25 324.866 1481.67 Q321.81 1477.06 321.81 1468.33 Q321.81 1459.58 324.866 1455 Q327.944 1450.39 333.754 1450.39 Z" fill="#000000" fill-rule="nonzero" fill-opacity="1" /><path clip-path="url(#clip820)" d="M942.558 1481.64 L950.197 1481.64 L950.197 1455.28 L941.886 1456.95 L941.886 1452.69 L950.15 1451.02 L954.826 1451.02 L954.826 1481.64 L962.465 1481.64 L962.465 1485.58 L942.558 1485.58 L942.558 1481.64 Z" fill="#000000" fill-rule="nonzero" fill-opacity="1" /><path clip-path="url(#clip820)" d="M981.909 1454.1 Q978.298 1454.1 976.47 1457.66 Q974.664 1461.2 974.664 1468.33 Q974.664 1475.44 976.47 1479.01 Q978.298 1482.55 981.909 1482.55 Q985.544 1482.55 987.349 1479.01 Q989.178 1475.44 989.178 1468.33 Q989.178 1461.2 987.349 1457.66 Q985.544 1454.1 981.909 1454.1 M981.909 1450.39 Q987.72 1450.39 990.775 1455 Q993.854 1459.58 993.854 1468.33 Q993.854 1477.06 990.775 1481.67 Q987.72 1486.25 981.909 1486.25 Q976.099 1486.25 973.021 1481.67 Q969.965 1477.06 969.965 1468.33 Q969.965 1459.58 973.021 1455 Q976.099 1450.39 981.909 1450.39 Z" fill="#000000" fill-rule="nonzero" fill-opacity="1" /><path clip-path="url(#clip820)" d="M1012.07 1454.1 Q1008.46 1454.1 1006.63 1457.66 Q1004.83 1461.2 1004.83 1468.33 Q1004.83 1475.44 1006.63 1479.01 Q1008.46 1482.55 1012.07 1482.55 Q1015.71 1482.55 1017.51 1479.01 Q1019.34 1475.44 1019.34 1468.33 Q1019.34 1461.2 1017.51 1457.66 Q1015.71 1454.1 1012.07 1454.1 M1012.07 1450.39 Q1017.88 1450.39 1020.94 1455 Q1024.02 1459.58 1024.02 1468.33 Q1024.02 1477.06 1020.94 1481.67 Q1017.88 1486.25 1012.07 1486.25 Q1006.26 1486.25 1003.18 1481.67 Q1000.13 1477.06 1000.13 1468.33 Q1000.13 1459.58 1003.18 1455 Q1006.26 1450.39 1012.07 1450.39 Z" fill="#000000" fill-rule="nonzero" fill-opacity="1" /><path clip-path="url(#clip820)" d="M1595.84 1481.64 L1612.16 1481.64 L1612.16 1485.58 L1590.22 1485.58 L1590.22 1481.64 Q1592.88 1478.89 1597.46 1474.26 Q1602.07 1469.61 1603.25 1468.27 Q1605.49 1465.74 1606.37 1464.01 Q1607.28 1462.25 1607.28 1460.56 Q1607.28 1457.8 1605.33 1456.07 Q1603.41 1454.33 1600.31 1454.33 Q1598.11 1454.33 1595.65 1455.09 Q1593.22 1455.86 1590.45 1457.41 L1590.45 1452.69 Q1593.27 1451.55 1595.72 1450.97 Q1598.18 1450.39 1600.21 1450.39 Q1605.59 1450.39 1608.78 1453.08 Q1611.97 1455.77 1611.97 1460.26 Q1611.97 1462.39 1611.16 1464.31 Q1610.38 1466.2 1608.27 1468.8 Q1607.69 1469.47 1604.59 1472.69 Q1601.49 1475.88 1595.84 1481.64 Z" fill="#000000" fill-rule="nonzero" fill-opacity="1" /><path clip-path="url(#clip820)" d="M1631.97 1454.1 Q1628.36 1454.1 1626.53 1457.66 Q1624.73 1461.2 1624.73 1468.33 Q1624.73 1475.44 1626.53 1479.01 Q1628.36 1482.55 1631.97 1482.55 Q1635.61 1482.55 1637.41 1479.01 Q1639.24 1475.44 1639.24 1468.33 Q1639.24 1461.2 1637.41 1457.66 Q1635.61 1454.1 1631.97 1454.1 M1631.97 1450.39 Q1637.78 1450.39 1640.84 1455 Q1643.92 1459.58 1643.92 1468.33 Q1643.92 1477.06 1640.84 1481.67 Q1637.78 1486.25 1631.97 1486.25 Q1626.16 1486.25 1623.09 1481.67 Q1620.03 1477.06 1620.03 1468.33 Q1620.03 1459.58 1623.09 1455 Q1626.16 1450.39 1631.97 1450.39 Z" fill="#000000" fill-rule="nonzero" fill-opacity="1" /><path clip-path="url(#clip820)" d="M1662.14 1454.1 Q1658.52 1454.1 1656.7 1457.66 Q1654.89 1461.2 1654.89 1468.33 Q1654.89 1475.44 1656.7 1479.01 Q1658.52 1482.55 1662.14 1482.55 Q1665.77 1482.55 1667.58 1479.01 Q1669.4 1475.44 1669.4 1468.33 Q1669.4 1461.2 1667.58 1457.66 Q1665.77 1454.1 1662.14 1454.1 M1662.14 1450.39 Q1667.95 1450.39 1671 1455 Q1674.08 1459.58 1674.08 1468.33 Q1674.08 1477.06 1671 1481.67 Q1667.95 1486.25 1662.14 1486.25 Q1656.33 1486.25 1653.25 1481.67 Q1650.19 1477.06 1650.19 1468.33 Q1650.19 1459.58 1653.25 1455 Q1656.33 1450.39 1662.14 1450.39 Z" fill="#000000" fill-rule="nonzero" fill-opacity="1" /><path clip-path="url(#clip820)" d="M2255.11 1466.95 Q2258.46 1467.66 2260.34 1469.93 Q2262.24 1472.2 2262.24 1475.53 Q2262.24 1480.65 2258.72 1483.45 Q2255.2 1486.25 2248.72 1486.25 Q2246.54 1486.25 2244.23 1485.81 Q2241.93 1485.39 2239.48 1484.54 L2239.48 1480.02 Q2241.43 1481.16 2243.74 1481.74 Q2246.06 1482.32 2248.58 1482.32 Q2252.98 1482.32 2255.27 1480.58 Q2257.58 1478.84 2257.58 1475.53 Q2257.58 1472.48 2255.43 1470.77 Q2253.3 1469.03 2249.48 1469.03 L2245.45 1469.03 L2245.45 1465.19 L2249.67 1465.19 Q2253.12 1465.19 2254.94 1463.82 Q2256.77 1462.43 2256.77 1459.84 Q2256.77 1457.18 2254.87 1455.77 Q2253 1454.33 2249.48 1454.33 Q2247.56 1454.33 2245.36 1454.75 Q2243.16 1455.16 2240.52 1456.04 L2240.52 1451.88 Q2243.18 1451.14 2245.5 1450.77 Q2247.84 1450.39 2249.9 1450.39 Q2255.22 1450.39 2258.32 1452.83 Q2261.43 1455.23 2261.43 1459.35 Q2261.43 1462.22 2259.78 1464.21 Q2258.14 1466.18 2255.11 1466.95 Z" fill="#000000" fill-rule="nonzero" fill-opacity="1" /><path clip-path="url(#clip820)" d="M2281.1 1454.1 Q2277.49 1454.1 2275.66 1457.66 Q2273.86 1461.2 2273.86 1468.33 Q2273.86 1475.44 2275.66 1479.01 Q2277.49 1482.55 2281.1 1482.55 Q2284.74 1482.55 2286.54 1479.01 Q2288.37 1475.44 2288.37 1468.33 Q2288.37 1461.2 2286.54 1457.66 Q2284.74 1454.1 2281.1 1454.1 M2281.1 1450.39 Q2286.91 1450.39 2289.97 1455 Q2293.05 1459.58 2293.05 1468.33 Q2293.05 1477.06 2289.97 1481.67 Q2286.91 1486.25 2281.1 1486.25 Q2275.29 1486.25 2272.21 1481.67 Q2269.16 1477.06 2269.16 1468.33 Q2269.16 1459.58 2272.21 1455 Q2275.29 1450.39 2281.1 1450.39 Z" fill="#000000" fill-rule="nonzero" fill-opacity="1" /><path clip-path="url(#clip820)" d="M2311.26 1454.1 Q2307.65 1454.1 2305.82 1457.66 Q2304.02 1461.2 2304.02 1468.33 Q2304.02 1475.44 2305.82 1479.01 Q2307.65 1482.55 2311.26 1482.55 Q2314.9 1482.55 2316.7 1479.01 Q2318.53 1475.44 2318.53 1468.33 Q2318.53 1461.2 2316.7 1457.66 Q2314.9 1454.1 2311.26 1454.1 M2311.26 1450.39 Q2317.07 1450.39 2320.13 1455 Q2323.21 1459.58 2323.21 1468.33 Q2323.21 1477.06 2320.13 1481.67 Q2317.07 1486.25 2311.26 1486.25 Q2305.45 1486.25 2302.37 1481.67 Q2299.32 1477.06 2299.32 1468.33 Q2299.32 1459.58 2302.37 1455 Q2305.45 1450.39 2311.26 1450.39 Z" fill="#000000" fill-rule="nonzero" fill-opacity="1" /><path clip-path="url(#clip820)" d="M1188.25 1520.52 L1194.68 1520.52 L1194.68 1568.04 L1188.25 1568.04 L1188.25 1520.52 Z" fill="#000000" fill-rule="nonzero" fill-opacity="1" /><path clip-path="url(#clip820)" d="M1213.02 1522.27 L1213.02 1532.4 L1225.08 1532.4 L1225.08 1536.95 L1213.02 1536.95 L1213.02 1556.3 Q1213.02 1560.66 1214.19 1561.9 Q1215.4 1563.14 1219.06 1563.14 L1225.08 1563.14 L1225.08 1568.04 L1219.06 1568.04 Q1212.28 1568.04 1209.71 1565.53 Q1207.13 1562.98 1207.13 1556.3 L1207.13 1536.95 L1202.83 1536.95 L1202.83 1532.4 L1207.13 1532.4 L1207.13 1522.27 L1213.02 1522.27 Z" fill="#000000" fill-rule="nonzero" fill-opacity="1" /><path clip-path="url(#clip820)" d="M1263.27 1548.76 L1263.27 1551.62 L1236.35 1551.62 Q1236.73 1557.67 1239.98 1560.85 Q1243.25 1564 1249.08 1564 Q1252.45 1564 1255.6 1563.17 Q1258.79 1562.35 1261.91 1560.69 L1261.91 1566.23 Q1258.75 1567.57 1255.44 1568.27 Q1252.13 1568.97 1248.73 1568.97 Q1240.2 1568.97 1235.2 1564 Q1230.24 1559.04 1230.24 1550.57 Q1230.24 1541.82 1234.95 1536.69 Q1239.69 1531.54 1247.71 1531.54 Q1254.9 1531.54 1259.07 1536.18 Q1263.27 1540.8 1263.27 1548.76 M1257.42 1547.04 Q1257.35 1542.23 1254.71 1539.37 Q1252.1 1536.5 1247.77 1536.5 Q1242.87 1536.5 1239.91 1539.27 Q1236.98 1542.04 1236.54 1547.07 L1257.42 1547.04 Z" fill="#000000" fill-rule="nonzero" fill-opacity="1" /><path clip-path="url(#clip820)" d="M1293.54 1537.87 Q1292.56 1537.3 1291.38 1537.04 Q1290.23 1536.76 1288.83 1536.76 Q1283.87 1536.76 1281.19 1540 Q1278.55 1543.22 1278.55 1549.27 L1278.55 1568.04 L1272.66 1568.04 L1272.66 1532.4 L1278.55 1532.4 L1278.55 1537.93 Q1280.4 1534.69 1283.36 1533.13 Q1286.32 1531.54 1290.55 1531.54 Q1291.16 1531.54 1291.89 1531.63 Q1292.62 1531.7 1293.51 1531.85 L1293.54 1537.87 Z" fill="#000000" fill-rule="nonzero" fill-opacity="1" /><path clip-path="url(#clip820)" d="M1315.89 1550.12 Q1308.79 1550.12 1306.05 1551.75 Q1303.31 1553.37 1303.31 1557.29 Q1303.31 1560.4 1305.35 1562.25 Q1307.42 1564.07 1310.95 1564.07 Q1315.82 1564.07 1318.75 1560.63 Q1321.71 1557.16 1321.71 1551.43 L1321.71 1550.12 L1315.89 1550.12 M1327.57 1547.71 L1327.57 1568.04 L1321.71 1568.04 L1321.71 1562.63 Q1319.71 1565.88 1316.71 1567.44 Q1313.72 1568.97 1309.39 1568.97 Q1303.92 1568.97 1300.67 1565.91 Q1297.46 1562.82 1297.46 1557.67 Q1297.46 1551.65 1301.47 1548.6 Q1305.51 1545.54 1313.5 1545.54 L1321.71 1545.54 L1321.71 1544.97 Q1321.71 1540.93 1319.04 1538.73 Q1316.4 1536.5 1311.59 1536.5 Q1308.53 1536.5 1305.64 1537.23 Q1302.74 1537.97 1300.07 1539.43 L1300.07 1534.02 Q1303.28 1532.78 1306.31 1532.17 Q1309.33 1531.54 1312.19 1531.54 Q1319.93 1531.54 1323.75 1535.55 Q1327.57 1539.56 1327.57 1547.71 Z" fill="#000000" fill-rule="nonzero" fill-opacity="1" /><path clip-path="url(#clip820)" d="M1345.42 1522.27 L1345.42 1532.4 L1357.49 1532.4 L1357.49 1536.95 L1345.42 1536.95 L1345.42 1556.3 Q1345.42 1560.66 1346.6 1561.9 Q1347.81 1563.14 1351.47 1563.14 L1357.49 1563.14 L1357.49 1568.04 L1351.47 1568.04 Q1344.69 1568.04 1342.11 1565.53 Q1339.53 1562.98 1339.53 1556.3 L1339.53 1536.95 L1335.24 1536.95 L1335.24 1532.4 L1339.53 1532.4 L1339.53 1522.27 L1345.42 1522.27 Z" fill="#000000" fill-rule="nonzero" fill-opacity="1" /><path clip-path="url(#clip820)" d="M1365.19 1532.4 L1371.05 1532.4 L1371.05 1568.04 L1365.19 1568.04 L1365.19 1532.4 M1365.19 1518.52 L1371.05 1518.52 L1371.05 1525.93 L1365.19 1525.93 L1365.19 1518.52 Z" fill="#000000" fill-rule="nonzero" fill-opacity="1" /><path clip-path="url(#clip820)" d="M1397.11 1536.5 Q1392.4 1536.5 1389.66 1540.19 Q1386.93 1543.85 1386.93 1550.25 Q1386.93 1556.65 1389.63 1560.34 Q1392.37 1564 1397.11 1564 Q1401.79 1564 1404.53 1560.31 Q1407.27 1556.62 1407.27 1550.25 Q1407.27 1543.92 1404.53 1540.23 Q1401.79 1536.5 1397.11 1536.5 M1397.11 1531.54 Q1404.75 1531.54 1409.11 1536.5 Q1413.47 1541.47 1413.47 1550.25 Q1413.47 1559 1409.11 1564 Q1404.75 1568.97 1397.11 1568.97 Q1389.44 1568.97 1385.08 1564 Q1380.75 1559 1380.75 1550.25 Q1380.75 1541.47 1385.08 1536.5 Q1389.44 1531.54 1397.11 1531.54 Z" fill="#000000" fill-rule="nonzero" fill-opacity="1" /><path clip-path="url(#clip820)" d="M1452.81 1546.53 L1452.81 1568.04 L1446.96 1568.04 L1446.96 1546.72 Q1446.96 1541.66 1444.98 1539.14 Q1443.01 1536.63 1439.06 1536.63 Q1434.32 1536.63 1431.58 1539.65 Q1428.85 1542.68 1428.85 1547.9 L1428.85 1568.04 L1422.96 1568.04 L1422.96 1532.4 L1428.85 1532.4 L1428.85 1537.93 Q1430.95 1534.72 1433.78 1533.13 Q1436.64 1531.54 1440.37 1531.54 Q1446.51 1531.54 1449.66 1535.36 Q1452.81 1539.14 1452.81 1546.53 Z" fill="#000000" fill-rule="nonzero" fill-opacity="1" /><polyline clip-path="url(#clip820)" style="stroke:#000000; stroke-linecap:round; stroke-linejoin:round; stroke-width:4; stroke-opacity:1; fill:none" points="288.311,1423.18 288.311,123.472 "/>
<polyline clip-path="url(#clip820)" style="stroke:#000000; stroke-linecap:round; stroke-linejoin:round; stroke-width:4; stroke-opacity:1; fill:none" points="288.311,956.826 307.208,956.826 "/>
<polyline clip-path="url(#clip820)" style="stroke:#000000; stroke-linecap:round; stroke-linejoin:round; stroke-width:4; stroke-opacity:1; fill:none" points="288.311,459.083 307.208,459.083 "/>
<path clip-path="url(#clip820)" d="M114.931 976.618 L122.57 976.618 L122.57 950.253 L114.26 951.919 L114.26 947.66 L122.524 945.994 L127.2 945.994 L127.2 976.618 L134.839 976.618 L134.839 980.554 L114.931 980.554 L114.931 976.618 Z" fill="#000000" fill-rule="nonzero" fill-opacity="1" /><path clip-path="url(#clip820)" d="M154.283 949.072 Q150.672 949.072 148.843 952.637 Q147.038 956.179 147.038 963.308 Q147.038 970.415 148.843 973.98 Q150.672 977.521 154.283 977.521 Q157.917 977.521 159.723 973.98 Q161.552 970.415 161.552 963.308 Q161.552 956.179 159.723 952.637 Q157.917 949.072 154.283 949.072 M154.283 945.369 Q160.093 945.369 163.149 949.975 Q166.227 954.558 166.227 963.308 Q166.227 972.035 163.149 976.642 Q160.093 981.225 154.283 981.225 Q148.473 981.225 145.394 976.642 Q142.339 972.035 142.339 963.308 Q142.339 954.558 145.394 949.975 Q148.473 945.369 154.283 945.369 Z" fill="#000000" fill-rule="nonzero" fill-opacity="1" /><path clip-path="url(#clip820)" d="M166.227 939.47 L190.339 939.47 L190.339 942.667 L166.227 942.667 L166.227 939.47 Z" fill="#000000" fill-rule="nonzero" fill-opacity="1" /><path clip-path="url(#clip820)" d="M201.812 949.946 L215.071 949.946 L215.071 953.143 L197.241 953.143 L197.241 949.946 Q199.404 947.708 203.128 943.946 Q206.871 940.166 207.83 939.075 Q209.655 937.025 210.369 935.614 Q211.103 934.185 211.103 932.812 Q211.103 930.574 209.523 929.163 Q207.962 927.753 205.442 927.753 Q203.655 927.753 201.661 928.373 Q199.686 928.994 197.43 930.254 L197.43 926.417 Q199.724 925.496 201.718 925.026 Q203.711 924.555 205.366 924.555 Q209.73 924.555 212.325 926.737 Q214.921 928.919 214.921 932.567 Q214.921 934.298 214.263 935.859 Q213.623 937.401 211.912 939.508 Q211.441 940.053 208.921 942.667 Q206.401 945.263 201.812 949.946 Z" fill="#000000" fill-rule="nonzero" fill-opacity="1" /><path clip-path="url(#clip820)" d="M223.046 948.366 L227.014 948.366 L227.014 953.143 L223.046 953.143 L223.046 948.366 Z" fill="#000000" fill-rule="nonzero" fill-opacity="1" /><path clip-path="url(#clip820)" d="M235.327 925.063 L250.242 925.063 L250.242 928.261 L238.807 928.261 L238.807 935.144 Q239.634 934.862 240.462 934.73 Q241.289 934.58 242.117 934.58 Q246.819 934.58 249.565 937.157 Q252.311 939.733 252.311 944.134 Q252.311 948.667 249.489 951.187 Q246.668 953.689 241.534 953.689 Q239.766 953.689 237.923 953.388 Q236.098 953.087 234.142 952.485 L234.142 948.667 Q235.835 949.589 237.641 950.04 Q239.446 950.491 241.459 950.491 Q244.712 950.491 246.612 948.78 Q248.511 947.068 248.511 944.134 Q248.511 941.2 246.612 939.489 Q244.712 937.777 241.459 937.777 Q239.935 937.777 238.412 938.116 Q236.907 938.454 235.327 939.169 L235.327 925.063 Z" fill="#000000" fill-rule="nonzero" fill-opacity="1" /><path clip-path="url(#clip820)" d="M144.855 478.875 L152.493 478.875 L152.493 452.51 L144.183 454.177 L144.183 449.917 L152.447 448.251 L157.123 448.251 L157.123 478.875 L164.762 478.875 L164.762 482.811 L144.855 482.811 L144.855 478.875 Z" fill="#000000" fill-rule="nonzero" fill-opacity="1" /><path clip-path="url(#clip820)" d="M184.206 451.329 Q180.595 451.329 178.766 454.894 Q176.961 458.436 176.961 465.565 Q176.961 472.672 178.766 476.237 Q180.595 479.778 184.206 479.778 Q187.84 479.778 189.646 476.237 Q191.475 472.672 191.475 465.565 Q191.475 458.436 189.646 454.894 Q187.84 451.329 184.206 451.329 M184.206 447.626 Q190.016 447.626 193.072 452.232 Q196.151 456.815 196.151 465.565 Q196.151 474.292 193.072 478.899 Q190.016 483.482 184.206 483.482 Q178.396 483.482 175.317 478.899 Q172.262 474.292 172.262 465.565 Q172.262 456.815 175.317 452.232 Q178.396 447.626 184.206 447.626 Z" fill="#000000" fill-rule="nonzero" fill-opacity="1" /><path clip-path="url(#clip820)" d="M205.855 429.822 Q202.921 429.822 201.436 432.718 Q199.969 435.596 199.969 441.388 Q199.969 447.162 201.436 450.059 Q202.921 452.936 205.855 452.936 Q208.808 452.936 210.275 450.059 Q211.761 447.162 211.761 441.388 Q211.761 435.596 210.275 432.718 Q208.808 429.822 205.855 429.822 M205.855 426.812 Q210.576 426.812 213.059 430.555 Q215.56 434.279 215.56 441.388 Q215.56 448.479 213.059 452.222 Q210.576 455.946 205.855 455.946 Q201.135 455.946 198.633 452.222 Q196.151 448.479 196.151 441.388 Q196.151 434.279 198.633 430.555 Q201.135 426.812 205.855 426.812 Z" fill="#000000" fill-rule="nonzero" fill-opacity="1" /><path clip-path="url(#clip820)" d="M222.237 450.623 L226.205 450.623 L226.205 455.4 L222.237 455.4 L222.237 450.623 Z" fill="#000000" fill-rule="nonzero" fill-opacity="1" /><path clip-path="url(#clip820)" d="M242.606 429.822 Q239.672 429.822 238.186 432.718 Q236.719 435.596 236.719 441.388 Q236.719 447.162 238.186 450.059 Q239.672 452.936 242.606 452.936 Q245.559 452.936 247.026 450.059 Q248.511 447.162 248.511 441.388 Q248.511 435.596 247.026 432.718 Q245.559 429.822 242.606 429.822 M242.606 426.812 Q247.327 426.812 249.809 430.555 Q252.311 434.279 252.311 441.388 Q252.311 448.479 249.809 452.222 Q247.327 455.946 242.606 455.946 Q237.885 455.946 235.384 452.222 Q232.901 448.479 232.901 441.388 Q232.901 434.279 235.384 430.555 Q237.885 426.812 242.606 426.812 Z" fill="#000000" fill-rule="nonzero" fill-opacity="1" /><path clip-path="url(#clip820)" d="M16.4842 840.023 L16.4842 833.593 L58.5933 833.593 L58.5933 810.454 L64.0042 810.454 L64.0042 840.023 L16.4842 840.023 Z" fill="#000000" fill-rule="nonzero" fill-opacity="1" /><path clip-path="url(#clip820)" d="M32.4621 791.293 Q32.4621 796.004 36.1542 798.741 Q39.8145 801.478 46.212 801.478 Q52.6095 801.478 56.3017 798.773 Q59.9619 796.036 59.9619 791.293 Q59.9619 786.614 56.2698 783.877 Q52.5777 781.14 46.212 781.14 Q39.8781 781.14 36.186 783.877 Q32.4621 786.614 32.4621 791.293 M27.4968 791.293 Q27.4968 783.654 32.4621 779.294 Q37.4273 774.933 46.212 774.933 Q54.9649 774.933 59.9619 779.294 Q64.9272 783.654 64.9272 791.293 Q64.9272 798.964 59.9619 803.324 Q54.9649 807.653 46.212 807.653 Q37.4273 807.653 32.4621 803.324 Q27.4968 798.964 27.4968 791.293 Z" fill="#000000" fill-rule="nonzero" fill-opacity="1" /><path clip-path="url(#clip820)" d="M29.4065 742.5 L34.9447 742.5 Q33.6716 744.983 33.035 747.656 Q32.3984 750.33 32.3984 753.194 Q32.3984 757.555 33.7352 759.751 Q35.072 761.915 37.7456 761.915 Q39.7826 761.915 40.9603 760.356 Q42.1061 758.796 43.1565 754.086 L43.6021 752.08 Q44.9389 745.842 47.3897 743.232 Q49.8086 740.59 54.1691 740.59 Q59.1344 740.59 62.0308 744.537 Q64.9272 748.452 64.9272 755.327 Q64.9272 758.192 64.3543 761.311 Q63.8132 764.398 62.6992 767.836 L56.6518 767.836 Q58.3387 764.589 59.198 761.438 Q60.0256 758.287 60.0256 755.2 Q60.0256 751.062 58.6251 748.834 Q57.1929 746.606 54.6147 746.606 Q52.2276 746.606 50.9545 748.229 Q49.6813 749.821 48.5037 755.263 L48.0262 757.3 Q46.8804 762.743 44.5251 765.162 Q42.138 767.581 38.0002 767.581 Q32.9713 767.581 30.2341 764.016 Q27.4968 760.451 27.4968 753.895 Q27.4968 750.648 27.9743 747.784 Q28.4517 744.919 29.4065 742.5 Z" fill="#000000" fill-rule="nonzero" fill-opacity="1" /><path clip-path="url(#clip820)" d="M29.4065 708.539 L34.9447 708.539 Q33.6716 711.022 33.035 713.695 Q32.3984 716.369 32.3984 719.233 Q32.3984 723.594 33.7352 725.79 Q35.072 727.954 37.7456 727.954 Q39.7826 727.954 40.9603 726.395 Q42.1061 724.835 43.1565 720.125 L43.6021 718.119 Q44.9389 711.881 47.3897 709.271 Q49.8086 706.629 54.1691 706.629 Q59.1344 706.629 62.0308 710.576 Q64.9272 714.491 64.9272 721.366 Q64.9272 724.23 64.3543 727.35 Q63.8132 730.437 62.6992 733.875 L56.6518 733.875 Q58.3387 730.628 59.198 727.477 Q60.0256 724.326 60.0256 721.239 Q60.0256 717.101 58.6251 714.873 Q57.1929 712.645 54.6147 712.645 Q52.2276 712.645 50.9545 714.268 Q49.6813 715.86 48.5037 721.302 L48.0262 723.339 Q46.8804 728.782 44.5251 731.201 Q42.138 733.62 38.0002 733.62 Q32.9713 733.62 30.2341 730.055 Q27.4968 726.49 27.4968 719.934 Q27.4968 716.687 27.9743 713.823 Q28.4517 710.958 29.4065 708.539 Z" fill="#000000" fill-rule="nonzero" fill-opacity="1" /><path clip-path="url(#clip820)" d="M1054.59 12.096 L1105.75 12.096 L1105.75 18.9825 L1084.28 18.9825 L1084.28 72.576 L1076.06 72.576 L1076.06 18.9825 L1054.59 18.9825 L1054.59 12.096 Z" fill="#000000" fill-rule="nonzero" fill-opacity="1" /><path clip-path="url(#clip820)" d="M1127.43 34.1734 Q1126.17 33.4443 1124.67 33.1202 Q1123.21 32.7556 1121.43 32.7556 Q1115.11 32.7556 1111.71 36.8875 Q1108.35 40.9789 1108.35 48.6757 L1108.35 72.576 L1100.85 72.576 L1100.85 27.2059 L1108.35 27.2059 L1108.35 34.2544 Q1110.7 30.1225 1114.46 28.1376 Q1118.23 26.1121 1123.62 26.1121 Q1124.39 26.1121 1125.32 26.2337 Q1126.25 26.3147 1127.39 26.5172 L1127.43 34.1734 Z" fill="#000000" fill-rule="nonzero" fill-opacity="1" /><path clip-path="url(#clip820)" d="M1155.86 49.7694 Q1146.83 49.7694 1143.35 51.8354 Q1139.86 53.9013 1139.86 58.8839 Q1139.86 62.8538 1142.46 65.2034 Q1145.09 67.5124 1149.59 67.5124 Q1155.78 67.5124 1159.51 63.1374 Q1163.28 58.7219 1163.28 51.4303 L1163.28 49.7694 L1155.86 49.7694 M1170.73 46.6907 L1170.73 72.576 L1163.28 72.576 L1163.28 65.6895 Q1160.73 69.8214 1156.92 71.8063 Q1153.11 73.7508 1147.6 73.7508 Q1140.63 73.7508 1136.5 69.8619 Q1132.41 65.9325 1132.41 59.3701 Q1132.41 51.7138 1137.51 47.825 Q1142.66 43.9361 1152.83 43.9361 L1163.28 43.9361 L1163.28 43.2069 Q1163.28 38.0623 1159.87 35.2672 Q1156.51 32.4315 1150.4 32.4315 Q1146.51 32.4315 1142.82 33.3632 Q1139.13 34.295 1135.73 36.1584 L1135.73 29.2718 Q1139.82 27.692 1143.67 26.9223 Q1147.52 26.1121 1151.16 26.1121 Q1161.01 26.1121 1165.87 31.2163 Q1170.73 36.3204 1170.73 46.6907 Z" fill="#000000" fill-rule="nonzero" fill-opacity="1" /><path clip-path="url(#clip820)" d="M1186.08 27.2059 L1193.54 27.2059 L1193.54 72.576 L1186.08 72.576 L1186.08 27.2059 M1186.08 9.54393 L1193.54 9.54393 L1193.54 18.9825 L1186.08 18.9825 L1186.08 9.54393 Z" fill="#000000" fill-rule="nonzero" fill-opacity="1" /><path clip-path="url(#clip820)" d="M1246.85 45.1919 L1246.85 72.576 L1239.39 72.576 L1239.39 45.4349 Q1239.39 38.994 1236.88 35.7938 Q1234.37 32.5936 1229.35 32.5936 Q1223.31 32.5936 1219.83 36.4419 Q1216.34 40.2903 1216.34 46.9338 L1216.34 72.576 L1208.85 72.576 L1208.85 27.2059 L1216.34 27.2059 L1216.34 34.2544 Q1219.02 30.163 1222.62 28.1376 Q1226.27 26.1121 1231.01 26.1121 Q1238.83 26.1121 1242.84 30.9732 Q1246.85 35.7938 1246.85 45.1919 Z" fill="#000000" fill-rule="nonzero" fill-opacity="1" /><path clip-path="url(#clip820)" d="M1261.71 27.2059 L1269.17 27.2059 L1269.17 72.576 L1261.71 72.576 L1261.71 27.2059 M1261.71 9.54393 L1269.17 9.54393 L1269.17 18.9825 L1261.71 18.9825 L1261.71 9.54393 Z" fill="#000000" fill-rule="nonzero" fill-opacity="1" /><path clip-path="url(#clip820)" d="M1322.48 45.1919 L1322.48 72.576 L1315.02 72.576 L1315.02 45.4349 Q1315.02 38.994 1312.51 35.7938 Q1310 32.5936 1304.98 32.5936 Q1298.94 32.5936 1295.46 36.4419 Q1291.97 40.2903 1291.97 46.9338 L1291.97 72.576 L1284.48 72.576 L1284.48 27.2059 L1291.97 27.2059 L1291.97 34.2544 Q1294.65 30.163 1298.25 28.1376 Q1301.9 26.1121 1306.64 26.1121 Q1314.46 26.1121 1318.47 30.9732 Q1322.48 35.7938 1322.48 45.1919 Z" fill="#000000" fill-rule="nonzero" fill-opacity="1" /><path clip-path="url(#clip820)" d="M1367.2 49.3643 Q1367.2 41.2625 1363.84 36.8065 Q1360.52 32.3505 1354.48 32.3505 Q1348.48 32.3505 1345.12 36.8065 Q1341.8 41.2625 1341.8 49.3643 Q1341.8 57.4256 1345.12 61.8816 Q1348.48 66.3376 1354.48 66.3376 Q1360.52 66.3376 1363.84 61.8816 Q1367.2 57.4256 1367.2 49.3643 M1374.65 66.9452 Q1374.65 78.5308 1369.51 84.1616 Q1364.36 89.8329 1353.75 89.8329 Q1349.82 89.8329 1346.34 89.2252 Q1342.85 88.6581 1339.57 87.4428 L1339.57 80.1917 Q1342.85 81.9741 1346.05 82.8248 Q1349.25 83.6755 1352.58 83.6755 Q1359.91 83.6755 1363.55 79.8271 Q1367.2 76.0193 1367.2 68.282 L1367.2 64.5957 Q1364.89 68.6061 1361.29 70.5911 Q1357.68 72.576 1352.66 72.576 Q1344.31 72.576 1339.21 66.2161 Q1334.1 59.8562 1334.1 49.3643 Q1334.1 38.832 1339.21 32.472 Q1344.31 26.1121 1352.66 26.1121 Q1357.68 26.1121 1361.29 28.0971 Q1364.89 30.082 1367.2 34.0924 L1367.2 27.2059 L1374.65 27.2059 L1374.65 66.9452 Z" fill="#000000" fill-rule="nonzero" fill-opacity="1" /><path clip-path="url(#clip820)" d="M1416.7 12.096 L1424.88 12.096 L1424.88 65.6895 L1454.33 65.6895 L1454.33 72.576 L1416.7 72.576 L1416.7 12.096 Z" fill="#000000" fill-rule="nonzero" fill-opacity="1" /><path clip-path="url(#clip820)" d="M1478.72 32.4315 Q1472.73 32.4315 1469.24 37.1306 Q1465.76 41.7891 1465.76 49.9314 Q1465.76 58.0738 1469.2 62.7728 Q1472.69 67.4314 1478.72 67.4314 Q1484.68 67.4314 1488.16 62.7323 Q1491.64 58.0333 1491.64 49.9314 Q1491.64 41.8701 1488.16 37.1711 Q1484.68 32.4315 1478.72 32.4315 M1478.72 26.1121 Q1488.44 26.1121 1493.99 32.4315 Q1499.54 38.7509 1499.54 49.9314 Q1499.54 61.0714 1493.99 67.4314 Q1488.44 73.7508 1478.72 73.7508 Q1468.96 73.7508 1463.41 67.4314 Q1457.9 61.0714 1457.9 49.9314 Q1457.9 38.7509 1463.41 32.4315 Q1468.96 26.1121 1478.72 26.1121 Z" fill="#000000" fill-rule="nonzero" fill-opacity="1" /><path clip-path="url(#clip820)" d="M1540.82 28.5427 L1540.82 35.5912 Q1537.66 33.9709 1534.26 33.1607 Q1530.86 32.3505 1527.21 32.3505 Q1521.66 32.3505 1518.87 34.0519 Q1516.11 35.7533 1516.11 39.156 Q1516.11 41.7486 1518.1 43.2475 Q1520.08 44.7058 1526.08 46.0426 L1528.63 46.6097 Q1536.57 48.3111 1539.89 51.4303 Q1543.25 54.509 1543.25 60.0587 Q1543.25 66.3781 1538.23 70.0644 Q1533.25 73.7508 1524.5 73.7508 Q1520.85 73.7508 1516.88 73.0216 Q1512.95 72.3329 1508.58 70.9151 L1508.58 63.2184 Q1512.71 65.3654 1516.72 66.4591 Q1520.73 67.5124 1524.66 67.5124 Q1529.92 67.5124 1532.76 65.73 Q1535.6 63.9071 1535.6 60.6258 Q1535.6 57.5877 1533.53 55.9673 Q1531.5 54.3469 1524.58 52.8481 L1521.98 52.2405 Q1515.06 50.7821 1511.98 47.7845 Q1508.9 44.7463 1508.9 39.4801 Q1508.9 33.0797 1513.44 29.5959 Q1517.97 26.1121 1526.32 26.1121 Q1530.45 26.1121 1534.1 26.7198 Q1537.74 27.3274 1540.82 28.5427 Z" fill="#000000" fill-rule="nonzero" fill-opacity="1" /><path clip-path="url(#clip820)" d="M1584.04 28.5427 L1584.04 35.5912 Q1580.88 33.9709 1577.48 33.1607 Q1574.08 32.3505 1570.43 32.3505 Q1564.88 32.3505 1562.09 34.0519 Q1559.33 35.7533 1559.33 39.156 Q1559.33 41.7486 1561.32 43.2475 Q1563.3 44.7058 1569.3 46.0426 L1571.85 46.6097 Q1579.79 48.3111 1583.11 51.4303 Q1586.48 54.509 1586.48 60.0587 Q1586.48 66.3781 1581.45 70.0644 Q1576.47 73.7508 1567.72 73.7508 Q1564.07 73.7508 1560.1 73.0216 Q1556.17 72.3329 1551.8 70.9151 L1551.8 63.2184 Q1555.93 65.3654 1559.94 66.4591 Q1563.95 67.5124 1567.88 67.5124 Q1573.15 67.5124 1575.98 65.73 Q1578.82 63.9071 1578.82 60.6258 Q1578.82 57.5877 1576.75 55.9673 Q1574.73 54.3469 1567.8 52.8481 L1565.21 52.2405 Q1558.28 50.7821 1555.2 47.7845 Q1552.12 44.7463 1552.12 39.4801 Q1552.12 33.0797 1556.66 29.5959 Q1561.2 26.1121 1569.54 26.1121 Q1573.67 26.1121 1577.32 26.7198 Q1580.97 27.3274 1584.04 28.5427 Z" fill="#000000" fill-rule="nonzero" fill-opacity="1" /><polyline clip-path="url(#clip821)" style="stroke:#009af9; stroke-linecap:round; stroke-linejoin:round; stroke-width:4; stroke-opacity:1; fill:none" points="346.738,251.876 353.23,160.256 359.722,171.341 366.214,239.896 372.706,258.384 379.198,272.093 385.69,281.375 392.182,289.291 398.674,297.642 405.166,302.111 411.658,306.974 418.15,319.925 424.642,353.669 431.134,416.783 437.626,465.354 444.118,489.449 450.61,499.861 457.102,500.175 463.594,510.186 470.086,523.968 476.578,538.478 483.07,551.672 489.562,553.709 496.054,564.352 502.546,577.947 509.037,589.375 515.529,597.799 522.021,599.746 528.513,606.04 535.005,619.089 541.497,630.465 547.989,630.814 554.481,630.48 560.973,633.802 567.465,648.797 573.957,641.853 580.449,647.989 586.941,661.717 593.433,659.189 599.925,661.408 606.417,672.019 612.909,673.144 619.401,682.271 625.893,680.655 632.385,677.675 638.877,705.114 645.369,698.017 651.861,685.746 658.353,683.463 664.845,701.18 671.337,715.32 677.829,709.394 684.321,711.698 690.813,720.414 697.305,758.82 703.796,736.109 710.288,734.705 716.78,759.013 723.272,733.573 729.764,769.224 736.256,762.319 742.748,765.78 749.24,781.22 755.732,778.982 762.224,771.524 768.716,777.218 775.208,812.895 781.7,788.263 788.192,812.285 794.684,807.144 801.176,839.692 807.668,829.755 814.16,795.689 820.652,861.796 827.144,805.512 833.636,822.271 840.128,828.738 846.62,819.391 853.112,856.262 859.604,865.306 866.096,846.095 872.588,848.933 879.08,891.283 885.572,868.808 892.063,891.34 898.555,881.944 905.047,845.29 911.539,864.598 918.031,869.797 924.523,854.423 931.015,877.528 937.507,888.597 943.999,886.274 950.491,866.537 956.983,858.876 963.475,896.141 969.967,927.968 976.459,867.34 982.951,871.507 989.443,886.095 995.935,854.009 1002.43,847.351 1008.92,897 1015.41,869.4 1021.9,912.218 1028.39,918.332 1034.89,863.25 1041.38,899.083 1047.87,857.05 1054.36,894.198 1060.85,928.851 1067.35,869.772 1073.84,950.977 1080.33,885.099 1086.82,893.692 1093.31,995.002 1099.81,910.789 1106.3,903.579 1112.79,873.523 1119.28,861.645 1125.77,962.614 1132.27,892.151 1138.76,914.595 1145.25,865.569 1151.74,894.097 1158.23,898.959 1164.73,915.93 1171.22,941.845 1177.71,867.476 1184.2,979.86 1190.69,942.771 1197.19,916.123 1203.68,921.649 1210.17,910.166 1216.66,919.095 1223.15,983.142 1229.65,880.524 1236.14,946.991 1242.63,1015.78 1249.12,928.158 1255.61,910.175 1262.11,836.36 1268.6,918.521 1275.09,912.467 1281.58,882.758 1288.07,957.141 1294.57,928.736 1301.06,839.028 1307.55,895.638 1314.04,907.51 1320.53,938.241 1327.03,928.983 1333.52,980.884 1340.01,917.786 1346.5,1008.13 1352.99,918.208 1359.49,867.936 1365.98,888.902 1372.47,939.124 1378.96,861.033 1385.45,960.652 1391.94,952.715 1398.44,937.672 1404.93,999.518 1411.42,872.143 1417.91,992.355 1424.4,900.332 1430.9,947.612 1437.39,941.136 1443.88,966.84 1450.37,897.057 1456.86,955.458 1463.36,963.701 1469.85,1050.63 1476.34,1191.09 1482.83,966.906 1489.32,928.735 1495.82,1170.39 1502.31,1001.87 1508.8,958.233 1515.29,1034.89 1521.78,941.266 1528.28,920.145 1534.77,995.383 1541.26,971.07 1547.75,875.331 1554.24,999.658 1560.74,900.139 1567.23,945.959 1573.72,880.971 1580.21,925.971 1586.7,936.515 1593.2,1022.06 1599.69,934.222 1606.18,919.286 1612.67,940.521 1619.16,925.294 1625.66,935.96 1632.15,976.152 1638.64,996.684 1645.13,1111.72 1651.62,953.354 1658.12,899.449 1664.61,956.924 1671.1,914.127 1677.59,904.013 1684.08,916.871 1690.58,882.253 1697.07,963.81 1703.56,929.391 1710.05,955.484 1716.54,1066.08 1723.04,897.447 1729.53,1386.4 1736.02,942.312 1742.51,922.99 1749,909.687 1755.5,921.564 1761.99,898.272 1768.48,978.114 1774.97,944.696 1781.46,1026.06 1787.95,962.362 1794.45,953.613 1800.94,963.02 1807.43,932.661 1813.92,927.311 1820.41,996.859 1826.91,943.503 1833.4,907.799 1839.89,894.027 1846.38,896.313 1852.87,956.56 1859.37,1024.91 1865.86,927.219 1872.35,1028.91 1878.84,927.506 1885.33,965.486 1891.83,925.051 1898.32,982.459 1904.81,972.51 1911.3,887.447 1917.79,941.468 1924.29,901.494 1930.78,959.85 1937.27,900.318 1943.76,984.927 1950.25,990.53 1956.75,986.971 1963.24,1022.84 1969.73,1024.86 1976.22,1146.77 1982.71,1169.05 1989.21,963.545 1995.7,958.09 2002.19,955.644 2008.68,929.816 2015.17,997.451 2021.67,972.189 2028.16,1010.86 2034.65,951.995 2041.14,942.711 2047.63,928.716 2054.13,1001.91 2060.62,920.031 2067.11,1081.91 2073.6,1157.34 2080.09,1114.68 2086.59,958.276 2093.08,954.677 2099.57,967.289 2106.06,962.686 2112.55,950.411 2119.05,941.966 2125.54,972.545 2132.03,900.888 2138.52,952.187 2145.01,995.281 2151.5,937.26 2158,898.126 2164.49,914.717 2170.98,959.656 2177.47,888.274 2183.96,1016.81 2190.46,1005.56 2196.95,965.661 2203.44,999.537 2209.93,970.491 2216.42,937.96 2222.92,1003.77 2229.41,1053.27 2235.9,925.539 2242.39,965.536 2248.88,984.238 2255.38,1123.52 2261.87,903.431 2268.36,960.429 2274.85,939.534 2281.34,1060.07 2287.84,940.813 2294.33,934.289 "/>
</svg>
