<?xml version="1.0" encoding="utf-8"?>
<svg xmlns="http://www.w3.org/2000/svg" xmlns:xlink="http://www.w3.org/1999/xlink" width="600" height="400" viewBox="0 0 2400 1600">
<defs>
  <clipPath id="clip550">
    <rect x="0" y="0" width="2400" height="1600"/>
  </clipPath>
</defs>
<path clip-path="url(#clip550)" d="M0 1600 L2400 1600 L2400 0 L0 0  Z" fill="#ffffff" fill-rule="evenodd" fill-opacity="1"/>
<defs>
  <clipPath id="clip551">
    <rect x="288" y="123" width="2065" height="1301"/>
  </clipPath>
</defs>
<path clip-path="url(#clip550)" d="M288.311 1423.18 L2352.76 1423.18 L2352.76 123.472 L288.311 123.472  Z" fill="#ffffff" fill-rule="evenodd" fill-opacity="1"/>
<polyline clip-path="url(#clip551)" style="stroke:#000000; stroke-linecap:round; stroke-linejoin:round; stroke-width:2; stroke-opacity:0.1; fill:none" points="336.295,1423.18 336.295,123.472 "/>
<polyline clip-path="url(#clip551)" style="stroke:#000000; stroke-linecap:round; stroke-linejoin:round; stroke-width:2; stroke-opacity:0.1; fill:none" points="858.438,1423.18 858.438,123.472 "/>
<polyline clip-path="url(#clip551)" style="stroke:#000000; stroke-linecap:round; stroke-linejoin:round; stroke-width:2; stroke-opacity:0.1; fill:none" points="1380.58,1423.18 1380.58,123.472 "/>
<polyline clip-path="url(#clip551)" style="stroke:#000000; stroke-linecap:round; stroke-linejoin:round; stroke-width:2; stroke-opacity:0.1; fill:none" points="1902.72,1423.18 1902.72,123.472 "/>
<polyline clip-path="url(#clip551)" style="stroke:#000000; stroke-linecap:round; stroke-linejoin:round; stroke-width:2; stroke-opacity:0.1; fill:none" points="288.311,956.826 2352.76,956.826 "/>
<polyline clip-path="url(#clip551)" style="stroke:#000000; stroke-linecap:round; stroke-linejoin:round; stroke-width:2; stroke-opacity:0.1; fill:none" points="288.311,459.083 2352.76,459.083 "/>
<polyline clip-path="url(#clip550)" style="stroke:#000000; stroke-linecap:round; stroke-linejoin:round; stroke-width:4; stroke-opacity:1; fill:none" points="288.311,1423.18 2352.76,1423.18 "/>
<polyline clip-path="url(#clip550)" style="stroke:#000000; stroke-linecap:round; stroke-linejoin:round; stroke-width:4; stroke-opacity:1; fill:none" points="336.295,1423.18 336.295,1404.28 "/>
<polyline clip-path="url(#clip550)" style="stroke:#000000; stroke-linecap:round; stroke-linejoin:round; stroke-width:4; stroke-opacity:1; fill:none" points="858.438,1423.18 858.438,1404.28 "/>
<polyline clip-path="url(#clip550)" style="stroke:#000000; stroke-linecap:round; stroke-linejoin:round; stroke-width:4; stroke-opacity:1; fill:none" points="1380.58,1423.18 1380.58,1404.28 "/>
<polyline clip-path="url(#clip550)" style="stroke:#000000; stroke-linecap:round; stroke-linejoin:round; stroke-width:4; stroke-opacity:1; fill:none" points="1902.72,1423.18 1902.72,1404.28 "/>
<path clip-path="url(#clip550)" d="M336.295 1454.1 Q332.684 1454.1 330.856 1457.66 Q329.05 1461.2 329.05 1468.33 Q329.05 1475.44 330.856 1479.01 Q332.684 1482.55 336.295 1482.55 Q339.93 1482.55 341.735 1479.01 Q343.564 1475.44 343.564 1468.33 Q343.564 1461.2 341.735 1457.66 Q339.93 1454.1 336.295 1454.1 M336.295 1450.39 Q342.106 1450.39 345.161 1455 Q348.24 1459.58 348.24 1468.33 Q348.24 1477.06 345.161 1481.67 Q342.106 1486.25 336.295 1486.25 Q330.485 1486.25 327.407 1481.67 Q324.351 1477.06 324.351 1468.33 Q324.351 1459.58 327.407 1455 Q330.485 1450.39 336.295 1450.39 Z" fill="#000000" fill-rule="nonzero" fill-opacity="1" /><path clip-path="url(#clip550)" d="M818.044 1481.64 L825.683 1481.64 L825.683 1455.28 L817.373 1456.95 L817.373 1452.69 L825.637 1451.02 L830.313 1451.02 L830.313 1481.64 L837.952 1481.64 L837.952 1485.58 L818.044 1485.58 L818.044 1481.64 Z" fill="#000000" fill-rule="nonzero" fill-opacity="1" /><path clip-path="url(#clip550)" d="M857.396 1454.1 Q853.785 1454.1 851.956 1457.66 Q850.151 1461.2 850.151 1468.33 Q850.151 1475.44 851.956 1479.01 Q853.785 1482.55 857.396 1482.55 Q861.03 1482.55 862.836 1479.01 Q864.664 1475.44 864.664 1468.33 Q864.664 1461.2 862.836 1457.66 Q861.03 1454.1 857.396 1454.1 M857.396 1450.39 Q863.206 1450.39 866.262 1455 Q869.34 1459.58 869.34 1468.33 Q869.34 1477.06 866.262 1481.67 Q863.206 1486.25 857.396 1486.25 Q851.586 1486.25 848.507 1481.67 Q845.452 1477.06 845.452 1468.33 Q845.452 1459.58 848.507 1455 Q851.586 1450.39 857.396 1450.39 Z" fill="#000000" fill-rule="nonzero" fill-opacity="1" /><path clip-path="url(#clip550)" d="M887.558 1454.1 Q883.947 1454.1 882.118 1457.66 Q880.312 1461.2 880.312 1468.33 Q880.312 1475.44 882.118 1479.01 Q883.947 1482.55 887.558 1482.55 Q891.192 1482.55 892.998 1479.01 Q894.826 1475.44 894.826 1468.33 Q894.826 1461.2 892.998 1457.66 Q891.192 1454.1 887.558 1454.1 M887.558 1450.39 Q893.368 1450.39 896.423 1455 Q899.502 1459.58 899.502 1468.33 Q899.502 1477.06 896.423 1481.67 Q893.368 1486.25 887.558 1486.25 Q881.748 1486.25 878.669 1481.67 Q875.613 1477.06 875.613 1468.33 Q875.613 1459.58 878.669 1455 Q881.748 1450.39 887.558 1450.39 Z" fill="#000000" fill-rule="nonzero" fill-opacity="1" /><path clip-path="url(#clip550)" d="M1344.27 1481.64 L1360.59 1481.64 L1360.59 1485.58 L1338.65 1485.58 L1338.65 1481.64 Q1341.31 1478.89 1345.89 1474.26 Q1350.5 1469.61 1351.68 1468.27 Q1353.92 1465.74 1354.8 1464.01 Q1355.71 1462.25 1355.71 1460.56 Q1355.71 1457.8 1353.76 1456.07 Q1351.84 1454.33 1348.74 1454.33 Q1346.54 1454.33 1344.09 1455.09 Q1341.66 1455.86 1338.88 1457.41 L1338.88 1452.69 Q1341.7 1451.55 1344.16 1450.97 Q1346.61 1450.39 1348.65 1450.39 Q1354.02 1450.39 1357.21 1453.08 Q1360.41 1455.77 1360.41 1460.26 Q1360.41 1462.39 1359.6 1464.31 Q1358.81 1466.2 1356.7 1468.8 Q1356.12 1469.47 1353.02 1472.69 Q1349.92 1475.88 1344.27 1481.64 Z" fill="#000000" fill-rule="nonzero" fill-opacity="1" /><path clip-path="url(#clip550)" d="M1380.41 1454.1 Q1376.79 1454.1 1374.97 1457.66 Q1373.16 1461.2 1373.16 1468.33 Q1373.16 1475.44 1374.97 1479.01 Q1376.79 1482.55 1380.41 1482.55 Q1384.04 1482.55 1385.85 1479.01 Q1387.67 1475.44 1387.67 1468.33 Q1387.67 1461.2 1385.85 1457.66 Q1384.04 1454.1 1380.41 1454.1 M1380.41 1450.39 Q1386.22 1450.39 1389.27 1455 Q1392.35 1459.58 1392.35 1468.33 Q1392.35 1477.06 1389.27 1481.67 Q1386.22 1486.25 1380.41 1486.25 Q1374.6 1486.25 1371.52 1481.67 Q1368.46 1477.06 1368.46 1468.33 Q1368.46 1459.58 1371.52 1455 Q1374.6 1450.39 1380.41 1450.39 Z" fill="#000000" fill-rule="nonzero" fill-opacity="1" /><path clip-path="url(#clip550)" d="M1410.57 1454.1 Q1406.96 1454.1 1405.13 1457.66 Q1403.32 1461.2 1403.32 1468.33 Q1403.32 1475.44 1405.13 1479.01 Q1406.96 1482.55 1410.57 1482.55 Q1414.2 1482.55 1416.01 1479.01 Q1417.84 1475.44 1417.84 1468.33 Q1417.84 1461.2 1416.01 1457.66 Q1414.2 1454.1 1410.57 1454.1 M1410.57 1450.39 Q1416.38 1450.39 1419.43 1455 Q1422.51 1459.58 1422.51 1468.33 Q1422.51 1477.06 1419.43 1481.67 Q1416.38 1486.25 1410.57 1486.25 Q1404.76 1486.25 1401.68 1481.67 Q1398.62 1477.06 1398.62 1468.33 Q1398.62 1459.58 1401.68 1455 Q1404.76 1450.39 1410.57 1450.39 Z" fill="#000000" fill-rule="nonzero" fill-opacity="1" /><path clip-path="url(#clip550)" d="M1876.48 1466.95 Q1879.84 1467.66 1881.71 1469.93 Q1883.61 1472.2 1883.61 1475.53 Q1883.61 1480.65 1880.09 1483.45 Q1876.58 1486.25 1870.09 1486.25 Q1867.92 1486.25 1865.6 1485.81 Q1863.31 1485.39 1860.86 1484.54 L1860.86 1480.02 Q1862.8 1481.16 1865.12 1481.74 Q1867.43 1482.32 1869.96 1482.32 Q1874.35 1482.32 1876.65 1480.58 Q1878.96 1478.84 1878.96 1475.53 Q1878.96 1472.48 1876.81 1470.77 Q1874.68 1469.03 1870.86 1469.03 L1866.83 1469.03 L1866.83 1465.19 L1871.04 1465.19 Q1874.49 1465.19 1876.32 1463.82 Q1878.15 1462.43 1878.15 1459.84 Q1878.15 1457.18 1876.25 1455.77 Q1874.38 1454.33 1870.86 1454.33 Q1868.94 1454.33 1866.74 1454.75 Q1864.54 1455.16 1861.9 1456.04 L1861.9 1451.88 Q1864.56 1451.14 1866.88 1450.77 Q1869.21 1450.39 1871.28 1450.39 Q1876.6 1450.39 1879.7 1452.83 Q1882.8 1455.23 1882.8 1459.35 Q1882.8 1462.22 1881.16 1464.21 Q1879.52 1466.18 1876.48 1466.95 Z" fill="#000000" fill-rule="nonzero" fill-opacity="1" /><path clip-path="url(#clip550)" d="M1902.48 1454.1 Q1898.87 1454.1 1897.04 1457.66 Q1895.23 1461.2 1895.23 1468.33 Q1895.23 1475.44 1897.04 1479.01 Q1898.87 1482.55 1902.48 1482.55 Q1906.11 1482.55 1907.92 1479.01 Q1909.75 1475.44 1909.75 1468.33 Q1909.75 1461.2 1907.92 1457.66 Q1906.11 1454.1 1902.48 1454.1 M1902.48 1450.39 Q1908.29 1450.39 1911.34 1455 Q1914.42 1459.58 1914.42 1468.33 Q1914.42 1477.06 1911.34 1481.67 Q1908.29 1486.25 1902.48 1486.25 Q1896.67 1486.25 1893.59 1481.67 Q1890.53 1477.06 1890.53 1468.33 Q1890.53 1459.58 1893.59 1455 Q1896.67 1450.39 1902.48 1450.39 Z" fill="#000000" fill-rule="nonzero" fill-opacity="1" /><path clip-path="url(#clip550)" d="M1932.64 1454.1 Q1929.03 1454.1 1927.2 1457.66 Q1925.4 1461.2 1925.4 1468.33 Q1925.4 1475.44 1927.2 1479.01 Q1929.03 1482.55 1932.64 1482.55 Q1936.27 1482.55 1938.08 1479.01 Q1939.91 1475.44 1939.91 1468.33 Q1939.91 1461.2 1938.08 1457.66 Q1936.27 1454.1 1932.64 1454.1 M1932.64 1450.39 Q1938.45 1450.39 1941.51 1455 Q1944.58 1459.58 1944.58 1468.33 Q1944.58 1477.06 1941.51 1481.67 Q1938.45 1486.25 1932.64 1486.25 Q1926.83 1486.25 1923.75 1481.67 Q1920.7 1477.06 1920.7 1468.33 Q1920.7 1459.58 1923.75 1455 Q1926.83 1450.39 1932.64 1450.39 Z" fill="#000000" fill-rule="nonzero" fill-opacity="1" /><path clip-path="url(#clip550)" d="M1188.25 1520.52 L1194.68 1520.52 L1194.68 1568.04 L1188.25 1568.04 L1188.25 1520.52 Z" fill="#000000" fill-rule="nonzero" fill-opacity="1" /><path clip-path="url(#clip550)" d="M1213.02 1522.27 L1213.02 1532.4 L1225.08 1532.4 L1225.08 1536.95 L1213.02 1536.95 L1213.02 1556.3 Q1213.02 1560.66 1214.19 1561.9 Q1215.4 1563.14 1219.06 1563.14 L1225.08 1563.14 L1225.08 1568.04 L1219.06 1568.04 Q1212.28 1568.04 1209.71 1565.53 Q1207.13 1562.98 1207.13 1556.3 L1207.13 1536.95 L1202.83 1536.95 L1202.83 1532.4 L1207.13 1532.4 L1207.13 1522.27 L1213.02 1522.27 Z" fill="#000000" fill-rule="nonzero" fill-opacity="1" /><path clip-path="url(#clip550)" d="M1263.27 1548.76 L1263.27 1551.62 L1236.35 1551.62 Q1236.73 1557.67 1239.98 1560.85 Q1243.25 1564 1249.08 1564 Q1252.45 1564 1255.6 1563.17 Q1258.79 1562.35 1261.91 1560.69 L1261.91 1566.23 Q1258.75 1567.57 1255.44 1568.27 Q1252.13 1568.97 1248.73 1568.97 Q1240.2 1568.97 1235.2 1564 Q1230.24 1559.04 1230.24 1550.57 Q1230.24 1541.82 1234.95 1536.69 Q1239.69 1531.54 1247.71 1531.54 Q1254.9 1531.54 1259.07 1536.18 Q1263.27 1540.8 1263.27 1548.76 M1257.42 1547.04 Q1257.35 1542.23 1254.71 1539.37 Q1252.1 1536.5 1247.77 1536.5 Q1242.87 1536.5 1239.91 1539.27 Q1236.98 1542.04 1236.54 1547.07 L1257.42 1547.04 Z" fill="#000000" fill-rule="nonzero" fill-opacity="1" /><path clip-path="url(#clip550)" d="M1293.54 1537.87 Q1292.56 1537.3 1291.38 1537.04 Q1290.23 1536.76 1288.83 1536.76 Q1283.87 1536.76 1281.19 1540 Q1278.55 1543.22 1278.55 1549.27 L1278.55 1568.04 L1272.66 1568.04 L1272.66 1532.4 L1278.55 1532.4 L1278.55 1537.93 Q1280.4 1534.69 1283.36 1533.13 Q1286.32 1531.54 1290.55 1531.54 Q1291.16 1531.54 1291.89 1531.63 Q1292.62 1531.7 1293.51 1531.85 L1293.54 1537.87 Z" fill="#000000" fill-rule="nonzero" fill-opacity="1" /><path clip-path="url(#clip550)" d="M1315.89 1550.12 Q1308.79 1550.12 1306.05 1551.75 Q1303.31 1553.37 1303.31 1557.29 Q1303.31 1560.4 1305.35 1562.25 Q1307.42 1564.07 1310.95 1564.07 Q1315.82 1564.07 1318.75 1560.63 Q1321.71 1557.16 1321.71 1551.43 L1321.71 1550.12 L1315.89 1550.12 M1327.57 1547.71 L1327.57 1568.04 L1321.71 1568.04 L1321.71 1562.63 Q1319.71 1565.88 1316.71 1567.44 Q1313.72 1568.97 1309.39 1568.97 Q1303.92 1568.97 1300.67 1565.91 Q1297.46 1562.82 1297.46 1557.67 Q1297.46 1551.65 1301.47 1548.6 Q1305.51 1545.54 1313.5 1545.54 L1321.71 1545.54 L1321.71 1544.97 Q1321.71 1540.93 1319.04 1538.73 Q1316.4 1536.5 1311.59 1536.5 Q1308.53 1536.5 1305.64 1537.23 Q1302.74 1537.97 1300.07 1539.43 L1300.07 1534.02 Q1303.28 1532.78 1306.31 1532.17 Q1309.33 1531.54 1312.19 1531.54 Q1319.93 1531.54 1323.75 1535.55 Q1327.57 1539.56 1327.57 1547.71 Z" fill="#000000" fill-rule="nonzero" fill-opacity="1" /><path clip-path="url(#clip550)" d="M1345.42 1522.27 L1345.42 1532.4 L1357.49 1532.4 L1357.49 1536.95 L1345.42 1536.95 L1345.42 1556.3 Q1345.42 1560.66 1346.6 1561.9 Q1347.81 1563.14 1351.47 1563.14 L1357.49 1563.14 L1357.49 1568.04 L1351.47 1568.04 Q1344.69 1568.04 1342.11 1565.53 Q1339.53 1562.98 1339.53 1556.3 L1339.53 1536.95 L1335.24 1536.95 L1335.24 1532.4 L1339.53 1532.4 L1339.53 1522.27 L1345.42 1522.27 Z" fill="#000000" fill-rule="nonzero" fill-opacity="1" /><path clip-path="url(#clip550)" d="M1365.19 1532.4 L1371.05 1532.4 L1371.05 1568.04 L1365.19 1568.04 L1365.19 1532.4 M1365.19 1518.52 L1371.05 1518.52 L1371.05 1525.93 L1365.19 1525.93 L1365.19 1518.52 Z" fill="#000000" fill-rule="nonzero" fill-opacity="1" /><path clip-path="url(#clip550)" d="M1397.11 1536.5 Q1392.4 1536.5 1389.66 1540.19 Q1386.93 1543.85 1386.93 1550.25 Q1386.93 1556.65 1389.63 1560.34 Q1392.37 1564 1397.11 1564 Q1401.79 1564 1404.53 1560.31 Q1407.27 1556.62 1407.27 1550.25 Q1407.27 1543.92 1404.53 1540.23 Q1401.79 1536.5 1397.11 1536.5 M1397.11 1531.54 Q1404.75 1531.54 1409.11 1536.5 Q1413.47 1541.47 1413.47 1550.25 Q1413.47 1559 1409.11 1564 Q1404.75 1568.97 1397.11 1568.97 Q1389.44 1568.97 1385.08 1564 Q1380.75 1559 1380.75 1550.25 Q1380.75 1541.47 1385.08 1536.5 Q1389.44 1531.54 1397.11 1531.54 Z" fill="#000000" fill-rule="nonzero" fill-opacity="1" /><path clip-path="url(#clip550)" d="M1452.81 1546.53 L1452.81 1568.04 L1446.96 1568.04 L1446.96 1546.72 Q1446.96 1541.66 1444.98 1539.14 Q1443.01 1536.63 1439.06 1536.63 Q1434.32 1536.63 1431.58 1539.65 Q1428.85 1542.68 1428.85 1547.9 L1428.85 1568.04 L1422.96 1568.04 L1422.96 1532.4 L1428.85 1532.4 L1428.85 1537.93 Q1430.95 1534.72 1433.78 1533.13 Q1436.64 1531.54 1440.37 1531.54 Q1446.51 1531.54 1449.66 1535.36 Q1452.81 1539.14 1452.81 1546.53 Z" fill="#000000" fill-rule="nonzero" fill-opacity="1" /><polyline clip-path="url(#clip550)" style="stroke:#000000; stroke-linecap:round; stroke-linejoin:round; stroke-width:4; stroke-opacity:1; fill:none" points="288.311,1423.18 288.311,123.472 "/>
<polyline clip-path="url(#clip550)" style="stroke:#000000; stroke-linecap:round; stroke-linejoin:round; stroke-width:4; stroke-opacity:1; fill:none" points="288.311,956.826 307.208,956.826 "/>
<polyline clip-path="url(#clip550)" style="stroke:#000000; stroke-linecap:round; stroke-linejoin:round; stroke-width:4; stroke-opacity:1; fill:none" points="288.311,459.083 307.208,459.083 "/>
<path clip-path="url(#clip550)" d="M114.931 976.618 L122.57 976.618 L122.57 950.253 L114.26 951.919 L114.26 947.66 L122.524 945.994 L127.2 945.994 L127.2 976.618 L134.839 976.618 L134.839 980.554 L114.931 980.554 L114.931 976.618 Z" fill="#000000" fill-rule="nonzero" fill-opacity="1" /><path clip-path="url(#clip550)" d="M154.283 949.072 Q150.672 949.072 148.843 952.637 Q147.038 956.179 147.038 963.308 Q147.038 970.415 148.843 973.98 Q150.672 977.521 154.283 977.521 Q157.917 977.521 159.723 973.98 Q161.552 970.415 161.552 963.308 Q161.552 956.179 159.723 952.637 Q157.917 949.072 154.283 949.072 M154.283 945.369 Q160.093 945.369 163.149 949.975 Q166.227 954.558 166.227 963.308 Q166.227 972.035 163.149 976.642 Q160.093 981.225 154.283 981.225 Q148.473 981.225 145.394 976.642 Q142.339 972.035 142.339 963.308 Q142.339 954.558 145.394 949.975 Q148.473 945.369 154.283 945.369 Z" fill="#000000" fill-rule="nonzero" fill-opacity="1" /><path clip-path="url(#clip550)" d="M166.227 939.47 L190.339 939.47 L190.339 942.667 L166.227 942.667 L166.227 939.47 Z" fill="#000000" fill-rule="nonzero" fill-opacity="1" /><path clip-path="url(#clip550)" d="M201.812 949.946 L215.071 949.946 L215.071 953.143 L197.241 953.143 L197.241 949.946 Q199.404 947.708 203.128 943.946 Q206.871 940.166 207.83 939.075 Q209.655 937.025 210.369 935.614 Q211.103 934.185 211.103 932.812 Q211.103 930.574 209.523 929.163 Q207.962 927.753 205.442 927.753 Q203.655 927.753 201.661 928.373 Q199.686 928.994 197.43 930.254 L197.43 926.417 Q199.724 925.496 201.718 925.026 Q203.711 924.555 205.366 924.555 Q209.73 924.555 212.325 926.737 Q214.921 928.919 214.921 932.567 Q214.921 934.298 214.263 935.859 Q213.623 937.401 211.912 939.508 Q211.441 940.053 208.921 942.667 Q206.401 945.263 201.812 949.946 Z" fill="#000000" fill-rule="nonzero" fill-opacity="1" /><path clip-path="url(#clip550)" d="M223.046 948.366 L227.014 948.366 L227.014 953.143 L223.046 953.143 L223.046 948.366 Z" fill="#000000" fill-rule="nonzero" fill-opacity="1" /><path clip-path="url(#clip550)" d="M235.327 925.063 L250.242 925.063 L250.242 928.261 L238.807 928.261 L238.807 935.144 Q239.634 934.862 240.462 934.73 Q241.289 934.58 242.117 934.58 Q246.819 934.58 249.565 937.157 Q252.311 939.733 252.311 944.134 Q252.311 948.667 249.489 951.187 Q246.668 953.689 241.534 953.689 Q239.766 953.689 237.923 953.388 Q236.098 953.087 234.142 952.485 L234.142 948.667 Q235.835 949.589 237.641 950.04 Q239.446 950.491 241.459 950.491 Q244.712 950.491 246.612 948.78 Q248.511 947.068 248.511 944.134 Q248.511 941.2 246.612 939.489 Q244.712 937.777 241.459 937.777 Q239.935 937.777 238.412 938.116 Q236.907 938.454 235.327 939.169 L235.327 925.063 Z" fill="#000000" fill-rule="nonzero" fill-opacity="1" /><path clip-path="url(#clip550)" d="M144.855 478.875 L152.493 478.875 L152.493 452.51 L144.183 454.177 L144.183 449.917 L152.447 448.251 L157.123 448.251 L157.123 478.875 L164.762 478.875 L164.762 482.811 L144.855 482.811 L144.855 478.875 Z" fill="#000000" fill-rule="nonzero" fill-opacity="1" /><path clip-path="url(#clip550)" d="M184.206 451.329 Q180.595 451.329 178.766 454.894 Q176.961 458.436 176.961 465.565 Q176.961 472.672 178.766 476.237 Q180.595 479.778 184.206 479.778 Q187.84 479.778 189.646 476.237 Q191.475 472.672 191.475 465.565 Q191.475 458.436 189.646 454.894 Q187.84 451.329 184.206 451.329 M184.206 447.626 Q190.016 447.626 193.072 452.232 Q196.151 456.815 196.151 465.565 Q196.151 474.292 193.072 478.899 Q190.016 483.482 184.206 483.482 Q178.396 483.482 175.317 478.899 Q172.262 474.292 172.262 465.565 Q172.262 456.815 175.317 452.232 Q178.396 447.626 184.206 447.626 Z" fill="#000000" fill-rule="nonzero" fill-opacity="1" /><path clip-path="url(#clip550)" d="M205.855 429.822 Q202.921 429.822 201.436 432.718 Q199.969 435.596 199.969 441.388 Q199.969 447.162 201.436 450.059 Q202.921 452.936 205.855 452.936 Q208.808 452.936 210.275 450.059 Q211.761 447.162 211.761 441.388 Q211.761 435.596 210.275 432.718 Q208.808 429.822 205.855 429.822 M205.855 426.812 Q210.576 426.812 213.059 430.555 Q215.56 434.279 215.56 441.388 Q215.56 448.479 213.059 452.222 Q210.576 455.946 205.855 455.946 Q201.135 455.946 198.633 452.222 Q196.151 448.479 196.151 441.388 Q196.151 434.279 198.633 430.555 Q201.135 426.812 205.855 426.812 Z" fill="#000000" fill-rule="nonzero" fill-opacity="1" /><path clip-path="url(#clip550)" d="M222.237 450.623 L226.205 450.623 L226.205 455.4 L222.237 455.4 L222.237 450.623 Z" fill="#000000" fill-rule="nonzero" fill-opacity="1" /><path clip-path="url(#clip550)" d="M242.606 429.822 Q239.672 429.822 238.186 432.718 Q236.719 435.596 236.719 441.388 Q236.719 447.162 238.186 450.059 Q239.672 452.936 242.606 452.936 Q245.559 452.936 247.026 450.059 Q248.511 447.162 248.511 441.388 Q248.511 435.596 247.026 432.718 Q245.559 429.822 242.606 429.822 M242.606 426.812 Q247.327 426.812 249.809 430.555 Q252.311 434.279 252.311 441.388 Q252.311 448.479 249.809 452.222 Q247.327 455.946 242.606 455.946 Q237.885 455.946 235.384 452.222 Q232.901 448.479 232.901 441.388 Q232.901 434.279 235.384 430.555 Q237.885 426.812 242.606 426.812 Z" fill="#000000" fill-rule="nonzero" fill-opacity="1" /><path clip-path="url(#clip550)" d="M16.4842 840.023 L16.4842 833.593 L58.5933 833.593 L58.5933 810.454 L64.0042 810.454 L64.0042 840.023 L16.4842 840.023 Z" fill="#000000" fill-rule="nonzero" fill-opacity="1" /><path clip-path="url(#clip550)" d="M32.4621 791.293 Q32.4621 796.004 36.1542 798.741 Q39.8145 801.478 46.212 801.478 Q52.6095 801.478 56.3017 798.773 Q59.9619 796.036 59.9619 791.293 Q59.9619 786.614 56.2698 783.877 Q52.5777 781.14 46.212 781.14 Q39.8781 781.14 36.186 783.877 Q32.4621 786.614 32.4621 791.293 M27.4968 791.293 Q27.4968 783.654 32.4621 779.294 Q37.4273 774.933 46.212 774.933 Q54.9649 774.933 59.9619 779.294 Q64.9272 783.654 64.9272 791.293 Q64.9272 798.964 59.9619 803.324 Q54.9649 807.653 46.212 807.653 Q37.4273 807.653 32.4621 803.324 Q27.4968 798.964 27.4968 791.293 Z" fill="#000000" fill-rule="nonzero" fill-opacity="1" /><path clip-path="url(#clip550)" d="M29.4065 742.5 L34.9447 742.5 Q33.6716 744.983 33.035 747.656 Q32.3984 750.33 32.3984 753.194 Q32.3984 757.555 33.7352 759.751 Q35.072 761.915 37.7456 761.915 Q39.7826 761.915 40.9603 760.356 Q42.1061 758.796 43.1565 754.086 L43.6021 752.08 Q44.9389 745.842 47.3897 743.232 Q49.8086 740.59 54.1691 740.59 Q59.1344 740.59 62.0308 744.537 Q64.9272 748.452 64.9272 755.327 Q64.9272 758.192 64.3543 761.311 Q63.8132 764.398 62.6992 767.836 L56.6518 767.836 Q58.3387 764.589 59.198 761.438 Q60.0256 758.287 60.0256 755.2 Q60.0256 751.062 58.6251 748.834 Q57.1929 746.606 54.6147 746.606 Q52.2276 746.606 50.9545 748.229 Q49.6813 749.821 48.5037 755.263 L48.0262 757.3 Q46.8804 762.743 44.5251 765.162 Q42.138 767.581 38.0002 767.581 Q32.9713 767.581 30.2341 764.016 Q27.4968 760.451 27.4968 753.895 Q27.4968 750.648 27.9743 747.784 Q28.4517 744.919 29.4065 742.5 Z" fill="#000000" fill-rule="nonzero" fill-opacity="1" /><path clip-path="url(#clip550)" d="M29.4065 708.539 L34.9447 708.539 Q33.6716 711.022 33.035 713.695 Q32.3984 716.369 32.3984 719.233 Q32.3984 723.594 33.7352 725.79 Q35.072 727.954 37.7456 727.954 Q39.7826 727.954 40.9603 726.395 Q42.1061 724.835 43.1565 720.125 L43.6021 718.119 Q44.9389 711.881 47.3897 709.271 Q49.8086 706.629 54.1691 706.629 Q59.1344 706.629 62.0308 710.576 Q64.9272 714.491 64.9272 721.366 Q64.9272 724.23 64.3543 727.35 Q63.8132 730.437 62.6992 733.875 L56.6518 733.875 Q58.3387 730.628 59.198 727.477 Q60.0256 724.326 60.0256 721.239 Q60.0256 717.101 58.6251 714.873 Q57.1929 712.645 54.6147 712.645 Q52.2276 712.645 50.9545 714.268 Q49.6813 715.86 48.5037 721.302 L48.0262 723.339 Q46.8804 728.782 44.5251 731.201 Q42.138 733.62 38.0002 733.62 Q32.9713 733.62 30.2341 730.055 Q27.4968 726.49 27.4968 719.934 Q27.4968 716.687 27.9743 713.823 Q28.4517 710.958 29.4065 708.539 Z" fill="#000000" fill-rule="nonzero" fill-opacity="1" /><path clip-path="url(#clip550)" d="M1054.59 12.096 L1105.75 12.096 L1105.75 18.9825 L1084.28 18.9825 L1084.28 72.576 L1076.06 72.576 L1076.06 18.9825 L1054.59 18.9825 L1054.59 12.096 Z" fill="#000000" fill-rule="nonzero" fill-opacity="1" /><path clip-path="url(#clip550)" d="M1127.43 34.1734 Q1126.17 33.4443 1124.67 33.1202 Q1123.21 32.7556 1121.43 32.7556 Q1115.11 32.7556 1111.71 36.8875 Q1108.35 40.9789 1108.35 48.6757 L1108.35 72.576 L1100.85 72.576 L1100.85 27.2059 L1108.35 27.2059 L1108.35 34.2544 Q1110.7 30.1225 1114.46 28.1376 Q1118.23 26.1121 1123.62 26.1121 Q1124.39 26.1121 1125.32 26.2337 Q1126.25 26.3147 1127.39 26.5172 L1127.43 34.1734 Z" fill="#000000" fill-rule="nonzero" fill-opacity="1" /><path clip-path="url(#clip550)" d="M1155.86 49.7694 Q1146.83 49.7694 1143.35 51.8354 Q1139.86 53.9013 1139.86 58.8839 Q1139.86 62.8538 1142.46 65.2034 Q1145.09 67.5124 1149.59 67.5124 Q1155.78 67.5124 1159.51 63.1374 Q1163.28 58.7219 1163.28 51.4303 L1163.28 49.7694 L1155.86 49.7694 M1170.73 46.6907 L1170.73 72.576 L1163.28 72.576 L1163.28 65.6895 Q1160.73 69.8214 1156.92 71.8063 Q1153.11 73.7508 1147.6 73.7508 Q1140.63 73.7508 1136.5 69.8619 Q1132.41 65.9325 1132.41 59.3701 Q1132.41 51.7138 1137.51 47.825 Q1142.66 43.9361 1152.83 43.9361 L1163.28 43.9361 L1163.28 43.2069 Q1163.28 38.0623 1159.87 35.2672 Q1156.51 32.4315 1150.4 32.4315 Q1146.51 32.4315 1142.82 33.3632 Q1139.13 34.295 1135.73 36.1584 L1135.73 29.2718 Q1139.82 27.692 1143.67 26.9223 Q1147.52 26.1121 1151.16 26.1121 Q1161.01 26.1121 1165.87 31.2163 Q1170.73 36.3204 1170.73 46.6907 Z" fill="#000000" fill-rule="nonzero" fill-opacity="1" /><path clip-path="url(#clip550)" d="M1186.08 27.2059 L1193.54 27.2059 L1193.54 72.576 L1186.08 72.576 L1186.08 27.2059 M1186.08 9.54393 L1193.54 9.54393 L1193.54 18.9825 L1186.08 18.9825 L1186.08 9.54393 Z" fill="#000000" fill-rule="nonzero" fill-opacity="1" /><path clip-path="url(#clip550)" d="M1246.85 45.1919 L1246.85 72.576 L1239.39 72.576 L1239.39 45.4349 Q1239.39 38.994 1236.88 35.7938 Q1234.37 32.5936 1229.35 32.5936 Q1223.31 32.5936 1219.83 36.4419 Q1216.34 40.2903 1216.34 46.9338 L1216.34 72.576 L1208.85 72.576 L1208.85 27.2059 L1216.34 27.2059 L1216.34 34.2544 Q1219.02 30.163 1222.62 28.1376 Q1226.27 26.1121 1231.01 26.1121 Q1238.83 26.1121 1242.84 30.9732 Q1246.85 35.7938 1246.85 45.1919 Z" fill="#000000" fill-rule="nonzero" fill-opacity="1" /><path clip-path="url(#clip550)" d="M1261.71 27.2059 L1269.17 27.2059 L1269.17 72.576 L1261.71 72.576 L1261.71 27.2059 M1261.71 9.54393 L1269.17 9.54393 L1269.17 18.9825 L1261.71 18.9825 L1261.71 9.54393 Z" fill="#000000" fill-rule="nonzero" fill-opacity="1" /><path clip-path="url(#clip550)" d="M1322.48 45.1919 L1322.48 72.576 L1315.02 72.576 L1315.02 45.4349 Q1315.02 38.994 1312.51 35.7938 Q1310 32.5936 1304.98 32.5936 Q1298.94 32.5936 1295.46 36.4419 Q1291.97 40.2903 1291.97 46.9338 L1291.97 72.576 L1284.48 72.576 L1284.48 27.2059 L1291.97 27.2059 L1291.97 34.2544 Q1294.65 30.163 1298.25 28.1376 Q1301.9 26.1121 1306.64 26.1121 Q1314.46 26.1121 1318.47 30.9732 Q1322.48 35.7938 1322.48 45.1919 Z" fill="#000000" fill-rule="nonzero" fill-opacity="1" /><path clip-path="url(#clip550)" d="M1367.2 49.3643 Q1367.2 41.2625 1363.84 36.8065 Q1360.52 32.3505 1354.48 32.3505 Q1348.48 32.3505 1345.12 36.8065 Q1341.8 41.2625 1341.8 49.3643 Q1341.8 57.4256 1345.12 61.8816 Q1348.48 66.3376 1354.48 66.3376 Q1360.52 66.3376 1363.84 61.8816 Q1367.2 57.4256 1367.2 49.3643 M1374.65 66.9452 Q1374.65 78.5308 1369.51 84.1616 Q1364.36 89.8329 1353.75 89.8329 Q1349.82 89.8329 1346.34 89.2252 Q1342.85 88.6581 1339.57 87.4428 L1339.57 80.1917 Q1342.85 81.9741 1346.05 82.8248 Q1349.25 83.6755 1352.58 83.6755 Q1359.91 83.6755 1363.55 79.8271 Q1367.2 76.0193 1367.2 68.282 L1367.2 64.5957 Q1364.89 68.6061 1361.29 70.5911 Q1357.68 72.576 1352.66 72.576 Q1344.31 72.576 1339.21 66.2161 Q1334.1 59.8562 1334.1 49.3643 Q1334.1 38.832 1339.21 32.472 Q1344.31 26.1121 1352.66 26.1121 Q1357.68 26.1121 1361.29 28.0971 Q1364.89 30.082 1367.2 34.0924 L1367.2 27.2059 L1374.65 27.2059 L1374.65 66.9452 Z" fill="#000000" fill-rule="nonzero" fill-opacity="1" /><path clip-path="url(#clip550)" d="M1416.7 12.096 L1424.88 12.096 L1424.88 65.6895 L1454.33 65.6895 L1454.33 72.576 L1416.7 72.576 L1416.7 12.096 Z" fill="#000000" fill-rule="nonzero" fill-opacity="1" /><path clip-path="url(#clip550)" d="M1478.72 32.4315 Q1472.73 32.4315 1469.24 37.1306 Q1465.76 41.7891 1465.76 49.9314 Q1465.76 58.0738 1469.2 62.7728 Q1472.69 67.4314 1478.72 67.4314 Q1484.68 67.4314 1488.16 62.7323 Q1491.64 58.0333 1491.64 49.9314 Q1491.64 41.8701 1488.16 37.1711 Q1484.68 32.4315 1478.72 32.4315 M1478.72 26.1121 Q1488.44 26.1121 1493.99 32.4315 Q1499.54 38.7509 1499.54 49.9314 Q1499.54 61.0714 1493.99 67.4314 Q1488.44 73.7508 1478.72 73.7508 Q1468.96 73.7508 1463.41 67.4314 Q1457.9 61.0714 1457.9 49.9314 Q1457.9 38.7509 1463.41 32.4315 Q1468.96 26.1121 1478.72 26.1121 Z" fill="#000000" fill-rule="nonzero" fill-opacity="1" /><path clip-path="url(#clip550)" d="M1540.82 28.5427 L1540.82 35.5912 Q1537.66 33.9709 1534.26 33.1607 Q1530.86 32.3505 1527.21 32.3505 Q1521.66 32.3505 1518.87 34.0519 Q1516.11 35.7533 1516.11 39.156 Q1516.11 41.7486 1518.1 43.2475 Q1520.08 44.7058 1526.08 46.0426 L1528.63 46.6097 Q1536.57 48.3111 1539.89 51.4303 Q1543.25 54.509 1543.25 60.0587 Q1543.25 66.3781 1538.23 70.0644 Q1533.25 73.7508 1524.5 73.7508 Q1520.85 73.7508 1516.88 73.0216 Q1512.95 72.3329 1508.58 70.9151 L1508.58 63.2184 Q1512.71 65.3654 1516.72 66.4591 Q1520.73 67.5124 1524.66 67.5124 Q1529.92 67.5124 1532.76 65.73 Q1535.6 63.9071 1535.6 60.6258 Q1535.6 57.5877 1533.53 55.9673 Q1531.5 54.3469 1524.58 52.8481 L1521.98 52.2405 Q1515.06 50.7821 1511.98 47.7845 Q1508.9 44.7463 1508.9 39.4801 Q1508.9 33.0797 1513.44 29.5959 Q1517.97 26.1121 1526.32 26.1121 Q1530.45 26.1121 1534.1 26.7198 Q1537.74 27.3274 1540.82 28.5427 Z" fill="#000000" fill-rule="nonzero" fill-opacity="1" /><path clip-path="url(#clip550)" d="M1584.04 28.5427 L1584.04 35.5912 Q1580.88 33.9709 1577.48 33.1607 Q1574.08 32.3505 1570.43 32.3505 Q1564.88 32.3505 1562.09 34.0519 Q1559.33 35.7533 1559.33 39.156 Q1559.33 41.7486 1561.32 43.2475 Q1563.3 44.7058 1569.3 46.0426 L1571.85 46.6097 Q1579.79 48.3111 1583.11 51.4303 Q1586.48 54.509 1586.48 60.0587 Q1586.48 66.3781 1581.45 70.0644 Q1576.47 73.7508 1567.72 73.7508 Q1564.07 73.7508 1560.1 73.0216 Q1556.17 72.3329 1551.8 70.9151 L1551.8 63.2184 Q1555.93 65.3654 1559.94 66.4591 Q1563.95 67.5124 1567.88 67.5124 Q1573.15 67.5124 1575.98 65.73 Q1578.82 63.9071 1578.82 60.6258 Q1578.82 57.5877 1576.75 55.9673 Q1574.73 54.3469 1567.8 52.8481 L1565.21 52.2405 Q1558.28 50.7821 1555.2 47.7845 Q1552.12 44.7463 1552.12 39.4801 Q1552.12 33.0797 1556.66 29.5959 Q1561.2 26.1121 1569.54 26.1121 Q1573.67 26.1121 1577.32 26.7198 Q1580.97 27.3274 1584.04 28.5427 Z" fill="#000000" fill-rule="nonzero" fill-opacity="1" /><polyline clip-path="url(#clip551)" style="stroke:#009af9; stroke-linecap:round; stroke-linejoin:round; stroke-width:4; stroke-opacity:1; fill:none" points="346.738,251.876 351.96,160.256 357.181,171.341 362.403,239.896 367.624,258.384 372.845,272.093 378.067,281.375 383.288,289.291 388.51,297.642 393.731,302.111 398.953,306.974 404.174,319.925 409.395,353.669 414.617,416.783 419.838,465.354 425.06,489.449 430.281,499.861 435.502,500.175 440.724,510.186 445.945,523.968 451.167,538.478 456.388,551.672 461.61,553.709 466.831,564.352 472.052,577.947 477.274,589.375 482.495,597.799 487.717,599.746 492.938,606.04 498.16,619.089 503.381,630.465 508.602,630.814 513.824,630.48 519.045,633.802 524.267,648.797 529.488,641.853 534.709,647.989 539.931,661.717 545.152,659.189 550.374,661.408 555.595,672.019 560.817,673.144 566.038,682.271 571.259,680.655 576.481,677.675 581.702,705.114 586.924,698.017 592.145,685.746 597.367,683.463 602.588,701.18 607.809,715.32 613.031,709.394 618.252,711.698 623.474,720.414 628.695,758.82 633.916,736.109 639.138,734.705 644.359,759.013 649.581,733.573 654.802,769.224 660.024,762.319 665.245,765.78 670.466,781.22 675.688,778.982 680.909,771.524 686.131,777.218 691.352,812.895 696.574,788.263 701.795,812.285 707.016,807.144 712.238,839.692 717.459,829.755 722.681,795.689 727.902,861.796 733.123,805.512 738.345,822.271 743.566,828.738 748.788,819.391 754.009,856.262 759.231,865.306 764.452,846.095 769.673,848.933 774.895,891.283 780.116,868.808 785.338,891.34 790.559,881.944 795.781,845.29 801.002,864.598 806.223,869.797 811.445,854.423 816.666,877.528 821.888,888.597 827.109,886.274 832.33,866.537 837.552,858.876 842.773,896.141 847.995,927.968 853.216,867.34 858.438,871.507 863.659,886.095 868.88,854.009 874.102,847.351 879.323,897 884.545,869.4 889.766,912.218 894.987,918.332 900.209,863.25 905.43,899.083 910.652,857.05 915.873,894.198 921.095,928.851 926.316,869.772 931.537,950.977 936.759,885.099 941.98,893.692 947.202,995.002 952.423,910.789 957.645,903.579 962.866,873.523 968.087,861.645 973.309,962.614 978.53,892.151 983.752,914.595 988.973,865.569 994.194,894.097 999.416,898.959 1004.64,915.93 1009.86,941.845 1015.08,867.476 1020.3,979.86 1025.52,942.771 1030.74,916.123 1035.97,921.649 1041.19,910.166 1046.41,919.095 1051.63,983.142 1056.85,880.524 1062.07,946.991 1067.29,1015.78 1072.52,928.158 1077.74,910.175 1082.96,836.36 1088.18,918.521 1093.4,912.467 1098.62,882.758 1103.84,957.141 1109.07,928.736 1114.29,839.028 1119.51,895.638 1124.73,907.51 1129.95,938.241 1135.17,928.983 1140.39,980.884 1145.62,917.786 1150.84,1008.13 1156.06,918.208 1161.28,867.936 1166.5,888.902 1171.72,939.124 1176.94,861.033 1182.17,960.652 1187.39,952.715 1192.61,937.672 1197.83,999.518 1203.05,872.143 1208.27,992.355 1213.49,900.332 1218.72,947.612 1223.94,941.136 1229.16,966.84 1234.38,897.057 1239.6,955.458 1244.82,963.701 1250.04,1050.63 1255.27,1191.09 1260.49,966.906 1265.71,928.735 1270.93,1170.39 1276.15,1001.87 1281.37,958.233 1286.59,1034.89 1291.82,941.266 1297.04,920.145 1302.26,995.383 1307.48,971.07 1312.7,875.331 1317.92,999.658 1323.14,900.139 1328.37,945.959 1333.59,880.971 1338.81,925.971 1344.03,936.515 1349.25,1022.06 1354.47,934.222 1359.69,919.286 1364.92,940.521 1370.14,925.294 1375.36,935.96 1380.58,976.152 1385.8,996.684 1391.02,1111.72 1396.24,953.354 1401.47,899.449 1406.69,956.924 1411.91,914.127 1417.13,904.013 1422.35,916.871 1427.57,882.253 1432.79,963.81 1438.02,929.391 1443.24,955.484 1448.46,1066.08 1453.68,897.447 1458.9,1386.4 1464.12,942.312 1469.34,922.99 1474.57,909.687 1479.79,921.564 1485.01,898.272 1490.23,978.114 1495.45,944.696 1500.67,1026.06 1505.89,962.362 1511.12,953.613 1516.34,963.02 1521.56,932.661 1526.78,927.311 1532,996.859 1537.22,943.503 1542.44,907.799 1547.67,894.027 1552.89,896.313 1558.11,956.56 1563.33,1024.91 1568.55,927.219 1573.77,1028.91 1578.99,927.506 1584.22,965.486 1589.44,925.051 1594.66,982.459 1599.88,972.51 1605.1,887.447 1610.32,941.468 1615.54,901.494 1620.76,959.85 1625.99,900.318 1631.21,984.927 1636.43,990.53 1641.65,986.971 1646.87,1022.84 1652.09,1024.86 1657.31,1146.77 1662.54,1169.05 1667.76,963.545 1672.98,958.09 1678.2,955.644 1683.42,929.816 1688.64,997.451 1693.86,972.189 1699.09,1010.86 1704.31,951.995 1709.53,942.711 1714.75,928.716 1719.97,1001.91 1725.19,920.031 1730.41,1081.91 1735.64,1157.34 1740.86,1114.68 1746.08,958.276 1751.3,954.677 1756.52,967.289 1761.74,962.686 1766.96,950.411 1772.19,941.966 1777.41,972.545 1782.63,900.888 1787.85,952.187 1793.07,995.281 1798.29,937.26 1803.51,898.126 1808.74,914.717 1813.96,959.656 1819.18,888.274 1824.4,1016.81 1829.62,1005.56 1834.84,965.661 1840.06,999.537 1845.29,970.491 1850.51,937.96 1855.73,1003.77 1860.95,1053.27 1866.17,925.539 1871.39,965.536 1876.61,984.238 1881.84,1123.52 1887.06,903.431 1892.28,960.429 1897.5,939.534 1902.72,1060.07 1907.94,940.813 1913.16,934.289 1918.39,955.239 1923.61,919.48 1928.83,1003.92 1934.05,993.528 1939.27,922.096 1944.49,1005.86 1949.71,932.343 1954.94,901.796 1960.16,1019.09 1965.38,953.884 1970.6,915.112 1975.82,931.824 1981.04,970.186 1986.26,861.406 1991.49,1001.59 1996.71,956.857 2001.93,1010.48 2007.15,733.746 2012.37,957.743 2017.59,994.196 2022.81,907.978 2028.04,1025.07 2033.26,953.523 2038.48,893.941 2043.7,955.869 2048.92,929.806 2054.14,878.759 2059.36,1163.08 2064.59,907.605 2069.81,946.748 2075.03,1006.65 2080.25,1024.32 2085.47,928.486 2090.69,975.095 2095.91,1136.16 2101.14,1029.02 2106.36,905.378 2111.58,953.499 2116.8,893.946 2122.02,927.701 2127.24,1050.31 2132.46,936.134 2137.69,899.879 2142.91,903.314 2148.13,910.955 2153.35,978.603 2158.57,903.51 2163.79,949.289 2169.01,930.811 2174.24,889.915 2179.46,964.197 2184.68,977.366 2189.9,942.621 2195.12,819.651 2200.34,944.368 2205.56,968.331 2210.79,917.62 2216.01,932.391 2221.23,892.142 2226.45,937.211 2231.67,965.895 2236.89,971.299 2242.11,892.216 2247.34,908.829 2252.56,932.332 2257.78,1076.93 2263,961.33 2268.22,958.146 2273.44,985.7 2278.66,917.711 2283.89,897.941 2289.11,964.938 2294.33,1068.97 "/>
</svg>
