<?xml version="1.0" encoding="utf-8"?>
<svg xmlns="http://www.w3.org/2000/svg" xmlns:xlink="http://www.w3.org/1999/xlink" width="600" height="400" viewBox="0 0 2400 1600">
<defs>
  <clipPath id="clip680">
    <rect x="0" y="0" width="2400" height="1600"/>
  </clipPath>
</defs>
<path clip-path="url(#clip680)" d="M0 1600 L2400 1600 L2400 0 L0 0  Z" fill="#ffffff" fill-rule="evenodd" fill-opacity="1"/>
<defs>
  <clipPath id="clip681">
    <rect x="110" y="47" width="2243" height="1377"/>
  </clipPath>
</defs>
<path clip-path="url(#clip680)" d="M110.881 1423.18 L2352.76 1423.18 L2352.76 47.2441 L110.881 47.2441  Z" fill="#ffffff" fill-rule="evenodd" fill-opacity="1"/>
<polyline clip-path="url(#clip681)" style="stroke:#000000; stroke-linecap:round; stroke-linejoin:round; stroke-width:2; stroke-opacity:0.1; fill:none" points="110.881,1423.18 110.881,47.2441 "/>
<polyline clip-path="url(#clip681)" style="stroke:#000000; stroke-linecap:round; stroke-linejoin:round; stroke-width:2; stroke-opacity:0.1; fill:none" points="858.173,1423.18 858.173,47.2441 "/>
<polyline clip-path="url(#clip681)" style="stroke:#000000; stroke-linecap:round; stroke-linejoin:round; stroke-width:2; stroke-opacity:0.1; fill:none" points="1605.46,1423.18 1605.46,47.2441 "/>
<polyline clip-path="url(#clip681)" style="stroke:#000000; stroke-linecap:round; stroke-linejoin:round; stroke-width:2; stroke-opacity:0.1; fill:none" points="2352.76,1423.18 2352.76,47.2441 "/>
<polyline clip-path="url(#clip681)" style="stroke:#000000; stroke-linecap:round; stroke-linejoin:round; stroke-width:2; stroke-opacity:0.1; fill:none" points="110.881,1330.03 2352.76,1330.03 "/>
<polyline clip-path="url(#clip681)" style="stroke:#000000; stroke-linecap:round; stroke-linejoin:round; stroke-width:2; stroke-opacity:0.1; fill:none" points="110.881,1000.28 2352.76,1000.28 "/>
<polyline clip-path="url(#clip681)" style="stroke:#000000; stroke-linecap:round; stroke-linejoin:round; stroke-width:2; stroke-opacity:0.1; fill:none" points="110.881,670.538 2352.76,670.538 "/>
<polyline clip-path="url(#clip681)" style="stroke:#000000; stroke-linecap:round; stroke-linejoin:round; stroke-width:2; stroke-opacity:0.1; fill:none" points="110.881,340.794 2352.76,340.794 "/>
<polyline clip-path="url(#clip680)" style="stroke:#000000; stroke-linecap:round; stroke-linejoin:round; stroke-width:4; stroke-opacity:1; fill:none" points="110.881,1423.18 2352.76,1423.18 "/>
<polyline clip-path="url(#clip680)" style="stroke:#000000; stroke-linecap:round; stroke-linejoin:round; stroke-width:4; stroke-opacity:1; fill:none" points="110.881,1423.18 110.881,1404.28 "/>
<polyline clip-path="url(#clip680)" style="stroke:#000000; stroke-linecap:round; stroke-linejoin:round; stroke-width:4; stroke-opacity:1; fill:none" points="858.173,1423.18 858.173,1404.28 "/>
<polyline clip-path="url(#clip680)" style="stroke:#000000; stroke-linecap:round; stroke-linejoin:round; stroke-width:4; stroke-opacity:1; fill:none" points="1605.46,1423.18 1605.46,1404.28 "/>
<polyline clip-path="url(#clip680)" style="stroke:#000000; stroke-linecap:round; stroke-linejoin:round; stroke-width:4; stroke-opacity:1; fill:none" points="2352.76,1423.18 2352.76,1404.28 "/>
<path clip-path="url(#clip680)" d="M110.881 1454.1 Q107.27 1454.1 105.441 1457.66 Q103.636 1461.2 103.636 1468.33 Q103.636 1475.44 105.441 1479.01 Q107.27 1482.55 110.881 1482.55 Q114.515 1482.55 116.321 1479.01 Q118.149 1475.44 118.149 1468.33 Q118.149 1461.2 116.321 1457.66 Q114.515 1454.1 110.881 1454.1 M110.881 1450.39 Q116.691 1450.39 119.747 1455 Q122.825 1459.58 122.825 1468.33 Q122.825 1477.06 119.747 1481.67 Q116.691 1486.25 110.881 1486.25 Q105.071 1486.25 101.992 1481.67 Q98.9365 1477.06 98.9365 1468.33 Q98.9365 1459.58 101.992 1455 Q105.071 1450.39 110.881 1450.39 Z" fill="#000000" fill-rule="nonzero" fill-opacity="1" /><path clip-path="url(#clip680)" d="M832.872 1451.02 L851.228 1451.02 L851.228 1454.96 L837.154 1454.96 L837.154 1463.43 Q838.173 1463.08 839.191 1462.92 Q840.21 1462.73 841.228 1462.73 Q847.015 1462.73 850.395 1465.9 Q853.774 1469.08 853.774 1474.49 Q853.774 1480.07 850.302 1483.17 Q846.83 1486.25 840.511 1486.25 Q838.335 1486.25 836.066 1485.88 Q833.821 1485.51 831.413 1484.77 L831.413 1480.07 Q833.497 1481.2 835.719 1481.76 Q837.941 1482.32 840.418 1482.32 Q844.423 1482.32 846.761 1480.21 Q849.099 1478.1 849.099 1474.49 Q849.099 1470.88 846.761 1468.77 Q844.423 1466.67 840.418 1466.67 Q838.543 1466.67 836.668 1467.08 Q834.816 1467.5 832.872 1468.38 L832.872 1451.02 Z" fill="#000000" fill-rule="nonzero" fill-opacity="1" /><path clip-path="url(#clip680)" d="M872.987 1454.1 Q869.376 1454.1 867.548 1457.66 Q865.742 1461.2 865.742 1468.33 Q865.742 1475.44 867.548 1479.01 Q869.376 1482.55 872.987 1482.55 Q876.622 1482.55 878.427 1479.01 Q880.256 1475.44 880.256 1468.33 Q880.256 1461.2 878.427 1457.66 Q876.622 1454.1 872.987 1454.1 M872.987 1450.39 Q878.797 1450.39 881.853 1455 Q884.932 1459.58 884.932 1468.33 Q884.932 1477.06 881.853 1481.67 Q878.797 1486.25 872.987 1486.25 Q867.177 1486.25 864.098 1481.67 Q861.043 1477.06 861.043 1468.33 Q861.043 1459.58 864.098 1455 Q867.177 1450.39 872.987 1450.39 Z" fill="#000000" fill-rule="nonzero" fill-opacity="1" /><path clip-path="url(#clip680)" d="M1565.07 1481.64 L1572.71 1481.64 L1572.71 1455.28 L1564.4 1456.95 L1564.4 1452.69 L1572.66 1451.02 L1577.34 1451.02 L1577.34 1481.64 L1584.98 1481.64 L1584.98 1485.58 L1565.07 1485.58 L1565.07 1481.64 Z" fill="#000000" fill-rule="nonzero" fill-opacity="1" /><path clip-path="url(#clip680)" d="M1604.42 1454.1 Q1600.81 1454.1 1598.98 1457.66 Q1597.18 1461.2 1597.18 1468.33 Q1597.18 1475.44 1598.98 1479.01 Q1600.81 1482.55 1604.42 1482.55 Q1608.06 1482.55 1609.86 1479.01 Q1611.69 1475.44 1611.69 1468.33 Q1611.69 1461.2 1609.86 1457.66 Q1608.06 1454.1 1604.42 1454.1 M1604.42 1450.39 Q1610.23 1450.39 1613.29 1455 Q1616.37 1459.58 1616.37 1468.33 Q1616.37 1477.06 1613.29 1481.67 Q1610.23 1486.25 1604.42 1486.25 Q1598.61 1486.25 1595.53 1481.67 Q1592.48 1477.06 1592.48 1468.33 Q1592.48 1459.58 1595.53 1455 Q1598.61 1450.39 1604.42 1450.39 Z" fill="#000000" fill-rule="nonzero" fill-opacity="1" /><path clip-path="url(#clip680)" d="M1634.58 1454.1 Q1630.97 1454.1 1629.14 1457.66 Q1627.34 1461.2 1627.34 1468.33 Q1627.34 1475.44 1629.14 1479.01 Q1630.97 1482.55 1634.58 1482.55 Q1638.22 1482.55 1640.02 1479.01 Q1641.85 1475.44 1641.85 1468.33 Q1641.85 1461.2 1640.02 1457.66 Q1638.22 1454.1 1634.58 1454.1 M1634.58 1450.39 Q1640.39 1450.39 1643.45 1455 Q1646.53 1459.58 1646.53 1468.33 Q1646.53 1477.06 1643.45 1481.67 Q1640.39 1486.25 1634.58 1486.25 Q1628.77 1486.25 1625.7 1481.67 Q1622.64 1477.06 1622.64 1468.33 Q1622.64 1459.58 1625.7 1455 Q1628.77 1450.39 1634.58 1450.39 Z" fill="#000000" fill-rule="nonzero" fill-opacity="1" /><path clip-path="url(#clip680)" d="M2312.36 1481.64 L2320 1481.64 L2320 1455.28 L2311.69 1456.95 L2311.69 1452.69 L2319.96 1451.02 L2324.63 1451.02 L2324.63 1481.64 L2332.27 1481.64 L2332.27 1485.58 L2312.36 1485.58 L2312.36 1481.64 Z" fill="#000000" fill-rule="nonzero" fill-opacity="1" /><path clip-path="url(#clip680)" d="M2341.76 1451.02 L2360.12 1451.02 L2360.12 1454.96 L2346.04 1454.96 L2346.04 1463.43 Q2347.06 1463.08 2348.08 1462.92 Q2349.1 1462.73 2350.12 1462.73 Q2355.9 1462.73 2359.28 1465.9 Q2362.66 1469.08 2362.66 1474.49 Q2362.66 1480.07 2359.19 1483.17 Q2355.72 1486.25 2349.4 1486.25 Q2347.22 1486.25 2344.96 1485.88 Q2342.71 1485.51 2340.3 1484.77 L2340.3 1480.07 Q2342.39 1481.2 2344.61 1481.76 Q2346.83 1482.32 2349.31 1482.32 Q2353.31 1482.32 2355.65 1480.21 Q2357.99 1478.1 2357.99 1474.49 Q2357.99 1470.88 2355.65 1468.77 Q2353.31 1466.67 2349.31 1466.67 Q2347.43 1466.67 2345.56 1467.08 Q2343.71 1467.5 2341.76 1468.38 L2341.76 1451.02 Z" fill="#000000" fill-rule="nonzero" fill-opacity="1" /><path clip-path="url(#clip680)" d="M2381.88 1454.1 Q2378.27 1454.1 2376.44 1457.66 Q2374.63 1461.2 2374.63 1468.33 Q2374.63 1475.44 2376.44 1479.01 Q2378.27 1482.55 2381.88 1482.55 Q2385.51 1482.55 2387.32 1479.01 Q2389.14 1475.44 2389.14 1468.33 Q2389.14 1461.2 2387.32 1457.66 Q2385.51 1454.1 2381.88 1454.1 M2381.88 1450.39 Q2387.69 1450.39 2390.74 1455 Q2393.82 1459.58 2393.82 1468.33 Q2393.82 1477.06 2390.74 1481.67 Q2387.69 1486.25 2381.88 1486.25 Q2376.07 1486.25 2372.99 1481.67 Q2369.93 1477.06 2369.93 1468.33 Q2369.93 1459.58 2372.99 1455 Q2376.07 1450.39 2381.88 1450.39 Z" fill="#000000" fill-rule="nonzero" fill-opacity="1" /><path clip-path="url(#clip680)" d="M1230.88 1522.27 L1230.88 1532.4 L1242.94 1532.4 L1242.94 1536.95 L1230.88 1536.95 L1230.88 1556.3 Q1230.88 1560.66 1232.06 1561.9 Q1233.27 1563.14 1236.93 1563.14 L1242.94 1563.14 L1242.94 1568.04 L1236.93 1568.04 Q1230.15 1568.04 1227.57 1565.53 Q1224.99 1562.98 1224.99 1556.3 L1224.99 1536.95 L1220.69 1536.95 L1220.69 1532.4 L1224.99 1532.4 L1224.99 1522.27 L1230.88 1522.27 Z" fill="#000000" fill-rule="nonzero" fill-opacity="1" /><polyline clip-path="url(#clip680)" style="stroke:#000000; stroke-linecap:round; stroke-linejoin:round; stroke-width:4; stroke-opacity:1; fill:none" points="110.881,1423.18 110.881,47.2441 "/>
<polyline clip-path="url(#clip680)" style="stroke:#000000; stroke-linecap:round; stroke-linejoin:round; stroke-width:4; stroke-opacity:1; fill:none" points="110.881,1330.03 129.779,1330.03 "/>
<polyline clip-path="url(#clip680)" style="stroke:#000000; stroke-linecap:round; stroke-linejoin:round; stroke-width:4; stroke-opacity:1; fill:none" points="110.881,1000.28 129.779,1000.28 "/>
<polyline clip-path="url(#clip680)" style="stroke:#000000; stroke-linecap:round; stroke-linejoin:round; stroke-width:4; stroke-opacity:1; fill:none" points="110.881,670.538 129.779,670.538 "/>
<polyline clip-path="url(#clip680)" style="stroke:#000000; stroke-linecap:round; stroke-linejoin:round; stroke-width:4; stroke-opacity:1; fill:none" points="110.881,340.794 129.779,340.794 "/>
<path clip-path="url(#clip680)" d="M62.9365 1315.82 Q59.3254 1315.82 57.4967 1319.39 Q55.6912 1322.93 55.6912 1330.06 Q55.6912 1337.17 57.4967 1340.73 Q59.3254 1344.27 62.9365 1344.27 Q66.5707 1344.27 68.3763 1340.73 Q70.205 1337.17 70.205 1330.06 Q70.205 1322.93 68.3763 1319.39 Q66.5707 1315.82 62.9365 1315.82 M62.9365 1312.12 Q68.7467 1312.12 71.8022 1316.73 Q74.8809 1321.31 74.8809 1330.06 Q74.8809 1338.79 71.8022 1343.39 Q68.7467 1347.98 62.9365 1347.98 Q57.1264 1347.98 54.0477 1343.39 Q50.9921 1338.79 50.9921 1330.06 Q50.9921 1321.31 54.0477 1316.73 Q57.1264 1312.12 62.9365 1312.12 Z" fill="#000000" fill-rule="nonzero" fill-opacity="1" /><path clip-path="url(#clip680)" d="M54.9736 1013.63 L62.6124 1013.63 L62.6124 987.261 L54.3023 988.928 L54.3023 984.669 L62.5661 983.002 L67.242 983.002 L67.242 1013.63 L74.8809 1013.63 L74.8809 1017.56 L54.9736 1017.56 L54.9736 1013.63 Z" fill="#000000" fill-rule="nonzero" fill-opacity="1" /><path clip-path="url(#clip680)" d="M58.5615 683.883 L74.8809 683.883 L74.8809 687.818 L52.9366 687.818 L52.9366 683.883 Q55.5986 681.128 60.1819 676.499 Q64.7883 671.846 65.9689 670.504 Q68.2143 667.98 69.0939 666.244 Q69.9967 664.485 69.9967 662.795 Q69.9967 660.041 68.0522 658.305 Q66.1309 656.568 63.0291 656.568 Q60.83 656.568 58.3763 657.332 Q55.9458 658.096 53.168 659.647 L53.168 654.925 Q55.9921 653.791 58.4458 653.212 Q60.8995 652.633 62.9365 652.633 Q68.3068 652.633 71.5013 655.318 Q74.6957 658.004 74.6957 662.494 Q74.6957 664.624 73.8855 666.545 Q73.0985 668.443 70.992 671.036 Q70.4133 671.707 67.3115 674.925 Q64.2096 678.119 58.5615 683.883 Z" fill="#000000" fill-rule="nonzero" fill-opacity="1" /><path clip-path="url(#clip680)" d="M67.7513 339.44 Q71.1078 340.158 72.9827 342.426 Q74.8809 344.695 74.8809 348.028 Q74.8809 353.144 71.3624 355.945 Q67.8439 358.746 61.3624 358.746 Q59.1865 358.746 56.8717 358.306 Q54.5801 357.889 52.1264 357.033 L52.1264 352.519 Q54.0708 353.653 56.3856 354.232 Q58.7004 354.81 61.2236 354.81 Q65.6217 354.81 67.9133 353.074 Q70.2281 351.338 70.2281 348.028 Q70.2281 344.973 68.0754 343.26 Q65.9457 341.523 62.1263 341.523 L58.0986 341.523 L58.0986 337.681 L62.3115 337.681 Q65.7606 337.681 67.5893 336.315 Q69.418 334.926 69.418 332.334 Q69.418 329.672 67.5198 328.26 Q65.6448 326.824 62.1263 326.824 Q60.205 326.824 58.006 327.241 Q55.8069 327.658 53.168 328.537 L53.168 324.371 Q55.8301 323.63 58.1449 323.26 Q60.4828 322.889 62.543 322.889 Q67.867 322.889 70.9689 325.32 Q74.0707 327.727 74.0707 331.848 Q74.0707 334.718 72.4272 336.709 Q70.7837 338.676 67.7513 339.44 Z" fill="#000000" fill-rule="nonzero" fill-opacity="1" /><polyline clip-path="url(#clip681)" style="stroke:#009af9; stroke-linecap:round; stroke-linejoin:round; stroke-width:4; stroke-opacity:1; fill:none" points="110.881,218.862 112.662,162.834 114.442,126.453 116.223,104.505 118.004,92.3746 119.784,86.9881 121.565,86.1857 123.346,88.4066 125.126,92.549 126.907,97.8607 128.688,103.841 130.468,110.162 132.249,116.608 134.03,123.044 135.81,129.382 137.591,135.569 139.372,141.574 141.152,147.378 142.933,152.975 144.714,158.361 146.494,163.54 148.275,168.515 150.056,173.292 151.837,177.878 153.617,182.281 155.398,186.507 157.179,190.565 158.959,194.461 160.74,198.202 162.521,201.794 164.301,205.246 166.082,208.561 167.863,211.748 169.643,214.811 171.424,217.755 173.205,220.585 174.985,223.306 176.766,225.923 178.547,228.441 180.327,230.863 182.108,233.194 183.889,235.436 185.669,237.593 187.45,239.67 189.231,241.669 191.011,243.593 192.792,245.446 194.573,247.229 196.353,248.946 198.134,250.6 199.915,252.192 201.696,253.726 203.476,255.203 205.257,256.626 207.038,257.997 208.818,259.317 210.599,260.589 212.38,261.814 214.16,262.994 215.941,264.132 217.722,265.228 219.502,266.284 221.283,267.301 223.064,268.282 224.844,269.226 226.625,270.137 228.406,271.014 230.186,271.86 231.967,272.675 233.748,273.461 235.528,274.218 237.309,274.947 239.09,275.65 240.87,276.328 242.651,276.981 244.432,277.611 246.213,278.218 247.993,278.804 249.774,279.368 251.555,279.911 253.335,280.436 255.116,280.941 256.897,281.428 258.677,281.897 260.458,282.35 262.239,282.786 264.019,283.207 265.8,283.613 267.581,284.004 269.361,284.381 271.142,284.744 272.923,285.095 274.703,285.432 276.484,285.758 278.265,286.072 280.045,286.375 281.826,286.667 283.607,286.948 285.387,287.22 287.168,287.481 288.949,287.734 290.729,287.977 292.51,288.211 294.291,288.437 296.072,288.655 297.852,288.866 299.633,289.068 301.414,289.264 303.194,289.452 304.975,289.634 306.756,289.809 308.536,289.978 310.317,290.141 312.098,290.298 313.878,290.449 315.659,290.595 317.44,290.736 319.22,290.872 321.001,291.003 322.782,291.129 324.562,291.251 326.343,291.369 328.124,291.482 329.904,291.591 331.685,291.696 333.466,291.797 335.246,291.895 337.027,291.99 338.808,292.081 340.588,292.169 342.369,292.253 344.15,292.335 345.931,292.414 347.711,292.489 349.492,292.562 351.273,292.633 353.053,292.701 354.834,292.767 356.615,292.83 358.395,292.891 360.176,292.95 361.957,293.007 363.737,293.061 365.518,293.114 367.299,293.165 369.079,293.214 370.86,293.261 372.641,293.307 374.421,293.351 376.202,293.393 377.983,293.434 379.763,293.473 381.544,293.512 383.325,293.548 385.105,293.584 386.886,293.618 388.667,293.651 390.448,293.682 392.228,293.713 394.009,293.742 395.79,293.771 397.57,293.798 399.351,293.825 401.132,293.85 402.912,293.875 404.693,293.899 406.474,293.921 408.254,293.943 410.035,293.965 411.816,293.985 413.596,294.005 415.377,294.024 417.158,294.042 418.938,294.06 420.719,294.077 422.5,294.094 424.28,294.11 426.061,294.125 427.842,294.14 429.622,294.154 431.403,294.168 433.184,294.181 434.964,294.194 436.745,294.206 438.526,294.218 440.307,294.23 442.087,294.241 443.868,294.251 445.649,294.262 447.429,294.272 449.21,294.281 450.991,294.29 452.771,294.299 454.552,294.308 456.333,294.316 458.113,294.324 459.894,294.332 461.675,294.339 463.455,294.346 465.236,294.353 467.017,294.36 468.797,294.366 470.578,294.372 472.359,294.378 474.139,294.384 475.92,294.39 477.701,294.395 479.481,294.4 481.262,294.405 483.043,294.41 484.824,294.415 486.604,294.419 488.385,294.423 490.166,294.428 491.946,294.432 493.727,294.435 495.508,294.439 497.288,294.443 499.069,294.446 500.85,294.45 502.63,294.453 504.411,294.456 506.192,294.459 507.972,294.462 509.753,294.465 511.534,294.467 513.314,294.47 515.095,294.472 516.876,294.475 518.656,294.477 520.437,294.479 522.218,294.481 523.998,294.484 525.779,294.486 527.56,294.488 529.34,294.489 531.121,294.491 532.902,294.493 534.683,294.495 536.463,294.496 538.244,294.498 540.025,294.499 541.805,294.501 543.586,294.502 545.367,294.503 547.147,294.505 548.928,294.506 550.709,294.507 552.489,294.508 554.27,294.509 556.051,294.511 557.831,294.512 559.612,294.513 561.393,294.514 563.173,294.515 564.954,294.515 566.735,294.516 568.515,294.517 570.296,294.518 572.077,294.519 573.857,294.519 575.638,294.52 577.419,294.521 579.199,294.522 580.98,294.522 582.761,294.523 584.542,294.524 586.322,294.524 588.103,294.525 589.884,294.525 591.664,294.526 593.445,294.526 595.226,294.527 597.006,294.527 598.787,294.528 600.568,294.528 602.348,294.528 604.129,294.529 605.91,294.529 607.69,294.53 609.471,294.53 611.252,294.53 613.032,294.531 614.813,294.531 616.594,294.531 618.374,294.532 620.155,294.532 621.936,294.532 623.716,294.533 625.497,294.533 627.278,294.533 629.059,294.533 630.839,294.534 632.62,294.534 634.401,294.534 636.181,294.534 637.962,294.534 639.743,294.535 641.523,294.535 643.304,294.535 645.085,294.535 646.865,294.535 648.646,294.535 650.427,294.536 652.207,294.536 653.988,294.536 655.769,294.536 657.549,294.536 659.33,294.536 661.111,294.536 662.891,294.537 664.672,294.537 666.453,294.537 668.233,294.537 670.014,294.537 671.795,294.537 673.575,294.537 675.356,294.537 677.137,294.537 678.918,294.537 680.698,294.538 682.479,294.538 684.26,294.538 686.04,294.538 687.821,294.538 689.602,294.538 691.382,294.538 693.163,294.538 694.944,294.538 696.724,294.538 698.505,294.538 700.286,294.538 702.066,294.538 703.847,294.538 705.628,294.538 707.408,294.539 709.189,294.539 710.97,294.539 712.75,294.539 714.531,294.539 716.312,294.539 718.092,294.539 719.873,294.539 721.654,294.539 723.435,294.539 725.215,294.539 726.996,294.539 728.777,294.539 730.557,294.539 732.338,294.539 734.119,294.539 735.899,294.539 737.68,294.539 739.461,294.539 741.241,294.539 743.022,294.539 744.803,294.539 746.583,294.539 748.364,294.539 750.145,294.539 751.925,294.539 753.706,294.539 755.487,294.539 757.267,294.539 759.048,294.539 760.829,294.539 762.609,294.539 764.39,294.539 766.171,294.539 767.951,294.54 769.732,294.54 771.513,294.54 773.294,294.54 775.074,294.54 776.855,294.54 778.636,294.54 780.416,294.54 782.197,294.54 783.978,294.54 785.758,294.54 787.539,294.54 789.32,294.54 791.1,294.54 792.881,294.54 794.662,294.54 796.442,294.54 798.223,294.54 800.004,294.54 801.784,294.54 803.565,294.54 805.346,294.54 807.126,294.54 808.907,294.54 810.688,294.54 812.468,294.54 814.249,294.54 816.03,294.54 817.81,294.54 819.591,294.54 821.372,294.54 823.153,294.54 824.933,294.54 826.714,294.54 828.495,294.54 830.275,294.54 832.056,294.54 833.837,294.54 835.617,294.54 837.398,294.54 839.179,294.54 840.959,294.54 842.74,294.54 844.521,294.54 846.301,294.54 848.082,294.54 849.863,294.54 851.643,294.54 853.424,294.54 855.205,294.54 856.985,294.54 858.766,294.54 860.547,294.54 862.327,294.54 864.108,294.54 865.889,294.54 867.67,294.54 869.45,294.54 871.231,294.54 873.012,294.54 874.792,294.54 876.573,294.54 878.354,294.54 880.134,294.54 881.915,294.54 883.696,294.54 885.476,294.54 887.257,294.54 889.038,294.54 890.818,294.54 892.599,294.54 894.38,294.54 896.16,294.54 897.941,294.54 899.722,294.54 901.502,294.54 903.283,294.54 905.064,294.54 906.844,294.54 908.625,294.54 910.406,294.54 912.186,294.54 913.967,294.54 915.748,294.54 917.529,294.54 919.309,294.54 921.09,294.54 922.871,294.54 924.651,294.54 926.432,294.54 928.213,294.54 929.993,294.54 931.774,294.54 933.555,294.54 935.335,294.54 937.116,294.54 938.897,294.54 940.677,294.54 942.458,294.54 944.239,294.54 946.019,294.54 947.8,294.54 949.581,294.54 951.361,294.54 953.142,294.54 954.923,294.54 956.703,294.54 958.484,294.54 960.265,294.54 962.046,294.54 963.826,294.54 965.607,294.54 967.388,294.54 969.168,294.54 970.949,294.54 972.73,294.54 974.51,294.54 976.291,294.54 978.072,294.54 979.852,294.54 981.633,294.54 983.414,294.54 985.194,294.54 986.975,294.54 988.756,294.54 990.536,294.54 992.317,294.54 994.098,294.54 995.878,294.54 997.659,294.54 999.44,294.54 1001.22,294.54 1003,294.54 1004.78,294.54 1006.56,294.54 1008.34,294.54 1010.12,294.54 1011.9,294.54 1013.69,294.54 1015.47,294.54 1017.25,294.54 1019.03,294.54 1020.81,294.54 1022.59,294.54 1024.37,294.54 1026.15,294.54 1027.93,294.54 1029.71,294.54 1031.49,294.54 1033.27,294.54 1035.05,294.54 1036.83,294.54 1038.61,294.54 1040.4,294.54 1042.18,294.54 1043.96,294.54 1045.74,294.54 1047.52,294.54 1049.3,294.54 1051.08,294.54 1052.86,294.54 1054.64,294.54 1056.42,294.54 1058.2,294.54 1059.98,294.54 1061.76,294.54 1063.54,294.54 1065.32,294.54 1067.11,294.54 1068.89,294.54 1070.67,294.54 1072.45,294.54 1074.23,294.54 1076.01,294.54 1077.79,294.54 1079.57,294.54 1081.35,294.54 1083.13,294.54 1084.91,294.54 1086.69,294.54 1088.47,294.54 1090.25,294.54 1092.04,294.54 1093.82,294.54 1095.6,294.54 1097.38,294.54 1099.16,294.54 1100.94,294.54 1102.72,294.54 1104.5,294.54 1106.28,294.54 1108.06,294.54 1109.84,294.54 1111.62,294.54 1113.4,294.54 1115.18,294.54 1116.96,294.54 1118.75,294.54 1120.53,294.54 1122.31,294.54 1124.09,294.54 1125.87,294.54 1127.65,294.54 1129.43,294.54 1131.21,294.54 1132.99,294.54 1134.77,294.54 1136.55,294.54 1138.33,294.54 1140.11,294.54 1141.89,294.54 1143.67,294.54 1145.46,294.54 1147.24,294.54 1149.02,294.54 1150.8,294.54 1152.58,294.54 1154.36,294.54 1156.14,294.54 1157.92,294.54 1159.7,294.54 1161.48,294.54 1163.26,294.54 1165.04,294.54 1166.82,294.54 1168.6,294.54 1170.38,294.54 1172.17,294.54 1173.95,294.54 1175.73,294.54 1177.51,294.54 1179.29,294.54 1181.07,294.54 1182.85,294.54 1184.63,294.54 1186.41,294.54 1188.19,294.54 1189.97,294.54 1191.75,294.54 1193.53,294.54 1195.31,294.54 1197.1,294.54 1198.88,294.54 1200.66,294.54 1202.44,294.54 1204.22,294.54 1206,294.54 1207.78,294.54 1209.56,294.54 1211.34,294.54 1213.12,294.54 1214.9,294.54 1216.68,294.54 1218.46,294.54 1220.24,294.54 1222.02,294.54 1223.81,294.54 1225.59,294.54 1227.37,294.54 1229.15,294.54 1230.93,294.54 1232.71,294.54 1234.49,294.54 1236.27,294.54 1238.05,294.54 1239.83,294.54 1241.61,294.54 1243.39,294.54 1245.17,294.54 1246.95,294.54 1248.73,294.54 1250.52,294.54 1252.3,294.54 1254.08,294.54 1255.86,294.54 1257.64,294.54 1259.42,294.54 1261.2,294.54 1262.98,294.54 1264.76,294.54 1266.54,294.54 1268.32,294.54 1270.1,294.54 1271.88,294.54 1273.66,294.54 1275.45,294.54 1277.23,294.54 1279.01,294.54 1280.79,294.54 1282.57,294.54 1284.35,294.54 1286.13,294.54 1287.91,294.54 1289.69,294.54 1291.47,294.54 1293.25,294.54 1295.03,294.54 1296.81,294.54 1298.59,294.54 1300.37,294.54 1302.16,294.54 1303.94,294.54 1305.72,294.54 1307.5,294.54 1309.28,294.54 1311.06,294.54 1312.84,294.54 1314.62,294.54 1316.4,294.54 1318.18,294.54 1319.96,294.54 1321.74,294.54 1323.52,294.54 1325.3,294.54 1327.08,294.54 1328.87,294.54 1330.65,294.54 1332.43,294.54 1334.21,294.54 1335.99,294.54 1337.77,294.54 1339.55,294.54 1341.33,294.54 1343.11,294.54 1344.89,294.54 1346.67,294.54 1348.45,294.54 1350.23,294.54 1352.01,294.54 1353.79,294.54 1355.58,294.54 1357.36,294.54 1359.14,294.54 1360.92,294.54 1362.7,294.54 1364.48,294.54 1366.26,294.54 1368.04,294.54 1369.82,294.54 1371.6,294.54 1373.38,294.54 1375.16,294.54 1376.94,294.54 1378.72,294.54 1380.51,294.54 1382.29,294.54 1384.07,294.54 1385.85,294.54 1387.63,294.54 1389.41,294.54 1391.19,294.54 1392.97,294.54 1394.75,294.54 1396.53,294.54 1398.31,294.54 1400.09,294.54 1401.87,294.54 1403.65,294.54 1405.43,294.54 1407.22,294.54 1409,294.54 1410.78,294.54 1412.56,294.54 1414.34,294.54 1416.12,294.54 1417.9,294.54 1419.68,294.54 1421.46,294.54 1423.24,294.54 1425.02,294.54 1426.8,294.54 1428.58,294.54 1430.36,294.54 1432.14,294.54 1433.93,294.54 1435.71,294.54 1437.49,294.54 1439.27,294.54 1441.05,294.54 1442.83,294.54 1444.61,294.54 1446.39,294.54 1448.17,294.54 1449.95,294.54 1451.73,294.54 1453.51,294.54 1455.29,294.54 1457.07,294.54 1458.85,294.54 1460.64,294.54 1462.42,294.54 1464.2,294.54 1465.98,294.54 1467.76,294.54 1469.54,294.54 1471.32,294.54 1473.1,294.54 1474.88,294.54 1476.66,294.54 1478.44,294.54 1480.22,294.54 1482,294.54 1483.78,294.54 1485.57,294.54 1487.35,294.54 1489.13,294.54 1490.91,294.54 1492.69,294.54 1494.47,294.54 1496.25,294.54 1498.03,294.54 1499.81,294.54 1501.59,294.54 1503.37,294.54 1505.15,294.54 1506.93,294.54 1508.71,294.54 1510.49,294.54 1512.28,294.54 1514.06,294.54 1515.84,294.54 1517.62,294.54 1519.4,294.54 1521.18,294.54 1522.96,294.54 1524.74,294.54 1526.52,294.54 1528.3,294.54 1530.08,294.54 1531.86,294.54 1533.64,294.54 1535.42,294.54 1537.2,294.54 1538.99,294.54 1540.77,294.54 1542.55,294.54 1544.33,294.54 1546.11,294.54 1547.89,294.54 1549.67,294.54 1551.45,294.54 1553.23,294.54 1555.01,294.54 1556.79,294.54 1558.57,294.54 1560.35,294.54 1562.13,294.54 1563.92,294.54 1565.7,294.54 1567.48,294.54 1569.26,294.54 1571.04,294.54 1572.82,294.54 1574.6,294.54 1576.38,294.54 1578.16,294.54 1579.94,294.54 1581.72,294.54 1583.5,294.54 1585.28,294.54 1587.06,294.54 1588.84,294.54 1590.63,294.54 1592.41,294.54 1594.19,294.54 1595.97,294.54 1597.75,294.54 1599.53,294.54 1601.31,294.54 1603.09,294.54 1604.87,294.54 1606.65,294.54 1608.43,294.54 1610.21,294.54 1611.99,294.54 1613.77,294.54 1615.55,294.54 1617.34,294.54 1619.12,294.54 1620.9,294.54 1622.68,294.54 1624.46,294.54 1626.24,294.54 1628.02,294.54 1629.8,294.54 1631.58,294.54 1633.36,294.54 1635.14,294.54 1636.92,294.54 1638.7,294.54 1640.48,294.54 1642.26,294.54 1644.05,294.54 1645.83,294.54 1647.61,294.54 1649.39,294.54 1651.17,294.54 1652.95,294.54 1654.73,294.54 1656.51,294.54 1658.29,294.54 1660.07,294.54 1661.85,294.54 1663.63,294.54 1665.41,294.54 1667.19,294.54 1668.98,294.54 1670.76,294.54 1672.54,294.54 1674.32,294.54 1676.1,294.54 1677.88,294.54 1679.66,294.54 1681.44,294.54 1683.22,294.54 1685,294.54 1686.78,294.54 1688.56,294.54 1690.34,294.54 1692.12,294.54 1693.9,294.54 1695.69,294.54 1697.47,294.54 1699.25,294.54 1701.03,294.54 1702.81,294.54 1704.59,294.54 1706.37,294.54 1708.15,294.54 1709.93,294.54 1711.71,294.54 1713.49,294.54 1715.27,294.54 1717.05,294.54 1718.83,294.54 1720.61,294.54 1722.4,294.54 1724.18,294.54 1725.96,294.54 1727.74,294.54 1729.52,294.54 1731.3,294.54 1733.08,294.54 1734.86,294.54 1736.64,294.54 1738.42,294.54 1740.2,294.54 1741.98,294.54 1743.76,294.54 1745.54,294.54 1747.33,294.54 1749.11,294.54 1750.89,294.54 1752.67,294.54 1754.45,294.54 1756.23,294.54 1758.01,294.54 1759.79,294.54 1761.57,294.54 1763.35,294.54 1765.13,294.54 1766.91,294.54 1768.69,294.54 1770.47,294.54 1772.25,294.54 1774.04,294.54 1775.82,294.54 1777.6,294.54 1779.38,294.54 1781.16,294.54 1782.94,294.54 1784.72,294.54 1786.5,294.54 1788.28,294.54 1790.06,294.54 1791.84,294.54 1793.62,294.54 1795.4,294.54 1797.18,294.54 1798.96,294.54 1800.75,294.54 1802.53,294.54 1804.31,294.54 1806.09,294.54 1807.87,294.54 1809.65,294.54 1811.43,294.54 1813.21,294.54 1814.99,294.54 1816.77,294.54 1818.55,294.54 1820.33,294.54 1822.11,294.54 1823.89,294.54 1825.67,294.54 1827.46,294.54 1829.24,294.54 1831.02,294.54 1832.8,294.54 1834.58,294.54 1836.36,294.54 1838.14,294.54 1839.92,294.54 1841.7,294.54 1843.48,294.54 1845.26,294.54 1847.04,294.54 1848.82,294.54 1850.6,294.54 1852.39,294.54 1854.17,294.54 1855.95,294.54 1857.73,294.54 1859.51,294.54 1861.29,294.54 1863.07,294.54 1864.85,294.54 1866.63,294.54 1868.41,294.54 1870.19,294.54 1871.97,294.54 1873.75,294.54 1875.53,294.54 1877.31,294.54 1879.1,294.54 1880.88,294.54 1882.66,294.54 1884.44,294.54 1886.22,294.54 1888,294.54 1889.78,294.54 1891.56,294.54 1893.34,294.54 1895.12,294.54 1896.9,294.54 1898.68,294.54 1900.46,294.54 1902.24,294.54 1904.02,294.54 1905.81,294.54 1907.59,294.54 1909.37,294.54 1911.15,294.54 1912.93,294.54 1914.71,294.54 1916.49,294.54 1918.27,294.54 1920.05,294.54 1921.83,294.54 1923.61,294.54 1925.39,294.54 1927.17,294.54 1928.95,294.54 1930.73,294.54 1932.52,294.54 1934.3,294.54 1936.08,294.54 1937.86,294.54 1939.64,294.54 1941.42,294.54 1943.2,294.54 1944.98,294.54 1946.76,294.54 1948.54,294.54 1950.32,294.54 1952.1,294.54 1953.88,294.54 1955.66,294.54 1957.45,294.54 1959.23,294.54 1961.01,294.54 1962.79,294.54 1964.57,294.54 1966.35,294.54 1968.13,294.54 1969.91,294.54 1971.69,294.54 1973.47,294.54 1975.25,294.54 1977.03,294.54 1978.81,294.54 1980.59,294.54 1982.37,294.54 1984.16,294.54 1985.94,294.54 1987.72,294.54 1989.5,294.54 1991.28,294.54 1993.06,294.54 1994.84,294.54 1996.62,294.54 1998.4,294.54 2000.18,294.54 2001.96,294.54 2003.74,294.54 2005.52,294.54 2007.3,294.54 2009.08,294.54 2010.87,294.54 2012.65,294.54 2014.43,294.54 2016.21,294.54 2017.99,294.54 2019.77,294.54 2021.55,294.54 2023.33,294.54 2025.11,294.54 2026.89,294.54 2028.67,294.54 2030.45,294.54 2032.23,294.54 2034.01,294.54 2035.8,294.54 2037.58,294.54 2039.36,294.54 2041.14,294.54 2042.92,294.54 2044.7,294.54 2046.48,294.54 2048.26,294.54 2050.04,294.54 2051.82,294.54 2053.6,294.54 2055.38,294.54 2057.16,294.54 2058.94,294.54 2060.72,294.54 2062.51,294.54 2064.29,294.54 2066.07,294.54 2067.85,294.54 2069.63,294.54 2071.41,294.54 2073.19,294.54 2074.97,294.54 2076.75,294.54 2078.53,294.54 2080.31,294.54 2082.09,294.54 2083.87,294.54 2085.65,294.54 2087.43,294.54 2089.22,294.54 2091,294.54 2092.78,294.54 2094.56,294.54 2096.34,294.54 2098.12,294.54 2099.9,294.54 2101.68,294.54 2103.46,294.54 2105.24,294.54 2107.02,294.54 2108.8,294.54 2110.58,294.54 2112.36,294.54 2114.14,294.54 2115.93,294.54 2117.71,294.54 2119.49,294.54 2121.27,294.54 2123.05,294.54 2124.83,294.54 2126.61,294.54 2128.39,294.54 2130.17,294.54 2131.95,294.54 2133.73,294.54 2135.51,294.54 2137.29,294.54 2139.07,294.54 2140.86,294.54 2142.64,294.54 2144.42,294.54 2146.2,294.54 2147.98,294.54 2149.76,294.54 2151.54,294.54 2153.32,294.54 2155.1,294.54 2156.88,294.54 2158.66,294.54 2160.44,294.54 2162.22,294.54 2164,294.54 2165.78,294.54 2167.57,294.54 2169.35,294.54 2171.13,294.54 2172.91,294.54 2174.69,294.54 2176.47,294.54 2178.25,294.54 2180.03,294.54 2181.81,294.54 2183.59,294.54 2185.37,294.54 2187.15,294.54 2188.93,294.54 2190.71,294.54 2192.49,294.54 2194.28,294.54 2196.06,294.54 2197.84,294.54 2199.62,294.54 2201.4,294.54 2203.18,294.54 2204.96,294.54 2206.74,294.54 2208.52,294.54 2210.3,294.54 2212.08,294.54 2213.86,294.54 2215.64,294.54 2217.42,294.54 2219.2,294.54 2220.99,294.54 2222.77,294.54 2224.55,294.54 2226.33,294.54 2228.11,294.54 2229.89,294.54 2231.67,294.54 2233.45,294.54 2235.23,294.54 2237.01,294.54 2238.79,294.54 2240.57,294.54 2242.35,294.54 2244.13,294.54 2245.92,294.54 2247.7,294.54 2249.48,294.54 2251.26,294.54 2253.04,294.54 2254.82,294.54 2256.6,294.54 2258.38,294.54 2260.16,294.54 2261.94,294.54 2263.72,294.54 2265.5,294.54 2267.28,294.54 2269.06,294.54 2270.84,294.54 2272.63,294.54 2274.41,294.54 2276.19,294.54 2277.97,294.54 2279.75,294.54 2281.53,294.54 2283.31,294.54 2285.09,294.54 2286.87,294.54 2288.65,294.54 2290.43,294.54 2292.21,294.54 2293.99,294.54 2295.77,294.54 2297.55,294.54 2299.34,294.54 2301.12,294.54 2302.9,294.54 2304.68,294.54 2306.46,294.54 2308.24,294.54 2310.02,294.54 2311.8,294.54 2313.58,294.54 2315.36,294.54 2317.14,294.54 2318.92,294.54 2320.7,294.54 2322.48,294.54 2324.27,294.54 2326.05,294.54 2327.83,294.54 2329.61,294.54 2331.39,294.54 2333.17,294.54 2334.95,294.54 2336.73,294.54 2338.51,294.54 2340.29,294.54 2342.07,294.54 2343.85,294.54 2345.63,294.54 2347.41,294.54 2349.19,294.54 2350.98,294.54 2352.76,294.54 "/>
<polyline clip-path="url(#clip681)" style="stroke:#e26f46; stroke-linecap:round; stroke-linejoin:round; stroke-width:4; stroke-opacity:1; fill:none" points="110.881,764.905 112.662,948.764 114.442,1092.9 116.223,1192.21 118.004,1260.03 119.784,1306.61 121.565,1337.81 123.346,1358 125.126,1370.55 126.907,1377.98 128.688,1382.02 130.468,1383.84 132.249,1384.24 134.03,1383.73 135.81,1382.65 137.591,1381.22 139.372,1379.6 141.152,1377.88 142.933,1376.12 144.714,1374.36 146.494,1372.63 148.275,1370.94 150.056,1369.31 151.837,1367.74 153.617,1366.23 155.398,1364.78 157.179,1363.39 158.959,1362.06 160.74,1360.79 162.521,1359.58 164.301,1358.42 166.082,1357.31 167.863,1356.24 169.643,1355.22 171.424,1354.25 173.205,1353.32 174.985,1352.43 176.766,1351.57 178.547,1350.75 180.327,1349.96 182.108,1349.21 183.889,1348.49 185.669,1347.79 187.45,1347.13 189.231,1346.49 191.011,1345.87 192.792,1345.28 194.573,1344.71 196.353,1344.17 198.134,1343.65 199.915,1343.14 201.696,1342.66 203.476,1342.19 205.257,1341.75 207.038,1341.32 208.818,1340.9 210.599,1340.5 212.38,1340.12 214.16,1339.75 215.941,1339.4 217.722,1339.05 219.502,1338.72 221.283,1338.41 223.064,1338.1 224.844,1337.81 226.625,1337.53 228.406,1337.26 230.186,1336.99 231.967,1336.74 233.748,1336.5 235.528,1336.26 237.309,1336.04 239.09,1335.82 240.87,1335.61 242.651,1335.41 244.432,1335.22 246.213,1335.03 247.993,1334.85 249.774,1334.67 251.555,1334.51 253.335,1334.35 255.116,1334.19 256.897,1334.04 258.677,1333.9 260.458,1333.76 262.239,1333.62 264.019,1333.49 265.8,1333.37 267.581,1333.25 269.361,1333.13 271.142,1333.02 272.923,1332.91 274.703,1332.81 276.484,1332.71 278.265,1332.61 280.045,1332.52 281.826,1332.43 283.607,1332.35 285.387,1332.26 287.168,1332.18 288.949,1332.1 290.729,1332.03 292.51,1331.96 294.291,1331.89 296.072,1331.82 297.852,1331.76 299.633,1331.7 301.414,1331.64 303.194,1331.58 304.975,1331.52 306.756,1331.47 308.536,1331.42 310.317,1331.37 312.098,1331.32 313.878,1331.27 315.659,1331.23 317.44,1331.19 319.22,1331.15 321.001,1331.11 322.782,1331.07 324.562,1331.03 326.343,1330.99 328.124,1330.96 329.904,1330.93 331.685,1330.89 333.466,1330.86 335.246,1330.83 337.027,1330.8 338.808,1330.78 340.588,1330.75 342.369,1330.72 344.15,1330.7 345.931,1330.67 347.711,1330.65 349.492,1330.63 351.273,1330.61 353.053,1330.59 354.834,1330.57 356.615,1330.55 358.395,1330.53 360.176,1330.51 361.957,1330.49 363.737,1330.48 365.518,1330.46 367.299,1330.45 369.079,1330.43 370.86,1330.42 372.641,1330.4 374.421,1330.39 376.202,1330.38 377.983,1330.36 379.763,1330.35 381.544,1330.34 383.325,1330.33 385.105,1330.32 386.886,1330.31 388.667,1330.3 390.448,1330.29 392.228,1330.28 394.009,1330.27 395.79,1330.26 397.57,1330.25 399.351,1330.24 401.132,1330.24 402.912,1330.23 404.693,1330.22 406.474,1330.21 408.254,1330.21 410.035,1330.2 411.816,1330.2 413.596,1330.19 415.377,1330.18 417.158,1330.18 418.938,1330.17 420.719,1330.17 422.5,1330.16 424.28,1330.16 426.061,1330.15 427.842,1330.15 429.622,1330.14 431.403,1330.14 433.184,1330.14 434.964,1330.13 436.745,1330.13 438.526,1330.12 440.307,1330.12 442.087,1330.12 443.868,1330.11 445.649,1330.11 447.429,1330.11 449.21,1330.11 450.991,1330.1 452.771,1330.1 454.552,1330.1 456.333,1330.09 458.113,1330.09 459.894,1330.09 461.675,1330.09 463.455,1330.09 465.236,1330.08 467.017,1330.08 468.797,1330.08 470.578,1330.08 472.359,1330.08 474.139,1330.07 475.92,1330.07 477.701,1330.07 479.481,1330.07 481.262,1330.07 483.043,1330.07 484.824,1330.06 486.604,1330.06 488.385,1330.06 490.166,1330.06 491.946,1330.06 493.727,1330.06 495.508,1330.06 497.288,1330.06 499.069,1330.05 500.85,1330.05 502.63,1330.05 504.411,1330.05 506.192,1330.05 507.972,1330.05 509.753,1330.05 511.534,1330.05 513.314,1330.05 515.095,1330.05 516.876,1330.05 518.656,1330.05 520.437,1330.04 522.218,1330.04 523.998,1330.04 525.779,1330.04 527.56,1330.04 529.34,1330.04 531.121,1330.04 532.902,1330.04 534.683,1330.04 536.463,1330.04 538.244,1330.04 540.025,1330.04 541.805,1330.04 543.586,1330.04 545.367,1330.04 547.147,1330.04 548.928,1330.04 550.709,1330.04 552.489,1330.04 554.27,1330.04 556.051,1330.04 557.831,1330.03 559.612,1330.03 561.393,1330.03 563.173,1330.03 564.954,1330.03 566.735,1330.03 568.515,1330.03 570.296,1330.03 572.077,1330.03 573.857,1330.03 575.638,1330.03 577.419,1330.03 579.199,1330.03 580.98,1330.03 582.761,1330.03 584.542,1330.03 586.322,1330.03 588.103,1330.03 589.884,1330.03 591.664,1330.03 593.445,1330.03 595.226,1330.03 597.006,1330.03 598.787,1330.03 600.568,1330.03 602.348,1330.03 604.129,1330.03 605.91,1330.03 607.69,1330.03 609.471,1330.03 611.252,1330.03 613.032,1330.03 614.813,1330.03 616.594,1330.03 618.374,1330.03 620.155,1330.03 621.936,1330.03 623.716,1330.03 625.497,1330.03 627.278,1330.03 629.059,1330.03 630.839,1330.03 632.62,1330.03 634.401,1330.03 636.181,1330.03 637.962,1330.03 639.743,1330.03 641.523,1330.03 643.304,1330.03 645.085,1330.03 646.865,1330.03 648.646,1330.03 650.427,1330.03 652.207,1330.03 653.988,1330.03 655.769,1330.03 657.549,1330.03 659.33,1330.03 661.111,1330.03 662.891,1330.03 664.672,1330.03 666.453,1330.03 668.233,1330.03 670.014,1330.03 671.795,1330.03 673.575,1330.03 675.356,1330.03 677.137,1330.03 678.918,1330.03 680.698,1330.03 682.479,1330.03 684.26,1330.03 686.04,1330.03 687.821,1330.03 689.602,1330.03 691.382,1330.03 693.163,1330.03 694.944,1330.03 696.724,1330.03 698.505,1330.03 700.286,1330.03 702.066,1330.03 703.847,1330.03 705.628,1330.03 707.408,1330.03 709.189,1330.03 710.97,1330.03 712.75,1330.03 714.531,1330.03 716.312,1330.03 718.092,1330.03 719.873,1330.03 721.654,1330.03 723.435,1330.03 725.215,1330.03 726.996,1330.03 728.777,1330.03 730.557,1330.03 732.338,1330.03 734.119,1330.03 735.899,1330.03 737.68,1330.03 739.461,1330.03 741.241,1330.03 743.022,1330.03 744.803,1330.03 746.583,1330.03 748.364,1330.03 750.145,1330.03 751.925,1330.03 753.706,1330.03 755.487,1330.03 757.267,1330.03 759.048,1330.03 760.829,1330.03 762.609,1330.03 764.39,1330.03 766.171,1330.03 767.951,1330.03 769.732,1330.03 771.513,1330.03 773.294,1330.03 775.074,1330.03 776.855,1330.03 778.636,1330.03 780.416,1330.03 782.197,1330.03 783.978,1330.03 785.758,1330.03 787.539,1330.03 789.32,1330.03 791.1,1330.03 792.881,1330.03 794.662,1330.03 796.442,1330.03 798.223,1330.03 800.004,1330.03 801.784,1330.03 803.565,1330.03 805.346,1330.03 807.126,1330.03 808.907,1330.03 810.688,1330.03 812.468,1330.03 814.249,1330.03 816.03,1330.03 817.81,1330.03 819.591,1330.03 821.372,1330.03 823.153,1330.03 824.933,1330.03 826.714,1330.03 828.495,1330.03 830.275,1330.03 832.056,1330.03 833.837,1330.03 835.617,1330.03 837.398,1330.03 839.179,1330.03 840.959,1330.03 842.74,1330.03 844.521,1330.03 846.301,1330.03 848.082,1330.03 849.863,1330.03 851.643,1330.03 853.424,1330.03 855.205,1330.03 856.985,1330.03 858.766,1330.03 860.547,1330.03 862.327,1330.03 864.108,1330.03 865.889,1330.03 867.67,1330.03 869.45,1330.03 871.231,1330.03 873.012,1330.03 874.792,1330.03 876.573,1330.03 878.354,1330.03 880.134,1330.03 881.915,1330.03 883.696,1330.03 885.476,1330.03 887.257,1330.03 889.038,1330.03 890.818,1330.03 892.599,1330.03 894.38,1330.03 896.16,1330.03 897.941,1330.03 899.722,1330.03 901.502,1330.03 903.283,1330.03 905.064,1330.03 906.844,1330.03 908.625,1330.03 910.406,1330.03 912.186,1330.03 913.967,1330.03 915.748,1330.03 917.529,1330.03 919.309,1330.03 921.09,1330.03 922.871,1330.03 924.651,1330.03 926.432,1330.03 928.213,1330.03 929.993,1330.03 931.774,1330.03 933.555,1330.03 935.335,1330.03 937.116,1330.03 938.897,1330.03 940.677,1330.03 942.458,1330.03 944.239,1330.03 946.019,1330.03 947.8,1330.03 949.581,1330.03 951.361,1330.03 953.142,1330.03 954.923,1330.03 956.703,1330.03 958.484,1330.03 960.265,1330.03 962.046,1330.03 963.826,1330.03 965.607,1330.03 967.388,1330.03 969.168,1330.03 970.949,1330.03 972.73,1330.03 974.51,1330.03 976.291,1330.03 978.072,1330.03 979.852,1330.03 981.633,1330.03 983.414,1330.03 985.194,1330.03 986.975,1330.03 988.756,1330.03 990.536,1330.03 992.317,1330.03 994.098,1330.03 995.878,1330.03 997.659,1330.03 999.44,1330.03 1001.22,1330.03 1003,1330.03 1004.78,1330.03 1006.56,1330.03 1008.34,1330.03 1010.12,1330.03 1011.9,1330.03 1013.69,1330.03 1015.47,1330.03 1017.25,1330.03 1019.03,1330.03 1020.81,1330.03 1022.59,1330.03 1024.37,1330.03 1026.15,1330.03 1027.93,1330.03 1029.71,1330.03 1031.49,1330.03 1033.27,1330.03 1035.05,1330.03 1036.83,1330.03 1038.61,1330.03 1040.4,1330.03 1042.18,1330.03 1043.96,1330.03 1045.74,1330.03 1047.52,1330.03 1049.3,1330.03 1051.08,1330.03 1052.86,1330.03 1054.64,1330.03 1056.42,1330.03 1058.2,1330.03 1059.98,1330.03 1061.76,1330.03 1063.54,1330.03 1065.32,1330.03 1067.11,1330.03 1068.89,1330.03 1070.67,1330.03 1072.45,1330.03 1074.23,1330.03 1076.01,1330.03 1077.79,1330.03 1079.57,1330.03 1081.35,1330.03 1083.13,1330.03 1084.91,1330.03 1086.69,1330.03 1088.47,1330.03 1090.25,1330.03 1092.04,1330.03 1093.82,1330.03 1095.6,1330.03 1097.38,1330.03 1099.16,1330.03 1100.94,1330.03 1102.72,1330.03 1104.5,1330.03 1106.28,1330.03 1108.06,1330.03 1109.84,1330.03 1111.62,1330.03 1113.4,1330.03 1115.18,1330.03 1116.96,1330.03 1118.75,1330.03 1120.53,1330.03 1122.31,1330.03 1124.09,1330.03 1125.87,1330.03 1127.65,1330.03 1129.43,1330.03 1131.21,1330.03 1132.99,1330.03 1134.77,1330.03 1136.55,1330.03 1138.33,1330.03 1140.11,1330.03 1141.89,1330.03 1143.67,1330.03 1145.46,1330.03 1147.24,1330.03 1149.02,1330.03 1150.8,1330.03 1152.58,1330.03 1154.36,1330.03 1156.14,1330.03 1157.92,1330.03 1159.7,1330.03 1161.48,1330.03 1163.26,1330.03 1165.04,1330.03 1166.82,1330.03 1168.6,1330.03 1170.38,1330.03 1172.17,1330.03 1173.95,1330.03 1175.73,1330.03 1177.51,1330.03 1179.29,1330.03 1181.07,1330.03 1182.85,1330.03 1184.63,1330.03 1186.41,1330.03 1188.19,1330.03 1189.97,1330.03 1191.75,1330.03 1193.53,1330.03 1195.31,1330.03 1197.1,1330.03 1198.88,1330.03 1200.66,1330.03 1202.44,1330.03 1204.22,1330.03 1206,1330.03 1207.78,1330.03 1209.56,1330.03 1211.34,1330.03 1213.12,1330.03 1214.9,1330.03 1216.68,1330.03 1218.46,1330.03 1220.24,1330.03 1222.02,1330.03 1223.81,1330.03 1225.59,1330.03 1227.37,1330.03 1229.15,1330.03 1230.93,1330.03 1232.71,1330.03 1234.49,1330.03 1236.27,1330.03 1238.05,1330.03 1239.83,1330.03 1241.61,1330.03 1243.39,1330.03 1245.17,1330.03 1246.95,1330.03 1248.73,1330.03 1250.52,1330.03 1252.3,1330.03 1254.08,1330.03 1255.86,1330.03 1257.64,1330.03 1259.42,1330.03 1261.2,1330.03 1262.98,1330.03 1264.76,1330.03 1266.54,1330.03 1268.32,1330.03 1270.1,1330.03 1271.88,1330.03 1273.66,1330.03 1275.45,1330.03 1277.23,1330.03 1279.01,1330.03 1280.79,1330.03 1282.57,1330.03 1284.35,1330.03 1286.13,1330.03 1287.91,1330.03 1289.69,1330.03 1291.47,1330.03 1293.25,1330.03 1295.03,1330.03 1296.81,1330.03 1298.59,1330.03 1300.37,1330.03 1302.16,1330.03 1303.94,1330.03 1305.72,1330.03 1307.5,1330.03 1309.28,1330.03 1311.06,1330.03 1312.84,1330.03 1314.62,1330.03 1316.4,1330.03 1318.18,1330.03 1319.96,1330.03 1321.74,1330.03 1323.52,1330.03 1325.3,1330.03 1327.08,1330.03 1328.87,1330.03 1330.65,1330.03 1332.43,1330.03 1334.21,1330.03 1335.99,1330.03 1337.77,1330.03 1339.55,1330.03 1341.33,1330.03 1343.11,1330.03 1344.89,1330.03 1346.67,1330.03 1348.45,1330.03 1350.23,1330.03 1352.01,1330.03 1353.79,1330.03 1355.58,1330.03 1357.36,1330.03 1359.14,1330.03 1360.92,1330.03 1362.7,1330.03 1364.48,1330.03 1366.26,1330.03 1368.04,1330.03 1369.82,1330.03 1371.6,1330.03 1373.38,1330.03 1375.16,1330.03 1376.94,1330.03 1378.72,1330.03 1380.51,1330.03 1382.29,1330.03 1384.07,1330.03 1385.85,1330.03 1387.63,1330.03 1389.41,1330.03 1391.19,1330.03 1392.97,1330.03 1394.75,1330.03 1396.53,1330.03 1398.31,1330.03 1400.09,1330.03 1401.87,1330.03 1403.65,1330.03 1405.43,1330.03 1407.22,1330.03 1409,1330.03 1410.78,1330.03 1412.56,1330.03 1414.34,1330.03 1416.12,1330.03 1417.9,1330.03 1419.68,1330.03 1421.46,1330.03 1423.24,1330.03 1425.02,1330.03 1426.8,1330.03 1428.58,1330.03 1430.36,1330.03 1432.14,1330.03 1433.93,1330.03 1435.71,1330.03 1437.49,1330.03 1439.27,1330.03 1441.05,1330.03 1442.83,1330.03 1444.61,1330.03 1446.39,1330.03 1448.17,1330.03 1449.95,1330.03 1451.73,1330.03 1453.51,1330.03 1455.29,1330.03 1457.07,1330.03 1458.85,1330.03 1460.64,1330.03 1462.42,1330.03 1464.2,1330.03 1465.98,1330.03 1467.76,1330.03 1469.54,1330.03 1471.32,1330.03 1473.1,1330.03 1474.88,1330.03 1476.66,1330.03 1478.44,1330.03 1480.22,1330.03 1482,1330.03 1483.78,1330.03 1485.57,1330.03 1487.35,1330.03 1489.13,1330.03 1490.91,1330.03 1492.69,1330.03 1494.47,1330.03 1496.25,1330.03 1498.03,1330.03 1499.81,1330.03 1501.59,1330.03 1503.37,1330.03 1505.15,1330.03 1506.93,1330.03 1508.71,1330.03 1510.49,1330.03 1512.28,1330.03 1514.06,1330.03 1515.84,1330.03 1517.62,1330.03 1519.4,1330.03 1521.18,1330.03 1522.96,1330.03 1524.74,1330.03 1526.52,1330.03 1528.3,1330.03 1530.08,1330.03 1531.86,1330.03 1533.64,1330.03 1535.42,1330.03 1537.2,1330.03 1538.99,1330.03 1540.77,1330.03 1542.55,1330.03 1544.33,1330.03 1546.11,1330.03 1547.89,1330.03 1549.67,1330.03 1551.45,1330.03 1553.23,1330.03 1555.01,1330.03 1556.79,1330.03 1558.57,1330.03 1560.35,1330.03 1562.13,1330.03 1563.92,1330.03 1565.7,1330.03 1567.48,1330.03 1569.26,1330.03 1571.04,1330.03 1572.82,1330.03 1574.6,1330.03 1576.38,1330.03 1578.16,1330.03 1579.94,1330.03 1581.72,1330.03 1583.5,1330.03 1585.28,1330.03 1587.06,1330.03 1588.84,1330.03 1590.63,1330.03 1592.41,1330.03 1594.19,1330.03 1595.97,1330.03 1597.75,1330.03 1599.53,1330.03 1601.31,1330.03 1603.09,1330.03 1604.87,1330.03 1606.65,1330.03 1608.43,1330.03 1610.21,1330.03 1611.99,1330.03 1613.77,1330.03 1615.55,1330.03 1617.34,1330.03 1619.12,1330.03 1620.9,1330.03 1622.68,1330.03 1624.46,1330.03 1626.24,1330.03 1628.02,1330.03 1629.8,1330.03 1631.58,1330.03 1633.36,1330.03 1635.14,1330.03 1636.92,1330.03 1638.7,1330.03 1640.48,1330.03 1642.26,1330.03 1644.05,1330.03 1645.83,1330.03 1647.61,1330.03 1649.39,1330.03 1651.17,1330.03 1652.95,1330.03 1654.73,1330.03 1656.51,1330.03 1658.29,1330.03 1660.07,1330.03 1661.85,1330.03 1663.63,1330.03 1665.41,1330.03 1667.19,1330.03 1668.98,1330.03 1670.76,1330.03 1672.54,1330.03 1674.32,1330.03 1676.1,1330.03 1677.88,1330.03 1679.66,1330.03 1681.44,1330.03 1683.22,1330.03 1685,1330.03 1686.78,1330.03 1688.56,1330.03 1690.34,1330.03 1692.12,1330.03 1693.9,1330.03 1695.69,1330.03 1697.47,1330.03 1699.25,1330.03 1701.03,1330.03 1702.81,1330.03 1704.59,1330.03 1706.37,1330.03 1708.15,1330.03 1709.93,1330.03 1711.71,1330.03 1713.49,1330.03 1715.27,1330.03 1717.05,1330.03 1718.83,1330.03 1720.61,1330.03 1722.4,1330.03 1724.18,1330.03 1725.96,1330.03 1727.74,1330.03 1729.52,1330.03 1731.3,1330.03 1733.08,1330.03 1734.86,1330.03 1736.64,1330.03 1738.42,1330.03 1740.2,1330.03 1741.98,1330.03 1743.76,1330.03 1745.54,1330.03 1747.33,1330.03 1749.11,1330.03 1750.89,1330.03 1752.67,1330.03 1754.45,1330.03 1756.23,1330.03 1758.01,1330.03 1759.79,1330.03 1761.57,1330.03 1763.35,1330.03 1765.13,1330.03 1766.91,1330.03 1768.69,1330.03 1770.47,1330.03 1772.25,1330.03 1774.04,1330.03 1775.82,1330.03 1777.6,1330.03 1779.38,1330.03 1781.16,1330.03 1782.94,1330.03 1784.72,1330.03 1786.5,1330.03 1788.28,1330.03 1790.06,1330.03 1791.84,1330.03 1793.62,1330.03 1795.4,1330.03 1797.18,1330.03 1798.96,1330.03 1800.75,1330.03 1802.53,1330.03 1804.31,1330.03 1806.09,1330.03 1807.87,1330.03 1809.65,1330.03 1811.43,1330.03 1813.21,1330.03 1814.99,1330.03 1816.77,1330.03 1818.55,1330.03 1820.33,1330.03 1822.11,1330.03 1823.89,1330.03 1825.67,1330.03 1827.46,1330.03 1829.24,1330.03 1831.02,1330.03 1832.8,1330.03 1834.58,1330.03 1836.36,1330.03 1838.14,1330.03 1839.92,1330.03 1841.7,1330.03 1843.48,1330.03 1845.26,1330.03 1847.04,1330.03 1848.82,1330.03 1850.6,1330.03 1852.39,1330.03 1854.17,1330.03 1855.95,1330.03 1857.73,1330.03 1859.51,1330.03 1861.29,1330.03 1863.07,1330.03 1864.85,1330.03 1866.63,1330.03 1868.41,1330.03 1870.19,1330.03 1871.97,1330.03 1873.75,1330.03 1875.53,1330.03 1877.31,1330.03 1879.1,1330.03 1880.88,1330.03 1882.66,1330.03 1884.44,1330.03 1886.22,1330.03 1888,1330.03 1889.78,1330.03 1891.56,1330.03 1893.34,1330.03 1895.12,1330.03 1896.9,1330.03 1898.68,1330.03 1900.46,1330.03 1902.24,1330.03 1904.02,1330.03 1905.81,1330.03 1907.59,1330.03 1909.37,1330.03 1911.15,1330.03 1912.93,1330.03 1914.71,1330.03 1916.49,1330.03 1918.27,1330.03 1920.05,1330.03 1921.83,1330.03 1923.61,1330.03 1925.39,1330.03 1927.17,1330.03 1928.95,1330.03 1930.73,1330.03 1932.52,1330.03 1934.3,1330.03 1936.08,1330.03 1937.86,1330.03 1939.64,1330.03 1941.42,1330.03 1943.2,1330.03 1944.98,1330.03 1946.76,1330.03 1948.54,1330.03 1950.32,1330.03 1952.1,1330.03 1953.88,1330.03 1955.66,1330.03 1957.45,1330.03 1959.23,1330.03 1961.01,1330.03 1962.79,1330.03 1964.57,1330.03 1966.35,1330.03 1968.13,1330.03 1969.91,1330.03 1971.69,1330.03 1973.47,1330.03 1975.25,1330.03 1977.03,1330.03 1978.81,1330.03 1980.59,1330.03 1982.37,1330.03 1984.16,1330.03 1985.94,1330.03 1987.72,1330.03 1989.5,1330.03 1991.28,1330.03 1993.06,1330.03 1994.84,1330.03 1996.62,1330.03 1998.4,1330.03 2000.18,1330.03 2001.96,1330.03 2003.74,1330.03 2005.52,1330.03 2007.3,1330.03 2009.08,1330.03 2010.87,1330.03 2012.65,1330.03 2014.43,1330.03 2016.21,1330.03 2017.99,1330.03 2019.77,1330.03 2021.55,1330.03 2023.33,1330.03 2025.11,1330.03 2026.89,1330.03 2028.67,1330.03 2030.45,1330.03 2032.23,1330.03 2034.01,1330.03 2035.8,1330.03 2037.58,1330.03 2039.36,1330.03 2041.14,1330.03 2042.92,1330.03 2044.7,1330.03 2046.48,1330.03 2048.26,1330.03 2050.04,1330.03 2051.82,1330.03 2053.6,1330.03 2055.38,1330.03 2057.16,1330.03 2058.94,1330.03 2060.72,1330.03 2062.51,1330.03 2064.29,1330.03 2066.07,1330.03 2067.85,1330.03 2069.63,1330.03 2071.41,1330.03 2073.19,1330.03 2074.97,1330.03 2076.75,1330.03 2078.53,1330.03 2080.31,1330.03 2082.09,1330.03 2083.87,1330.03 2085.65,1330.03 2087.43,1330.03 2089.22,1330.03 2091,1330.03 2092.78,1330.03 2094.56,1330.03 2096.34,1330.03 2098.12,1330.03 2099.9,1330.03 2101.68,1330.03 2103.46,1330.03 2105.24,1330.03 2107.02,1330.03 2108.8,1330.03 2110.58,1330.03 2112.36,1330.03 2114.14,1330.03 2115.93,1330.03 2117.71,1330.03 2119.49,1330.03 2121.27,1330.03 2123.05,1330.03 2124.83,1330.03 2126.61,1330.03 2128.39,1330.03 2130.17,1330.03 2131.95,1330.03 2133.73,1330.03 2135.51,1330.03 2137.29,1330.03 2139.07,1330.03 2140.86,1330.03 2142.64,1330.03 2144.42,1330.03 2146.2,1330.03 2147.98,1330.03 2149.76,1330.03 2151.54,1330.03 2153.32,1330.03 2155.1,1330.03 2156.88,1330.03 2158.66,1330.03 2160.44,1330.03 2162.22,1330.03 2164,1330.03 2165.78,1330.03 2167.57,1330.03 2169.35,1330.03 2171.13,1330.03 2172.91,1330.03 2174.69,1330.03 2176.47,1330.03 2178.25,1330.03 2180.03,1330.03 2181.81,1330.03 2183.59,1330.03 2185.37,1330.03 2187.15,1330.03 2188.93,1330.03 2190.71,1330.03 2192.49,1330.03 2194.28,1330.03 2196.06,1330.03 2197.84,1330.03 2199.62,1330.03 2201.4,1330.03 2203.18,1330.03 2204.96,1330.03 2206.74,1330.03 2208.52,1330.03 2210.3,1330.03 2212.08,1330.03 2213.86,1330.03 2215.64,1330.03 2217.42,1330.03 2219.2,1330.03 2220.99,1330.03 2222.77,1330.03 2224.55,1330.03 2226.33,1330.03 2228.11,1330.03 2229.89,1330.03 2231.67,1330.03 2233.45,1330.03 2235.23,1330.03 2237.01,1330.03 2238.79,1330.03 2240.57,1330.03 2242.35,1330.03 2244.13,1330.03 2245.92,1330.03 2247.7,1330.03 2249.48,1330.03 2251.26,1330.03 2253.04,1330.03 2254.82,1330.03 2256.6,1330.03 2258.38,1330.03 2260.16,1330.03 2261.94,1330.03 2263.72,1330.03 2265.5,1330.03 2267.28,1330.03 2269.06,1330.03 2270.84,1330.03 2272.63,1330.03 2274.41,1330.03 2276.19,1330.03 2277.97,1330.03 2279.75,1330.03 2281.53,1330.03 2283.31,1330.03 2285.09,1330.03 2286.87,1330.03 2288.65,1330.03 2290.43,1330.03 2292.21,1330.03 2293.99,1330.03 2295.77,1330.03 2297.55,1330.03 2299.34,1330.03 2301.12,1330.03 2302.9,1330.03 2304.68,1330.03 2306.46,1330.03 2308.24,1330.03 2310.02,1330.03 2311.8,1330.03 2313.58,1330.03 2315.36,1330.03 2317.14,1330.03 2318.92,1330.03 2320.7,1330.03 2322.48,1330.03 2324.27,1330.03 2326.05,1330.03 2327.83,1330.03 2329.61,1330.03 2331.39,1330.03 2333.17,1330.03 2334.95,1330.03 2336.73,1330.03 2338.51,1330.03 2340.29,1330.03 2342.07,1330.03 2343.85,1330.03 2345.63,1330.03 2347.41,1330.03 2349.19,1330.03 2350.98,1330.03 2352.76,1330.03 "/>
<path clip-path="url(#clip680)" d="M1986.29 248.629 L2278.03 248.629 L2278.03 93.1086 L1986.29 93.1086  Z" fill="#ffffff" fill-rule="evenodd" fill-opacity="1"/>
<polyline clip-path="url(#clip680)" style="stroke:#000000; stroke-linecap:round; stroke-linejoin:round; stroke-width:4; stroke-opacity:1; fill:none" points="1986.29,248.629 2278.03,248.629 2278.03,93.1086 1986.29,93.1086 1986.29,248.629 "/>
<polyline clip-path="url(#clip680)" style="stroke:#009af9; stroke-linecap:round; stroke-linejoin:round; stroke-width:4; stroke-opacity:1; fill:none" points="2011.2,144.949 2160.66,144.949 "/>
<path clip-path="url(#clip680)" d="M2204.83 145.794 L2190.08 145.794 Q2190.43 152.715 2192.03 155.655 Q2194.02 159.266 2197.47 159.266 Q2200.94 159.266 2202.86 155.631 Q2204.55 152.437 2204.83 145.794 M2204.76 141.858 Q2204.11 135.284 2202.86 132.97 Q2200.87 129.312 2197.47 129.312 Q2193.93 129.312 2192.05 132.923 Q2190.57 135.84 2190.13 141.858 L2204.76 141.858 M2197.47 125.84 Q2203.02 125.84 2206.2 130.747 Q2209.37 135.632 2209.37 144.289 Q2209.37 152.923 2206.2 157.83 Q2203.02 162.761 2197.47 162.761 Q2191.89 162.761 2188.74 157.83 Q2185.57 152.923 2185.57 144.289 Q2185.57 135.632 2188.74 130.747 Q2191.89 125.84 2197.47 125.84 Z" fill="#000000" fill-rule="nonzero" fill-opacity="1" /><polyline clip-path="url(#clip680)" style="stroke:#e26f46; stroke-linecap:round; stroke-linejoin:round; stroke-width:4; stroke-opacity:1; fill:none" points="2011.2,196.789 2160.66,196.789 "/>
<path clip-path="url(#clip680)" d="M2204.83 197.634 L2190.08 197.634 Q2190.43 204.555 2192.03 207.495 Q2194.02 211.106 2197.47 211.106 Q2200.94 211.106 2202.86 207.471 Q2204.55 204.277 2204.83 197.634 M2204.76 193.698 Q2204.11 187.124 2202.86 184.81 Q2200.87 181.152 2197.47 181.152 Q2193.93 181.152 2192.05 184.763 Q2190.57 187.68 2190.13 193.698 L2204.76 193.698 M2197.47 177.68 Q2203.02 177.68 2206.2 182.587 Q2209.37 187.472 2209.37 196.129 Q2209.37 204.763 2206.2 209.67 Q2203.02 214.601 2197.47 214.601 Q2191.89 214.601 2188.74 209.67 Q2185.57 204.763 2185.57 196.129 Q2185.57 187.472 2188.74 182.587 Q2191.89 177.68 2197.47 177.68 Z" fill="#000000" fill-rule="nonzero" fill-opacity="1" /><path clip-path="url(#clip680)" d="M2216.89 218.05 L2230.73 218.05 L2230.73 221.476 L2216.89 221.476 L2216.89 218.05 Z" fill="#000000" fill-rule="nonzero" fill-opacity="1" /><path clip-path="url(#clip680)" d="M2244.34 180.782 L2244.34 188.143 L2253.12 188.143 L2253.12 191.453 L2244.34 191.453 L2244.34 205.527 Q2244.34 208.698 2245.2 209.601 Q2246.08 210.504 2248.74 210.504 L2253.12 210.504 L2253.12 214.069 L2248.74 214.069 Q2243.81 214.069 2241.94 212.24 Q2240.06 210.388 2240.06 205.527 L2240.06 191.453 L2236.94 191.453 L2236.94 188.143 L2240.06 188.143 L2240.06 180.782 L2244.34 180.782 Z" fill="#000000" fill-rule="nonzero" fill-opacity="1" /></svg>
