<?xml version="1.0" encoding="utf-8"?>
<svg xmlns="http://www.w3.org/2000/svg" xmlns:xlink="http://www.w3.org/1999/xlink" width="600" height="400" viewBox="0 0 2400 1600">
<defs>
  <clipPath id="clip560">
    <rect x="0" y="0" width="2400" height="1600"/>
  </clipPath>
</defs>
<path clip-path="url(#clip560)" d="M0 1600 L2400 1600 L2400 0 L0 0  Z" fill="#ffffff" fill-rule="evenodd" fill-opacity="1"/>
<defs>
  <clipPath id="clip561">
    <rect x="288" y="123" width="2065" height="1301"/>
  </clipPath>
</defs>
<path clip-path="url(#clip560)" d="M288.311 1423.18 L2352.76 1423.18 L2352.76 123.472 L288.311 123.472  Z" fill="#ffffff" fill-rule="evenodd" fill-opacity="1"/>
<polyline clip-path="url(#clip561)" style="stroke:#000000; stroke-linecap:round; stroke-linejoin:round; stroke-width:2; stroke-opacity:0.1; fill:none" points="335.735,1423.18 335.735,123.472 "/>
<polyline clip-path="url(#clip561)" style="stroke:#000000; stroke-linecap:round; stroke-linejoin:round; stroke-width:2; stroke-opacity:0.1; fill:none" points="885.902,1423.18 885.902,123.472 "/>
<polyline clip-path="url(#clip561)" style="stroke:#000000; stroke-linecap:round; stroke-linejoin:round; stroke-width:2; stroke-opacity:0.1; fill:none" points="1436.07,1423.18 1436.07,123.472 "/>
<polyline clip-path="url(#clip561)" style="stroke:#000000; stroke-linecap:round; stroke-linejoin:round; stroke-width:2; stroke-opacity:0.1; fill:none" points="1986.23,1423.18 1986.23,123.472 "/>
<polyline clip-path="url(#clip561)" style="stroke:#000000; stroke-linecap:round; stroke-linejoin:round; stroke-width:2; stroke-opacity:0.1; fill:none" points="288.311,957.905 2352.76,957.905 "/>
<polyline clip-path="url(#clip561)" style="stroke:#000000; stroke-linecap:round; stroke-linejoin:round; stroke-width:2; stroke-opacity:0.1; fill:none" points="288.311,459.488 2352.76,459.488 "/>
<polyline clip-path="url(#clip560)" style="stroke:#000000; stroke-linecap:round; stroke-linejoin:round; stroke-width:4; stroke-opacity:1; fill:none" points="288.311,1423.18 2352.76,1423.18 "/>
<polyline clip-path="url(#clip560)" style="stroke:#000000; stroke-linecap:round; stroke-linejoin:round; stroke-width:4; stroke-opacity:1; fill:none" points="335.735,1423.18 335.735,1404.28 "/>
<polyline clip-path="url(#clip560)" style="stroke:#000000; stroke-linecap:round; stroke-linejoin:round; stroke-width:4; stroke-opacity:1; fill:none" points="885.902,1423.18 885.902,1404.28 "/>
<polyline clip-path="url(#clip560)" style="stroke:#000000; stroke-linecap:round; stroke-linejoin:round; stroke-width:4; stroke-opacity:1; fill:none" points="1436.07,1423.18 1436.07,1404.28 "/>
<polyline clip-path="url(#clip560)" style="stroke:#000000; stroke-linecap:round; stroke-linejoin:round; stroke-width:4; stroke-opacity:1; fill:none" points="1986.23,1423.18 1986.23,1404.28 "/>
<path clip-path="url(#clip560)" d="M335.735 1454.1 Q332.124 1454.1 330.295 1457.66 Q328.49 1461.2 328.49 1468.33 Q328.49 1475.44 330.295 1479.01 Q332.124 1482.55 335.735 1482.55 Q339.369 1482.55 341.175 1479.01 Q343.003 1475.44 343.003 1468.33 Q343.003 1461.2 341.175 1457.66 Q339.369 1454.1 335.735 1454.1 M335.735 1450.39 Q341.545 1450.39 344.601 1455 Q347.679 1459.58 347.679 1468.33 Q347.679 1477.06 344.601 1481.67 Q341.545 1486.25 335.735 1486.25 Q329.925 1486.25 326.846 1481.67 Q323.791 1477.06 323.791 1468.33 Q323.791 1459.58 326.846 1455 Q329.925 1450.39 335.735 1450.39 Z" fill="#000000" fill-rule="nonzero" fill-opacity="1" /><path clip-path="url(#clip560)" d="M845.508 1481.64 L853.147 1481.64 L853.147 1455.28 L844.837 1456.95 L844.837 1452.69 L853.101 1451.02 L857.777 1451.02 L857.777 1481.64 L865.416 1481.64 L865.416 1485.58 L845.508 1485.58 L845.508 1481.64 Z" fill="#000000" fill-rule="nonzero" fill-opacity="1" /><path clip-path="url(#clip560)" d="M884.86 1454.1 Q881.249 1454.1 879.42 1457.66 Q877.615 1461.2 877.615 1468.33 Q877.615 1475.44 879.42 1479.01 Q881.249 1482.55 884.86 1482.55 Q888.494 1482.55 890.3 1479.01 Q892.128 1475.44 892.128 1468.33 Q892.128 1461.2 890.3 1457.66 Q888.494 1454.1 884.86 1454.1 M884.86 1450.39 Q890.67 1450.39 893.726 1455 Q896.804 1459.58 896.804 1468.33 Q896.804 1477.06 893.726 1481.67 Q890.67 1486.25 884.86 1486.25 Q879.05 1486.25 875.971 1481.67 Q872.916 1477.06 872.916 1468.33 Q872.916 1459.58 875.971 1455 Q879.05 1450.39 884.86 1450.39 Z" fill="#000000" fill-rule="nonzero" fill-opacity="1" /><path clip-path="url(#clip560)" d="M915.022 1454.1 Q911.411 1454.1 909.582 1457.66 Q907.777 1461.2 907.777 1468.33 Q907.777 1475.44 909.582 1479.01 Q911.411 1482.55 915.022 1482.55 Q918.656 1482.55 920.462 1479.01 Q922.29 1475.44 922.29 1468.33 Q922.29 1461.2 920.462 1457.66 Q918.656 1454.1 915.022 1454.1 M915.022 1450.39 Q920.832 1450.39 923.888 1455 Q926.966 1459.58 926.966 1468.33 Q926.966 1477.06 923.888 1481.67 Q920.832 1486.25 915.022 1486.25 Q909.212 1486.25 906.133 1481.67 Q903.077 1477.06 903.077 1468.33 Q903.077 1459.58 906.133 1455 Q909.212 1450.39 915.022 1450.39 Z" fill="#000000" fill-rule="nonzero" fill-opacity="1" /><path clip-path="url(#clip560)" d="M1399.76 1481.64 L1416.08 1481.64 L1416.08 1485.58 L1394.14 1485.58 L1394.14 1481.64 Q1396.8 1478.89 1401.38 1474.26 Q1405.99 1469.61 1407.17 1468.27 Q1409.41 1465.74 1410.29 1464.01 Q1411.2 1462.25 1411.2 1460.56 Q1411.2 1457.8 1409.25 1456.07 Q1407.33 1454.33 1404.23 1454.33 Q1402.03 1454.33 1399.58 1455.09 Q1397.14 1455.86 1394.37 1457.41 L1394.37 1452.69 Q1397.19 1451.55 1399.64 1450.97 Q1402.1 1450.39 1404.14 1450.39 Q1409.51 1450.39 1412.7 1453.08 Q1415.89 1455.77 1415.89 1460.26 Q1415.89 1462.39 1415.08 1464.31 Q1414.3 1466.2 1412.19 1468.8 Q1411.61 1469.47 1408.51 1472.69 Q1405.41 1475.88 1399.76 1481.64 Z" fill="#000000" fill-rule="nonzero" fill-opacity="1" /><path clip-path="url(#clip560)" d="M1435.89 1454.1 Q1432.28 1454.1 1430.45 1457.66 Q1428.65 1461.2 1428.65 1468.33 Q1428.65 1475.44 1430.45 1479.01 Q1432.28 1482.55 1435.89 1482.55 Q1439.53 1482.55 1441.33 1479.01 Q1443.16 1475.44 1443.16 1468.33 Q1443.16 1461.2 1441.33 1457.66 Q1439.53 1454.1 1435.89 1454.1 M1435.89 1450.39 Q1441.7 1450.39 1444.76 1455 Q1447.84 1459.58 1447.84 1468.33 Q1447.84 1477.06 1444.76 1481.67 Q1441.7 1486.25 1435.89 1486.25 Q1430.08 1486.25 1427.01 1481.67 Q1423.95 1477.06 1423.95 1468.33 Q1423.95 1459.58 1427.01 1455 Q1430.08 1450.39 1435.89 1450.39 Z" fill="#000000" fill-rule="nonzero" fill-opacity="1" /><path clip-path="url(#clip560)" d="M1466.06 1454.1 Q1462.45 1454.1 1460.62 1457.66 Q1458.81 1461.2 1458.81 1468.33 Q1458.81 1475.44 1460.62 1479.01 Q1462.45 1482.55 1466.06 1482.55 Q1469.69 1482.55 1471.5 1479.01 Q1473.33 1475.44 1473.33 1468.33 Q1473.33 1461.2 1471.5 1457.66 Q1469.69 1454.1 1466.06 1454.1 M1466.06 1450.39 Q1471.87 1450.39 1474.92 1455 Q1478 1459.58 1478 1468.33 Q1478 1477.06 1474.92 1481.67 Q1471.87 1486.25 1466.06 1486.25 Q1460.25 1486.25 1457.17 1481.67 Q1454.11 1477.06 1454.11 1468.33 Q1454.11 1459.58 1457.17 1455 Q1460.25 1450.39 1466.06 1450.39 Z" fill="#000000" fill-rule="nonzero" fill-opacity="1" /><path clip-path="url(#clip560)" d="M1960 1466.95 Q1963.35 1467.66 1965.23 1469.93 Q1967.13 1472.2 1967.13 1475.53 Q1967.13 1480.65 1963.61 1483.45 Q1960.09 1486.25 1953.61 1486.25 Q1951.43 1486.25 1949.12 1485.81 Q1946.83 1485.39 1944.37 1484.54 L1944.37 1480.02 Q1946.32 1481.16 1948.63 1481.74 Q1950.95 1482.32 1953.47 1482.32 Q1957.87 1482.32 1960.16 1480.58 Q1962.47 1478.84 1962.47 1475.53 Q1962.47 1472.48 1960.32 1470.77 Q1958.19 1469.03 1954.37 1469.03 L1950.34 1469.03 L1950.34 1465.19 L1954.56 1465.19 Q1958.01 1465.19 1959.83 1463.82 Q1961.66 1462.43 1961.66 1459.84 Q1961.66 1457.18 1959.77 1455.77 Q1957.89 1454.33 1954.37 1454.33 Q1952.45 1454.33 1950.25 1454.75 Q1948.05 1455.16 1945.41 1456.04 L1945.41 1451.88 Q1948.08 1451.14 1950.39 1450.77 Q1952.73 1450.39 1954.79 1450.39 Q1960.11 1450.39 1963.21 1452.83 Q1966.32 1455.23 1966.32 1459.35 Q1966.32 1462.22 1964.67 1464.21 Q1963.03 1466.18 1960 1466.95 Z" fill="#000000" fill-rule="nonzero" fill-opacity="1" /><path clip-path="url(#clip560)" d="M1985.99 1454.1 Q1982.38 1454.1 1980.55 1457.66 Q1978.75 1461.2 1978.75 1468.33 Q1978.75 1475.44 1980.55 1479.01 Q1982.38 1482.55 1985.99 1482.55 Q1989.63 1482.55 1991.43 1479.01 Q1993.26 1475.44 1993.26 1468.33 Q1993.26 1461.2 1991.43 1457.66 Q1989.63 1454.1 1985.99 1454.1 M1985.99 1450.39 Q1991.8 1450.39 1994.86 1455 Q1997.94 1459.58 1997.94 1468.33 Q1997.94 1477.06 1994.86 1481.67 Q1991.8 1486.25 1985.99 1486.25 Q1980.18 1486.25 1977.1 1481.67 Q1974.05 1477.06 1974.05 1468.33 Q1974.05 1459.58 1977.1 1455 Q1980.18 1450.39 1985.99 1450.39 Z" fill="#000000" fill-rule="nonzero" fill-opacity="1" /><path clip-path="url(#clip560)" d="M2016.15 1454.1 Q2012.54 1454.1 2010.71 1457.66 Q2008.91 1461.2 2008.91 1468.33 Q2008.91 1475.44 2010.71 1479.01 Q2012.54 1482.55 2016.15 1482.55 Q2019.79 1482.55 2021.59 1479.01 Q2023.42 1475.44 2023.42 1468.33 Q2023.42 1461.2 2021.59 1457.66 Q2019.79 1454.1 2016.15 1454.1 M2016.15 1450.39 Q2021.96 1450.39 2025.02 1455 Q2028.1 1459.58 2028.1 1468.33 Q2028.1 1477.06 2025.02 1481.67 Q2021.96 1486.25 2016.15 1486.25 Q2010.34 1486.25 2007.26 1481.67 Q2004.21 1477.06 2004.21 1468.33 Q2004.21 1459.58 2007.26 1455 Q2010.34 1450.39 2016.15 1450.39 Z" fill="#000000" fill-rule="nonzero" fill-opacity="1" /><path clip-path="url(#clip560)" d="M1188.25 1520.52 L1194.68 1520.52 L1194.68 1568.04 L1188.25 1568.04 L1188.25 1520.52 Z" fill="#000000" fill-rule="nonzero" fill-opacity="1" /><path clip-path="url(#clip560)" d="M1213.02 1522.27 L1213.02 1532.4 L1225.08 1532.4 L1225.08 1536.95 L1213.02 1536.95 L1213.02 1556.3 Q1213.02 1560.66 1214.19 1561.9 Q1215.4 1563.14 1219.06 1563.14 L1225.08 1563.14 L1225.08 1568.04 L1219.06 1568.04 Q1212.28 1568.04 1209.71 1565.53 Q1207.13 1562.98 1207.13 1556.3 L1207.13 1536.95 L1202.83 1536.95 L1202.83 1532.4 L1207.13 1532.4 L1207.13 1522.27 L1213.02 1522.27 Z" fill="#000000" fill-rule="nonzero" fill-opacity="1" /><path clip-path="url(#clip560)" d="M1263.27 1548.76 L1263.27 1551.62 L1236.35 1551.62 Q1236.73 1557.67 1239.98 1560.85 Q1243.25 1564 1249.08 1564 Q1252.45 1564 1255.6 1563.17 Q1258.79 1562.35 1261.91 1560.69 L1261.91 1566.23 Q1258.75 1567.57 1255.44 1568.27 Q1252.13 1568.97 1248.73 1568.97 Q1240.2 1568.97 1235.2 1564 Q1230.24 1559.04 1230.24 1550.57 Q1230.24 1541.82 1234.95 1536.69 Q1239.69 1531.54 1247.71 1531.54 Q1254.9 1531.54 1259.07 1536.18 Q1263.27 1540.8 1263.27 1548.76 M1257.42 1547.04 Q1257.35 1542.23 1254.71 1539.37 Q1252.1 1536.5 1247.77 1536.5 Q1242.87 1536.5 1239.91 1539.27 Q1236.98 1542.04 1236.54 1547.07 L1257.42 1547.04 Z" fill="#000000" fill-rule="nonzero" fill-opacity="1" /><path clip-path="url(#clip560)" d="M1293.54 1537.87 Q1292.56 1537.3 1291.38 1537.04 Q1290.23 1536.76 1288.83 1536.76 Q1283.87 1536.76 1281.19 1540 Q1278.55 1543.22 1278.55 1549.27 L1278.55 1568.04 L1272.66 1568.04 L1272.66 1532.4 L1278.55 1532.4 L1278.55 1537.93 Q1280.4 1534.69 1283.36 1533.13 Q1286.32 1531.54 1290.55 1531.54 Q1291.16 1531.54 1291.89 1531.63 Q1292.62 1531.7 1293.51 1531.85 L1293.54 1537.87 Z" fill="#000000" fill-rule="nonzero" fill-opacity="1" /><path clip-path="url(#clip560)" d="M1315.89 1550.12 Q1308.79 1550.12 1306.05 1551.75 Q1303.31 1553.37 1303.31 1557.29 Q1303.31 1560.4 1305.35 1562.25 Q1307.42 1564.07 1310.95 1564.07 Q1315.82 1564.07 1318.75 1560.63 Q1321.71 1557.16 1321.71 1551.43 L1321.71 1550.12 L1315.89 1550.12 M1327.57 1547.71 L1327.57 1568.04 L1321.71 1568.04 L1321.71 1562.63 Q1319.71 1565.88 1316.71 1567.44 Q1313.72 1568.97 1309.39 1568.97 Q1303.92 1568.97 1300.67 1565.91 Q1297.46 1562.82 1297.46 1557.67 Q1297.46 1551.65 1301.47 1548.6 Q1305.51 1545.54 1313.5 1545.54 L1321.71 1545.54 L1321.71 1544.97 Q1321.71 1540.93 1319.04 1538.73 Q1316.4 1536.5 1311.59 1536.5 Q1308.53 1536.5 1305.64 1537.23 Q1302.74 1537.97 1300.07 1539.43 L1300.07 1534.02 Q1303.28 1532.78 1306.31 1532.17 Q1309.33 1531.54 1312.19 1531.54 Q1319.93 1531.54 1323.75 1535.55 Q1327.57 1539.56 1327.57 1547.71 Z" fill="#000000" fill-rule="nonzero" fill-opacity="1" /><path clip-path="url(#clip560)" d="M1345.42 1522.27 L1345.42 1532.4 L1357.49 1532.4 L1357.49 1536.95 L1345.42 1536.95 L1345.42 1556.3 Q1345.42 1560.66 1346.6 1561.9 Q1347.81 1563.14 1351.47 1563.14 L1357.49 1563.14 L1357.49 1568.04 L1351.47 1568.04 Q1344.69 1568.04 1342.11 1565.53 Q1339.53 1562.98 1339.53 1556.3 L1339.53 1536.95 L1335.24 1536.95 L1335.24 1532.4 L1339.53 1532.4 L1339.53 1522.27 L1345.42 1522.27 Z" fill="#000000" fill-rule="nonzero" fill-opacity="1" /><path clip-path="url(#clip560)" d="M1365.19 1532.4 L1371.05 1532.4 L1371.05 1568.04 L1365.19 1568.04 L1365.19 1532.4 M1365.19 1518.52 L1371.05 1518.52 L1371.05 1525.93 L1365.19 1525.93 L1365.19 1518.52 Z" fill="#000000" fill-rule="nonzero" fill-opacity="1" /><path clip-path="url(#clip560)" d="M1397.11 1536.5 Q1392.4 1536.5 1389.66 1540.19 Q1386.93 1543.85 1386.93 1550.25 Q1386.93 1556.65 1389.63 1560.34 Q1392.37 1564 1397.11 1564 Q1401.79 1564 1404.53 1560.31 Q1407.27 1556.62 1407.27 1550.25 Q1407.27 1543.92 1404.53 1540.23 Q1401.79 1536.5 1397.11 1536.5 M1397.11 1531.54 Q1404.75 1531.54 1409.11 1536.5 Q1413.47 1541.47 1413.47 1550.25 Q1413.47 1559 1409.11 1564 Q1404.75 1568.97 1397.11 1568.97 Q1389.44 1568.97 1385.08 1564 Q1380.75 1559 1380.75 1550.25 Q1380.75 1541.47 1385.08 1536.5 Q1389.44 1531.54 1397.11 1531.54 Z" fill="#000000" fill-rule="nonzero" fill-opacity="1" /><path clip-path="url(#clip560)" d="M1452.81 1546.53 L1452.81 1568.04 L1446.96 1568.04 L1446.96 1546.72 Q1446.96 1541.66 1444.98 1539.14 Q1443.01 1536.63 1439.06 1536.63 Q1434.32 1536.63 1431.58 1539.65 Q1428.85 1542.68 1428.85 1547.9 L1428.85 1568.04 L1422.96 1568.04 L1422.96 1532.4 L1428.85 1532.4 L1428.85 1537.93 Q1430.95 1534.72 1433.78 1533.13 Q1436.64 1531.54 1440.37 1531.54 Q1446.51 1531.54 1449.66 1535.36 Q1452.81 1539.14 1452.81 1546.53 Z" fill="#000000" fill-rule="nonzero" fill-opacity="1" /><polyline clip-path="url(#clip560)" style="stroke:#000000; stroke-linecap:round; stroke-linejoin:round; stroke-width:4; stroke-opacity:1; fill:none" points="288.311,1423.18 288.311,123.472 "/>
<polyline clip-path="url(#clip560)" style="stroke:#000000; stroke-linecap:round; stroke-linejoin:round; stroke-width:4; stroke-opacity:1; fill:none" points="288.311,957.905 307.208,957.905 "/>
<polyline clip-path="url(#clip560)" style="stroke:#000000; stroke-linecap:round; stroke-linejoin:round; stroke-width:4; stroke-opacity:1; fill:none" points="288.311,459.488 307.208,459.488 "/>
<path clip-path="url(#clip560)" d="M114.931 977.698 L122.57 977.698 L122.57 951.332 L114.26 952.999 L114.26 948.74 L122.524 947.073 L127.2 947.073 L127.2 977.698 L134.839 977.698 L134.839 981.633 L114.931 981.633 L114.931 977.698 Z" fill="#000000" fill-rule="nonzero" fill-opacity="1" /><path clip-path="url(#clip560)" d="M154.283 950.152 Q150.672 950.152 148.843 953.716 Q147.038 957.258 147.038 964.388 Q147.038 971.494 148.843 975.059 Q150.672 978.6 154.283 978.6 Q157.917 978.6 159.723 975.059 Q161.552 971.494 161.552 964.388 Q161.552 957.258 159.723 953.716 Q157.917 950.152 154.283 950.152 M154.283 946.448 Q160.093 946.448 163.149 951.054 Q166.227 955.638 166.227 964.388 Q166.227 973.114 163.149 977.721 Q160.093 982.304 154.283 982.304 Q148.473 982.304 145.394 977.721 Q142.339 973.114 142.339 964.388 Q142.339 955.638 145.394 951.054 Q148.473 946.448 154.283 946.448 Z" fill="#000000" fill-rule="nonzero" fill-opacity="1" /><path clip-path="url(#clip560)" d="M166.227 940.549 L190.339 940.549 L190.339 943.747 L166.227 943.747 L166.227 940.549 Z" fill="#000000" fill-rule="nonzero" fill-opacity="1" /><path clip-path="url(#clip560)" d="M201.812 951.025 L215.071 951.025 L215.071 954.222 L197.241 954.222 L197.241 951.025 Q199.404 948.787 203.128 945.025 Q206.871 941.245 207.83 940.154 Q209.655 938.104 210.369 936.694 Q211.103 935.264 211.103 933.891 Q211.103 931.653 209.523 930.243 Q207.962 928.832 205.442 928.832 Q203.655 928.832 201.661 929.453 Q199.686 930.073 197.43 931.333 L197.43 927.497 Q199.724 926.575 201.718 926.105 Q203.711 925.635 205.366 925.635 Q209.73 925.635 212.325 927.816 Q214.921 929.998 214.921 933.647 Q214.921 935.377 214.263 936.938 Q213.623 938.48 211.912 940.587 Q211.441 941.132 208.921 943.747 Q206.401 946.342 201.812 951.025 Z" fill="#000000" fill-rule="nonzero" fill-opacity="1" /><path clip-path="url(#clip560)" d="M223.046 949.445 L227.014 949.445 L227.014 954.222 L223.046 954.222 L223.046 949.445 Z" fill="#000000" fill-rule="nonzero" fill-opacity="1" /><path clip-path="url(#clip560)" d="M235.327 926.142 L250.242 926.142 L250.242 929.34 L238.807 929.34 L238.807 936.223 Q239.634 935.941 240.462 935.81 Q241.289 935.659 242.117 935.659 Q246.819 935.659 249.565 938.236 Q252.311 940.813 252.311 945.214 Q252.311 949.746 249.489 952.266 Q246.668 954.768 241.534 954.768 Q239.766 954.768 237.923 954.467 Q236.098 954.166 234.142 953.564 L234.142 949.746 Q235.835 950.668 237.641 951.119 Q239.446 951.571 241.459 951.571 Q244.712 951.571 246.612 949.859 Q248.511 948.148 248.511 945.214 Q248.511 942.28 246.612 940.568 Q244.712 938.857 241.459 938.857 Q239.935 938.857 238.412 939.195 Q236.907 939.534 235.327 940.248 L235.327 926.142 Z" fill="#000000" fill-rule="nonzero" fill-opacity="1" /><path clip-path="url(#clip560)" d="M144.855 479.28 L152.493 479.28 L152.493 452.915 L144.183 454.581 L144.183 450.322 L152.447 448.656 L157.123 448.656 L157.123 479.28 L164.762 479.28 L164.762 483.216 L144.855 483.216 L144.855 479.28 Z" fill="#000000" fill-rule="nonzero" fill-opacity="1" /><path clip-path="url(#clip560)" d="M184.206 451.734 Q180.595 451.734 178.766 455.299 Q176.961 458.841 176.961 465.97 Q176.961 473.077 178.766 476.642 Q180.595 480.183 184.206 480.183 Q187.84 480.183 189.646 476.642 Q191.475 473.077 191.475 465.97 Q191.475 458.841 189.646 455.299 Q187.84 451.734 184.206 451.734 M184.206 448.031 Q190.016 448.031 193.072 452.637 Q196.151 457.22 196.151 465.97 Q196.151 474.697 193.072 479.304 Q190.016 483.887 184.206 483.887 Q178.396 483.887 175.317 479.304 Q172.262 474.697 172.262 465.97 Q172.262 457.22 175.317 452.637 Q178.396 448.031 184.206 448.031 Z" fill="#000000" fill-rule="nonzero" fill-opacity="1" /><path clip-path="url(#clip560)" d="M205.855 430.227 Q202.921 430.227 201.436 433.123 Q199.969 436.001 199.969 441.793 Q199.969 447.567 201.436 450.464 Q202.921 453.341 205.855 453.341 Q208.808 453.341 210.275 450.464 Q211.761 447.567 211.761 441.793 Q211.761 436.001 210.275 433.123 Q208.808 430.227 205.855 430.227 M205.855 427.217 Q210.576 427.217 213.059 430.96 Q215.56 434.684 215.56 441.793 Q215.56 448.884 213.059 452.627 Q210.576 456.351 205.855 456.351 Q201.135 456.351 198.633 452.627 Q196.151 448.884 196.151 441.793 Q196.151 434.684 198.633 430.96 Q201.135 427.217 205.855 427.217 Z" fill="#000000" fill-rule="nonzero" fill-opacity="1" /><path clip-path="url(#clip560)" d="M222.237 451.028 L226.205 451.028 L226.205 455.805 L222.237 455.805 L222.237 451.028 Z" fill="#000000" fill-rule="nonzero" fill-opacity="1" /><path clip-path="url(#clip560)" d="M242.606 430.227 Q239.672 430.227 238.186 433.123 Q236.719 436.001 236.719 441.793 Q236.719 447.567 238.186 450.464 Q239.672 453.341 242.606 453.341 Q245.559 453.341 247.026 450.464 Q248.511 447.567 248.511 441.793 Q248.511 436.001 247.026 433.123 Q245.559 430.227 242.606 430.227 M242.606 427.217 Q247.327 427.217 249.809 430.96 Q252.311 434.684 252.311 441.793 Q252.311 448.884 249.809 452.627 Q247.327 456.351 242.606 456.351 Q237.885 456.351 235.384 452.627 Q232.901 448.884 232.901 441.793 Q232.901 434.684 235.384 430.96 Q237.885 427.217 242.606 427.217 Z" fill="#000000" fill-rule="nonzero" fill-opacity="1" /><path clip-path="url(#clip560)" d="M16.4842 840.023 L16.4842 833.593 L58.5933 833.593 L58.5933 810.454 L64.0042 810.454 L64.0042 840.023 L16.4842 840.023 Z" fill="#000000" fill-rule="nonzero" fill-opacity="1" /><path clip-path="url(#clip560)" d="M32.4621 791.293 Q32.4621 796.004 36.1542 798.741 Q39.8145 801.478 46.212 801.478 Q52.6095 801.478 56.3017 798.773 Q59.9619 796.036 59.9619 791.293 Q59.9619 786.614 56.2698 783.877 Q52.5777 781.14 46.212 781.14 Q39.8781 781.14 36.186 783.877 Q32.4621 786.614 32.4621 791.293 M27.4968 791.293 Q27.4968 783.654 32.4621 779.294 Q37.4273 774.933 46.212 774.933 Q54.9649 774.933 59.9619 779.294 Q64.9272 783.654 64.9272 791.293 Q64.9272 798.964 59.9619 803.324 Q54.9649 807.653 46.212 807.653 Q37.4273 807.653 32.4621 803.324 Q27.4968 798.964 27.4968 791.293 Z" fill="#000000" fill-rule="nonzero" fill-opacity="1" /><path clip-path="url(#clip560)" d="M29.4065 742.5 L34.9447 742.5 Q33.6716 744.983 33.035 747.656 Q32.3984 750.33 32.3984 753.194 Q32.3984 757.555 33.7352 759.751 Q35.072 761.915 37.7456 761.915 Q39.7826 761.915 40.9603 760.356 Q42.1061 758.796 43.1565 754.086 L43.6021 752.08 Q44.9389 745.842 47.3897 743.232 Q49.8086 740.59 54.1691 740.59 Q59.1344 740.59 62.0308 744.537 Q64.9272 748.452 64.9272 755.327 Q64.9272 758.192 64.3543 761.311 Q63.8132 764.398 62.6992 767.836 L56.6518 767.836 Q58.3387 764.589 59.198 761.438 Q60.0256 758.287 60.0256 755.2 Q60.0256 751.062 58.6251 748.834 Q57.1929 746.606 54.6147 746.606 Q52.2276 746.606 50.9545 748.229 Q49.6813 749.821 48.5037 755.263 L48.0262 757.3 Q46.8804 762.743 44.5251 765.162 Q42.138 767.581 38.0002 767.581 Q32.9713 767.581 30.2341 764.016 Q27.4968 760.451 27.4968 753.895 Q27.4968 750.648 27.9743 747.784 Q28.4517 744.919 29.4065 742.5 Z" fill="#000000" fill-rule="nonzero" fill-opacity="1" /><path clip-path="url(#clip560)" d="M29.4065 708.539 L34.9447 708.539 Q33.6716 711.022 33.035 713.695 Q32.3984 716.369 32.3984 719.233 Q32.3984 723.594 33.7352 725.79 Q35.072 727.954 37.7456 727.954 Q39.7826 727.954 40.9603 726.395 Q42.1061 724.835 43.1565 720.125 L43.6021 718.119 Q44.9389 711.881 47.3897 709.271 Q49.8086 706.629 54.1691 706.629 Q59.1344 706.629 62.0308 710.576 Q64.9272 714.491 64.9272 721.366 Q64.9272 724.23 64.3543 727.35 Q63.8132 730.437 62.6992 733.875 L56.6518 733.875 Q58.3387 730.628 59.198 727.477 Q60.0256 724.326 60.0256 721.239 Q60.0256 717.101 58.6251 714.873 Q57.1929 712.645 54.6147 712.645 Q52.2276 712.645 50.9545 714.268 Q49.6813 715.86 48.5037 721.302 L48.0262 723.339 Q46.8804 728.782 44.5251 731.201 Q42.138 733.62 38.0002 733.62 Q32.9713 733.62 30.2341 730.055 Q27.4968 726.49 27.4968 719.934 Q27.4968 716.687 27.9743 713.823 Q28.4517 710.958 29.4065 708.539 Z" fill="#000000" fill-rule="nonzero" fill-opacity="1" /><path clip-path="url(#clip560)" d="M1054.59 12.096 L1105.75 12.096 L1105.75 18.9825 L1084.28 18.9825 L1084.28 72.576 L1076.06 72.576 L1076.06 18.9825 L1054.59 18.9825 L1054.59 12.096 Z" fill="#000000" fill-rule="nonzero" fill-opacity="1" /><path clip-path="url(#clip560)" d="M1127.43 34.1734 Q1126.17 33.4443 1124.67 33.1202 Q1123.21 32.7556 1121.43 32.7556 Q1115.11 32.7556 1111.71 36.8875 Q1108.35 40.9789 1108.35 48.6757 L1108.35 72.576 L1100.85 72.576 L1100.85 27.2059 L1108.35 27.2059 L1108.35 34.2544 Q1110.7 30.1225 1114.46 28.1376 Q1118.23 26.1121 1123.62 26.1121 Q1124.39 26.1121 1125.32 26.2337 Q1126.25 26.3147 1127.39 26.5172 L1127.43 34.1734 Z" fill="#000000" fill-rule="nonzero" fill-opacity="1" /><path clip-path="url(#clip560)" d="M1155.86 49.7694 Q1146.83 49.7694 1143.35 51.8354 Q1139.86 53.9013 1139.86 58.8839 Q1139.86 62.8538 1142.46 65.2034 Q1145.09 67.5124 1149.59 67.5124 Q1155.78 67.5124 1159.51 63.1374 Q1163.28 58.7219 1163.28 51.4303 L1163.28 49.7694 L1155.86 49.7694 M1170.73 46.6907 L1170.73 72.576 L1163.28 72.576 L1163.28 65.6895 Q1160.73 69.8214 1156.92 71.8063 Q1153.11 73.7508 1147.6 73.7508 Q1140.63 73.7508 1136.5 69.8619 Q1132.41 65.9325 1132.41 59.3701 Q1132.41 51.7138 1137.51 47.825 Q1142.66 43.9361 1152.83 43.9361 L1163.28 43.9361 L1163.28 43.2069 Q1163.28 38.0623 1159.87 35.2672 Q1156.51 32.4315 1150.4 32.4315 Q1146.51 32.4315 1142.82 33.3632 Q1139.13 34.295 1135.73 36.1584 L1135.73 29.2718 Q1139.82 27.692 1143.67 26.9223 Q1147.52 26.1121 1151.16 26.1121 Q1161.01 26.1121 1165.87 31.2163 Q1170.73 36.3204 1170.73 46.6907 Z" fill="#000000" fill-rule="nonzero" fill-opacity="1" /><path clip-path="url(#clip560)" d="M1186.08 27.2059 L1193.54 27.2059 L1193.54 72.576 L1186.08 72.576 L1186.08 27.2059 M1186.08 9.54393 L1193.54 9.54393 L1193.54 18.9825 L1186.08 18.9825 L1186.08 9.54393 Z" fill="#000000" fill-rule="nonzero" fill-opacity="1" /><path clip-path="url(#clip560)" d="M1246.85 45.1919 L1246.85 72.576 L1239.39 72.576 L1239.39 45.4349 Q1239.39 38.994 1236.88 35.7938 Q1234.37 32.5936 1229.35 32.5936 Q1223.31 32.5936 1219.83 36.4419 Q1216.34 40.2903 1216.34 46.9338 L1216.34 72.576 L1208.85 72.576 L1208.85 27.2059 L1216.34 27.2059 L1216.34 34.2544 Q1219.02 30.163 1222.62 28.1376 Q1226.27 26.1121 1231.01 26.1121 Q1238.83 26.1121 1242.84 30.9732 Q1246.85 35.7938 1246.85 45.1919 Z" fill="#000000" fill-rule="nonzero" fill-opacity="1" /><path clip-path="url(#clip560)" d="M1261.71 27.2059 L1269.17 27.2059 L1269.17 72.576 L1261.71 72.576 L1261.71 27.2059 M1261.71 9.54393 L1269.17 9.54393 L1269.17 18.9825 L1261.71 18.9825 L1261.71 9.54393 Z" fill="#000000" fill-rule="nonzero" fill-opacity="1" /><path clip-path="url(#clip560)" d="M1322.48 45.1919 L1322.48 72.576 L1315.02 72.576 L1315.02 45.4349 Q1315.02 38.994 1312.51 35.7938 Q1310 32.5936 1304.98 32.5936 Q1298.94 32.5936 1295.46 36.4419 Q1291.97 40.2903 1291.97 46.9338 L1291.97 72.576 L1284.48 72.576 L1284.48 27.2059 L1291.97 27.2059 L1291.97 34.2544 Q1294.65 30.163 1298.25 28.1376 Q1301.9 26.1121 1306.64 26.1121 Q1314.46 26.1121 1318.47 30.9732 Q1322.48 35.7938 1322.48 45.1919 Z" fill="#000000" fill-rule="nonzero" fill-opacity="1" /><path clip-path="url(#clip560)" d="M1367.2 49.3643 Q1367.2 41.2625 1363.84 36.8065 Q1360.52 32.3505 1354.48 32.3505 Q1348.48 32.3505 1345.12 36.8065 Q1341.8 41.2625 1341.8 49.3643 Q1341.8 57.4256 1345.12 61.8816 Q1348.48 66.3376 1354.48 66.3376 Q1360.52 66.3376 1363.84 61.8816 Q1367.2 57.4256 1367.2 49.3643 M1374.65 66.9452 Q1374.65 78.5308 1369.51 84.1616 Q1364.36 89.8329 1353.75 89.8329 Q1349.82 89.8329 1346.34 89.2252 Q1342.85 88.6581 1339.57 87.4428 L1339.57 80.1917 Q1342.85 81.9741 1346.05 82.8248 Q1349.25 83.6755 1352.58 83.6755 Q1359.91 83.6755 1363.55 79.8271 Q1367.2 76.0193 1367.2 68.282 L1367.2 64.5957 Q1364.89 68.6061 1361.29 70.5911 Q1357.68 72.576 1352.66 72.576 Q1344.31 72.576 1339.21 66.2161 Q1334.1 59.8562 1334.1 49.3643 Q1334.1 38.832 1339.21 32.472 Q1344.31 26.1121 1352.66 26.1121 Q1357.68 26.1121 1361.29 28.0971 Q1364.89 30.082 1367.2 34.0924 L1367.2 27.2059 L1374.65 27.2059 L1374.65 66.9452 Z" fill="#000000" fill-rule="nonzero" fill-opacity="1" /><path clip-path="url(#clip560)" d="M1416.7 12.096 L1424.88 12.096 L1424.88 65.6895 L1454.33 65.6895 L1454.33 72.576 L1416.7 72.576 L1416.7 12.096 Z" fill="#000000" fill-rule="nonzero" fill-opacity="1" /><path clip-path="url(#clip560)" d="M1478.72 32.4315 Q1472.73 32.4315 1469.24 37.1306 Q1465.76 41.7891 1465.76 49.9314 Q1465.76 58.0738 1469.2 62.7728 Q1472.69 67.4314 1478.72 67.4314 Q1484.68 67.4314 1488.16 62.7323 Q1491.64 58.0333 1491.64 49.9314 Q1491.64 41.8701 1488.16 37.1711 Q1484.68 32.4315 1478.72 32.4315 M1478.72 26.1121 Q1488.44 26.1121 1493.99 32.4315 Q1499.54 38.7509 1499.54 49.9314 Q1499.54 61.0714 1493.99 67.4314 Q1488.44 73.7508 1478.72 73.7508 Q1468.96 73.7508 1463.41 67.4314 Q1457.9 61.0714 1457.9 49.9314 Q1457.9 38.7509 1463.41 32.4315 Q1468.96 26.1121 1478.72 26.1121 Z" fill="#000000" fill-rule="nonzero" fill-opacity="1" /><path clip-path="url(#clip560)" d="M1540.82 28.5427 L1540.82 35.5912 Q1537.66 33.9709 1534.26 33.1607 Q1530.86 32.3505 1527.21 32.3505 Q1521.66 32.3505 1518.87 34.0519 Q1516.11 35.7533 1516.11 39.156 Q1516.11 41.7486 1518.1 43.2475 Q1520.08 44.7058 1526.08 46.0426 L1528.63 46.6097 Q1536.57 48.3111 1539.89 51.4303 Q1543.25 54.509 1543.25 60.0587 Q1543.25 66.3781 1538.23 70.0644 Q1533.25 73.7508 1524.5 73.7508 Q1520.85 73.7508 1516.88 73.0216 Q1512.95 72.3329 1508.58 70.9151 L1508.58 63.2184 Q1512.71 65.3654 1516.72 66.4591 Q1520.73 67.5124 1524.66 67.5124 Q1529.92 67.5124 1532.76 65.73 Q1535.6 63.9071 1535.6 60.6258 Q1535.6 57.5877 1533.53 55.9673 Q1531.5 54.3469 1524.58 52.8481 L1521.98 52.2405 Q1515.06 50.7821 1511.98 47.7845 Q1508.9 44.7463 1508.9 39.4801 Q1508.9 33.0797 1513.44 29.5959 Q1517.97 26.1121 1526.32 26.1121 Q1530.45 26.1121 1534.1 26.7198 Q1537.74 27.3274 1540.82 28.5427 Z" fill="#000000" fill-rule="nonzero" fill-opacity="1" /><path clip-path="url(#clip560)" d="M1584.04 28.5427 L1584.04 35.5912 Q1580.88 33.9709 1577.48 33.1607 Q1574.08 32.3505 1570.43 32.3505 Q1564.88 32.3505 1562.09 34.0519 Q1559.33 35.7533 1559.33 39.156 Q1559.33 41.7486 1561.32 43.2475 Q1563.3 44.7058 1569.3 46.0426 L1571.85 46.6097 Q1579.79 48.3111 1583.11 51.4303 Q1586.48 54.509 1586.48 60.0587 Q1586.48 66.3781 1581.45 70.0644 Q1576.47 73.7508 1567.72 73.7508 Q1564.07 73.7508 1560.1 73.0216 Q1556.17 72.3329 1551.8 70.9151 L1551.8 63.2184 Q1555.93 65.3654 1559.94 66.4591 Q1563.95 67.5124 1567.88 67.5124 Q1573.15 67.5124 1575.98 65.73 Q1578.82 63.9071 1578.82 60.6258 Q1578.82 57.5877 1576.75 55.9673 Q1574.73 54.3469 1567.8 52.8481 L1565.21 52.2405 Q1558.28 50.7821 1555.2 47.7845 Q1552.12 44.7463 1552.12 39.4801 Q1552.12 33.0797 1556.66 29.5959 Q1561.2 26.1121 1569.54 26.1121 Q1573.67 26.1121 1577.32 26.7198 Q1580.97 27.3274 1584.04 28.5427 Z" fill="#000000" fill-rule="nonzero" fill-opacity="1" /><polyline clip-path="url(#clip561)" style="stroke:#009af9; stroke-linecap:round; stroke-linejoin:round; stroke-width:4; stroke-opacity:1; fill:none" points="346.738,252.001 352.24,160.256 357.742,171.36 363.243,240.006 368.745,258.517 374.247,272.245 379.748,281.54 385.25,289.467 390.752,297.829 396.253,302.302 401.755,307.173 407.257,320.151 412.758,353.963 418.26,417.179 423.762,465.798 429.263,489.926 434.765,500.35 440.267,500.666 445.768,510.682 451.27,524.475 456.772,538.997 462.273,552.211 467.775,554.242 473.277,564.907 478.778,578.527 484.28,589.963 489.782,598.384 495.283,600.338 500.785,606.649 506.287,619.735 511.788,631.101 517.29,631.444 522.792,631.123 528.293,634.465 533.795,649.5 539.297,642.523 544.798,648.634 550.3,662.437 555.802,659.857 561.303,662.095 566.805,672.714 572.307,673.857 577.808,683.002 583.31,681.306 588.812,678.37 594.313,705.897 599.815,698.731 605.317,686.452 610.818,684.201 616.32,701.925 621.822,715.968 627.323,710.139 632.825,712.416 638.327,721.153 643.828,759.659 649.33,736.864 654.832,735.423 660.333,759.8 665.835,734.38 671.337,770.028 676.838,763.168 682.34,766.598 687.842,781.938 693.343,779.785 698.845,772.219 704.347,778.019 709.848,813.648 715.35,789.123 720.852,813.248 726.353,808.027 731.855,840.53 737.357,830.708 742.858,796.514 748.36,862.66 753.862,806.331 759.363,823.157 764.865,829.553 770.367,820.251 775.868,856.952 781.37,866.24 786.872,846.914 792.373,849.946 797.875,892.319 803.377,869.538 808.878,892.135 814.38,882.928 819.882,846.156 825.383,865.526 830.885,870.594 836.387,855.42 841.888,878.455 847.39,889.73 852.892,887.137 858.393,867.381 863.895,859.922 869.397,896.819 874.898,928.848 880.4,868.179 885.902,872.452 891.403,887.012 896.905,855.082 902.407,848.059 907.908,898.051 913.41,870.271 918.912,913.195 924.413,919.224 929.915,864.133 935.417,900.002 940.918,857.826 946.42,895.177 951.922,929.735 957.423,870.803 962.925,951.9 968.427,885.961 973.928,894.512 979.43,996.034 984.932,911.763 990.433,904.551 995.935,874.316 1001.44,862.549 1006.94,963.473 1012.44,893.161 1017.94,915.613 1023.44,866.404 1028.94,894.964 1034.45,900.004 1039.95,916.794 1045.45,942.716 1050.95,868.297 1056.45,980.923 1061.95,943.844 1067.46,916.854 1072.96,922.646 1078.46,911.161 1083.96,920.198 1089.46,984.11 1094.96,881.741 1100.47,948.231 1105.97,1016.84 1111.47,929.255 1116.97,911.313 1122.47,837.517 1127.97,919.487 1133.48,913.201 1138.98,883.808 1144.48,958.015 1149.98,930.171 1155.48,839.959 1160.98,896.612 1166.49,908.53 1171.99,939.236 1177.49,930.074 1182.99,981.946 1188.49,919.04 1193.99,1009.25 1199.5,918.99 1205,868.971 1210.5,889.739 1216,940.239 1221.5,861.987 1227,961.993 1232.51,955.08 1238.01,938.731 1243.51,1000.27 1249.01,872.393 1254.51,993.446 1260.01,901.201 1265.52,948.424 1271.02,942.08 1276.52,967.913 1282.02,898.112 1287.52,956.988 1293.02,964.401 1298.53,1051.39 1304.03,1191.46 1309.53,968.54 1315.03,929.965 1320.53,1171.8 1326.03,1002.81 1331.54,959.305 1337.04,1036.14 1342.54,942.11 1348.04,921.06 1353.54,996.651 1359.04,971.9 1364.55,876.288 1370.05,1000.97 1375.55,901.132 1381.05,946.759 1386.55,882.12 1392.05,926.837 1397.56,937.168 1403.06,1022.58 1408.56,935.294 1414.06,920.314 1419.56,941.483 1425.06,926.314 1430.57,937.089 1436.07,977.055 1441.57,997.736 1447.07,1113.09 1452.57,954.476 1458.07,900.476 1463.58,957.97 1469.08,915.179 1474.58,904.95 1480.08,917.888 1485.58,883.223 1491.08,965.038 1496.59,930.279 1502.09,956.561 1507.59,1068.12 1513.09,898.434 1518.59,1386.4 1524.09,943.636 1529.6,924.047 1535.1,910.673 1540.6,922.768 1546.1,899.296 1551.6,978.748 1557.1,945.8 1562.61,1025.77 1568.11,964.082 1573.61,954.543 1579.11,964.524 1584.61,934.82 1590.11,929.419 1595.62,996.324 1601.12,944.541 1606.62,909.244 1612.12,894.814 1617.62,896.841 1623.12,956.782 1628.63,1025.42 1634.13,928.526 1639.63,1030.6 1645.13,928.714 1650.63,966.857 1656.13,925.556 1661.64,982.441 1667.14,973.337 1672.64,887.653 1678.14,943.775 1683.64,903.207 1689.14,960.391 1694.65,902.342 1700.15,989.208 1705.65,996.851 1711.15,986.933 1716.65,1020.52 1722.15,1028.58 1727.66,1151.63 1733.16,1171.18 1738.66,963.56 1744.16,958.23 1749.66,956.428 1755.16,930.528 1760.67,997.746 1766.17,971.996 1771.67,1012.85 1777.17,951.811 1782.67,943.58 1788.17,928.594 1793.68,999.847 1799.18,920.558 1804.68,1084.08 1810.18,1160.82 1815.68,1103.75 1821.18,957.942 1826.69,955.662 1832.19,967.288 1837.69,962.719 1843.19,951.047 1848.69,943.03 1854.19,973.831 1859.7,901.487 1865.2,952.779 1870.7,996.462 1876.2,938.284 1881.7,899.251 1887.2,915.104 1892.71,959.199 1898.21,889.485 1903.71,1016.96 1909.21,1005.37 1914.71,966.425 1920.21,1000.52 1925.72,971.379 1931.22,938.765 1936.72,1004.28 1942.22,1053.7 1947.72,926.476 1953.22,966.09 1958.73,984.759 1964.23,1124.57 1969.73,904.782 1975.23,961.005 1980.73,940.16 1986.23,1060 1991.74,940.911 1997.24,935.349 2002.74,956.239 2008.24,919.823 2013.74,1005.22 2019.24,1002.7 2024.75,923.282 2030.25,1006.97 2035.75,933.432 2041.25,902.775 2046.75,1020.34 2052.25,955.145 2057.76,916.232 2063.26,932.905 2068.76,971.362 2074.26,862.338 2079.76,1002.97 2085.26,957.91 2090.77,1011.79 2096.27,810.12 2101.77,958.885 2107.27,995.492 2112.77,908.892 2118.27,1026.32 2123.78,954.911 2129.28,894.946 2134.78,957.136 2140.28,930.744 2145.78,879.79 2151.28,1163.25 2156.79,923.915 2162.29,947.821 2167.79,1008.07 2173.29,1025.49 2178.79,929.534 2184.29,976.073 2189.8,1137.03 2195.3,1030.37 2200.8,906.451 2206.3,954.503 2211.8,894.981 2217.3,928.721 2222.81,1051.58 2228.31,937.243 2233.81,900.909 2239.31,904.345 2244.81,912.045 2250.31,979.838 2255.82,904.496 2261.32,950.228 2266.82,932.06 2272.32,890.833 2277.82,965.353 2283.32,978.407 2288.83,943.394 2294.33,956.507 "/>
</svg>
