<?xml version="1.0" encoding="utf-8"?>
<svg xmlns="http://www.w3.org/2000/svg" xmlns:xlink="http://www.w3.org/1999/xlink" width="600" height="400" viewBox="0 0 2400 1600">
<defs>
  <clipPath id="clip680">
    <rect x="0" y="0" width="2400" height="1600"/>
  </clipPath>
</defs>
<path clip-path="url(#clip680)" d="M0 1600 L2400 1600 L2400 0 L0 0  Z" fill="#ffffff" fill-rule="evenodd" fill-opacity="1"/>
<defs>
  <clipPath id="clip681">
    <rect x="288" y="123" width="2065" height="1301"/>
  </clipPath>
</defs>
<path clip-path="url(#clip680)" d="M288.311 1423.18 L2352.76 1423.18 L2352.76 123.472 L288.311 123.472  Z" fill="#ffffff" fill-rule="evenodd" fill-opacity="1"/>
<polyline clip-path="url(#clip681)" style="stroke:#000000; stroke-linecap:round; stroke-linejoin:round; stroke-width:2; stroke-opacity:0.1; fill:none" points="336.434,1423.18 336.434,123.472 "/>
<polyline clip-path="url(#clip681)" style="stroke:#000000; stroke-linecap:round; stroke-linejoin:round; stroke-width:2; stroke-opacity:0.1; fill:none" points="851.669,1423.18 851.669,123.472 "/>
<polyline clip-path="url(#clip681)" style="stroke:#000000; stroke-linecap:round; stroke-linejoin:round; stroke-width:2; stroke-opacity:0.1; fill:none" points="1366.9,1423.18 1366.9,123.472 "/>
<polyline clip-path="url(#clip681)" style="stroke:#000000; stroke-linecap:round; stroke-linejoin:round; stroke-width:2; stroke-opacity:0.1; fill:none" points="1882.14,1423.18 1882.14,123.472 "/>
<polyline clip-path="url(#clip681)" style="stroke:#000000; stroke-linecap:round; stroke-linejoin:round; stroke-width:2; stroke-opacity:0.1; fill:none" points="288.311,956.979 2352.76,956.979 "/>
<polyline clip-path="url(#clip681)" style="stroke:#000000; stroke-linecap:round; stroke-linejoin:round; stroke-width:2; stroke-opacity:0.1; fill:none" points="288.311,459.141 2352.76,459.141 "/>
<polyline clip-path="url(#clip680)" style="stroke:#000000; stroke-linecap:round; stroke-linejoin:round; stroke-width:4; stroke-opacity:1; fill:none" points="288.311,1423.18 2352.76,1423.18 "/>
<polyline clip-path="url(#clip680)" style="stroke:#000000; stroke-linecap:round; stroke-linejoin:round; stroke-width:4; stroke-opacity:1; fill:none" points="336.434,1423.18 336.434,1404.28 "/>
<polyline clip-path="url(#clip680)" style="stroke:#000000; stroke-linecap:round; stroke-linejoin:round; stroke-width:4; stroke-opacity:1; fill:none" points="851.669,1423.18 851.669,1404.28 "/>
<polyline clip-path="url(#clip680)" style="stroke:#000000; stroke-linecap:round; stroke-linejoin:round; stroke-width:4; stroke-opacity:1; fill:none" points="1366.9,1423.18 1366.9,1404.28 "/>
<polyline clip-path="url(#clip680)" style="stroke:#000000; stroke-linecap:round; stroke-linejoin:round; stroke-width:4; stroke-opacity:1; fill:none" points="1882.14,1423.18 1882.14,1404.28 "/>
<path clip-path="url(#clip680)" d="M336.434 1454.1 Q332.823 1454.1 330.994 1457.66 Q329.188 1461.2 329.188 1468.33 Q329.188 1475.44 330.994 1479.01 Q332.823 1482.55 336.434 1482.55 Q340.068 1482.55 341.873 1479.01 Q343.702 1475.44 343.702 1468.33 Q343.702 1461.2 341.873 1457.66 Q340.068 1454.1 336.434 1454.1 M336.434 1450.39 Q342.244 1450.39 345.299 1455 Q348.378 1459.58 348.378 1468.33 Q348.378 1477.06 345.299 1481.67 Q342.244 1486.25 336.434 1486.25 Q330.623 1486.25 327.545 1481.67 Q324.489 1477.06 324.489 1468.33 Q324.489 1459.58 327.545 1455 Q330.623 1450.39 336.434 1450.39 Z" fill="#000000" fill-rule="nonzero" fill-opacity="1" /><path clip-path="url(#clip680)" d="M811.276 1481.64 L818.915 1481.64 L818.915 1455.28 L810.604 1456.95 L810.604 1452.69 L818.868 1451.02 L823.544 1451.02 L823.544 1481.64 L831.183 1481.64 L831.183 1485.58 L811.276 1485.58 L811.276 1481.64 Z" fill="#000000" fill-rule="nonzero" fill-opacity="1" /><path clip-path="url(#clip680)" d="M850.627 1454.1 Q847.016 1454.1 845.188 1457.66 Q843.382 1461.2 843.382 1468.33 Q843.382 1475.44 845.188 1479.01 Q847.016 1482.55 850.627 1482.55 Q854.262 1482.55 856.067 1479.01 Q857.896 1475.44 857.896 1468.33 Q857.896 1461.2 856.067 1457.66 Q854.262 1454.1 850.627 1454.1 M850.627 1450.39 Q856.438 1450.39 859.493 1455 Q862.572 1459.58 862.572 1468.33 Q862.572 1477.06 859.493 1481.67 Q856.438 1486.25 850.627 1486.25 Q844.817 1486.25 841.739 1481.67 Q838.683 1477.06 838.683 1468.33 Q838.683 1459.58 841.739 1455 Q844.817 1450.39 850.627 1450.39 Z" fill="#000000" fill-rule="nonzero" fill-opacity="1" /><path clip-path="url(#clip680)" d="M880.789 1454.1 Q877.178 1454.1 875.349 1457.66 Q873.544 1461.2 873.544 1468.33 Q873.544 1475.44 875.349 1479.01 Q877.178 1482.55 880.789 1482.55 Q884.423 1482.55 886.229 1479.01 Q888.058 1475.44 888.058 1468.33 Q888.058 1461.2 886.229 1457.66 Q884.423 1454.1 880.789 1454.1 M880.789 1450.39 Q886.599 1450.39 889.655 1455 Q892.734 1459.58 892.734 1468.33 Q892.734 1477.06 889.655 1481.67 Q886.599 1486.25 880.789 1486.25 Q874.979 1486.25 871.9 1481.67 Q868.845 1477.06 868.845 1468.33 Q868.845 1459.58 871.9 1455 Q874.979 1450.39 880.789 1450.39 Z" fill="#000000" fill-rule="nonzero" fill-opacity="1" /><path clip-path="url(#clip680)" d="M1330.6 1481.64 L1346.92 1481.64 L1346.92 1485.58 L1324.97 1485.58 L1324.97 1481.64 Q1327.63 1478.89 1332.22 1474.26 Q1336.82 1469.61 1338 1468.27 Q1340.25 1465.74 1341.13 1464.01 Q1342.03 1462.25 1342.03 1460.56 Q1342.03 1457.8 1340.09 1456.07 Q1338.17 1454.33 1335.06 1454.33 Q1332.87 1454.33 1330.41 1455.09 Q1327.98 1455.86 1325.2 1457.41 L1325.2 1452.69 Q1328.03 1451.55 1330.48 1450.97 Q1332.93 1450.39 1334.97 1450.39 Q1340.34 1450.39 1343.54 1453.08 Q1346.73 1455.77 1346.73 1460.26 Q1346.73 1462.39 1345.92 1464.31 Q1345.13 1466.2 1343.03 1468.8 Q1342.45 1469.47 1339.35 1472.69 Q1336.24 1475.88 1330.6 1481.64 Z" fill="#000000" fill-rule="nonzero" fill-opacity="1" /><path clip-path="url(#clip680)" d="M1366.73 1454.1 Q1363.12 1454.1 1361.29 1457.66 Q1359.49 1461.2 1359.49 1468.33 Q1359.49 1475.44 1361.29 1479.01 Q1363.12 1482.55 1366.73 1482.55 Q1370.37 1482.55 1372.17 1479.01 Q1374 1475.44 1374 1468.33 Q1374 1461.2 1372.17 1457.66 Q1370.37 1454.1 1366.73 1454.1 M1366.73 1450.39 Q1372.54 1450.39 1375.6 1455 Q1378.68 1459.58 1378.68 1468.33 Q1378.68 1477.06 1375.6 1481.67 Q1372.54 1486.25 1366.73 1486.25 Q1360.92 1486.25 1357.84 1481.67 Q1354.79 1477.06 1354.79 1468.33 Q1354.79 1459.58 1357.84 1455 Q1360.92 1450.39 1366.73 1450.39 Z" fill="#000000" fill-rule="nonzero" fill-opacity="1" /><path clip-path="url(#clip680)" d="M1396.89 1454.1 Q1393.28 1454.1 1391.45 1457.66 Q1389.65 1461.2 1389.65 1468.33 Q1389.65 1475.44 1391.45 1479.01 Q1393.28 1482.55 1396.89 1482.55 Q1400.53 1482.55 1402.33 1479.01 Q1404.16 1475.44 1404.16 1468.33 Q1404.16 1461.2 1402.33 1457.66 Q1400.53 1454.1 1396.89 1454.1 M1396.89 1450.39 Q1402.7 1450.39 1405.76 1455 Q1408.84 1459.58 1408.84 1468.33 Q1408.84 1477.06 1405.76 1481.67 Q1402.7 1486.25 1396.89 1486.25 Q1391.08 1486.25 1388 1481.67 Q1384.95 1477.06 1384.95 1468.33 Q1384.95 1459.58 1388 1455 Q1391.08 1450.39 1396.89 1450.39 Z" fill="#000000" fill-rule="nonzero" fill-opacity="1" /><path clip-path="url(#clip680)" d="M1855.9 1466.95 Q1859.26 1467.66 1861.13 1469.93 Q1863.03 1472.2 1863.03 1475.53 Q1863.03 1480.65 1859.51 1483.45 Q1855.99 1486.25 1849.51 1486.25 Q1847.34 1486.25 1845.02 1485.81 Q1842.73 1485.39 1840.28 1484.54 L1840.28 1480.02 Q1842.22 1481.16 1844.54 1481.74 Q1846.85 1482.32 1849.37 1482.32 Q1853.77 1482.32 1856.06 1480.58 Q1858.38 1478.84 1858.38 1475.53 Q1858.38 1472.48 1856.23 1470.77 Q1854.1 1469.03 1850.28 1469.03 L1846.25 1469.03 L1846.25 1465.19 L1850.46 1465.19 Q1853.91 1465.19 1855.74 1463.82 Q1857.57 1462.43 1857.57 1459.84 Q1857.57 1457.18 1855.67 1455.77 Q1853.8 1454.33 1850.28 1454.33 Q1848.36 1454.33 1846.16 1454.75 Q1843.96 1455.16 1841.32 1456.04 L1841.32 1451.88 Q1843.98 1451.14 1846.3 1450.77 Q1848.63 1450.39 1850.69 1450.39 Q1856.02 1450.39 1859.12 1452.83 Q1862.22 1455.23 1862.22 1459.35 Q1862.22 1462.22 1860.58 1464.21 Q1858.93 1466.18 1855.9 1466.95 Z" fill="#000000" fill-rule="nonzero" fill-opacity="1" /><path clip-path="url(#clip680)" d="M1881.9 1454.1 Q1878.29 1454.1 1876.46 1457.66 Q1874.65 1461.2 1874.65 1468.33 Q1874.65 1475.44 1876.46 1479.01 Q1878.29 1482.55 1881.9 1482.55 Q1885.53 1482.55 1887.34 1479.01 Q1889.17 1475.44 1889.17 1468.33 Q1889.17 1461.2 1887.34 1457.66 Q1885.53 1454.1 1881.9 1454.1 M1881.9 1450.39 Q1887.71 1450.39 1890.76 1455 Q1893.84 1459.58 1893.84 1468.33 Q1893.84 1477.06 1890.76 1481.67 Q1887.71 1486.25 1881.9 1486.25 Q1876.09 1486.25 1873.01 1481.67 Q1869.95 1477.06 1869.95 1468.33 Q1869.95 1459.58 1873.01 1455 Q1876.09 1450.39 1881.9 1450.39 Z" fill="#000000" fill-rule="nonzero" fill-opacity="1" /><path clip-path="url(#clip680)" d="M1912.06 1454.1 Q1908.45 1454.1 1906.62 1457.66 Q1904.81 1461.2 1904.81 1468.33 Q1904.81 1475.44 1906.62 1479.01 Q1908.45 1482.55 1912.06 1482.55 Q1915.69 1482.55 1917.5 1479.01 Q1919.33 1475.44 1919.33 1468.33 Q1919.33 1461.2 1917.5 1457.66 Q1915.69 1454.1 1912.06 1454.1 M1912.06 1450.39 Q1917.87 1450.39 1920.92 1455 Q1924 1459.58 1924 1468.33 Q1924 1477.06 1920.92 1481.67 Q1917.87 1486.25 1912.06 1486.25 Q1906.25 1486.25 1903.17 1481.67 Q1900.11 1477.06 1900.11 1468.33 Q1900.11 1459.58 1903.17 1455 Q1906.25 1450.39 1912.06 1450.39 Z" fill="#000000" fill-rule="nonzero" fill-opacity="1" /><path clip-path="url(#clip680)" d="M1188.25 1520.52 L1194.68 1520.52 L1194.68 1568.04 L1188.25 1568.04 L1188.25 1520.52 Z" fill="#000000" fill-rule="nonzero" fill-opacity="1" /><path clip-path="url(#clip680)" d="M1213.02 1522.27 L1213.02 1532.4 L1225.08 1532.4 L1225.08 1536.95 L1213.02 1536.95 L1213.02 1556.3 Q1213.02 1560.66 1214.19 1561.9 Q1215.4 1563.14 1219.06 1563.14 L1225.08 1563.14 L1225.08 1568.04 L1219.06 1568.04 Q1212.28 1568.04 1209.71 1565.53 Q1207.13 1562.98 1207.13 1556.3 L1207.13 1536.95 L1202.83 1536.95 L1202.83 1532.4 L1207.13 1532.4 L1207.13 1522.27 L1213.02 1522.27 Z" fill="#000000" fill-rule="nonzero" fill-opacity="1" /><path clip-path="url(#clip680)" d="M1263.27 1548.76 L1263.27 1551.62 L1236.35 1551.62 Q1236.73 1557.67 1239.98 1560.85 Q1243.25 1564 1249.08 1564 Q1252.45 1564 1255.6 1563.17 Q1258.79 1562.35 1261.91 1560.69 L1261.91 1566.23 Q1258.75 1567.57 1255.44 1568.27 Q1252.13 1568.97 1248.73 1568.97 Q1240.2 1568.97 1235.2 1564 Q1230.24 1559.04 1230.24 1550.57 Q1230.24 1541.82 1234.95 1536.69 Q1239.69 1531.54 1247.71 1531.54 Q1254.9 1531.54 1259.07 1536.18 Q1263.27 1540.8 1263.27 1548.76 M1257.42 1547.04 Q1257.35 1542.23 1254.71 1539.37 Q1252.1 1536.5 1247.77 1536.5 Q1242.87 1536.5 1239.91 1539.27 Q1236.98 1542.04 1236.54 1547.07 L1257.42 1547.04 Z" fill="#000000" fill-rule="nonzero" fill-opacity="1" /><path clip-path="url(#clip680)" d="M1293.54 1537.87 Q1292.56 1537.3 1291.38 1537.04 Q1290.23 1536.76 1288.83 1536.76 Q1283.87 1536.76 1281.19 1540 Q1278.55 1543.22 1278.55 1549.27 L1278.55 1568.04 L1272.66 1568.04 L1272.66 1532.4 L1278.55 1532.4 L1278.55 1537.93 Q1280.4 1534.69 1283.36 1533.13 Q1286.32 1531.54 1290.55 1531.54 Q1291.16 1531.54 1291.89 1531.63 Q1292.62 1531.7 1293.51 1531.85 L1293.54 1537.87 Z" fill="#000000" fill-rule="nonzero" fill-opacity="1" /><path clip-path="url(#clip680)" d="M1315.89 1550.12 Q1308.79 1550.12 1306.05 1551.75 Q1303.31 1553.37 1303.31 1557.29 Q1303.31 1560.4 1305.35 1562.25 Q1307.42 1564.07 1310.95 1564.07 Q1315.82 1564.07 1318.75 1560.63 Q1321.71 1557.16 1321.71 1551.43 L1321.71 1550.12 L1315.89 1550.12 M1327.57 1547.71 L1327.57 1568.04 L1321.71 1568.04 L1321.71 1562.63 Q1319.71 1565.88 1316.71 1567.44 Q1313.72 1568.97 1309.39 1568.97 Q1303.92 1568.97 1300.67 1565.91 Q1297.46 1562.82 1297.46 1557.67 Q1297.46 1551.65 1301.47 1548.6 Q1305.51 1545.54 1313.5 1545.54 L1321.71 1545.54 L1321.71 1544.97 Q1321.71 1540.93 1319.04 1538.73 Q1316.4 1536.5 1311.59 1536.5 Q1308.53 1536.5 1305.64 1537.23 Q1302.74 1537.97 1300.07 1539.43 L1300.07 1534.02 Q1303.28 1532.78 1306.31 1532.17 Q1309.33 1531.54 1312.19 1531.54 Q1319.93 1531.54 1323.75 1535.55 Q1327.57 1539.56 1327.57 1547.71 Z" fill="#000000" fill-rule="nonzero" fill-opacity="1" /><path clip-path="url(#clip680)" d="M1345.42 1522.27 L1345.42 1532.4 L1357.49 1532.4 L1357.49 1536.95 L1345.42 1536.95 L1345.42 1556.3 Q1345.42 1560.66 1346.6 1561.9 Q1347.81 1563.14 1351.47 1563.14 L1357.49 1563.14 L1357.49 1568.04 L1351.47 1568.04 Q1344.69 1568.04 1342.11 1565.53 Q1339.53 1562.98 1339.53 1556.3 L1339.53 1536.95 L1335.24 1536.95 L1335.24 1532.4 L1339.53 1532.4 L1339.53 1522.27 L1345.42 1522.27 Z" fill="#000000" fill-rule="nonzero" fill-opacity="1" /><path clip-path="url(#clip680)" d="M1365.19 1532.4 L1371.05 1532.4 L1371.05 1568.04 L1365.19 1568.04 L1365.19 1532.4 M1365.19 1518.52 L1371.05 1518.52 L1371.05 1525.93 L1365.19 1525.93 L1365.19 1518.52 Z" fill="#000000" fill-rule="nonzero" fill-opacity="1" /><path clip-path="url(#clip680)" d="M1397.11 1536.5 Q1392.4 1536.5 1389.66 1540.19 Q1386.93 1543.85 1386.93 1550.25 Q1386.93 1556.65 1389.63 1560.34 Q1392.37 1564 1397.11 1564 Q1401.79 1564 1404.53 1560.31 Q1407.27 1556.62 1407.27 1550.25 Q1407.27 1543.92 1404.53 1540.23 Q1401.79 1536.5 1397.11 1536.5 M1397.11 1531.54 Q1404.75 1531.54 1409.11 1536.5 Q1413.47 1541.47 1413.47 1550.25 Q1413.47 1559 1409.11 1564 Q1404.75 1568.97 1397.11 1568.97 Q1389.44 1568.97 1385.08 1564 Q1380.75 1559 1380.75 1550.25 Q1380.75 1541.47 1385.08 1536.5 Q1389.44 1531.54 1397.11 1531.54 Z" fill="#000000" fill-rule="nonzero" fill-opacity="1" /><path clip-path="url(#clip680)" d="M1452.81 1546.53 L1452.81 1568.04 L1446.96 1568.04 L1446.96 1546.72 Q1446.96 1541.66 1444.98 1539.14 Q1443.01 1536.63 1439.06 1536.63 Q1434.32 1536.63 1431.58 1539.65 Q1428.85 1542.68 1428.85 1547.9 L1428.85 1568.04 L1422.96 1568.04 L1422.96 1532.4 L1428.85 1532.4 L1428.85 1537.93 Q1430.95 1534.72 1433.78 1533.13 Q1436.64 1531.54 1440.37 1531.54 Q1446.51 1531.54 1449.66 1535.36 Q1452.81 1539.14 1452.81 1546.53 Z" fill="#000000" fill-rule="nonzero" fill-opacity="1" /><polyline clip-path="url(#clip680)" style="stroke:#000000; stroke-linecap:round; stroke-linejoin:round; stroke-width:4; stroke-opacity:1; fill:none" points="288.311,1423.18 288.311,123.472 "/>
<polyline clip-path="url(#clip680)" style="stroke:#000000; stroke-linecap:round; stroke-linejoin:round; stroke-width:4; stroke-opacity:1; fill:none" points="288.311,956.979 307.208,956.979 "/>
<polyline clip-path="url(#clip680)" style="stroke:#000000; stroke-linecap:round; stroke-linejoin:round; stroke-width:4; stroke-opacity:1; fill:none" points="288.311,459.141 307.208,459.141 "/>
<path clip-path="url(#clip680)" d="M114.931 976.772 L122.57 976.772 L122.57 950.406 L114.26 952.073 L114.26 947.814 L122.524 946.147 L127.2 946.147 L127.2 976.772 L134.839 976.772 L134.839 980.707 L114.931 980.707 L114.931 976.772 Z" fill="#000000" fill-rule="nonzero" fill-opacity="1" /><path clip-path="url(#clip680)" d="M154.283 949.226 Q150.672 949.226 148.843 952.791 Q147.038 956.332 147.038 963.462 Q147.038 970.568 148.843 974.133 Q150.672 977.675 154.283 977.675 Q157.917 977.675 159.723 974.133 Q161.552 970.568 161.552 963.462 Q161.552 956.332 159.723 952.791 Q157.917 949.226 154.283 949.226 M154.283 945.522 Q160.093 945.522 163.149 950.129 Q166.227 954.712 166.227 963.462 Q166.227 972.189 163.149 976.795 Q160.093 981.378 154.283 981.378 Q148.473 981.378 145.394 976.795 Q142.339 972.189 142.339 963.462 Q142.339 954.712 145.394 950.129 Q148.473 945.522 154.283 945.522 Z" fill="#000000" fill-rule="nonzero" fill-opacity="1" /><path clip-path="url(#clip680)" d="M166.227 939.623 L190.339 939.623 L190.339 942.821 L166.227 942.821 L166.227 939.623 Z" fill="#000000" fill-rule="nonzero" fill-opacity="1" /><path clip-path="url(#clip680)" d="M201.812 950.099 L215.071 950.099 L215.071 953.297 L197.241 953.297 L197.241 950.099 Q199.404 947.861 203.128 944.1 Q206.871 940.319 207.83 939.228 Q209.655 937.178 210.369 935.768 Q211.103 934.338 211.103 932.965 Q211.103 930.727 209.523 929.317 Q207.962 927.906 205.442 927.906 Q203.655 927.906 201.661 928.527 Q199.686 929.147 197.43 930.408 L197.43 926.571 Q199.724 925.649 201.718 925.179 Q203.711 924.709 205.366 924.709 Q209.73 924.709 212.325 926.891 Q214.921 929.072 214.921 932.721 Q214.921 934.451 214.263 936.012 Q213.623 937.555 211.912 939.661 Q211.441 940.206 208.921 942.821 Q206.401 945.416 201.812 950.099 Z" fill="#000000" fill-rule="nonzero" fill-opacity="1" /><path clip-path="url(#clip680)" d="M223.046 948.519 L227.014 948.519 L227.014 953.297 L223.046 953.297 L223.046 948.519 Z" fill="#000000" fill-rule="nonzero" fill-opacity="1" /><path clip-path="url(#clip680)" d="M235.327 925.217 L250.242 925.217 L250.242 928.414 L238.807 928.414 L238.807 935.298 Q239.634 935.016 240.462 934.884 Q241.289 934.733 242.117 934.733 Q246.819 934.733 249.565 937.31 Q252.311 939.887 252.311 944.288 Q252.311 948.82 249.489 951.341 Q246.668 953.842 241.534 953.842 Q239.766 953.842 237.923 953.541 Q236.098 953.24 234.142 952.638 L234.142 948.82 Q235.835 949.742 237.641 950.193 Q239.446 950.645 241.459 950.645 Q244.712 950.645 246.612 948.933 Q248.511 947.222 248.511 944.288 Q248.511 941.354 246.612 939.642 Q244.712 937.931 241.459 937.931 Q239.935 937.931 238.412 938.269 Q236.907 938.608 235.327 939.322 L235.327 925.217 Z" fill="#000000" fill-rule="nonzero" fill-opacity="1" /><path clip-path="url(#clip680)" d="M144.855 478.933 L152.493 478.933 L152.493 452.567 L144.183 454.234 L144.183 449.975 L152.447 448.308 L157.123 448.308 L157.123 478.933 L164.762 478.933 L164.762 482.868 L144.855 482.868 L144.855 478.933 Z" fill="#000000" fill-rule="nonzero" fill-opacity="1" /><path clip-path="url(#clip680)" d="M184.206 451.387 Q180.595 451.387 178.766 454.952 Q176.961 458.493 176.961 465.623 Q176.961 472.729 178.766 476.294 Q180.595 479.836 184.206 479.836 Q187.84 479.836 189.646 476.294 Q191.475 472.729 191.475 465.623 Q191.475 458.493 189.646 454.952 Q187.84 451.387 184.206 451.387 M184.206 447.683 Q190.016 447.683 193.072 452.29 Q196.151 456.873 196.151 465.623 Q196.151 474.35 193.072 478.956 Q190.016 483.54 184.206 483.54 Q178.396 483.54 175.317 478.956 Q172.262 474.35 172.262 465.623 Q172.262 456.873 175.317 452.29 Q178.396 447.683 184.206 447.683 Z" fill="#000000" fill-rule="nonzero" fill-opacity="1" /><path clip-path="url(#clip680)" d="M205.855 429.879 Q202.921 429.879 201.436 432.776 Q199.969 435.653 199.969 441.446 Q199.969 447.22 201.436 450.116 Q202.921 452.994 205.855 452.994 Q208.808 452.994 210.275 450.116 Q211.761 447.22 211.761 441.446 Q211.761 435.653 210.275 432.776 Q208.808 429.879 205.855 429.879 M205.855 426.87 Q210.576 426.87 213.059 430.613 Q215.56 434.337 215.56 441.446 Q215.56 448.537 213.059 452.279 Q210.576 456.003 205.855 456.003 Q201.135 456.003 198.633 452.279 Q196.151 448.537 196.151 441.446 Q196.151 434.337 198.633 430.613 Q201.135 426.87 205.855 426.87 Z" fill="#000000" fill-rule="nonzero" fill-opacity="1" /><path clip-path="url(#clip680)" d="M222.237 450.681 L226.205 450.681 L226.205 455.458 L222.237 455.458 L222.237 450.681 Z" fill="#000000" fill-rule="nonzero" fill-opacity="1" /><path clip-path="url(#clip680)" d="M242.606 429.879 Q239.672 429.879 238.186 432.776 Q236.719 435.653 236.719 441.446 Q236.719 447.22 238.186 450.116 Q239.672 452.994 242.606 452.994 Q245.559 452.994 247.026 450.116 Q248.511 447.22 248.511 441.446 Q248.511 435.653 247.026 432.776 Q245.559 429.879 242.606 429.879 M242.606 426.87 Q247.327 426.87 249.809 430.613 Q252.311 434.337 252.311 441.446 Q252.311 448.537 249.809 452.279 Q247.327 456.003 242.606 456.003 Q237.885 456.003 235.384 452.279 Q232.901 448.537 232.901 441.446 Q232.901 434.337 235.384 430.613 Q237.885 426.87 242.606 426.87 Z" fill="#000000" fill-rule="nonzero" fill-opacity="1" /><path clip-path="url(#clip680)" d="M16.4842 840.023 L16.4842 833.593 L58.5933 833.593 L58.5933 810.454 L64.0042 810.454 L64.0042 840.023 L16.4842 840.023 Z" fill="#000000" fill-rule="nonzero" fill-opacity="1" /><path clip-path="url(#clip680)" d="M32.4621 791.293 Q32.4621 796.004 36.1542 798.741 Q39.8145 801.478 46.212 801.478 Q52.6095 801.478 56.3017 798.773 Q59.9619 796.036 59.9619 791.293 Q59.9619 786.614 56.2698 783.877 Q52.5777 781.14 46.212 781.14 Q39.8781 781.14 36.186 783.877 Q32.4621 786.614 32.4621 791.293 M27.4968 791.293 Q27.4968 783.654 32.4621 779.294 Q37.4273 774.933 46.212 774.933 Q54.9649 774.933 59.9619 779.294 Q64.9272 783.654 64.9272 791.293 Q64.9272 798.964 59.9619 803.324 Q54.9649 807.653 46.212 807.653 Q37.4273 807.653 32.4621 803.324 Q27.4968 798.964 27.4968 791.293 Z" fill="#000000" fill-rule="nonzero" fill-opacity="1" /><path clip-path="url(#clip680)" d="M29.4065 742.5 L34.9447 742.5 Q33.6716 744.983 33.035 747.656 Q32.3984 750.33 32.3984 753.194 Q32.3984 757.555 33.7352 759.751 Q35.072 761.915 37.7456 761.915 Q39.7826 761.915 40.9603 760.356 Q42.1061 758.796 43.1565 754.086 L43.6021 752.08 Q44.9389 745.842 47.3897 743.232 Q49.8086 740.59 54.1691 740.59 Q59.1344 740.59 62.0308 744.537 Q64.9272 748.452 64.9272 755.327 Q64.9272 758.192 64.3543 761.311 Q63.8132 764.398 62.6992 767.836 L56.6518 767.836 Q58.3387 764.589 59.198 761.438 Q60.0256 758.287 60.0256 755.2 Q60.0256 751.062 58.6251 748.834 Q57.1929 746.606 54.6147 746.606 Q52.2276 746.606 50.9545 748.229 Q49.6813 749.821 48.5037 755.263 L48.0262 757.3 Q46.8804 762.743 44.5251 765.162 Q42.138 767.581 38.0002 767.581 Q32.9713 767.581 30.2341 764.016 Q27.4968 760.451 27.4968 753.895 Q27.4968 750.648 27.9743 747.784 Q28.4517 744.919 29.4065 742.5 Z" fill="#000000" fill-rule="nonzero" fill-opacity="1" /><path clip-path="url(#clip680)" d="M29.4065 708.539 L34.9447 708.539 Q33.6716 711.022 33.035 713.695 Q32.3984 716.369 32.3984 719.233 Q32.3984 723.594 33.7352 725.79 Q35.072 727.954 37.7456 727.954 Q39.7826 727.954 40.9603 726.395 Q42.1061 724.835 43.1565 720.125 L43.6021 718.119 Q44.9389 711.881 47.3897 709.271 Q49.8086 706.629 54.1691 706.629 Q59.1344 706.629 62.0308 710.576 Q64.9272 714.491 64.9272 721.366 Q64.9272 724.23 64.3543 727.35 Q63.8132 730.437 62.6992 733.875 L56.6518 733.875 Q58.3387 730.628 59.198 727.477 Q60.0256 724.326 60.0256 721.239 Q60.0256 717.101 58.6251 714.873 Q57.1929 712.645 54.6147 712.645 Q52.2276 712.645 50.9545 714.268 Q49.6813 715.86 48.5037 721.302 L48.0262 723.339 Q46.8804 728.782 44.5251 731.201 Q42.138 733.62 38.0002 733.62 Q32.9713 733.62 30.2341 730.055 Q27.4968 726.49 27.4968 719.934 Q27.4968 716.687 27.9743 713.823 Q28.4517 710.958 29.4065 708.539 Z" fill="#000000" fill-rule="nonzero" fill-opacity="1" /><path clip-path="url(#clip680)" d="M1054.59 12.096 L1105.75 12.096 L1105.75 18.9825 L1084.28 18.9825 L1084.28 72.576 L1076.06 72.576 L1076.06 18.9825 L1054.59 18.9825 L1054.59 12.096 Z" fill="#000000" fill-rule="nonzero" fill-opacity="1" /><path clip-path="url(#clip680)" d="M1127.43 34.1734 Q1126.17 33.4443 1124.67 33.1202 Q1123.21 32.7556 1121.43 32.7556 Q1115.11 32.7556 1111.71 36.8875 Q1108.35 40.9789 1108.35 48.6757 L1108.35 72.576 L1100.85 72.576 L1100.85 27.2059 L1108.35 27.2059 L1108.35 34.2544 Q1110.7 30.1225 1114.46 28.1376 Q1118.23 26.1121 1123.62 26.1121 Q1124.39 26.1121 1125.32 26.2337 Q1126.25 26.3147 1127.39 26.5172 L1127.43 34.1734 Z" fill="#000000" fill-rule="nonzero" fill-opacity="1" /><path clip-path="url(#clip680)" d="M1155.86 49.7694 Q1146.83 49.7694 1143.35 51.8354 Q1139.86 53.9013 1139.86 58.8839 Q1139.86 62.8538 1142.46 65.2034 Q1145.09 67.5124 1149.59 67.5124 Q1155.78 67.5124 1159.51 63.1374 Q1163.28 58.7219 1163.28 51.4303 L1163.28 49.7694 L1155.86 49.7694 M1170.73 46.6907 L1170.73 72.576 L1163.28 72.576 L1163.28 65.6895 Q1160.73 69.8214 1156.92 71.8063 Q1153.11 73.7508 1147.6 73.7508 Q1140.63 73.7508 1136.5 69.8619 Q1132.41 65.9325 1132.41 59.3701 Q1132.41 51.7138 1137.51 47.825 Q1142.66 43.9361 1152.83 43.9361 L1163.28 43.9361 L1163.28 43.2069 Q1163.28 38.0623 1159.87 35.2672 Q1156.51 32.4315 1150.4 32.4315 Q1146.51 32.4315 1142.82 33.3632 Q1139.13 34.295 1135.73 36.1584 L1135.73 29.2718 Q1139.82 27.692 1143.67 26.9223 Q1147.52 26.1121 1151.16 26.1121 Q1161.01 26.1121 1165.87 31.2163 Q1170.73 36.3204 1170.73 46.6907 Z" fill="#000000" fill-rule="nonzero" fill-opacity="1" /><path clip-path="url(#clip680)" d="M1186.08 27.2059 L1193.54 27.2059 L1193.54 72.576 L1186.08 72.576 L1186.08 27.2059 M1186.08 9.54393 L1193.54 9.54393 L1193.54 18.9825 L1186.08 18.9825 L1186.08 9.54393 Z" fill="#000000" fill-rule="nonzero" fill-opacity="1" /><path clip-path="url(#clip680)" d="M1246.85 45.1919 L1246.85 72.576 L1239.39 72.576 L1239.39 45.4349 Q1239.39 38.994 1236.88 35.7938 Q1234.37 32.5936 1229.35 32.5936 Q1223.31 32.5936 1219.83 36.4419 Q1216.34 40.2903 1216.34 46.9338 L1216.34 72.576 L1208.85 72.576 L1208.85 27.2059 L1216.34 27.2059 L1216.34 34.2544 Q1219.02 30.163 1222.62 28.1376 Q1226.27 26.1121 1231.01 26.1121 Q1238.83 26.1121 1242.84 30.9732 Q1246.85 35.7938 1246.85 45.1919 Z" fill="#000000" fill-rule="nonzero" fill-opacity="1" /><path clip-path="url(#clip680)" d="M1261.71 27.2059 L1269.17 27.2059 L1269.17 72.576 L1261.71 72.576 L1261.71 27.2059 M1261.71 9.54393 L1269.17 9.54393 L1269.17 18.9825 L1261.71 18.9825 L1261.71 9.54393 Z" fill="#000000" fill-rule="nonzero" fill-opacity="1" /><path clip-path="url(#clip680)" d="M1322.48 45.1919 L1322.48 72.576 L1315.02 72.576 L1315.02 45.4349 Q1315.02 38.994 1312.51 35.7938 Q1310 32.5936 1304.98 32.5936 Q1298.94 32.5936 1295.46 36.4419 Q1291.97 40.2903 1291.97 46.9338 L1291.97 72.576 L1284.48 72.576 L1284.48 27.2059 L1291.97 27.2059 L1291.97 34.2544 Q1294.65 30.163 1298.25 28.1376 Q1301.9 26.1121 1306.64 26.1121 Q1314.46 26.1121 1318.47 30.9732 Q1322.48 35.7938 1322.48 45.1919 Z" fill="#000000" fill-rule="nonzero" fill-opacity="1" /><path clip-path="url(#clip680)" d="M1367.2 49.3643 Q1367.2 41.2625 1363.84 36.8065 Q1360.52 32.3505 1354.48 32.3505 Q1348.48 32.3505 1345.12 36.8065 Q1341.8 41.2625 1341.8 49.3643 Q1341.8 57.4256 1345.12 61.8816 Q1348.48 66.3376 1354.48 66.3376 Q1360.52 66.3376 1363.84 61.8816 Q1367.2 57.4256 1367.2 49.3643 M1374.65 66.9452 Q1374.65 78.5308 1369.51 84.1616 Q1364.36 89.8329 1353.75 89.8329 Q1349.82 89.8329 1346.34 89.2252 Q1342.85 88.6581 1339.57 87.4428 L1339.57 80.1917 Q1342.85 81.9741 1346.05 82.8248 Q1349.25 83.6755 1352.58 83.6755 Q1359.91 83.6755 1363.55 79.8271 Q1367.2 76.0193 1367.2 68.282 L1367.2 64.5957 Q1364.89 68.6061 1361.29 70.5911 Q1357.68 72.576 1352.66 72.576 Q1344.31 72.576 1339.21 66.2161 Q1334.1 59.8562 1334.1 49.3643 Q1334.1 38.832 1339.21 32.472 Q1344.31 26.1121 1352.66 26.1121 Q1357.68 26.1121 1361.29 28.0971 Q1364.89 30.082 1367.2 34.0924 L1367.2 27.2059 L1374.65 27.2059 L1374.65 66.9452 Z" fill="#000000" fill-rule="nonzero" fill-opacity="1" /><path clip-path="url(#clip680)" d="M1416.7 12.096 L1424.88 12.096 L1424.88 65.6895 L1454.33 65.6895 L1454.33 72.576 L1416.7 72.576 L1416.7 12.096 Z" fill="#000000" fill-rule="nonzero" fill-opacity="1" /><path clip-path="url(#clip680)" d="M1478.72 32.4315 Q1472.73 32.4315 1469.24 37.1306 Q1465.76 41.7891 1465.76 49.9314 Q1465.76 58.0738 1469.2 62.7728 Q1472.69 67.4314 1478.72 67.4314 Q1484.68 67.4314 1488.16 62.7323 Q1491.64 58.0333 1491.64 49.9314 Q1491.64 41.8701 1488.16 37.1711 Q1484.68 32.4315 1478.72 32.4315 M1478.72 26.1121 Q1488.44 26.1121 1493.99 32.4315 Q1499.54 38.7509 1499.54 49.9314 Q1499.54 61.0714 1493.99 67.4314 Q1488.44 73.7508 1478.72 73.7508 Q1468.96 73.7508 1463.41 67.4314 Q1457.9 61.0714 1457.9 49.9314 Q1457.9 38.7509 1463.41 32.4315 Q1468.96 26.1121 1478.72 26.1121 Z" fill="#000000" fill-rule="nonzero" fill-opacity="1" /><path clip-path="url(#clip680)" d="M1540.82 28.5427 L1540.82 35.5912 Q1537.66 33.9709 1534.26 33.1607 Q1530.86 32.3505 1527.21 32.3505 Q1521.66 32.3505 1518.87 34.0519 Q1516.11 35.7533 1516.11 39.156 Q1516.11 41.7486 1518.1 43.2475 Q1520.08 44.7058 1526.08 46.0426 L1528.63 46.6097 Q1536.57 48.3111 1539.89 51.4303 Q1543.25 54.509 1543.25 60.0587 Q1543.25 66.3781 1538.23 70.0644 Q1533.25 73.7508 1524.5 73.7508 Q1520.85 73.7508 1516.88 73.0216 Q1512.95 72.3329 1508.58 70.9151 L1508.58 63.2184 Q1512.71 65.3654 1516.72 66.4591 Q1520.73 67.5124 1524.66 67.5124 Q1529.92 67.5124 1532.76 65.73 Q1535.6 63.9071 1535.6 60.6258 Q1535.6 57.5877 1533.53 55.9673 Q1531.5 54.3469 1524.58 52.8481 L1521.98 52.2405 Q1515.06 50.7821 1511.98 47.7845 Q1508.9 44.7463 1508.9 39.4801 Q1508.9 33.0797 1513.44 29.5959 Q1517.97 26.1121 1526.32 26.1121 Q1530.45 26.1121 1534.1 26.7198 Q1537.74 27.3274 1540.82 28.5427 Z" fill="#000000" fill-rule="nonzero" fill-opacity="1" /><path clip-path="url(#clip680)" d="M1584.04 28.5427 L1584.04 35.5912 Q1580.88 33.9709 1577.48 33.1607 Q1574.08 32.3505 1570.43 32.3505 Q1564.88 32.3505 1562.09 34.0519 Q1559.33 35.7533 1559.33 39.156 Q1559.33 41.7486 1561.32 43.2475 Q1563.3 44.7058 1569.3 46.0426 L1571.85 46.6097 Q1579.79 48.3111 1583.11 51.4303 Q1586.48 54.509 1586.48 60.0587 Q1586.48 66.3781 1581.45 70.0644 Q1576.47 73.7508 1567.72 73.7508 Q1564.07 73.7508 1560.1 73.0216 Q1556.17 72.3329 1551.8 70.9151 L1551.8 63.2184 Q1555.93 65.3654 1559.94 66.4591 Q1563.95 67.5124 1567.88 67.5124 Q1573.15 67.5124 1575.98 65.73 Q1578.82 63.9071 1578.82 60.6258 Q1578.82 57.5877 1576.75 55.9673 Q1574.73 54.3469 1567.8 52.8481 L1565.21 52.2405 Q1558.28 50.7821 1555.2 47.7845 Q1552.12 44.7463 1552.12 39.4801 Q1552.12 33.0797 1556.66 29.5959 Q1561.2 26.1121 1569.54 26.1121 Q1573.67 26.1121 1577.32 26.7198 Q1580.97 27.3274 1584.04 28.5427 Z" fill="#000000" fill-rule="nonzero" fill-opacity="1" /><polyline clip-path="url(#clip681)" style="stroke:#009af9; stroke-linecap:round; stroke-linejoin:round; stroke-width:4; stroke-opacity:1; fill:none" points="346.738,251.894 351.891,160.256 357.043,171.342 362.195,239.911 367.348,258.402 372.5,272.114 377.652,281.398 382.805,289.317 387.957,297.67 393.11,302.14 398.262,307.006 403.414,319.962 408.567,353.717 413.719,416.846 418.871,465.419 424.024,489.516 429.176,499.929 434.328,500.242 439.481,510.256 444.633,524.043 449.785,538.556 454.938,551.751 460.09,553.786 465.242,564.43 470.395,578.028 475.547,589.459 480.7,597.886 485.852,599.835 491.004,606.13 496.157,619.178 501.309,630.559 506.461,630.906 511.614,630.572 516.766,633.892 521.918,648.89 527.071,641.947 532.223,648.086 537.375,661.81 542.528,659.288 547.68,661.506 552.832,672.12 557.985,673.243 563.137,682.372 568.29,680.754 573.442,677.775 578.594,705.217 583.747,698.118 588.899,685.842 594.051,683.562 599.204,701.28 604.356,715.429 609.508,709.499 614.661,711.798 619.813,720.521 624.965,758.938 630.118,736.219 635.27,734.81 640.423,759.129 645.575,733.682 650.727,769.339 655.88,762.43 661.032,765.892 666.184,781.33 671.337,779.108 676.489,771.622 681.641,777.325 686.794,813.009 691.946,788.38 697.098,812.409 702.251,807.264 707.403,839.819 712.555,829.878 717.708,795.808 722.86,861.92 728.013,805.633 733.165,822.398 738.317,828.86 743.47,819.512 748.622,856.38 753.774,865.435 758.927,846.22 764.079,849.08 769.231,891.428 774.384,868.945 779.536,891.467 784.688,882.088 789.841,845.422 794.993,864.737 800.145,869.921 805.298,854.579 810.45,877.674 815.603,888.77 820.755,886.416 825.907,866.674 831.06,859.029 836.212,896.271 841.364,928.115 846.517,867.471 851.669,871.65 856.821,886.239 861.974,854.164 867.126,847.479 872.278,897.146 877.431,869.541 882.583,912.366 887.736,918.498 892.888,863.383 898.04,899.233 903.193,857.177 908.345,894.346 913.497,929 918.65,869.918 923.802,951.119 928.954,885.245 934.107,893.84 939.259,995.237 944.411,910.942 949.564,903.714 954.716,873.653 959.868,861.78 965.021,962.76 970.173,892.293 975.326,914.736 980.478,865.696 985.63,894.234 990.783,899.095 995.935,916.064 1001.09,941.992 1006.24,867.624 1011.39,980.03 1016.54,942.93 1021.7,916.217 1026.85,921.804 1032,910.323 1037.15,919.254 1042.31,983.296 1047.46,880.698 1052.61,947.181 1057.76,1015.96 1062.92,928.374 1068.07,910.323 1073.22,836.511 1078.37,918.677 1083.52,912.562 1088.68,882.912 1093.83,957.195 1098.98,928.952 1104.13,839.159 1109.29,895.728 1114.44,907.656 1119.59,938.498 1124.74,929.187 1129.9,981.113 1135.05,917.871 1140.2,1008.27 1145.35,918.378 1150.51,868.065 1155.66,889.02 1160.81,939.306 1165.96,861.172 1171.11,960.734 1176.27,953.108 1181.42,937.802 1186.57,999.688 1191.72,872.333 1196.88,992.618 1202.03,900.474 1207.18,947.681 1212.33,941.224 1217.49,967.007 1222.64,897.21 1227.79,955.535 1232.94,964.011 1238.1,1051 1243.25,1192.24 1248.4,966.928 1253.55,928.851 1258.71,1170.86 1263.86,1002.08 1269.01,958.385 1274.16,1035.12 1279.31,941.427 1284.47,920.296 1289.62,995.589 1294.77,971.226 1299.92,875.46 1305.08,999.799 1310.23,900.27 1315.38,946.227 1320.53,881.059 1325.69,926.162 1330.84,936.829 1335.99,1022.4 1341.14,934.349 1346.3,919.427 1351.45,940.693 1356.6,925.45 1361.75,936.108 1366.9,976.275 1372.06,996.857 1377.21,1112.01 1382.36,953.565 1387.51,899.608 1392.67,957.122 1397.82,914.321 1402.97,904.104 1408.12,917.026 1413.28,882.404 1418.43,963.706 1423.58,929.792 1428.73,955.807 1433.89,1065.28 1439.04,897.485 1444.19,1386.4 1449.34,942.017 1454.49,923.01 1459.65,910.306 1464.8,921.196 1469.95,898.712 1475.1,980.329 1480.26,944.854 1485.41,1030.89 1490.56,960.914 1495.71,954.594 1500.87,962.14 1506.02,929.408 1511.17,923.903 1516.32,1003.42 1521.48,943.241 1526.63,906.69 1531.78,895.613 1536.93,898.13 1542.08,958.949 1547.24,1027.62 1552.39,927.657 1557.54,1026.22 1562.69,927.961 1567.85,966.245 1573,923.815 1578.15,978.482 1583.3,971.22 1588.46,885.433 1593.61,947.158 1598.76,903.653 1603.91,956.917 1609.07,904.716 1614.22,996.342 1619.37,1014.26 1624.52,982.734 1629.67,1006.55 1634.83,1041.24 1639.98,1166.13 1645.13,1171.3 1650.28,958.462 1655.44,956.053 1660.59,956.27 1665.74,929.186 1670.89,994.937 1676.05,967.846 1681.2,1009.33 1686.35,948.011 1691.5,942.316 1696.66,926.082 1701.81,992.743 1706.96,918.072 1712.11,1082.28 1717.26,1140.54 1722.42,1069.16 1727.57,952.843 1732.72,952.745 1737.87,961.917 1743.03,955.263 1748.18,952.545 1753.33,943.127 1758.48,972.066 1763.64,906.159 1768.79,957.578 1773.94,983.771 1779.09,918.454 1784.25,899.856 1789.4,928.83 1794.55,985.648 1799.7,887.718 1804.85,1021.18 1810.01,1032.44 1815.16,966.975 1820.31,1001.62 1825.46,971.142 1830.62,941.742 1835.77,1028.68 1840.92,1065.56 1846.07,919.235 1851.23,955.617 1856.38,1008.49 1861.53,1147.46 1866.68,894.219 1871.84,980.934 1876.99,938.216 1882.14,1090.86 1887.29,961.393 1892.44,934.592 1897.6,955.263 1902.75,933.033 1907.9,965.064 1913.05,1004.38 1918.21,924.865 1923.36,1004.64 1928.51,917.906 1933.66,893.99 1938.82,1009.07 1943.97,955.616 1949.12,915.917 1954.27,932.154 1959.43,969.02 1964.58,860.9 1969.73,1000.44 1974.88,957.336 1980.03,1010.91 1985.19,932.02 1990.34,957.574 1995.49,995.413 2000.64,906.76 2005.8,1027.43 2010.95,875.583 2016.1,842.266 2021.25,956.803 2026.41,929.992 2031.56,879.203 2036.71,1157.23 2041.86,939.054 2047.02,936.785 2052.17,1008.87 2057.32,1024.38 2062.47,928.808 2067.62,973.473 2072.78,1129.51 2077.93,1028.38 2083.08,907.29 2088.23,953.034 2093.39,894.576 2098.54,927.801 2103.69,1049.78 2108.84,936.602 2114,899.204 2119.15,903.363 2124.3,911.234 2129.45,981.569 2134.61,901.787 2139.76,948.084 2144.91,933.419 2150.06,888.254 2155.21,965.281 2160.37,976.778 2165.52,940.487 2170.67,956.888 2175.82,944.534 2180.98,966.958 2186.13,915.308 2191.28,933.737 2196.43,893.033 2201.59,937.252 2206.74,967.43 2211.89,972.763 2217.04,891.85 2222.2,908.374 2227.35,931.917 2232.5,1073.67 2237.65,961.999 2242.8,955.637 2247.96,985.303 2253.11,919.329 2258.26,898.024 2263.41,966.061 2268.57,1067.56 2273.72,1228.2 2278.87,989.219 2284.02,963.395 2289.18,987.517 2294.33,848.027 "/>
</svg>
