<?xml version="1.0" encoding="utf-8"?>
<svg xmlns="http://www.w3.org/2000/svg" xmlns:xlink="http://www.w3.org/1999/xlink" width="600" height="400" viewBox="0 0 2400 1600">
<defs>
  <clipPath id="clip910">
    <rect x="0" y="0" width="2400" height="1600"/>
  </clipPath>
</defs>
<path clip-path="url(#clip910)" d="M0 1600 L2400 1600 L2400 0 L0 0  Z" fill="#ffffff" fill-rule="evenodd" fill-opacity="1"/>
<defs>
  <clipPath id="clip911">
    <rect x="480" y="0" width="1681" height="1600"/>
  </clipPath>
</defs>
<path clip-path="url(#clip910)" d="M110.881 1423.18 L2352.76 1423.18 L2352.76 47.2441 L110.881 47.2441  Z" fill="#ffffff" fill-rule="evenodd" fill-opacity="1"/>
<defs>
  <clipPath id="clip912">
    <rect x="110" y="47" width="2243" height="1377"/>
  </clipPath>
</defs>
<polyline clip-path="url(#clip912)" style="stroke:#000000; stroke-linecap:round; stroke-linejoin:round; stroke-width:2; stroke-opacity:0.1; fill:none" points="110.881,1423.18 110.881,47.2441 "/>
<polyline clip-path="url(#clip912)" style="stroke:#000000; stroke-linecap:round; stroke-linejoin:round; stroke-width:2; stroke-opacity:0.1; fill:none" points="484.527,1423.18 484.527,47.2441 "/>
<polyline clip-path="url(#clip912)" style="stroke:#000000; stroke-linecap:round; stroke-linejoin:round; stroke-width:2; stroke-opacity:0.1; fill:none" points="858.173,1423.18 858.173,47.2441 "/>
<polyline clip-path="url(#clip912)" style="stroke:#000000; stroke-linecap:round; stroke-linejoin:round; stroke-width:2; stroke-opacity:0.1; fill:none" points="1231.82,1423.18 1231.82,47.2441 "/>
<polyline clip-path="url(#clip912)" style="stroke:#000000; stroke-linecap:round; stroke-linejoin:round; stroke-width:2; stroke-opacity:0.1; fill:none" points="1605.46,1423.18 1605.46,47.2441 "/>
<polyline clip-path="url(#clip912)" style="stroke:#000000; stroke-linecap:round; stroke-linejoin:round; stroke-width:2; stroke-opacity:0.1; fill:none" points="1979.11,1423.18 1979.11,47.2441 "/>
<polyline clip-path="url(#clip912)" style="stroke:#000000; stroke-linecap:round; stroke-linejoin:round; stroke-width:2; stroke-opacity:0.1; fill:none" points="2352.76,1423.18 2352.76,47.2441 "/>
<polyline clip-path="url(#clip912)" style="stroke:#000000; stroke-linecap:round; stroke-linejoin:round; stroke-width:2; stroke-opacity:0.1; fill:none" points="110.881,1384.24 2352.76,1384.24 "/>
<polyline clip-path="url(#clip912)" style="stroke:#000000; stroke-linecap:round; stroke-linejoin:round; stroke-width:2; stroke-opacity:0.1; fill:none" points="110.881,971.473 2352.76,971.473 "/>
<polyline clip-path="url(#clip912)" style="stroke:#000000; stroke-linecap:round; stroke-linejoin:round; stroke-width:2; stroke-opacity:0.1; fill:none" points="110.881,558.708 2352.76,558.708 "/>
<polyline clip-path="url(#clip912)" style="stroke:#000000; stroke-linecap:round; stroke-linejoin:round; stroke-width:2; stroke-opacity:0.1; fill:none" points="110.881,145.943 2352.76,145.943 "/>
<polyline clip-path="url(#clip910)" style="stroke:#000000; stroke-linecap:round; stroke-linejoin:round; stroke-width:4; stroke-opacity:1; fill:none" points="110.881,1423.18 2352.76,1423.18 "/>
<polyline clip-path="url(#clip910)" style="stroke:#000000; stroke-linecap:round; stroke-linejoin:round; stroke-width:4; stroke-opacity:1; fill:none" points="110.881,1423.18 110.881,1404.28 "/>
<polyline clip-path="url(#clip910)" style="stroke:#000000; stroke-linecap:round; stroke-linejoin:round; stroke-width:4; stroke-opacity:1; fill:none" points="484.527,1423.18 484.527,1404.28 "/>
<polyline clip-path="url(#clip910)" style="stroke:#000000; stroke-linecap:round; stroke-linejoin:round; stroke-width:4; stroke-opacity:1; fill:none" points="858.173,1423.18 858.173,1404.28 "/>
<polyline clip-path="url(#clip910)" style="stroke:#000000; stroke-linecap:round; stroke-linejoin:round; stroke-width:4; stroke-opacity:1; fill:none" points="1231.82,1423.18 1231.82,1404.28 "/>
<polyline clip-path="url(#clip910)" style="stroke:#000000; stroke-linecap:round; stroke-linejoin:round; stroke-width:4; stroke-opacity:1; fill:none" points="1605.46,1423.18 1605.46,1404.28 "/>
<polyline clip-path="url(#clip910)" style="stroke:#000000; stroke-linecap:round; stroke-linejoin:round; stroke-width:4; stroke-opacity:1; fill:none" points="1979.11,1423.18 1979.11,1404.28 "/>
<polyline clip-path="url(#clip910)" style="stroke:#000000; stroke-linecap:round; stroke-linejoin:round; stroke-width:4; stroke-opacity:1; fill:none" points="2352.76,1423.18 2352.76,1404.28 "/>
<path clip-path="url(#clip910)" d="M110.881 1454.1 Q107.27 1454.1 105.441 1457.66 Q103.636 1461.2 103.636 1468.33 Q103.636 1475.44 105.441 1479.01 Q107.27 1482.55 110.881 1482.55 Q114.515 1482.55 116.321 1479.01 Q118.149 1475.44 118.149 1468.33 Q118.149 1461.2 116.321 1457.66 Q114.515 1454.1 110.881 1454.1 M110.881 1450.39 Q116.691 1450.39 119.747 1455 Q122.825 1459.58 122.825 1468.33 Q122.825 1477.06 119.747 1481.67 Q116.691 1486.25 110.881 1486.25 Q105.071 1486.25 101.992 1481.67 Q98.9365 1477.06 98.9365 1468.33 Q98.9365 1459.58 101.992 1455 Q105.071 1450.39 110.881 1450.39 Z" fill="#000000" fill-rule="nonzero" fill-opacity="1" /><path clip-path="url(#clip910)" d="M463.3 1481.64 L479.619 1481.64 L479.619 1485.58 L457.675 1485.58 L457.675 1481.64 Q460.337 1478.89 464.92 1474.26 Q469.527 1469.61 470.707 1468.27 Q472.953 1465.74 473.832 1464.01 Q474.735 1462.25 474.735 1460.56 Q474.735 1457.8 472.791 1456.07 Q470.869 1454.33 467.768 1454.33 Q465.568 1454.33 463.115 1455.09 Q460.684 1455.86 457.906 1457.41 L457.906 1452.69 Q460.731 1451.55 463.184 1450.97 Q465.638 1450.39 467.675 1450.39 Q473.045 1450.39 476.24 1453.08 Q479.434 1455.77 479.434 1460.26 Q479.434 1462.39 478.624 1464.31 Q477.837 1466.2 475.73 1468.8 Q475.152 1469.47 472.05 1472.69 Q468.948 1475.88 463.3 1481.64 Z" fill="#000000" fill-rule="nonzero" fill-opacity="1" /><path clip-path="url(#clip910)" d="M499.434 1454.1 Q495.823 1454.1 493.994 1457.66 Q492.189 1461.2 492.189 1468.33 Q492.189 1475.44 493.994 1479.01 Q495.823 1482.55 499.434 1482.55 Q503.068 1482.55 504.874 1479.01 Q506.703 1475.44 506.703 1468.33 Q506.703 1461.2 504.874 1457.66 Q503.068 1454.1 499.434 1454.1 M499.434 1450.39 Q505.244 1450.39 508.3 1455 Q511.378 1459.58 511.378 1468.33 Q511.378 1477.06 508.3 1481.67 Q505.244 1486.25 499.434 1486.25 Q493.624 1486.25 490.545 1481.67 Q487.49 1477.06 487.49 1468.33 Q487.49 1459.58 490.545 1455 Q493.624 1450.39 499.434 1450.39 Z" fill="#000000" fill-rule="nonzero" fill-opacity="1" /><path clip-path="url(#clip910)" d="M846.344 1455.09 L834.538 1473.54 L846.344 1473.54 L846.344 1455.09 M845.117 1451.02 L850.997 1451.02 L850.997 1473.54 L855.927 1473.54 L855.927 1477.43 L850.997 1477.43 L850.997 1485.58 L846.344 1485.58 L846.344 1477.43 L830.742 1477.43 L830.742 1472.92 L845.117 1451.02 Z" fill="#000000" fill-rule="nonzero" fill-opacity="1" /><path clip-path="url(#clip910)" d="M873.659 1454.1 Q870.047 1454.1 868.219 1457.66 Q866.413 1461.2 866.413 1468.33 Q866.413 1475.44 868.219 1479.01 Q870.047 1482.55 873.659 1482.55 Q877.293 1482.55 879.098 1479.01 Q880.927 1475.44 880.927 1468.33 Q880.927 1461.2 879.098 1457.66 Q877.293 1454.1 873.659 1454.1 M873.659 1450.39 Q879.469 1450.39 882.524 1455 Q885.603 1459.58 885.603 1468.33 Q885.603 1477.06 882.524 1481.67 Q879.469 1486.25 873.659 1486.25 Q867.848 1486.25 864.77 1481.67 Q861.714 1477.06 861.714 1468.33 Q861.714 1459.58 864.77 1455 Q867.848 1450.39 873.659 1450.39 Z" fill="#000000" fill-rule="nonzero" fill-opacity="1" /><path clip-path="url(#clip910)" d="M1217.22 1466.44 Q1214.08 1466.44 1212.22 1468.59 Q1210.39 1470.74 1210.39 1474.49 Q1210.39 1478.22 1212.22 1480.39 Q1214.08 1482.55 1217.22 1482.55 Q1220.37 1482.55 1222.2 1480.39 Q1224.05 1478.22 1224.05 1474.49 Q1224.05 1470.74 1222.2 1468.59 Q1220.37 1466.44 1217.22 1466.44 M1226.51 1451.78 L1226.51 1456.04 Q1224.75 1455.21 1222.94 1454.77 Q1221.16 1454.33 1219.4 1454.33 Q1214.77 1454.33 1212.32 1457.45 Q1209.89 1460.58 1209.54 1466.9 Q1210.9 1464.89 1212.96 1463.82 Q1215.02 1462.73 1217.5 1462.73 Q1222.71 1462.73 1225.72 1465.9 Q1228.75 1469.05 1228.75 1474.49 Q1228.75 1479.82 1225.6 1483.03 Q1222.46 1486.25 1217.22 1486.25 Q1211.23 1486.25 1208.06 1481.67 Q1204.89 1477.06 1204.89 1468.33 Q1204.89 1460.14 1208.77 1455.28 Q1212.66 1450.39 1219.21 1450.39 Q1220.97 1450.39 1222.76 1450.74 Q1224.56 1451.09 1226.51 1451.78 Z" fill="#000000" fill-rule="nonzero" fill-opacity="1" /><path clip-path="url(#clip910)" d="M1246.81 1454.1 Q1243.2 1454.1 1241.37 1457.66 Q1239.56 1461.2 1239.56 1468.33 Q1239.56 1475.44 1241.37 1479.01 Q1243.2 1482.55 1246.81 1482.55 Q1250.44 1482.55 1252.25 1479.01 Q1254.08 1475.44 1254.08 1468.33 Q1254.08 1461.2 1252.25 1457.66 Q1250.44 1454.1 1246.81 1454.1 M1246.81 1450.39 Q1252.62 1450.39 1255.67 1455 Q1258.75 1459.58 1258.75 1468.33 Q1258.75 1477.06 1255.67 1481.67 Q1252.62 1486.25 1246.81 1486.25 Q1241 1486.25 1237.92 1481.67 Q1234.86 1477.06 1234.86 1468.33 Q1234.86 1459.58 1237.92 1455 Q1241 1450.39 1246.81 1450.39 Z" fill="#000000" fill-rule="nonzero" fill-opacity="1" /><path clip-path="url(#clip910)" d="M1590.34 1469.17 Q1587 1469.17 1585.08 1470.95 Q1583.18 1472.73 1583.18 1475.86 Q1583.18 1478.98 1585.08 1480.77 Q1587 1482.55 1590.34 1482.55 Q1593.67 1482.55 1595.59 1480.77 Q1597.51 1478.96 1597.51 1475.86 Q1597.51 1472.73 1595.59 1470.95 Q1593.69 1469.17 1590.34 1469.17 M1585.66 1467.18 Q1582.65 1466.44 1580.96 1464.38 Q1579.3 1462.32 1579.3 1459.35 Q1579.3 1455.21 1582.24 1452.8 Q1585.2 1450.39 1590.34 1450.39 Q1595.5 1450.39 1598.44 1452.8 Q1601.38 1455.21 1601.38 1459.35 Q1601.38 1462.32 1599.69 1464.38 Q1598.02 1466.44 1595.04 1467.18 Q1598.42 1467.96 1600.29 1470.26 Q1602.19 1472.55 1602.19 1475.86 Q1602.19 1480.88 1599.11 1483.57 Q1596.05 1486.25 1590.34 1486.25 Q1584.62 1486.25 1581.54 1483.57 Q1578.49 1480.88 1578.49 1475.86 Q1578.49 1472.55 1580.38 1470.26 Q1582.28 1467.96 1585.66 1467.18 M1583.95 1459.79 Q1583.95 1462.48 1585.61 1463.98 Q1587.3 1465.49 1590.34 1465.49 Q1593.35 1465.49 1595.04 1463.98 Q1596.75 1462.48 1596.75 1459.79 Q1596.75 1457.11 1595.04 1455.6 Q1593.35 1454.1 1590.34 1454.1 Q1587.3 1454.1 1585.61 1455.6 Q1583.95 1457.11 1583.95 1459.79 Z" fill="#000000" fill-rule="nonzero" fill-opacity="1" /><path clip-path="url(#clip910)" d="M1620.5 1454.1 Q1616.89 1454.1 1615.06 1457.66 Q1613.25 1461.2 1613.25 1468.33 Q1613.25 1475.44 1615.06 1479.01 Q1616.89 1482.55 1620.5 1482.55 Q1624.13 1482.55 1625.94 1479.01 Q1627.77 1475.44 1627.77 1468.33 Q1627.77 1461.2 1625.94 1457.66 Q1624.13 1454.1 1620.5 1454.1 M1620.5 1450.39 Q1626.31 1450.39 1629.36 1455 Q1632.44 1459.58 1632.44 1468.33 Q1632.44 1477.06 1629.36 1481.67 Q1626.31 1486.25 1620.5 1486.25 Q1614.69 1486.25 1611.61 1481.67 Q1608.55 1477.06 1608.55 1468.33 Q1608.55 1459.58 1611.61 1455 Q1614.69 1450.39 1620.5 1450.39 Z" fill="#000000" fill-rule="nonzero" fill-opacity="1" /><path clip-path="url(#clip910)" d="M1938.72 1481.64 L1946.36 1481.64 L1946.36 1455.28 L1938.05 1456.95 L1938.05 1452.69 L1946.31 1451.02 L1950.99 1451.02 L1950.99 1481.64 L1958.62 1481.64 L1958.62 1485.58 L1938.72 1485.58 L1938.72 1481.64 Z" fill="#000000" fill-rule="nonzero" fill-opacity="1" /><path clip-path="url(#clip910)" d="M1978.07 1454.1 Q1974.46 1454.1 1972.63 1457.66 Q1970.82 1461.2 1970.82 1468.33 Q1970.82 1475.44 1972.63 1479.01 Q1974.46 1482.55 1978.07 1482.55 Q1981.7 1482.55 1983.51 1479.01 Q1985.34 1475.44 1985.34 1468.33 Q1985.34 1461.2 1983.51 1457.66 Q1981.7 1454.1 1978.07 1454.1 M1978.07 1450.39 Q1983.88 1450.39 1986.93 1455 Q1990.01 1459.58 1990.01 1468.33 Q1990.01 1477.06 1986.93 1481.67 Q1983.88 1486.25 1978.07 1486.25 Q1972.26 1486.25 1969.18 1481.67 Q1966.12 1477.06 1966.12 1468.33 Q1966.12 1459.58 1969.18 1455 Q1972.26 1450.39 1978.07 1450.39 Z" fill="#000000" fill-rule="nonzero" fill-opacity="1" /><path clip-path="url(#clip910)" d="M2008.23 1454.1 Q2004.62 1454.1 2002.79 1457.66 Q2000.98 1461.2 2000.98 1468.33 Q2000.98 1475.44 2002.79 1479.01 Q2004.62 1482.55 2008.23 1482.55 Q2011.86 1482.55 2013.67 1479.01 Q2015.5 1475.44 2015.5 1468.33 Q2015.5 1461.2 2013.67 1457.66 Q2011.86 1454.1 2008.23 1454.1 M2008.23 1450.39 Q2014.04 1450.39 2017.1 1455 Q2020.17 1459.58 2020.17 1468.33 Q2020.17 1477.06 2017.1 1481.67 Q2014.04 1486.25 2008.23 1486.25 Q2002.42 1486.25 1999.34 1481.67 Q1996.29 1477.06 1996.29 1468.33 Q1996.29 1459.58 1999.34 1455 Q2002.42 1450.39 2008.23 1450.39 Z" fill="#000000" fill-rule="nonzero" fill-opacity="1" /><path clip-path="url(#clip910)" d="M2312.36 1481.64 L2320 1481.64 L2320 1455.28 L2311.69 1456.95 L2311.69 1452.69 L2319.96 1451.02 L2324.63 1451.02 L2324.63 1481.64 L2332.27 1481.64 L2332.27 1485.58 L2312.36 1485.58 L2312.36 1481.64 Z" fill="#000000" fill-rule="nonzero" fill-opacity="1" /><path clip-path="url(#clip910)" d="M2345.74 1481.64 L2362.06 1481.64 L2362.06 1485.58 L2340.12 1485.58 L2340.12 1481.64 Q2342.78 1478.89 2347.36 1474.26 Q2351.97 1469.61 2353.15 1468.27 Q2355.39 1465.74 2356.27 1464.01 Q2357.18 1462.25 2357.18 1460.56 Q2357.18 1457.8 2355.23 1456.07 Q2353.31 1454.33 2350.21 1454.33 Q2348.01 1454.33 2345.56 1455.09 Q2343.13 1455.86 2340.35 1457.41 L2340.35 1452.69 Q2343.17 1451.55 2345.63 1450.97 Q2348.08 1450.39 2350.12 1450.39 Q2355.49 1450.39 2358.68 1453.08 Q2361.88 1455.77 2361.88 1460.26 Q2361.88 1462.39 2361.07 1464.31 Q2360.28 1466.2 2358.17 1468.8 Q2357.59 1469.47 2354.49 1472.69 Q2351.39 1475.88 2345.74 1481.64 Z" fill="#000000" fill-rule="nonzero" fill-opacity="1" /><path clip-path="url(#clip910)" d="M2381.88 1454.1 Q2378.27 1454.1 2376.44 1457.66 Q2374.63 1461.2 2374.63 1468.33 Q2374.63 1475.44 2376.44 1479.01 Q2378.27 1482.55 2381.88 1482.55 Q2385.51 1482.55 2387.32 1479.01 Q2389.14 1475.44 2389.14 1468.33 Q2389.14 1461.2 2387.32 1457.66 Q2385.51 1454.1 2381.88 1454.1 M2381.88 1450.39 Q2387.69 1450.39 2390.74 1455 Q2393.82 1459.58 2393.82 1468.33 Q2393.82 1477.06 2390.74 1481.67 Q2387.69 1486.25 2381.88 1486.25 Q2376.07 1486.25 2372.99 1481.67 Q2369.93 1477.06 2369.93 1468.33 Q2369.93 1459.58 2372.99 1455 Q2376.07 1450.39 2381.88 1450.39 Z" fill="#000000" fill-rule="nonzero" fill-opacity="1" /><path clip-path="url(#clip910)" d="M1230.88 1522.27 L1230.88 1532.4 L1242.94 1532.4 L1242.94 1536.95 L1230.88 1536.95 L1230.88 1556.3 Q1230.88 1560.66 1232.06 1561.9 Q1233.27 1563.14 1236.93 1563.14 L1242.94 1563.14 L1242.94 1568.04 L1236.93 1568.04 Q1230.15 1568.04 1227.57 1565.53 Q1224.99 1562.98 1224.99 1556.3 L1224.99 1536.95 L1220.69 1536.95 L1220.69 1532.4 L1224.99 1532.4 L1224.99 1522.27 L1230.88 1522.27 Z" fill="#000000" fill-rule="nonzero" fill-opacity="1" /><polyline clip-path="url(#clip910)" style="stroke:#000000; stroke-linecap:round; stroke-linejoin:round; stroke-width:4; stroke-opacity:1; fill:none" points="110.881,1423.18 110.881,47.2441 "/>
<polyline clip-path="url(#clip910)" style="stroke:#000000; stroke-linecap:round; stroke-linejoin:round; stroke-width:4; stroke-opacity:1; fill:none" points="110.881,1384.24 129.779,1384.24 "/>
<polyline clip-path="url(#clip910)" style="stroke:#000000; stroke-linecap:round; stroke-linejoin:round; stroke-width:4; stroke-opacity:1; fill:none" points="110.881,971.473 129.779,971.473 "/>
<polyline clip-path="url(#clip910)" style="stroke:#000000; stroke-linecap:round; stroke-linejoin:round; stroke-width:4; stroke-opacity:1; fill:none" points="110.881,558.708 129.779,558.708 "/>
<polyline clip-path="url(#clip910)" style="stroke:#000000; stroke-linecap:round; stroke-linejoin:round; stroke-width:4; stroke-opacity:1; fill:none" points="110.881,145.943 129.779,145.943 "/>
<path clip-path="url(#clip910)" d="M62.9365 1370.04 Q59.3254 1370.04 57.4967 1373.6 Q55.6912 1377.14 55.6912 1384.27 Q55.6912 1391.38 57.4967 1394.94 Q59.3254 1398.49 62.9365 1398.49 Q66.5707 1398.49 68.3763 1394.94 Q70.205 1391.38 70.205 1384.27 Q70.205 1377.14 68.3763 1373.6 Q66.5707 1370.04 62.9365 1370.04 M62.9365 1366.33 Q68.7467 1366.33 71.8022 1370.94 Q74.8809 1375.52 74.8809 1384.27 Q74.8809 1393 71.8022 1397.61 Q68.7467 1402.19 62.9365 1402.19 Q57.1264 1402.19 54.0477 1397.61 Q50.9921 1393 50.9921 1384.27 Q50.9921 1375.52 54.0477 1370.94 Q57.1264 1366.33 62.9365 1366.33 Z" fill="#000000" fill-rule="nonzero" fill-opacity="1" /><path clip-path="url(#clip910)" d="M54.9736 984.818 L62.6124 984.818 L62.6124 958.452 L54.3023 960.119 L54.3023 955.86 L62.5661 954.193 L67.242 954.193 L67.242 984.818 L74.8809 984.818 L74.8809 988.753 L54.9736 988.753 L54.9736 984.818 Z" fill="#000000" fill-rule="nonzero" fill-opacity="1" /><path clip-path="url(#clip910)" d="M58.5615 572.053 L74.8809 572.053 L74.8809 575.988 L52.9366 575.988 L52.9366 572.053 Q55.5986 569.299 60.1819 564.669 Q64.7883 560.016 65.9689 558.674 Q68.2143 556.15 69.0939 554.414 Q69.9967 552.655 69.9967 550.965 Q69.9967 548.211 68.0522 546.475 Q66.1309 544.738 63.0291 544.738 Q60.83 544.738 58.3763 545.502 Q55.9458 546.266 53.168 547.817 L53.168 543.095 Q55.9921 541.961 58.4458 541.382 Q60.8995 540.803 62.9365 540.803 Q68.3068 540.803 71.5013 543.488 Q74.6957 546.174 74.6957 550.664 Q74.6957 552.794 73.8855 554.715 Q73.0985 556.613 70.992 559.206 Q70.4133 559.877 67.3115 563.095 Q64.2096 566.289 58.5615 572.053 Z" fill="#000000" fill-rule="nonzero" fill-opacity="1" /><path clip-path="url(#clip910)" d="M67.7513 144.589 Q71.1078 145.307 72.9827 147.575 Q74.8809 149.844 74.8809 153.177 Q74.8809 158.293 71.3624 161.094 Q67.8439 163.895 61.3624 163.895 Q59.1865 163.895 56.8717 163.455 Q54.5801 163.038 52.1264 162.182 L52.1264 157.668 Q54.0708 158.802 56.3856 159.381 Q58.7004 159.96 61.2236 159.96 Q65.6217 159.96 67.9133 158.223 Q70.2281 156.487 70.2281 153.177 Q70.2281 150.122 68.0754 148.409 Q65.9457 146.673 62.1263 146.673 L58.0986 146.673 L58.0986 142.83 L62.3115 142.83 Q65.7606 142.83 67.5893 141.464 Q69.418 140.075 69.418 137.483 Q69.418 134.821 67.5198 133.409 Q65.6448 131.974 62.1263 131.974 Q60.205 131.974 58.006 132.39 Q55.8069 132.807 53.168 133.687 L53.168 129.52 Q55.8301 128.779 58.1449 128.409 Q60.4828 128.038 62.543 128.038 Q67.867 128.038 70.9689 130.469 Q74.0707 132.876 74.0707 136.997 Q74.0707 139.867 72.4272 141.858 Q70.7837 143.825 67.7513 144.589 Z" fill="#000000" fill-rule="nonzero" fill-opacity="1" /><polyline clip-path="url(#clip912)" style="stroke:#009af9; stroke-linecap:round; stroke-linejoin:round; stroke-width:4; stroke-opacity:1; fill:none" points="110.881,1384.24 112.815,1378.24 114.75,1362.34 116.684,1339.42 118.618,1311.82 120.552,1281.23 122.487,1248.76 124.421,1215.18 126.355,1181.01 128.29,1146.64 130.224,1112.34 132.158,1078.35 134.093,1044.84 136.027,1011.94 137.961,979.762 139.896,948.399 141.83,917.913 143.764,888.37 145.699,859.817 147.633,832.28 149.567,805.793 151.502,780.372 153.436,756.02 155.37,732.757 157.305,710.593 159.239,689.517 161.173,669.533 163.107,650.635 165.042,632.779 166.976,615.922 168.91,600.021 170.845,585.008 172.779,570.816 174.713,557.377 176.648,544.605 178.582,532.458 180.516,520.91 182.451,509.915 184.385,499.406 186.319,489.298 188.254,479.575 190.188,470.225 192.122,461.217 194.057,452.518 195.991,444.108 197.925,435.968 199.86,428.079 201.794,420.417 203.728,412.96 205.662,405.699 207.597,398.622 209.531,391.717 211.465,384.968 213.4,378.366 215.334,371.905 217.268,365.577 219.203,359.374 221.137,353.288 223.071,347.312 225.006,341.444 226.94,335.679 228.874,330.015 230.809,324.447 232.743,318.971 234.677,313.586 236.612,308.291 238.546,303.085 240.48,297.965 242.415,292.931 244.349,287.982 246.283,283.117 248.217,278.337 250.152,273.639 252.086,269.025 254.02,264.494 255.955,260.047 257.889,255.684 259.823,251.404 261.758,247.208 263.692,243.092 265.626,239.058 267.561,235.105 269.495,231.235 271.429,227.448 273.364,223.743 275.298,220.12 277.232,216.576 279.167,213.111 281.101,209.723 283.035,206.414 284.97,203.182 286.904,200.028 288.838,196.95 290.772,193.945 292.707,191.013 294.641,188.152 296.575,185.361 298.51,182.64 300.444,179.989 302.378,177.406 304.313,174.889 306.247,172.437 308.181,170.047 310.116,167.719 312.05,165.452 313.984,163.244 315.919,161.096 317.853,159.005 319.787,156.97 321.722,154.989 323.656,153.061 325.59,151.184 327.525,149.358 329.459,147.581 331.393,145.854 333.328,144.173 335.262,142.539 337.196,140.95 339.13,139.403 341.065,137.9 342.999,136.437 344.933,135.015 346.868,133.632 348.802,132.287 350.736,130.981 352.671,129.71 354.605,128.475 356.539,127.275 358.474,126.107 360.408,124.972 362.342,123.869 364.277,122.797 366.211,121.754 368.145,120.742 370.08,119.758 372.014,118.801 373.948,117.872 375.883,116.968 377.817,116.09 379.751,115.236 381.685,114.407 383.62,113.601 385.554,112.818 387.488,112.057 389.423,111.318 391.357,110.599 393.291,109.901 395.226,109.223 397.16,108.564 399.094,107.924 401.029,107.301 402.963,106.697 404.897,106.109 406.832,105.538 408.766,104.984 410.7,104.446 412.635,103.922 414.569,103.414 416.503,102.92 418.438,102.441 420.372,101.974 422.306,101.521 424.24,101.081 426.175,100.654 428.109,100.239 430.043,99.8352 431.978,99.4435 433.912,99.0631 435.846,98.6935 437.781,98.3344 439.715,97.9856 441.649,97.6467 443.584,97.3174 445.518,96.9975 447.452,96.6867 449.387,96.3848 451.321,96.0916 453.255,95.8069 455.19,95.5305 457.124,95.262 459.058,95.0012 460.993,94.7478 462.927,94.5017 464.861,94.2625 466.795,94.0302 468.73,93.8045 470.664,93.5852 472.598,93.3722 474.533,93.1654 476.467,92.9646 478.401,92.7696 480.336,92.5803 482.27,92.3964 484.204,92.2178 486.139,92.0442 488.073,91.8756 490.007,91.7118 491.942,91.5527 493.876,91.3981 495.81,91.2479 497.745,91.1021 499.679,90.9605 501.613,90.8231 503.548,90.6896 505.482,90.5601 507.416,90.4342 509.35,90.3119 511.285,90.1931 513.219,90.0777 515.153,89.9656 517.088,89.8566 519.022,89.7508 520.956,89.648 522.891,89.5482 524.825,89.4514 526.759,89.3573 528.694,89.2661 530.628,89.1774 532.562,89.0913 534.497,89.0076 536.431,88.9263 538.365,88.8473 540.3,88.7706 542.234,88.6961 544.168,88.6237 546.103,88.5533 548.037,88.4851 549.971,88.4188 551.905,88.3545 553.84,88.2921 555.774,88.2315 557.708,88.1726 559.643,88.1153 561.577,88.0597 563.511,88.0057 565.446,87.9532 567.38,87.9022 569.314,87.8527 571.249,87.8046 573.183,87.7579 575.117,87.7126 577.052,87.6686 578.986,87.626 580.92,87.5845 582.855,87.5442 584.789,87.5051 586.723,87.467 588.658,87.4301 590.592,87.3941 592.526,87.3593 594.46,87.3254 596.395,87.2925 598.329,87.2606 600.263,87.2296 602.198,87.1996 604.132,87.1704 606.066,87.1421 608.001,87.1145 609.935,87.0877 611.869,87.0617 613.804,87.0364 615.738,87.0119 617.672,86.988 619.607,86.9648 621.541,86.9424 623.475,86.9206 625.41,86.8994 627.344,86.8789 629.278,86.8589 631.213,86.8395 633.147,86.8207 635.081,86.8024 637.015,86.7846 638.95,86.7673 640.884,86.7505 642.818,86.7342 644.753,86.7183 646.687,86.703 648.621,86.6881 650.556,86.6736 652.49,86.6596 654.424,86.646 656.359,86.6327 658.293,86.6198 660.227,86.6073 662.162,86.5951 664.096,86.5833 666.03,86.5718 667.965,86.5606 669.899,86.5498 671.833,86.5393 673.768,86.5291 675.702,86.5193 677.636,86.5097 679.57,86.5004 681.505,86.4913 683.439,86.4825 685.373,86.4739 687.308,86.4656 689.242,86.4575 691.176,86.4496 693.111,86.442 695.045,86.4346 696.979,86.4274 698.914,86.4205 700.848,86.4137 702.782,86.4072 704.717,86.4008 706.651,86.3946 708.585,86.3886 710.52,86.3828 712.454,86.3771 714.388,86.3715 716.323,86.3661 718.257,86.3609 720.191,86.3558 722.125,86.3509 724.06,86.3462 725.994,86.3416 727.928,86.3371 729.863,86.3328 731.797,86.3286 733.731,86.3244 735.666,86.3204 737.6,86.3165 739.534,86.3127 741.469,86.309 743.403,86.3055 745.337,86.302 747.272,86.2986 749.206,86.2954 751.14,86.2923 753.075,86.2892 755.009,86.2863 756.943,86.2834 758.878,86.2806 760.812,86.2778 762.746,86.2752 764.681,86.2726 766.615,86.27 768.549,86.2676 770.483,86.2652 772.418,86.2629 774.352,86.2607 776.286,86.2586 778.221,86.2565 780.155,86.2545 782.089,86.2525 784.024,86.2506 785.958,86.2487 787.892,86.2469 789.827,86.2451 791.761,86.2433 793.695,86.2417 795.63,86.24 797.564,86.2385 799.498,86.237 801.433,86.2355 803.367,86.2341 805.301,86.2327 807.236,86.2314 809.17,86.2301 811.104,86.2288 813.038,86.2275 814.973,86.2263 816.907,86.2251 818.841,86.2239 820.776,86.2228 822.71,86.2218 824.644,86.2207 826.579,86.2198 828.513,86.2188 830.447,86.2179 832.382,86.217 834.316,86.2161 836.25,86.2152 838.185,86.2143 840.119,86.2135 842.053,86.2126 843.988,86.2118 845.922,86.2111 847.856,86.2103 849.791,86.2096 851.725,86.209 853.659,86.2083 855.593,86.2077 857.528,86.2071 859.462,86.2065 861.396,86.2059 863.331,86.2053 865.265,86.2047 867.199,86.2041 869.134,86.2036 871.068,86.203 873.002,86.2025 874.937,86.2021 876.871,86.2016 878.805,86.2012 880.74,86.2008 882.674,86.2004 884.608,86.1999 886.543,86.1995 888.477,86.1991 890.411,86.1987 892.346,86.1983 894.28,86.1979 896.214,86.1975 898.148,86.1972 900.083,86.1969 902.017,86.1966 903.951,86.1963 905.886,86.196 907.82,86.1957 909.754,86.1955 911.689,86.1952 913.623,86.1949 915.557,86.1946 917.492,86.1943 919.426,86.194 921.36,86.1938 923.295,86.1936 925.229,86.1933 927.163,86.1931 929.098,86.193 931.032,86.1928 932.966,86.1926 934.901,86.1924 936.835,86.1922 938.769,86.192 940.703,86.1918 942.638,86.1916 944.572,86.1914 946.506,86.1912 948.441,86.1911 950.375,86.1909 952.309,86.1908 954.244,86.1907 956.178,86.1906 958.112,86.1904 960.047,86.1903 961.981,86.1902 963.915,86.19 965.85,86.1899 967.784,86.1897 969.718,86.1896 971.653,86.1895 973.587,86.1894 975.521,86.1893 977.456,86.1892 979.39,86.1891 981.324,86.189 983.258,86.189 985.193,86.1889 987.127,86.1888 989.061,86.1887 990.996,86.1886 992.93,86.1885 994.864,86.1884 996.799,86.1883 998.733,86.1882 1000.67,86.1881 1002.6,86.1881 1004.54,86.188 1006.47,86.188 1008.4,86.188 1010.34,86.1879 1012.27,86.1878 1014.21,86.1878 1016.14,86.1877 1018.08,86.1876 1020.01,86.1875 1021.94,86.1875 1023.88,86.1874 1025.81,86.1874 1027.75,86.1873 1029.68,86.1873 1031.62,86.1873 1033.55,86.1873 1035.49,86.1872 1037.42,86.1872 1039.35,86.1871 1041.29,86.1871 1043.22,86.187 1045.16,86.1869 1047.09,86.1869 1049.03,86.1868 1050.96,86.1868 1052.89,86.1868 1054.83,86.1868 1056.76,86.1868 1058.7,86.1868 1060.63,86.1868 1062.57,86.1867 1064.5,86.1867 1066.43,86.1867 1068.37,86.1866 1070.3,86.1866 1072.24,86.1865 1074.17,86.1865 1076.11,86.1865 1078.04,86.1865 1079.97,86.1865 1081.91,86.1865 1083.84,86.1865 1085.78,86.1865 1087.71,86.1864 1089.65,86.1864 1091.58,86.1864 1093.51,86.1863 1095.45,86.1863 1097.38,86.1862 1099.32,86.1862 1101.25,86.1862 1103.19,86.1862 1105.12,86.1862 1107.05,86.1863 1108.99,86.1863 1110.92,86.1863 1112.86,86.1862 1114.79,86.1862 1116.73,86.1862 1118.66,86.1861 1120.6,86.1861 1122.53,86.1861 1124.46,86.186 1126.4,86.186 1128.33,86.1861 1130.27,86.1861 1132.2,86.1861 1134.14,86.1861 1136.07,86.1861 1138,86.1861 1139.94,86.1861 1141.87,86.186 1143.81,86.186 1145.74,86.186 1147.68,86.1859 1149.61,86.1859 1151.54,86.1859 1153.48,86.1859 1155.41,86.186 1157.35,86.186 1159.28,86.186 1161.22,86.186 1163.15,86.186 1165.08,86.186 1167.02,86.186 1168.95,86.1859 1170.89,86.1859 1172.82,86.1859 1174.76,86.1858 1176.69,86.1859 1178.62,86.1859 1180.56,86.1859 1182.49,86.1859 1184.43,86.1859 1186.36,86.1859 1188.3,86.1859 1190.23,86.1859 1192.16,86.1859 1194.1,86.1859 1196.03,86.1858 1197.97,86.1858 1199.9,86.1858 1201.84,86.1858 1203.77,86.1858 1205.71,86.1858 1207.64,86.1859 1209.57,86.1859 1211.51,86.1859 1213.44,86.1859 1215.38,86.1859 1217.31,86.1859 1219.25,86.1858 1221.18,86.1858 1223.11,86.1858 1225.05,86.1858 1226.98,86.1858 1228.92,86.1858 1230.85,86.1858 1232.79,86.1858 1234.72,86.1858 1236.65,86.1859 1238.59,86.1859 1240.52,86.1858 1242.46,86.1858 1244.39,86.1858 1246.33,86.1858 1248.26,86.1857 1250.19,86.1857 1252.13,86.1857 1254.06,86.1858 1256,86.1858 1257.93,86.1858 1259.87,86.1858 1261.8,86.1858 1263.73,86.1858 1265.67,86.1858 1267.6,86.1858 1269.54,86.1858 1271.47,86.1858 1273.41,86.1857 1275.34,86.1857 1277.27,86.1857 1279.21,86.1857 1281.14,86.1858 1283.08,86.1858 1285.01,86.1858 1286.95,86.1858 1288.88,86.1858 1290.82,86.1858 1292.75,86.1858 1294.68,86.1858 1296.62,86.1857 1298.55,86.1857 1300.49,86.1857 1302.42,86.1857 1304.36,86.1857 1306.29,86.1857 1308.22,86.1858 1310.16,86.1858 1312.09,86.1858 1314.03,86.1858 1315.96,86.1858 1317.9,86.1858 1319.83,86.1858 1321.76,86.1857 1323.7,86.1857 1325.63,86.1857 1327.57,86.1857 1329.5,86.1857 1331.44,86.1857 1333.37,86.1858 1335.3,86.1858 1337.24,86.1858 1339.17,86.1858 1341.11,86.1858 1343.04,86.1858 1344.98,86.1858 1346.91,86.1857 1348.84,86.1857 1350.78,86.1857 1352.71,86.1857 1354.65,86.1857 1356.58,86.1857 1358.52,86.1858 1360.45,86.1858 1362.38,86.1858 1364.32,86.1858 1366.25,86.1858 1368.19,86.1858 1370.12,86.1858 1372.06,86.1857 1373.99,86.1857 1375.93,86.1857 1377.86,86.1857 1379.79,86.1857 1381.73,86.1857 1383.66,86.1858 1385.6,86.1858 1387.53,86.1858 1389.47,86.1858 1391.4,86.1858 1393.33,86.1858 1395.27,86.1858 1397.2,86.1857 1399.14,86.1857 1401.07,86.1857 1403.01,86.1857 1404.94,86.1857 1406.87,86.1857 1408.81,86.1858 1410.74,86.1858 1412.68,86.1858 1414.61,86.1858 1416.55,86.1858 1418.48,86.1858 1420.41,86.1858 1422.35,86.1857 1424.28,86.1857 1426.22,86.1857 1428.15,86.1857 1430.09,86.1857 1432.02,86.1857 1433.95,86.1857 1435.89,86.1858 1437.82,86.1858 1439.76,86.1858 1441.69,86.1858 1443.63,86.1858 1445.56,86.1858 1447.49,86.1857 1449.43,86.1857 1451.36,86.1857 1453.3,86.1857 1455.23,86.1857 1457.17,86.1857 1459.1,86.1857 1461.04,86.1858 1462.97,86.1858 1464.9,86.1858 1466.84,86.1858 1468.77,86.1858 1470.71,86.1858 1472.64,86.1857 1474.58,86.1857 1476.51,86.1857 1478.44,86.1857 1480.38,86.1857 1482.31,86.1857 1484.25,86.1857 1486.18,86.1858 1488.12,86.1858 1490.05,86.1858 1491.98,86.1858 1493.92,86.1858 1495.85,86.1858 1497.79,86.1857 1499.72,86.1857 1501.66,86.1857 1503.59,86.1857 1505.52,86.1857 1507.46,86.1857 1509.39,86.1857 1511.33,86.1858 1513.26,86.1858 1515.2,86.1858 1517.13,86.1858 1519.06,86.1858 1521,86.1858 1522.93,86.1857 1524.87,86.1857 1526.8,86.1857 1528.74,86.1857 1530.67,86.1857 1532.6,86.1857 1534.54,86.1857 1536.47,86.1858 1538.41,86.1858 1540.34,86.1858 1542.28,86.1858 1544.21,86.1858 1546.15,86.1858 1548.08,86.1857 1550.01,86.1857 1551.95,86.1857 1553.88,86.1857 1555.82,86.1857 1557.75,86.1857 1559.69,86.1857 1561.62,86.1858 1563.55,86.1858 1565.49,86.1858 1567.42,86.1858 1569.36,86.1858 1571.29,86.1858 1573.23,86.1857 1575.16,86.1857 1577.09,86.1857 1579.03,86.1857 1580.96,86.1857 1582.9,86.1857 1584.83,86.1857 1586.77,86.1858 1588.7,86.1858 1590.63,86.1858 1592.57,86.1858 1594.5,86.1858 1596.44,86.1858 1598.37,86.1857 1600.31,86.1857 1602.24,86.1857 1604.17,86.1857 1606.11,86.1857 1608.04,86.1857 1609.98,86.1857 1611.91,86.1858 1613.85,86.1858 1615.78,86.1858 1617.71,86.1858 1619.65,86.1858 1621.58,86.1858 1623.52,86.1857 1625.45,86.1857 1627.39,86.1857 1629.32,86.1857 1631.26,86.1857 1633.19,86.1857 1635.12,86.1857 1637.06,86.1858 1638.99,86.1858 1640.93,86.1858 1642.86,86.1858 1644.8,86.1858 1646.73,86.1858 1648.66,86.1857 1650.6,86.1857 1652.53,86.1857 1654.47,86.1857 1656.4,86.1857 1658.34,86.1857 1660.27,86.1857 1662.2,86.1858 1664.14,86.1858 1666.07,86.1858 1668.01,86.1858 1669.94,86.1858 1671.88,86.1858 1673.81,86.1857 1675.74,86.1857 1677.68,86.1857 1679.61,86.1857 1681.55,86.1857 1683.48,86.1857 1685.42,86.1857 1687.35,86.1858 1689.28,86.1858 1691.22,86.1858 1693.15,86.1858 1695.09,86.1858 1697.02,86.1858 1698.96,86.1857 1700.89,86.1857 1702.82,86.1857 1704.76,86.1857 1706.69,86.1857 1708.63,86.1857 1710.56,86.1857 1712.5,86.1858 1714.43,86.1858 1716.37,86.1858 1718.3,86.1858 1720.23,86.1858 1722.17,86.1858 1724.1,86.1857 1726.04,86.1857 1727.97,86.1857 1729.91,86.1857 1731.84,86.1857 1733.77,86.1857 1735.71,86.1857 1737.64,86.1858 1739.58,86.1858 1741.51,86.1858 1743.45,86.1858 1745.38,86.1858 1747.31,86.1858 1749.25,86.1857 1751.18,86.1857 1753.12,86.1857 1755.05,86.1857 1756.99,86.1857 1758.92,86.1857 1760.85,86.1857 1762.79,86.1858 1764.72,86.1858 1766.66,86.1858 1768.59,86.1858 1770.53,86.1858 1772.46,86.1858 1774.39,86.1857 1776.33,86.1857 1778.26,86.1857 1780.2,86.1857 1782.13,86.1857 1784.07,86.1857 1786,86.1857 1787.93,86.1858 1789.87,86.1858 1791.8,86.1858 1793.74,86.1858 1795.67,86.1858 1797.61,86.1858 1799.54,86.1857 1801.48,86.1857 1803.41,86.1857 1805.34,86.1857 1807.28,86.1857 1809.21,86.1857 1811.15,86.1857 1813.08,86.1858 1815.02,86.1858 1816.95,86.1858 1818.88,86.1858 1820.82,86.1858 1822.75,86.1858 1824.69,86.1857 1826.62,86.1857 1828.56,86.1857 1830.49,86.1857 1832.42,86.1857 1834.36,86.1857 1836.29,86.1857 1838.23,86.1858 1840.16,86.1858 1842.1,86.1858 1844.03,86.1858 1845.96,86.1858 1847.9,86.1858 1849.83,86.1857 1851.77,86.1857 1853.7,86.1857 1855.64,86.1857 1857.57,86.1857 1859.5,86.1857 1861.44,86.1857 1863.37,86.1857 1865.31,86.1858 1867.24,86.1858 1869.18,86.1858 1871.11,86.1858 1873.04,86.1858 1874.98,86.1857 1876.91,86.1857 1878.85,86.1857 1880.78,86.1857 1882.72,86.1857 1884.65,86.1857 1886.59,86.1857 1888.52,86.1857 1890.45,86.1858 1892.39,86.1858 1894.32,86.1858 1896.26,86.1858 1898.19,86.1858 1900.13,86.1857 1902.06,86.1857 1903.99,86.1857 1905.93,86.1857 1907.86,86.1857 1909.8,86.1857 1911.73,86.1857 1913.67,86.1857 1915.6,86.1858 1917.53,86.1858 1919.47,86.1858 1921.4,86.1858 1923.34,86.1858 1925.27,86.1857 1927.21,86.1857 1929.14,86.1857 1931.07,86.1857 1933.01,86.1857 1934.94,86.1857 1936.88,86.1857 1938.81,86.1857 1940.75,86.1858 1942.68,86.1858 1944.61,86.1858 1946.55,86.1858 1948.48,86.1858 1950.42,86.1857 1952.35,86.1857 1954.29,86.1857 1956.22,86.1857 1958.15,86.1857 1960.09,86.1857 1962.02,86.1857 1963.96,86.1857 1965.89,86.1858 1967.83,86.1858 1969.76,86.1858 1971.7,86.1858 1973.63,86.1858 1975.56,86.1857 1977.5,86.1857 1979.43,86.1857 1981.37,86.1857 1983.3,86.1857 1985.24,86.1857 1987.17,86.1857 1989.1,86.1857 1991.04,86.1858 1992.97,86.1858 1994.91,86.1858 1996.84,86.1858 1998.78,86.1858 2000.71,86.1858 2002.64,86.1857 2004.58,86.1857 2006.51,86.1857 2008.45,86.1857 2010.38,86.1857 2012.32,86.1857 2014.25,86.1857 2016.18,86.1858 2018.12,86.1858 2020.05,86.1858 2021.99,86.1858 2023.92,86.1858 2025.86,86.1858 2027.79,86.1857 2029.72,86.1857 2031.66,86.1857 2033.59,86.1857 2035.53,86.1857 2037.46,86.1857 2039.4,86.1857 2041.33,86.1858 2043.26,86.1858 2045.2,86.1858 2047.13,86.1858 2049.07,86.1858 2051,86.1858 2052.94,86.1857 2054.87,86.1857 2056.81,86.1857 2058.74,86.1857 2060.67,86.1857 2062.61,86.1857 2064.54,86.1857 2066.48,86.1858 2068.41,86.1858 2070.35,86.1858 2072.28,86.1858 2074.21,86.1858 2076.15,86.1858 2078.08,86.1857 2080.02,86.1857 2081.95,86.1857 2083.89,86.1857 2085.82,86.1857 2087.75,86.1857 2089.69,86.1857 2091.62,86.1858 2093.56,86.1858 2095.49,86.1858 2097.43,86.1858 2099.36,86.1858 2101.29,86.1858 2103.23,86.1857 2105.16,86.1857 2107.1,86.1857 2109.03,86.1857 2110.97,86.1857 2112.9,86.1857 2114.83,86.1857 2116.77,86.1858 2118.7,86.1858 2120.64,86.1858 2122.57,86.1858 2124.51,86.1858 2126.44,86.1858 2128.37,86.1857 2130.31,86.1857 2132.24,86.1857 2134.18,86.1857 2136.11,86.1857 2138.05,86.1857 2139.98,86.1857 2141.92,86.1858 2143.85,86.1858 2145.78,86.1858 2147.72,86.1858 2149.65,86.1858 2151.59,86.1858 2153.52,86.1857 2155.46,86.1857 2157.39,86.1857 2159.32,86.1857 2161.26,86.1857 2163.19,86.1857 2165.13,86.1857 2167.06,86.1858 2169,86.1858 2170.93,86.1858 2172.86,86.1858 2174.8,86.1858 2176.73,86.1858 2178.67,86.1857 2180.6,86.1857 2182.54,86.1857 2184.47,86.1857 2186.4,86.1857 2188.34,86.1857 2190.27,86.1857 2192.21,86.1858 2194.14,86.1858 2196.08,86.1858 2198.01,86.1858 2199.94,86.1858 2201.88,86.1858 2203.81,86.1857 2205.75,86.1857 2207.68,86.1857 2209.62,86.1857 2211.55,86.1857 2213.48,86.1857 2215.42,86.1857 2217.35,86.1858 2219.29,86.1858 2221.22,86.1858 2223.16,86.1858 2225.09,86.1858 2227.03,86.1858 2228.96,86.1857 2230.89,86.1857 2232.83,86.1857 2234.76,86.1857 2236.7,86.1857 2238.63,86.1857 2240.57,86.1857 2242.5,86.1858 2244.43,86.1858 2246.37,86.1858 2248.3,86.1858 2250.24,86.1858 2252.17,86.1858 2254.11,86.1857 2256.04,86.1857 2257.97,86.1857 2259.91,86.1857 2261.84,86.1857 2263.78,86.1857 2265.71,86.1857 2267.65,86.1858 2269.58,86.1858 2271.51,86.1858 2273.45,86.1858 2275.38,86.1858 2277.32,86.1858 2279.25,86.1857 2281.19,86.1857 2283.12,86.1857 2285.05,86.1857 2286.99,86.1857 2288.92,86.1857 2290.86,86.1857 2292.79,86.1858 2294.73,86.1858 2296.66,86.1858 2298.59,86.1858 2300.53,86.1858 2302.46,86.1858 2304.4,86.1857 2306.33,86.1857 2308.27,86.1857 2310.2,86.1857 2312.14,86.1857 2314.07,86.1857 2316,86.1857 2317.94,86.1858 2319.87,86.1858 2321.81,86.1858 2323.74,86.1858 2325.68,86.1858 2327.61,86.1858 2329.54,86.1857 2331.48,86.1857 2333.41,86.1857 2335.35,86.1857 2337.28,86.1857 2339.22,86.1857 2341.15,86.1857 2343.08,86.1857 2345.02,86.1857 2346.95,86.1857 2348.89,86.1857 2350.82,86.1857 2352.76,86.1857 "/>
<polyline clip-path="url(#clip912)" style="stroke:#e26f46; stroke-linecap:round; stroke-linejoin:round; stroke-width:4; stroke-opacity:1; fill:none" points="110.881,1384.24 112.815,1273.51 114.75,1192.47 116.684,1137.07 118.618,1101.02 120.552,1078.24 122.487,1064.3 124.421,1056.35 126.355,1052.68 128.29,1052.2 130.224,1054.16 132.158,1058.01 134.093,1063.33 136.027,1069.82 137.961,1077.26 139.896,1085.44 141.83,1094.27 143.764,1103.61 145.699,1113.31 147.633,1123.34 149.567,1133.53 151.502,1143.85 153.436,1154.31 155.37,1164.83 157.305,1175.4 159.239,1186 161.173,1196.52 163.107,1206.77 165.042,1216.7 166.976,1226.18 168.91,1235.06 170.845,1243.31 172.779,1250.91 174.713,1257.87 176.648,1264.3 178.582,1270.19 180.516,1275.46 182.451,1280.16 184.385,1284.41 186.319,1288.44 188.254,1292.19 190.188,1295.62 192.122,1298.78 194.057,1301.69 195.991,1304.38 197.925,1306.85 199.86,1309.12 201.794,1311.23 203.728,1313.2 205.662,1315.03 207.597,1316.73 209.531,1318.31 211.465,1319.79 213.4,1321.19 215.334,1322.5 217.268,1323.72 219.203,1324.88 221.137,1325.99 223.071,1327.06 225.006,1328.07 226.94,1329.05 228.874,1329.99 230.809,1330.9 232.743,1331.8 234.677,1332.67 236.612,1333.53 238.546,1334.37 240.48,1335.2 242.415,1336.02 244.349,1336.84 246.283,1337.65 248.217,1338.46 250.152,1339.27 252.086,1340.08 254.02,1340.89 255.955,1341.69 257.889,1342.49 259.823,1343.29 261.758,1344.08 263.692,1344.88 265.626,1345.68 267.561,1346.48 269.495,1347.28 271.429,1348.06 273.364,1348.84 275.298,1349.62 277.232,1350.39 279.167,1351.15 281.101,1351.91 283.035,1352.66 284.97,1353.4 286.904,1354.13 288.838,1354.85 290.772,1355.56 292.707,1356.26 294.641,1356.95 296.575,1357.64 298.51,1358.31 300.444,1358.96 302.378,1359.6 304.313,1360.23 306.247,1360.85 308.181,1361.46 310.116,1362.06 312.05,1362.64 313.984,1363.21 315.919,1363.77 317.853,1364.31 319.787,1364.84 321.722,1365.36 323.656,1365.87 325.59,1366.36 327.525,1366.85 329.459,1367.32 331.393,1367.78 333.328,1368.23 335.262,1368.67 337.196,1369.09 339.13,1369.51 341.065,1369.92 342.999,1370.31 344.933,1370.7 346.868,1371.07 348.802,1371.44 350.736,1371.79 352.671,1372.14 354.605,1372.47 356.539,1372.8 358.474,1373.12 360.408,1373.43 362.342,1373.74 364.277,1374.03 366.211,1374.32 368.145,1374.6 370.08,1374.87 372.014,1375.13 373.948,1375.38 375.883,1375.63 377.817,1375.88 379.751,1376.11 381.685,1376.34 383.62,1376.57 385.554,1376.78 387.488,1376.99 389.423,1377.2 391.357,1377.4 393.291,1377.59 395.226,1377.78 397.16,1377.96 399.094,1378.14 401.029,1378.31 402.963,1378.48 404.897,1378.65 406.832,1378.81 408.766,1378.96 410.7,1379.11 412.635,1379.26 414.569,1379.4 416.503,1379.54 418.438,1379.67 420.372,1379.8 422.306,1379.93 424.24,1380.05 426.175,1380.17 428.109,1380.29 430.043,1380.4 431.978,1380.51 433.912,1380.62 435.846,1380.72 437.781,1380.82 439.715,1380.92 441.649,1381.01 443.584,1381.1 445.518,1381.19 447.452,1381.28 449.387,1381.37 451.321,1381.45 453.255,1381.53 455.19,1381.61 457.124,1381.68 459.058,1381.75 460.993,1381.83 462.927,1381.89 464.861,1381.96 466.795,1382.03 468.73,1382.09 470.664,1382.15 472.598,1382.21 474.533,1382.27 476.467,1382.33 478.401,1382.38 480.336,1382.44 482.27,1382.49 484.204,1382.54 486.139,1382.59 488.073,1382.63 490.007,1382.68 491.942,1382.72 493.876,1382.77 495.81,1382.81 497.745,1382.85 499.679,1382.89 501.613,1382.93 503.548,1382.97 505.482,1383 507.416,1383.04 509.35,1383.07 511.285,1383.11 513.219,1383.14 515.153,1383.17 517.088,1383.2 519.022,1383.23 520.956,1383.26 522.891,1383.29 524.825,1383.32 526.759,1383.34 528.694,1383.37 530.628,1383.39 532.562,1383.42 534.497,1383.44 536.431,1383.46 538.365,1383.49 540.3,1383.51 542.234,1383.53 544.168,1383.55 546.103,1383.57 548.037,1383.59 549.971,1383.61 551.905,1383.63 553.84,1383.64 555.774,1383.66 557.708,1383.68 559.643,1383.69 561.577,1383.71 563.511,1383.72 565.446,1383.74 567.38,1383.75 569.314,1383.77 571.249,1383.78 573.183,1383.79 575.117,1383.81 577.052,1383.82 578.986,1383.83 580.92,1383.84 582.855,1383.85 584.789,1383.87 586.723,1383.88 588.658,1383.89 590.592,1383.9 592.526,1383.91 594.46,1383.92 596.395,1383.93 598.329,1383.93 600.263,1383.94 602.198,1383.95 604.132,1383.96 606.066,1383.97 608.001,1383.98 609.935,1383.98 611.869,1383.99 613.804,1384 615.738,1384 617.672,1384.01 619.607,1384.02 621.541,1384.02 623.475,1384.03 625.41,1384.04 627.344,1384.04 629.278,1384.05 631.213,1384.05 633.147,1384.06 635.081,1384.06 637.015,1384.07 638.95,1384.07 640.884,1384.08 642.818,1384.08 644.753,1384.09 646.687,1384.09 648.621,1384.1 650.556,1384.1 652.49,1384.1 654.424,1384.11 656.359,1384.11 658.293,1384.12 660.227,1384.12 662.162,1384.12 664.096,1384.13 666.03,1384.13 667.965,1384.13 669.899,1384.14 671.833,1384.14 673.768,1384.14 675.702,1384.14 677.636,1384.15 679.57,1384.15 681.505,1384.15 683.439,1384.15 685.373,1384.16 687.308,1384.16 689.242,1384.16 691.176,1384.16 693.111,1384.17 695.045,1384.17 696.979,1384.17 698.914,1384.17 700.848,1384.17 702.782,1384.18 704.717,1384.18 706.651,1384.18 708.585,1384.18 710.52,1384.18 712.454,1384.18 714.388,1384.19 716.323,1384.19 718.257,1384.19 720.191,1384.19 722.125,1384.19 724.06,1384.19 725.994,1384.19 727.928,1384.2 729.863,1384.2 731.797,1384.2 733.731,1384.2 735.666,1384.2 737.6,1384.2 739.534,1384.2 741.469,1384.2 743.403,1384.2 745.337,1384.21 747.272,1384.21 749.206,1384.21 751.14,1384.21 753.075,1384.21 755.009,1384.21 756.943,1384.21 758.878,1384.21 760.812,1384.21 762.746,1384.21 764.681,1384.21 766.615,1384.21 768.549,1384.22 770.483,1384.22 772.418,1384.22 774.352,1384.22 776.286,1384.22 778.221,1384.22 780.155,1384.22 782.089,1384.22 784.024,1384.22 785.958,1384.22 787.892,1384.22 789.827,1384.22 791.761,1384.22 793.695,1384.22 795.63,1384.22 797.564,1384.22 799.498,1384.22 801.433,1384.22 803.367,1384.22 805.301,1384.22 807.236,1384.23 809.17,1384.23 811.104,1384.23 813.038,1384.23 814.973,1384.23 816.907,1384.23 818.841,1384.23 820.776,1384.23 822.71,1384.23 824.644,1384.23 826.579,1384.23 828.513,1384.23 830.447,1384.23 832.382,1384.23 834.316,1384.23 836.25,1384.23 838.185,1384.23 840.119,1384.23 842.053,1384.23 843.988,1384.23 845.922,1384.23 847.856,1384.23 849.791,1384.23 851.725,1384.23 853.659,1384.23 855.593,1384.23 857.528,1384.23 859.462,1384.23 861.396,1384.23 863.331,1384.23 865.265,1384.23 867.199,1384.23 869.134,1384.23 871.068,1384.23 873.002,1384.23 874.937,1384.23 876.871,1384.23 878.805,1384.23 880.74,1384.23 882.674,1384.23 884.608,1384.23 886.543,1384.23 888.477,1384.23 890.411,1384.23 892.346,1384.23 894.28,1384.23 896.214,1384.23 898.148,1384.24 900.083,1384.24 902.017,1384.24 903.951,1384.24 905.886,1384.24 907.82,1384.24 909.754,1384.24 911.689,1384.24 913.623,1384.24 915.557,1384.24 917.492,1384.24 919.426,1384.24 921.36,1384.24 923.295,1384.24 925.229,1384.24 927.163,1384.24 929.098,1384.24 931.032,1384.24 932.966,1384.24 934.901,1384.24 936.835,1384.24 938.769,1384.24 940.703,1384.24 942.638,1384.24 944.572,1384.24 946.506,1384.24 948.441,1384.24 950.375,1384.24 952.309,1384.24 954.244,1384.24 956.178,1384.24 958.112,1384.24 960.047,1384.24 961.981,1384.24 963.915,1384.24 965.85,1384.24 967.784,1384.24 969.718,1384.24 971.653,1384.24 973.587,1384.24 975.521,1384.24 977.456,1384.24 979.39,1384.24 981.324,1384.24 983.258,1384.24 985.193,1384.24 987.127,1384.24 989.061,1384.24 990.996,1384.24 992.93,1384.24 994.864,1384.24 996.799,1384.24 998.733,1384.24 1000.67,1384.24 1002.6,1384.24 1004.54,1384.24 1006.47,1384.24 1008.4,1384.24 1010.34,1384.24 1012.27,1384.24 1014.21,1384.24 1016.14,1384.24 1018.08,1384.24 1020.01,1384.24 1021.94,1384.24 1023.88,1384.24 1025.81,1384.24 1027.75,1384.24 1029.68,1384.24 1031.62,1384.24 1033.55,1384.24 1035.49,1384.24 1037.42,1384.24 1039.35,1384.24 1041.29,1384.24 1043.22,1384.24 1045.16,1384.24 1047.09,1384.24 1049.03,1384.24 1050.96,1384.24 1052.89,1384.24 1054.83,1384.24 1056.76,1384.24 1058.7,1384.24 1060.63,1384.24 1062.57,1384.24 1064.5,1384.24 1066.43,1384.24 1068.37,1384.24 1070.3,1384.24 1072.24,1384.24 1074.17,1384.24 1076.11,1384.24 1078.04,1384.24 1079.97,1384.24 1081.91,1384.24 1083.84,1384.24 1085.78,1384.24 1087.71,1384.24 1089.65,1384.24 1091.58,1384.24 1093.51,1384.24 1095.45,1384.24 1097.38,1384.24 1099.32,1384.24 1101.25,1384.24 1103.19,1384.24 1105.12,1384.24 1107.05,1384.24 1108.99,1384.24 1110.92,1384.24 1112.86,1384.24 1114.79,1384.24 1116.73,1384.24 1118.66,1384.24 1120.6,1384.24 1122.53,1384.24 1124.46,1384.24 1126.4,1384.24 1128.33,1384.24 1130.27,1384.24 1132.2,1384.24 1134.14,1384.24 1136.07,1384.24 1138,1384.24 1139.94,1384.24 1141.87,1384.24 1143.81,1384.24 1145.74,1384.24 1147.68,1384.24 1149.61,1384.24 1151.54,1384.24 1153.48,1384.24 1155.41,1384.24 1157.35,1384.24 1159.28,1384.24 1161.22,1384.24 1163.15,1384.24 1165.08,1384.24 1167.02,1384.24 1168.95,1384.24 1170.89,1384.24 1172.82,1384.24 1174.76,1384.24 1176.69,1384.24 1178.62,1384.24 1180.56,1384.24 1182.49,1384.24 1184.43,1384.24 1186.36,1384.24 1188.3,1384.24 1190.23,1384.24 1192.16,1384.24 1194.1,1384.24 1196.03,1384.24 1197.97,1384.24 1199.9,1384.24 1201.84,1384.24 1203.77,1384.24 1205.71,1384.24 1207.64,1384.24 1209.57,1384.24 1211.51,1384.24 1213.44,1384.24 1215.38,1384.24 1217.31,1384.24 1219.25,1384.24 1221.18,1384.24 1223.11,1384.24 1225.05,1384.24 1226.98,1384.24 1228.92,1384.24 1230.85,1384.24 1232.79,1384.24 1234.72,1384.24 1236.65,1384.24 1238.59,1384.24 1240.52,1384.24 1242.46,1384.24 1244.39,1384.24 1246.33,1384.24 1248.26,1384.24 1250.19,1384.24 1252.13,1384.24 1254.06,1384.24 1256,1384.24 1257.93,1384.24 1259.87,1384.24 1261.8,1384.24 1263.73,1384.24 1265.67,1384.24 1267.6,1384.24 1269.54,1384.24 1271.47,1384.24 1273.41,1384.24 1275.34,1384.24 1277.27,1384.24 1279.21,1384.24 1281.14,1384.24 1283.08,1384.24 1285.01,1384.24 1286.95,1384.24 1288.88,1384.24 1290.82,1384.24 1292.75,1384.24 1294.68,1384.24 1296.62,1384.24 1298.55,1384.24 1300.49,1384.24 1302.42,1384.24 1304.36,1384.24 1306.29,1384.24 1308.22,1384.24 1310.16,1384.24 1312.09,1384.24 1314.03,1384.24 1315.96,1384.24 1317.9,1384.24 1319.83,1384.24 1321.76,1384.24 1323.7,1384.24 1325.63,1384.24 1327.57,1384.24 1329.5,1384.24 1331.44,1384.24 1333.37,1384.24 1335.3,1384.24 1337.24,1384.24 1339.17,1384.24 1341.11,1384.24 1343.04,1384.24 1344.98,1384.24 1346.91,1384.24 1348.84,1384.24 1350.78,1384.24 1352.71,1384.24 1354.65,1384.24 1356.58,1384.24 1358.52,1384.24 1360.45,1384.24 1362.38,1384.24 1364.32,1384.24 1366.25,1384.24 1368.19,1384.24 1370.12,1384.24 1372.06,1384.24 1373.99,1384.24 1375.93,1384.24 1377.86,1384.24 1379.79,1384.24 1381.73,1384.24 1383.66,1384.24 1385.6,1384.24 1387.53,1384.24 1389.47,1384.24 1391.4,1384.24 1393.33,1384.24 1395.27,1384.24 1397.2,1384.24 1399.14,1384.24 1401.07,1384.24 1403.01,1384.24 1404.94,1384.24 1406.87,1384.24 1408.81,1384.24 1410.74,1384.24 1412.68,1384.24 1414.61,1384.24 1416.55,1384.24 1418.48,1384.24 1420.41,1384.24 1422.35,1384.24 1424.28,1384.24 1426.22,1384.24 1428.15,1384.24 1430.09,1384.24 1432.02,1384.24 1433.95,1384.24 1435.89,1384.24 1437.82,1384.24 1439.76,1384.24 1441.69,1384.24 1443.63,1384.24 1445.56,1384.24 1447.49,1384.24 1449.43,1384.24 1451.36,1384.24 1453.3,1384.24 1455.23,1384.24 1457.17,1384.24 1459.1,1384.24 1461.04,1384.24 1462.97,1384.24 1464.9,1384.24 1466.84,1384.24 1468.77,1384.24 1470.71,1384.24 1472.64,1384.24 1474.58,1384.24 1476.51,1384.24 1478.44,1384.24 1480.38,1384.24 1482.31,1384.24 1484.25,1384.24 1486.18,1384.24 1488.12,1384.24 1490.05,1384.24 1491.98,1384.24 1493.92,1384.24 1495.85,1384.24 1497.79,1384.24 1499.72,1384.24 1501.66,1384.24 1503.59,1384.24 1505.52,1384.24 1507.46,1384.24 1509.39,1384.24 1511.33,1384.24 1513.26,1384.24 1515.2,1384.24 1517.13,1384.24 1519.06,1384.24 1521,1384.24 1522.93,1384.24 1524.87,1384.24 1526.8,1384.24 1528.74,1384.24 1530.67,1384.24 1532.6,1384.24 1534.54,1384.24 1536.47,1384.24 1538.41,1384.24 1540.34,1384.24 1542.28,1384.24 1544.21,1384.24 1546.15,1384.24 1548.08,1384.24 1550.01,1384.24 1551.95,1384.24 1553.88,1384.24 1555.82,1384.24 1557.75,1384.24 1559.69,1384.24 1561.62,1384.24 1563.55,1384.24 1565.49,1384.24 1567.42,1384.24 1569.36,1384.24 1571.29,1384.24 1573.23,1384.24 1575.16,1384.24 1577.09,1384.24 1579.03,1384.24 1580.96,1384.24 1582.9,1384.24 1584.83,1384.24 1586.77,1384.24 1588.7,1384.24 1590.63,1384.24 1592.57,1384.24 1594.5,1384.24 1596.44,1384.24 1598.37,1384.24 1600.31,1384.24 1602.24,1384.24 1604.17,1384.24 1606.11,1384.24 1608.04,1384.24 1609.98,1384.24 1611.91,1384.24 1613.85,1384.24 1615.78,1384.24 1617.71,1384.24 1619.65,1384.24 1621.58,1384.24 1623.52,1384.24 1625.45,1384.24 1627.39,1384.24 1629.32,1384.24 1631.26,1384.24 1633.19,1384.24 1635.12,1384.24 1637.06,1384.24 1638.99,1384.24 1640.93,1384.24 1642.86,1384.24 1644.8,1384.24 1646.73,1384.24 1648.66,1384.24 1650.6,1384.24 1652.53,1384.24 1654.47,1384.24 1656.4,1384.24 1658.34,1384.24 1660.27,1384.24 1662.2,1384.24 1664.14,1384.24 1666.07,1384.24 1668.01,1384.24 1669.94,1384.24 1671.88,1384.24 1673.81,1384.24 1675.74,1384.24 1677.68,1384.24 1679.61,1384.24 1681.55,1384.24 1683.48,1384.24 1685.42,1384.24 1687.35,1384.24 1689.28,1384.24 1691.22,1384.24 1693.15,1384.24 1695.09,1384.24 1697.02,1384.24 1698.96,1384.24 1700.89,1384.24 1702.82,1384.24 1704.76,1384.24 1706.69,1384.24 1708.63,1384.24 1710.56,1384.24 1712.5,1384.24 1714.43,1384.24 1716.37,1384.24 1718.3,1384.24 1720.23,1384.24 1722.17,1384.24 1724.1,1384.24 1726.04,1384.24 1727.97,1384.24 1729.91,1384.24 1731.84,1384.24 1733.77,1384.24 1735.71,1384.24 1737.64,1384.24 1739.58,1384.24 1741.51,1384.24 1743.45,1384.24 1745.38,1384.24 1747.31,1384.24 1749.25,1384.24 1751.18,1384.24 1753.12,1384.24 1755.05,1384.24 1756.99,1384.24 1758.92,1384.24 1760.85,1384.24 1762.79,1384.24 1764.72,1384.24 1766.66,1384.24 1768.59,1384.24 1770.53,1384.24 1772.46,1384.24 1774.39,1384.24 1776.33,1384.24 1778.26,1384.24 1780.2,1384.24 1782.13,1384.24 1784.07,1384.24 1786,1384.24 1787.93,1384.24 1789.87,1384.24 1791.8,1384.24 1793.74,1384.24 1795.67,1384.24 1797.61,1384.24 1799.54,1384.24 1801.48,1384.24 1803.41,1384.24 1805.34,1384.24 1807.28,1384.24 1809.21,1384.24 1811.15,1384.24 1813.08,1384.24 1815.02,1384.24 1816.95,1384.24 1818.88,1384.24 1820.82,1384.24 1822.75,1384.24 1824.69,1384.24 1826.62,1384.24 1828.56,1384.24 1830.49,1384.24 1832.42,1384.24 1834.36,1384.24 1836.29,1384.24 1838.23,1384.24 1840.16,1384.24 1842.1,1384.24 1844.03,1384.24 1845.96,1384.24 1847.9,1384.24 1849.83,1384.24 1851.77,1384.24 1853.7,1384.24 1855.64,1384.24 1857.57,1384.24 1859.5,1384.24 1861.44,1384.24 1863.37,1384.24 1865.31,1384.24 1867.24,1384.24 1869.18,1384.24 1871.11,1384.24 1873.04,1384.24 1874.98,1384.24 1876.91,1384.24 1878.85,1384.24 1880.78,1384.24 1882.72,1384.24 1884.65,1384.24 1886.59,1384.24 1888.52,1384.24 1890.45,1384.24 1892.39,1384.24 1894.32,1384.24 1896.26,1384.24 1898.19,1384.24 1900.13,1384.24 1902.06,1384.24 1903.99,1384.24 1905.93,1384.24 1907.86,1384.24 1909.8,1384.24 1911.73,1384.24 1913.67,1384.24 1915.6,1384.24 1917.53,1384.24 1919.47,1384.24 1921.4,1384.24 1923.34,1384.24 1925.27,1384.24 1927.21,1384.24 1929.14,1384.24 1931.07,1384.24 1933.01,1384.24 1934.94,1384.24 1936.88,1384.24 1938.81,1384.24 1940.75,1384.24 1942.68,1384.24 1944.61,1384.24 1946.55,1384.24 1948.48,1384.24 1950.42,1384.24 1952.35,1384.24 1954.29,1384.24 1956.22,1384.24 1958.15,1384.24 1960.09,1384.24 1962.02,1384.24 1963.96,1384.24 1965.89,1384.24 1967.83,1384.24 1969.76,1384.24 1971.7,1384.24 1973.63,1384.24 1975.56,1384.24 1977.5,1384.24 1979.43,1384.24 1981.37,1384.24 1983.3,1384.24 1985.24,1384.24 1987.17,1384.24 1989.1,1384.24 1991.04,1384.24 1992.97,1384.24 1994.91,1384.24 1996.84,1384.24 1998.78,1384.24 2000.71,1384.24 2002.64,1384.24 2004.58,1384.24 2006.51,1384.24 2008.45,1384.24 2010.38,1384.24 2012.32,1384.24 2014.25,1384.24 2016.18,1384.24 2018.12,1384.24 2020.05,1384.24 2021.99,1384.24 2023.92,1384.24 2025.86,1384.24 2027.79,1384.24 2029.72,1384.24 2031.66,1384.24 2033.59,1384.24 2035.53,1384.24 2037.46,1384.24 2039.4,1384.24 2041.33,1384.24 2043.26,1384.24 2045.2,1384.24 2047.13,1384.24 2049.07,1384.24 2051,1384.24 2052.94,1384.24 2054.87,1384.24 2056.81,1384.24 2058.74,1384.24 2060.67,1384.24 2062.61,1384.24 2064.54,1384.24 2066.48,1384.24 2068.41,1384.24 2070.35,1384.24 2072.28,1384.24 2074.21,1384.24 2076.15,1384.24 2078.08,1384.24 2080.02,1384.24 2081.95,1384.24 2083.89,1384.24 2085.82,1384.24 2087.75,1384.24 2089.69,1384.24 2091.62,1384.24 2093.56,1384.24 2095.49,1384.24 2097.43,1384.24 2099.36,1384.24 2101.29,1384.24 2103.23,1384.24 2105.16,1384.24 2107.1,1384.24 2109.03,1384.24 2110.97,1384.24 2112.9,1384.24 2114.83,1384.24 2116.77,1384.24 2118.7,1384.24 2120.64,1384.24 2122.57,1384.24 2124.51,1384.24 2126.44,1384.24 2128.37,1384.24 2130.31,1384.24 2132.24,1384.24 2134.18,1384.24 2136.11,1384.24 2138.05,1384.24 2139.98,1384.24 2141.92,1384.24 2143.85,1384.24 2145.78,1384.24 2147.72,1384.24 2149.65,1384.24 2151.59,1384.24 2153.52,1384.24 2155.46,1384.24 2157.39,1384.24 2159.32,1384.24 2161.26,1384.24 2163.19,1384.24 2165.13,1384.24 2167.06,1384.24 2169,1384.24 2170.93,1384.24 2172.86,1384.24 2174.8,1384.24 2176.73,1384.24 2178.67,1384.24 2180.6,1384.24 2182.54,1384.24 2184.47,1384.24 2186.4,1384.24 2188.34,1384.24 2190.27,1384.24 2192.21,1384.24 2194.14,1384.24 2196.08,1384.24 2198.01,1384.24 2199.94,1384.24 2201.88,1384.24 2203.81,1384.24 2205.75,1384.24 2207.68,1384.24 2209.62,1384.24 2211.55,1384.24 2213.48,1384.24 2215.42,1384.24 2217.35,1384.24 2219.29,1384.24 2221.22,1384.24 2223.16,1384.24 2225.09,1384.24 2227.03,1384.24 2228.96,1384.24 2230.89,1384.24 2232.83,1384.24 2234.76,1384.24 2236.7,1384.24 2238.63,1384.24 2240.57,1384.24 2242.5,1384.24 2244.43,1384.24 2246.37,1384.24 2248.3,1384.24 2250.24,1384.24 2252.17,1384.24 2254.11,1384.24 2256.04,1384.24 2257.97,1384.24 2259.91,1384.24 2261.84,1384.24 2263.78,1384.24 2265.71,1384.24 2267.65,1384.24 2269.58,1384.24 2271.51,1384.24 2273.45,1384.24 2275.38,1384.24 2277.32,1384.24 2279.25,1384.24 2281.19,1384.24 2283.12,1384.24 2285.05,1384.24 2286.99,1384.24 2288.92,1384.24 2290.86,1384.24 2292.79,1384.24 2294.73,1384.24 2296.66,1384.24 2298.59,1384.24 2300.53,1384.24 2302.46,1384.24 2304.4,1384.24 2306.33,1384.24 2308.27,1384.24 2310.2,1384.24 2312.14,1384.24 2314.07,1384.24 2316,1384.24 2317.94,1384.24 2319.87,1384.24 2321.81,1384.24 2323.74,1384.24 2325.68,1384.24 2327.61,1384.24 2329.54,1384.24 2331.48,1384.24 2333.41,1384.24 2335.35,1384.24 2337.28,1384.24 2339.22,1384.24 2341.15,1384.24 2343.08,1384.24 2345.02,1384.24 2346.95,1384.24 2348.89,1384.24 2350.82,1384.24 2352.76,1384.24 "/>
<path clip-path="url(#clip910)" d="M185.61 248.629 L477.343 248.629 L477.343 93.1086 L185.61 93.1086  Z" fill="#ffffff" fill-rule="evenodd" fill-opacity="1"/>
<polyline clip-path="url(#clip910)" style="stroke:#000000; stroke-linecap:round; stroke-linejoin:round; stroke-width:4; stroke-opacity:1; fill:none" points="185.61,248.629 477.343,248.629 477.343,93.1086 185.61,93.1086 185.61,248.629 "/>
<polyline clip-path="url(#clip910)" style="stroke:#009af9; stroke-linecap:round; stroke-linejoin:round; stroke-width:4; stroke-opacity:1; fill:none" points="210.52,144.949 359.978,144.949 "/>
<path clip-path="url(#clip910)" d="M404.147 145.794 L389.402 145.794 Q389.749 152.715 391.346 155.655 Q393.337 159.266 396.786 159.266 Q400.258 159.266 402.179 155.631 Q403.869 152.437 404.147 145.794 M404.078 141.858 Q403.429 135.284 402.179 132.97 Q400.189 129.312 396.786 129.312 Q393.244 129.312 391.369 132.923 Q389.888 135.84 389.448 141.858 L404.078 141.858 M396.786 125.84 Q402.341 125.84 405.513 130.747 Q408.684 135.632 408.684 144.289 Q408.684 152.923 405.513 157.83 Q402.341 162.761 396.786 162.761 Q391.207 162.761 388.059 157.83 Q384.888 152.923 384.888 144.289 Q384.888 135.632 388.059 130.747 Q391.207 125.84 396.786 125.84 Z" fill="#000000" fill-rule="nonzero" fill-opacity="1" /><polyline clip-path="url(#clip910)" style="stroke:#e26f46; stroke-linecap:round; stroke-linejoin:round; stroke-width:4; stroke-opacity:1; fill:none" points="210.52,196.789 359.978,196.789 "/>
<path clip-path="url(#clip910)" d="M404.147 197.634 L389.402 197.634 Q389.749 204.555 391.346 207.495 Q393.337 211.106 396.786 211.106 Q400.258 211.106 402.179 207.471 Q403.869 204.277 404.147 197.634 M404.078 193.698 Q403.429 187.124 402.179 184.81 Q400.189 181.152 396.786 181.152 Q393.244 181.152 391.369 184.763 Q389.888 187.68 389.448 193.698 L404.078 193.698 M396.786 177.68 Q402.341 177.68 405.513 182.587 Q408.684 187.472 408.684 196.129 Q408.684 204.763 405.513 209.67 Q402.341 214.601 396.786 214.601 Q391.207 214.601 388.059 209.67 Q384.888 204.763 384.888 196.129 Q384.888 187.472 388.059 182.587 Q391.207 177.68 396.786 177.68 Z" fill="#000000" fill-rule="nonzero" fill-opacity="1" /><path clip-path="url(#clip910)" d="M416.207 218.05 L430.05 218.05 L430.05 221.476 L416.207 221.476 L416.207 218.05 Z" fill="#000000" fill-rule="nonzero" fill-opacity="1" /><path clip-path="url(#clip910)" d="M443.661 180.782 L443.661 188.143 L452.434 188.143 L452.434 191.453 L443.661 191.453 L443.661 205.527 Q443.661 208.698 444.517 209.601 Q445.397 210.504 448.059 210.504 L452.434 210.504 L452.434 214.069 L448.059 214.069 Q443.128 214.069 441.253 212.24 Q439.378 210.388 439.378 205.527 L439.378 191.453 L436.253 191.453 L436.253 188.143 L439.378 188.143 L439.378 180.782 L443.661 180.782 Z" fill="#000000" fill-rule="nonzero" fill-opacity="1" /></svg>
