<?xml version="1.0" encoding="utf-8"?>
<svg xmlns="http://www.w3.org/2000/svg" xmlns:xlink="http://www.w3.org/1999/xlink" width="600" height="400" viewBox="0 0 2400 1600">
<defs>
  <clipPath id="clip920">
    <rect x="0" y="0" width="2400" height="1600"/>
  </clipPath>
</defs>
<path clip-path="url(#clip920)" d="M0 1600 L2400 1600 L2400 0 L0 0  Z" fill="#ffffff" fill-rule="evenodd" fill-opacity="1"/>
<defs>
  <clipPath id="clip921">
    <rect x="110" y="47" width="2243" height="1377"/>
  </clipPath>
</defs>
<path clip-path="url(#clip920)" d="M110.881 1423.18 L2352.76 1423.18 L2352.76 47.2441 L110.881 47.2441  Z" fill="#ffffff" fill-rule="evenodd" fill-opacity="1"/>
<polyline clip-path="url(#clip921)" style="stroke:#000000; stroke-linecap:round; stroke-linejoin:round; stroke-width:2; stroke-opacity:0.1; fill:none" points="110.881,1423.18 110.881,47.2441 "/>
<polyline clip-path="url(#clip921)" style="stroke:#000000; stroke-linecap:round; stroke-linejoin:round; stroke-width:2; stroke-opacity:0.1; fill:none" points="858.173,1423.18 858.173,47.2441 "/>
<polyline clip-path="url(#clip921)" style="stroke:#000000; stroke-linecap:round; stroke-linejoin:round; stroke-width:2; stroke-opacity:0.1; fill:none" points="1605.46,1423.18 1605.46,47.2441 "/>
<polyline clip-path="url(#clip921)" style="stroke:#000000; stroke-linecap:round; stroke-linejoin:round; stroke-width:2; stroke-opacity:0.1; fill:none" points="2352.76,1423.18 2352.76,47.2441 "/>
<polyline clip-path="url(#clip921)" style="stroke:#000000; stroke-linecap:round; stroke-linejoin:round; stroke-width:2; stroke-opacity:0.1; fill:none" points="110.881,1330.43 2352.76,1330.43 "/>
<polyline clip-path="url(#clip921)" style="stroke:#000000; stroke-linecap:round; stroke-linejoin:round; stroke-width:2; stroke-opacity:0.1; fill:none" points="110.881,1000.42 2352.76,1000.42 "/>
<polyline clip-path="url(#clip921)" style="stroke:#000000; stroke-linecap:round; stroke-linejoin:round; stroke-width:2; stroke-opacity:0.1; fill:none" points="110.881,670.414 2352.76,670.414 "/>
<polyline clip-path="url(#clip921)" style="stroke:#000000; stroke-linecap:round; stroke-linejoin:round; stroke-width:2; stroke-opacity:0.1; fill:none" points="110.881,340.406 2352.76,340.406 "/>
<polyline clip-path="url(#clip920)" style="stroke:#000000; stroke-linecap:round; stroke-linejoin:round; stroke-width:4; stroke-opacity:1; fill:none" points="110.881,1423.18 2352.76,1423.18 "/>
<polyline clip-path="url(#clip920)" style="stroke:#000000; stroke-linecap:round; stroke-linejoin:round; stroke-width:4; stroke-opacity:1; fill:none" points="110.881,1423.18 110.881,1404.28 "/>
<polyline clip-path="url(#clip920)" style="stroke:#000000; stroke-linecap:round; stroke-linejoin:round; stroke-width:4; stroke-opacity:1; fill:none" points="858.173,1423.18 858.173,1404.28 "/>
<polyline clip-path="url(#clip920)" style="stroke:#000000; stroke-linecap:round; stroke-linejoin:round; stroke-width:4; stroke-opacity:1; fill:none" points="1605.46,1423.18 1605.46,1404.28 "/>
<polyline clip-path="url(#clip920)" style="stroke:#000000; stroke-linecap:round; stroke-linejoin:round; stroke-width:4; stroke-opacity:1; fill:none" points="2352.76,1423.18 2352.76,1404.28 "/>
<path clip-path="url(#clip920)" d="M110.881 1454.1 Q107.27 1454.1 105.441 1457.66 Q103.636 1461.2 103.636 1468.33 Q103.636 1475.44 105.441 1479.01 Q107.27 1482.55 110.881 1482.55 Q114.515 1482.55 116.321 1479.01 Q118.149 1475.44 118.149 1468.33 Q118.149 1461.2 116.321 1457.66 Q114.515 1454.1 110.881 1454.1 M110.881 1450.39 Q116.691 1450.39 119.747 1455 Q122.825 1459.58 122.825 1468.33 Q122.825 1477.06 119.747 1481.67 Q116.691 1486.25 110.881 1486.25 Q105.071 1486.25 101.992 1481.67 Q98.9365 1477.06 98.9365 1468.33 Q98.9365 1459.58 101.992 1455 Q105.071 1450.39 110.881 1450.39 Z" fill="#000000" fill-rule="nonzero" fill-opacity="1" /><path clip-path="url(#clip920)" d="M832.872 1451.02 L851.228 1451.02 L851.228 1454.96 L837.154 1454.96 L837.154 1463.43 Q838.173 1463.08 839.191 1462.92 Q840.21 1462.73 841.228 1462.73 Q847.015 1462.73 850.395 1465.9 Q853.774 1469.08 853.774 1474.49 Q853.774 1480.07 850.302 1483.17 Q846.83 1486.25 840.511 1486.25 Q838.335 1486.25 836.066 1485.88 Q833.821 1485.51 831.413 1484.77 L831.413 1480.07 Q833.497 1481.2 835.719 1481.76 Q837.941 1482.32 840.418 1482.32 Q844.423 1482.32 846.761 1480.21 Q849.099 1478.1 849.099 1474.49 Q849.099 1470.88 846.761 1468.77 Q844.423 1466.67 840.418 1466.67 Q838.543 1466.67 836.668 1467.08 Q834.816 1467.5 832.872 1468.38 L832.872 1451.02 Z" fill="#000000" fill-rule="nonzero" fill-opacity="1" /><path clip-path="url(#clip920)" d="M872.987 1454.1 Q869.376 1454.1 867.548 1457.66 Q865.742 1461.2 865.742 1468.33 Q865.742 1475.44 867.548 1479.01 Q869.376 1482.55 872.987 1482.55 Q876.622 1482.55 878.427 1479.01 Q880.256 1475.44 880.256 1468.33 Q880.256 1461.2 878.427 1457.66 Q876.622 1454.1 872.987 1454.1 M872.987 1450.39 Q878.797 1450.39 881.853 1455 Q884.932 1459.58 884.932 1468.33 Q884.932 1477.06 881.853 1481.67 Q878.797 1486.25 872.987 1486.25 Q867.177 1486.25 864.098 1481.67 Q861.043 1477.06 861.043 1468.33 Q861.043 1459.58 864.098 1455 Q867.177 1450.39 872.987 1450.39 Z" fill="#000000" fill-rule="nonzero" fill-opacity="1" /><path clip-path="url(#clip920)" d="M1565.07 1481.64 L1572.71 1481.64 L1572.71 1455.28 L1564.4 1456.95 L1564.4 1452.69 L1572.66 1451.02 L1577.34 1451.02 L1577.34 1481.64 L1584.98 1481.64 L1584.98 1485.58 L1565.07 1485.58 L1565.07 1481.64 Z" fill="#000000" fill-rule="nonzero" fill-opacity="1" /><path clip-path="url(#clip920)" d="M1604.42 1454.1 Q1600.81 1454.1 1598.98 1457.66 Q1597.18 1461.2 1597.18 1468.33 Q1597.18 1475.44 1598.98 1479.01 Q1600.81 1482.55 1604.42 1482.55 Q1608.06 1482.55 1609.86 1479.01 Q1611.69 1475.44 1611.69 1468.33 Q1611.69 1461.2 1609.86 1457.66 Q1608.06 1454.1 1604.42 1454.1 M1604.42 1450.39 Q1610.23 1450.39 1613.29 1455 Q1616.37 1459.58 1616.37 1468.33 Q1616.37 1477.06 1613.29 1481.67 Q1610.23 1486.25 1604.42 1486.25 Q1598.61 1486.25 1595.53 1481.67 Q1592.48 1477.06 1592.48 1468.33 Q1592.48 1459.58 1595.53 1455 Q1598.61 1450.39 1604.42 1450.39 Z" fill="#000000" fill-rule="nonzero" fill-opacity="1" /><path clip-path="url(#clip920)" d="M1634.58 1454.1 Q1630.97 1454.1 1629.14 1457.66 Q1627.34 1461.2 1627.34 1468.33 Q1627.34 1475.44 1629.14 1479.01 Q1630.97 1482.55 1634.58 1482.55 Q1638.22 1482.55 1640.02 1479.01 Q1641.85 1475.44 1641.85 1468.33 Q1641.85 1461.2 1640.02 1457.66 Q1638.22 1454.1 1634.58 1454.1 M1634.58 1450.39 Q1640.39 1450.39 1643.45 1455 Q1646.53 1459.58 1646.53 1468.33 Q1646.53 1477.06 1643.45 1481.67 Q1640.39 1486.25 1634.58 1486.25 Q1628.77 1486.25 1625.7 1481.67 Q1622.64 1477.06 1622.64 1468.33 Q1622.64 1459.58 1625.7 1455 Q1628.77 1450.39 1634.58 1450.39 Z" fill="#000000" fill-rule="nonzero" fill-opacity="1" /><path clip-path="url(#clip920)" d="M2312.36 1481.64 L2320 1481.64 L2320 1455.28 L2311.69 1456.95 L2311.69 1452.69 L2319.96 1451.02 L2324.63 1451.02 L2324.63 1481.64 L2332.27 1481.64 L2332.27 1485.58 L2312.36 1485.58 L2312.36 1481.64 Z" fill="#000000" fill-rule="nonzero" fill-opacity="1" /><path clip-path="url(#clip920)" d="M2341.76 1451.02 L2360.12 1451.02 L2360.12 1454.96 L2346.04 1454.96 L2346.04 1463.43 Q2347.06 1463.08 2348.08 1462.92 Q2349.1 1462.73 2350.12 1462.73 Q2355.9 1462.73 2359.28 1465.9 Q2362.66 1469.08 2362.66 1474.49 Q2362.66 1480.07 2359.19 1483.17 Q2355.72 1486.25 2349.4 1486.25 Q2347.22 1486.25 2344.96 1485.88 Q2342.71 1485.51 2340.3 1484.77 L2340.3 1480.07 Q2342.39 1481.2 2344.61 1481.76 Q2346.83 1482.32 2349.31 1482.32 Q2353.31 1482.32 2355.65 1480.21 Q2357.99 1478.1 2357.99 1474.49 Q2357.99 1470.88 2355.65 1468.77 Q2353.31 1466.67 2349.31 1466.67 Q2347.43 1466.67 2345.56 1467.08 Q2343.71 1467.5 2341.76 1468.38 L2341.76 1451.02 Z" fill="#000000" fill-rule="nonzero" fill-opacity="1" /><path clip-path="url(#clip920)" d="M2381.88 1454.1 Q2378.27 1454.1 2376.44 1457.66 Q2374.63 1461.2 2374.63 1468.33 Q2374.63 1475.44 2376.44 1479.01 Q2378.27 1482.55 2381.88 1482.55 Q2385.51 1482.55 2387.32 1479.01 Q2389.14 1475.44 2389.14 1468.33 Q2389.14 1461.2 2387.32 1457.66 Q2385.51 1454.1 2381.88 1454.1 M2381.88 1450.39 Q2387.69 1450.39 2390.74 1455 Q2393.82 1459.58 2393.82 1468.33 Q2393.82 1477.06 2390.74 1481.67 Q2387.69 1486.25 2381.88 1486.25 Q2376.07 1486.25 2372.99 1481.67 Q2369.93 1477.06 2369.93 1468.33 Q2369.93 1459.58 2372.99 1455 Q2376.07 1450.39 2381.88 1450.39 Z" fill="#000000" fill-rule="nonzero" fill-opacity="1" /><path clip-path="url(#clip920)" d="M1230.88 1522.27 L1230.88 1532.4 L1242.94 1532.4 L1242.94 1536.95 L1230.88 1536.95 L1230.88 1556.3 Q1230.88 1560.66 1232.06 1561.9 Q1233.27 1563.14 1236.93 1563.14 L1242.94 1563.14 L1242.94 1568.04 L1236.93 1568.04 Q1230.15 1568.04 1227.57 1565.53 Q1224.99 1562.98 1224.99 1556.3 L1224.99 1536.95 L1220.69 1536.95 L1220.69 1532.4 L1224.99 1532.4 L1224.99 1522.27 L1230.88 1522.27 Z" fill="#000000" fill-rule="nonzero" fill-opacity="1" /><polyline clip-path="url(#clip920)" style="stroke:#000000; stroke-linecap:round; stroke-linejoin:round; stroke-width:4; stroke-opacity:1; fill:none" points="110.881,1423.18 110.881,47.2441 "/>
<polyline clip-path="url(#clip920)" style="stroke:#000000; stroke-linecap:round; stroke-linejoin:round; stroke-width:4; stroke-opacity:1; fill:none" points="110.881,1330.43 129.779,1330.43 "/>
<polyline clip-path="url(#clip920)" style="stroke:#000000; stroke-linecap:round; stroke-linejoin:round; stroke-width:4; stroke-opacity:1; fill:none" points="110.881,1000.42 129.779,1000.42 "/>
<polyline clip-path="url(#clip920)" style="stroke:#000000; stroke-linecap:round; stroke-linejoin:round; stroke-width:4; stroke-opacity:1; fill:none" points="110.881,670.414 129.779,670.414 "/>
<polyline clip-path="url(#clip920)" style="stroke:#000000; stroke-linecap:round; stroke-linejoin:round; stroke-width:4; stroke-opacity:1; fill:none" points="110.881,340.406 129.779,340.406 "/>
<path clip-path="url(#clip920)" d="M62.9365 1316.23 Q59.3254 1316.23 57.4967 1319.79 Q55.6912 1323.33 55.6912 1330.46 Q55.6912 1337.57 57.4967 1341.13 Q59.3254 1344.68 62.9365 1344.68 Q66.5707 1344.68 68.3763 1341.13 Q70.205 1337.57 70.205 1330.46 Q70.205 1323.33 68.3763 1319.79 Q66.5707 1316.23 62.9365 1316.23 M62.9365 1312.52 Q68.7467 1312.52 71.8022 1317.13 Q74.8809 1321.71 74.8809 1330.46 Q74.8809 1339.19 71.8022 1343.8 Q68.7467 1348.38 62.9365 1348.38 Q57.1264 1348.38 54.0477 1343.8 Q50.9921 1339.19 50.9921 1330.46 Q50.9921 1321.71 54.0477 1317.13 Q57.1264 1312.52 62.9365 1312.52 Z" fill="#000000" fill-rule="nonzero" fill-opacity="1" /><path clip-path="url(#clip920)" d="M54.9736 1013.77 L62.6124 1013.77 L62.6124 987.4 L54.3023 989.067 L54.3023 984.808 L62.5661 983.141 L67.242 983.141 L67.242 1013.77 L74.8809 1013.77 L74.8809 1017.7 L54.9736 1017.7 L54.9736 1013.77 Z" fill="#000000" fill-rule="nonzero" fill-opacity="1" /><path clip-path="url(#clip920)" d="M58.5615 683.758 L74.8809 683.758 L74.8809 687.694 L52.9366 687.694 L52.9366 683.758 Q55.5986 681.004 60.1819 676.374 Q64.7883 671.721 65.9689 670.379 Q68.2143 667.856 69.0939 666.12 Q69.9967 664.36 69.9967 662.671 Q69.9967 659.916 68.0522 658.18 Q66.1309 656.444 63.0291 656.444 Q60.83 656.444 58.3763 657.208 Q55.9458 657.972 53.168 659.522 L53.168 654.8 Q55.9921 653.666 58.4458 653.087 Q60.8995 652.509 62.9365 652.509 Q68.3068 652.509 71.5013 655.194 Q74.6957 657.879 74.6957 662.37 Q74.6957 664.499 73.8855 666.421 Q73.0985 668.319 70.992 670.911 Q70.4133 671.583 67.3115 674.8 Q64.2096 677.995 58.5615 683.758 Z" fill="#000000" fill-rule="nonzero" fill-opacity="1" /><path clip-path="url(#clip920)" d="M67.7513 339.052 Q71.1078 339.77 72.9827 342.038 Q74.8809 344.307 74.8809 347.64 Q74.8809 352.756 71.3624 355.557 Q67.8439 358.357 61.3624 358.357 Q59.1865 358.357 56.8717 357.918 Q54.5801 357.501 52.1264 356.645 L52.1264 352.131 Q54.0708 353.265 56.3856 353.844 Q58.7004 354.422 61.2236 354.422 Q65.6217 354.422 67.9133 352.686 Q70.2281 350.95 70.2281 347.64 Q70.2281 344.584 68.0754 342.871 Q65.9457 341.135 62.1263 341.135 L58.0986 341.135 L58.0986 337.293 L62.3115 337.293 Q65.7606 337.293 67.5893 335.927 Q69.418 334.538 69.418 331.946 Q69.418 329.284 67.5198 327.872 Q65.6448 326.436 62.1263 326.436 Q60.205 326.436 58.006 326.853 Q55.8069 327.27 53.168 328.149 L53.168 323.983 Q55.8301 323.242 58.1449 322.872 Q60.4828 322.501 62.543 322.501 Q67.867 322.501 70.9689 324.932 Q74.0707 327.339 74.0707 331.459 Q74.0707 334.33 72.4272 336.321 Q70.7837 338.288 67.7513 339.052 Z" fill="#000000" fill-rule="nonzero" fill-opacity="1" /><polyline clip-path="url(#clip921)" style="stroke:#009af9; stroke-linecap:round; stroke-linejoin:round; stroke-width:4; stroke-opacity:1; fill:none" points="110.881,218.376 113.125,151.157 115.369,113.081 117.613,93.9233 119.857,86.4601 122.101,86.1857 124.346,90.1308 126.59,96.408 128.834,103.872 131.078,111.845 133.322,119.934 135.566,127.919 137.81,135.674 140.054,143.137 142.299,150.278 144.543,157.088 146.787,163.568 149.031,169.728 151.275,175.58 153.519,181.139 155.763,186.42 158.007,191.436 160.252,196.203 162.496,200.733 164.74,205.04 166.984,209.136 169.228,213.033 171.472,216.741 173.716,220.27 175.96,223.63 178.204,226.831 180.449,229.879 182.693,232.783 184.937,235.551 187.181,238.188 189.425,240.703 191.669,243.101 193.913,245.387 196.157,247.567 198.402,249.646 200.646,251.63 202.89,253.523 205.134,255.33 207.378,257.053 209.622,258.697 211.866,260.267 214.11,261.765 216.354,263.195 218.599,264.561 220.843,265.864 223.087,267.108 225.331,268.296 227.575,269.431 229.819,270.514 232.063,271.549 234.307,272.537 236.552,273.48 238.796,274.381 241.04,275.241 243.284,276.063 245.528,276.849 247.772,277.599 250.016,278.315 252.26,278.999 254.505,279.653 256.749,280.277 258.993,280.873 261.237,281.443 263.481,281.988 265.725,282.508 267.969,283.005 270.213,283.48 272.457,283.933 274.702,284.366 276.946,284.78 279.19,285.176 281.434,285.554 283.678,285.915 285.922,286.26 288.166,286.59 290.41,286.905 292.655,287.206 294.899,287.494 297.143,287.768 299.387,288.031 301.631,288.282 303.875,288.522 306.119,288.751 308.363,288.97 310.607,289.18 312.852,289.379 315.096,289.571 317.34,289.753 319.584,289.928 321.828,290.095 324.072,290.254 326.316,290.406 328.56,290.552 330.805,290.691 333.049,290.824 335.293,290.951 337.537,291.072 339.781,291.189 342.025,291.3 344.269,291.405 346.513,291.507 348.758,291.603 351.002,291.696 353.246,291.784 355.49,291.869 357.734,291.95 359.978,292.027 362.222,292.101 364.466,292.171 366.71,292.238 368.955,292.303 371.199,292.364 373.443,292.423 375.687,292.479 377.931,292.533 380.175,292.584 382.419,292.633 384.663,292.68 386.908,292.725 389.152,292.768 391.396,292.809 393.64,292.848 395.884,292.885 398.128,292.921 400.372,292.955 402.616,292.988 404.86,293.019 407.105,293.049 409.349,293.077 411.593,293.104 413.837,293.13 416.081,293.155 418.325,293.179 420.569,293.202 422.813,293.224 425.058,293.244 427.302,293.264 429.546,293.283 431.79,293.301 434.034,293.319 436.278,293.335 438.522,293.351 440.766,293.366 443.011,293.381 445.255,293.394 447.499,293.408 449.743,293.42 451.987,293.432 454.231,293.444 456.475,293.455 458.719,293.465 460.963,293.475 463.208,293.485 465.452,293.494 467.696,293.503 469.94,293.511 472.184,293.519 474.428,293.527 476.672,293.534 478.916,293.541 481.161,293.548 483.405,293.554 485.649,293.561 487.893,293.566 490.137,293.572 492.381,293.577 494.625,293.582 496.869,293.587 499.113,293.592 501.358,293.596 503.602,293.601 505.846,293.605 508.09,293.609 510.334,293.612 512.578,293.616 514.822,293.619 517.066,293.623 519.311,293.626 521.555,293.629 523.799,293.631 526.043,293.634 528.287,293.637 530.531,293.639 532.775,293.642 535.019,293.644 537.264,293.646 539.508,293.648 541.752,293.65 543.996,293.652 546.24,293.654 548.484,293.655 550.728,293.657 552.972,293.659 555.216,293.66 557.461,293.662 559.705,293.663 561.949,293.664 564.193,293.666 566.437,293.667 568.681,293.668 570.925,293.669 573.169,293.67 575.414,293.671 577.658,293.672 579.902,293.673 582.146,293.674 584.39,293.675 586.634,293.675 588.878,293.676 591.122,293.677 593.367,293.678 595.611,293.678 597.855,293.679 600.099,293.679 602.343,293.68 604.587,293.681 606.831,293.681 609.075,293.682 611.319,293.682 613.564,293.683 615.808,293.683 618.052,293.683 620.296,293.684 622.54,293.684 624.784,293.685 627.028,293.685 629.272,293.685 631.517,293.686 633.761,293.686 636.005,293.686 638.249,293.686 640.493,293.687 642.737,293.687 644.981,293.687 647.225,293.688 649.469,293.688 651.714,293.688 653.958,293.688 656.202,293.688 658.446,293.689 660.69,293.689 662.934,293.689 665.178,293.689 667.422,293.689 669.667,293.689 671.911,293.69 674.155,293.69 676.399,293.69 678.643,293.69 680.887,293.69 683.131,293.69 685.375,293.69 687.62,293.69 689.864,293.69 692.108,293.691 694.352,293.691 696.596,293.691 698.84,293.691 701.084,293.691 703.328,293.691 705.572,293.691 707.817,293.691 710.061,293.691 712.305,293.691 714.549,293.691 716.793,293.691 719.037,293.691 721.281,293.691 723.525,293.692 725.77,293.692 728.014,293.692 730.258,293.692 732.502,293.692 734.746,293.692 736.99,293.692 739.234,293.692 741.478,293.692 743.722,293.692 745.967,293.692 748.211,293.692 750.455,293.692 752.699,293.692 754.943,293.692 757.187,293.692 759.431,293.692 761.675,293.692 763.92,293.692 766.164,293.692 768.408,293.692 770.652,293.692 772.896,293.692 775.14,293.692 777.384,293.692 779.628,293.692 781.873,293.692 784.117,293.692 786.361,293.692 788.605,293.692 790.849,293.692 793.093,293.692 795.337,293.692 797.581,293.692 799.825,293.692 802.07,293.692 804.314,293.692 806.558,293.692 808.802,293.692 811.046,293.692 813.29,293.692 815.534,293.692 817.778,293.692 820.023,293.692 822.267,293.692 824.511,293.692 826.755,293.692 828.999,293.692 831.243,293.692 833.487,293.693 835.731,293.693 837.975,293.693 840.22,293.693 842.464,293.693 844.708,293.693 846.952,293.693 849.196,293.693 851.44,293.693 853.684,293.693 855.928,293.693 858.173,293.693 860.417,293.693 862.661,293.693 864.905,293.693 867.149,293.693 869.393,293.693 871.637,293.693 873.881,293.693 876.126,293.693 878.37,293.693 880.614,293.693 882.858,293.693 885.102,293.693 887.346,293.693 889.59,293.693 891.834,293.693 894.078,293.693 896.323,293.693 898.567,293.693 900.811,293.693 903.055,293.693 905.299,293.693 907.543,293.693 909.787,293.693 912.031,293.693 914.276,293.693 916.52,293.693 918.764,293.693 921.008,293.693 923.252,293.693 925.496,293.693 927.74,293.693 929.984,293.693 932.228,293.693 934.473,293.693 936.717,293.693 938.961,293.693 941.205,293.693 943.449,293.693 945.693,293.693 947.937,293.693 950.181,293.693 952.426,293.693 954.67,293.693 956.914,293.693 959.158,293.693 961.402,293.693 963.646,293.693 965.89,293.693 968.134,293.693 970.379,293.693 972.623,293.693 974.867,293.693 977.111,293.693 979.355,293.693 981.599,293.693 983.843,293.693 986.087,293.693 988.331,293.693 990.576,293.693 992.82,293.693 995.064,293.693 997.308,293.693 999.552,293.693 1001.8,293.693 1004.04,293.693 1006.28,293.693 1008.53,293.693 1010.77,293.693 1013.02,293.693 1015.26,293.693 1017.51,293.693 1019.75,293.693 1021.99,293.693 1024.24,293.693 1026.48,293.693 1028.73,293.693 1030.97,293.693 1033.21,293.693 1035.46,293.693 1037.7,293.693 1039.95,293.693 1042.19,293.693 1044.43,293.693 1046.68,293.693 1048.92,293.693 1051.17,293.693 1053.41,293.693 1055.66,293.693 1057.9,293.693 1060.14,293.693 1062.39,293.693 1064.63,293.693 1066.88,293.693 1069.12,293.693 1071.36,293.693 1073.61,293.693 1075.85,293.693 1078.1,293.693 1080.34,293.693 1082.58,293.693 1084.83,293.693 1087.07,293.693 1089.32,293.693 1091.56,293.693 1093.81,293.693 1096.05,293.693 1098.29,293.693 1100.54,293.693 1102.78,293.693 1105.03,293.693 1107.27,293.693 1109.51,293.693 1111.76,293.693 1114,293.693 1116.25,293.693 1118.49,293.693 1120.73,293.693 1122.98,293.693 1125.22,293.693 1127.47,293.693 1129.71,293.693 1131.96,293.693 1134.2,293.693 1136.44,293.693 1138.69,293.693 1140.93,293.693 1143.18,293.693 1145.42,293.693 1147.66,293.693 1149.91,293.693 1152.15,293.693 1154.4,293.693 1156.64,293.693 1158.88,293.693 1161.13,293.693 1163.37,293.693 1165.62,293.693 1167.86,293.693 1170.11,293.693 1172.35,293.693 1174.59,293.693 1176.84,293.693 1179.08,293.693 1181.33,293.693 1183.57,293.693 1185.81,293.693 1188.06,293.693 1190.3,293.693 1192.55,293.693 1194.79,293.693 1197.03,293.693 1199.28,293.693 1201.52,293.693 1203.77,293.693 1206.01,293.693 1208.26,293.693 1210.5,293.693 1212.74,293.693 1214.99,293.693 1217.23,293.693 1219.48,293.693 1221.72,293.693 1223.96,293.693 1226.21,293.693 1228.45,293.693 1230.7,293.693 1232.94,293.693 1235.18,293.693 1237.43,293.693 1239.67,293.693 1241.92,293.693 1244.16,293.693 1246.41,293.693 1248.65,293.693 1250.89,293.693 1253.14,293.693 1255.38,293.693 1257.63,293.693 1259.87,293.693 1262.11,293.693 1264.36,293.693 1266.6,293.693 1268.85,293.693 1271.09,293.693 1273.33,293.693 1275.58,293.693 1277.82,293.693 1280.07,293.693 1282.31,293.693 1284.56,293.693 1286.8,293.693 1289.04,293.693 1291.29,293.693 1293.53,293.693 1295.78,293.693 1298.02,293.693 1300.26,293.693 1302.51,293.693 1304.75,293.693 1307,293.693 1309.24,293.693 1311.48,293.693 1313.73,293.693 1315.97,293.693 1318.22,293.693 1320.46,293.693 1322.71,293.693 1324.95,293.693 1327.19,293.693 1329.44,293.693 1331.68,293.693 1333.93,293.693 1336.17,293.693 1338.41,293.693 1340.66,293.693 1342.9,293.693 1345.15,293.693 1347.39,293.693 1349.63,293.693 1351.88,293.693 1354.12,293.693 1356.37,293.693 1358.61,293.693 1360.86,293.693 1363.1,293.693 1365.34,293.693 1367.59,293.693 1369.83,293.693 1372.08,293.693 1374.32,293.693 1376.56,293.693 1378.81,293.693 1381.05,293.693 1383.3,293.693 1385.54,293.693 1387.78,293.693 1390.03,293.693 1392.27,293.693 1394.52,293.693 1396.76,293.693 1399.01,293.693 1401.25,293.693 1403.49,293.693 1405.74,293.693 1407.98,293.693 1410.23,293.693 1412.47,293.693 1414.71,293.693 1416.96,293.693 1419.2,293.693 1421.45,293.693 1423.69,293.693 1425.93,293.693 1428.18,293.693 1430.42,293.693 1432.67,293.693 1434.91,293.693 1437.16,293.693 1439.4,293.693 1441.64,293.693 1443.89,293.693 1446.13,293.693 1448.38,293.693 1450.62,293.693 1452.86,293.693 1455.11,293.693 1457.35,293.693 1459.6,293.693 1461.84,293.693 1464.08,293.693 1466.33,293.693 1468.57,293.693 1470.82,293.693 1473.06,293.693 1475.31,293.693 1477.55,293.693 1479.79,293.693 1482.04,293.693 1484.28,293.693 1486.53,293.693 1488.77,293.693 1491.01,293.693 1493.26,293.693 1495.5,293.693 1497.75,293.693 1499.99,293.693 1502.23,293.693 1504.48,293.693 1506.72,293.693 1508.97,293.693 1511.21,293.693 1513.46,293.693 1515.7,293.693 1517.94,293.693 1520.19,293.693 1522.43,293.693 1524.68,293.693 1526.92,293.693 1529.16,293.693 1531.41,293.693 1533.65,293.693 1535.9,293.693 1538.14,293.693 1540.38,293.693 1542.63,293.693 1544.87,293.693 1547.12,293.693 1549.36,293.693 1551.61,293.693 1553.85,293.693 1556.09,293.693 1558.34,293.693 1560.58,293.693 1562.83,293.693 1565.07,293.693 1567.31,293.693 1569.56,293.693 1571.8,293.693 1574.05,293.693 1576.29,293.693 1578.53,293.693 1580.78,293.693 1583.02,293.693 1585.27,293.693 1587.51,293.693 1589.76,293.693 1592,293.693 1594.24,293.693 1596.49,293.693 1598.73,293.693 1600.98,293.693 1603.22,293.693 1605.46,293.693 1607.71,293.693 1609.95,293.693 1612.2,293.693 1614.44,293.693 1616.68,293.693 1618.93,293.693 1621.17,293.693 1623.42,293.693 1625.66,293.693 1627.91,293.693 1630.15,293.693 1632.39,293.693 1634.64,293.693 1636.88,293.693 1639.13,293.693 1641.37,293.693 1643.61,293.693 1645.86,293.693 1648.1,293.693 1650.35,293.693 1652.59,293.693 1654.83,293.693 1657.08,293.693 1659.32,293.693 1661.57,293.693 1663.81,293.693 1666.06,293.693 1668.3,293.693 1670.54,293.693 1672.79,293.693 1675.03,293.693 1677.28,293.693 1679.52,293.693 1681.76,293.693 1684.01,293.693 1686.25,293.693 1688.5,293.693 1690.74,293.693 1692.98,293.693 1695.23,293.693 1697.47,293.693 1699.72,293.693 1701.96,293.693 1704.21,293.693 1706.45,293.693 1708.69,293.693 1710.94,293.693 1713.18,293.693 1715.43,293.693 1717.67,293.693 1719.91,293.693 1722.16,293.693 1724.4,293.693 1726.65,293.693 1728.89,293.693 1731.13,293.693 1733.38,293.693 1735.62,293.693 1737.87,293.693 1740.11,293.693 1742.36,293.693 1744.6,293.693 1746.84,293.693 1749.09,293.693 1751.33,293.693 1753.58,293.693 1755.82,293.693 1758.06,293.693 1760.31,293.693 1762.55,293.693 1764.8,293.693 1767.04,293.693 1769.28,293.693 1771.53,293.693 1773.77,293.693 1776.02,293.693 1778.26,293.693 1780.51,293.693 1782.75,293.693 1784.99,293.693 1787.24,293.693 1789.48,293.693 1791.73,293.693 1793.97,293.693 1796.21,293.693 1798.46,293.693 1800.7,293.693 1802.95,293.693 1805.19,293.693 1807.43,293.693 1809.68,293.693 1811.92,293.693 1814.17,293.693 1816.41,293.693 1818.66,293.693 1820.9,293.693 1823.14,293.693 1825.39,293.693 1827.63,293.693 1829.88,293.693 1832.12,293.693 1834.36,293.693 1836.61,293.693 1838.85,293.693 1841.1,293.693 1843.34,293.693 1845.58,293.693 1847.83,293.693 1850.07,293.693 1852.32,293.693 1854.56,293.693 1856.81,293.693 1859.05,293.693 1861.29,293.693 1863.54,293.693 1865.78,293.693 1868.03,293.693 1870.27,293.693 1872.51,293.693 1874.76,293.693 1877,293.693 1879.25,293.693 1881.49,293.693 1883.74,293.693 1885.98,293.693 1888.22,293.693 1890.47,293.693 1892.71,293.693 1894.96,293.693 1897.2,293.693 1899.44,293.693 1901.69,293.693 1903.93,293.693 1906.18,293.693 1908.42,293.693 1910.66,293.693 1912.91,293.693 1915.15,293.693 1917.4,293.693 1919.64,293.693 1921.89,293.693 1924.13,293.693 1926.37,293.693 1928.62,293.693 1930.86,293.693 1933.11,293.693 1935.35,293.693 1937.59,293.693 1939.84,293.693 1942.08,293.693 1944.33,293.693 1946.57,293.693 1948.81,293.693 1951.06,293.693 1953.3,293.693 1955.55,293.693 1957.79,293.693 1960.04,293.693 1962.28,293.693 1964.52,293.693 1966.77,293.693 1969.01,293.693 1971.26,293.693 1973.5,293.693 1975.74,293.693 1977.99,293.693 1980.23,293.693 1982.48,293.693 1984.72,293.693 1986.96,293.693 1989.21,293.693 1991.45,293.693 1993.7,293.693 1995.94,293.693 1998.19,293.693 2000.43,293.693 2002.67,293.693 2004.92,293.693 2007.16,293.693 2009.41,293.693 2011.65,293.693 2013.89,293.693 2016.14,293.693 2018.38,293.693 2020.63,293.693 2022.87,293.693 2025.11,293.693 2027.36,293.693 2029.6,293.693 2031.85,293.693 2034.09,293.693 2036.34,293.693 2038.58,293.693 2040.82,293.693 2043.07,293.693 2045.31,293.693 2047.56,293.693 2049.8,293.693 2052.04,293.693 2054.29,293.693 2056.53,293.693 2058.78,293.693 2061.02,293.693 2063.26,293.693 2065.51,293.693 2067.75,293.693 2070,293.693 2072.24,293.693 2074.49,293.693 2076.73,293.693 2078.97,293.693 2081.22,293.693 2083.46,293.693 2085.71,293.693 2087.95,293.693 2090.19,293.693 2092.44,293.693 2094.68,293.693 2096.93,293.693 2099.17,293.693 2101.41,293.693 2103.66,293.693 2105.9,293.693 2108.15,293.693 2110.39,293.693 2112.64,293.693 2114.88,293.693 2117.12,293.693 2119.37,293.693 2121.61,293.693 2123.86,293.693 2126.1,293.693 2128.34,293.693 2130.59,293.693 2132.83,293.693 2135.08,293.693 2137.32,293.693 2139.56,293.693 2141.81,293.693 2144.05,293.693 2146.3,293.693 2148.54,293.693 2150.79,293.693 2153.03,293.693 2155.27,293.693 2157.52,293.693 2159.76,293.693 2162.01,293.693 2164.25,293.693 2166.49,293.693 2168.74,293.693 2170.98,293.693 2173.23,293.693 2175.47,293.693 2177.71,293.693 2179.96,293.693 2182.2,293.693 2184.45,293.693 2186.69,293.693 2188.94,293.693 2191.18,293.693 2193.42,293.693 2195.67,293.693 2197.91,293.693 2200.16,293.693 2202.4,293.693 2204.64,293.693 2206.89,293.693 2209.13,293.693 2211.38,293.693 2213.62,293.693 2215.86,293.693 2218.11,293.693 2220.35,293.693 2222.6,293.693 2224.84,293.693 2227.09,293.693 2229.33,293.693 2231.57,293.693 2233.82,293.693 2236.06,293.693 2238.31,293.693 2240.55,293.693 2242.79,293.693 2245.04,293.693 2247.28,293.693 2249.53,293.693 2251.77,293.693 2254.01,293.693 2256.26,293.693 2258.5,293.693 2260.75,293.693 2262.99,293.693 2265.24,293.693 2267.48,293.693 2269.72,293.693 2271.97,293.693 2274.21,293.693 2276.46,293.693 2278.7,293.693 2280.94,293.693 2283.19,293.693 2285.43,293.693 2287.68,293.693 2289.92,293.693 2292.16,293.693 2294.41,293.693 2296.65,293.693 2298.9,293.693 2301.14,293.693 2303.39,293.693 2305.63,293.693 2307.87,293.693 2310.12,293.693 2312.36,293.693 2314.61,293.693 2316.85,293.693 2319.09,293.693 2321.34,293.693 2323.58,293.693 2325.83,293.693 2328.07,293.693 2330.31,293.693 2332.56,293.693 2334.8,293.693 2337.05,293.693 2339.29,293.693 2341.54,293.693 2343.78,293.693 2346.02,293.693 2348.27,293.693 2350.51,293.693 2352.76,293.693 "/>
<polyline clip-path="url(#clip921)" style="stroke:#e26f46; stroke-linecap:round; stroke-linejoin:round; stroke-width:4; stroke-opacity:1; fill:none" points="110.881,764.855 113.125,991.081 115.369,1150.11 117.613,1247.86 119.857,1308.68 122.101,1345.27 124.346,1366.08 126.59,1377.15 128.834,1382.39 131.078,1384.24 133.322,1384.14 135.566,1382.94 137.81,1381.15 140.054,1379.08 142.299,1376.88 144.543,1374.67 146.787,1372.51 149.031,1370.42 151.275,1368.41 153.519,1366.51 155.763,1364.7 158.007,1362.99 160.252,1361.37 162.496,1359.84 164.74,1358.4 166.984,1357.03 169.228,1355.74 171.472,1354.52 173.716,1353.36 175.96,1352.27 178.204,1351.23 180.449,1350.24 182.693,1349.31 184.937,1348.42 187.181,1347.58 189.425,1346.78 191.669,1346.02 193.913,1345.3 196.157,1344.61 198.402,1343.96 200.646,1343.33 202.89,1342.74 205.134,1342.18 207.378,1341.64 209.622,1341.13 211.866,1340.64 214.11,1340.18 216.354,1339.73 218.599,1339.31 220.843,1338.91 223.087,1338.53 225.331,1338.16 227.575,1337.81 229.819,1337.48 232.063,1337.16 234.307,1336.86 236.552,1336.57 238.796,1336.29 241.04,1336.03 243.284,1335.78 245.528,1335.54 247.772,1335.31 250.016,1335.09 252.26,1334.88 254.505,1334.68 256.749,1334.49 258.993,1334.31 261.237,1334.14 263.481,1333.97 265.725,1333.81 267.969,1333.66 270.213,1333.52 272.457,1333.38 274.702,1333.25 276.946,1333.12 279.19,1333 281.434,1332.89 283.678,1332.78 285.922,1332.67 288.166,1332.57 290.41,1332.48 292.655,1332.39 294.899,1332.3 297.143,1332.22 299.387,1332.14 301.631,1332.06 303.875,1331.99 306.119,1331.92 308.363,1331.85 310.607,1331.79 312.852,1331.73 315.096,1331.67 317.34,1331.62 319.584,1331.56 321.828,1331.51 324.072,1331.47 326.316,1331.42 328.56,1331.38 330.805,1331.33 333.049,1331.29 335.293,1331.26 337.537,1331.22 339.781,1331.18 342.025,1331.15 344.269,1331.12 346.513,1331.09 348.758,1331.06 351.002,1331.03 353.246,1331 355.49,1330.98 357.734,1330.95 359.978,1330.93 362.222,1330.91 364.466,1330.89 366.71,1330.87 368.955,1330.85 371.199,1330.83 373.443,1330.81 375.687,1330.79 377.931,1330.78 380.175,1330.76 382.419,1330.75 384.663,1330.73 386.908,1330.72 389.152,1330.71 391.396,1330.7 393.64,1330.68 395.884,1330.67 398.128,1330.66 400.372,1330.65 402.616,1330.64 404.86,1330.63 407.105,1330.62 409.349,1330.61 411.593,1330.61 413.837,1330.6 416.081,1330.59 418.325,1330.58 420.569,1330.58 422.813,1330.57 425.058,1330.56 427.302,1330.56 429.546,1330.55 431.79,1330.55 434.034,1330.54 436.278,1330.54 438.522,1330.53 440.766,1330.53 443.011,1330.52 445.255,1330.52 447.499,1330.51 449.743,1330.51 451.987,1330.51 454.231,1330.5 456.475,1330.5 458.719,1330.5 460.963,1330.49 463.208,1330.49 465.452,1330.49 467.696,1330.49 469.94,1330.48 472.184,1330.48 474.428,1330.48 476.672,1330.48 478.916,1330.47 481.161,1330.47 483.405,1330.47 485.649,1330.47 487.893,1330.47 490.137,1330.46 492.381,1330.46 494.625,1330.46 496.869,1330.46 499.113,1330.46 501.358,1330.46 503.602,1330.46 505.846,1330.45 508.09,1330.45 510.334,1330.45 512.578,1330.45 514.822,1330.45 517.066,1330.45 519.311,1330.45 521.555,1330.45 523.799,1330.45 526.043,1330.45 528.287,1330.45 530.531,1330.44 532.775,1330.44 535.019,1330.44 537.264,1330.44 539.508,1330.44 541.752,1330.44 543.996,1330.44 546.24,1330.44 548.484,1330.44 550.728,1330.44 552.972,1330.44 555.216,1330.44 557.461,1330.44 559.705,1330.44 561.949,1330.44 564.193,1330.44 566.437,1330.44 568.681,1330.44 570.925,1330.44 573.169,1330.44 575.414,1330.44 577.658,1330.43 579.902,1330.43 582.146,1330.43 584.39,1330.43 586.634,1330.43 588.878,1330.43 591.122,1330.43 593.367,1330.43 595.611,1330.43 597.855,1330.43 600.099,1330.43 602.343,1330.43 604.587,1330.43 606.831,1330.43 609.075,1330.43 611.319,1330.43 613.564,1330.43 615.808,1330.43 618.052,1330.43 620.296,1330.43 622.54,1330.43 624.784,1330.43 627.028,1330.43 629.272,1330.43 631.517,1330.43 633.761,1330.43 636.005,1330.43 638.249,1330.43 640.493,1330.43 642.737,1330.43 644.981,1330.43 647.225,1330.43 649.469,1330.43 651.714,1330.43 653.958,1330.43 656.202,1330.43 658.446,1330.43 660.69,1330.43 662.934,1330.43 665.178,1330.43 667.422,1330.43 669.667,1330.43 671.911,1330.43 674.155,1330.43 676.399,1330.43 678.643,1330.43 680.887,1330.43 683.131,1330.43 685.375,1330.43 687.62,1330.43 689.864,1330.43 692.108,1330.43 694.352,1330.43 696.596,1330.43 698.84,1330.43 701.084,1330.43 703.328,1330.43 705.572,1330.43 707.817,1330.43 710.061,1330.43 712.305,1330.43 714.549,1330.43 716.793,1330.43 719.037,1330.43 721.281,1330.43 723.525,1330.43 725.77,1330.43 728.014,1330.43 730.258,1330.43 732.502,1330.43 734.746,1330.43 736.99,1330.43 739.234,1330.43 741.478,1330.43 743.722,1330.43 745.967,1330.43 748.211,1330.43 750.455,1330.43 752.699,1330.43 754.943,1330.43 757.187,1330.43 759.431,1330.43 761.675,1330.43 763.92,1330.43 766.164,1330.43 768.408,1330.43 770.652,1330.43 772.896,1330.43 775.14,1330.43 777.384,1330.43 779.628,1330.43 781.873,1330.43 784.117,1330.43 786.361,1330.43 788.605,1330.43 790.849,1330.43 793.093,1330.43 795.337,1330.43 797.581,1330.43 799.825,1330.43 802.07,1330.43 804.314,1330.43 806.558,1330.43 808.802,1330.43 811.046,1330.43 813.29,1330.43 815.534,1330.43 817.778,1330.43 820.023,1330.43 822.267,1330.43 824.511,1330.43 826.755,1330.43 828.999,1330.43 831.243,1330.43 833.487,1330.43 835.731,1330.43 837.975,1330.43 840.22,1330.43 842.464,1330.43 844.708,1330.43 846.952,1330.43 849.196,1330.43 851.44,1330.43 853.684,1330.43 855.928,1330.43 858.173,1330.43 860.417,1330.43 862.661,1330.43 864.905,1330.43 867.149,1330.43 869.393,1330.43 871.637,1330.43 873.881,1330.43 876.126,1330.43 878.37,1330.43 880.614,1330.43 882.858,1330.43 885.102,1330.43 887.346,1330.43 889.59,1330.43 891.834,1330.43 894.078,1330.43 896.323,1330.43 898.567,1330.43 900.811,1330.43 903.055,1330.43 905.299,1330.43 907.543,1330.43 909.787,1330.43 912.031,1330.43 914.276,1330.43 916.52,1330.43 918.764,1330.43 921.008,1330.43 923.252,1330.43 925.496,1330.43 927.74,1330.43 929.984,1330.43 932.228,1330.43 934.473,1330.43 936.717,1330.43 938.961,1330.43 941.205,1330.43 943.449,1330.43 945.693,1330.43 947.937,1330.43 950.181,1330.43 952.426,1330.43 954.67,1330.43 956.914,1330.43 959.158,1330.43 961.402,1330.43 963.646,1330.43 965.89,1330.43 968.134,1330.43 970.379,1330.43 972.623,1330.43 974.867,1330.43 977.111,1330.43 979.355,1330.43 981.599,1330.43 983.843,1330.43 986.087,1330.43 988.331,1330.43 990.576,1330.43 992.82,1330.43 995.064,1330.43 997.308,1330.43 999.552,1330.43 1001.8,1330.43 1004.04,1330.43 1006.28,1330.43 1008.53,1330.43 1010.77,1330.43 1013.02,1330.43 1015.26,1330.43 1017.51,1330.43 1019.75,1330.43 1021.99,1330.43 1024.24,1330.43 1026.48,1330.43 1028.73,1330.43 1030.97,1330.43 1033.21,1330.43 1035.46,1330.43 1037.7,1330.43 1039.95,1330.43 1042.19,1330.43 1044.43,1330.43 1046.68,1330.43 1048.92,1330.43 1051.17,1330.43 1053.41,1330.43 1055.66,1330.43 1057.9,1330.43 1060.14,1330.43 1062.39,1330.43 1064.63,1330.43 1066.88,1330.43 1069.12,1330.43 1071.36,1330.43 1073.61,1330.43 1075.85,1330.43 1078.1,1330.43 1080.34,1330.43 1082.58,1330.43 1084.83,1330.43 1087.07,1330.43 1089.32,1330.43 1091.56,1330.43 1093.81,1330.43 1096.05,1330.43 1098.29,1330.43 1100.54,1330.43 1102.78,1330.43 1105.03,1330.43 1107.27,1330.43 1109.51,1330.43 1111.76,1330.43 1114,1330.43 1116.25,1330.43 1118.49,1330.43 1120.73,1330.43 1122.98,1330.43 1125.22,1330.43 1127.47,1330.43 1129.71,1330.43 1131.96,1330.43 1134.2,1330.43 1136.44,1330.43 1138.69,1330.43 1140.93,1330.43 1143.18,1330.43 1145.42,1330.43 1147.66,1330.43 1149.91,1330.43 1152.15,1330.43 1154.4,1330.43 1156.64,1330.43 1158.88,1330.43 1161.13,1330.43 1163.37,1330.43 1165.62,1330.43 1167.86,1330.43 1170.11,1330.43 1172.35,1330.43 1174.59,1330.43 1176.84,1330.43 1179.08,1330.43 1181.33,1330.43 1183.57,1330.43 1185.81,1330.43 1188.06,1330.43 1190.3,1330.43 1192.55,1330.43 1194.79,1330.43 1197.03,1330.43 1199.28,1330.43 1201.52,1330.43 1203.77,1330.43 1206.01,1330.43 1208.26,1330.43 1210.5,1330.43 1212.74,1330.43 1214.99,1330.43 1217.23,1330.43 1219.48,1330.43 1221.72,1330.43 1223.96,1330.43 1226.21,1330.43 1228.45,1330.43 1230.7,1330.43 1232.94,1330.43 1235.18,1330.43 1237.43,1330.43 1239.67,1330.43 1241.92,1330.43 1244.16,1330.43 1246.41,1330.43 1248.65,1330.43 1250.89,1330.43 1253.14,1330.43 1255.38,1330.43 1257.63,1330.43 1259.87,1330.43 1262.11,1330.43 1264.36,1330.43 1266.6,1330.43 1268.85,1330.43 1271.09,1330.43 1273.33,1330.43 1275.58,1330.43 1277.82,1330.43 1280.07,1330.43 1282.31,1330.43 1284.56,1330.43 1286.8,1330.43 1289.04,1330.43 1291.29,1330.43 1293.53,1330.43 1295.78,1330.43 1298.02,1330.43 1300.26,1330.43 1302.51,1330.43 1304.75,1330.43 1307,1330.43 1309.24,1330.43 1311.48,1330.43 1313.73,1330.43 1315.97,1330.43 1318.22,1330.43 1320.46,1330.43 1322.71,1330.43 1324.95,1330.43 1327.19,1330.43 1329.44,1330.43 1331.68,1330.43 1333.93,1330.43 1336.17,1330.43 1338.41,1330.43 1340.66,1330.43 1342.9,1330.43 1345.15,1330.43 1347.39,1330.43 1349.63,1330.43 1351.88,1330.43 1354.12,1330.43 1356.37,1330.43 1358.61,1330.43 1360.86,1330.43 1363.1,1330.43 1365.34,1330.43 1367.59,1330.43 1369.83,1330.43 1372.08,1330.43 1374.32,1330.43 1376.56,1330.43 1378.81,1330.43 1381.05,1330.43 1383.3,1330.43 1385.54,1330.43 1387.78,1330.43 1390.03,1330.43 1392.27,1330.43 1394.52,1330.43 1396.76,1330.43 1399.01,1330.43 1401.25,1330.43 1403.49,1330.43 1405.74,1330.43 1407.98,1330.43 1410.23,1330.43 1412.47,1330.43 1414.71,1330.43 1416.96,1330.43 1419.2,1330.43 1421.45,1330.43 1423.69,1330.43 1425.93,1330.43 1428.18,1330.43 1430.42,1330.43 1432.67,1330.43 1434.91,1330.43 1437.16,1330.43 1439.4,1330.43 1441.64,1330.43 1443.89,1330.43 1446.13,1330.43 1448.38,1330.43 1450.62,1330.43 1452.86,1330.43 1455.11,1330.43 1457.35,1330.43 1459.6,1330.43 1461.84,1330.43 1464.08,1330.43 1466.33,1330.43 1468.57,1330.43 1470.82,1330.43 1473.06,1330.43 1475.31,1330.43 1477.55,1330.43 1479.79,1330.43 1482.04,1330.43 1484.28,1330.43 1486.53,1330.43 1488.77,1330.43 1491.01,1330.43 1493.26,1330.43 1495.5,1330.43 1497.75,1330.43 1499.99,1330.43 1502.23,1330.43 1504.48,1330.43 1506.72,1330.43 1508.97,1330.43 1511.21,1330.43 1513.46,1330.43 1515.7,1330.43 1517.94,1330.43 1520.19,1330.43 1522.43,1330.43 1524.68,1330.43 1526.92,1330.43 1529.16,1330.43 1531.41,1330.43 1533.65,1330.43 1535.9,1330.43 1538.14,1330.43 1540.38,1330.43 1542.63,1330.43 1544.87,1330.43 1547.12,1330.43 1549.36,1330.43 1551.61,1330.43 1553.85,1330.43 1556.09,1330.43 1558.34,1330.43 1560.58,1330.43 1562.83,1330.43 1565.07,1330.43 1567.31,1330.43 1569.56,1330.43 1571.8,1330.43 1574.05,1330.43 1576.29,1330.43 1578.53,1330.43 1580.78,1330.43 1583.02,1330.43 1585.27,1330.43 1587.51,1330.43 1589.76,1330.43 1592,1330.43 1594.24,1330.43 1596.49,1330.43 1598.73,1330.43 1600.98,1330.43 1603.22,1330.43 1605.46,1330.43 1607.71,1330.43 1609.95,1330.43 1612.2,1330.43 1614.44,1330.43 1616.68,1330.43 1618.93,1330.43 1621.17,1330.43 1623.42,1330.43 1625.66,1330.43 1627.91,1330.43 1630.15,1330.43 1632.39,1330.43 1634.64,1330.43 1636.88,1330.43 1639.13,1330.43 1641.37,1330.43 1643.61,1330.43 1645.86,1330.43 1648.1,1330.43 1650.35,1330.43 1652.59,1330.43 1654.83,1330.43 1657.08,1330.43 1659.32,1330.43 1661.57,1330.43 1663.81,1330.43 1666.06,1330.43 1668.3,1330.43 1670.54,1330.43 1672.79,1330.43 1675.03,1330.43 1677.28,1330.43 1679.52,1330.43 1681.76,1330.43 1684.01,1330.43 1686.25,1330.43 1688.5,1330.43 1690.74,1330.43 1692.98,1330.43 1695.23,1330.43 1697.47,1330.43 1699.72,1330.43 1701.96,1330.43 1704.21,1330.43 1706.45,1330.43 1708.69,1330.43 1710.94,1330.43 1713.18,1330.43 1715.43,1330.43 1717.67,1330.43 1719.91,1330.43 1722.16,1330.43 1724.4,1330.43 1726.65,1330.43 1728.89,1330.43 1731.13,1330.43 1733.38,1330.43 1735.62,1330.43 1737.87,1330.43 1740.11,1330.43 1742.36,1330.43 1744.6,1330.43 1746.84,1330.43 1749.09,1330.43 1751.33,1330.43 1753.58,1330.43 1755.82,1330.43 1758.06,1330.43 1760.31,1330.43 1762.55,1330.43 1764.8,1330.43 1767.04,1330.43 1769.28,1330.43 1771.53,1330.43 1773.77,1330.43 1776.02,1330.43 1778.26,1330.43 1780.51,1330.43 1782.75,1330.43 1784.99,1330.43 1787.24,1330.43 1789.48,1330.43 1791.73,1330.43 1793.97,1330.43 1796.21,1330.43 1798.46,1330.43 1800.7,1330.43 1802.95,1330.43 1805.19,1330.43 1807.43,1330.43 1809.68,1330.43 1811.92,1330.43 1814.17,1330.43 1816.41,1330.43 1818.66,1330.43 1820.9,1330.43 1823.14,1330.43 1825.39,1330.43 1827.63,1330.43 1829.88,1330.43 1832.12,1330.43 1834.36,1330.43 1836.61,1330.43 1838.85,1330.43 1841.1,1330.43 1843.34,1330.43 1845.58,1330.43 1847.83,1330.43 1850.07,1330.43 1852.32,1330.43 1854.56,1330.43 1856.81,1330.43 1859.05,1330.43 1861.29,1330.43 1863.54,1330.43 1865.78,1330.43 1868.03,1330.43 1870.27,1330.43 1872.51,1330.43 1874.76,1330.43 1877,1330.43 1879.25,1330.43 1881.49,1330.43 1883.74,1330.43 1885.98,1330.43 1888.22,1330.43 1890.47,1330.43 1892.71,1330.43 1894.96,1330.43 1897.2,1330.43 1899.44,1330.43 1901.69,1330.43 1903.93,1330.43 1906.18,1330.43 1908.42,1330.43 1910.66,1330.43 1912.91,1330.43 1915.15,1330.43 1917.4,1330.43 1919.64,1330.43 1921.89,1330.43 1924.13,1330.43 1926.37,1330.43 1928.62,1330.43 1930.86,1330.43 1933.11,1330.43 1935.35,1330.43 1937.59,1330.43 1939.84,1330.43 1942.08,1330.43 1944.33,1330.43 1946.57,1330.43 1948.81,1330.43 1951.06,1330.43 1953.3,1330.43 1955.55,1330.43 1957.79,1330.43 1960.04,1330.43 1962.28,1330.43 1964.52,1330.43 1966.77,1330.43 1969.01,1330.43 1971.26,1330.43 1973.5,1330.43 1975.74,1330.43 1977.99,1330.43 1980.23,1330.43 1982.48,1330.43 1984.72,1330.43 1986.96,1330.43 1989.21,1330.43 1991.45,1330.43 1993.7,1330.43 1995.94,1330.43 1998.19,1330.43 2000.43,1330.43 2002.67,1330.43 2004.92,1330.43 2007.16,1330.43 2009.41,1330.43 2011.65,1330.43 2013.89,1330.43 2016.14,1330.43 2018.38,1330.43 2020.63,1330.43 2022.87,1330.43 2025.11,1330.43 2027.36,1330.43 2029.6,1330.43 2031.85,1330.43 2034.09,1330.43 2036.34,1330.43 2038.58,1330.43 2040.82,1330.43 2043.07,1330.43 2045.31,1330.43 2047.56,1330.43 2049.8,1330.43 2052.04,1330.43 2054.29,1330.43 2056.53,1330.43 2058.78,1330.43 2061.02,1330.43 2063.26,1330.43 2065.51,1330.43 2067.75,1330.43 2070,1330.43 2072.24,1330.43 2074.49,1330.43 2076.73,1330.43 2078.97,1330.43 2081.22,1330.43 2083.46,1330.43 2085.71,1330.43 2087.95,1330.43 2090.19,1330.43 2092.44,1330.43 2094.68,1330.43 2096.93,1330.43 2099.17,1330.43 2101.41,1330.43 2103.66,1330.43 2105.9,1330.43 2108.15,1330.43 2110.39,1330.43 2112.64,1330.43 2114.88,1330.43 2117.12,1330.43 2119.37,1330.43 2121.61,1330.43 2123.86,1330.43 2126.1,1330.43 2128.34,1330.43 2130.59,1330.43 2132.83,1330.43 2135.08,1330.43 2137.32,1330.43 2139.56,1330.43 2141.81,1330.43 2144.05,1330.43 2146.3,1330.43 2148.54,1330.43 2150.79,1330.43 2153.03,1330.43 2155.27,1330.43 2157.52,1330.43 2159.76,1330.43 2162.01,1330.43 2164.25,1330.43 2166.49,1330.43 2168.74,1330.43 2170.98,1330.43 2173.23,1330.43 2175.47,1330.43 2177.71,1330.43 2179.96,1330.43 2182.2,1330.43 2184.45,1330.43 2186.69,1330.43 2188.94,1330.43 2191.18,1330.43 2193.42,1330.43 2195.67,1330.43 2197.91,1330.43 2200.16,1330.43 2202.4,1330.43 2204.64,1330.43 2206.89,1330.43 2209.13,1330.43 2211.38,1330.43 2213.62,1330.43 2215.86,1330.43 2218.11,1330.43 2220.35,1330.43 2222.6,1330.43 2224.84,1330.43 2227.09,1330.43 2229.33,1330.43 2231.57,1330.43 2233.82,1330.43 2236.06,1330.43 2238.31,1330.43 2240.55,1330.43 2242.79,1330.43 2245.04,1330.43 2247.28,1330.43 2249.53,1330.43 2251.77,1330.43 2254.01,1330.43 2256.26,1330.43 2258.5,1330.43 2260.75,1330.43 2262.99,1330.43 2265.24,1330.43 2267.48,1330.43 2269.72,1330.43 2271.97,1330.43 2274.21,1330.43 2276.46,1330.43 2278.7,1330.43 2280.94,1330.43 2283.19,1330.43 2285.43,1330.43 2287.68,1330.43 2289.92,1330.43 2292.16,1330.43 2294.41,1330.43 2296.65,1330.43 2298.9,1330.43 2301.14,1330.43 2303.39,1330.43 2305.63,1330.43 2307.87,1330.43 2310.12,1330.43 2312.36,1330.43 2314.61,1330.43 2316.85,1330.43 2319.09,1330.43 2321.34,1330.43 2323.58,1330.43 2325.83,1330.43 2328.07,1330.43 2330.31,1330.43 2332.56,1330.43 2334.8,1330.43 2337.05,1330.43 2339.29,1330.43 2341.54,1330.43 2343.78,1330.43 2346.02,1330.43 2348.27,1330.43 2350.51,1330.43 2352.76,1330.43 "/>
<path clip-path="url(#clip920)" d="M1986.29 248.629 L2278.03 248.629 L2278.03 93.1086 L1986.29 93.1086  Z" fill="#ffffff" fill-rule="evenodd" fill-opacity="1"/>
<polyline clip-path="url(#clip920)" style="stroke:#000000; stroke-linecap:round; stroke-linejoin:round; stroke-width:4; stroke-opacity:1; fill:none" points="1986.29,248.629 2278.03,248.629 2278.03,93.1086 1986.29,93.1086 1986.29,248.629 "/>
<polyline clip-path="url(#clip920)" style="stroke:#009af9; stroke-linecap:round; stroke-linejoin:round; stroke-width:4; stroke-opacity:1; fill:none" points="2011.2,144.949 2160.66,144.949 "/>
<path clip-path="url(#clip920)" d="M2204.83 145.794 L2190.08 145.794 Q2190.43 152.715 2192.03 155.655 Q2194.02 159.266 2197.47 159.266 Q2200.94 159.266 2202.86 155.631 Q2204.55 152.437 2204.83 145.794 M2204.76 141.858 Q2204.11 135.284 2202.86 132.97 Q2200.87 129.312 2197.47 129.312 Q2193.93 129.312 2192.05 132.923 Q2190.57 135.84 2190.13 141.858 L2204.76 141.858 M2197.47 125.84 Q2203.02 125.84 2206.2 130.747 Q2209.37 135.632 2209.37 144.289 Q2209.37 152.923 2206.2 157.83 Q2203.02 162.761 2197.47 162.761 Q2191.89 162.761 2188.74 157.83 Q2185.57 152.923 2185.57 144.289 Q2185.57 135.632 2188.74 130.747 Q2191.89 125.84 2197.47 125.84 Z" fill="#000000" fill-rule="nonzero" fill-opacity="1" /><polyline clip-path="url(#clip920)" style="stroke:#e26f46; stroke-linecap:round; stroke-linejoin:round; stroke-width:4; stroke-opacity:1; fill:none" points="2011.2,196.789 2160.66,196.789 "/>
<path clip-path="url(#clip920)" d="M2204.83 197.634 L2190.08 197.634 Q2190.43 204.555 2192.03 207.495 Q2194.02 211.106 2197.47 211.106 Q2200.94 211.106 2202.86 207.471 Q2204.55 204.277 2204.83 197.634 M2204.76 193.698 Q2204.11 187.124 2202.86 184.81 Q2200.87 181.152 2197.47 181.152 Q2193.93 181.152 2192.05 184.763 Q2190.57 187.68 2190.13 193.698 L2204.76 193.698 M2197.47 177.68 Q2203.02 177.68 2206.2 182.587 Q2209.37 187.472 2209.37 196.129 Q2209.37 204.763 2206.2 209.67 Q2203.02 214.601 2197.47 214.601 Q2191.89 214.601 2188.74 209.67 Q2185.57 204.763 2185.57 196.129 Q2185.57 187.472 2188.74 182.587 Q2191.89 177.68 2197.47 177.68 Z" fill="#000000" fill-rule="nonzero" fill-opacity="1" /><path clip-path="url(#clip920)" d="M2216.89 218.05 L2230.73 218.05 L2230.73 221.476 L2216.89 221.476 L2216.89 218.05 Z" fill="#000000" fill-rule="nonzero" fill-opacity="1" /><path clip-path="url(#clip920)" d="M2244.34 180.782 L2244.34 188.143 L2253.12 188.143 L2253.12 191.453 L2244.34 191.453 L2244.34 205.527 Q2244.34 208.698 2245.2 209.601 Q2246.08 210.504 2248.74 210.504 L2253.12 210.504 L2253.12 214.069 L2248.74 214.069 Q2243.81 214.069 2241.94 212.24 Q2240.06 210.388 2240.06 205.527 L2240.06 191.453 L2236.94 191.453 L2236.94 188.143 L2240.06 188.143 L2240.06 180.782 L2244.34 180.782 Z" fill="#000000" fill-rule="nonzero" fill-opacity="1" /></svg>
