<?xml version="1.0" encoding="utf-8"?>
<svg xmlns="http://www.w3.org/2000/svg" xmlns:xlink="http://www.w3.org/1999/xlink" width="600" height="400" viewBox="0 0 2400 1600">
<defs>
  <clipPath id="clip020">
    <rect x="0" y="0" width="2400" height="1600"/>
  </clipPath>
</defs>
<path clip-path="url(#clip020)" d="M0 1600 L2400 1600 L2400 0 L0 0  Z" fill="#ffffff" fill-rule="evenodd" fill-opacity="1"/>
<defs>
  <clipPath id="clip021">
    <rect x="110" y="47" width="2243" height="1377"/>
  </clipPath>
</defs>
<path clip-path="url(#clip020)" d="M110.881 1423.18 L2352.76 1423.18 L2352.76 47.2441 L110.881 47.2441  Z" fill="#ffffff" fill-rule="evenodd" fill-opacity="1"/>
<polyline clip-path="url(#clip021)" style="stroke:#000000; stroke-linecap:round; stroke-linejoin:round; stroke-width:2; stroke-opacity:0.1; fill:none" points="110.881,1423.18 110.881,47.2441 "/>
<polyline clip-path="url(#clip021)" style="stroke:#000000; stroke-linecap:round; stroke-linejoin:round; stroke-width:2; stroke-opacity:0.1; fill:none" points="484.527,1423.18 484.527,47.2441 "/>
<polyline clip-path="url(#clip021)" style="stroke:#000000; stroke-linecap:round; stroke-linejoin:round; stroke-width:2; stroke-opacity:0.1; fill:none" points="858.173,1423.18 858.173,47.2441 "/>
<polyline clip-path="url(#clip021)" style="stroke:#000000; stroke-linecap:round; stroke-linejoin:round; stroke-width:2; stroke-opacity:0.1; fill:none" points="1231.82,1423.18 1231.82,47.2441 "/>
<polyline clip-path="url(#clip021)" style="stroke:#000000; stroke-linecap:round; stroke-linejoin:round; stroke-width:2; stroke-opacity:0.1; fill:none" points="1605.46,1423.18 1605.46,47.2441 "/>
<polyline clip-path="url(#clip021)" style="stroke:#000000; stroke-linecap:round; stroke-linejoin:round; stroke-width:2; stroke-opacity:0.1; fill:none" points="1979.11,1423.18 1979.11,47.2441 "/>
<polyline clip-path="url(#clip021)" style="stroke:#000000; stroke-linecap:round; stroke-linejoin:round; stroke-width:2; stroke-opacity:0.1; fill:none" points="2352.76,1423.18 2352.76,47.2441 "/>
<polyline clip-path="url(#clip021)" style="stroke:#000000; stroke-linecap:round; stroke-linejoin:round; stroke-width:2; stroke-opacity:0.1; fill:none" points="110.881,1384.24 2352.76,1384.24 "/>
<polyline clip-path="url(#clip021)" style="stroke:#000000; stroke-linecap:round; stroke-linejoin:round; stroke-width:2; stroke-opacity:0.1; fill:none" points="110.881,970.643 2352.76,970.643 "/>
<polyline clip-path="url(#clip021)" style="stroke:#000000; stroke-linecap:round; stroke-linejoin:round; stroke-width:2; stroke-opacity:0.1; fill:none" points="110.881,557.047 2352.76,557.047 "/>
<polyline clip-path="url(#clip021)" style="stroke:#000000; stroke-linecap:round; stroke-linejoin:round; stroke-width:2; stroke-opacity:0.1; fill:none" points="110.881,143.451 2352.76,143.451 "/>
<polyline clip-path="url(#clip020)" style="stroke:#000000; stroke-linecap:round; stroke-linejoin:round; stroke-width:4; stroke-opacity:1; fill:none" points="110.881,1423.18 2352.76,1423.18 "/>
<polyline clip-path="url(#clip020)" style="stroke:#000000; stroke-linecap:round; stroke-linejoin:round; stroke-width:4; stroke-opacity:1; fill:none" points="110.881,1423.18 110.881,1404.28 "/>
<polyline clip-path="url(#clip020)" style="stroke:#000000; stroke-linecap:round; stroke-linejoin:round; stroke-width:4; stroke-opacity:1; fill:none" points="484.527,1423.18 484.527,1404.28 "/>
<polyline clip-path="url(#clip020)" style="stroke:#000000; stroke-linecap:round; stroke-linejoin:round; stroke-width:4; stroke-opacity:1; fill:none" points="858.173,1423.18 858.173,1404.28 "/>
<polyline clip-path="url(#clip020)" style="stroke:#000000; stroke-linecap:round; stroke-linejoin:round; stroke-width:4; stroke-opacity:1; fill:none" points="1231.82,1423.18 1231.82,1404.28 "/>
<polyline clip-path="url(#clip020)" style="stroke:#000000; stroke-linecap:round; stroke-linejoin:round; stroke-width:4; stroke-opacity:1; fill:none" points="1605.46,1423.18 1605.46,1404.28 "/>
<polyline clip-path="url(#clip020)" style="stroke:#000000; stroke-linecap:round; stroke-linejoin:round; stroke-width:4; stroke-opacity:1; fill:none" points="1979.11,1423.18 1979.11,1404.28 "/>
<polyline clip-path="url(#clip020)" style="stroke:#000000; stroke-linecap:round; stroke-linejoin:round; stroke-width:4; stroke-opacity:1; fill:none" points="2352.76,1423.18 2352.76,1404.28 "/>
<path clip-path="url(#clip020)" d="M110.881 1454.1 Q107.27 1454.1 105.441 1457.66 Q103.636 1461.2 103.636 1468.33 Q103.636 1475.44 105.441 1479.01 Q107.27 1482.55 110.881 1482.55 Q114.515 1482.55 116.321 1479.01 Q118.149 1475.44 118.149 1468.33 Q118.149 1461.2 116.321 1457.66 Q114.515 1454.1 110.881 1454.1 M110.881 1450.39 Q116.691 1450.39 119.747 1455 Q122.825 1459.58 122.825 1468.33 Q122.825 1477.06 119.747 1481.67 Q116.691 1486.25 110.881 1486.25 Q105.071 1486.25 101.992 1481.67 Q98.9365 1477.06 98.9365 1468.33 Q98.9365 1459.58 101.992 1455 Q105.071 1450.39 110.881 1450.39 Z" fill="#000000" fill-rule="nonzero" fill-opacity="1" /><path clip-path="url(#clip020)" d="M463.3 1481.64 L479.619 1481.64 L479.619 1485.58 L457.675 1485.58 L457.675 1481.64 Q460.337 1478.89 464.92 1474.26 Q469.527 1469.61 470.707 1468.27 Q472.953 1465.74 473.832 1464.01 Q474.735 1462.25 474.735 1460.56 Q474.735 1457.8 472.791 1456.07 Q470.869 1454.33 467.768 1454.33 Q465.568 1454.33 463.115 1455.09 Q460.684 1455.86 457.906 1457.41 L457.906 1452.69 Q460.731 1451.55 463.184 1450.97 Q465.638 1450.39 467.675 1450.39 Q473.045 1450.39 476.24 1453.08 Q479.434 1455.77 479.434 1460.26 Q479.434 1462.39 478.624 1464.31 Q477.837 1466.2 475.73 1468.8 Q475.152 1469.47 472.05 1472.69 Q468.948 1475.88 463.3 1481.64 Z" fill="#000000" fill-rule="nonzero" fill-opacity="1" /><path clip-path="url(#clip020)" d="M499.434 1454.1 Q495.823 1454.1 493.994 1457.66 Q492.189 1461.2 492.189 1468.33 Q492.189 1475.44 493.994 1479.01 Q495.823 1482.55 499.434 1482.55 Q503.068 1482.55 504.874 1479.01 Q506.703 1475.44 506.703 1468.33 Q506.703 1461.2 504.874 1457.66 Q503.068 1454.1 499.434 1454.1 M499.434 1450.39 Q505.244 1450.39 508.3 1455 Q511.378 1459.58 511.378 1468.33 Q511.378 1477.06 508.3 1481.67 Q505.244 1486.25 499.434 1486.25 Q493.624 1486.25 490.545 1481.67 Q487.49 1477.06 487.49 1468.33 Q487.49 1459.58 490.545 1455 Q493.624 1450.39 499.434 1450.39 Z" fill="#000000" fill-rule="nonzero" fill-opacity="1" /><path clip-path="url(#clip020)" d="M846.344 1455.09 L834.538 1473.54 L846.344 1473.54 L846.344 1455.09 M845.117 1451.02 L850.997 1451.02 L850.997 1473.54 L855.927 1473.54 L855.927 1477.43 L850.997 1477.43 L850.997 1485.58 L846.344 1485.58 L846.344 1477.43 L830.742 1477.43 L830.742 1472.92 L845.117 1451.02 Z" fill="#000000" fill-rule="nonzero" fill-opacity="1" /><path clip-path="url(#clip020)" d="M873.659 1454.1 Q870.047 1454.1 868.219 1457.66 Q866.413 1461.2 866.413 1468.33 Q866.413 1475.44 868.219 1479.01 Q870.047 1482.55 873.659 1482.55 Q877.293 1482.55 879.098 1479.01 Q880.927 1475.44 880.927 1468.33 Q880.927 1461.2 879.098 1457.66 Q877.293 1454.1 873.659 1454.1 M873.659 1450.39 Q879.469 1450.39 882.524 1455 Q885.603 1459.58 885.603 1468.33 Q885.603 1477.06 882.524 1481.67 Q879.469 1486.25 873.659 1486.25 Q867.848 1486.25 864.77 1481.67 Q861.714 1477.06 861.714 1468.33 Q861.714 1459.58 864.77 1455 Q867.848 1450.39 873.659 1450.39 Z" fill="#000000" fill-rule="nonzero" fill-opacity="1" /><path clip-path="url(#clip020)" d="M1217.22 1466.44 Q1214.08 1466.44 1212.22 1468.59 Q1210.39 1470.74 1210.39 1474.49 Q1210.39 1478.22 1212.22 1480.39 Q1214.08 1482.55 1217.22 1482.55 Q1220.37 1482.55 1222.2 1480.39 Q1224.05 1478.22 1224.05 1474.49 Q1224.05 1470.74 1222.2 1468.59 Q1220.37 1466.44 1217.22 1466.44 M1226.51 1451.78 L1226.51 1456.04 Q1224.75 1455.21 1222.94 1454.77 Q1221.16 1454.33 1219.4 1454.33 Q1214.77 1454.33 1212.32 1457.45 Q1209.89 1460.58 1209.54 1466.9 Q1210.9 1464.89 1212.96 1463.82 Q1215.02 1462.73 1217.5 1462.73 Q1222.71 1462.73 1225.72 1465.9 Q1228.75 1469.05 1228.75 1474.49 Q1228.75 1479.82 1225.6 1483.03 Q1222.46 1486.25 1217.22 1486.25 Q1211.23 1486.25 1208.06 1481.67 Q1204.89 1477.06 1204.89 1468.33 Q1204.89 1460.14 1208.77 1455.28 Q1212.66 1450.39 1219.21 1450.39 Q1220.97 1450.39 1222.76 1450.74 Q1224.56 1451.09 1226.51 1451.78 Z" fill="#000000" fill-rule="nonzero" fill-opacity="1" /><path clip-path="url(#clip020)" d="M1246.81 1454.1 Q1243.2 1454.1 1241.37 1457.66 Q1239.56 1461.2 1239.56 1468.33 Q1239.56 1475.44 1241.37 1479.01 Q1243.2 1482.55 1246.81 1482.55 Q1250.44 1482.55 1252.25 1479.01 Q1254.08 1475.44 1254.08 1468.33 Q1254.08 1461.2 1252.25 1457.66 Q1250.44 1454.1 1246.81 1454.1 M1246.81 1450.39 Q1252.62 1450.39 1255.67 1455 Q1258.75 1459.58 1258.75 1468.33 Q1258.75 1477.06 1255.67 1481.67 Q1252.62 1486.25 1246.81 1486.25 Q1241 1486.25 1237.92 1481.67 Q1234.86 1477.06 1234.86 1468.33 Q1234.86 1459.58 1237.92 1455 Q1241 1450.39 1246.81 1450.39 Z" fill="#000000" fill-rule="nonzero" fill-opacity="1" /><path clip-path="url(#clip020)" d="M1590.34 1469.17 Q1587 1469.17 1585.08 1470.95 Q1583.18 1472.73 1583.18 1475.86 Q1583.18 1478.98 1585.08 1480.77 Q1587 1482.55 1590.34 1482.55 Q1593.67 1482.55 1595.59 1480.77 Q1597.51 1478.96 1597.51 1475.86 Q1597.51 1472.73 1595.59 1470.95 Q1593.69 1469.17 1590.34 1469.17 M1585.66 1467.18 Q1582.65 1466.44 1580.96 1464.38 Q1579.3 1462.32 1579.3 1459.35 Q1579.3 1455.21 1582.24 1452.8 Q1585.2 1450.39 1590.34 1450.39 Q1595.5 1450.39 1598.44 1452.8 Q1601.38 1455.21 1601.38 1459.35 Q1601.38 1462.32 1599.69 1464.38 Q1598.02 1466.44 1595.04 1467.18 Q1598.42 1467.96 1600.29 1470.26 Q1602.19 1472.55 1602.19 1475.86 Q1602.19 1480.88 1599.11 1483.57 Q1596.05 1486.25 1590.34 1486.25 Q1584.62 1486.25 1581.54 1483.57 Q1578.49 1480.88 1578.49 1475.86 Q1578.49 1472.55 1580.38 1470.26 Q1582.28 1467.96 1585.66 1467.18 M1583.95 1459.79 Q1583.95 1462.48 1585.61 1463.98 Q1587.3 1465.49 1590.34 1465.49 Q1593.35 1465.49 1595.04 1463.98 Q1596.75 1462.48 1596.75 1459.79 Q1596.75 1457.11 1595.04 1455.6 Q1593.35 1454.1 1590.34 1454.1 Q1587.3 1454.1 1585.61 1455.6 Q1583.95 1457.11 1583.95 1459.79 Z" fill="#000000" fill-rule="nonzero" fill-opacity="1" /><path clip-path="url(#clip020)" d="M1620.5 1454.1 Q1616.89 1454.1 1615.06 1457.66 Q1613.25 1461.2 1613.25 1468.33 Q1613.25 1475.44 1615.06 1479.01 Q1616.89 1482.55 1620.5 1482.55 Q1624.13 1482.55 1625.94 1479.01 Q1627.77 1475.44 1627.77 1468.33 Q1627.77 1461.2 1625.94 1457.66 Q1624.13 1454.1 1620.5 1454.1 M1620.5 1450.39 Q1626.31 1450.39 1629.36 1455 Q1632.44 1459.58 1632.44 1468.33 Q1632.44 1477.06 1629.36 1481.67 Q1626.31 1486.25 1620.5 1486.25 Q1614.69 1486.25 1611.61 1481.67 Q1608.55 1477.06 1608.55 1468.33 Q1608.55 1459.58 1611.61 1455 Q1614.69 1450.39 1620.5 1450.39 Z" fill="#000000" fill-rule="nonzero" fill-opacity="1" /><path clip-path="url(#clip020)" d="M1938.72 1481.64 L1946.36 1481.64 L1946.36 1455.28 L1938.05 1456.95 L1938.05 1452.69 L1946.31 1451.02 L1950.99 1451.02 L1950.99 1481.64 L1958.62 1481.64 L1958.62 1485.58 L1938.72 1485.58 L1938.72 1481.64 Z" fill="#000000" fill-rule="nonzero" fill-opacity="1" /><path clip-path="url(#clip020)" d="M1978.07 1454.1 Q1974.46 1454.1 1972.63 1457.66 Q1970.82 1461.2 1970.82 1468.33 Q1970.82 1475.44 1972.63 1479.01 Q1974.46 1482.55 1978.07 1482.55 Q1981.7 1482.55 1983.51 1479.01 Q1985.34 1475.44 1985.34 1468.33 Q1985.34 1461.2 1983.51 1457.66 Q1981.7 1454.1 1978.07 1454.1 M1978.07 1450.39 Q1983.88 1450.39 1986.93 1455 Q1990.01 1459.58 1990.01 1468.33 Q1990.01 1477.06 1986.93 1481.67 Q1983.88 1486.25 1978.07 1486.25 Q1972.26 1486.25 1969.18 1481.67 Q1966.12 1477.06 1966.12 1468.33 Q1966.12 1459.58 1969.18 1455 Q1972.26 1450.39 1978.07 1450.39 Z" fill="#000000" fill-rule="nonzero" fill-opacity="1" /><path clip-path="url(#clip020)" d="M2008.23 1454.1 Q2004.62 1454.1 2002.79 1457.66 Q2000.98 1461.2 2000.98 1468.33 Q2000.98 1475.44 2002.79 1479.01 Q2004.62 1482.55 2008.23 1482.55 Q2011.86 1482.55 2013.67 1479.01 Q2015.5 1475.44 2015.5 1468.33 Q2015.5 1461.2 2013.67 1457.66 Q2011.86 1454.1 2008.23 1454.1 M2008.23 1450.39 Q2014.04 1450.39 2017.1 1455 Q2020.17 1459.58 2020.17 1468.33 Q2020.17 1477.06 2017.1 1481.67 Q2014.04 1486.25 2008.23 1486.25 Q2002.42 1486.25 1999.34 1481.67 Q1996.29 1477.06 1996.29 1468.33 Q1996.29 1459.58 1999.34 1455 Q2002.42 1450.39 2008.23 1450.39 Z" fill="#000000" fill-rule="nonzero" fill-opacity="1" /><path clip-path="url(#clip020)" d="M2312.36 1481.64 L2320 1481.64 L2320 1455.28 L2311.69 1456.95 L2311.69 1452.69 L2319.96 1451.02 L2324.63 1451.02 L2324.63 1481.64 L2332.27 1481.64 L2332.27 1485.58 L2312.36 1485.58 L2312.36 1481.64 Z" fill="#000000" fill-rule="nonzero" fill-opacity="1" /><path clip-path="url(#clip020)" d="M2345.74 1481.64 L2362.06 1481.64 L2362.06 1485.58 L2340.12 1485.58 L2340.12 1481.64 Q2342.78 1478.89 2347.36 1474.26 Q2351.97 1469.61 2353.15 1468.27 Q2355.39 1465.74 2356.27 1464.01 Q2357.18 1462.25 2357.18 1460.56 Q2357.18 1457.8 2355.23 1456.07 Q2353.31 1454.33 2350.21 1454.33 Q2348.01 1454.33 2345.56 1455.09 Q2343.13 1455.86 2340.35 1457.41 L2340.35 1452.69 Q2343.17 1451.55 2345.63 1450.97 Q2348.08 1450.39 2350.12 1450.39 Q2355.49 1450.39 2358.68 1453.08 Q2361.88 1455.77 2361.88 1460.26 Q2361.88 1462.39 2361.07 1464.31 Q2360.28 1466.2 2358.17 1468.8 Q2357.59 1469.47 2354.49 1472.69 Q2351.39 1475.88 2345.74 1481.64 Z" fill="#000000" fill-rule="nonzero" fill-opacity="1" /><path clip-path="url(#clip020)" d="M2381.88 1454.1 Q2378.27 1454.1 2376.44 1457.66 Q2374.63 1461.2 2374.63 1468.33 Q2374.63 1475.44 2376.44 1479.01 Q2378.27 1482.55 2381.88 1482.55 Q2385.51 1482.55 2387.32 1479.01 Q2389.14 1475.44 2389.14 1468.33 Q2389.14 1461.2 2387.32 1457.66 Q2385.51 1454.1 2381.88 1454.1 M2381.88 1450.39 Q2387.69 1450.39 2390.74 1455 Q2393.82 1459.58 2393.82 1468.33 Q2393.82 1477.06 2390.74 1481.67 Q2387.69 1486.25 2381.88 1486.25 Q2376.07 1486.25 2372.99 1481.67 Q2369.93 1477.06 2369.93 1468.33 Q2369.93 1459.58 2372.99 1455 Q2376.07 1450.39 2381.88 1450.39 Z" fill="#000000" fill-rule="nonzero" fill-opacity="1" /><path clip-path="url(#clip020)" d="M1230.88 1522.27 L1230.88 1532.4 L1242.94 1532.4 L1242.94 1536.95 L1230.88 1536.95 L1230.88 1556.3 Q1230.88 1560.66 1232.06 1561.9 Q1233.27 1563.14 1236.93 1563.14 L1242.94 1563.14 L1242.94 1568.04 L1236.93 1568.04 Q1230.15 1568.04 1227.57 1565.53 Q1224.99 1562.98 1224.99 1556.3 L1224.99 1536.95 L1220.69 1536.95 L1220.69 1532.4 L1224.99 1532.4 L1224.99 1522.27 L1230.88 1522.27 Z" fill="#000000" fill-rule="nonzero" fill-opacity="1" /><polyline clip-path="url(#clip020)" style="stroke:#000000; stroke-linecap:round; stroke-linejoin:round; stroke-width:4; stroke-opacity:1; fill:none" points="110.881,1423.18 110.881,47.2441 "/>
<polyline clip-path="url(#clip020)" style="stroke:#000000; stroke-linecap:round; stroke-linejoin:round; stroke-width:4; stroke-opacity:1; fill:none" points="110.881,1384.24 129.779,1384.24 "/>
<polyline clip-path="url(#clip020)" style="stroke:#000000; stroke-linecap:round; stroke-linejoin:round; stroke-width:4; stroke-opacity:1; fill:none" points="110.881,970.643 129.779,970.643 "/>
<polyline clip-path="url(#clip020)" style="stroke:#000000; stroke-linecap:round; stroke-linejoin:round; stroke-width:4; stroke-opacity:1; fill:none" points="110.881,557.047 129.779,557.047 "/>
<polyline clip-path="url(#clip020)" style="stroke:#000000; stroke-linecap:round; stroke-linejoin:round; stroke-width:4; stroke-opacity:1; fill:none" points="110.881,143.451 129.779,143.451 "/>
<path clip-path="url(#clip020)" d="M62.9365 1370.04 Q59.3254 1370.04 57.4967 1373.6 Q55.6912 1377.14 55.6912 1384.27 Q55.6912 1391.38 57.4967 1394.94 Q59.3254 1398.49 62.9365 1398.49 Q66.5707 1398.49 68.3763 1394.94 Q70.205 1391.38 70.205 1384.27 Q70.205 1377.14 68.3763 1373.6 Q66.5707 1370.04 62.9365 1370.04 M62.9365 1366.33 Q68.7467 1366.33 71.8022 1370.94 Q74.8809 1375.52 74.8809 1384.27 Q74.8809 1393 71.8022 1397.61 Q68.7467 1402.19 62.9365 1402.19 Q57.1264 1402.19 54.0477 1397.61 Q50.9921 1393 50.9921 1384.27 Q50.9921 1375.52 54.0477 1370.94 Q57.1264 1366.33 62.9365 1366.33 Z" fill="#000000" fill-rule="nonzero" fill-opacity="1" /><path clip-path="url(#clip020)" d="M54.9736 983.987 L62.6124 983.987 L62.6124 957.622 L54.3023 959.288 L54.3023 955.029 L62.5661 953.363 L67.242 953.363 L67.242 983.987 L74.8809 983.987 L74.8809 987.923 L54.9736 987.923 L54.9736 983.987 Z" fill="#000000" fill-rule="nonzero" fill-opacity="1" /><path clip-path="url(#clip020)" d="M58.5615 570.392 L74.8809 570.392 L74.8809 574.327 L52.9366 574.327 L52.9366 570.392 Q55.5986 567.637 60.1819 563.008 Q64.7883 558.355 65.9689 557.012 Q68.2143 554.489 69.0939 552.753 Q69.9967 550.994 69.9967 549.304 Q69.9967 546.549 68.0522 544.813 Q66.1309 543.077 63.0291 543.077 Q60.83 543.077 58.3763 543.841 Q55.9458 544.605 53.168 546.156 L53.168 541.434 Q55.9921 540.299 58.4458 539.721 Q60.8995 539.142 62.9365 539.142 Q68.3068 539.142 71.5013 541.827 Q74.6957 544.512 74.6957 549.003 Q74.6957 551.133 73.8855 553.054 Q73.0985 554.952 70.992 557.545 Q70.4133 558.216 67.3115 561.434 Q64.2096 564.628 58.5615 570.392 Z" fill="#000000" fill-rule="nonzero" fill-opacity="1" /><path clip-path="url(#clip020)" d="M67.7513 142.097 Q71.1078 142.815 72.9827 145.083 Q74.8809 147.352 74.8809 150.685 Q74.8809 155.801 71.3624 158.602 Q67.8439 161.403 61.3624 161.403 Q59.1865 161.403 56.8717 160.963 Q54.5801 160.546 52.1264 159.69 L52.1264 155.176 Q54.0708 156.31 56.3856 156.889 Q58.7004 157.468 61.2236 157.468 Q65.6217 157.468 67.9133 155.731 Q70.2281 153.995 70.2281 150.685 Q70.2281 147.63 68.0754 145.917 Q65.9457 144.181 62.1263 144.181 L58.0986 144.181 L58.0986 140.338 L62.3115 140.338 Q65.7606 140.338 67.5893 138.972 Q69.418 137.583 69.418 134.991 Q69.418 132.329 67.5198 130.917 Q65.6448 129.482 62.1263 129.482 Q60.205 129.482 58.006 129.898 Q55.8069 130.315 53.168 131.195 L53.168 127.028 Q55.8301 126.287 58.1449 125.917 Q60.4828 125.546 62.543 125.546 Q67.867 125.546 70.9689 127.977 Q74.0707 130.384 74.0707 134.505 Q74.0707 137.375 72.4272 139.366 Q70.7837 141.333 67.7513 142.097 Z" fill="#000000" fill-rule="nonzero" fill-opacity="1" /><polyline clip-path="url(#clip021)" style="stroke:#009af9; stroke-linecap:round; stroke-linejoin:round; stroke-width:4; stroke-opacity:1; fill:none" points="110.881,1384.24 112.782,1378.36 114.684,1362.82 116.585,1340.47 118.487,1313.62 120.388,1283.87 122.29,1252.31 124.191,1219.65 126.093,1186.37 127.994,1152.82 129.896,1119.28 131.797,1085.94 133.699,1052.99 135.6,1020.53 137.502,988.685 139.403,957.531 141.305,927.133 143.206,897.56 145.108,868.86 147.009,841.063 148.911,814.216 150.813,788.342 152.714,763.453 154.616,739.586 156.517,716.763 158.419,694.99 160.32,674.291 162.222,654.677 164.123,636.119 166.025,618.593 167.926,602.071 169.828,586.489 171.729,571.784 173.631,557.895 175.532,544.751 177.434,532.297 179.335,520.477 181.237,509.229 183.138,498.499 185.04,488.252 186.941,478.449 188.843,469.05 190.744,460.019 192.646,451.333 194.547,442.965 196.449,434.889 198.35,427.078 200.252,419.515 202.153,412.183 204.055,405.067 205.956,398.145 207.858,391.405 209.759,384.837 211.661,378.43 213.562,372.172 215.464,366.052 217.365,360.061 219.267,354.195 221.168,348.448 223.07,342.812 224.971,337.28 226.873,331.849 228.774,326.515 230.676,321.275 232.577,316.126 234.479,311.065 236.38,306.088 238.282,301.194 240.183,296.382 242.085,291.65 243.986,286.998 245.888,282.423 247.789,277.925 249.691,273.504 251.592,269.158 253.494,264.887 255.395,260.691 257.297,256.569 259.198,252.521 261.1,248.547 263.001,244.647 264.903,240.821 266.804,237.066 268.706,233.382 270.607,229.769 272.509,226.227 274.41,222.757 276.312,219.358 278.213,216.031 280.115,212.773 282.016,209.583 283.918,206.461 285.819,203.406 287.721,200.417 289.622,197.495 291.524,194.639 293.425,191.848 295.327,189.119 297.228,186.453 299.13,183.848 301.031,181.303 302.933,178.817 304.834,176.392 306.736,174.025 308.637,171.715 310.539,169.461 312.44,167.261 314.342,165.114 316.243,163.02 318.145,160.977 320.046,158.986 321.948,157.045 323.85,155.153 325.751,153.308 327.653,151.51 329.554,149.756 331.456,148.048 333.357,146.382 335.259,144.76 337.16,143.179 339.062,141.64 340.963,140.141 342.865,138.681 344.766,137.258 346.668,135.872 348.569,134.522 350.471,133.207 352.372,131.927 354.274,130.682 356.175,129.469 358.077,128.288 359.978,127.139 361.88,126.02 363.781,124.93 365.683,123.869 367.584,122.837 369.486,121.832 371.387,120.854 373.289,119.903 375.19,118.977 377.092,118.076 378.993,117.199 380.895,116.346 382.796,115.516 384.698,114.708 386.599,113.921 388.501,113.156 390.402,112.412 392.304,111.688 394.205,110.984 396.107,110.3 398.008,109.633 399.91,108.985 401.811,108.354 403.713,107.741 405.614,107.144 407.516,106.563 409.417,105.999 411.319,105.449 413.22,104.915 415.122,104.396 417.023,103.891 418.925,103.4 420.826,102.922 422.728,102.457 424.629,102.005 426.531,101.566 428.432,101.138 430.334,100.722 432.235,100.318 434.137,99.925 436.038,99.543 437.94,99.1714 439.841,98.8101 441.743,98.4587 443.644,98.1169 445.546,97.7846 447.447,97.4613 449.349,97.147 451.25,96.8414 453.152,96.5443 455.053,96.2556 456.955,95.9749 458.856,95.702 460.758,95.4367 462.659,95.1787 464.561,94.9278 466.462,94.6838 468.364,94.4465 470.265,94.2158 472.167,93.9915 474.068,93.7734 475.97,93.5614 477.871,93.3555 479.773,93.1553 481.674,92.9607 483.576,92.7715 485.477,92.5875 487.379,92.4086 489.28,92.2346 491.182,92.0655 493.083,91.901 494.985,91.7411 496.887,91.5857 498.788,91.4346 500.69,91.2879 502.591,91.1452 504.493,91.0066 506.394,90.8718 508.296,90.7408 510.197,90.6133 512.099,90.4894 514,90.369 515.902,90.2518 517.803,90.1379 519.705,90.0272 521.606,89.9196 523.508,89.8151 525.409,89.7136 527.311,89.6149 529.212,89.5189 531.114,89.4256 533.015,89.3349 534.917,89.2468 536.818,89.161 538.72,89.0776 540.621,88.9966 542.523,88.9178 544.424,88.8412 546.326,88.7668 548.227,88.6945 550.129,88.6243 552.03,88.556 553.932,88.4896 555.833,88.4251 557.735,88.3624 559.636,88.3014 561.538,88.2421 563.439,88.1844 565.341,88.1284 567.242,88.0738 569.144,88.0209 571.045,87.9694 572.947,87.9195 574.848,87.8709 576.75,87.8238 578.651,87.7779 580.553,87.7333 582.454,87.6899 584.356,87.6477 586.257,87.6067 588.159,87.5668 590.06,87.5281 591.962,87.4904 593.863,87.4538 595.765,87.4182 597.666,87.3837 599.568,87.3502 601.469,87.3176 603.371,87.2859 605.272,87.255 607.174,87.2251 609.075,87.1959 610.977,87.1676 612.878,87.14 614.78,87.1132 616.681,87.0871 618.583,87.0618 620.484,87.0373 622.386,87.0134 624.287,86.9903 626.189,86.9677 628.09,86.9458 629.992,86.9245 631.893,86.9038 633.795,86.8837 635.696,86.864 637.598,86.845 639.499,86.8265 641.401,86.8085 643.302,86.791 645.204,86.774 647.105,86.7575 649.007,86.7415 650.908,86.726 652.81,86.7109 654.711,86.6961 656.613,86.6818 658.514,86.6679 660.416,86.6543 662.317,86.6412 664.219,86.6284 666.121,86.6159 668.022,86.6038 669.924,86.5921 671.825,86.5808 673.727,86.5697 675.628,86.559 677.53,86.5485 679.431,86.5383 681.333,86.5284 683.234,86.5188 685.136,86.5095 687.037,86.5003 688.939,86.4915 690.84,86.4829 692.742,86.4745 694.643,86.4665 696.545,86.4586 698.446,86.451 700.348,86.4436 702.249,86.4364 704.151,86.4293 706.052,86.4225 707.954,86.4158 709.855,86.4094 711.757,86.4031 713.658,86.3969 715.56,86.391 717.461,86.3852 719.363,86.3796 721.264,86.3742 723.166,86.369 725.067,86.3638 726.969,86.3589 728.87,86.354 730.772,86.3493 732.673,86.3447 734.575,86.3402 736.476,86.3359 738.378,86.3316 740.279,86.3275 742.181,86.3235 744.082,86.3197 745.984,86.3159 747.885,86.3123 749.787,86.3088 751.688,86.3053 753.59,86.302 755.491,86.2987 757.393,86.2956 759.294,86.2924 761.196,86.2894 763.097,86.2865 764.999,86.2836 766.9,86.2809 768.802,86.2782 770.703,86.2757 772.605,86.2732 774.506,86.2707 776.408,86.2684 778.309,86.2661 780.211,86.2638 782.112,86.2616 784.014,86.2595 785.915,86.2574 787.817,86.2553 789.718,86.2533 791.62,86.2514 793.521,86.2496 795.423,86.2478 797.324,86.2461 799.226,86.2445 801.127,86.2428 803.029,86.2412 804.93,86.2397 806.832,86.2382 808.733,86.2367 810.635,86.2352 812.536,86.2338 814.438,86.2324 816.339,86.2311 818.241,86.2298 820.142,86.2286 822.044,86.2274 823.945,86.2263 825.847,86.2252 827.748,86.2241 829.65,86.223 831.551,86.222 833.453,86.2209 835.354,86.2199 837.256,86.2189 839.158,86.218 841.059,86.2171 842.961,86.2162 844.862,86.2153 846.764,86.2145 848.665,86.2138 850.567,86.213 852.468,86.2122 854.37,86.2115 856.271,86.2108 858.173,86.2101 860.074,86.2093 861.976,86.2087 863.877,86.208 865.779,86.2073 867.68,86.2067 869.582,86.2062 871.483,86.2056 873.385,86.2051 875.286,86.2046 877.188,86.2041 879.089,86.2036 880.991,86.203 882.892,86.2025 884.794,86.202 886.695,86.2016 888.597,86.2011 890.498,86.2006 892.4,86.2002 894.301,86.1998 896.203,86.1995 898.104,86.1991 900.006,86.1988 901.907,86.1984 903.809,86.1981 905.71,86.1977 907.612,86.1974 909.513,86.197 911.415,86.1967 913.316,86.1963 915.218,86.196 917.119,86.1957 919.021,86.1955 920.922,86.1952 922.824,86.195 924.725,86.1947 926.627,86.1945 928.528,86.1943 930.43,86.194 932.331,86.1938 934.233,86.1935 936.134,86.1933 938.036,86.193 939.937,86.1928 941.839,86.1926 943.74,86.1924 945.642,86.1923 947.543,86.1921 949.445,86.192 951.346,86.1918 953.248,86.1916 955.149,86.1915 957.051,86.1913 958.952,86.1911 960.854,86.1909 962.755,86.1908 964.657,86.1906 966.558,86.1905 968.46,86.1903 970.361,86.1902 972.263,86.1901 974.164,86.19 976.066,86.1899 977.967,86.1898 979.869,86.1897 981.77,86.1896 983.672,86.1895 985.573,86.1893 987.475,86.1892 989.376,86.1891 991.278,86.189 993.179,86.1889 995.081,86.1888 996.982,86.1888 998.884,86.1887 1000.79,86.1887 1002.69,86.1886 1004.59,86.1885 1006.49,86.1884 1008.39,86.1883 1010.29,86.1882 1012.19,86.1881 1014.1,86.188 1016,86.188 1017.9,86.1879 1019.8,86.1879 1021.7,86.1878 1023.6,86.1878 1025.51,86.1878 1027.41,86.1877 1029.31,86.1877 1031.21,86.1876 1033.11,86.1875 1035.01,86.1875 1036.91,86.1874 1038.82,86.1873 1040.72,86.1873 1042.62,86.1872 1044.52,86.1872 1046.42,86.1872 1048.32,86.1872 1050.22,86.1871 1052.13,86.1871 1054.03,86.1871 1055.93,86.187 1057.83,86.187 1059.73,86.1869 1061.63,86.1869 1063.54,86.1868 1065.44,86.1868 1067.34,86.1867 1069.24,86.1867 1071.14,86.1867 1073.04,86.1867 1074.94,86.1867 1076.85,86.1867 1078.75,86.1867 1080.65,86.1867 1082.55,86.1866 1084.45,86.1866 1086.35,86.1865 1088.25,86.1865 1090.16,86.1864 1092.06,86.1864 1093.96,86.1864 1095.86,86.1864 1097.76,86.1864 1099.66,86.1864 1101.57,86.1864 1103.47,86.1864 1105.37,86.1864 1107.27,86.1864 1109.17,86.1863 1111.07,86.1863 1112.97,86.1862 1114.88,86.1862 1116.78,86.1862 1118.68,86.1862 1120.58,86.1862 1122.48,86.1862 1124.38,86.1862 1126.28,86.1862 1128.19,86.1862 1130.09,86.1862 1131.99,86.1862 1133.89,86.1861 1135.79,86.1861 1137.69,86.1861 1139.6,86.186 1141.5,86.186 1143.4,86.186 1145.3,86.186 1147.2,86.1861 1149.1,86.1861 1151,86.1861 1152.91,86.1861 1154.81,86.1861 1156.71,86.1861 1158.61,86.186 1160.51,86.186 1162.41,86.186 1164.31,86.1859 1166.22,86.1859 1168.12,86.1859 1170.02,86.1859 1171.92,86.186 1173.82,86.186 1175.72,86.186 1177.63,86.186 1179.53,86.186 1181.43,86.186 1183.33,86.1859 1185.23,86.1859 1187.13,86.1859 1189.03,86.1859 1190.94,86.1858 1192.84,86.1858 1194.74,86.1859 1196.64,86.1859 1198.54,86.1859 1200.44,86.1859 1202.35,86.1859 1204.25,86.1859 1206.15,86.1859 1208.05,86.1859 1209.95,86.1859 1211.85,86.1858 1213.75,86.1858 1215.66,86.1858 1217.56,86.1858 1219.46,86.1858 1221.36,86.1858 1223.26,86.1859 1225.16,86.1859 1227.06,86.1859 1228.97,86.1859 1230.87,86.1859 1232.77,86.1858 1234.67,86.1858 1236.57,86.1858 1238.47,86.1858 1240.38,86.1858 1242.28,86.1858 1244.18,86.1858 1246.08,86.1858 1247.98,86.1858 1249.88,86.1858 1251.78,86.1859 1253.69,86.1859 1255.59,86.1858 1257.49,86.1858 1259.39,86.1858 1261.29,86.1858 1263.19,86.1857 1265.09,86.1857 1267,86.1857 1268.9,86.1858 1270.8,86.1858 1272.7,86.1858 1274.6,86.1858 1276.5,86.1858 1278.41,86.1858 1280.31,86.1858 1282.21,86.1858 1284.11,86.1858 1286.01,86.1858 1287.91,86.1857 1289.81,86.1857 1291.72,86.1857 1293.62,86.1857 1295.52,86.1858 1297.42,86.1858 1299.32,86.1858 1301.22,86.1858 1303.12,86.1858 1305.03,86.1858 1306.93,86.1858 1308.83,86.1858 1310.73,86.1857 1312.63,86.1857 1314.53,86.1857 1316.44,86.1857 1318.34,86.1857 1320.24,86.1857 1322.14,86.1858 1324.04,86.1858 1325.94,86.1858 1327.84,86.1858 1329.75,86.1858 1331.65,86.1858 1333.55,86.1858 1335.45,86.1857 1337.35,86.1857 1339.25,86.1857 1341.15,86.1857 1343.06,86.1857 1344.96,86.1857 1346.86,86.1858 1348.76,86.1858 1350.66,86.1858 1352.56,86.1858 1354.47,86.1858 1356.37,86.1858 1358.27,86.1858 1360.17,86.1857 1362.07,86.1857 1363.97,86.1857 1365.87,86.1857 1367.78,86.1857 1369.68,86.1857 1371.58,86.1857 1373.48,86.1858 1375.38,86.1858 1377.28,86.1858 1379.19,86.1858 1381.09,86.1858 1382.99,86.1858 1384.89,86.1857 1386.79,86.1857 1388.69,86.1857 1390.59,86.1857 1392.5,86.1857 1394.4,86.1857 1396.3,86.1857 1398.2,86.1858 1400.1,86.1858 1402,86.1858 1403.9,86.1858 1405.81,86.1858 1407.71,86.1858 1409.61,86.1857 1411.51,86.1857 1413.41,86.1857 1415.31,86.1857 1417.22,86.1857 1419.12,86.1857 1421.02,86.1857 1422.92,86.1858 1424.82,86.1858 1426.72,86.1858 1428.62,86.1858 1430.53,86.1858 1432.43,86.1858 1434.33,86.1857 1436.23,86.1857 1438.13,86.1857 1440.03,86.1857 1441.93,86.1857 1443.84,86.1857 1445.74,86.1857 1447.64,86.1858 1449.54,86.1858 1451.44,86.1858 1453.34,86.1858 1455.25,86.1858 1457.15,86.1858 1459.05,86.1857 1460.95,86.1857 1462.85,86.1857 1464.75,86.1857 1466.65,86.1857 1468.56,86.1857 1470.46,86.1857 1472.36,86.1858 1474.26,86.1858 1476.16,86.1858 1478.06,86.1858 1479.96,86.1858 1481.87,86.1858 1483.77,86.1857 1485.67,86.1857 1487.57,86.1857 1489.47,86.1857 1491.37,86.1857 1493.28,86.1857 1495.18,86.1857 1497.08,86.1857 1498.98,86.1858 1500.88,86.1858 1502.78,86.1858 1504.68,86.1858 1506.59,86.1858 1508.49,86.1857 1510.39,86.1857 1512.29,86.1857 1514.19,86.1857 1516.09,86.1857 1517.99,86.1857 1519.9,86.1857 1521.8,86.1857 1523.7,86.1858 1525.6,86.1858 1527.5,86.1858 1529.4,86.1858 1531.31,86.1858 1533.21,86.1858 1535.11,86.1857 1537.01,86.1857 1538.91,86.1857 1540.81,86.1857 1542.71,86.1857 1544.62,86.1857 1546.52,86.1857 1548.42,86.1858 1550.32,86.1858 1552.22,86.1858 1554.12,86.1858 1556.03,86.1858 1557.93,86.1858 1559.83,86.1857 1561.73,86.1857 1563.63,86.1857 1565.53,86.1857 1567.43,86.1857 1569.34,86.1857 1571.24,86.1857 1573.14,86.1858 1575.04,86.1858 1576.94,86.1858 1578.84,86.1858 1580.74,86.1858 1582.65,86.1858 1584.55,86.1857 1586.45,86.1857 1588.35,86.1857 1590.25,86.1857 1592.15,86.1857 1594.06,86.1857 1595.96,86.1857 1597.86,86.1858 1599.76,86.1858 1601.66,86.1858 1603.56,86.1858 1605.46,86.1858 1607.37,86.1858 1609.27,86.1857 1611.17,86.1857 1613.07,86.1857 1614.97,86.1857 1616.87,86.1857 1618.77,86.1857 1620.68,86.1857 1622.58,86.1858 1624.48,86.1858 1626.38,86.1858 1628.28,86.1858 1630.18,86.1858 1632.09,86.1858 1633.99,86.1857 1635.89,86.1857 1637.79,86.1857 1639.69,86.1857 1641.59,86.1857 1643.49,86.1857 1645.4,86.1857 1647.3,86.1858 1649.2,86.1858 1651.1,86.1858 1653,86.1858 1654.9,86.1858 1656.8,86.1858 1658.71,86.1857 1660.61,86.1857 1662.51,86.1857 1664.41,86.1857 1666.31,86.1857 1668.21,86.1857 1670.12,86.1857 1672.02,86.1858 1673.92,86.1858 1675.82,86.1858 1677.72,86.1858 1679.62,86.1858 1681.52,86.1858 1683.43,86.1857 1685.33,86.1857 1687.23,86.1857 1689.13,86.1857 1691.03,86.1857 1692.93,86.1857 1694.83,86.1857 1696.74,86.1857 1698.64,86.1858 1700.54,86.1858 1702.44,86.1858 1704.34,86.1858 1706.24,86.1858 1708.15,86.1857 1710.05,86.1857 1711.95,86.1857 1713.85,86.1857 1715.75,86.1857 1717.65,86.1857 1719.55,86.1857 1721.46,86.1857 1723.36,86.1858 1725.26,86.1858 1727.16,86.1858 1729.06,86.1858 1730.96,86.1858 1732.87,86.1858 1734.77,86.1857 1736.67,86.1857 1738.57,86.1857 1740.47,86.1857 1742.37,86.1857 1744.27,86.1857 1746.18,86.1857 1748.08,86.1858 1749.98,86.1858 1751.88,86.1858 1753.78,86.1858 1755.68,86.1858 1757.58,86.1858 1759.49,86.1857 1761.39,86.1857 1763.29,86.1857 1765.19,86.1857 1767.09,86.1857 1768.99,86.1857 1770.9,86.1857 1772.8,86.1858 1774.7,86.1858 1776.6,86.1858 1778.5,86.1858 1780.4,86.1858 1782.3,86.1858 1784.21,86.1857 1786.11,86.1857 1788.01,86.1857 1789.91,86.1857 1791.81,86.1857 1793.71,86.1857 1795.61,86.1857 1797.52,86.1858 1799.42,86.1858 1801.32,86.1858 1803.22,86.1858 1805.12,86.1858 1807.02,86.1858 1808.93,86.1857 1810.83,86.1857 1812.73,86.1857 1814.63,86.1857 1816.53,86.1857 1818.43,86.1857 1820.33,86.1857 1822.24,86.1858 1824.14,86.1858 1826.04,86.1858 1827.94,86.1858 1829.84,86.1858 1831.74,86.1858 1833.64,86.1857 1835.55,86.1857 1837.45,86.1857 1839.35,86.1857 1841.25,86.1857 1843.15,86.1857 1845.05,86.1857 1846.96,86.1858 1848.86,86.1858 1850.76,86.1858 1852.66,86.1858 1854.56,86.1858 1856.46,86.1858 1858.36,86.1857 1860.27,86.1857 1862.17,86.1857 1864.07,86.1857 1865.97,86.1857 1867.87,86.1857 1869.77,86.1857 1871.68,86.1857 1873.58,86.1858 1875.48,86.1858 1877.38,86.1858 1879.28,86.1858 1881.18,86.1858 1883.08,86.1857 1884.99,86.1857 1886.89,86.1857 1888.79,86.1857 1890.69,86.1857 1892.59,86.1857 1894.49,86.1857 1896.39,86.1857 1898.3,86.1858 1900.2,86.1858 1902.1,86.1858 1904,86.1858 1905.9,86.1858 1907.8,86.1857 1909.71,86.1857 1911.61,86.1857 1913.51,86.1857 1915.41,86.1857 1917.31,86.1857 1919.21,86.1857 1921.11,86.1857 1923.02,86.1858 1924.92,86.1858 1926.82,86.1858 1928.72,86.1858 1930.62,86.1858 1932.52,86.1858 1934.42,86.1857 1936.33,86.1857 1938.23,86.1857 1940.13,86.1857 1942.03,86.1857 1943.93,86.1857 1945.83,86.1857 1947.74,86.1858 1949.64,86.1858 1951.54,86.1858 1953.44,86.1858 1955.34,86.1858 1957.24,86.1858 1959.14,86.1857 1961.05,86.1857 1962.95,86.1857 1964.85,86.1857 1966.75,86.1857 1968.65,86.1857 1970.55,86.1857 1972.45,86.1858 1974.36,86.1858 1976.26,86.1858 1978.16,86.1858 1980.06,86.1858 1981.96,86.1858 1983.86,86.1857 1985.77,86.1857 1987.67,86.1857 1989.57,86.1857 1991.47,86.1857 1993.37,86.1857 1995.27,86.1857 1997.17,86.1858 1999.08,86.1858 2000.98,86.1858 2002.88,86.1858 2004.78,86.1858 2006.68,86.1858 2008.58,86.1857 2010.48,86.1857 2012.39,86.1857 2014.29,86.1857 2016.19,86.1857 2018.09,86.1857 2019.99,86.1857 2021.89,86.1858 2023.8,86.1858 2025.7,86.1858 2027.6,86.1858 2029.5,86.1858 2031.4,86.1858 2033.3,86.1857 2035.2,86.1857 2037.11,86.1857 2039.01,86.1857 2040.91,86.1857 2042.81,86.1857 2044.71,86.1857 2046.61,86.1858 2048.52,86.1858 2050.42,86.1858 2052.32,86.1858 2054.22,86.1858 2056.12,86.1858 2058.02,86.1857 2059.92,86.1857 2061.83,86.1857 2063.73,86.1857 2065.63,86.1857 2067.53,86.1857 2069.43,86.1857 2071.33,86.1857 2073.23,86.1858 2075.14,86.1858 2077.04,86.1858 2078.94,86.1858 2080.84,86.1858 2082.74,86.1857 2084.64,86.1857 2086.55,86.1857 2088.45,86.1857 2090.35,86.1857 2092.25,86.1857 2094.15,86.1857 2096.05,86.1857 2097.95,86.1858 2099.86,86.1858 2101.76,86.1858 2103.66,86.1858 2105.56,86.1858 2107.46,86.1857 2109.36,86.1857 2111.26,86.1857 2113.17,86.1857 2115.07,86.1857 2116.97,86.1857 2118.87,86.1857 2120.77,86.1857 2122.67,86.1858 2124.58,86.1858 2126.48,86.1858 2128.38,86.1858 2130.28,86.1858 2132.18,86.1858 2134.08,86.1857 2135.98,86.1857 2137.89,86.1857 2139.79,86.1857 2141.69,86.1857 2143.59,86.1857 2145.49,86.1857 2147.39,86.1858 2149.29,86.1858 2151.2,86.1858 2153.1,86.1858 2155,86.1858 2156.9,86.1858 2158.8,86.1857 2160.7,86.1857 2162.61,86.1857 2164.51,86.1857 2166.41,86.1857 2168.31,86.1857 2170.21,86.1857 2172.11,86.1858 2174.01,86.1858 2175.92,86.1858 2177.82,86.1858 2179.72,86.1858 2181.62,86.1858 2183.52,86.1857 2185.42,86.1857 2187.32,86.1857 2189.23,86.1857 2191.13,86.1857 2193.03,86.1857 2194.93,86.1857 2196.83,86.1858 2198.73,86.1858 2200.64,86.1858 2202.54,86.1858 2204.44,86.1858 2206.34,86.1858 2208.24,86.1857 2210.14,86.1857 2212.04,86.1857 2213.95,86.1857 2215.85,86.1857 2217.75,86.1857 2219.65,86.1857 2221.55,86.1858 2223.45,86.1858 2225.36,86.1858 2227.26,86.1858 2229.16,86.1858 2231.06,86.1858 2232.96,86.1857 2234.86,86.1857 2236.76,86.1857 2238.67,86.1857 2240.57,86.1857 2242.47,86.1857 2244.37,86.1857 2246.27,86.1858 2248.17,86.1858 2250.07,86.1858 2251.98,86.1858 2253.88,86.1858 2255.78,86.1858 2257.68,86.1857 2259.58,86.1857 2261.48,86.1857 2263.39,86.1857 2265.29,86.1857 2267.19,86.1857 2269.09,86.1857 2270.99,86.1857 2272.89,86.1858 2274.79,86.1858 2276.7,86.1858 2278.6,86.1858 2280.5,86.1858 2282.4,86.1857 2284.3,86.1857 2286.2,86.1857 2288.1,86.1857 2290.01,86.1857 2291.91,86.1857 2293.81,86.1857 2295.71,86.1857 2297.61,86.1858 2299.51,86.1858 2301.42,86.1858 2303.32,86.1858 2305.22,86.1858 2307.12,86.1857 2309.02,86.1857 2310.92,86.1857 2312.82,86.1857 2314.73,86.1857 2316.63,86.1857 2318.53,86.1857 2320.43,86.1857 2322.33,86.1858 2324.23,86.1858 2326.13,86.1858 2328.04,86.1858 2329.94,86.1858 2331.84,86.1858 2333.74,86.1857 2335.64,86.1857 2337.54,86.1857 2339.45,86.1857 2341.35,86.1857 2343.25,86.1857 2345.15,86.1857 2347.05,86.1857 2348.95,86.1857 2350.85,86.1857 2352.76,86.1857 "/>
<polyline clip-path="url(#clip021)" style="stroke:#e26f46; stroke-linecap:round; stroke-linejoin:round; stroke-width:4; stroke-opacity:1; fill:none" points="110.881,1384.24 112.782,1273.95 114.684,1193.79 116.585,1139.37 118.487,1104.06 120.388,1081.68 122.29,1067.79 124.191,1059.6 126.093,1055.43 127.994,1054.27 129.896,1055.41 131.797,1058.37 133.699,1062.72 135.6,1068.2 137.502,1074.61 139.403,1081.75 141.305,1089.55 143.206,1097.88 145.108,1106.63 147.009,1115.78 148.911,1125.18 150.813,1134.81 152.714,1144.72 154.616,1154.82 156.517,1165.11 158.419,1175.62 160.32,1186.21 162.222,1196.71 164.123,1207.06 166.025,1217.09 167.926,1226.61 169.828,1235.56 171.729,1243.89 173.631,1251.57 175.532,1258.64 177.434,1265.08 179.335,1270.96 181.237,1276.33 183.138,1281.28 185.04,1285.8 186.941,1289.95 188.843,1293.75 190.744,1297.27 192.646,1300.51 194.547,1303.48 196.449,1306.21 198.35,1308.76 200.252,1311.11 202.153,1313.28 204.055,1315.28 205.956,1317.15 207.858,1318.9 209.759,1320.52 211.661,1322.02 213.562,1323.43 215.464,1324.76 217.365,1326.02 219.267,1327.2 221.168,1328.32 223.07,1329.38 224.971,1330.39 226.873,1331.37 228.774,1332.3 230.676,1333.2 232.577,1334.08 234.479,1334.92 236.38,1335.75 238.282,1336.56 240.183,1337.36 242.085,1338.14 243.986,1338.91 245.888,1339.67 247.789,1340.42 249.691,1341.17 251.592,1341.91 253.494,1342.64 255.395,1343.38 257.297,1344.11 259.198,1344.83 261.1,1345.55 263.001,1346.27 264.903,1346.98 266.804,1347.69 268.706,1348.4 270.607,1349.11 272.509,1349.81 274.41,1350.51 276.312,1351.2 278.213,1351.88 280.115,1352.56 282.016,1353.23 283.918,1353.89 285.819,1354.56 287.721,1355.21 289.622,1355.86 291.524,1356.49 293.425,1357.11 295.327,1357.73 297.228,1358.34 299.13,1358.94 301.031,1359.54 302.933,1360.13 304.834,1360.7 306.736,1361.26 308.637,1361.81 310.539,1362.35 312.44,1362.89 314.342,1363.41 316.243,1363.92 318.145,1364.43 320.046,1364.92 321.948,1365.4 323.85,1365.88 325.751,1366.34 327.653,1366.79 329.554,1367.23 331.456,1367.67 333.357,1368.09 335.259,1368.51 337.16,1368.92 339.062,1369.31 340.963,1369.7 342.865,1370.07 344.766,1370.44 346.668,1370.8 348.569,1371.15 350.471,1371.5 352.372,1371.83 354.274,1372.16 356.175,1372.48 358.077,1372.79 359.978,1373.09 361.88,1373.39 363.781,1373.68 365.683,1373.96 367.584,1374.23 369.486,1374.5 371.387,1374.76 373.289,1375.02 375.19,1375.26 377.092,1375.5 378.993,1375.74 380.895,1375.97 382.796,1376.19 384.698,1376.41 386.599,1376.62 388.501,1376.83 390.402,1377.03 392.304,1377.22 394.205,1377.41 396.107,1377.6 398.008,1377.78 399.91,1377.96 401.811,1378.13 403.713,1378.29 405.614,1378.46 407.516,1378.61 409.417,1378.77 411.319,1378.92 413.22,1379.06 415.122,1379.21 417.023,1379.34 418.925,1379.48 420.826,1379.61 422.728,1379.73 424.629,1379.86 426.531,1379.98 428.432,1380.1 430.334,1380.21 432.235,1380.32 434.137,1380.43 436.038,1380.54 437.94,1380.64 439.841,1380.74 441.743,1380.83 443.644,1380.93 445.546,1381.02 447.447,1381.11 449.349,1381.19 451.25,1381.28 453.152,1381.36 455.053,1381.44 456.955,1381.52 458.856,1381.59 460.758,1381.67 462.659,1381.74 464.561,1381.81 466.462,1381.87 468.364,1381.94 470.265,1382 472.167,1382.07 474.068,1382.13 475.97,1382.19 477.871,1382.24 479.773,1382.3 481.674,1382.35 483.576,1382.4 485.477,1382.45 487.379,1382.5 489.28,1382.55 491.182,1382.6 493.083,1382.65 494.985,1382.69 496.887,1382.73 498.788,1382.78 500.69,1382.82 502.591,1382.86 504.493,1382.89 506.394,1382.93 508.296,1382.97 510.197,1383 512.099,1383.04 514,1383.07 515.902,1383.1 517.803,1383.14 519.705,1383.17 521.606,1383.2 523.508,1383.23 525.409,1383.25 527.311,1383.28 529.212,1383.31 531.114,1383.33 533.015,1383.36 534.917,1383.38 536.818,1383.41 538.72,1383.43 540.621,1383.45 542.523,1383.48 544.424,1383.5 546.326,1383.52 548.227,1383.54 550.129,1383.56 552.03,1383.58 553.932,1383.59 555.833,1383.61 557.735,1383.63 559.636,1383.65 561.538,1383.66 563.439,1383.68 565.341,1383.7 567.242,1383.71 569.144,1383.73 571.045,1383.74 572.947,1383.75 574.848,1383.77 576.75,1383.78 578.651,1383.79 580.553,1383.81 582.454,1383.82 584.356,1383.83 586.257,1383.84 588.159,1383.85 590.06,1383.86 591.962,1383.87 593.863,1383.88 595.765,1383.89 597.666,1383.9 599.568,1383.91 601.469,1383.92 603.371,1383.93 605.272,1383.94 607.174,1383.95 609.075,1383.96 610.977,1383.96 612.878,1383.97 614.78,1383.98 616.681,1383.99 618.583,1383.99 620.484,1384 622.386,1384.01 624.287,1384.01 626.189,1384.02 628.09,1384.03 629.992,1384.03 631.893,1384.04 633.795,1384.04 635.696,1384.05 637.598,1384.05 639.499,1384.06 641.401,1384.06 643.302,1384.07 645.204,1384.07 647.105,1384.08 649.007,1384.08 650.908,1384.09 652.81,1384.09 654.711,1384.1 656.613,1384.1 658.514,1384.1 660.416,1384.11 662.317,1384.11 664.219,1384.11 666.121,1384.12 668.022,1384.12 669.924,1384.12 671.825,1384.13 673.727,1384.13 675.628,1384.13 677.53,1384.14 679.431,1384.14 681.333,1384.14 683.234,1384.14 685.136,1384.15 687.037,1384.15 688.939,1384.15 690.84,1384.16 692.742,1384.16 694.643,1384.16 696.545,1384.16 698.446,1384.16 700.348,1384.17 702.249,1384.17 704.151,1384.17 706.052,1384.17 707.954,1384.17 709.855,1384.18 711.757,1384.18 713.658,1384.18 715.56,1384.18 717.461,1384.18 719.363,1384.18 721.264,1384.19 723.166,1384.19 725.067,1384.19 726.969,1384.19 728.87,1384.19 730.772,1384.19 732.673,1384.19 734.575,1384.19 736.476,1384.2 738.378,1384.2 740.279,1384.2 742.181,1384.2 744.082,1384.2 745.984,1384.2 747.885,1384.2 749.787,1384.2 751.688,1384.2 753.59,1384.21 755.491,1384.21 757.393,1384.21 759.294,1384.21 761.196,1384.21 763.097,1384.21 764.999,1384.21 766.9,1384.21 768.802,1384.21 770.703,1384.21 772.605,1384.21 774.506,1384.21 776.408,1384.21 778.309,1384.22 780.211,1384.22 782.112,1384.22 784.014,1384.22 785.915,1384.22 787.817,1384.22 789.718,1384.22 791.62,1384.22 793.521,1384.22 795.423,1384.22 797.324,1384.22 799.226,1384.22 801.127,1384.22 803.029,1384.22 804.93,1384.22 806.832,1384.22 808.733,1384.22 810.635,1384.22 812.536,1384.22 814.438,1384.23 816.339,1384.23 818.241,1384.23 820.142,1384.23 822.044,1384.23 823.945,1384.23 825.847,1384.23 827.748,1384.23 829.65,1384.23 831.551,1384.23 833.453,1384.23 835.354,1384.23 837.256,1384.23 839.158,1384.23 841.059,1384.23 842.961,1384.23 844.862,1384.23 846.764,1384.23 848.665,1384.23 850.567,1384.23 852.468,1384.23 854.37,1384.23 856.271,1384.23 858.173,1384.23 860.074,1384.23 861.976,1384.23 863.877,1384.23 865.779,1384.23 867.68,1384.23 869.582,1384.23 871.483,1384.23 873.385,1384.23 875.286,1384.23 877.188,1384.23 879.089,1384.23 880.991,1384.23 882.892,1384.23 884.794,1384.23 886.695,1384.23 888.597,1384.23 890.498,1384.23 892.4,1384.23 894.301,1384.23 896.203,1384.23 898.104,1384.23 900.006,1384.23 901.907,1384.23 903.809,1384.23 905.71,1384.23 907.612,1384.23 909.513,1384.23 911.415,1384.24 913.316,1384.24 915.218,1384.24 917.119,1384.24 919.021,1384.24 920.922,1384.24 922.824,1384.24 924.725,1384.24 926.627,1384.24 928.528,1384.24 930.43,1384.24 932.331,1384.24 934.233,1384.24 936.134,1384.24 938.036,1384.24 939.937,1384.24 941.839,1384.24 943.74,1384.24 945.642,1384.24 947.543,1384.24 949.445,1384.24 951.346,1384.24 953.248,1384.24 955.149,1384.24 957.051,1384.24 958.952,1384.24 960.854,1384.24 962.755,1384.24 964.657,1384.24 966.558,1384.24 968.46,1384.24 970.361,1384.24 972.263,1384.24 974.164,1384.24 976.066,1384.24 977.967,1384.24 979.869,1384.24 981.77,1384.24 983.672,1384.24 985.573,1384.24 987.475,1384.24 989.376,1384.24 991.278,1384.24 993.179,1384.24 995.081,1384.24 996.982,1384.24 998.884,1384.24 1000.79,1384.24 1002.69,1384.24 1004.59,1384.24 1006.49,1384.24 1008.39,1384.24 1010.29,1384.24 1012.19,1384.24 1014.1,1384.24 1016,1384.24 1017.9,1384.24 1019.8,1384.24 1021.7,1384.24 1023.6,1384.24 1025.51,1384.24 1027.41,1384.24 1029.31,1384.24 1031.21,1384.24 1033.11,1384.24 1035.01,1384.24 1036.91,1384.24 1038.82,1384.24 1040.72,1384.24 1042.62,1384.24 1044.52,1384.24 1046.42,1384.24 1048.32,1384.24 1050.22,1384.24 1052.13,1384.24 1054.03,1384.24 1055.93,1384.24 1057.83,1384.24 1059.73,1384.24 1061.63,1384.24 1063.54,1384.24 1065.44,1384.24 1067.34,1384.24 1069.24,1384.24 1071.14,1384.24 1073.04,1384.24 1074.94,1384.24 1076.85,1384.24 1078.75,1384.24 1080.65,1384.24 1082.55,1384.24 1084.45,1384.24 1086.35,1384.24 1088.25,1384.24 1090.16,1384.24 1092.06,1384.24 1093.96,1384.24 1095.86,1384.24 1097.76,1384.24 1099.66,1384.24 1101.57,1384.24 1103.47,1384.24 1105.37,1384.24 1107.27,1384.24 1109.17,1384.24 1111.07,1384.24 1112.97,1384.24 1114.88,1384.24 1116.78,1384.24 1118.68,1384.24 1120.58,1384.24 1122.48,1384.24 1124.38,1384.24 1126.28,1384.24 1128.19,1384.24 1130.09,1384.24 1131.99,1384.24 1133.89,1384.24 1135.79,1384.24 1137.69,1384.24 1139.6,1384.24 1141.5,1384.24 1143.4,1384.24 1145.3,1384.24 1147.2,1384.24 1149.1,1384.24 1151,1384.24 1152.91,1384.24 1154.81,1384.24 1156.71,1384.24 1158.61,1384.24 1160.51,1384.24 1162.41,1384.24 1164.31,1384.24 1166.22,1384.24 1168.12,1384.24 1170.02,1384.24 1171.92,1384.24 1173.82,1384.24 1175.72,1384.24 1177.63,1384.24 1179.53,1384.24 1181.43,1384.24 1183.33,1384.24 1185.23,1384.24 1187.13,1384.24 1189.03,1384.24 1190.94,1384.24 1192.84,1384.24 1194.74,1384.24 1196.64,1384.24 1198.54,1384.24 1200.44,1384.24 1202.35,1384.24 1204.25,1384.24 1206.15,1384.24 1208.05,1384.24 1209.95,1384.24 1211.85,1384.24 1213.75,1384.24 1215.66,1384.24 1217.56,1384.24 1219.46,1384.24 1221.36,1384.24 1223.26,1384.24 1225.16,1384.24 1227.06,1384.24 1228.97,1384.24 1230.87,1384.24 1232.77,1384.24 1234.67,1384.24 1236.57,1384.24 1238.47,1384.24 1240.38,1384.24 1242.28,1384.24 1244.18,1384.24 1246.08,1384.24 1247.98,1384.24 1249.88,1384.24 1251.78,1384.24 1253.69,1384.24 1255.59,1384.24 1257.49,1384.24 1259.39,1384.24 1261.29,1384.24 1263.19,1384.24 1265.09,1384.24 1267,1384.24 1268.9,1384.24 1270.8,1384.24 1272.7,1384.24 1274.6,1384.24 1276.5,1384.24 1278.41,1384.24 1280.31,1384.24 1282.21,1384.24 1284.11,1384.24 1286.01,1384.24 1287.91,1384.24 1289.81,1384.24 1291.72,1384.24 1293.62,1384.24 1295.52,1384.24 1297.42,1384.24 1299.32,1384.24 1301.22,1384.24 1303.12,1384.24 1305.03,1384.24 1306.93,1384.24 1308.83,1384.24 1310.73,1384.24 1312.63,1384.24 1314.53,1384.24 1316.44,1384.24 1318.34,1384.24 1320.24,1384.24 1322.14,1384.24 1324.04,1384.24 1325.94,1384.24 1327.84,1384.24 1329.75,1384.24 1331.65,1384.24 1333.55,1384.24 1335.45,1384.24 1337.35,1384.24 1339.25,1384.24 1341.15,1384.24 1343.06,1384.24 1344.96,1384.24 1346.86,1384.24 1348.76,1384.24 1350.66,1384.24 1352.56,1384.24 1354.47,1384.24 1356.37,1384.24 1358.27,1384.24 1360.17,1384.24 1362.07,1384.24 1363.97,1384.24 1365.87,1384.24 1367.78,1384.24 1369.68,1384.24 1371.58,1384.24 1373.48,1384.24 1375.38,1384.24 1377.28,1384.24 1379.19,1384.24 1381.09,1384.24 1382.99,1384.24 1384.89,1384.24 1386.79,1384.24 1388.69,1384.24 1390.59,1384.24 1392.5,1384.24 1394.4,1384.24 1396.3,1384.24 1398.2,1384.24 1400.1,1384.24 1402,1384.24 1403.9,1384.24 1405.81,1384.24 1407.71,1384.24 1409.61,1384.24 1411.51,1384.24 1413.41,1384.24 1415.31,1384.24 1417.22,1384.24 1419.12,1384.24 1421.02,1384.24 1422.92,1384.24 1424.82,1384.24 1426.72,1384.24 1428.62,1384.24 1430.53,1384.24 1432.43,1384.24 1434.33,1384.24 1436.23,1384.24 1438.13,1384.24 1440.03,1384.24 1441.93,1384.24 1443.84,1384.24 1445.74,1384.24 1447.64,1384.24 1449.54,1384.24 1451.44,1384.24 1453.34,1384.24 1455.25,1384.24 1457.15,1384.24 1459.05,1384.24 1460.95,1384.24 1462.85,1384.24 1464.75,1384.24 1466.65,1384.24 1468.56,1384.24 1470.46,1384.24 1472.36,1384.24 1474.26,1384.24 1476.16,1384.24 1478.06,1384.24 1479.96,1384.24 1481.87,1384.24 1483.77,1384.24 1485.67,1384.24 1487.57,1384.24 1489.47,1384.24 1491.37,1384.24 1493.28,1384.24 1495.18,1384.24 1497.08,1384.24 1498.98,1384.24 1500.88,1384.24 1502.78,1384.24 1504.68,1384.24 1506.59,1384.24 1508.49,1384.24 1510.39,1384.24 1512.29,1384.24 1514.19,1384.24 1516.09,1384.24 1517.99,1384.24 1519.9,1384.24 1521.8,1384.24 1523.7,1384.24 1525.6,1384.24 1527.5,1384.24 1529.4,1384.24 1531.31,1384.24 1533.21,1384.24 1535.11,1384.24 1537.01,1384.24 1538.91,1384.24 1540.81,1384.24 1542.71,1384.24 1544.62,1384.24 1546.52,1384.24 1548.42,1384.24 1550.32,1384.24 1552.22,1384.24 1554.12,1384.24 1556.03,1384.24 1557.93,1384.24 1559.83,1384.24 1561.73,1384.24 1563.63,1384.24 1565.53,1384.24 1567.43,1384.24 1569.34,1384.24 1571.24,1384.24 1573.14,1384.24 1575.04,1384.24 1576.94,1384.24 1578.84,1384.24 1580.74,1384.24 1582.65,1384.24 1584.55,1384.24 1586.45,1384.24 1588.35,1384.24 1590.25,1384.24 1592.15,1384.24 1594.06,1384.24 1595.96,1384.24 1597.86,1384.24 1599.76,1384.24 1601.66,1384.24 1603.56,1384.24 1605.46,1384.24 1607.37,1384.24 1609.27,1384.24 1611.17,1384.24 1613.07,1384.24 1614.97,1384.24 1616.87,1384.24 1618.77,1384.24 1620.68,1384.24 1622.58,1384.24 1624.48,1384.24 1626.38,1384.24 1628.28,1384.24 1630.18,1384.24 1632.09,1384.24 1633.99,1384.24 1635.89,1384.24 1637.79,1384.24 1639.69,1384.24 1641.59,1384.24 1643.49,1384.24 1645.4,1384.24 1647.3,1384.24 1649.2,1384.24 1651.1,1384.24 1653,1384.24 1654.9,1384.24 1656.8,1384.24 1658.71,1384.24 1660.61,1384.24 1662.51,1384.24 1664.41,1384.24 1666.31,1384.24 1668.21,1384.24 1670.12,1384.24 1672.02,1384.24 1673.92,1384.24 1675.82,1384.24 1677.72,1384.24 1679.62,1384.24 1681.52,1384.24 1683.43,1384.24 1685.33,1384.24 1687.23,1384.24 1689.13,1384.24 1691.03,1384.24 1692.93,1384.24 1694.83,1384.24 1696.74,1384.24 1698.64,1384.24 1700.54,1384.24 1702.44,1384.24 1704.34,1384.24 1706.24,1384.24 1708.15,1384.24 1710.05,1384.24 1711.95,1384.24 1713.85,1384.24 1715.75,1384.24 1717.65,1384.24 1719.55,1384.24 1721.46,1384.24 1723.36,1384.24 1725.26,1384.24 1727.16,1384.24 1729.06,1384.24 1730.96,1384.24 1732.87,1384.24 1734.77,1384.24 1736.67,1384.24 1738.57,1384.24 1740.47,1384.24 1742.37,1384.24 1744.27,1384.24 1746.18,1384.24 1748.08,1384.24 1749.98,1384.24 1751.88,1384.24 1753.78,1384.24 1755.68,1384.24 1757.58,1384.24 1759.49,1384.24 1761.39,1384.24 1763.29,1384.24 1765.19,1384.24 1767.09,1384.24 1768.99,1384.24 1770.9,1384.24 1772.8,1384.24 1774.7,1384.24 1776.6,1384.24 1778.5,1384.24 1780.4,1384.24 1782.3,1384.24 1784.21,1384.24 1786.11,1384.24 1788.01,1384.24 1789.91,1384.24 1791.81,1384.24 1793.71,1384.24 1795.61,1384.24 1797.52,1384.24 1799.42,1384.24 1801.32,1384.24 1803.22,1384.24 1805.12,1384.24 1807.02,1384.24 1808.93,1384.24 1810.83,1384.24 1812.73,1384.24 1814.63,1384.24 1816.53,1384.24 1818.43,1384.24 1820.33,1384.24 1822.24,1384.24 1824.14,1384.24 1826.04,1384.24 1827.94,1384.24 1829.84,1384.24 1831.74,1384.24 1833.64,1384.24 1835.55,1384.24 1837.45,1384.24 1839.35,1384.24 1841.25,1384.24 1843.15,1384.24 1845.05,1384.24 1846.96,1384.24 1848.86,1384.24 1850.76,1384.24 1852.66,1384.24 1854.56,1384.24 1856.46,1384.24 1858.36,1384.24 1860.27,1384.24 1862.17,1384.24 1864.07,1384.24 1865.97,1384.24 1867.87,1384.24 1869.77,1384.24 1871.68,1384.24 1873.58,1384.24 1875.48,1384.24 1877.38,1384.24 1879.28,1384.24 1881.18,1384.24 1883.08,1384.24 1884.99,1384.24 1886.89,1384.24 1888.79,1384.24 1890.69,1384.24 1892.59,1384.24 1894.49,1384.24 1896.39,1384.24 1898.3,1384.24 1900.2,1384.24 1902.1,1384.24 1904,1384.24 1905.9,1384.24 1907.8,1384.24 1909.71,1384.24 1911.61,1384.24 1913.51,1384.24 1915.41,1384.24 1917.31,1384.24 1919.21,1384.24 1921.11,1384.24 1923.02,1384.24 1924.92,1384.24 1926.82,1384.24 1928.72,1384.24 1930.62,1384.24 1932.52,1384.24 1934.42,1384.24 1936.33,1384.24 1938.23,1384.24 1940.13,1384.24 1942.03,1384.24 1943.93,1384.24 1945.83,1384.24 1947.74,1384.24 1949.64,1384.24 1951.54,1384.24 1953.44,1384.24 1955.34,1384.24 1957.24,1384.24 1959.14,1384.24 1961.05,1384.24 1962.95,1384.24 1964.85,1384.24 1966.75,1384.24 1968.65,1384.24 1970.55,1384.24 1972.45,1384.24 1974.36,1384.24 1976.26,1384.24 1978.16,1384.24 1980.06,1384.24 1981.96,1384.24 1983.86,1384.24 1985.77,1384.24 1987.67,1384.24 1989.57,1384.24 1991.47,1384.24 1993.37,1384.24 1995.27,1384.24 1997.17,1384.24 1999.08,1384.24 2000.98,1384.24 2002.88,1384.24 2004.78,1384.24 2006.68,1384.24 2008.58,1384.24 2010.48,1384.24 2012.39,1384.24 2014.29,1384.24 2016.19,1384.24 2018.09,1384.24 2019.99,1384.24 2021.89,1384.24 2023.8,1384.24 2025.7,1384.24 2027.6,1384.24 2029.5,1384.24 2031.4,1384.24 2033.3,1384.24 2035.2,1384.24 2037.11,1384.24 2039.01,1384.24 2040.91,1384.24 2042.81,1384.24 2044.71,1384.24 2046.61,1384.24 2048.52,1384.24 2050.42,1384.24 2052.32,1384.24 2054.22,1384.24 2056.12,1384.24 2058.02,1384.24 2059.92,1384.24 2061.83,1384.24 2063.73,1384.24 2065.63,1384.24 2067.53,1384.24 2069.43,1384.24 2071.33,1384.24 2073.23,1384.24 2075.14,1384.24 2077.04,1384.24 2078.94,1384.24 2080.84,1384.24 2082.74,1384.24 2084.64,1384.24 2086.55,1384.24 2088.45,1384.24 2090.35,1384.24 2092.25,1384.24 2094.15,1384.24 2096.05,1384.24 2097.95,1384.24 2099.86,1384.24 2101.76,1384.24 2103.66,1384.24 2105.56,1384.24 2107.46,1384.24 2109.36,1384.24 2111.26,1384.24 2113.17,1384.24 2115.07,1384.24 2116.97,1384.24 2118.87,1384.24 2120.77,1384.24 2122.67,1384.24 2124.58,1384.24 2126.48,1384.24 2128.38,1384.24 2130.28,1384.24 2132.18,1384.24 2134.08,1384.24 2135.98,1384.24 2137.89,1384.24 2139.79,1384.24 2141.69,1384.24 2143.59,1384.24 2145.49,1384.24 2147.39,1384.24 2149.29,1384.24 2151.2,1384.24 2153.1,1384.24 2155,1384.24 2156.9,1384.24 2158.8,1384.24 2160.7,1384.24 2162.61,1384.24 2164.51,1384.24 2166.41,1384.24 2168.31,1384.24 2170.21,1384.24 2172.11,1384.24 2174.01,1384.24 2175.92,1384.24 2177.82,1384.24 2179.72,1384.24 2181.62,1384.24 2183.52,1384.24 2185.42,1384.24 2187.32,1384.24 2189.23,1384.24 2191.13,1384.24 2193.03,1384.24 2194.93,1384.24 2196.83,1384.24 2198.73,1384.24 2200.64,1384.24 2202.54,1384.24 2204.44,1384.24 2206.34,1384.24 2208.24,1384.24 2210.14,1384.24 2212.04,1384.24 2213.95,1384.24 2215.85,1384.24 2217.75,1384.24 2219.65,1384.24 2221.55,1384.24 2223.45,1384.24 2225.36,1384.24 2227.26,1384.24 2229.16,1384.24 2231.06,1384.24 2232.96,1384.24 2234.86,1384.24 2236.76,1384.24 2238.67,1384.24 2240.57,1384.24 2242.47,1384.24 2244.37,1384.24 2246.27,1384.24 2248.17,1384.24 2250.07,1384.24 2251.98,1384.24 2253.88,1384.24 2255.78,1384.24 2257.68,1384.24 2259.58,1384.24 2261.48,1384.24 2263.39,1384.24 2265.29,1384.24 2267.19,1384.24 2269.09,1384.24 2270.99,1384.24 2272.89,1384.24 2274.79,1384.24 2276.7,1384.24 2278.6,1384.24 2280.5,1384.24 2282.4,1384.24 2284.3,1384.24 2286.2,1384.24 2288.1,1384.24 2290.01,1384.24 2291.91,1384.24 2293.81,1384.24 2295.71,1384.24 2297.61,1384.24 2299.51,1384.24 2301.42,1384.24 2303.32,1384.24 2305.22,1384.24 2307.12,1384.24 2309.02,1384.24 2310.92,1384.24 2312.82,1384.24 2314.73,1384.24 2316.63,1384.24 2318.53,1384.24 2320.43,1384.24 2322.33,1384.24 2324.23,1384.24 2326.13,1384.24 2328.04,1384.24 2329.94,1384.24 2331.84,1384.24 2333.74,1384.24 2335.64,1384.24 2337.54,1384.24 2339.45,1384.24 2341.35,1384.24 2343.25,1384.24 2345.15,1384.24 2347.05,1384.24 2348.95,1384.24 2350.85,1384.24 2352.76,1384.24 "/>
<path clip-path="url(#clip020)" d="M185.61 248.629 L477.343 248.629 L477.343 93.1086 L185.61 93.1086  Z" fill="#ffffff" fill-rule="evenodd" fill-opacity="1"/>
<polyline clip-path="url(#clip020)" style="stroke:#000000; stroke-linecap:round; stroke-linejoin:round; stroke-width:4; stroke-opacity:1; fill:none" points="185.61,248.629 477.343,248.629 477.343,93.1086 185.61,93.1086 185.61,248.629 "/>
<polyline clip-path="url(#clip020)" style="stroke:#009af9; stroke-linecap:round; stroke-linejoin:round; stroke-width:4; stroke-opacity:1; fill:none" points="210.52,144.949 359.978,144.949 "/>
<path clip-path="url(#clip020)" d="M404.147 145.794 L389.402 145.794 Q389.749 152.715 391.346 155.655 Q393.337 159.266 396.786 159.266 Q400.258 159.266 402.179 155.631 Q403.869 152.437 404.147 145.794 M404.078 141.858 Q403.429 135.284 402.179 132.97 Q400.189 129.312 396.786 129.312 Q393.244 129.312 391.369 132.923 Q389.888 135.84 389.448 141.858 L404.078 141.858 M396.786 125.84 Q402.341 125.84 405.513 130.747 Q408.684 135.632 408.684 144.289 Q408.684 152.923 405.513 157.83 Q402.341 162.761 396.786 162.761 Q391.207 162.761 388.059 157.83 Q384.888 152.923 384.888 144.289 Q384.888 135.632 388.059 130.747 Q391.207 125.84 396.786 125.84 Z" fill="#000000" fill-rule="nonzero" fill-opacity="1" /><polyline clip-path="url(#clip020)" style="stroke:#e26f46; stroke-linecap:round; stroke-linejoin:round; stroke-width:4; stroke-opacity:1; fill:none" points="210.52,196.789 359.978,196.789 "/>
<path clip-path="url(#clip020)" d="M404.147 197.634 L389.402 197.634 Q389.749 204.555 391.346 207.495 Q393.337 211.106 396.786 211.106 Q400.258 211.106 402.179 207.471 Q403.869 204.277 404.147 197.634 M404.078 193.698 Q403.429 187.124 402.179 184.81 Q400.189 181.152 396.786 181.152 Q393.244 181.152 391.369 184.763 Q389.888 187.68 389.448 193.698 L404.078 193.698 M396.786 177.68 Q402.341 177.68 405.513 182.587 Q408.684 187.472 408.684 196.129 Q408.684 204.763 405.513 209.67 Q402.341 214.601 396.786 214.601 Q391.207 214.601 388.059 209.67 Q384.888 204.763 384.888 196.129 Q384.888 187.472 388.059 182.587 Q391.207 177.68 396.786 177.68 Z" fill="#000000" fill-rule="nonzero" fill-opacity="1" /><path clip-path="url(#clip020)" d="M416.207 218.05 L430.05 218.05 L430.05 221.476 L416.207 221.476 L416.207 218.05 Z" fill="#000000" fill-rule="nonzero" fill-opacity="1" /><path clip-path="url(#clip020)" d="M443.661 180.782 L443.661 188.143 L452.434 188.143 L452.434 191.453 L443.661 191.453 L443.661 205.527 Q443.661 208.698 444.517 209.601 Q445.397 210.504 448.059 210.504 L452.434 210.504 L452.434 214.069 L448.059 214.069 Q443.128 214.069 441.253 212.24 Q439.378 210.388 439.378 205.527 L439.378 191.453 L436.253 191.453 L436.253 188.143 L439.378 188.143 L439.378 180.782 L443.661 180.782 Z" fill="#000000" fill-rule="nonzero" fill-opacity="1" /></svg>
