<?xml version="1.0" encoding="utf-8"?>
<svg xmlns="http://www.w3.org/2000/svg" xmlns:xlink="http://www.w3.org/1999/xlink" width="600" height="400" viewBox="0 0 2400 1600">
<defs>
  <clipPath id="clip530">
    <rect x="0" y="0" width="2400" height="1600"/>
  </clipPath>
</defs>
<path clip-path="url(#clip530)" d="M0 1600 L2400 1600 L2400 0 L0 0  Z" fill="#ffffff" fill-rule="evenodd" fill-opacity="1"/>
<defs>
  <clipPath id="clip531">
    <rect x="288" y="123" width="2065" height="1301"/>
  </clipPath>
</defs>
<path clip-path="url(#clip530)" d="M288.311 1423.18 L2352.76 1423.18 L2352.76 123.472 L288.311 123.472  Z" fill="#ffffff" fill-rule="evenodd" fill-opacity="1"/>
<polyline clip-path="url(#clip531)" style="stroke:#000000; stroke-linecap:round; stroke-linejoin:round; stroke-width:2; stroke-opacity:0.1; fill:none" points="336.267,1423.18 336.267,123.472 "/>
<polyline clip-path="url(#clip531)" style="stroke:#000000; stroke-linecap:round; stroke-linejoin:round; stroke-width:2; stroke-opacity:0.1; fill:none" points="859.813,1423.18 859.813,123.472 "/>
<polyline clip-path="url(#clip531)" style="stroke:#000000; stroke-linecap:round; stroke-linejoin:round; stroke-width:2; stroke-opacity:0.1; fill:none" points="1383.36,1423.18 1383.36,123.472 "/>
<polyline clip-path="url(#clip531)" style="stroke:#000000; stroke-linecap:round; stroke-linejoin:round; stroke-width:2; stroke-opacity:0.1; fill:none" points="1906.9,1423.18 1906.9,123.472 "/>
<polyline clip-path="url(#clip531)" style="stroke:#000000; stroke-linecap:round; stroke-linejoin:round; stroke-width:2; stroke-opacity:0.1; fill:none" points="288.311,957.309 2352.76,957.309 "/>
<polyline clip-path="url(#clip531)" style="stroke:#000000; stroke-linecap:round; stroke-linejoin:round; stroke-width:2; stroke-opacity:0.1; fill:none" points="288.311,459.264 2352.76,459.264 "/>
<polyline clip-path="url(#clip530)" style="stroke:#000000; stroke-linecap:round; stroke-linejoin:round; stroke-width:4; stroke-opacity:1; fill:none" points="288.311,1423.18 2352.76,1423.18 "/>
<polyline clip-path="url(#clip530)" style="stroke:#000000; stroke-linecap:round; stroke-linejoin:round; stroke-width:4; stroke-opacity:1; fill:none" points="336.267,1423.18 336.267,1404.28 "/>
<polyline clip-path="url(#clip530)" style="stroke:#000000; stroke-linecap:round; stroke-linejoin:round; stroke-width:4; stroke-opacity:1; fill:none" points="859.813,1423.18 859.813,1404.28 "/>
<polyline clip-path="url(#clip530)" style="stroke:#000000; stroke-linecap:round; stroke-linejoin:round; stroke-width:4; stroke-opacity:1; fill:none" points="1383.36,1423.18 1383.36,1404.28 "/>
<polyline clip-path="url(#clip530)" style="stroke:#000000; stroke-linecap:round; stroke-linejoin:round; stroke-width:4; stroke-opacity:1; fill:none" points="1906.9,1423.18 1906.9,1404.28 "/>
<path clip-path="url(#clip530)" d="M336.267 1454.1 Q332.656 1454.1 330.828 1457.66 Q329.022 1461.2 329.022 1468.33 Q329.022 1475.44 330.828 1479.01 Q332.656 1482.55 336.267 1482.55 Q339.902 1482.55 341.707 1479.01 Q343.536 1475.44 343.536 1468.33 Q343.536 1461.2 341.707 1457.66 Q339.902 1454.1 336.267 1454.1 M336.267 1450.39 Q342.078 1450.39 345.133 1455 Q348.212 1459.58 348.212 1468.33 Q348.212 1477.06 345.133 1481.67 Q342.078 1486.25 336.267 1486.25 Q330.457 1486.25 327.379 1481.67 Q324.323 1477.06 324.323 1468.33 Q324.323 1459.58 327.379 1455 Q330.457 1450.39 336.267 1450.39 Z" fill="#000000" fill-rule="nonzero" fill-opacity="1" /><path clip-path="url(#clip530)" d="M819.42 1481.64 L827.059 1481.64 L827.059 1455.28 L818.748 1456.95 L818.748 1452.69 L827.012 1451.02 L831.688 1451.02 L831.688 1481.64 L839.327 1481.64 L839.327 1485.58 L819.42 1485.58 L819.42 1481.64 Z" fill="#000000" fill-rule="nonzero" fill-opacity="1" /><path clip-path="url(#clip530)" d="M858.771 1454.1 Q855.16 1454.1 853.332 1457.66 Q851.526 1461.2 851.526 1468.33 Q851.526 1475.44 853.332 1479.01 Q855.16 1482.55 858.771 1482.55 Q862.406 1482.55 864.211 1479.01 Q866.04 1475.44 866.04 1468.33 Q866.04 1461.2 864.211 1457.66 Q862.406 1454.1 858.771 1454.1 M858.771 1450.39 Q864.582 1450.39 867.637 1455 Q870.716 1459.58 870.716 1468.33 Q870.716 1477.06 867.637 1481.67 Q864.582 1486.25 858.771 1486.25 Q852.961 1486.25 849.883 1481.67 Q846.827 1477.06 846.827 1468.33 Q846.827 1459.58 849.883 1455 Q852.961 1450.39 858.771 1450.39 Z" fill="#000000" fill-rule="nonzero" fill-opacity="1" /><path clip-path="url(#clip530)" d="M888.933 1454.1 Q885.322 1454.1 883.494 1457.66 Q881.688 1461.2 881.688 1468.33 Q881.688 1475.44 883.494 1479.01 Q885.322 1482.55 888.933 1482.55 Q892.568 1482.55 894.373 1479.01 Q896.202 1475.44 896.202 1468.33 Q896.202 1461.2 894.373 1457.66 Q892.568 1454.1 888.933 1454.1 M888.933 1450.39 Q894.743 1450.39 897.799 1455 Q900.878 1459.58 900.878 1468.33 Q900.878 1477.06 897.799 1481.67 Q894.743 1486.25 888.933 1486.25 Q883.123 1486.25 880.044 1481.67 Q876.989 1477.06 876.989 1468.33 Q876.989 1459.58 880.044 1455 Q883.123 1450.39 888.933 1450.39 Z" fill="#000000" fill-rule="nonzero" fill-opacity="1" /><path clip-path="url(#clip530)" d="M1347.05 1481.64 L1363.37 1481.64 L1363.37 1485.58 L1341.43 1485.58 L1341.43 1481.64 Q1344.09 1478.89 1348.67 1474.26 Q1353.28 1469.61 1354.46 1468.27 Q1356.7 1465.74 1357.58 1464.01 Q1358.49 1462.25 1358.49 1460.56 Q1358.49 1457.8 1356.54 1456.07 Q1354.62 1454.33 1351.52 1454.33 Q1349.32 1454.33 1346.87 1455.09 Q1344.44 1455.86 1341.66 1457.41 L1341.66 1452.69 Q1344.48 1451.55 1346.94 1450.97 Q1349.39 1450.39 1351.43 1450.39 Q1356.8 1450.39 1359.99 1453.08 Q1363.19 1455.77 1363.19 1460.26 Q1363.19 1462.39 1362.38 1464.31 Q1361.59 1466.2 1359.48 1468.8 Q1358.9 1469.47 1355.8 1472.69 Q1352.7 1475.88 1347.05 1481.64 Z" fill="#000000" fill-rule="nonzero" fill-opacity="1" /><path clip-path="url(#clip530)" d="M1383.19 1454.1 Q1379.57 1454.1 1377.75 1457.66 Q1375.94 1461.2 1375.94 1468.33 Q1375.94 1475.44 1377.75 1479.01 Q1379.57 1482.55 1383.19 1482.55 Q1386.82 1482.55 1388.62 1479.01 Q1390.45 1475.44 1390.45 1468.33 Q1390.45 1461.2 1388.62 1457.66 Q1386.82 1454.1 1383.19 1454.1 M1383.19 1450.39 Q1389 1450.39 1392.05 1455 Q1395.13 1459.58 1395.13 1468.33 Q1395.13 1477.06 1392.05 1481.67 Q1389 1486.25 1383.19 1486.25 Q1377.37 1486.25 1374.3 1481.67 Q1371.24 1477.06 1371.24 1468.33 Q1371.24 1459.58 1374.3 1455 Q1377.37 1450.39 1383.19 1450.39 Z" fill="#000000" fill-rule="nonzero" fill-opacity="1" /><path clip-path="url(#clip530)" d="M1413.35 1454.1 Q1409.74 1454.1 1407.91 1457.66 Q1406.1 1461.2 1406.1 1468.33 Q1406.1 1475.44 1407.91 1479.01 Q1409.74 1482.55 1413.35 1482.55 Q1416.98 1482.55 1418.79 1479.01 Q1420.62 1475.44 1420.62 1468.33 Q1420.62 1461.2 1418.79 1457.66 Q1416.98 1454.1 1413.35 1454.1 M1413.35 1450.39 Q1419.16 1450.39 1422.21 1455 Q1425.29 1459.58 1425.29 1468.33 Q1425.29 1477.06 1422.21 1481.67 Q1419.16 1486.25 1413.35 1486.25 Q1407.54 1486.25 1404.46 1481.67 Q1401.4 1477.06 1401.4 1468.33 Q1401.4 1459.58 1404.46 1455 Q1407.54 1450.39 1413.35 1450.39 Z" fill="#000000" fill-rule="nonzero" fill-opacity="1" /><path clip-path="url(#clip530)" d="M1880.67 1466.95 Q1884.02 1467.66 1885.9 1469.93 Q1887.8 1472.2 1887.8 1475.53 Q1887.8 1480.65 1884.28 1483.45 Q1880.76 1486.25 1874.28 1486.25 Q1872.1 1486.25 1869.79 1485.81 Q1867.49 1485.39 1865.04 1484.54 L1865.04 1480.02 Q1866.99 1481.16 1869.3 1481.74 Q1871.62 1482.32 1874.14 1482.32 Q1878.54 1482.32 1880.83 1480.58 Q1883.14 1478.84 1883.14 1475.53 Q1883.14 1472.48 1880.99 1470.77 Q1878.86 1469.03 1875.04 1469.03 L1871.01 1469.03 L1871.01 1465.19 L1875.23 1465.19 Q1878.68 1465.19 1880.5 1463.82 Q1882.33 1462.43 1882.33 1459.84 Q1882.33 1457.18 1880.43 1455.77 Q1878.56 1454.33 1875.04 1454.33 Q1873.12 1454.33 1870.92 1454.75 Q1868.72 1455.16 1866.08 1456.04 L1866.08 1451.88 Q1868.74 1451.14 1871.06 1450.77 Q1873.4 1450.39 1875.46 1450.39 Q1880.78 1450.39 1883.88 1452.83 Q1886.99 1455.23 1886.99 1459.35 Q1886.99 1462.22 1885.34 1464.21 Q1883.7 1466.18 1880.67 1466.95 Z" fill="#000000" fill-rule="nonzero" fill-opacity="1" /><path clip-path="url(#clip530)" d="M1906.66 1454.1 Q1903.05 1454.1 1901.22 1457.66 Q1899.42 1461.2 1899.42 1468.33 Q1899.42 1475.44 1901.22 1479.01 Q1903.05 1482.55 1906.66 1482.55 Q1910.3 1482.55 1912.1 1479.01 Q1913.93 1475.44 1913.93 1468.33 Q1913.93 1461.2 1912.1 1457.66 Q1910.3 1454.1 1906.66 1454.1 M1906.66 1450.39 Q1912.47 1450.39 1915.53 1455 Q1918.61 1459.58 1918.61 1468.33 Q1918.61 1477.06 1915.53 1481.67 Q1912.47 1486.25 1906.66 1486.25 Q1900.85 1486.25 1897.77 1481.67 Q1894.72 1477.06 1894.72 1468.33 Q1894.72 1459.58 1897.77 1455 Q1900.85 1450.39 1906.66 1450.39 Z" fill="#000000" fill-rule="nonzero" fill-opacity="1" /><path clip-path="url(#clip530)" d="M1936.82 1454.1 Q1933.21 1454.1 1931.38 1457.66 Q1929.58 1461.2 1929.58 1468.33 Q1929.58 1475.44 1931.38 1479.01 Q1933.21 1482.55 1936.82 1482.55 Q1940.46 1482.55 1942.26 1479.01 Q1944.09 1475.44 1944.09 1468.33 Q1944.09 1461.2 1942.26 1457.66 Q1940.46 1454.1 1936.82 1454.1 M1936.82 1450.39 Q1942.63 1450.39 1945.69 1455 Q1948.77 1459.58 1948.77 1468.33 Q1948.77 1477.06 1945.69 1481.67 Q1942.63 1486.25 1936.82 1486.25 Q1931.01 1486.25 1927.93 1481.67 Q1924.88 1477.06 1924.88 1468.33 Q1924.88 1459.58 1927.93 1455 Q1931.01 1450.39 1936.82 1450.39 Z" fill="#000000" fill-rule="nonzero" fill-opacity="1" /><path clip-path="url(#clip530)" d="M1188.25 1520.52 L1194.68 1520.52 L1194.68 1568.04 L1188.25 1568.04 L1188.25 1520.52 Z" fill="#000000" fill-rule="nonzero" fill-opacity="1" /><path clip-path="url(#clip530)" d="M1213.02 1522.27 L1213.02 1532.4 L1225.08 1532.4 L1225.08 1536.95 L1213.02 1536.95 L1213.02 1556.3 Q1213.02 1560.66 1214.19 1561.9 Q1215.4 1563.14 1219.06 1563.14 L1225.08 1563.14 L1225.08 1568.04 L1219.06 1568.04 Q1212.28 1568.04 1209.71 1565.53 Q1207.13 1562.98 1207.13 1556.3 L1207.13 1536.95 L1202.83 1536.95 L1202.83 1532.4 L1207.13 1532.4 L1207.13 1522.27 L1213.02 1522.27 Z" fill="#000000" fill-rule="nonzero" fill-opacity="1" /><path clip-path="url(#clip530)" d="M1263.27 1548.76 L1263.27 1551.62 L1236.35 1551.62 Q1236.73 1557.67 1239.98 1560.85 Q1243.25 1564 1249.08 1564 Q1252.45 1564 1255.6 1563.17 Q1258.79 1562.35 1261.91 1560.69 L1261.91 1566.23 Q1258.75 1567.57 1255.44 1568.27 Q1252.13 1568.97 1248.73 1568.97 Q1240.2 1568.97 1235.2 1564 Q1230.24 1559.04 1230.24 1550.57 Q1230.24 1541.82 1234.95 1536.69 Q1239.69 1531.54 1247.71 1531.54 Q1254.9 1531.54 1259.07 1536.18 Q1263.27 1540.8 1263.27 1548.76 M1257.42 1547.04 Q1257.35 1542.23 1254.71 1539.37 Q1252.1 1536.5 1247.77 1536.5 Q1242.87 1536.5 1239.91 1539.27 Q1236.98 1542.04 1236.54 1547.07 L1257.42 1547.04 Z" fill="#000000" fill-rule="nonzero" fill-opacity="1" /><path clip-path="url(#clip530)" d="M1293.54 1537.87 Q1292.56 1537.3 1291.38 1537.04 Q1290.23 1536.76 1288.83 1536.76 Q1283.87 1536.76 1281.19 1540 Q1278.55 1543.22 1278.55 1549.27 L1278.55 1568.04 L1272.66 1568.04 L1272.66 1532.4 L1278.55 1532.4 L1278.55 1537.93 Q1280.4 1534.69 1283.36 1533.13 Q1286.32 1531.54 1290.55 1531.54 Q1291.16 1531.54 1291.89 1531.63 Q1292.62 1531.7 1293.51 1531.85 L1293.54 1537.87 Z" fill="#000000" fill-rule="nonzero" fill-opacity="1" /><path clip-path="url(#clip530)" d="M1315.89 1550.12 Q1308.79 1550.12 1306.05 1551.75 Q1303.31 1553.37 1303.31 1557.29 Q1303.31 1560.4 1305.35 1562.25 Q1307.42 1564.07 1310.95 1564.07 Q1315.82 1564.07 1318.75 1560.63 Q1321.71 1557.16 1321.71 1551.43 L1321.71 1550.12 L1315.89 1550.12 M1327.57 1547.71 L1327.57 1568.04 L1321.71 1568.04 L1321.71 1562.63 Q1319.71 1565.88 1316.71 1567.44 Q1313.72 1568.97 1309.39 1568.97 Q1303.92 1568.97 1300.67 1565.91 Q1297.46 1562.82 1297.46 1557.67 Q1297.46 1551.65 1301.47 1548.6 Q1305.51 1545.54 1313.5 1545.54 L1321.71 1545.54 L1321.71 1544.97 Q1321.71 1540.93 1319.04 1538.73 Q1316.4 1536.5 1311.59 1536.5 Q1308.53 1536.5 1305.64 1537.23 Q1302.74 1537.97 1300.07 1539.43 L1300.07 1534.02 Q1303.28 1532.78 1306.31 1532.17 Q1309.33 1531.54 1312.19 1531.54 Q1319.93 1531.54 1323.75 1535.55 Q1327.57 1539.56 1327.57 1547.71 Z" fill="#000000" fill-rule="nonzero" fill-opacity="1" /><path clip-path="url(#clip530)" d="M1345.42 1522.27 L1345.42 1532.4 L1357.49 1532.4 L1357.49 1536.95 L1345.42 1536.95 L1345.42 1556.3 Q1345.42 1560.66 1346.6 1561.9 Q1347.81 1563.14 1351.47 1563.14 L1357.49 1563.14 L1357.49 1568.04 L1351.47 1568.04 Q1344.69 1568.04 1342.11 1565.53 Q1339.53 1562.98 1339.53 1556.3 L1339.53 1536.95 L1335.24 1536.95 L1335.24 1532.4 L1339.53 1532.4 L1339.53 1522.27 L1345.42 1522.27 Z" fill="#000000" fill-rule="nonzero" fill-opacity="1" /><path clip-path="url(#clip530)" d="M1365.19 1532.4 L1371.05 1532.4 L1371.05 1568.04 L1365.19 1568.04 L1365.19 1532.4 M1365.19 1518.52 L1371.05 1518.52 L1371.05 1525.93 L1365.19 1525.93 L1365.19 1518.52 Z" fill="#000000" fill-rule="nonzero" fill-opacity="1" /><path clip-path="url(#clip530)" d="M1397.11 1536.5 Q1392.4 1536.5 1389.66 1540.19 Q1386.93 1543.85 1386.93 1550.25 Q1386.93 1556.65 1389.63 1560.34 Q1392.37 1564 1397.11 1564 Q1401.79 1564 1404.53 1560.31 Q1407.27 1556.62 1407.27 1550.25 Q1407.27 1543.92 1404.53 1540.23 Q1401.79 1536.5 1397.11 1536.5 M1397.11 1531.54 Q1404.75 1531.54 1409.11 1536.5 Q1413.47 1541.47 1413.47 1550.25 Q1413.47 1559 1409.11 1564 Q1404.75 1568.97 1397.11 1568.97 Q1389.44 1568.97 1385.08 1564 Q1380.75 1559 1380.75 1550.25 Q1380.75 1541.47 1385.08 1536.5 Q1389.44 1531.54 1397.11 1531.54 Z" fill="#000000" fill-rule="nonzero" fill-opacity="1" /><path clip-path="url(#clip530)" d="M1452.81 1546.53 L1452.81 1568.04 L1446.96 1568.04 L1446.96 1546.72 Q1446.96 1541.66 1444.98 1539.14 Q1443.01 1536.63 1439.06 1536.63 Q1434.32 1536.63 1431.58 1539.65 Q1428.85 1542.68 1428.85 1547.9 L1428.85 1568.04 L1422.96 1568.04 L1422.96 1532.4 L1428.85 1532.4 L1428.85 1537.93 Q1430.95 1534.72 1433.78 1533.13 Q1436.64 1531.54 1440.37 1531.54 Q1446.51 1531.54 1449.66 1535.36 Q1452.81 1539.14 1452.81 1546.53 Z" fill="#000000" fill-rule="nonzero" fill-opacity="1" /><polyline clip-path="url(#clip530)" style="stroke:#000000; stroke-linecap:round; stroke-linejoin:round; stroke-width:4; stroke-opacity:1; fill:none" points="288.311,1423.18 288.311,123.472 "/>
<polyline clip-path="url(#clip530)" style="stroke:#000000; stroke-linecap:round; stroke-linejoin:round; stroke-width:4; stroke-opacity:1; fill:none" points="288.311,957.309 307.208,957.309 "/>
<polyline clip-path="url(#clip530)" style="stroke:#000000; stroke-linecap:round; stroke-linejoin:round; stroke-width:4; stroke-opacity:1; fill:none" points="288.311,459.264 307.208,459.264 "/>
<path clip-path="url(#clip530)" d="M114.931 977.102 L122.57 977.102 L122.57 950.736 L114.26 952.403 L114.26 948.144 L122.524 946.477 L127.2 946.477 L127.2 977.102 L134.839 977.102 L134.839 981.037 L114.931 981.037 L114.931 977.102 Z" fill="#000000" fill-rule="nonzero" fill-opacity="1" /><path clip-path="url(#clip530)" d="M154.283 949.556 Q150.672 949.556 148.843 953.121 Q147.038 956.662 147.038 963.792 Q147.038 970.898 148.843 974.463 Q150.672 978.005 154.283 978.005 Q157.917 978.005 159.723 974.463 Q161.552 970.898 161.552 963.792 Q161.552 956.662 159.723 953.121 Q157.917 949.556 154.283 949.556 M154.283 945.852 Q160.093 945.852 163.149 950.459 Q166.227 955.042 166.227 963.792 Q166.227 972.519 163.149 977.125 Q160.093 981.708 154.283 981.708 Q148.473 981.708 145.394 977.125 Q142.339 972.519 142.339 963.792 Q142.339 955.042 145.394 950.459 Q148.473 945.852 154.283 945.852 Z" fill="#000000" fill-rule="nonzero" fill-opacity="1" /><path clip-path="url(#clip530)" d="M166.227 939.953 L190.339 939.953 L190.339 943.151 L166.227 943.151 L166.227 939.953 Z" fill="#000000" fill-rule="nonzero" fill-opacity="1" /><path clip-path="url(#clip530)" d="M201.812 950.429 L215.071 950.429 L215.071 953.627 L197.241 953.627 L197.241 950.429 Q199.404 948.191 203.128 944.43 Q206.871 940.649 207.83 939.558 Q209.655 937.508 210.369 936.098 Q211.103 934.668 211.103 933.295 Q211.103 931.057 209.523 929.647 Q207.962 928.236 205.442 928.236 Q203.655 928.236 201.661 928.857 Q199.686 929.477 197.43 930.738 L197.43 926.901 Q199.724 925.979 201.718 925.509 Q203.711 925.039 205.366 925.039 Q209.73 925.039 212.325 927.221 Q214.921 929.402 214.921 933.051 Q214.921 934.781 214.263 936.342 Q213.623 937.885 211.912 939.991 Q211.441 940.536 208.921 943.151 Q206.401 945.746 201.812 950.429 Z" fill="#000000" fill-rule="nonzero" fill-opacity="1" /><path clip-path="url(#clip530)" d="M223.046 948.849 L227.014 948.849 L227.014 953.627 L223.046 953.627 L223.046 948.849 Z" fill="#000000" fill-rule="nonzero" fill-opacity="1" /><path clip-path="url(#clip530)" d="M235.327 925.547 L250.242 925.547 L250.242 928.744 L238.807 928.744 L238.807 935.628 Q239.634 935.346 240.462 935.214 Q241.289 935.063 242.117 935.063 Q246.819 935.063 249.565 937.64 Q252.311 940.217 252.311 944.618 Q252.311 949.15 249.489 951.671 Q246.668 954.172 241.534 954.172 Q239.766 954.172 237.923 953.871 Q236.098 953.57 234.142 952.968 L234.142 949.15 Q235.835 950.072 237.641 950.523 Q239.446 950.975 241.459 950.975 Q244.712 950.975 246.612 949.263 Q248.511 947.552 248.511 944.618 Q248.511 941.684 246.612 939.972 Q244.712 938.261 241.459 938.261 Q239.935 938.261 238.412 938.599 Q236.907 938.938 235.327 939.652 L235.327 925.547 Z" fill="#000000" fill-rule="nonzero" fill-opacity="1" /><path clip-path="url(#clip530)" d="M144.855 479.057 L152.493 479.057 L152.493 452.691 L144.183 454.358 L144.183 450.099 L152.447 448.432 L157.123 448.432 L157.123 479.057 L164.762 479.057 L164.762 482.992 L144.855 482.992 L144.855 479.057 Z" fill="#000000" fill-rule="nonzero" fill-opacity="1" /><path clip-path="url(#clip530)" d="M184.206 451.511 Q180.595 451.511 178.766 455.076 Q176.961 458.617 176.961 465.747 Q176.961 472.853 178.766 476.418 Q180.595 479.96 184.206 479.96 Q187.84 479.96 189.646 476.418 Q191.475 472.853 191.475 465.747 Q191.475 458.617 189.646 455.076 Q187.84 451.511 184.206 451.511 M184.206 447.807 Q190.016 447.807 193.072 452.414 Q196.151 456.997 196.151 465.747 Q196.151 474.474 193.072 479.08 Q190.016 483.663 184.206 483.663 Q178.396 483.663 175.317 479.08 Q172.262 474.474 172.262 465.747 Q172.262 456.997 175.317 452.414 Q178.396 447.807 184.206 447.807 Z" fill="#000000" fill-rule="nonzero" fill-opacity="1" /><path clip-path="url(#clip530)" d="M205.855 430.003 Q202.921 430.003 201.436 432.899 Q199.969 435.777 199.969 441.57 Q199.969 447.344 201.436 450.24 Q202.921 453.118 205.855 453.118 Q208.808 453.118 210.275 450.24 Q211.761 447.344 211.761 441.57 Q211.761 435.777 210.275 432.899 Q208.808 430.003 205.855 430.003 M205.855 426.994 Q210.576 426.994 213.059 430.737 Q215.56 434.461 215.56 441.57 Q215.56 448.66 213.059 452.403 Q210.576 456.127 205.855 456.127 Q201.135 456.127 198.633 452.403 Q196.151 448.66 196.151 441.57 Q196.151 434.461 198.633 430.737 Q201.135 426.994 205.855 426.994 Z" fill="#000000" fill-rule="nonzero" fill-opacity="1" /><path clip-path="url(#clip530)" d="M222.237 450.804 L226.205 450.804 L226.205 455.582 L222.237 455.582 L222.237 450.804 Z" fill="#000000" fill-rule="nonzero" fill-opacity="1" /><path clip-path="url(#clip530)" d="M242.606 430.003 Q239.672 430.003 238.186 432.899 Q236.719 435.777 236.719 441.57 Q236.719 447.344 238.186 450.24 Q239.672 453.118 242.606 453.118 Q245.559 453.118 247.026 450.24 Q248.511 447.344 248.511 441.57 Q248.511 435.777 247.026 432.899 Q245.559 430.003 242.606 430.003 M242.606 426.994 Q247.327 426.994 249.809 430.737 Q252.311 434.461 252.311 441.57 Q252.311 448.66 249.809 452.403 Q247.327 456.127 242.606 456.127 Q237.885 456.127 235.384 452.403 Q232.901 448.66 232.901 441.57 Q232.901 434.461 235.384 430.737 Q237.885 426.994 242.606 426.994 Z" fill="#000000" fill-rule="nonzero" fill-opacity="1" /><path clip-path="url(#clip530)" d="M16.4842 840.023 L16.4842 833.593 L58.5933 833.593 L58.5933 810.454 L64.0042 810.454 L64.0042 840.023 L16.4842 840.023 Z" fill="#000000" fill-rule="nonzero" fill-opacity="1" /><path clip-path="url(#clip530)" d="M32.4621 791.293 Q32.4621 796.004 36.1542 798.741 Q39.8145 801.478 46.212 801.478 Q52.6095 801.478 56.3017 798.773 Q59.9619 796.036 59.9619 791.293 Q59.9619 786.614 56.2698 783.877 Q52.5777 781.14 46.212 781.14 Q39.8781 781.14 36.186 783.877 Q32.4621 786.614 32.4621 791.293 M27.4968 791.293 Q27.4968 783.654 32.4621 779.294 Q37.4273 774.933 46.212 774.933 Q54.9649 774.933 59.9619 779.294 Q64.9272 783.654 64.9272 791.293 Q64.9272 798.964 59.9619 803.324 Q54.9649 807.653 46.212 807.653 Q37.4273 807.653 32.4621 803.324 Q27.4968 798.964 27.4968 791.293 Z" fill="#000000" fill-rule="nonzero" fill-opacity="1" /><path clip-path="url(#clip530)" d="M29.4065 742.5 L34.9447 742.5 Q33.6716 744.983 33.035 747.656 Q32.3984 750.33 32.3984 753.194 Q32.3984 757.555 33.7352 759.751 Q35.072 761.915 37.7456 761.915 Q39.7826 761.915 40.9603 760.356 Q42.1061 758.796 43.1565 754.086 L43.6021 752.08 Q44.9389 745.842 47.3897 743.232 Q49.8086 740.59 54.1691 740.59 Q59.1344 740.59 62.0308 744.537 Q64.9272 748.452 64.9272 755.327 Q64.9272 758.192 64.3543 761.311 Q63.8132 764.398 62.6992 767.836 L56.6518 767.836 Q58.3387 764.589 59.198 761.438 Q60.0256 758.287 60.0256 755.2 Q60.0256 751.062 58.6251 748.834 Q57.1929 746.606 54.6147 746.606 Q52.2276 746.606 50.9545 748.229 Q49.6813 749.821 48.5037 755.263 L48.0262 757.3 Q46.8804 762.743 44.5251 765.162 Q42.138 767.581 38.0002 767.581 Q32.9713 767.581 30.2341 764.016 Q27.4968 760.451 27.4968 753.895 Q27.4968 750.648 27.9743 747.784 Q28.4517 744.919 29.4065 742.5 Z" fill="#000000" fill-rule="nonzero" fill-opacity="1" /><path clip-path="url(#clip530)" d="M29.4065 708.539 L34.9447 708.539 Q33.6716 711.022 33.035 713.695 Q32.3984 716.369 32.3984 719.233 Q32.3984 723.594 33.7352 725.79 Q35.072 727.954 37.7456 727.954 Q39.7826 727.954 40.9603 726.395 Q42.1061 724.835 43.1565 720.125 L43.6021 718.119 Q44.9389 711.881 47.3897 709.271 Q49.8086 706.629 54.1691 706.629 Q59.1344 706.629 62.0308 710.576 Q64.9272 714.491 64.9272 721.366 Q64.9272 724.23 64.3543 727.35 Q63.8132 730.437 62.6992 733.875 L56.6518 733.875 Q58.3387 730.628 59.198 727.477 Q60.0256 724.326 60.0256 721.239 Q60.0256 717.101 58.6251 714.873 Q57.1929 712.645 54.6147 712.645 Q52.2276 712.645 50.9545 714.268 Q49.6813 715.86 48.5037 721.302 L48.0262 723.339 Q46.8804 728.782 44.5251 731.201 Q42.138 733.62 38.0002 733.62 Q32.9713 733.62 30.2341 730.055 Q27.4968 726.49 27.4968 719.934 Q27.4968 716.687 27.9743 713.823 Q28.4517 710.958 29.4065 708.539 Z" fill="#000000" fill-rule="nonzero" fill-opacity="1" /><path clip-path="url(#clip530)" d="M1054.59 12.096 L1105.75 12.096 L1105.75 18.9825 L1084.28 18.9825 L1084.28 72.576 L1076.06 72.576 L1076.06 18.9825 L1054.59 18.9825 L1054.59 12.096 Z" fill="#000000" fill-rule="nonzero" fill-opacity="1" /><path clip-path="url(#clip530)" d="M1127.43 34.1734 Q1126.17 33.4443 1124.67 33.1202 Q1123.21 32.7556 1121.43 32.7556 Q1115.11 32.7556 1111.71 36.8875 Q1108.35 40.9789 1108.35 48.6757 L1108.35 72.576 L1100.85 72.576 L1100.85 27.2059 L1108.35 27.2059 L1108.35 34.2544 Q1110.7 30.1225 1114.46 28.1376 Q1118.23 26.1121 1123.62 26.1121 Q1124.39 26.1121 1125.32 26.2337 Q1126.25 26.3147 1127.39 26.5172 L1127.43 34.1734 Z" fill="#000000" fill-rule="nonzero" fill-opacity="1" /><path clip-path="url(#clip530)" d="M1155.86 49.7694 Q1146.83 49.7694 1143.35 51.8354 Q1139.86 53.9013 1139.86 58.8839 Q1139.86 62.8538 1142.46 65.2034 Q1145.09 67.5124 1149.59 67.5124 Q1155.78 67.5124 1159.51 63.1374 Q1163.28 58.7219 1163.28 51.4303 L1163.28 49.7694 L1155.86 49.7694 M1170.73 46.6907 L1170.73 72.576 L1163.28 72.576 L1163.28 65.6895 Q1160.73 69.8214 1156.92 71.8063 Q1153.11 73.7508 1147.6 73.7508 Q1140.63 73.7508 1136.5 69.8619 Q1132.41 65.9325 1132.41 59.3701 Q1132.41 51.7138 1137.51 47.825 Q1142.66 43.9361 1152.83 43.9361 L1163.28 43.9361 L1163.28 43.2069 Q1163.28 38.0623 1159.87 35.2672 Q1156.51 32.4315 1150.4 32.4315 Q1146.51 32.4315 1142.82 33.3632 Q1139.13 34.295 1135.73 36.1584 L1135.73 29.2718 Q1139.82 27.692 1143.67 26.9223 Q1147.52 26.1121 1151.16 26.1121 Q1161.01 26.1121 1165.87 31.2163 Q1170.73 36.3204 1170.73 46.6907 Z" fill="#000000" fill-rule="nonzero" fill-opacity="1" /><path clip-path="url(#clip530)" d="M1186.08 27.2059 L1193.54 27.2059 L1193.54 72.576 L1186.08 72.576 L1186.08 27.2059 M1186.08 9.54393 L1193.54 9.54393 L1193.54 18.9825 L1186.08 18.9825 L1186.08 9.54393 Z" fill="#000000" fill-rule="nonzero" fill-opacity="1" /><path clip-path="url(#clip530)" d="M1246.85 45.1919 L1246.85 72.576 L1239.39 72.576 L1239.39 45.4349 Q1239.39 38.994 1236.88 35.7938 Q1234.37 32.5936 1229.35 32.5936 Q1223.31 32.5936 1219.83 36.4419 Q1216.34 40.2903 1216.34 46.9338 L1216.34 72.576 L1208.85 72.576 L1208.85 27.2059 L1216.34 27.2059 L1216.34 34.2544 Q1219.02 30.163 1222.62 28.1376 Q1226.27 26.1121 1231.01 26.1121 Q1238.83 26.1121 1242.84 30.9732 Q1246.85 35.7938 1246.85 45.1919 Z" fill="#000000" fill-rule="nonzero" fill-opacity="1" /><path clip-path="url(#clip530)" d="M1261.71 27.2059 L1269.17 27.2059 L1269.17 72.576 L1261.71 72.576 L1261.71 27.2059 M1261.71 9.54393 L1269.17 9.54393 L1269.17 18.9825 L1261.71 18.9825 L1261.71 9.54393 Z" fill="#000000" fill-rule="nonzero" fill-opacity="1" /><path clip-path="url(#clip530)" d="M1322.48 45.1919 L1322.48 72.576 L1315.02 72.576 L1315.02 45.4349 Q1315.02 38.994 1312.51 35.7938 Q1310 32.5936 1304.98 32.5936 Q1298.94 32.5936 1295.46 36.4419 Q1291.97 40.2903 1291.97 46.9338 L1291.97 72.576 L1284.48 72.576 L1284.48 27.2059 L1291.97 27.2059 L1291.97 34.2544 Q1294.65 30.163 1298.25 28.1376 Q1301.9 26.1121 1306.64 26.1121 Q1314.46 26.1121 1318.47 30.9732 Q1322.48 35.7938 1322.48 45.1919 Z" fill="#000000" fill-rule="nonzero" fill-opacity="1" /><path clip-path="url(#clip530)" d="M1367.2 49.3643 Q1367.2 41.2625 1363.84 36.8065 Q1360.52 32.3505 1354.48 32.3505 Q1348.48 32.3505 1345.12 36.8065 Q1341.8 41.2625 1341.8 49.3643 Q1341.8 57.4256 1345.12 61.8816 Q1348.48 66.3376 1354.48 66.3376 Q1360.52 66.3376 1363.84 61.8816 Q1367.2 57.4256 1367.2 49.3643 M1374.65 66.9452 Q1374.65 78.5308 1369.51 84.1616 Q1364.36 89.8329 1353.75 89.8329 Q1349.82 89.8329 1346.34 89.2252 Q1342.85 88.6581 1339.57 87.4428 L1339.57 80.1917 Q1342.85 81.9741 1346.05 82.8248 Q1349.25 83.6755 1352.58 83.6755 Q1359.91 83.6755 1363.55 79.8271 Q1367.2 76.0193 1367.2 68.282 L1367.2 64.5957 Q1364.89 68.6061 1361.29 70.5911 Q1357.68 72.576 1352.66 72.576 Q1344.31 72.576 1339.21 66.2161 Q1334.1 59.8562 1334.1 49.3643 Q1334.1 38.832 1339.21 32.472 Q1344.31 26.1121 1352.66 26.1121 Q1357.68 26.1121 1361.29 28.0971 Q1364.89 30.082 1367.2 34.0924 L1367.2 27.2059 L1374.65 27.2059 L1374.65 66.9452 Z" fill="#000000" fill-rule="nonzero" fill-opacity="1" /><path clip-path="url(#clip530)" d="M1416.7 12.096 L1424.88 12.096 L1424.88 65.6895 L1454.33 65.6895 L1454.33 72.576 L1416.7 72.576 L1416.7 12.096 Z" fill="#000000" fill-rule="nonzero" fill-opacity="1" /><path clip-path="url(#clip530)" d="M1478.72 32.4315 Q1472.73 32.4315 1469.24 37.1306 Q1465.76 41.7891 1465.76 49.9314 Q1465.76 58.0738 1469.2 62.7728 Q1472.69 67.4314 1478.72 67.4314 Q1484.68 67.4314 1488.16 62.7323 Q1491.64 58.0333 1491.64 49.9314 Q1491.64 41.8701 1488.16 37.1711 Q1484.68 32.4315 1478.72 32.4315 M1478.72 26.1121 Q1488.44 26.1121 1493.99 32.4315 Q1499.54 38.7509 1499.54 49.9314 Q1499.54 61.0714 1493.99 67.4314 Q1488.44 73.7508 1478.72 73.7508 Q1468.96 73.7508 1463.41 67.4314 Q1457.9 61.0714 1457.9 49.9314 Q1457.9 38.7509 1463.41 32.4315 Q1468.96 26.1121 1478.72 26.1121 Z" fill="#000000" fill-rule="nonzero" fill-opacity="1" /><path clip-path="url(#clip530)" d="M1540.82 28.5427 L1540.82 35.5912 Q1537.66 33.9709 1534.26 33.1607 Q1530.86 32.3505 1527.21 32.3505 Q1521.66 32.3505 1518.87 34.0519 Q1516.11 35.7533 1516.11 39.156 Q1516.11 41.7486 1518.1 43.2475 Q1520.08 44.7058 1526.08 46.0426 L1528.63 46.6097 Q1536.57 48.3111 1539.89 51.4303 Q1543.25 54.509 1543.25 60.0587 Q1543.25 66.3781 1538.23 70.0644 Q1533.25 73.7508 1524.5 73.7508 Q1520.85 73.7508 1516.88 73.0216 Q1512.95 72.3329 1508.58 70.9151 L1508.58 63.2184 Q1512.71 65.3654 1516.72 66.4591 Q1520.73 67.5124 1524.66 67.5124 Q1529.92 67.5124 1532.76 65.73 Q1535.6 63.9071 1535.6 60.6258 Q1535.6 57.5877 1533.53 55.9673 Q1531.5 54.3469 1524.58 52.8481 L1521.98 52.2405 Q1515.06 50.7821 1511.98 47.7845 Q1508.9 44.7463 1508.9 39.4801 Q1508.9 33.0797 1513.44 29.5959 Q1517.97 26.1121 1526.32 26.1121 Q1530.45 26.1121 1534.1 26.7198 Q1537.74 27.3274 1540.82 28.5427 Z" fill="#000000" fill-rule="nonzero" fill-opacity="1" /><path clip-path="url(#clip530)" d="M1584.04 28.5427 L1584.04 35.5912 Q1580.88 33.9709 1577.48 33.1607 Q1574.08 32.3505 1570.43 32.3505 Q1564.88 32.3505 1562.09 34.0519 Q1559.33 35.7533 1559.33 39.156 Q1559.33 41.7486 1561.32 43.2475 Q1563.3 44.7058 1569.3 46.0426 L1571.85 46.6097 Q1579.79 48.3111 1583.11 51.4303 Q1586.48 54.509 1586.48 60.0587 Q1586.48 66.3781 1581.45 70.0644 Q1576.47 73.7508 1567.72 73.7508 Q1564.07 73.7508 1560.1 73.0216 Q1556.17 72.3329 1551.8 70.9151 L1551.8 63.2184 Q1555.93 65.3654 1559.94 66.4591 Q1563.95 67.5124 1567.88 67.5124 Q1573.15 67.5124 1575.98 65.73 Q1578.82 63.9071 1578.82 60.6258 Q1578.82 57.5877 1576.75 55.9673 Q1574.73 54.3469 1567.8 52.8481 L1565.21 52.2405 Q1558.28 50.7821 1555.2 47.7845 Q1552.12 44.7463 1552.12 39.4801 Q1552.12 33.0797 1556.66 29.5959 Q1561.2 26.1121 1569.54 26.1121 Q1573.67 26.1121 1577.32 26.7198 Q1580.97 27.3274 1584.04 28.5427 Z" fill="#000000" fill-rule="nonzero" fill-opacity="1" /><polyline clip-path="url(#clip531)" style="stroke:#009af9; stroke-linecap:round; stroke-linejoin:round; stroke-width:4; stroke-opacity:1; fill:none" points="346.738,251.932 351.974,160.256 357.209,171.348 362.445,239.944 367.68,258.443 372.916,272.161 378.151,281.448 383.387,289.37 388.622,297.726 393.857,302.197 399.093,307.063 404.328,320.022 409.564,353.786 414.799,416.937 420.035,465.536 425.27,489.645 430.506,500.064 435.741,500.378 440.977,510.397 446.212,524.189 451.447,538.711 456.683,551.911 461.918,553.948 467.154,564.596 472.389,578.198 477.625,589.634 482.86,598.065 488.096,600.015 493.331,606.31 498.567,619.367 503.802,630.751 509.037,631.1 514.273,630.767 519.508,634.084 524.744,649.091 529.979,642.141 535.215,648.286 540.45,662.02 545.686,659.494 550.921,661.712 556.157,672.332 561.392,673.452 566.628,682.586 571.863,680.972 577.098,677.988 582.334,705.441 587.569,698.344 592.805,686.059 598.04,683.777 603.276,701.506 608.511,715.656 613.747,709.724 618.982,712.029 624.218,720.752 629.453,759.184 634.688,736.451 639.924,735.047 645.159,759.376 650.395,733.913 655.63,769.584 660.866,762.68 666.101,766.138 671.337,781.589 676.572,779.358 681.808,771.888 687.043,777.577 692.278,813.284 697.514,788.635 702.749,812.669 707.985,807.526 713.22,840.095 718.456,830.149 723.691,796.064 728.927,862.213 734.162,805.896 739.398,822.662 744.633,829.137 749.868,819.783 755.104,856.671 760.339,865.722 765.575,846.5 770.81,849.345 776.046,891.723 781.281,869.236 786.517,891.769 791.752,882.372 796.988,845.699 802.223,865.026 807.459,870.229 812.694,854.844 817.929,877.98 823.165,889.044 828.4,886.723 833.636,866.963 838.871,859.297 844.107,896.618 849.342,928.441 854.578,867.771 859.813,871.928 865.049,886.544 870.284,854.409 875.519,847.779 880.755,897.445 885.99,869.833 891.226,912.666 896.461,918.826 901.697,863.678 906.932,899.552 912.168,857.464 917.403,894.641 922.639,929.322 927.874,870.222 933.109,951.445 938.345,885.55 943.58,894.136 948.816,995.577 954.051,911.253 959.287,904.024 964.522,873.958 969.758,862.071 974.993,963.109 980.229,892.603 985.464,915.055 990.699,865.986 995.935,894.543 1001.17,899.401 1006.41,916.372 1011.64,942.317 1016.88,867.946 1022.11,980.388 1027.35,943.257 1032.58,916.516 1037.82,922.127 1043.05,910.643 1048.29,919.575 1053.52,983.637 1058.76,881.004 1064,947.519 1069.23,1016.32 1074.47,928.689 1079.7,910.634 1084.94,836.806 1090.17,918.999 1095.41,912.885 1100.64,883.221 1105.88,957.564 1111.12,929.304 1116.35,839.453 1121.59,896.042 1126.82,907.98 1132.06,938.812 1137.29,929.523 1142.53,981.495 1147.76,918.212 1153,1008.6 1158.23,918.711 1163.47,868.367 1168.71,889.355 1173.94,939.618 1179.18,861.44 1184.41,961.199 1189.65,953.945 1194.88,938.148 1200.12,1000.01 1205.35,872.455 1210.59,992.881 1215.82,900.914 1221.06,948.242 1226.3,941.687 1231.53,967.406 1236.77,897.555 1242,956.119 1247.24,964.255 1252.47,1051.32 1257.71,1192.52 1262.94,967.702 1268.18,929.374 1273.41,1171.55 1278.65,1002.37 1283.89,958.55 1289.12,1035.44 1294.36,941.875 1299.59,920.596 1304.83,995.959 1310.06,971.562 1315.3,875.775 1320.53,1000.22 1325.77,900.631 1331,946.601 1336.24,881.382 1341.48,926.488 1346.71,937.24 1351.95,1022.8 1357.18,934.712 1362.42,919.797 1367.65,941.02 1372.89,925.801 1378.12,936.488 1383.36,976.568 1388.59,997.323 1393.83,1112.51 1399.07,953.935 1404.3,899.982 1409.54,957.57 1414.77,914.725 1420.01,904.354 1425.24,917.371 1430.48,882.735 1435.71,963.739 1440.95,930.482 1446.18,956.413 1451.42,1064.5 1456.66,897.675 1461.89,1386.4 1467.13,941.85 1472.36,923.214 1477.6,911.242 1482.83,920.989 1488.07,899.453 1493.3,982.951 1498.54,945.204 1503.77,1035.88 1509.01,960.233 1514.25,955.734 1519.48,961.977 1524.72,927.908 1529.95,922.121 1535.19,1007.82 1540.42,943.717 1545.66,906.759 1550.89,897.158 1556.13,899.199 1561.36,960.295 1566.6,1030.19 1571.84,928.985 1577.07,1026.34 1582.31,928.512 1587.54,966.946 1592.78,923.308 1598.01,975.185 1603.25,970.487 1608.48,883.66 1613.72,954.332 1618.95,906.887 1624.19,955.784 1629.43,908.959 1634.66,1004.11 1639.9,1039.93 1645.13,978.462 1650.37,996.406 1655.6,1044.67 1660.84,1157.93 1666.07,1157.46 1671.31,953.077 1676.54,949.675 1681.78,955.06 1687.02,925.551 1692.25,988.33 1697.49,958.253 1702.72,1025.35 1707.96,947.349 1713.19,943.423 1718.43,922.228 1723.66,982.098 1728.9,918.891 1734.13,1073.14 1739.37,1080.05 1744.61,1015.43 1749.84,948.908 1755.08,946.304 1760.31,953.164 1765.55,934.111 1770.78,973.855 1776.02,953.663 1781.25,995.546 1786.49,929.403 1791.72,956.048 1796.96,978.27 1802.2,884.621 1807.43,926.804 1812.67,1050.26 1817.9,1115.32 1823.14,912.973 1828.37,961.054 1833.61,1172.87 1838.84,1020.94 1844.08,964.754 1849.31,1023.56 1854.55,1057.11 1859.79,948.349 1865.02,1060.71 1870.26,1124.14 1875.49,958.426 1880.73,934.361 1885.96,919.333 1891.2,936.175 1896.43,949.547 1901.67,1083.21 1906.9,921.692 1912.14,913.726 1917.38,935.158 1922.61,955.418 1927.85,933.344 1933.08,967.563 1938.32,1007.63 1943.55,926.62 1948.79,1004.36 1954.02,913.986 1959.26,891.124 1964.49,1009.2 1969.73,957.236 1974.97,916.783 1980.2,932.823 1985.44,969.129 1990.67,861.025 1995.91,1000.52 2001.14,958.008 2006.38,1011.69 2011.61,932.817 2016.85,958.023 2022.08,996.639 2027.32,906.57 2032.56,1029.32 2037.79,892.729 2043.03,850.322 2048.26,957.699 2053.5,930.178 2058.73,879.703 2063.97,1153.12 2069.2,917.155 2074.44,916.18 2079.67,1009.77 2084.91,1024 2090.15,928.516 2095.38,972.648 2100.62,1125.77 2105.85,1027.74 2111.09,908.39 2116.32,952.809 2121.56,895.126 2126.79,928 2132.03,1049.5 2137.26,937.044 2142.5,899.146 2147.74,903.637 2152.97,911.607 2158.21,983.257 2163.44,901.279 2168.68,947.605 2173.91,935.093 2179.15,887.694 2184.38,966.045 2189.62,976.783 2194.85,939.481 2200.09,957.882 2205.33,944.847 2210.56,966.969 2215.8,914.781 2221.03,934.573 2226.27,893.672 2231.5,937.36 2236.74,968.419 2241.97,973.747 2247.21,891.887 2252.44,908.437 2257.68,931.939 2262.92,1072.12 2268.15,962.483 2273.39,954.722 2278.62,985.222 2283.86,920.402 2289.09,898.343 2294.33,966.918 "/>
</svg>
