<?xml version="1.0" encoding="utf-8"?>
<svg xmlns="http://www.w3.org/2000/svg" xmlns:xlink="http://www.w3.org/1999/xlink" width="600" height="400" viewBox="0 0 2400 1600">
<defs>
  <clipPath id="clip650">
    <rect x="0" y="0" width="2400" height="1600"/>
  </clipPath>
</defs>
<path clip-path="url(#clip650)" d="M0 1600 L2400 1600 L2400 0 L0 0  Z" fill="#ffffff" fill-rule="evenodd" fill-opacity="1"/>
<defs>
  <clipPath id="clip651">
    <rect x="112" y="47" width="2242" height="1377"/>
  </clipPath>
</defs>
<path clip-path="url(#clip650)" d="M112.177 1423.18 L2352.76 1423.18 L2352.76 47.2441 L112.177 47.2441  Z" fill="#ffffff" fill-rule="evenodd" fill-opacity="1"/>
<polyline clip-path="url(#clip651)" style="stroke:#000000; stroke-linecap:round; stroke-linejoin:round; stroke-width:2; stroke-opacity:0.1; fill:none" points="112.177,1423.18 112.177,47.2441 "/>
<polyline clip-path="url(#clip651)" style="stroke:#000000; stroke-linecap:round; stroke-linejoin:round; stroke-width:2; stroke-opacity:0.1; fill:none" points="859.037,1423.18 859.037,47.2441 "/>
<polyline clip-path="url(#clip651)" style="stroke:#000000; stroke-linecap:round; stroke-linejoin:round; stroke-width:2; stroke-opacity:0.1; fill:none" points="1605.9,1423.18 1605.9,47.2441 "/>
<polyline clip-path="url(#clip651)" style="stroke:#000000; stroke-linecap:round; stroke-linejoin:round; stroke-width:2; stroke-opacity:0.1; fill:none" points="2352.76,1423.18 2352.76,47.2441 "/>
<polyline clip-path="url(#clip651)" style="stroke:#000000; stroke-linecap:round; stroke-linejoin:round; stroke-width:2; stroke-opacity:0.1; fill:none" points="112.177,1245.74 2352.76,1245.74 "/>
<polyline clip-path="url(#clip651)" style="stroke:#000000; stroke-linecap:round; stroke-linejoin:round; stroke-width:2; stroke-opacity:0.1; fill:none" points="112.177,999.622 2352.76,999.622 "/>
<polyline clip-path="url(#clip651)" style="stroke:#000000; stroke-linecap:round; stroke-linejoin:round; stroke-width:2; stroke-opacity:0.1; fill:none" points="112.177,753.499 2352.76,753.499 "/>
<polyline clip-path="url(#clip651)" style="stroke:#000000; stroke-linecap:round; stroke-linejoin:round; stroke-width:2; stroke-opacity:0.1; fill:none" points="112.177,507.376 2352.76,507.376 "/>
<polyline clip-path="url(#clip651)" style="stroke:#000000; stroke-linecap:round; stroke-linejoin:round; stroke-width:2; stroke-opacity:0.1; fill:none" points="112.177,261.254 2352.76,261.254 "/>
<polyline clip-path="url(#clip650)" style="stroke:#000000; stroke-linecap:round; stroke-linejoin:round; stroke-width:4; stroke-opacity:1; fill:none" points="112.177,1423.18 2352.76,1423.18 "/>
<polyline clip-path="url(#clip650)" style="stroke:#000000; stroke-linecap:round; stroke-linejoin:round; stroke-width:4; stroke-opacity:1; fill:none" points="112.177,1423.18 112.177,1404.28 "/>
<polyline clip-path="url(#clip650)" style="stroke:#000000; stroke-linecap:round; stroke-linejoin:round; stroke-width:4; stroke-opacity:1; fill:none" points="859.037,1423.18 859.037,1404.28 "/>
<polyline clip-path="url(#clip650)" style="stroke:#000000; stroke-linecap:round; stroke-linejoin:round; stroke-width:4; stroke-opacity:1; fill:none" points="1605.9,1423.18 1605.9,1404.28 "/>
<polyline clip-path="url(#clip650)" style="stroke:#000000; stroke-linecap:round; stroke-linejoin:round; stroke-width:4; stroke-opacity:1; fill:none" points="2352.76,1423.18 2352.76,1404.28 "/>
<path clip-path="url(#clip650)" d="M112.177 1454.1 Q108.566 1454.1 106.737 1457.66 Q104.932 1461.2 104.932 1468.33 Q104.932 1475.44 106.737 1479.01 Q108.566 1482.55 112.177 1482.55 Q115.811 1482.55 117.617 1479.01 Q119.446 1475.44 119.446 1468.33 Q119.446 1461.2 117.617 1457.66 Q115.811 1454.1 112.177 1454.1 M112.177 1450.39 Q117.987 1450.39 121.043 1455 Q124.122 1459.58 124.122 1468.33 Q124.122 1477.06 121.043 1481.67 Q117.987 1486.25 112.177 1486.25 Q106.367 1486.25 103.288 1481.67 Q100.233 1477.06 100.233 1468.33 Q100.233 1459.58 103.288 1455 Q106.367 1450.39 112.177 1450.39 Z" fill="#000000" fill-rule="nonzero" fill-opacity="1" /><path clip-path="url(#clip650)" d="M833.736 1451.02 L852.092 1451.02 L852.092 1454.96 L838.018 1454.96 L838.018 1463.43 Q839.037 1463.08 840.055 1462.92 Q841.074 1462.73 842.092 1462.73 Q847.879 1462.73 851.259 1465.9 Q854.639 1469.08 854.639 1474.49 Q854.639 1480.07 851.166 1483.17 Q847.694 1486.25 841.375 1486.25 Q839.199 1486.25 836.93 1485.88 Q834.685 1485.51 832.278 1484.77 L832.278 1480.07 Q834.361 1481.2 836.583 1481.76 Q838.805 1482.32 841.282 1482.32 Q845.287 1482.32 847.625 1480.21 Q849.963 1478.1 849.963 1474.49 Q849.963 1470.88 847.625 1468.77 Q845.287 1466.67 841.282 1466.67 Q839.407 1466.67 837.532 1467.08 Q835.68 1467.5 833.736 1468.38 L833.736 1451.02 Z" fill="#000000" fill-rule="nonzero" fill-opacity="1" /><path clip-path="url(#clip650)" d="M873.851 1454.1 Q870.24 1454.1 868.412 1457.66 Q866.606 1461.2 866.606 1468.33 Q866.606 1475.44 868.412 1479.01 Q870.24 1482.55 873.851 1482.55 Q877.486 1482.55 879.291 1479.01 Q881.12 1475.44 881.12 1468.33 Q881.12 1461.2 879.291 1457.66 Q877.486 1454.1 873.851 1454.1 M873.851 1450.39 Q879.662 1450.39 882.717 1455 Q885.796 1459.58 885.796 1468.33 Q885.796 1477.06 882.717 1481.67 Q879.662 1486.25 873.851 1486.25 Q868.041 1486.25 864.963 1481.67 Q861.907 1477.06 861.907 1468.33 Q861.907 1459.58 864.963 1455 Q868.041 1450.39 873.851 1450.39 Z" fill="#000000" fill-rule="nonzero" fill-opacity="1" /><path clip-path="url(#clip650)" d="M1565.5 1481.64 L1573.14 1481.64 L1573.14 1455.28 L1564.83 1456.95 L1564.83 1452.69 L1573.1 1451.02 L1577.77 1451.02 L1577.77 1481.64 L1585.41 1481.64 L1585.41 1485.58 L1565.5 1485.58 L1565.5 1481.64 Z" fill="#000000" fill-rule="nonzero" fill-opacity="1" /><path clip-path="url(#clip650)" d="M1604.85 1454.1 Q1601.24 1454.1 1599.41 1457.66 Q1597.61 1461.2 1597.61 1468.33 Q1597.61 1475.44 1599.41 1479.01 Q1601.24 1482.55 1604.85 1482.55 Q1608.49 1482.55 1610.29 1479.01 Q1612.12 1475.44 1612.12 1468.33 Q1612.12 1461.2 1610.29 1457.66 Q1608.49 1454.1 1604.85 1454.1 M1604.85 1450.39 Q1610.66 1450.39 1613.72 1455 Q1616.8 1459.58 1616.8 1468.33 Q1616.8 1477.06 1613.72 1481.67 Q1610.66 1486.25 1604.85 1486.25 Q1599.04 1486.25 1595.97 1481.67 Q1592.91 1477.06 1592.91 1468.33 Q1592.91 1459.58 1595.97 1455 Q1599.04 1450.39 1604.85 1450.39 Z" fill="#000000" fill-rule="nonzero" fill-opacity="1" /><path clip-path="url(#clip650)" d="M1635.02 1454.1 Q1631.41 1454.1 1629.58 1457.66 Q1627.77 1461.2 1627.77 1468.33 Q1627.77 1475.44 1629.58 1479.01 Q1631.41 1482.55 1635.02 1482.55 Q1638.65 1482.55 1640.46 1479.01 Q1642.29 1475.44 1642.29 1468.33 Q1642.29 1461.2 1640.46 1457.66 Q1638.65 1454.1 1635.02 1454.1 M1635.02 1450.39 Q1640.83 1450.39 1643.88 1455 Q1646.96 1459.58 1646.96 1468.33 Q1646.96 1477.06 1643.88 1481.67 Q1640.83 1486.25 1635.02 1486.25 Q1629.21 1486.25 1626.13 1481.67 Q1623.07 1477.06 1623.07 1468.33 Q1623.07 1459.58 1626.13 1455 Q1629.21 1450.39 1635.02 1450.39 Z" fill="#000000" fill-rule="nonzero" fill-opacity="1" /><path clip-path="url(#clip650)" d="M2312.36 1481.64 L2320 1481.64 L2320 1455.28 L2311.69 1456.95 L2311.69 1452.69 L2319.96 1451.02 L2324.63 1451.02 L2324.63 1481.64 L2332.27 1481.64 L2332.27 1485.58 L2312.36 1485.58 L2312.36 1481.64 Z" fill="#000000" fill-rule="nonzero" fill-opacity="1" /><path clip-path="url(#clip650)" d="M2341.76 1451.02 L2360.12 1451.02 L2360.12 1454.96 L2346.04 1454.96 L2346.04 1463.43 Q2347.06 1463.08 2348.08 1462.92 Q2349.1 1462.73 2350.12 1462.73 Q2355.9 1462.73 2359.28 1465.9 Q2362.66 1469.08 2362.66 1474.49 Q2362.66 1480.07 2359.19 1483.17 Q2355.72 1486.25 2349.4 1486.25 Q2347.22 1486.25 2344.96 1485.88 Q2342.71 1485.51 2340.3 1484.77 L2340.3 1480.07 Q2342.39 1481.2 2344.61 1481.76 Q2346.83 1482.32 2349.31 1482.32 Q2353.31 1482.32 2355.65 1480.21 Q2357.99 1478.1 2357.99 1474.49 Q2357.99 1470.88 2355.65 1468.77 Q2353.31 1466.67 2349.31 1466.67 Q2347.43 1466.67 2345.56 1467.08 Q2343.71 1467.5 2341.76 1468.38 L2341.76 1451.02 Z" fill="#000000" fill-rule="nonzero" fill-opacity="1" /><path clip-path="url(#clip650)" d="M2381.88 1454.1 Q2378.27 1454.1 2376.44 1457.66 Q2374.63 1461.2 2374.63 1468.33 Q2374.63 1475.44 2376.44 1479.01 Q2378.27 1482.55 2381.88 1482.55 Q2385.51 1482.55 2387.32 1479.01 Q2389.14 1475.44 2389.14 1468.33 Q2389.14 1461.2 2387.32 1457.66 Q2385.51 1454.1 2381.88 1454.1 M2381.88 1450.39 Q2387.69 1450.39 2390.74 1455 Q2393.82 1459.58 2393.82 1468.33 Q2393.82 1477.06 2390.74 1481.67 Q2387.69 1486.25 2381.88 1486.25 Q2376.07 1486.25 2372.99 1481.67 Q2369.93 1477.06 2369.93 1468.33 Q2369.93 1459.58 2372.99 1455 Q2376.07 1450.39 2381.88 1450.39 Z" fill="#000000" fill-rule="nonzero" fill-opacity="1" /><path clip-path="url(#clip650)" d="M1231.53 1522.27 L1231.53 1532.4 L1243.59 1532.4 L1243.59 1536.95 L1231.53 1536.95 L1231.53 1556.3 Q1231.53 1560.66 1232.71 1561.9 Q1233.91 1563.14 1237.58 1563.14 L1243.59 1563.14 L1243.59 1568.04 L1237.58 1568.04 Q1230.8 1568.04 1228.22 1565.53 Q1225.64 1562.98 1225.64 1556.3 L1225.64 1536.95 L1221.34 1536.95 L1221.34 1532.4 L1225.64 1532.4 L1225.64 1522.27 L1231.53 1522.27 Z" fill="#000000" fill-rule="nonzero" fill-opacity="1" /><polyline clip-path="url(#clip650)" style="stroke:#000000; stroke-linecap:round; stroke-linejoin:round; stroke-width:4; stroke-opacity:1; fill:none" points="112.177,1423.18 112.177,47.2441 "/>
<polyline clip-path="url(#clip650)" style="stroke:#000000; stroke-linecap:round; stroke-linejoin:round; stroke-width:4; stroke-opacity:1; fill:none" points="112.177,1245.74 131.075,1245.74 "/>
<polyline clip-path="url(#clip650)" style="stroke:#000000; stroke-linecap:round; stroke-linejoin:round; stroke-width:4; stroke-opacity:1; fill:none" points="112.177,999.622 131.075,999.622 "/>
<polyline clip-path="url(#clip650)" style="stroke:#000000; stroke-linecap:round; stroke-linejoin:round; stroke-width:4; stroke-opacity:1; fill:none" points="112.177,753.499 131.075,753.499 "/>
<polyline clip-path="url(#clip650)" style="stroke:#000000; stroke-linecap:round; stroke-linejoin:round; stroke-width:4; stroke-opacity:1; fill:none" points="112.177,507.376 131.075,507.376 "/>
<polyline clip-path="url(#clip650)" style="stroke:#000000; stroke-linecap:round; stroke-linejoin:round; stroke-width:4; stroke-opacity:1; fill:none" points="112.177,261.254 131.075,261.254 "/>
<path clip-path="url(#clip650)" d="M64.2328 1231.54 Q60.6217 1231.54 58.793 1235.11 Q56.9875 1238.65 56.9875 1245.78 Q56.9875 1252.89 58.793 1256.45 Q60.6217 1259.99 64.2328 1259.99 Q67.867 1259.99 69.6726 1256.45 Q71.5013 1252.89 71.5013 1245.78 Q71.5013 1238.65 69.6726 1235.11 Q67.867 1231.54 64.2328 1231.54 M64.2328 1227.84 Q70.0429 1227.84 73.0985 1232.45 Q76.1772 1237.03 76.1772 1245.78 Q76.1772 1254.51 73.0985 1259.11 Q70.0429 1263.7 64.2328 1263.7 Q58.4226 1263.7 55.344 1259.11 Q52.2884 1254.51 52.2884 1245.78 Q52.2884 1237.03 55.344 1232.45 Q58.4226 1227.84 64.2328 1227.84 Z" fill="#000000" fill-rule="nonzero" fill-opacity="1" /><path clip-path="url(#clip650)" d="M59.8578 1012.97 L76.1772 1012.97 L76.1772 1016.9 L54.2328 1016.9 L54.2328 1012.97 Q56.8949 1010.21 61.4782 1005.58 Q66.0846 1000.93 67.2652 999.587 Q69.5105 997.064 70.3902 995.328 Q71.2929 993.569 71.2929 991.879 Q71.2929 989.124 69.3485 987.388 Q67.4272 985.652 64.3254 985.652 Q62.1263 985.652 59.6726 986.416 Q57.2421 987.18 54.4643 988.731 L54.4643 984.008 Q57.2884 982.874 59.7421 982.295 Q62.1958 981.717 64.2328 981.717 Q69.6031 981.717 72.7976 984.402 Q75.992 987.087 75.992 991.578 Q75.992 993.707 75.1818 995.629 Q74.3948 997.527 72.2883 1000.12 Q71.7096 1000.79 68.6078 1004.01 Q65.5059 1007.2 59.8578 1012.97 Z" fill="#000000" fill-rule="nonzero" fill-opacity="1" /><path clip-path="url(#clip650)" d="M66.5939 740.293 L54.7884 758.742 L66.5939 758.742 L66.5939 740.293 M65.367 736.219 L71.2466 736.219 L71.2466 758.742 L76.1772 758.742 L76.1772 762.631 L71.2466 762.631 L71.2466 770.779 L66.5939 770.779 L66.5939 762.631 L50.9921 762.631 L50.9921 758.117 L65.367 736.219 Z" fill="#000000" fill-rule="nonzero" fill-opacity="1" /><path clip-path="url(#clip650)" d="M64.6495 505.513 Q61.5013 505.513 59.6495 507.666 Q57.8208 509.819 57.8208 513.569 Q57.8208 517.295 59.6495 519.471 Q61.5013 521.624 64.6495 521.624 Q67.7976 521.624 69.6263 519.471 Q71.4781 517.295 71.4781 513.569 Q71.4781 509.819 69.6263 507.666 Q67.7976 505.513 64.6495 505.513 M73.9318 490.86 L73.9318 495.12 Q72.1726 494.286 70.367 493.846 Q68.5846 493.407 66.8254 493.407 Q62.1958 493.407 59.7421 496.532 Q57.3115 499.657 56.9643 505.976 Q58.33 503.962 60.3902 502.897 Q62.4504 501.809 64.9272 501.809 Q70.1355 501.809 73.1448 504.981 Q76.1772 508.129 76.1772 513.569 Q76.1772 518.893 73.029 522.11 Q69.8809 525.328 64.6495 525.328 Q58.6541 525.328 55.4828 520.744 Q52.3116 516.138 52.3116 507.411 Q52.3116 499.217 56.2004 494.356 Q60.0893 489.471 66.6402 489.471 Q68.3994 489.471 70.1818 489.819 Q71.9874 490.166 73.9318 490.86 Z" fill="#000000" fill-rule="nonzero" fill-opacity="1" /><path clip-path="url(#clip650)" d="M64.3254 262.122 Q60.9921 262.122 59.0708 263.904 Q57.1726 265.687 57.1726 268.812 Q57.1726 271.937 59.0708 273.719 Q60.9921 275.501 64.3254 275.501 Q67.6587 275.501 69.58 273.719 Q71.5013 271.913 71.5013 268.812 Q71.5013 265.687 69.58 263.904 Q67.6819 262.122 64.3254 262.122 M59.6495 260.131 Q56.6402 259.39 54.9504 257.33 Q53.2838 255.27 53.2838 252.307 Q53.2838 248.164 56.2236 245.756 Q59.1865 243.349 64.3254 243.349 Q69.4874 243.349 72.4272 245.756 Q75.367 248.164 75.367 252.307 Q75.367 255.27 73.6772 257.33 Q72.0105 259.39 69.0244 260.131 Q72.404 260.918 74.279 263.21 Q76.1772 265.501 76.1772 268.812 Q76.1772 273.835 73.0985 276.52 Q70.0429 279.205 64.3254 279.205 Q58.6078 279.205 55.5291 276.52 Q52.4736 273.835 52.4736 268.812 Q52.4736 265.501 54.3717 263.21 Q56.2699 260.918 59.6495 260.131 M57.9365 252.747 Q57.9365 255.432 59.6032 256.937 Q61.293 258.441 64.3254 258.441 Q67.3346 258.441 69.0244 256.937 Q70.7374 255.432 70.7374 252.747 Q70.7374 250.062 69.0244 248.557 Q67.3346 247.052 64.3254 247.052 Q61.293 247.052 59.6032 248.557 Q57.9365 250.062 57.9365 252.747 Z" fill="#000000" fill-rule="nonzero" fill-opacity="1" /><polyline clip-path="url(#clip651)" style="stroke:#009af9; stroke-linecap:round; stroke-linejoin:round; stroke-width:4; stroke-opacity:1; fill:none" points="112.177,559.881 113.79,571.023 115.403,575.702 117.016,575.861 118.63,573.36 120.243,569.434 121.856,564.695 123.469,559.418 125.082,553.718 126.695,547.641 128.308,541.202 129.921,534.402 131.534,527.24 133.147,519.71 134.76,511.81 136.373,503.535 137.987,494.889 139.6,485.874 141.213,476.498 142.826,466.783 144.439,456.753 146.052,446.447 147.665,435.925 149.278,425.244 150.891,414.473 152.504,403.694 154.117,392.964 155.731,382.341 157.344,371.886 158.957,361.631 160.57,351.609 162.183,341.857 163.796,332.391 165.409,323.229 167.022,314.396 168.635,305.898 170.248,297.738 171.861,289.928 173.475,282.475 175.088,275.376 176.701,268.634 178.314,262.256 179.927,256.232 181.54,250.552 183.153,245.209 184.766,240.185 186.379,235.457 187.992,231.003 189.605,226.798 191.218,222.822 192.832,219.057 194.445,215.482 196.058,212.075 197.671,208.822 199.284,205.713 200.897,202.734 202.51,199.873 204.123,197.12 205.736,194.469 207.349,191.91 208.962,189.434 210.576,187.035 212.189,184.709 213.802,182.45 215.415,180.252 217.028,178.11 218.641,176.021 220.254,173.982 221.867,171.99 223.48,170.04 225.093,168.13 226.706,166.259 228.319,164.424 229.933,162.624 231.546,160.856 233.159,159.12 234.772,157.414 236.385,155.738 237.998,154.091 239.611,152.472 241.224,150.881 242.837,149.316 244.45,147.778 246.063,146.266 247.677,144.781 249.29,143.321 250.903,141.888 252.516,140.481 254.129,139.1 255.742,137.744 257.355,136.413 258.968,135.107 260.581,133.827 262.194,132.573 263.807,131.346 265.421,130.144 267.034,128.967 268.647,127.816 270.26,126.689 271.873,125.587 273.486,124.51 275.099,123.459 276.712,122.432 278.325,121.429 279.938,120.449 281.551,119.493 283.164,118.561 284.778,117.651 286.391,116.765 288.004,115.901 289.617,115.059 291.23,114.239 292.843,113.44 294.456,112.661 296.069,111.903 297.682,111.166 299.295,110.448 300.908,109.749 302.522,109.07 304.135,108.408 305.748,107.765 307.361,107.139 308.974,106.53 310.587,105.939 312.2,105.363 313.813,104.804 315.426,104.261 317.039,103.733 318.652,103.219 320.265,102.72 321.879,102.235 323.492,101.764 325.105,101.307 326.718,100.862 328.331,100.431 329.944,100.011 331.557,99.6036 333.17,99.2078 334.783,98.8233 336.396,98.45 338.009,98.0876 339.623,97.7357 341.236,97.3941 342.849,97.0623 344.462,96.7402 346.075,96.4273 347.688,96.1236 349.301,95.8286 350.914,95.5424 352.527,95.2645 354.14,94.9949 355.753,94.7331 357.366,94.4791 358.98,94.2324 360.593,93.993 362.206,93.7606 363.819,93.535 365.432,93.316 367.045,93.1035 368.658,92.8973 370.271,92.6972 371.884,92.5031 373.497,92.3147 375.11,92.1318 376.724,91.9543 378.337,91.7821 379.95,91.6149 381.563,91.4527 383.176,91.2952 384.789,91.1425 386.402,90.9944 388.015,90.8506 389.628,90.7112 391.241,90.5759 392.854,90.4446 394.468,90.3171 396.081,90.1935 397.694,90.0735 399.307,89.957 400.92,89.8441 402.533,89.7345 404.146,89.6282 405.759,89.5251 407.372,89.4251 408.985,89.3281 410.598,89.2339 412.211,89.1425 413.825,89.0539 415.438,88.9679 417.051,88.8844 418.664,88.8034 420.277,88.7249 421.89,88.6487 423.503,88.5749 425.116,88.5032 426.729,88.4337 428.342,88.3663 429.955,88.3009 431.569,88.2374 433.182,88.1758 434.795,88.116 436.408,88.058 438.021,88.0018 439.634,87.9472 441.247,87.8944 442.86,87.8431 444.473,87.7933 446.086,87.7451 447.699,87.6983 449.312,87.6528 450.926,87.6088 452.539,87.566 454.152,87.5245 455.765,87.4842 457.378,87.4452 458.991,87.4073 460.604,87.3706 462.217,87.335 463.83,87.3005 465.443,87.267 467.056,87.2346 468.67,87.203 470.283,87.1725 471.896,87.1428 473.509,87.114 475.122,87.0861 476.735,87.059 478.348,87.0327 479.961,87.0072 481.574,86.9825 483.187,86.9586 484.8,86.9354 486.414,86.9129 488.027,86.891 489.64,86.8698 491.253,86.8492 492.866,86.8292 494.479,86.8099 496.092,86.7911 497.705,86.7728 499.318,86.7552 500.931,86.7381 502.544,86.7215 504.157,86.7054 505.771,86.6898 507.384,86.6746 508.997,86.6599 510.61,86.6456 512.223,86.6318 513.836,86.6183 515.449,86.6053 517.062,86.5927 518.675,86.5804 520.288,86.5686 521.901,86.5571 523.515,86.5459 525.128,86.5351 526.741,86.5246 528.354,86.5144 529.967,86.5045 531.58,86.4949 533.193,86.4856 534.806,86.4765 536.419,86.4678 538.032,86.4593 539.645,86.451 541.258,86.4431 542.872,86.4353 544.485,86.4278 546.098,86.4206 547.711,86.4135 549.324,86.4066 550.937,86.4 552.55,86.3935 554.163,86.3873 555.776,86.3812 557.389,86.3753 559.002,86.3696 560.616,86.3641 562.229,86.3587 563.842,86.3535 565.455,86.3485 567.068,86.3436 568.681,86.3388 570.294,86.3342 571.907,86.3297 573.52,86.3254 575.133,86.3212 576.746,86.3171 578.36,86.3131 579.973,86.3093 581.586,86.3056 583.199,86.302 584.812,86.2985 586.425,86.2951 588.038,86.2918 589.651,86.2886 591.264,86.2855 592.877,86.2825 594.49,86.2796 596.103,86.2767 597.717,86.274 599.33,86.2713 600.943,86.2688 602.556,86.2663 604.169,86.2639 605.782,86.2615 607.395,86.2592 609.008,86.257 610.621,86.2549 612.234,86.2528 613.847,86.2508 615.461,86.2488 617.074,86.2469 618.687,86.245 620.3,86.2433 621.913,86.2415 623.526,86.2399 625.139,86.2382 626.752,86.2367 628.365,86.2351 629.978,86.2336 631.591,86.2322 633.204,86.2308 634.818,86.2294 636.431,86.2281 638.044,86.2268 639.657,86.2256 641.27,86.2244 642.883,86.2232 644.496,86.2221 646.109,86.221 647.722,86.22 649.335,86.2189 650.948,86.2179 652.562,86.2169 654.175,86.216 655.788,86.2151 657.401,86.2142 659.014,86.2133 660.627,86.2125 662.24,86.2117 663.853,86.2109 665.466,86.2102 667.079,86.2094 668.692,86.2087 670.305,86.208 671.919,86.2074 673.532,86.2067 675.145,86.206 676.758,86.2054 678.371,86.2048 679.984,86.2043 681.597,86.2037 683.21,86.2032 684.823,86.2027 686.436,86.2022 688.049,86.2017 689.663,86.2012 691.276,86.2007 692.889,86.2002 694.502,86.1998 696.115,86.1994 697.728,86.199 699.341,86.1986 700.954,86.1982 702.567,86.1978 704.18,86.1975 705.793,86.1971 707.407,86.1968 709.02,86.1964 710.633,86.1961 712.246,86.1958 713.859,86.1955 715.472,86.1952 717.085,86.1949 718.698,86.1946 720.311,86.1943 721.924,86.1941 723.537,86.1938 725.15,86.1936 726.764,86.1934 728.377,86.1931 729.99,86.1929 731.603,86.1927 733.216,86.1925 734.829,86.1923 736.442,86.1921 738.055,86.1919 739.668,86.1917 741.281,86.1915 742.894,86.1913 744.508,86.1912 746.121,86.191 747.734,86.1909 749.347,86.1907 750.96,86.1905 752.573,86.1904 754.186,86.1902 755.799,86.1901 757.412,86.19 759.025,86.1898 760.638,86.1897 762.251,86.1896 763.865,86.1895 765.478,86.1894 767.091,86.1893 768.704,86.1892 770.317,86.1891 771.93,86.189 773.543,86.1889 775.156,86.1887 776.769,86.1886 778.382,86.1886 779.995,86.1885 781.609,86.1884 783.222,86.1883 784.835,86.1882 786.448,86.1882 788.061,86.1881 789.674,86.188 791.287,86.188 792.9,86.1879 794.513,86.1878 796.126,86.1877 797.739,86.1877 799.353,86.1876 800.966,86.1876 802.579,86.1875 804.192,86.1875 805.805,86.1874 807.418,86.1874 809.031,86.1873 810.644,86.1873 812.257,86.1872 813.87,86.1872 815.483,86.1871 817.096,86.1871 818.71,86.187 820.323,86.187 821.936,86.1869 823.549,86.1869 825.162,86.1869 826.775,86.1869 828.388,86.1868 830.001,86.1868 831.614,86.1868 833.227,86.1867 834.84,86.1867 836.454,86.1866 838.067,86.1866 839.68,86.1866 841.293,86.1865 842.906,86.1865 844.519,86.1865 846.132,86.1865 847.745,86.1865 849.358,86.1865 850.971,86.1864 852.584,86.1864 854.197,86.1864 855.811,86.1864 857.424,86.1863 859.037,86.1863 860.65,86.1863 862.263,86.1863 863.876,86.1863 865.489,86.1862 867.102,86.1862 868.715,86.1862 870.328,86.1862 871.941,86.1862 873.555,86.1862 875.168,86.1862 876.781,86.1861 878.394,86.1861 880.007,86.1861 881.62,86.1861 883.233,86.1861 884.846,86.1861 886.459,86.1861 888.072,86.1861 889.685,86.1861 891.299,86.186 892.912,86.186 894.525,86.186 896.138,86.186 897.751,86.186 899.364,86.186 900.977,86.186 902.59,86.186 904.203,86.186 905.816,86.186 907.429,86.186 909.042,86.1859 910.656,86.1859 912.269,86.1859 913.882,86.1859 915.495,86.1859 917.108,86.1859 918.721,86.1859 920.334,86.1859 921.947,86.1859 923.56,86.1859 925.173,86.1859 926.786,86.1859 928.4,86.1859 930.013,86.1859 931.626,86.1859 933.239,86.1859 934.852,86.1858 936.465,86.1858 938.078,86.1858 939.691,86.1858 941.304,86.1858 942.917,86.1858 944.53,86.1858 946.143,86.1858 947.757,86.1858 949.37,86.1858 950.983,86.1858 952.596,86.1858 954.209,86.1858 955.822,86.1858 957.435,86.1858 959.048,86.1858 960.661,86.1858 962.274,86.1858 963.887,86.1858 965.501,86.1858 967.114,86.1858 968.727,86.1858 970.34,86.1858 971.953,86.1858 973.566,86.1858 975.179,86.1858 976.792,86.1858 978.405,86.1857 980.018,86.1857 981.631,86.1857 983.245,86.1857 984.858,86.1857 986.471,86.1857 988.084,86.1858 989.697,86.1858 991.31,86.1858 992.923,86.1858 994.536,86.1858 996.149,86.1857 997.762,86.1857 999.375,86.1857 1000.99,86.1857 1002.6,86.1857 1004.21,86.1857 1005.83,86.1857 1007.44,86.1857 1009.05,86.1857 1010.67,86.1857 1012.28,86.1857 1013.89,86.1857 1015.51,86.1857 1017.12,86.1857 1018.73,86.1857 1020.35,86.1857 1021.96,86.1857 1023.57,86.1857 1025.18,86.1857 1026.8,86.1857 1028.41,86.1857 1030.02,86.1857 1031.64,86.1857 1033.25,86.1857 1034.86,86.1857 1036.48,86.1857 1038.09,86.1857 1039.7,86.1857 1041.32,86.1857 1042.93,86.1857 1044.54,86.1857 1046.15,86.1857 1047.77,86.1857 1049.38,86.1857 1050.99,86.1857 1052.61,86.1857 1054.22,86.1857 1055.83,86.1857 1057.45,86.1857 1059.06,86.1857 1060.67,86.1857 1062.29,86.1857 1063.9,86.1857 1065.51,86.1857 1067.13,86.1857 1068.74,86.1857 1070.35,86.1857 1071.96,86.1857 1073.58,86.1857 1075.19,86.1857 1076.8,86.1857 1078.42,86.1857 1080.03,86.1857 1081.64,86.1857 1083.26,86.1857 1084.87,86.1857 1086.48,86.1857 1088.1,86.1857 1089.71,86.1857 1091.32,86.1857 1092.93,86.1857 1094.55,86.1857 1096.16,86.1857 1097.77,86.1857 1099.39,86.1857 1101,86.1857 1102.61,86.1857 1104.23,86.1857 1105.84,86.1857 1107.45,86.1857 1109.07,86.1857 1110.68,86.1857 1112.29,86.1857 1113.9,86.1857 1115.52,86.1857 1117.13,86.1857 1118.74,86.1857 1120.36,86.1857 1121.97,86.1857 1123.58,86.1857 1125.2,86.1857 1126.81,86.1857 1128.42,86.1857 1130.04,86.1857 1131.65,86.1857 1133.26,86.1857 1134.87,86.1857 1136.49,86.1857 1138.1,86.1857 1139.71,86.1857 1141.33,86.1857 1142.94,86.1857 1144.55,86.1857 1146.17,86.1857 1147.78,86.1857 1149.39,86.1857 1151.01,86.1857 1152.62,86.1857 1154.23,86.1857 1155.84,86.1857 1157.46,86.1857 1159.07,86.1857 1160.68,86.1857 1162.3,86.1857 1163.91,86.1857 1165.52,86.1857 1167.14,86.1857 1168.75,86.1857 1170.36,86.1857 1171.98,86.1857 1173.59,86.1857 1175.2,86.1857 1176.82,86.1857 1178.43,86.1857 1180.04,86.1857 1181.65,86.1857 1183.27,86.1857 1184.88,86.1857 1186.49,86.1857 1188.11,86.1857 1189.72,86.1857 1191.33,86.1857 1192.95,86.1857 1194.56,86.1857 1196.17,86.1857 1197.79,86.1857 1199.4,86.1857 1201.01,86.1857 1202.62,86.1857 1204.24,86.1857 1205.85,86.1857 1207.46,86.1857 1209.08,86.1857 1210.69,86.1857 1212.3,86.1857 1213.92,86.1857 1215.53,86.1857 1217.14,86.1857 1218.76,86.1857 1220.37,86.1857 1221.98,86.1857 1223.59,86.1857 1225.21,86.1857 1226.82,86.1857 1228.43,86.1857 1230.05,86.1857 1231.66,86.1857 1233.27,86.1857 1234.89,86.1857 1236.5,86.1857 1238.11,86.1857 1239.73,86.1857 1241.34,86.1857 1242.95,86.1857 1244.56,86.1857 1246.18,86.1857 1247.79,86.1857 1249.4,86.1857 1251.02,86.1857 1252.63,86.1857 1254.24,86.1857 1255.86,86.1857 1257.47,86.1857 1259.08,86.1857 1260.7,86.1857 1262.31,86.1857 1263.92,86.1857 1265.53,86.1857 1267.15,86.1857 1268.76,86.1857 1270.37,86.1857 1271.99,86.1857 1273.6,86.1857 1275.21,86.1857 1276.83,86.1857 1278.44,86.1857 1280.05,86.1857 1281.67,86.1857 1283.28,86.1857 1284.89,86.1857 1286.5,86.1857 1288.12,86.1857 1289.73,86.1857 1291.34,86.1857 1292.96,86.1857 1294.57,86.1857 1296.18,86.1857 1297.8,86.1857 1299.41,86.1857 1301.02,86.1857 1302.64,86.1857 1304.25,86.1857 1305.86,86.1857 1307.48,86.1857 1309.09,86.1857 1310.7,86.1857 1312.31,86.1857 1313.93,86.1857 1315.54,86.1857 1317.15,86.1857 1318.77,86.1857 1320.38,86.1857 1321.99,86.1857 1323.61,86.1857 1325.22,86.1857 1326.83,86.1857 1328.45,86.1857 1330.06,86.1857 1331.67,86.1857 1333.28,86.1857 1334.9,86.1857 1336.51,86.1857 1338.12,86.1857 1339.74,86.1857 1341.35,86.1857 1342.96,86.1857 1344.58,86.1857 1346.19,86.1857 1347.8,86.1857 1349.42,86.1857 1351.03,86.1857 1352.64,86.1857 1354.25,86.1857 1355.87,86.1857 1357.48,86.1857 1359.09,86.1857 1360.71,86.1857 1362.32,86.1857 1363.93,86.1857 1365.55,86.1857 1367.16,86.1857 1368.77,86.1857 1370.39,86.1857 1372,86.1857 1373.61,86.1857 1375.22,86.1857 1376.84,86.1857 1378.45,86.1857 1380.06,86.1857 1381.68,86.1857 1383.29,86.1857 1384.9,86.1857 1386.52,86.1857 1388.13,86.1857 1389.74,86.1857 1391.36,86.1857 1392.97,86.1857 1394.58,86.1857 1396.19,86.1857 1397.81,86.1857 1399.42,86.1857 1401.03,86.1857 1402.65,86.1857 1404.26,86.1857 1405.87,86.1857 1407.49,86.1857 1409.1,86.1857 1410.71,86.1857 1412.33,86.1857 1413.94,86.1857 1415.55,86.1857 1417.17,86.1857 1418.78,86.1857 1420.39,86.1857 1422,86.1857 1423.62,86.1857 1425.23,86.1857 1426.84,86.1857 1428.46,86.1857 1430.07,86.1857 1431.68,86.1857 1433.3,86.1857 1434.91,86.1857 1436.52,86.1857 1438.14,86.1857 1439.75,86.1857 1441.36,86.1857 1442.97,86.1857 1444.59,86.1857 1446.2,86.1857 1447.81,86.1857 1449.43,86.1857 1451.04,86.1857 1452.65,86.1857 1454.27,86.1857 1455.88,86.1857 1457.49,86.1857 1459.11,86.1857 1460.72,86.1857 1462.33,86.1857 1463.94,86.1857 1465.56,86.1857 1467.17,86.1857 1468.78,86.1857 1470.4,86.1857 1472.01,86.1857 1473.62,86.1857 1475.24,86.1857 1476.85,86.1857 1478.46,86.1857 1480.08,86.1857 1481.69,86.1857 1483.3,86.1857 1484.91,86.1857 1486.53,86.1857 1488.14,86.1857 1489.75,86.1857 1491.37,86.1857 1492.98,86.1857 1494.59,86.1857 1496.21,86.1857 1497.82,86.1857 1499.43,86.1857 1501.05,86.1857 1502.66,86.1857 1504.27,86.1857 1505.88,86.1857 1507.5,86.1857 1509.11,86.1857 1510.72,86.1857 1512.34,86.1857 1513.95,86.1857 1515.56,86.1857 1517.18,86.1857 1518.79,86.1857 1520.4,86.1857 1522.02,86.1857 1523.63,86.1857 1525.24,86.1857 1526.86,86.1857 1528.47,86.1857 1530.08,86.1857 1531.69,86.1857 1533.31,86.1857 1534.92,86.1857 1536.53,86.1857 1538.15,86.1857 1539.76,86.1857 1541.37,86.1857 1542.99,86.1857 1544.6,86.1857 1546.21,86.1857 1547.83,86.1857 1549.44,86.1857 1551.05,86.1857 1552.66,86.1857 1554.28,86.1857 1555.89,86.1857 1557.5,86.1857 1559.12,86.1857 1560.73,86.1857 1562.34,86.1857 1563.96,86.1857 1565.57,86.1857 1567.18,86.1857 1568.8,86.1857 1570.41,86.1857 1572.02,86.1857 1573.63,86.1857 1575.25,86.1857 1576.86,86.1857 1578.47,86.1857 1580.09,86.1857 1581.7,86.1857 1583.31,86.1857 1584.93,86.1857 1586.54,86.1857 1588.15,86.1857 1589.77,86.1857 1591.38,86.1857 1592.99,86.1857 1594.6,86.1857 1596.22,86.1857 1597.83,86.1857 1599.44,86.1857 1601.06,86.1857 1602.67,86.1857 1604.28,86.1857 1605.9,86.1857 1607.51,86.1857 1609.12,86.1857 1610.74,86.1857 1612.35,86.1857 1613.96,86.1857 1615.57,86.1857 1617.19,86.1857 1618.8,86.1857 1620.41,86.1857 1622.03,86.1857 1623.64,86.1857 1625.25,86.1857 1626.87,86.1857 1628.48,86.1857 1630.09,86.1857 1631.71,86.1857 1633.32,86.1857 1634.93,86.1857 1636.54,86.1857 1638.16,86.1857 1639.77,86.1857 1641.38,86.1857 1643,86.1857 1644.61,86.1857 1646.22,86.1857 1647.84,86.1857 1649.45,86.1857 1651.06,86.1857 1652.68,86.1857 1654.29,86.1857 1655.9,86.1857 1657.52,86.1857 1659.13,86.1857 1660.74,86.1857 1662.35,86.1857 1663.97,86.1857 1665.58,86.1857 1667.19,86.1857 1668.81,86.1857 1670.42,86.1857 1672.03,86.1857 1673.65,86.1857 1675.26,86.1857 1676.87,86.1857 1678.49,86.1857 1680.1,86.1857 1681.71,86.1857 1683.32,86.1857 1684.94,86.1857 1686.55,86.1857 1688.16,86.1857 1689.78,86.1857 1691.39,86.1857 1693,86.1857 1694.62,86.1857 1696.23,86.1857 1697.84,86.1857 1699.46,86.1857 1701.07,86.1857 1702.68,86.1857 1704.29,86.1857 1705.91,86.1857 1707.52,86.1857 1709.13,86.1857 1710.75,86.1857 1712.36,86.1857 1713.97,86.1857 1715.59,86.1857 1717.2,86.1857 1718.81,86.1857 1720.43,86.1857 1722.04,86.1857 1723.65,86.1857 1725.26,86.1857 1726.88,86.1857 1728.49,86.1857 1730.1,86.1857 1731.72,86.1857 1733.33,86.1857 1734.94,86.1857 1736.56,86.1857 1738.17,86.1857 1739.78,86.1857 1741.4,86.1857 1743.01,86.1857 1744.62,86.1857 1746.23,86.1857 1747.85,86.1857 1749.46,86.1857 1751.07,86.1857 1752.69,86.1857 1754.3,86.1857 1755.91,86.1857 1757.53,86.1857 1759.14,86.1857 1760.75,86.1857 1762.37,86.1857 1763.98,86.1857 1765.59,86.1857 1767.21,86.1857 1768.82,86.1857 1770.43,86.1857 1772.04,86.1857 1773.66,86.1857 1775.27,86.1857 1776.88,86.1857 1778.5,86.1857 1780.11,86.1857 1781.72,86.1857 1783.34,86.1857 1784.95,86.1857 1786.56,86.1857 1788.18,86.1857 1789.79,86.1857 1791.4,86.1857 1793.01,86.1857 1794.63,86.1857 1796.24,86.1857 1797.85,86.1857 1799.47,86.1857 1801.08,86.1857 1802.69,86.1857 1804.31,86.1857 1805.92,86.1857 1807.53,86.1857 1809.15,86.1857 1810.76,86.1857 1812.37,86.1857 1813.98,86.1857 1815.6,86.1857 1817.21,86.1857 1818.82,86.1857 1820.44,86.1857 1822.05,86.1857 1823.66,86.1857 1825.28,86.1857 1826.89,86.1857 1828.5,86.1857 1830.12,86.1857 1831.73,86.1857 1833.34,86.1857 1834.95,86.1857 1836.57,86.1857 1838.18,86.1857 1839.79,86.1857 1841.41,86.1857 1843.02,86.1857 1844.63,86.1857 1846.25,86.1857 1847.86,86.1857 1849.47,86.1857 1851.09,86.1857 1852.7,86.1857 1854.31,86.1857 1855.92,86.1857 1857.54,86.1857 1859.15,86.1857 1860.76,86.1857 1862.38,86.1857 1863.99,86.1857 1865.6,86.1857 1867.22,86.1857 1868.83,86.1857 1870.44,86.1857 1872.06,86.1857 1873.67,86.1857 1875.28,86.1857 1876.9,86.1857 1878.51,86.1857 1880.12,86.1857 1881.73,86.1857 1883.35,86.1857 1884.96,86.1857 1886.57,86.1857 1888.19,86.1857 1889.8,86.1857 1891.41,86.1857 1893.03,86.1857 1894.64,86.1857 1896.25,86.1857 1897.87,86.1857 1899.48,86.1857 1901.09,86.1857 1902.7,86.1857 1904.32,86.1857 1905.93,86.1857 1907.54,86.1857 1909.16,86.1857 1910.77,86.1857 1912.38,86.1857 1914,86.1857 1915.61,86.1857 1917.22,86.1857 1918.84,86.1857 1920.45,86.1857 1922.06,86.1857 1923.67,86.1857 1925.29,86.1857 1926.9,86.1857 1928.51,86.1857 1930.13,86.1857 1931.74,86.1857 1933.35,86.1857 1934.97,86.1857 1936.58,86.1857 1938.19,86.1857 1939.81,86.1857 1941.42,86.1857 1943.03,86.1857 1944.64,86.1857 1946.26,86.1857 1947.87,86.1857 1949.48,86.1857 1951.1,86.1857 1952.71,86.1857 1954.32,86.1857 1955.94,86.1857 1957.55,86.1857 1959.16,86.1857 1960.78,86.1857 1962.39,86.1857 1964,86.1857 1965.61,86.1857 1967.23,86.1857 1968.84,86.1857 1970.45,86.1857 1972.07,86.1857 1973.68,86.1857 1975.29,86.1857 1976.91,86.1857 1978.52,86.1857 1980.13,86.1857 1981.75,86.1857 1983.36,86.1857 1984.97,86.1857 1986.59,86.1857 1988.2,86.1857 1989.81,86.1857 1991.42,86.1857 1993.04,86.1857 1994.65,86.1857 1996.26,86.1857 1997.88,86.1857 1999.49,86.1857 2001.1,86.1857 2002.72,86.1857 2004.33,86.1857 2005.94,86.1857 2007.56,86.1857 2009.17,86.1857 2010.78,86.1857 2012.39,86.1857 2014.01,86.1857 2015.62,86.1857 2017.23,86.1857 2018.85,86.1857 2020.46,86.1857 2022.07,86.1857 2023.69,86.1857 2025.3,86.1857 2026.91,86.1857 2028.53,86.1857 2030.14,86.1857 2031.75,86.1857 2033.36,86.1857 2034.98,86.1857 2036.59,86.1857 2038.2,86.1857 2039.82,86.1857 2041.43,86.1857 2043.04,86.1857 2044.66,86.1857 2046.27,86.1857 2047.88,86.1857 2049.5,86.1857 2051.11,86.1857 2052.72,86.1857 2054.33,86.1857 2055.95,86.1857 2057.56,86.1857 2059.17,86.1857 2060.79,86.1857 2062.4,86.1857 2064.01,86.1857 2065.63,86.1857 2067.24,86.1857 2068.85,86.1857 2070.47,86.1857 2072.08,86.1857 2073.69,86.1857 2075.3,86.1857 2076.92,86.1857 2078.53,86.1857 2080.14,86.1857 2081.76,86.1857 2083.37,86.1857 2084.98,86.1857 2086.6,86.1857 2088.21,86.1857 2089.82,86.1857 2091.44,86.1857 2093.05,86.1857 2094.66,86.1857 2096.27,86.1857 2097.89,86.1857 2099.5,86.1857 2101.11,86.1857 2102.73,86.1857 2104.34,86.1857 2105.95,86.1857 2107.57,86.1857 2109.18,86.1857 2110.79,86.1857 2112.41,86.1857 2114.02,86.1857 2115.63,86.1857 2117.25,86.1857 2118.86,86.1857 2120.47,86.1857 2122.08,86.1857 2123.7,86.1857 2125.31,86.1857 2126.92,86.1857 2128.54,86.1857 2130.15,86.1857 2131.76,86.1857 2133.38,86.1857 2134.99,86.1857 2136.6,86.1857 2138.22,86.1857 2139.83,86.1857 2141.44,86.1857 2143.05,86.1857 2144.67,86.1857 2146.28,86.1857 2147.89,86.1857 2149.51,86.1857 2151.12,86.1857 2152.73,86.1857 2154.35,86.1857 2155.96,86.1857 2157.57,86.1857 2159.19,86.1857 2160.8,86.1857 2162.41,86.1857 2164.02,86.1857 2165.64,86.1857 2167.25,86.1857 2168.86,86.1857 2170.48,86.1857 2172.09,86.1857 2173.7,86.1857 2175.32,86.1857 2176.93,86.1857 2178.54,86.1857 2180.16,86.1857 2181.77,86.1857 2183.38,86.1857 2184.99,86.1857 2186.61,86.1857 2188.22,86.1857 2189.83,86.1857 2191.45,86.1857 2193.06,86.1857 2194.67,86.1857 2196.29,86.1857 2197.9,86.1857 2199.51,86.1857 2201.13,86.1857 2202.74,86.1857 2204.35,86.1857 2205.96,86.1857 2207.58,86.1857 2209.19,86.1857 2210.8,86.1857 2212.42,86.1857 2214.03,86.1857 2215.64,86.1857 2217.26,86.1857 2218.87,86.1857 2220.48,86.1857 2222.1,86.1857 2223.71,86.1857 2225.32,86.1857 2226.94,86.1857 2228.55,86.1857 2230.16,86.1857 2231.77,86.1857 2233.39,86.1857 2235,86.1857 2236.61,86.1857 2238.23,86.1857 2239.84,86.1857 2241.45,86.1857 2243.07,86.1857 2244.68,86.1857 2246.29,86.1857 2247.91,86.1857 2249.52,86.1857 2251.13,86.1857 2252.74,86.1857 2254.36,86.1857 2255.97,86.1857 2257.58,86.1857 2259.2,86.1857 2260.81,86.1857 2262.42,86.1857 2264.04,86.1857 2265.65,86.1857 2267.26,86.1857 2268.88,86.1857 2270.49,86.1857 2272.1,86.1857 2273.71,86.1857 2275.33,86.1857 2276.94,86.1857 2278.55,86.1857 2280.17,86.1857 2281.78,86.1857 2283.39,86.1857 2285.01,86.1857 2286.62,86.1857 2288.23,86.1857 2289.85,86.1857 2291.46,86.1857 2293.07,86.1857 2294.68,86.1857 2296.3,86.1857 2297.91,86.1857 2299.52,86.1857 2301.14,86.1857 2302.75,86.1857 2304.36,86.1857 2305.98,86.1857 2307.59,86.1857 2309.2,86.1857 2310.82,86.1857 2312.43,86.1857 2314.04,86.1857 2315.65,86.1857 2317.27,86.1857 2318.88,86.1857 2320.49,86.1857 2322.11,86.1857 2323.72,86.1857 2325.33,86.1857 2326.95,86.1857 2328.56,86.1857 2330.17,86.1857 2331.79,86.1857 2333.4,86.1857 2335.01,86.1857 2336.63,86.1857 2338.24,86.1857 2339.85,86.1857 2341.46,86.1857 2343.08,86.1857 2344.69,86.1857 2346.3,86.1857 2347.92,86.1857 2349.53,86.1857 2351.14,86.1857 2352.76,86.1857 "/>
<polyline clip-path="url(#clip651)" style="stroke:#e26f46; stroke-linecap:round; stroke-linejoin:round; stroke-width:4; stroke-opacity:1; fill:none" points="112.177,1384.24 113.79,1316.15 115.403,1265.01 117.016,1232.41 118.63,1214.65 120.243,1205.02 121.856,1199.11 123.469,1194.81 125.082,1191.17 126.695,1187.78 128.308,1184.45 129.921,1181.11 131.534,1177.73 133.147,1174.31 134.76,1170.85 136.373,1167.4 137.987,1163.96 139.6,1160.57 141.213,1157.32 142.826,1154.26 144.439,1151.52 146.052,1149.22 147.665,1147.45 149.278,1146.32 150.891,1145.87 152.504,1146.04 154.117,1146.81 155.731,1148.1 157.344,1149.78 158.957,1151.82 160.57,1154.16 162.183,1156.71 163.796,1159.48 165.409,1162.42 167.022,1165.47 168.635,1168.6 170.248,1171.82 171.861,1175.07 173.475,1178.35 175.088,1181.67 176.701,1185.01 178.314,1188.31 179.927,1191.57 181.54,1194.75 183.153,1197.78 184.766,1200.62 186.379,1203.27 187.992,1205.7 189.605,1207.92 191.218,1209.95 192.832,1211.77 194.445,1213.42 196.058,1214.93 197.671,1216.31 199.284,1217.57 200.897,1218.72 202.51,1219.77 204.123,1220.74 205.736,1221.63 207.349,1222.44 208.962,1223.19 210.576,1223.88 212.189,1224.52 213.802,1225.11 215.415,1225.66 217.028,1226.17 218.641,1226.64 220.254,1227.08 221.867,1227.49 223.48,1227.88 225.093,1228.24 226.706,1228.59 228.319,1228.91 229.933,1229.23 231.546,1229.52 233.159,1229.81 234.772,1230.09 236.385,1230.36 237.998,1230.62 239.611,1230.88 241.224,1231.13 242.837,1231.38 244.45,1231.63 246.063,1231.87 247.677,1232.11 249.29,1232.35 250.903,1232.59 252.516,1232.83 254.129,1233.06 255.742,1233.3 257.355,1233.54 258.968,1233.78 260.581,1234.02 262.194,1234.26 263.807,1234.49 265.421,1234.73 267.034,1234.96 268.647,1235.2 270.26,1235.43 271.873,1235.66 273.486,1235.89 275.099,1236.12 276.712,1236.34 278.325,1236.56 279.938,1236.78 281.551,1237 283.164,1237.22 284.778,1237.43 286.391,1237.64 288.004,1237.85 289.617,1238.05 291.23,1238.25 292.843,1238.44 294.456,1238.63 296.069,1238.82 297.682,1239.01 299.295,1239.19 300.908,1239.36 302.522,1239.53 304.135,1239.7 305.748,1239.87 307.361,1240.03 308.974,1240.19 310.587,1240.34 312.2,1240.49 313.813,1240.64 315.426,1240.78 317.039,1240.92 318.652,1241.06 320.265,1241.19 321.879,1241.32 323.492,1241.45 325.105,1241.57 326.718,1241.69 328.331,1241.8 329.944,1241.92 331.557,1242.03 333.17,1242.13 334.783,1242.24 336.396,1242.34 338.009,1242.44 339.623,1242.53 341.236,1242.63 342.849,1242.72 344.462,1242.8 346.075,1242.89 347.688,1242.97 349.301,1243.05 350.914,1243.13 352.527,1243.21 354.14,1243.28 355.753,1243.36 357.366,1243.43 358.98,1243.49 360.593,1243.56 362.206,1243.62 363.819,1243.69 365.432,1243.75 367.045,1243.81 368.658,1243.86 370.271,1243.92 371.884,1243.97 373.497,1244.03 375.11,1244.08 376.724,1244.13 378.337,1244.17 379.95,1244.22 381.563,1244.27 383.176,1244.31 384.789,1244.35 386.402,1244.39 388.015,1244.43 389.628,1244.47 391.241,1244.51 392.854,1244.55 394.468,1244.58 396.081,1244.62 397.694,1244.65 399.307,1244.68 400.92,1244.71 402.533,1244.75 404.146,1244.78 405.759,1244.8 407.372,1244.83 408.985,1244.86 410.598,1244.89 412.211,1244.91 413.825,1244.94 415.438,1244.96 417.051,1244.98 418.664,1245.01 420.277,1245.03 421.89,1245.05 423.503,1245.07 425.116,1245.09 426.729,1245.11 428.342,1245.13 429.955,1245.15 431.569,1245.17 433.182,1245.18 434.795,1245.2 436.408,1245.22 438.021,1245.23 439.634,1245.25 441.247,1245.26 442.86,1245.28 444.473,1245.29 446.086,1245.3 447.699,1245.32 449.312,1245.33 450.926,1245.34 452.539,1245.35 454.152,1245.37 455.765,1245.38 457.378,1245.39 458.991,1245.4 460.604,1245.41 462.217,1245.42 463.83,1245.43 465.443,1245.44 467.056,1245.45 468.67,1245.46 470.283,1245.47 471.896,1245.47 473.509,1245.48 475.122,1245.49 476.735,1245.5 478.348,1245.51 479.961,1245.51 481.574,1245.52 483.187,1245.53 484.8,1245.53 486.414,1245.54 488.027,1245.54 489.64,1245.55 491.253,1245.56 492.866,1245.56 494.479,1245.57 496.092,1245.57 497.705,1245.58 499.318,1245.58 500.931,1245.59 502.544,1245.59 504.157,1245.6 505.771,1245.6 507.384,1245.61 508.997,1245.61 510.61,1245.61 512.223,1245.62 513.836,1245.62 515.449,1245.63 517.062,1245.63 518.675,1245.63 520.288,1245.64 521.901,1245.64 523.515,1245.64 525.128,1245.65 526.741,1245.65 528.354,1245.65 529.967,1245.65 531.58,1245.66 533.193,1245.66 534.806,1245.66 536.419,1245.66 538.032,1245.67 539.645,1245.67 541.258,1245.67 542.872,1245.67 544.485,1245.68 546.098,1245.68 547.711,1245.68 549.324,1245.68 550.937,1245.68 552.55,1245.69 554.163,1245.69 555.776,1245.69 557.389,1245.69 559.002,1245.69 560.616,1245.69 562.229,1245.7 563.842,1245.7 565.455,1245.7 567.068,1245.7 568.681,1245.7 570.294,1245.7 571.907,1245.7 573.52,1245.7 575.133,1245.71 576.746,1245.71 578.36,1245.71 579.973,1245.71 581.586,1245.71 583.199,1245.71 584.812,1245.71 586.425,1245.71 588.038,1245.71 589.651,1245.72 591.264,1245.72 592.877,1245.72 594.49,1245.72 596.103,1245.72 597.717,1245.72 599.33,1245.72 600.943,1245.72 602.556,1245.72 604.169,1245.72 605.782,1245.72 607.395,1245.72 609.008,1245.72 610.621,1245.72 612.234,1245.73 613.847,1245.73 615.461,1245.73 617.074,1245.73 618.687,1245.73 620.3,1245.73 621.913,1245.73 623.526,1245.73 625.139,1245.73 626.752,1245.73 628.365,1245.73 629.978,1245.73 631.591,1245.73 633.204,1245.73 634.818,1245.73 636.431,1245.73 638.044,1245.73 639.657,1245.73 641.27,1245.73 642.883,1245.73 644.496,1245.73 646.109,1245.73 647.722,1245.73 649.335,1245.74 650.948,1245.74 652.562,1245.74 654.175,1245.74 655.788,1245.74 657.401,1245.74 659.014,1245.74 660.627,1245.74 662.24,1245.74 663.853,1245.74 665.466,1245.74 667.079,1245.74 668.692,1245.74 670.305,1245.74 671.919,1245.74 673.532,1245.74 675.145,1245.74 676.758,1245.74 678.371,1245.74 679.984,1245.74 681.597,1245.74 683.21,1245.74 684.823,1245.74 686.436,1245.74 688.049,1245.74 689.663,1245.74 691.276,1245.74 692.889,1245.74 694.502,1245.74 696.115,1245.74 697.728,1245.74 699.341,1245.74 700.954,1245.74 702.567,1245.74 704.18,1245.74 705.793,1245.74 707.407,1245.74 709.02,1245.74 710.633,1245.74 712.246,1245.74 713.859,1245.74 715.472,1245.74 717.085,1245.74 718.698,1245.74 720.311,1245.74 721.924,1245.74 723.537,1245.74 725.15,1245.74 726.764,1245.74 728.377,1245.74 729.99,1245.74 731.603,1245.74 733.216,1245.74 734.829,1245.74 736.442,1245.74 738.055,1245.74 739.668,1245.74 741.281,1245.74 742.894,1245.74 744.508,1245.74 746.121,1245.74 747.734,1245.74 749.347,1245.74 750.96,1245.74 752.573,1245.74 754.186,1245.74 755.799,1245.74 757.412,1245.74 759.025,1245.74 760.638,1245.74 762.251,1245.74 763.865,1245.74 765.478,1245.74 767.091,1245.74 768.704,1245.74 770.317,1245.74 771.93,1245.74 773.543,1245.74 775.156,1245.74 776.769,1245.74 778.382,1245.74 779.995,1245.74 781.609,1245.74 783.222,1245.74 784.835,1245.74 786.448,1245.74 788.061,1245.74 789.674,1245.74 791.287,1245.74 792.9,1245.74 794.513,1245.74 796.126,1245.74 797.739,1245.74 799.353,1245.74 800.966,1245.74 802.579,1245.74 804.192,1245.74 805.805,1245.74 807.418,1245.74 809.031,1245.74 810.644,1245.74 812.257,1245.74 813.87,1245.74 815.483,1245.74 817.096,1245.74 818.71,1245.74 820.323,1245.74 821.936,1245.74 823.549,1245.74 825.162,1245.74 826.775,1245.74 828.388,1245.74 830.001,1245.74 831.614,1245.74 833.227,1245.74 834.84,1245.74 836.454,1245.74 838.067,1245.74 839.68,1245.74 841.293,1245.74 842.906,1245.74 844.519,1245.74 846.132,1245.74 847.745,1245.74 849.358,1245.74 850.971,1245.74 852.584,1245.74 854.197,1245.74 855.811,1245.74 857.424,1245.74 859.037,1245.74 860.65,1245.74 862.263,1245.74 863.876,1245.74 865.489,1245.74 867.102,1245.74 868.715,1245.74 870.328,1245.74 871.941,1245.74 873.555,1245.74 875.168,1245.74 876.781,1245.74 878.394,1245.74 880.007,1245.74 881.62,1245.74 883.233,1245.74 884.846,1245.74 886.459,1245.74 888.072,1245.74 889.685,1245.74 891.299,1245.74 892.912,1245.74 894.525,1245.74 896.138,1245.74 897.751,1245.74 899.364,1245.74 900.977,1245.74 902.59,1245.74 904.203,1245.74 905.816,1245.74 907.429,1245.74 909.042,1245.74 910.656,1245.74 912.269,1245.74 913.882,1245.74 915.495,1245.74 917.108,1245.74 918.721,1245.74 920.334,1245.74 921.947,1245.74 923.56,1245.74 925.173,1245.74 926.786,1245.74 928.4,1245.74 930.013,1245.74 931.626,1245.74 933.239,1245.74 934.852,1245.74 936.465,1245.74 938.078,1245.74 939.691,1245.74 941.304,1245.74 942.917,1245.74 944.53,1245.74 946.143,1245.74 947.757,1245.74 949.37,1245.74 950.983,1245.74 952.596,1245.74 954.209,1245.74 955.822,1245.74 957.435,1245.74 959.048,1245.74 960.661,1245.74 962.274,1245.74 963.887,1245.74 965.501,1245.74 967.114,1245.74 968.727,1245.74 970.34,1245.74 971.953,1245.74 973.566,1245.74 975.179,1245.74 976.792,1245.74 978.405,1245.74 980.018,1245.74 981.631,1245.74 983.245,1245.74 984.858,1245.74 986.471,1245.74 988.084,1245.74 989.697,1245.74 991.31,1245.74 992.923,1245.74 994.536,1245.74 996.149,1245.74 997.762,1245.74 999.375,1245.74 1000.99,1245.74 1002.6,1245.74 1004.21,1245.74 1005.83,1245.74 1007.44,1245.74 1009.05,1245.74 1010.67,1245.74 1012.28,1245.74 1013.89,1245.74 1015.51,1245.74 1017.12,1245.74 1018.73,1245.74 1020.35,1245.74 1021.96,1245.74 1023.57,1245.74 1025.18,1245.74 1026.8,1245.74 1028.41,1245.74 1030.02,1245.74 1031.64,1245.74 1033.25,1245.74 1034.86,1245.74 1036.48,1245.74 1038.09,1245.74 1039.7,1245.74 1041.32,1245.74 1042.93,1245.74 1044.54,1245.74 1046.15,1245.74 1047.77,1245.74 1049.38,1245.74 1050.99,1245.74 1052.61,1245.74 1054.22,1245.74 1055.83,1245.74 1057.45,1245.74 1059.06,1245.74 1060.67,1245.74 1062.29,1245.74 1063.9,1245.74 1065.51,1245.74 1067.13,1245.74 1068.74,1245.74 1070.35,1245.74 1071.96,1245.74 1073.58,1245.74 1075.19,1245.74 1076.8,1245.74 1078.42,1245.74 1080.03,1245.74 1081.64,1245.74 1083.26,1245.74 1084.87,1245.74 1086.48,1245.74 1088.1,1245.74 1089.71,1245.74 1091.32,1245.74 1092.93,1245.74 1094.55,1245.74 1096.16,1245.74 1097.77,1245.74 1099.39,1245.74 1101,1245.74 1102.61,1245.74 1104.23,1245.74 1105.84,1245.74 1107.45,1245.74 1109.07,1245.74 1110.68,1245.74 1112.29,1245.74 1113.9,1245.74 1115.52,1245.74 1117.13,1245.74 1118.74,1245.74 1120.36,1245.74 1121.97,1245.74 1123.58,1245.74 1125.2,1245.74 1126.81,1245.74 1128.42,1245.74 1130.04,1245.74 1131.65,1245.74 1133.26,1245.74 1134.87,1245.74 1136.49,1245.74 1138.1,1245.74 1139.71,1245.74 1141.33,1245.74 1142.94,1245.74 1144.55,1245.74 1146.17,1245.74 1147.78,1245.74 1149.39,1245.74 1151.01,1245.74 1152.62,1245.74 1154.23,1245.74 1155.84,1245.74 1157.46,1245.74 1159.07,1245.74 1160.68,1245.74 1162.3,1245.74 1163.91,1245.74 1165.52,1245.74 1167.14,1245.74 1168.75,1245.74 1170.36,1245.74 1171.98,1245.74 1173.59,1245.74 1175.2,1245.74 1176.82,1245.74 1178.43,1245.74 1180.04,1245.74 1181.65,1245.74 1183.27,1245.74 1184.88,1245.74 1186.49,1245.74 1188.11,1245.74 1189.72,1245.74 1191.33,1245.74 1192.95,1245.74 1194.56,1245.74 1196.17,1245.74 1197.79,1245.74 1199.4,1245.74 1201.01,1245.74 1202.62,1245.74 1204.24,1245.74 1205.85,1245.74 1207.46,1245.74 1209.08,1245.74 1210.69,1245.74 1212.3,1245.74 1213.92,1245.74 1215.53,1245.74 1217.14,1245.74 1218.76,1245.74 1220.37,1245.74 1221.98,1245.74 1223.59,1245.74 1225.21,1245.74 1226.82,1245.74 1228.43,1245.74 1230.05,1245.74 1231.66,1245.74 1233.27,1245.74 1234.89,1245.74 1236.5,1245.74 1238.11,1245.74 1239.73,1245.74 1241.34,1245.74 1242.95,1245.74 1244.56,1245.74 1246.18,1245.74 1247.79,1245.74 1249.4,1245.74 1251.02,1245.74 1252.63,1245.74 1254.24,1245.74 1255.86,1245.74 1257.47,1245.74 1259.08,1245.74 1260.7,1245.74 1262.31,1245.74 1263.92,1245.74 1265.53,1245.74 1267.15,1245.74 1268.76,1245.74 1270.37,1245.74 1271.99,1245.74 1273.6,1245.74 1275.21,1245.74 1276.83,1245.74 1278.44,1245.74 1280.05,1245.74 1281.67,1245.74 1283.28,1245.74 1284.89,1245.74 1286.5,1245.74 1288.12,1245.74 1289.73,1245.74 1291.34,1245.74 1292.96,1245.74 1294.57,1245.74 1296.18,1245.74 1297.8,1245.74 1299.41,1245.74 1301.02,1245.74 1302.64,1245.74 1304.25,1245.74 1305.86,1245.74 1307.48,1245.74 1309.09,1245.74 1310.7,1245.74 1312.31,1245.74 1313.93,1245.74 1315.54,1245.74 1317.15,1245.74 1318.77,1245.74 1320.38,1245.74 1321.99,1245.74 1323.61,1245.74 1325.22,1245.74 1326.83,1245.74 1328.45,1245.74 1330.06,1245.74 1331.67,1245.74 1333.28,1245.74 1334.9,1245.74 1336.51,1245.74 1338.12,1245.74 1339.74,1245.74 1341.35,1245.74 1342.96,1245.74 1344.58,1245.74 1346.19,1245.74 1347.8,1245.74 1349.42,1245.74 1351.03,1245.74 1352.64,1245.74 1354.25,1245.74 1355.87,1245.74 1357.48,1245.74 1359.09,1245.74 1360.71,1245.74 1362.32,1245.74 1363.93,1245.74 1365.55,1245.74 1367.16,1245.74 1368.77,1245.74 1370.39,1245.74 1372,1245.74 1373.61,1245.74 1375.22,1245.74 1376.84,1245.74 1378.45,1245.74 1380.06,1245.74 1381.68,1245.74 1383.29,1245.74 1384.9,1245.74 1386.52,1245.74 1388.13,1245.74 1389.74,1245.74 1391.36,1245.74 1392.97,1245.74 1394.58,1245.74 1396.19,1245.74 1397.81,1245.74 1399.42,1245.74 1401.03,1245.74 1402.65,1245.74 1404.26,1245.74 1405.87,1245.74 1407.49,1245.74 1409.1,1245.74 1410.71,1245.74 1412.33,1245.74 1413.94,1245.74 1415.55,1245.74 1417.17,1245.74 1418.78,1245.74 1420.39,1245.74 1422,1245.74 1423.62,1245.74 1425.23,1245.74 1426.84,1245.74 1428.46,1245.74 1430.07,1245.74 1431.68,1245.74 1433.3,1245.74 1434.91,1245.74 1436.52,1245.74 1438.14,1245.74 1439.75,1245.74 1441.36,1245.74 1442.97,1245.74 1444.59,1245.74 1446.2,1245.74 1447.81,1245.74 1449.43,1245.74 1451.04,1245.74 1452.65,1245.74 1454.27,1245.74 1455.88,1245.74 1457.49,1245.74 1459.11,1245.74 1460.72,1245.74 1462.33,1245.74 1463.94,1245.74 1465.56,1245.74 1467.17,1245.74 1468.78,1245.74 1470.4,1245.74 1472.01,1245.74 1473.62,1245.74 1475.24,1245.74 1476.85,1245.74 1478.46,1245.74 1480.08,1245.74 1481.69,1245.74 1483.3,1245.74 1484.91,1245.74 1486.53,1245.74 1488.14,1245.74 1489.75,1245.74 1491.37,1245.74 1492.98,1245.74 1494.59,1245.74 1496.21,1245.74 1497.82,1245.74 1499.43,1245.74 1501.05,1245.74 1502.66,1245.74 1504.27,1245.74 1505.88,1245.74 1507.5,1245.74 1509.11,1245.74 1510.72,1245.74 1512.34,1245.74 1513.95,1245.74 1515.56,1245.74 1517.18,1245.74 1518.79,1245.74 1520.4,1245.74 1522.02,1245.74 1523.63,1245.74 1525.24,1245.74 1526.86,1245.74 1528.47,1245.74 1530.08,1245.74 1531.69,1245.74 1533.31,1245.74 1534.92,1245.74 1536.53,1245.74 1538.15,1245.74 1539.76,1245.74 1541.37,1245.74 1542.99,1245.74 1544.6,1245.74 1546.21,1245.74 1547.83,1245.74 1549.44,1245.74 1551.05,1245.74 1552.66,1245.74 1554.28,1245.74 1555.89,1245.74 1557.5,1245.74 1559.12,1245.74 1560.73,1245.74 1562.34,1245.74 1563.96,1245.74 1565.57,1245.74 1567.18,1245.74 1568.8,1245.74 1570.41,1245.74 1572.02,1245.74 1573.63,1245.74 1575.25,1245.74 1576.86,1245.74 1578.47,1245.74 1580.09,1245.74 1581.7,1245.74 1583.31,1245.74 1584.93,1245.74 1586.54,1245.74 1588.15,1245.74 1589.77,1245.74 1591.38,1245.74 1592.99,1245.74 1594.6,1245.74 1596.22,1245.74 1597.83,1245.74 1599.44,1245.74 1601.06,1245.74 1602.67,1245.74 1604.28,1245.74 1605.9,1245.74 1607.51,1245.74 1609.12,1245.74 1610.74,1245.74 1612.35,1245.74 1613.96,1245.74 1615.57,1245.74 1617.19,1245.74 1618.8,1245.74 1620.41,1245.74 1622.03,1245.74 1623.64,1245.74 1625.25,1245.74 1626.87,1245.74 1628.48,1245.74 1630.09,1245.74 1631.71,1245.74 1633.32,1245.74 1634.93,1245.74 1636.54,1245.74 1638.16,1245.74 1639.77,1245.74 1641.38,1245.74 1643,1245.74 1644.61,1245.74 1646.22,1245.74 1647.84,1245.74 1649.45,1245.74 1651.06,1245.74 1652.68,1245.74 1654.29,1245.74 1655.9,1245.74 1657.52,1245.74 1659.13,1245.74 1660.74,1245.74 1662.35,1245.74 1663.97,1245.74 1665.58,1245.74 1667.19,1245.74 1668.81,1245.74 1670.42,1245.74 1672.03,1245.74 1673.65,1245.74 1675.26,1245.74 1676.87,1245.74 1678.49,1245.74 1680.1,1245.74 1681.71,1245.74 1683.32,1245.74 1684.94,1245.74 1686.55,1245.74 1688.16,1245.74 1689.78,1245.74 1691.39,1245.74 1693,1245.74 1694.62,1245.74 1696.23,1245.74 1697.84,1245.74 1699.46,1245.74 1701.07,1245.74 1702.68,1245.74 1704.29,1245.74 1705.91,1245.74 1707.52,1245.74 1709.13,1245.74 1710.75,1245.74 1712.36,1245.74 1713.97,1245.74 1715.59,1245.74 1717.2,1245.74 1718.81,1245.74 1720.43,1245.74 1722.04,1245.74 1723.65,1245.74 1725.26,1245.74 1726.88,1245.74 1728.49,1245.74 1730.1,1245.74 1731.72,1245.74 1733.33,1245.74 1734.94,1245.74 1736.56,1245.74 1738.17,1245.74 1739.78,1245.74 1741.4,1245.74 1743.01,1245.74 1744.62,1245.74 1746.23,1245.74 1747.85,1245.74 1749.46,1245.74 1751.07,1245.74 1752.69,1245.74 1754.3,1245.74 1755.91,1245.74 1757.53,1245.74 1759.14,1245.74 1760.75,1245.74 1762.37,1245.74 1763.98,1245.74 1765.59,1245.74 1767.21,1245.74 1768.82,1245.74 1770.43,1245.74 1772.04,1245.74 1773.66,1245.74 1775.27,1245.74 1776.88,1245.74 1778.5,1245.74 1780.11,1245.74 1781.72,1245.74 1783.34,1245.74 1784.95,1245.74 1786.56,1245.74 1788.18,1245.74 1789.79,1245.74 1791.4,1245.74 1793.01,1245.74 1794.63,1245.74 1796.24,1245.74 1797.85,1245.74 1799.47,1245.74 1801.08,1245.74 1802.69,1245.74 1804.31,1245.74 1805.92,1245.74 1807.53,1245.74 1809.15,1245.74 1810.76,1245.74 1812.37,1245.74 1813.98,1245.74 1815.6,1245.74 1817.21,1245.74 1818.82,1245.74 1820.44,1245.74 1822.05,1245.74 1823.66,1245.74 1825.28,1245.74 1826.89,1245.74 1828.5,1245.74 1830.12,1245.74 1831.73,1245.74 1833.34,1245.74 1834.95,1245.74 1836.57,1245.74 1838.18,1245.74 1839.79,1245.74 1841.41,1245.74 1843.02,1245.74 1844.63,1245.74 1846.25,1245.74 1847.86,1245.74 1849.47,1245.74 1851.09,1245.74 1852.7,1245.74 1854.31,1245.74 1855.92,1245.74 1857.54,1245.74 1859.15,1245.74 1860.76,1245.74 1862.38,1245.74 1863.99,1245.74 1865.6,1245.74 1867.22,1245.74 1868.83,1245.74 1870.44,1245.74 1872.06,1245.74 1873.67,1245.74 1875.28,1245.74 1876.9,1245.74 1878.51,1245.74 1880.12,1245.74 1881.73,1245.74 1883.35,1245.74 1884.96,1245.74 1886.57,1245.74 1888.19,1245.74 1889.8,1245.74 1891.41,1245.74 1893.03,1245.74 1894.64,1245.74 1896.25,1245.74 1897.87,1245.74 1899.48,1245.74 1901.09,1245.74 1902.7,1245.74 1904.32,1245.74 1905.93,1245.74 1907.54,1245.74 1909.16,1245.74 1910.77,1245.74 1912.38,1245.74 1914,1245.74 1915.61,1245.74 1917.22,1245.74 1918.84,1245.74 1920.45,1245.74 1922.06,1245.74 1923.67,1245.74 1925.29,1245.74 1926.9,1245.74 1928.51,1245.74 1930.13,1245.74 1931.74,1245.74 1933.35,1245.74 1934.97,1245.74 1936.58,1245.74 1938.19,1245.74 1939.81,1245.74 1941.42,1245.74 1943.03,1245.74 1944.64,1245.74 1946.26,1245.74 1947.87,1245.74 1949.48,1245.74 1951.1,1245.74 1952.71,1245.74 1954.32,1245.74 1955.94,1245.74 1957.55,1245.74 1959.16,1245.74 1960.78,1245.74 1962.39,1245.74 1964,1245.74 1965.61,1245.74 1967.23,1245.74 1968.84,1245.74 1970.45,1245.74 1972.07,1245.74 1973.68,1245.74 1975.29,1245.74 1976.91,1245.74 1978.52,1245.74 1980.13,1245.74 1981.75,1245.74 1983.36,1245.74 1984.97,1245.74 1986.59,1245.74 1988.2,1245.74 1989.81,1245.74 1991.42,1245.74 1993.04,1245.74 1994.65,1245.74 1996.26,1245.74 1997.88,1245.74 1999.49,1245.74 2001.1,1245.74 2002.72,1245.74 2004.33,1245.74 2005.94,1245.74 2007.56,1245.74 2009.17,1245.74 2010.78,1245.74 2012.39,1245.74 2014.01,1245.74 2015.62,1245.74 2017.23,1245.74 2018.85,1245.74 2020.46,1245.74 2022.07,1245.74 2023.69,1245.74 2025.3,1245.74 2026.91,1245.74 2028.53,1245.74 2030.14,1245.74 2031.75,1245.74 2033.36,1245.74 2034.98,1245.74 2036.59,1245.74 2038.2,1245.74 2039.82,1245.74 2041.43,1245.74 2043.04,1245.74 2044.66,1245.74 2046.27,1245.74 2047.88,1245.74 2049.5,1245.74 2051.11,1245.74 2052.72,1245.74 2054.33,1245.74 2055.95,1245.74 2057.56,1245.74 2059.17,1245.74 2060.79,1245.74 2062.4,1245.74 2064.01,1245.74 2065.63,1245.74 2067.24,1245.74 2068.85,1245.74 2070.47,1245.74 2072.08,1245.74 2073.69,1245.74 2075.3,1245.74 2076.92,1245.74 2078.53,1245.74 2080.14,1245.74 2081.76,1245.74 2083.37,1245.74 2084.98,1245.74 2086.6,1245.74 2088.21,1245.74 2089.82,1245.74 2091.44,1245.74 2093.05,1245.74 2094.66,1245.74 2096.27,1245.74 2097.89,1245.74 2099.5,1245.74 2101.11,1245.74 2102.73,1245.74 2104.34,1245.74 2105.95,1245.74 2107.57,1245.74 2109.18,1245.74 2110.79,1245.74 2112.41,1245.74 2114.02,1245.74 2115.63,1245.74 2117.25,1245.74 2118.86,1245.74 2120.47,1245.74 2122.08,1245.74 2123.7,1245.74 2125.31,1245.74 2126.92,1245.74 2128.54,1245.74 2130.15,1245.74 2131.76,1245.74 2133.38,1245.74 2134.99,1245.74 2136.6,1245.74 2138.22,1245.74 2139.83,1245.74 2141.44,1245.74 2143.05,1245.74 2144.67,1245.74 2146.28,1245.74 2147.89,1245.74 2149.51,1245.74 2151.12,1245.74 2152.73,1245.74 2154.35,1245.74 2155.96,1245.74 2157.57,1245.74 2159.19,1245.74 2160.8,1245.74 2162.41,1245.74 2164.02,1245.74 2165.64,1245.74 2167.25,1245.74 2168.86,1245.74 2170.48,1245.74 2172.09,1245.74 2173.7,1245.74 2175.32,1245.74 2176.93,1245.74 2178.54,1245.74 2180.16,1245.74 2181.77,1245.74 2183.38,1245.74 2184.99,1245.74 2186.61,1245.74 2188.22,1245.74 2189.83,1245.74 2191.45,1245.74 2193.06,1245.74 2194.67,1245.74 2196.29,1245.74 2197.9,1245.74 2199.51,1245.74 2201.13,1245.74 2202.74,1245.74 2204.35,1245.74 2205.96,1245.74 2207.58,1245.74 2209.19,1245.74 2210.8,1245.74 2212.42,1245.74 2214.03,1245.74 2215.64,1245.74 2217.26,1245.74 2218.87,1245.74 2220.48,1245.74 2222.1,1245.74 2223.71,1245.74 2225.32,1245.74 2226.94,1245.74 2228.55,1245.74 2230.16,1245.74 2231.77,1245.74 2233.39,1245.74 2235,1245.74 2236.61,1245.74 2238.23,1245.74 2239.84,1245.74 2241.45,1245.74 2243.07,1245.74 2244.68,1245.74 2246.29,1245.74 2247.91,1245.74 2249.52,1245.74 2251.13,1245.74 2252.74,1245.74 2254.36,1245.74 2255.97,1245.74 2257.58,1245.74 2259.2,1245.74 2260.81,1245.74 2262.42,1245.74 2264.04,1245.74 2265.65,1245.74 2267.26,1245.74 2268.88,1245.74 2270.49,1245.74 2272.1,1245.74 2273.71,1245.74 2275.33,1245.74 2276.94,1245.74 2278.55,1245.74 2280.17,1245.74 2281.78,1245.74 2283.39,1245.74 2285.01,1245.74 2286.62,1245.74 2288.23,1245.74 2289.85,1245.74 2291.46,1245.74 2293.07,1245.74 2294.68,1245.74 2296.3,1245.74 2297.91,1245.74 2299.52,1245.74 2301.14,1245.74 2302.75,1245.74 2304.36,1245.74 2305.98,1245.74 2307.59,1245.74 2309.2,1245.74 2310.82,1245.74 2312.43,1245.74 2314.04,1245.74 2315.65,1245.74 2317.27,1245.74 2318.88,1245.74 2320.49,1245.74 2322.11,1245.74 2323.72,1245.74 2325.33,1245.74 2326.95,1245.74 2328.56,1245.74 2330.17,1245.74 2331.79,1245.74 2333.4,1245.74 2335.01,1245.74 2336.63,1245.74 2338.24,1245.74 2339.85,1245.74 2341.46,1245.74 2343.08,1245.74 2344.69,1245.74 2346.3,1245.74 2347.92,1245.74 2349.53,1245.74 2351.14,1245.74 2352.76,1245.74 "/>
<path clip-path="url(#clip650)" d="M186.863 1377.32 L478.467 1377.32 L478.467 1221.8 L186.863 1221.8  Z" fill="#ffffff" fill-rule="evenodd" fill-opacity="1"/>
<polyline clip-path="url(#clip650)" style="stroke:#000000; stroke-linecap:round; stroke-linejoin:round; stroke-width:4; stroke-opacity:1; fill:none" points="186.863,1377.32 478.467,1377.32 478.467,1221.8 186.863,1221.8 186.863,1377.32 "/>
<polyline clip-path="url(#clip650)" style="stroke:#009af9; stroke-linecap:round; stroke-linejoin:round; stroke-width:4; stroke-opacity:1; fill:none" points="211.758,1273.64 361.13,1273.64 "/>
<path clip-path="url(#clip650)" d="M405.285 1274.48 L390.54 1274.48 Q390.887 1281.4 392.484 1284.34 Q394.475 1287.95 397.924 1287.95 Q401.396 1287.95 403.317 1284.32 Q405.007 1281.12 405.285 1274.48 M405.215 1270.55 Q404.567 1263.97 403.317 1261.66 Q401.327 1258 397.924 1258 Q394.382 1258 392.507 1261.61 Q391.026 1264.53 390.586 1270.55 L405.215 1270.55 M397.924 1254.53 Q403.479 1254.53 406.651 1259.43 Q409.822 1264.32 409.822 1272.98 Q409.822 1281.61 406.651 1286.52 Q403.479 1291.45 397.924 1291.45 Q392.345 1291.45 389.197 1286.52 Q386.026 1281.61 386.026 1272.98 Q386.026 1264.32 389.197 1259.43 Q392.345 1254.53 397.924 1254.53 Z" fill="#000000" fill-rule="nonzero" fill-opacity="1" /><polyline clip-path="url(#clip650)" style="stroke:#e26f46; stroke-linecap:round; stroke-linejoin:round; stroke-width:4; stroke-opacity:1; fill:none" points="211.758,1325.48 361.13,1325.48 "/>
<path clip-path="url(#clip650)" d="M405.285 1326.32 L390.54 1326.32 Q390.887 1333.24 392.484 1336.18 Q394.475 1339.79 397.924 1339.79 Q401.396 1339.79 403.317 1336.16 Q405.007 1332.96 405.285 1326.32 M405.215 1322.39 Q404.567 1315.81 403.317 1313.5 Q401.327 1309.84 397.924 1309.84 Q394.382 1309.84 392.507 1313.45 Q391.026 1316.37 390.586 1322.39 L405.215 1322.39 M397.924 1306.37 Q403.479 1306.37 406.651 1311.27 Q409.822 1316.16 409.822 1324.82 Q409.822 1333.45 406.651 1338.36 Q403.479 1343.29 397.924 1343.29 Q392.345 1343.29 389.197 1338.36 Q386.026 1333.45 386.026 1324.82 Q386.026 1316.16 389.197 1311.27 Q392.345 1306.37 397.924 1306.37 Z" fill="#000000" fill-rule="nonzero" fill-opacity="1" /><path clip-path="url(#clip650)" d="M417.345 1346.74 L431.187 1346.74 L431.187 1350.16 L417.345 1350.16 L417.345 1346.74 Z" fill="#000000" fill-rule="nonzero" fill-opacity="1" /><path clip-path="url(#clip650)" d="M444.799 1309.47 L444.799 1316.83 L453.572 1316.83 L453.572 1320.14 L444.799 1320.14 L444.799 1334.21 Q444.799 1337.38 445.655 1338.29 Q446.535 1339.19 449.197 1339.19 L453.572 1339.19 L453.572 1342.76 L449.197 1342.76 Q444.266 1342.76 442.391 1340.93 Q440.516 1339.07 440.516 1334.21 L440.516 1320.14 L437.391 1320.14 L437.391 1316.83 L440.516 1316.83 L440.516 1309.47 L444.799 1309.47 Z" fill="#000000" fill-rule="nonzero" fill-opacity="1" /></svg>
