<?xml version="1.0" encoding="utf-8"?>
<svg xmlns="http://www.w3.org/2000/svg" xmlns:xlink="http://www.w3.org/1999/xlink" width="600" height="400" viewBox="0 0 2400 1600">
<defs>
  <clipPath id="clip590">
    <rect x="0" y="0" width="2400" height="1600"/>
  </clipPath>
</defs>
<path clip-path="url(#clip590)" d="M0 1600 L2400 1600 L2400 0 L0 0  Z" fill="#ffffff" fill-rule="evenodd" fill-opacity="1"/>
<defs>
  <clipPath id="clip591">
    <rect x="110" y="47" width="2243" height="1377"/>
  </clipPath>
</defs>
<path clip-path="url(#clip590)" d="M110.881 1423.18 L2352.76 1423.18 L2352.76 47.2441 L110.881 47.2441  Z" fill="#ffffff" fill-rule="evenodd" fill-opacity="1"/>
<polyline clip-path="url(#clip591)" style="stroke:#000000; stroke-linecap:round; stroke-linejoin:round; stroke-width:2; stroke-opacity:0.1; fill:none" points="110.881,1423.18 110.881,47.2441 "/>
<polyline clip-path="url(#clip591)" style="stroke:#000000; stroke-linecap:round; stroke-linejoin:round; stroke-width:2; stroke-opacity:0.1; fill:none" points="858.173,1423.18 858.173,47.2441 "/>
<polyline clip-path="url(#clip591)" style="stroke:#000000; stroke-linecap:round; stroke-linejoin:round; stroke-width:2; stroke-opacity:0.1; fill:none" points="1605.46,1423.18 1605.46,47.2441 "/>
<polyline clip-path="url(#clip591)" style="stroke:#000000; stroke-linecap:round; stroke-linejoin:round; stroke-width:2; stroke-opacity:0.1; fill:none" points="2352.76,1423.18 2352.76,47.2441 "/>
<polyline clip-path="url(#clip591)" style="stroke:#000000; stroke-linecap:round; stroke-linejoin:round; stroke-width:2; stroke-opacity:0.1; fill:none" points="110.881,1330.14 2352.76,1330.14 "/>
<polyline clip-path="url(#clip591)" style="stroke:#000000; stroke-linecap:round; stroke-linejoin:round; stroke-width:2; stroke-opacity:0.1; fill:none" points="110.881,1000.35 2352.76,1000.35 "/>
<polyline clip-path="url(#clip591)" style="stroke:#000000; stroke-linecap:round; stroke-linejoin:round; stroke-width:2; stroke-opacity:0.1; fill:none" points="110.881,670.565 2352.76,670.565 "/>
<polyline clip-path="url(#clip591)" style="stroke:#000000; stroke-linecap:round; stroke-linejoin:round; stroke-width:2; stroke-opacity:0.1; fill:none" points="110.881,340.778 2352.76,340.778 "/>
<polyline clip-path="url(#clip590)" style="stroke:#000000; stroke-linecap:round; stroke-linejoin:round; stroke-width:4; stroke-opacity:1; fill:none" points="110.881,1423.18 2352.76,1423.18 "/>
<polyline clip-path="url(#clip590)" style="stroke:#000000; stroke-linecap:round; stroke-linejoin:round; stroke-width:4; stroke-opacity:1; fill:none" points="110.881,1423.18 110.881,1404.28 "/>
<polyline clip-path="url(#clip590)" style="stroke:#000000; stroke-linecap:round; stroke-linejoin:round; stroke-width:4; stroke-opacity:1; fill:none" points="858.173,1423.18 858.173,1404.28 "/>
<polyline clip-path="url(#clip590)" style="stroke:#000000; stroke-linecap:round; stroke-linejoin:round; stroke-width:4; stroke-opacity:1; fill:none" points="1605.46,1423.18 1605.46,1404.28 "/>
<polyline clip-path="url(#clip590)" style="stroke:#000000; stroke-linecap:round; stroke-linejoin:round; stroke-width:4; stroke-opacity:1; fill:none" points="2352.76,1423.18 2352.76,1404.28 "/>
<path clip-path="url(#clip590)" d="M110.881 1454.1 Q107.27 1454.1 105.441 1457.66 Q103.636 1461.2 103.636 1468.33 Q103.636 1475.44 105.441 1479.01 Q107.27 1482.55 110.881 1482.55 Q114.515 1482.55 116.321 1479.01 Q118.149 1475.44 118.149 1468.33 Q118.149 1461.2 116.321 1457.66 Q114.515 1454.1 110.881 1454.1 M110.881 1450.39 Q116.691 1450.39 119.747 1455 Q122.825 1459.58 122.825 1468.33 Q122.825 1477.06 119.747 1481.67 Q116.691 1486.25 110.881 1486.25 Q105.071 1486.25 101.992 1481.67 Q98.9365 1477.06 98.9365 1468.33 Q98.9365 1459.58 101.992 1455 Q105.071 1450.39 110.881 1450.39 Z" fill="#000000" fill-rule="nonzero" fill-opacity="1" /><path clip-path="url(#clip590)" d="M832.872 1451.02 L851.228 1451.02 L851.228 1454.96 L837.154 1454.96 L837.154 1463.43 Q838.173 1463.08 839.191 1462.92 Q840.21 1462.73 841.228 1462.73 Q847.015 1462.73 850.395 1465.9 Q853.774 1469.08 853.774 1474.49 Q853.774 1480.07 850.302 1483.17 Q846.83 1486.25 840.511 1486.25 Q838.335 1486.25 836.066 1485.88 Q833.821 1485.51 831.413 1484.77 L831.413 1480.07 Q833.497 1481.2 835.719 1481.76 Q837.941 1482.32 840.418 1482.32 Q844.423 1482.32 846.761 1480.21 Q849.099 1478.1 849.099 1474.49 Q849.099 1470.88 846.761 1468.77 Q844.423 1466.67 840.418 1466.67 Q838.543 1466.67 836.668 1467.08 Q834.816 1467.5 832.872 1468.38 L832.872 1451.02 Z" fill="#000000" fill-rule="nonzero" fill-opacity="1" /><path clip-path="url(#clip590)" d="M872.987 1454.1 Q869.376 1454.1 867.548 1457.66 Q865.742 1461.2 865.742 1468.33 Q865.742 1475.44 867.548 1479.01 Q869.376 1482.55 872.987 1482.55 Q876.622 1482.55 878.427 1479.01 Q880.256 1475.44 880.256 1468.33 Q880.256 1461.2 878.427 1457.66 Q876.622 1454.1 872.987 1454.1 M872.987 1450.39 Q878.797 1450.39 881.853 1455 Q884.932 1459.58 884.932 1468.33 Q884.932 1477.06 881.853 1481.67 Q878.797 1486.25 872.987 1486.25 Q867.177 1486.25 864.098 1481.67 Q861.043 1477.06 861.043 1468.33 Q861.043 1459.58 864.098 1455 Q867.177 1450.39 872.987 1450.39 Z" fill="#000000" fill-rule="nonzero" fill-opacity="1" /><path clip-path="url(#clip590)" d="M1565.07 1481.64 L1572.71 1481.64 L1572.71 1455.28 L1564.4 1456.95 L1564.4 1452.69 L1572.66 1451.02 L1577.34 1451.02 L1577.34 1481.64 L1584.98 1481.64 L1584.98 1485.58 L1565.07 1485.58 L1565.07 1481.64 Z" fill="#000000" fill-rule="nonzero" fill-opacity="1" /><path clip-path="url(#clip590)" d="M1604.42 1454.1 Q1600.81 1454.1 1598.98 1457.66 Q1597.18 1461.2 1597.18 1468.33 Q1597.18 1475.44 1598.98 1479.01 Q1600.81 1482.55 1604.42 1482.55 Q1608.06 1482.55 1609.86 1479.01 Q1611.69 1475.44 1611.69 1468.33 Q1611.69 1461.2 1609.86 1457.66 Q1608.06 1454.1 1604.42 1454.1 M1604.42 1450.39 Q1610.23 1450.39 1613.29 1455 Q1616.37 1459.58 1616.37 1468.33 Q1616.37 1477.06 1613.29 1481.67 Q1610.23 1486.25 1604.42 1486.25 Q1598.61 1486.25 1595.53 1481.67 Q1592.48 1477.06 1592.48 1468.33 Q1592.48 1459.58 1595.53 1455 Q1598.61 1450.39 1604.42 1450.39 Z" fill="#000000" fill-rule="nonzero" fill-opacity="1" /><path clip-path="url(#clip590)" d="M1634.58 1454.1 Q1630.97 1454.1 1629.14 1457.66 Q1627.34 1461.2 1627.34 1468.33 Q1627.34 1475.44 1629.14 1479.01 Q1630.97 1482.55 1634.58 1482.55 Q1638.22 1482.55 1640.02 1479.01 Q1641.85 1475.44 1641.85 1468.33 Q1641.85 1461.2 1640.02 1457.66 Q1638.22 1454.1 1634.58 1454.1 M1634.58 1450.39 Q1640.39 1450.39 1643.45 1455 Q1646.53 1459.58 1646.53 1468.33 Q1646.53 1477.06 1643.45 1481.67 Q1640.39 1486.25 1634.58 1486.25 Q1628.77 1486.25 1625.7 1481.67 Q1622.64 1477.06 1622.64 1468.33 Q1622.64 1459.58 1625.7 1455 Q1628.77 1450.39 1634.58 1450.39 Z" fill="#000000" fill-rule="nonzero" fill-opacity="1" /><path clip-path="url(#clip590)" d="M2312.36 1481.64 L2320 1481.64 L2320 1455.28 L2311.69 1456.95 L2311.69 1452.69 L2319.96 1451.02 L2324.63 1451.02 L2324.63 1481.64 L2332.27 1481.64 L2332.27 1485.58 L2312.36 1485.58 L2312.36 1481.64 Z" fill="#000000" fill-rule="nonzero" fill-opacity="1" /><path clip-path="url(#clip590)" d="M2341.76 1451.02 L2360.12 1451.02 L2360.12 1454.96 L2346.04 1454.96 L2346.04 1463.43 Q2347.06 1463.08 2348.08 1462.92 Q2349.1 1462.73 2350.12 1462.73 Q2355.9 1462.73 2359.28 1465.9 Q2362.66 1469.08 2362.66 1474.49 Q2362.66 1480.07 2359.19 1483.17 Q2355.72 1486.25 2349.4 1486.25 Q2347.22 1486.25 2344.96 1485.88 Q2342.71 1485.51 2340.3 1484.77 L2340.3 1480.07 Q2342.39 1481.2 2344.61 1481.76 Q2346.83 1482.32 2349.31 1482.32 Q2353.31 1482.32 2355.65 1480.21 Q2357.99 1478.1 2357.99 1474.49 Q2357.99 1470.88 2355.65 1468.77 Q2353.31 1466.67 2349.31 1466.67 Q2347.43 1466.67 2345.56 1467.08 Q2343.71 1467.5 2341.76 1468.38 L2341.76 1451.02 Z" fill="#000000" fill-rule="nonzero" fill-opacity="1" /><path clip-path="url(#clip590)" d="M2381.88 1454.1 Q2378.27 1454.1 2376.44 1457.66 Q2374.63 1461.2 2374.63 1468.33 Q2374.63 1475.44 2376.44 1479.01 Q2378.27 1482.55 2381.88 1482.55 Q2385.51 1482.55 2387.32 1479.01 Q2389.14 1475.44 2389.14 1468.33 Q2389.14 1461.2 2387.32 1457.66 Q2385.51 1454.1 2381.88 1454.1 M2381.88 1450.39 Q2387.69 1450.39 2390.74 1455 Q2393.82 1459.58 2393.82 1468.33 Q2393.82 1477.06 2390.74 1481.67 Q2387.69 1486.25 2381.88 1486.25 Q2376.07 1486.25 2372.99 1481.67 Q2369.93 1477.06 2369.93 1468.33 Q2369.93 1459.58 2372.99 1455 Q2376.07 1450.39 2381.88 1450.39 Z" fill="#000000" fill-rule="nonzero" fill-opacity="1" /><path clip-path="url(#clip590)" d="M1230.88 1522.27 L1230.88 1532.4 L1242.94 1532.4 L1242.94 1536.95 L1230.88 1536.95 L1230.88 1556.3 Q1230.88 1560.66 1232.06 1561.9 Q1233.27 1563.14 1236.93 1563.14 L1242.94 1563.14 L1242.94 1568.04 L1236.93 1568.04 Q1230.15 1568.04 1227.57 1565.53 Q1224.99 1562.98 1224.99 1556.3 L1224.99 1536.95 L1220.69 1536.95 L1220.69 1532.4 L1224.99 1532.4 L1224.99 1522.27 L1230.88 1522.27 Z" fill="#000000" fill-rule="nonzero" fill-opacity="1" /><polyline clip-path="url(#clip590)" style="stroke:#000000; stroke-linecap:round; stroke-linejoin:round; stroke-width:4; stroke-opacity:1; fill:none" points="110.881,1423.18 110.881,47.2441 "/>
<polyline clip-path="url(#clip590)" style="stroke:#000000; stroke-linecap:round; stroke-linejoin:round; stroke-width:4; stroke-opacity:1; fill:none" points="110.881,1330.14 129.779,1330.14 "/>
<polyline clip-path="url(#clip590)" style="stroke:#000000; stroke-linecap:round; stroke-linejoin:round; stroke-width:4; stroke-opacity:1; fill:none" points="110.881,1000.35 129.779,1000.35 "/>
<polyline clip-path="url(#clip590)" style="stroke:#000000; stroke-linecap:round; stroke-linejoin:round; stroke-width:4; stroke-opacity:1; fill:none" points="110.881,670.565 129.779,670.565 "/>
<polyline clip-path="url(#clip590)" style="stroke:#000000; stroke-linecap:round; stroke-linejoin:round; stroke-width:4; stroke-opacity:1; fill:none" points="110.881,340.778 129.779,340.778 "/>
<path clip-path="url(#clip590)" d="M62.9365 1315.94 Q59.3254 1315.94 57.4967 1319.5 Q55.6912 1323.04 55.6912 1330.17 Q55.6912 1337.28 57.4967 1340.84 Q59.3254 1344.38 62.9365 1344.38 Q66.5707 1344.38 68.3763 1340.84 Q70.205 1337.28 70.205 1330.17 Q70.205 1323.04 68.3763 1319.5 Q66.5707 1315.94 62.9365 1315.94 M62.9365 1312.23 Q68.7467 1312.23 71.8022 1316.84 Q74.8809 1321.42 74.8809 1330.17 Q74.8809 1338.9 71.8022 1343.5 Q68.7467 1348.09 62.9365 1348.09 Q57.1264 1348.09 54.0477 1343.5 Q50.9921 1338.9 50.9921 1330.17 Q50.9921 1321.42 54.0477 1316.84 Q57.1264 1312.23 62.9365 1312.23 Z" fill="#000000" fill-rule="nonzero" fill-opacity="1" /><path clip-path="url(#clip590)" d="M54.9736 1013.7 L62.6124 1013.7 L62.6124 987.33 L54.3023 988.997 L54.3023 984.737 L62.5661 983.071 L67.242 983.071 L67.242 1013.7 L74.8809 1013.7 L74.8809 1017.63 L54.9736 1017.63 L54.9736 1013.7 Z" fill="#000000" fill-rule="nonzero" fill-opacity="1" /><path clip-path="url(#clip590)" d="M58.5615 683.909 L74.8809 683.909 L74.8809 687.845 L52.9366 687.845 L52.9366 683.909 Q55.5986 681.155 60.1819 676.525 Q64.7883 671.872 65.9689 670.53 Q68.2143 668.007 69.0939 666.271 Q69.9967 664.511 69.9967 662.822 Q69.9967 660.067 68.0522 658.331 Q66.1309 656.595 63.0291 656.595 Q60.83 656.595 58.3763 657.359 Q55.9458 658.122 53.168 659.673 L53.168 654.951 Q55.9921 653.817 58.4458 653.238 Q60.8995 652.66 62.9365 652.66 Q68.3068 652.66 71.5013 655.345 Q74.6957 658.03 74.6957 662.521 Q74.6957 664.65 73.8855 666.572 Q73.0985 668.47 70.992 671.062 Q70.4133 671.734 67.3115 674.951 Q64.2096 678.146 58.5615 683.909 Z" fill="#000000" fill-rule="nonzero" fill-opacity="1" /><path clip-path="url(#clip590)" d="M67.7513 339.424 Q71.1078 340.142 72.9827 342.41 Q74.8809 344.679 74.8809 348.012 Q74.8809 353.128 71.3624 355.929 Q67.8439 358.73 61.3624 358.73 Q59.1865 358.73 56.8717 358.29 Q54.5801 357.873 52.1264 357.017 L52.1264 352.503 Q54.0708 353.637 56.3856 354.216 Q58.7004 354.795 61.2236 354.795 Q65.6217 354.795 67.9133 353.059 Q70.2281 351.322 70.2281 348.012 Q70.2281 344.957 68.0754 343.244 Q65.9457 341.508 62.1263 341.508 L58.0986 341.508 L58.0986 337.665 L62.3115 337.665 Q65.7606 337.665 67.5893 336.299 Q69.418 334.91 69.418 332.318 Q69.418 329.656 67.5198 328.244 Q65.6448 326.809 62.1263 326.809 Q60.205 326.809 58.006 327.225 Q55.8069 327.642 53.168 328.522 L53.168 324.355 Q55.8301 323.614 58.1449 323.244 Q60.4828 322.873 62.543 322.873 Q67.867 322.873 70.9689 325.304 Q74.0707 327.711 74.0707 331.832 Q74.0707 334.702 72.4272 336.693 Q70.7837 338.66 67.7513 339.424 Z" fill="#000000" fill-rule="nonzero" fill-opacity="1" /><polyline clip-path="url(#clip591)" style="stroke:#009af9; stroke-linecap:round; stroke-linejoin:round; stroke-width:4; stroke-opacity:1; fill:none" points="110.881,218.83 112.662,162.802 114.442,126.431 116.223,104.494 118.004,92.3718 119.784,86.9891 121.565,86.1857 123.346,88.4013 125.126,92.5349 126.907,97.8356 128.688,103.804 130.468,110.111 132.249,116.544 134.03,122.967 135.81,129.292 137.591,135.467 139.372,141.461 141.152,147.255 142.933,152.841 144.714,158.219 146.494,163.389 148.275,168.356 150.056,173.127 151.837,177.706 153.617,182.103 155.398,186.324 157.179,190.377 158.959,194.269 160.74,198.006 162.521,201.596 164.301,205.044 166.082,208.358 167.863,211.542 169.643,214.604 171.424,217.546 173.205,220.376 174.985,223.096 176.766,225.713 178.547,228.231 180.327,230.653 182.108,232.984 183.889,235.226 185.669,237.385 187.45,239.462 189.231,241.462 191.011,243.388 192.792,245.242 194.573,247.027 196.353,248.746 198.134,250.401 199.915,251.995 201.696,253.531 203.476,255.01 205.257,256.435 207.038,257.808 208.818,259.131 210.599,260.404 212.38,261.632 214.16,262.815 215.941,263.955 217.722,265.053 219.502,266.112 221.283,267.132 223.064,268.115 224.844,269.062 226.625,269.975 228.406,270.855 230.186,271.703 231.967,272.521 233.748,273.309 235.528,274.068 237.309,274.8 239.09,275.506 240.87,276.186 242.651,276.842 244.432,277.474 246.213,278.084 247.993,278.672 249.774,279.238 251.555,279.784 253.335,280.311 255.116,280.818 256.897,281.308 258.677,281.779 260.458,282.234 262.239,282.673 264.019,283.096 265.8,283.504 267.581,283.897 269.361,284.276 271.142,284.642 272.923,284.994 274.703,285.334 276.484,285.661 278.265,285.977 280.045,286.282 281.826,286.576 283.607,286.859 285.387,287.132 287.168,287.396 288.949,287.65 290.729,287.895 292.51,288.131 294.291,288.358 296.072,288.578 297.852,288.79 299.633,288.994 301.414,289.191 303.194,289.381 304.975,289.564 306.756,289.741 308.536,289.911 310.317,290.075 312.098,290.234 313.878,290.386 315.659,290.533 317.44,290.676 319.22,290.813 321.001,290.945 322.782,291.072 324.562,291.195 326.343,291.314 328.124,291.428 329.904,291.538 331.685,291.644 333.466,291.747 335.246,291.845 337.027,291.941 338.808,292.033 340.588,292.121 342.369,292.207 344.15,292.289 345.931,292.369 347.711,292.446 349.492,292.52 351.273,292.591 353.053,292.66 354.834,292.726 356.615,292.79 358.395,292.852 360.176,292.911 361.957,292.969 363.737,293.024 365.518,293.077 367.299,293.129 369.079,293.178 370.86,293.226 372.641,293.272 374.421,293.317 376.202,293.36 377.983,293.401 379.763,293.441 381.544,293.48 383.325,293.517 385.105,293.553 386.886,293.588 388.667,293.621 390.448,293.653 392.228,293.684 394.009,293.714 395.79,293.743 397.57,293.77 399.351,293.797 401.132,293.823 402.912,293.848 404.693,293.872 406.474,293.895 408.254,293.918 410.035,293.939 411.816,293.96 413.596,293.98 415.377,294 417.158,294.018 418.938,294.036 420.719,294.054 422.5,294.071 424.28,294.087 426.061,294.102 427.842,294.117 429.622,294.132 431.403,294.146 433.184,294.159 434.964,294.172 436.745,294.185 438.526,294.197 440.307,294.209 442.087,294.22 443.868,294.231 445.649,294.241 447.429,294.251 449.21,294.261 450.991,294.27 452.771,294.279 454.552,294.288 456.333,294.297 458.113,294.305 459.894,294.313 461.675,294.32 463.455,294.327 465.236,294.334 467.017,294.341 468.797,294.348 470.578,294.354 472.359,294.36 474.139,294.366 475.92,294.372 477.701,294.377 479.481,294.382 481.262,294.387 483.043,294.392 484.824,294.397 486.604,294.402 488.385,294.406 490.166,294.41 491.946,294.414 493.727,294.418 495.508,294.422 497.288,294.426 499.069,294.429 500.85,294.433 502.63,294.436 504.411,294.439 506.192,294.442 507.972,294.445 509.753,294.448 511.534,294.451 513.314,294.453 515.095,294.456 516.876,294.458 518.656,294.461 520.437,294.463 522.218,294.465 523.998,294.467 525.779,294.469 527.56,294.471 529.34,294.473 531.121,294.475 532.902,294.477 534.683,294.479 536.463,294.48 538.244,294.482 540.025,294.483 541.805,294.485 543.586,294.486 545.367,294.488 547.147,294.489 548.928,294.49 550.709,294.492 552.489,294.493 554.27,294.494 556.051,294.495 557.831,294.496 559.612,294.497 561.393,294.498 563.173,294.499 564.954,294.5 566.735,294.501 568.515,294.502 570.296,294.503 572.077,294.503 573.857,294.504 575.638,294.505 577.419,294.506 579.199,294.506 580.98,294.507 582.761,294.508 584.542,294.508 586.322,294.509 588.103,294.509 589.884,294.51 591.664,294.511 593.445,294.511 595.226,294.512 597.006,294.512 598.787,294.512 600.568,294.513 602.348,294.513 604.129,294.514 605.91,294.514 607.69,294.515 609.471,294.515 611.252,294.515 613.032,294.516 614.813,294.516 616.594,294.516 618.374,294.517 620.155,294.517 621.936,294.517 623.716,294.518 625.497,294.518 627.278,294.518 629.059,294.518 630.839,294.519 632.62,294.519 634.401,294.519 636.181,294.519 637.962,294.519 639.743,294.52 641.523,294.52 643.304,294.52 645.085,294.52 646.865,294.52 648.646,294.521 650.427,294.521 652.207,294.521 653.988,294.521 655.769,294.521 657.549,294.521 659.33,294.521 661.111,294.522 662.891,294.522 664.672,294.522 666.453,294.522 668.233,294.522 670.014,294.522 671.795,294.522 673.575,294.522 675.356,294.522 677.137,294.523 678.918,294.523 680.698,294.523 682.479,294.523 684.26,294.523 686.04,294.523 687.821,294.523 689.602,294.523 691.382,294.523 693.163,294.523 694.944,294.523 696.724,294.523 698.505,294.523 700.286,294.524 702.066,294.524 703.847,294.524 705.628,294.524 707.408,294.524 709.189,294.524 710.97,294.524 712.75,294.524 714.531,294.524 716.312,294.524 718.092,294.524 719.873,294.524 721.654,294.524 723.435,294.524 725.215,294.524 726.996,294.524 728.777,294.524 730.557,294.524 732.338,294.524 734.119,294.524 735.899,294.524 737.68,294.524 739.461,294.524 741.241,294.524 743.022,294.524 744.803,294.525 746.583,294.525 748.364,294.525 750.145,294.525 751.925,294.525 753.706,294.525 755.487,294.525 757.267,294.525 759.048,294.525 760.829,294.525 762.609,294.525 764.39,294.525 766.171,294.525 767.951,294.525 769.732,294.525 771.513,294.525 773.294,294.525 775.074,294.525 776.855,294.525 778.636,294.525 780.416,294.525 782.197,294.525 783.978,294.525 785.758,294.525 787.539,294.525 789.32,294.525 791.1,294.525 792.881,294.525 794.662,294.525 796.442,294.525 798.223,294.525 800.004,294.525 801.784,294.525 803.565,294.525 805.346,294.525 807.126,294.525 808.907,294.525 810.688,294.525 812.468,294.525 814.249,294.525 816.03,294.525 817.81,294.525 819.591,294.525 821.372,294.525 823.153,294.525 824.933,294.525 826.714,294.525 828.495,294.525 830.275,294.525 832.056,294.525 833.837,294.525 835.617,294.525 837.398,294.525 839.179,294.525 840.959,294.525 842.74,294.525 844.521,294.525 846.301,294.525 848.082,294.525 849.863,294.525 851.643,294.525 853.424,294.525 855.205,294.525 856.985,294.525 858.766,294.525 860.547,294.525 862.327,294.525 864.108,294.525 865.889,294.525 867.67,294.525 869.45,294.525 871.231,294.525 873.012,294.525 874.792,294.525 876.573,294.525 878.354,294.525 880.134,294.525 881.915,294.525 883.696,294.525 885.476,294.525 887.257,294.525 889.038,294.525 890.818,294.525 892.599,294.525 894.38,294.525 896.16,294.525 897.941,294.525 899.722,294.525 901.502,294.525 903.283,294.525 905.064,294.525 906.844,294.525 908.625,294.525 910.406,294.525 912.186,294.525 913.967,294.525 915.748,294.525 917.529,294.525 919.309,294.525 921.09,294.525 922.871,294.525 924.651,294.525 926.432,294.525 928.213,294.525 929.993,294.525 931.774,294.525 933.555,294.525 935.335,294.525 937.116,294.525 938.897,294.525 940.677,294.525 942.458,294.525 944.239,294.525 946.019,294.525 947.8,294.525 949.581,294.525 951.361,294.525 953.142,294.525 954.923,294.525 956.703,294.525 958.484,294.525 960.265,294.525 962.046,294.525 963.826,294.525 965.607,294.525 967.388,294.525 969.168,294.525 970.949,294.525 972.73,294.525 974.51,294.525 976.291,294.525 978.072,294.525 979.852,294.525 981.633,294.525 983.414,294.525 985.194,294.525 986.975,294.525 988.756,294.525 990.536,294.525 992.317,294.525 994.098,294.525 995.878,294.525 997.659,294.525 999.44,294.525 1001.22,294.525 1003,294.525 1004.78,294.525 1006.56,294.525 1008.34,294.525 1010.12,294.525 1011.9,294.525 1013.69,294.525 1015.47,294.525 1017.25,294.525 1019.03,294.525 1020.81,294.525 1022.59,294.525 1024.37,294.525 1026.15,294.525 1027.93,294.525 1029.71,294.525 1031.49,294.525 1033.27,294.525 1035.05,294.525 1036.83,294.525 1038.61,294.525 1040.4,294.525 1042.18,294.525 1043.96,294.525 1045.74,294.525 1047.52,294.525 1049.3,294.525 1051.08,294.525 1052.86,294.525 1054.64,294.525 1056.42,294.525 1058.2,294.525 1059.98,294.525 1061.76,294.525 1063.54,294.525 1065.32,294.525 1067.11,294.525 1068.89,294.525 1070.67,294.525 1072.45,294.525 1074.23,294.525 1076.01,294.525 1077.79,294.525 1079.57,294.525 1081.35,294.525 1083.13,294.525 1084.91,294.525 1086.69,294.525 1088.47,294.525 1090.25,294.525 1092.04,294.525 1093.82,294.525 1095.6,294.525 1097.38,294.525 1099.16,294.525 1100.94,294.525 1102.72,294.525 1104.5,294.525 1106.28,294.525 1108.06,294.525 1109.84,294.525 1111.62,294.525 1113.4,294.525 1115.18,294.525 1116.96,294.525 1118.75,294.525 1120.53,294.525 1122.31,294.525 1124.09,294.525 1125.87,294.525 1127.65,294.525 1129.43,294.525 1131.21,294.525 1132.99,294.525 1134.77,294.525 1136.55,294.525 1138.33,294.525 1140.11,294.525 1141.89,294.525 1143.67,294.525 1145.46,294.525 1147.24,294.525 1149.02,294.525 1150.8,294.525 1152.58,294.525 1154.36,294.525 1156.14,294.525 1157.92,294.525 1159.7,294.525 1161.48,294.525 1163.26,294.525 1165.04,294.525 1166.82,294.525 1168.6,294.525 1170.38,294.525 1172.17,294.525 1173.95,294.525 1175.73,294.525 1177.51,294.525 1179.29,294.525 1181.07,294.525 1182.85,294.525 1184.63,294.525 1186.41,294.525 1188.19,294.525 1189.97,294.525 1191.75,294.525 1193.53,294.525 1195.31,294.525 1197.1,294.525 1198.88,294.525 1200.66,294.525 1202.44,294.525 1204.22,294.525 1206,294.525 1207.78,294.525 1209.56,294.525 1211.34,294.525 1213.12,294.525 1214.9,294.525 1216.68,294.525 1218.46,294.525 1220.24,294.525 1222.02,294.525 1223.81,294.525 1225.59,294.525 1227.37,294.525 1229.15,294.525 1230.93,294.525 1232.71,294.525 1234.49,294.525 1236.27,294.525 1238.05,294.525 1239.83,294.525 1241.61,294.525 1243.39,294.525 1245.17,294.525 1246.95,294.525 1248.73,294.525 1250.52,294.525 1252.3,294.525 1254.08,294.525 1255.86,294.525 1257.64,294.525 1259.42,294.525 1261.2,294.525 1262.98,294.525 1264.76,294.525 1266.54,294.525 1268.32,294.525 1270.1,294.525 1271.88,294.525 1273.66,294.525 1275.45,294.525 1277.23,294.525 1279.01,294.525 1280.79,294.525 1282.57,294.525 1284.35,294.525 1286.13,294.525 1287.91,294.525 1289.69,294.525 1291.47,294.525 1293.25,294.525 1295.03,294.525 1296.81,294.525 1298.59,294.525 1300.37,294.525 1302.16,294.525 1303.94,294.525 1305.72,294.525 1307.5,294.525 1309.28,294.525 1311.06,294.525 1312.84,294.525 1314.62,294.525 1316.4,294.525 1318.18,294.525 1319.96,294.525 1321.74,294.525 1323.52,294.525 1325.3,294.525 1327.08,294.525 1328.87,294.525 1330.65,294.525 1332.43,294.525 1334.21,294.525 1335.99,294.525 1337.77,294.525 1339.55,294.525 1341.33,294.525 1343.11,294.525 1344.89,294.525 1346.67,294.525 1348.45,294.525 1350.23,294.525 1352.01,294.525 1353.79,294.525 1355.58,294.525 1357.36,294.525 1359.14,294.525 1360.92,294.525 1362.7,294.525 1364.48,294.525 1366.26,294.525 1368.04,294.525 1369.82,294.525 1371.6,294.525 1373.38,294.525 1375.16,294.525 1376.94,294.525 1378.72,294.525 1380.51,294.525 1382.29,294.525 1384.07,294.525 1385.85,294.525 1387.63,294.525 1389.41,294.525 1391.19,294.525 1392.97,294.525 1394.75,294.525 1396.53,294.525 1398.31,294.525 1400.09,294.525 1401.87,294.525 1403.65,294.525 1405.43,294.525 1407.22,294.525 1409,294.525 1410.78,294.525 1412.56,294.525 1414.34,294.525 1416.12,294.525 1417.9,294.525 1419.68,294.525 1421.46,294.525 1423.24,294.525 1425.02,294.525 1426.8,294.525 1428.58,294.525 1430.36,294.525 1432.14,294.525 1433.93,294.525 1435.71,294.525 1437.49,294.525 1439.27,294.525 1441.05,294.525 1442.83,294.525 1444.61,294.525 1446.39,294.525 1448.17,294.525 1449.95,294.525 1451.73,294.525 1453.51,294.525 1455.29,294.525 1457.07,294.525 1458.85,294.525 1460.64,294.525 1462.42,294.525 1464.2,294.525 1465.98,294.525 1467.76,294.525 1469.54,294.525 1471.32,294.525 1473.1,294.525 1474.88,294.525 1476.66,294.525 1478.44,294.525 1480.22,294.525 1482,294.525 1483.78,294.525 1485.57,294.525 1487.35,294.525 1489.13,294.525 1490.91,294.525 1492.69,294.525 1494.47,294.525 1496.25,294.525 1498.03,294.525 1499.81,294.525 1501.59,294.525 1503.37,294.525 1505.15,294.525 1506.93,294.525 1508.71,294.525 1510.49,294.525 1512.28,294.525 1514.06,294.525 1515.84,294.525 1517.62,294.525 1519.4,294.525 1521.18,294.525 1522.96,294.525 1524.74,294.525 1526.52,294.525 1528.3,294.525 1530.08,294.525 1531.86,294.525 1533.64,294.525 1535.42,294.525 1537.2,294.525 1538.99,294.525 1540.77,294.525 1542.55,294.525 1544.33,294.525 1546.11,294.525 1547.89,294.525 1549.67,294.525 1551.45,294.525 1553.23,294.525 1555.01,294.525 1556.79,294.525 1558.57,294.525 1560.35,294.525 1562.13,294.525 1563.92,294.525 1565.7,294.525 1567.48,294.525 1569.26,294.525 1571.04,294.525 1572.82,294.525 1574.6,294.525 1576.38,294.525 1578.16,294.525 1579.94,294.525 1581.72,294.525 1583.5,294.525 1585.28,294.525 1587.06,294.525 1588.84,294.525 1590.63,294.525 1592.41,294.525 1594.19,294.525 1595.97,294.525 1597.75,294.525 1599.53,294.525 1601.31,294.525 1603.09,294.525 1604.87,294.525 1606.65,294.525 1608.43,294.525 1610.21,294.525 1611.99,294.525 1613.77,294.525 1615.55,294.525 1617.34,294.525 1619.12,294.525 1620.9,294.525 1622.68,294.525 1624.46,294.525 1626.24,294.525 1628.02,294.525 1629.8,294.525 1631.58,294.525 1633.36,294.525 1635.14,294.525 1636.92,294.525 1638.7,294.525 1640.48,294.525 1642.26,294.525 1644.05,294.525 1645.83,294.525 1647.61,294.525 1649.39,294.525 1651.17,294.525 1652.95,294.525 1654.73,294.525 1656.51,294.525 1658.29,294.525 1660.07,294.525 1661.85,294.525 1663.63,294.525 1665.41,294.525 1667.19,294.525 1668.98,294.525 1670.76,294.525 1672.54,294.525 1674.32,294.525 1676.1,294.525 1677.88,294.525 1679.66,294.525 1681.44,294.525 1683.22,294.525 1685,294.525 1686.78,294.525 1688.56,294.525 1690.34,294.525 1692.12,294.525 1693.9,294.525 1695.69,294.525 1697.47,294.525 1699.25,294.525 1701.03,294.525 1702.81,294.525 1704.59,294.525 1706.37,294.525 1708.15,294.525 1709.93,294.525 1711.71,294.525 1713.49,294.525 1715.27,294.525 1717.05,294.525 1718.83,294.525 1720.61,294.525 1722.4,294.525 1724.18,294.525 1725.96,294.525 1727.74,294.525 1729.52,294.525 1731.3,294.525 1733.08,294.525 1734.86,294.525 1736.64,294.525 1738.42,294.525 1740.2,294.525 1741.98,294.525 1743.76,294.525 1745.54,294.525 1747.33,294.525 1749.11,294.525 1750.89,294.525 1752.67,294.525 1754.45,294.525 1756.23,294.525 1758.01,294.525 1759.79,294.525 1761.57,294.525 1763.35,294.525 1765.13,294.525 1766.91,294.525 1768.69,294.525 1770.47,294.525 1772.25,294.525 1774.04,294.525 1775.82,294.525 1777.6,294.525 1779.38,294.525 1781.16,294.525 1782.94,294.525 1784.72,294.525 1786.5,294.525 1788.28,294.525 1790.06,294.525 1791.84,294.525 1793.62,294.525 1795.4,294.525 1797.18,294.525 1798.96,294.525 1800.75,294.525 1802.53,294.525 1804.31,294.525 1806.09,294.525 1807.87,294.525 1809.65,294.525 1811.43,294.525 1813.21,294.525 1814.99,294.525 1816.77,294.525 1818.55,294.525 1820.33,294.525 1822.11,294.525 1823.89,294.525 1825.67,294.525 1827.46,294.525 1829.24,294.525 1831.02,294.525 1832.8,294.525 1834.58,294.525 1836.36,294.525 1838.14,294.525 1839.92,294.525 1841.7,294.525 1843.48,294.525 1845.26,294.525 1847.04,294.525 1848.82,294.525 1850.6,294.525 1852.39,294.525 1854.17,294.525 1855.95,294.525 1857.73,294.525 1859.51,294.525 1861.29,294.525 1863.07,294.525 1864.85,294.525 1866.63,294.525 1868.41,294.525 1870.19,294.525 1871.97,294.525 1873.75,294.525 1875.53,294.525 1877.31,294.525 1879.1,294.525 1880.88,294.525 1882.66,294.525 1884.44,294.525 1886.22,294.525 1888,294.525 1889.78,294.525 1891.56,294.525 1893.34,294.525 1895.12,294.525 1896.9,294.525 1898.68,294.525 1900.46,294.525 1902.24,294.525 1904.02,294.525 1905.81,294.525 1907.59,294.525 1909.37,294.525 1911.15,294.525 1912.93,294.525 1914.71,294.525 1916.49,294.525 1918.27,294.525 1920.05,294.525 1921.83,294.525 1923.61,294.525 1925.39,294.525 1927.17,294.525 1928.95,294.525 1930.73,294.525 1932.52,294.525 1934.3,294.525 1936.08,294.525 1937.86,294.525 1939.64,294.525 1941.42,294.525 1943.2,294.525 1944.98,294.525 1946.76,294.525 1948.54,294.525 1950.32,294.525 1952.1,294.525 1953.88,294.525 1955.66,294.525 1957.45,294.525 1959.23,294.525 1961.01,294.525 1962.79,294.525 1964.57,294.525 1966.35,294.525 1968.13,294.525 1969.91,294.525 1971.69,294.525 1973.47,294.525 1975.25,294.525 1977.03,294.525 1978.81,294.525 1980.59,294.525 1982.37,294.525 1984.16,294.525 1985.94,294.525 1987.72,294.525 1989.5,294.525 1991.28,294.525 1993.06,294.525 1994.84,294.525 1996.62,294.525 1998.4,294.525 2000.18,294.525 2001.96,294.525 2003.74,294.525 2005.52,294.525 2007.3,294.525 2009.08,294.525 2010.87,294.525 2012.65,294.525 2014.43,294.525 2016.21,294.525 2017.99,294.525 2019.77,294.525 2021.55,294.525 2023.33,294.525 2025.11,294.525 2026.89,294.525 2028.67,294.525 2030.45,294.525 2032.23,294.525 2034.01,294.525 2035.8,294.525 2037.58,294.525 2039.36,294.525 2041.14,294.525 2042.92,294.525 2044.7,294.525 2046.48,294.525 2048.26,294.525 2050.04,294.525 2051.82,294.525 2053.6,294.525 2055.38,294.525 2057.16,294.525 2058.94,294.525 2060.72,294.525 2062.51,294.525 2064.29,294.525 2066.07,294.525 2067.85,294.525 2069.63,294.525 2071.41,294.525 2073.19,294.525 2074.97,294.525 2076.75,294.525 2078.53,294.525 2080.31,294.525 2082.09,294.525 2083.87,294.525 2085.65,294.525 2087.43,294.525 2089.22,294.525 2091,294.525 2092.78,294.525 2094.56,294.525 2096.34,294.525 2098.12,294.525 2099.9,294.525 2101.68,294.525 2103.46,294.525 2105.24,294.525 2107.02,294.525 2108.8,294.525 2110.58,294.525 2112.36,294.525 2114.14,294.525 2115.93,294.525 2117.71,294.525 2119.49,294.525 2121.27,294.525 2123.05,294.525 2124.83,294.525 2126.61,294.525 2128.39,294.525 2130.17,294.525 2131.95,294.525 2133.73,294.525 2135.51,294.525 2137.29,294.525 2139.07,294.525 2140.86,294.525 2142.64,294.525 2144.42,294.525 2146.2,294.525 2147.98,294.525 2149.76,294.525 2151.54,294.525 2153.32,294.525 2155.1,294.525 2156.88,294.525 2158.66,294.525 2160.44,294.525 2162.22,294.525 2164,294.525 2165.78,294.525 2167.57,294.525 2169.35,294.525 2171.13,294.525 2172.91,294.525 2174.69,294.525 2176.47,294.525 2178.25,294.525 2180.03,294.525 2181.81,294.525 2183.59,294.525 2185.37,294.525 2187.15,294.525 2188.93,294.525 2190.71,294.525 2192.49,294.525 2194.28,294.525 2196.06,294.525 2197.84,294.525 2199.62,294.525 2201.4,294.525 2203.18,294.525 2204.96,294.525 2206.74,294.525 2208.52,294.525 2210.3,294.525 2212.08,294.525 2213.86,294.525 2215.64,294.525 2217.42,294.525 2219.2,294.525 2220.99,294.525 2222.77,294.525 2224.55,294.525 2226.33,294.525 2228.11,294.525 2229.89,294.525 2231.67,294.525 2233.45,294.525 2235.23,294.525 2237.01,294.525 2238.79,294.525 2240.57,294.525 2242.35,294.525 2244.13,294.525 2245.92,294.525 2247.7,294.525 2249.48,294.525 2251.26,294.525 2253.04,294.525 2254.82,294.525 2256.6,294.525 2258.38,294.525 2260.16,294.525 2261.94,294.525 2263.72,294.525 2265.5,294.525 2267.28,294.525 2269.06,294.525 2270.84,294.525 2272.63,294.525 2274.41,294.525 2276.19,294.525 2277.97,294.525 2279.75,294.525 2281.53,294.525 2283.31,294.525 2285.09,294.525 2286.87,294.525 2288.65,294.525 2290.43,294.525 2292.21,294.525 2293.99,294.525 2295.77,294.525 2297.55,294.525 2299.34,294.525 2301.12,294.525 2302.9,294.525 2304.68,294.525 2306.46,294.525 2308.24,294.525 2310.02,294.525 2311.8,294.525 2313.58,294.525 2315.36,294.525 2317.14,294.525 2318.92,294.525 2320.7,294.525 2322.48,294.525 2324.27,294.525 2326.05,294.525 2327.83,294.525 2329.61,294.525 2331.39,294.525 2333.17,294.525 2334.95,294.525 2336.73,294.525 2338.51,294.525 2340.29,294.525 2342.07,294.525 2343.85,294.525 2345.63,294.525 2347.41,294.525 2349.19,294.525 2350.98,294.525 2352.76,294.525 "/>
<polyline clip-path="url(#clip591)" style="stroke:#e26f46; stroke-linecap:round; stroke-linejoin:round; stroke-width:4; stroke-opacity:1; fill:none" points="110.881,764.943 112.662,948.93 114.442,1093.11 116.223,1192.4 118.004,1260.19 119.784,1306.73 121.565,1337.89 123.346,1358.05 125.126,1370.58 126.907,1377.99 128.688,1382.02 130.468,1383.84 132.249,1384.24 134.03,1383.73 135.81,1382.65 137.591,1381.24 139.372,1379.62 141.152,1377.9 142.933,1376.15 144.714,1374.4 146.494,1372.67 148.275,1370.99 150.056,1369.37 151.837,1367.8 153.617,1366.29 155.398,1364.85 157.179,1363.47 158.959,1362.14 160.74,1360.88 162.521,1359.66 164.301,1358.51 166.082,1357.4 167.863,1356.34 169.643,1355.32 171.424,1354.35 173.205,1353.42 174.985,1352.53 176.766,1351.68 178.547,1350.86 180.327,1350.08 182.108,1349.32 183.889,1348.6 185.669,1347.91 187.45,1347.25 189.231,1346.61 191.011,1345.99 192.792,1345.4 194.573,1344.84 196.353,1344.29 198.134,1343.77 199.915,1343.27 201.696,1342.79 203.476,1342.32 205.257,1341.87 207.038,1341.44 208.818,1341.03 210.599,1340.63 212.38,1340.25 214.16,1339.88 215.941,1339.53 217.722,1339.19 219.502,1338.86 221.283,1338.54 223.064,1338.24 224.844,1337.94 226.625,1337.66 228.406,1337.39 230.186,1337.13 231.967,1336.87 233.748,1336.63 235.528,1336.4 237.309,1336.17 239.09,1335.95 240.87,1335.74 242.651,1335.54 244.432,1335.35 246.213,1335.16 247.993,1334.98 249.774,1334.8 251.555,1334.64 253.335,1334.48 255.116,1334.32 256.897,1334.17 258.677,1334.03 260.458,1333.89 262.239,1333.75 264.019,1333.62 265.8,1333.5 267.581,1333.38 269.361,1333.26 271.142,1333.15 272.923,1333.04 274.703,1332.94 276.484,1332.84 278.265,1332.74 280.045,1332.65 281.826,1332.56 283.607,1332.47 285.387,1332.39 287.168,1332.31 288.949,1332.23 290.729,1332.16 292.51,1332.08 294.291,1332.01 296.072,1331.95 297.852,1331.88 299.633,1331.82 301.414,1331.76 303.194,1331.7 304.975,1331.65 306.756,1331.59 308.536,1331.54 310.317,1331.49 312.098,1331.44 313.878,1331.4 315.659,1331.35 317.44,1331.31 319.22,1331.27 321.001,1331.23 322.782,1331.19 324.562,1331.15 326.343,1331.11 328.124,1331.08 329.904,1331.04 331.685,1331.01 333.466,1330.98 335.246,1330.95 337.027,1330.92 338.808,1330.89 340.588,1330.87 342.369,1330.84 344.15,1330.82 345.931,1330.79 347.711,1330.77 349.492,1330.75 351.273,1330.72 353.053,1330.7 354.834,1330.68 356.615,1330.66 358.395,1330.65 360.176,1330.63 361.957,1330.61 363.737,1330.59 365.518,1330.58 367.299,1330.56 369.079,1330.55 370.86,1330.53 372.641,1330.52 374.421,1330.5 376.202,1330.49 377.983,1330.48 379.763,1330.47 381.544,1330.45 383.325,1330.44 385.105,1330.43 386.886,1330.42 388.667,1330.41 390.448,1330.4 392.228,1330.39 394.009,1330.38 395.79,1330.37 397.57,1330.37 399.351,1330.36 401.132,1330.35 402.912,1330.34 404.693,1330.33 406.474,1330.33 408.254,1330.32 410.035,1330.31 411.816,1330.31 413.596,1330.3 415.377,1330.3 417.158,1330.29 418.938,1330.29 420.719,1330.28 422.5,1330.27 424.28,1330.27 426.061,1330.27 427.842,1330.26 429.622,1330.26 431.403,1330.25 433.184,1330.25 434.964,1330.24 436.745,1330.24 438.526,1330.24 440.307,1330.23 442.087,1330.23 443.868,1330.23 445.649,1330.22 447.429,1330.22 449.21,1330.22 450.991,1330.21 452.771,1330.21 454.552,1330.21 456.333,1330.21 458.113,1330.2 459.894,1330.2 461.675,1330.2 463.455,1330.2 465.236,1330.19 467.017,1330.19 468.797,1330.19 470.578,1330.19 472.359,1330.19 474.139,1330.19 475.92,1330.18 477.701,1330.18 479.481,1330.18 481.262,1330.18 483.043,1330.18 484.824,1330.18 486.604,1330.17 488.385,1330.17 490.166,1330.17 491.946,1330.17 493.727,1330.17 495.508,1330.17 497.288,1330.17 499.069,1330.17 500.85,1330.16 502.63,1330.16 504.411,1330.16 506.192,1330.16 507.972,1330.16 509.753,1330.16 511.534,1330.16 513.314,1330.16 515.095,1330.16 516.876,1330.16 518.656,1330.16 520.437,1330.16 522.218,1330.15 523.998,1330.15 525.779,1330.15 527.56,1330.15 529.34,1330.15 531.121,1330.15 532.902,1330.15 534.683,1330.15 536.463,1330.15 538.244,1330.15 540.025,1330.15 541.805,1330.15 543.586,1330.15 545.367,1330.15 547.147,1330.15 548.928,1330.15 550.709,1330.15 552.489,1330.15 554.27,1330.15 556.051,1330.15 557.831,1330.15 559.612,1330.15 561.393,1330.14 563.173,1330.14 564.954,1330.14 566.735,1330.14 568.515,1330.14 570.296,1330.14 572.077,1330.14 573.857,1330.14 575.638,1330.14 577.419,1330.14 579.199,1330.14 580.98,1330.14 582.761,1330.14 584.542,1330.14 586.322,1330.14 588.103,1330.14 589.884,1330.14 591.664,1330.14 593.445,1330.14 595.226,1330.14 597.006,1330.14 598.787,1330.14 600.568,1330.14 602.348,1330.14 604.129,1330.14 605.91,1330.14 607.69,1330.14 609.471,1330.14 611.252,1330.14 613.032,1330.14 614.813,1330.14 616.594,1330.14 618.374,1330.14 620.155,1330.14 621.936,1330.14 623.716,1330.14 625.497,1330.14 627.278,1330.14 629.059,1330.14 630.839,1330.14 632.62,1330.14 634.401,1330.14 636.181,1330.14 637.962,1330.14 639.743,1330.14 641.523,1330.14 643.304,1330.14 645.085,1330.14 646.865,1330.14 648.646,1330.14 650.427,1330.14 652.207,1330.14 653.988,1330.14 655.769,1330.14 657.549,1330.14 659.33,1330.14 661.111,1330.14 662.891,1330.14 664.672,1330.14 666.453,1330.14 668.233,1330.14 670.014,1330.14 671.795,1330.14 673.575,1330.14 675.356,1330.14 677.137,1330.14 678.918,1330.14 680.698,1330.14 682.479,1330.14 684.26,1330.14 686.04,1330.14 687.821,1330.14 689.602,1330.14 691.382,1330.14 693.163,1330.14 694.944,1330.14 696.724,1330.14 698.505,1330.14 700.286,1330.14 702.066,1330.14 703.847,1330.14 705.628,1330.14 707.408,1330.14 709.189,1330.14 710.97,1330.14 712.75,1330.14 714.531,1330.14 716.312,1330.14 718.092,1330.14 719.873,1330.14 721.654,1330.14 723.435,1330.14 725.215,1330.14 726.996,1330.14 728.777,1330.14 730.557,1330.14 732.338,1330.14 734.119,1330.14 735.899,1330.14 737.68,1330.14 739.461,1330.14 741.241,1330.14 743.022,1330.14 744.803,1330.14 746.583,1330.14 748.364,1330.14 750.145,1330.14 751.925,1330.14 753.706,1330.14 755.487,1330.14 757.267,1330.14 759.048,1330.14 760.829,1330.14 762.609,1330.14 764.39,1330.14 766.171,1330.14 767.951,1330.14 769.732,1330.14 771.513,1330.14 773.294,1330.14 775.074,1330.14 776.855,1330.14 778.636,1330.14 780.416,1330.14 782.197,1330.14 783.978,1330.14 785.758,1330.14 787.539,1330.14 789.32,1330.14 791.1,1330.14 792.881,1330.14 794.662,1330.14 796.442,1330.14 798.223,1330.14 800.004,1330.14 801.784,1330.14 803.565,1330.14 805.346,1330.14 807.126,1330.14 808.907,1330.14 810.688,1330.14 812.468,1330.14 814.249,1330.14 816.03,1330.14 817.81,1330.14 819.591,1330.14 821.372,1330.14 823.153,1330.14 824.933,1330.14 826.714,1330.14 828.495,1330.14 830.275,1330.14 832.056,1330.14 833.837,1330.14 835.617,1330.14 837.398,1330.14 839.179,1330.14 840.959,1330.14 842.74,1330.14 844.521,1330.14 846.301,1330.14 848.082,1330.14 849.863,1330.14 851.643,1330.14 853.424,1330.14 855.205,1330.14 856.985,1330.14 858.766,1330.14 860.547,1330.14 862.327,1330.14 864.108,1330.14 865.889,1330.14 867.67,1330.14 869.45,1330.14 871.231,1330.14 873.012,1330.14 874.792,1330.14 876.573,1330.14 878.354,1330.14 880.134,1330.14 881.915,1330.14 883.696,1330.14 885.476,1330.14 887.257,1330.14 889.038,1330.14 890.818,1330.14 892.599,1330.14 894.38,1330.14 896.16,1330.14 897.941,1330.14 899.722,1330.14 901.502,1330.14 903.283,1330.14 905.064,1330.14 906.844,1330.14 908.625,1330.14 910.406,1330.14 912.186,1330.14 913.967,1330.14 915.748,1330.14 917.529,1330.14 919.309,1330.14 921.09,1330.14 922.871,1330.14 924.651,1330.14 926.432,1330.14 928.213,1330.14 929.993,1330.14 931.774,1330.14 933.555,1330.14 935.335,1330.14 937.116,1330.14 938.897,1330.14 940.677,1330.14 942.458,1330.14 944.239,1330.14 946.019,1330.14 947.8,1330.14 949.581,1330.14 951.361,1330.14 953.142,1330.14 954.923,1330.14 956.703,1330.14 958.484,1330.14 960.265,1330.14 962.046,1330.14 963.826,1330.14 965.607,1330.14 967.388,1330.14 969.168,1330.14 970.949,1330.14 972.73,1330.14 974.51,1330.14 976.291,1330.14 978.072,1330.14 979.852,1330.14 981.633,1330.14 983.414,1330.14 985.194,1330.14 986.975,1330.14 988.756,1330.14 990.536,1330.14 992.317,1330.14 994.098,1330.14 995.878,1330.14 997.659,1330.14 999.44,1330.14 1001.22,1330.14 1003,1330.14 1004.78,1330.14 1006.56,1330.14 1008.34,1330.14 1010.12,1330.14 1011.9,1330.14 1013.69,1330.14 1015.47,1330.14 1017.25,1330.14 1019.03,1330.14 1020.81,1330.14 1022.59,1330.14 1024.37,1330.14 1026.15,1330.14 1027.93,1330.14 1029.71,1330.14 1031.49,1330.14 1033.27,1330.14 1035.05,1330.14 1036.83,1330.14 1038.61,1330.14 1040.4,1330.14 1042.18,1330.14 1043.96,1330.14 1045.74,1330.14 1047.52,1330.14 1049.3,1330.14 1051.08,1330.14 1052.86,1330.14 1054.64,1330.14 1056.42,1330.14 1058.2,1330.14 1059.98,1330.14 1061.76,1330.14 1063.54,1330.14 1065.32,1330.14 1067.11,1330.14 1068.89,1330.14 1070.67,1330.14 1072.45,1330.14 1074.23,1330.14 1076.01,1330.14 1077.79,1330.14 1079.57,1330.14 1081.35,1330.14 1083.13,1330.14 1084.91,1330.14 1086.69,1330.14 1088.47,1330.14 1090.25,1330.14 1092.04,1330.14 1093.82,1330.14 1095.6,1330.14 1097.38,1330.14 1099.16,1330.14 1100.94,1330.14 1102.72,1330.14 1104.5,1330.14 1106.28,1330.14 1108.06,1330.14 1109.84,1330.14 1111.62,1330.14 1113.4,1330.14 1115.18,1330.14 1116.96,1330.14 1118.75,1330.14 1120.53,1330.14 1122.31,1330.14 1124.09,1330.14 1125.87,1330.14 1127.65,1330.14 1129.43,1330.14 1131.21,1330.14 1132.99,1330.14 1134.77,1330.14 1136.55,1330.14 1138.33,1330.14 1140.11,1330.14 1141.89,1330.14 1143.67,1330.14 1145.46,1330.14 1147.24,1330.14 1149.02,1330.14 1150.8,1330.14 1152.58,1330.14 1154.36,1330.14 1156.14,1330.14 1157.92,1330.14 1159.7,1330.14 1161.48,1330.14 1163.26,1330.14 1165.04,1330.14 1166.82,1330.14 1168.6,1330.14 1170.38,1330.14 1172.17,1330.14 1173.95,1330.14 1175.73,1330.14 1177.51,1330.14 1179.29,1330.14 1181.07,1330.14 1182.85,1330.14 1184.63,1330.14 1186.41,1330.14 1188.19,1330.14 1189.97,1330.14 1191.75,1330.14 1193.53,1330.14 1195.31,1330.14 1197.1,1330.14 1198.88,1330.14 1200.66,1330.14 1202.44,1330.14 1204.22,1330.14 1206,1330.14 1207.78,1330.14 1209.56,1330.14 1211.34,1330.14 1213.12,1330.14 1214.9,1330.14 1216.68,1330.14 1218.46,1330.14 1220.24,1330.14 1222.02,1330.14 1223.81,1330.14 1225.59,1330.14 1227.37,1330.14 1229.15,1330.14 1230.93,1330.14 1232.71,1330.14 1234.49,1330.14 1236.27,1330.14 1238.05,1330.14 1239.83,1330.14 1241.61,1330.14 1243.39,1330.14 1245.17,1330.14 1246.95,1330.14 1248.73,1330.14 1250.52,1330.14 1252.3,1330.14 1254.08,1330.14 1255.86,1330.14 1257.64,1330.14 1259.42,1330.14 1261.2,1330.14 1262.98,1330.14 1264.76,1330.14 1266.54,1330.14 1268.32,1330.14 1270.1,1330.14 1271.88,1330.14 1273.66,1330.14 1275.45,1330.14 1277.23,1330.14 1279.01,1330.14 1280.79,1330.14 1282.57,1330.14 1284.35,1330.14 1286.13,1330.14 1287.91,1330.14 1289.69,1330.14 1291.47,1330.14 1293.25,1330.14 1295.03,1330.14 1296.81,1330.14 1298.59,1330.14 1300.37,1330.14 1302.16,1330.14 1303.94,1330.14 1305.72,1330.14 1307.5,1330.14 1309.28,1330.14 1311.06,1330.14 1312.84,1330.14 1314.62,1330.14 1316.4,1330.14 1318.18,1330.14 1319.96,1330.14 1321.74,1330.14 1323.52,1330.14 1325.3,1330.14 1327.08,1330.14 1328.87,1330.14 1330.65,1330.14 1332.43,1330.14 1334.21,1330.14 1335.99,1330.14 1337.77,1330.14 1339.55,1330.14 1341.33,1330.14 1343.11,1330.14 1344.89,1330.14 1346.67,1330.14 1348.45,1330.14 1350.23,1330.14 1352.01,1330.14 1353.79,1330.14 1355.58,1330.14 1357.36,1330.14 1359.14,1330.14 1360.92,1330.14 1362.7,1330.14 1364.48,1330.14 1366.26,1330.14 1368.04,1330.14 1369.82,1330.14 1371.6,1330.14 1373.38,1330.14 1375.16,1330.14 1376.94,1330.14 1378.72,1330.14 1380.51,1330.14 1382.29,1330.14 1384.07,1330.14 1385.85,1330.14 1387.63,1330.14 1389.41,1330.14 1391.19,1330.14 1392.97,1330.14 1394.75,1330.14 1396.53,1330.14 1398.31,1330.14 1400.09,1330.14 1401.87,1330.14 1403.65,1330.14 1405.43,1330.14 1407.22,1330.14 1409,1330.14 1410.78,1330.14 1412.56,1330.14 1414.34,1330.14 1416.12,1330.14 1417.9,1330.14 1419.68,1330.14 1421.46,1330.14 1423.24,1330.14 1425.02,1330.14 1426.8,1330.14 1428.58,1330.14 1430.36,1330.14 1432.14,1330.14 1433.93,1330.14 1435.71,1330.14 1437.49,1330.14 1439.27,1330.14 1441.05,1330.14 1442.83,1330.14 1444.61,1330.14 1446.39,1330.14 1448.17,1330.14 1449.95,1330.14 1451.73,1330.14 1453.51,1330.14 1455.29,1330.14 1457.07,1330.14 1458.85,1330.14 1460.64,1330.14 1462.42,1330.14 1464.2,1330.14 1465.98,1330.14 1467.76,1330.14 1469.54,1330.14 1471.32,1330.14 1473.1,1330.14 1474.88,1330.14 1476.66,1330.14 1478.44,1330.14 1480.22,1330.14 1482,1330.14 1483.78,1330.14 1485.57,1330.14 1487.35,1330.14 1489.13,1330.14 1490.91,1330.14 1492.69,1330.14 1494.47,1330.14 1496.25,1330.14 1498.03,1330.14 1499.81,1330.14 1501.59,1330.14 1503.37,1330.14 1505.15,1330.14 1506.93,1330.14 1508.71,1330.14 1510.49,1330.14 1512.28,1330.14 1514.06,1330.14 1515.84,1330.14 1517.62,1330.14 1519.4,1330.14 1521.18,1330.14 1522.96,1330.14 1524.74,1330.14 1526.52,1330.14 1528.3,1330.14 1530.08,1330.14 1531.86,1330.14 1533.64,1330.14 1535.42,1330.14 1537.2,1330.14 1538.99,1330.14 1540.77,1330.14 1542.55,1330.14 1544.33,1330.14 1546.11,1330.14 1547.89,1330.14 1549.67,1330.14 1551.45,1330.14 1553.23,1330.14 1555.01,1330.14 1556.79,1330.14 1558.57,1330.14 1560.35,1330.14 1562.13,1330.14 1563.92,1330.14 1565.7,1330.14 1567.48,1330.14 1569.26,1330.14 1571.04,1330.14 1572.82,1330.14 1574.6,1330.14 1576.38,1330.14 1578.16,1330.14 1579.94,1330.14 1581.72,1330.14 1583.5,1330.14 1585.28,1330.14 1587.06,1330.14 1588.84,1330.14 1590.63,1330.14 1592.41,1330.14 1594.19,1330.14 1595.97,1330.14 1597.75,1330.14 1599.53,1330.14 1601.31,1330.14 1603.09,1330.14 1604.87,1330.14 1606.65,1330.14 1608.43,1330.14 1610.21,1330.14 1611.99,1330.14 1613.77,1330.14 1615.55,1330.14 1617.34,1330.14 1619.12,1330.14 1620.9,1330.14 1622.68,1330.14 1624.46,1330.14 1626.24,1330.14 1628.02,1330.14 1629.8,1330.14 1631.58,1330.14 1633.36,1330.14 1635.14,1330.14 1636.92,1330.14 1638.7,1330.14 1640.48,1330.14 1642.26,1330.14 1644.05,1330.14 1645.83,1330.14 1647.61,1330.14 1649.39,1330.14 1651.17,1330.14 1652.95,1330.14 1654.73,1330.14 1656.51,1330.14 1658.29,1330.14 1660.07,1330.14 1661.85,1330.14 1663.63,1330.14 1665.41,1330.14 1667.19,1330.14 1668.98,1330.14 1670.76,1330.14 1672.54,1330.14 1674.32,1330.14 1676.1,1330.14 1677.88,1330.14 1679.66,1330.14 1681.44,1330.14 1683.22,1330.14 1685,1330.14 1686.78,1330.14 1688.56,1330.14 1690.34,1330.14 1692.12,1330.14 1693.9,1330.14 1695.69,1330.14 1697.47,1330.14 1699.25,1330.14 1701.03,1330.14 1702.81,1330.14 1704.59,1330.14 1706.37,1330.14 1708.15,1330.14 1709.93,1330.14 1711.71,1330.14 1713.49,1330.14 1715.27,1330.14 1717.05,1330.14 1718.83,1330.14 1720.61,1330.14 1722.4,1330.14 1724.18,1330.14 1725.96,1330.14 1727.74,1330.14 1729.52,1330.14 1731.3,1330.14 1733.08,1330.14 1734.86,1330.14 1736.64,1330.14 1738.42,1330.14 1740.2,1330.14 1741.98,1330.14 1743.76,1330.14 1745.54,1330.14 1747.33,1330.14 1749.11,1330.14 1750.89,1330.14 1752.67,1330.14 1754.45,1330.14 1756.23,1330.14 1758.01,1330.14 1759.79,1330.14 1761.57,1330.14 1763.35,1330.14 1765.13,1330.14 1766.91,1330.14 1768.69,1330.14 1770.47,1330.14 1772.25,1330.14 1774.04,1330.14 1775.82,1330.14 1777.6,1330.14 1779.38,1330.14 1781.16,1330.14 1782.94,1330.14 1784.72,1330.14 1786.5,1330.14 1788.28,1330.14 1790.06,1330.14 1791.84,1330.14 1793.62,1330.14 1795.4,1330.14 1797.18,1330.14 1798.96,1330.14 1800.75,1330.14 1802.53,1330.14 1804.31,1330.14 1806.09,1330.14 1807.87,1330.14 1809.65,1330.14 1811.43,1330.14 1813.21,1330.14 1814.99,1330.14 1816.77,1330.14 1818.55,1330.14 1820.33,1330.14 1822.11,1330.14 1823.89,1330.14 1825.67,1330.14 1827.46,1330.14 1829.24,1330.14 1831.02,1330.14 1832.8,1330.14 1834.58,1330.14 1836.36,1330.14 1838.14,1330.14 1839.92,1330.14 1841.7,1330.14 1843.48,1330.14 1845.26,1330.14 1847.04,1330.14 1848.82,1330.14 1850.6,1330.14 1852.39,1330.14 1854.17,1330.14 1855.95,1330.14 1857.73,1330.14 1859.51,1330.14 1861.29,1330.14 1863.07,1330.14 1864.85,1330.14 1866.63,1330.14 1868.41,1330.14 1870.19,1330.14 1871.97,1330.14 1873.75,1330.14 1875.53,1330.14 1877.31,1330.14 1879.1,1330.14 1880.88,1330.14 1882.66,1330.14 1884.44,1330.14 1886.22,1330.14 1888,1330.14 1889.78,1330.14 1891.56,1330.14 1893.34,1330.14 1895.12,1330.14 1896.9,1330.14 1898.68,1330.14 1900.46,1330.14 1902.24,1330.14 1904.02,1330.14 1905.81,1330.14 1907.59,1330.14 1909.37,1330.14 1911.15,1330.14 1912.93,1330.14 1914.71,1330.14 1916.49,1330.14 1918.27,1330.14 1920.05,1330.14 1921.83,1330.14 1923.61,1330.14 1925.39,1330.14 1927.17,1330.14 1928.95,1330.14 1930.73,1330.14 1932.52,1330.14 1934.3,1330.14 1936.08,1330.14 1937.86,1330.14 1939.64,1330.14 1941.42,1330.14 1943.2,1330.14 1944.98,1330.14 1946.76,1330.14 1948.54,1330.14 1950.32,1330.14 1952.1,1330.14 1953.88,1330.14 1955.66,1330.14 1957.45,1330.14 1959.23,1330.14 1961.01,1330.14 1962.79,1330.14 1964.57,1330.14 1966.35,1330.14 1968.13,1330.14 1969.91,1330.14 1971.69,1330.14 1973.47,1330.14 1975.25,1330.14 1977.03,1330.14 1978.81,1330.14 1980.59,1330.14 1982.37,1330.14 1984.16,1330.14 1985.94,1330.14 1987.72,1330.14 1989.5,1330.14 1991.28,1330.14 1993.06,1330.14 1994.84,1330.14 1996.62,1330.14 1998.4,1330.14 2000.18,1330.14 2001.96,1330.14 2003.74,1330.14 2005.52,1330.14 2007.3,1330.14 2009.08,1330.14 2010.87,1330.14 2012.65,1330.14 2014.43,1330.14 2016.21,1330.14 2017.99,1330.14 2019.77,1330.14 2021.55,1330.14 2023.33,1330.14 2025.11,1330.14 2026.89,1330.14 2028.67,1330.14 2030.45,1330.14 2032.23,1330.14 2034.01,1330.14 2035.8,1330.14 2037.58,1330.14 2039.36,1330.14 2041.14,1330.14 2042.92,1330.14 2044.7,1330.14 2046.48,1330.14 2048.26,1330.14 2050.04,1330.14 2051.82,1330.14 2053.6,1330.14 2055.38,1330.14 2057.16,1330.14 2058.94,1330.14 2060.72,1330.14 2062.51,1330.14 2064.29,1330.14 2066.07,1330.14 2067.85,1330.14 2069.63,1330.14 2071.41,1330.14 2073.19,1330.14 2074.97,1330.14 2076.75,1330.14 2078.53,1330.14 2080.31,1330.14 2082.09,1330.14 2083.87,1330.14 2085.65,1330.14 2087.43,1330.14 2089.22,1330.14 2091,1330.14 2092.78,1330.14 2094.56,1330.14 2096.34,1330.14 2098.12,1330.14 2099.9,1330.14 2101.68,1330.14 2103.46,1330.14 2105.24,1330.14 2107.02,1330.14 2108.8,1330.14 2110.58,1330.14 2112.36,1330.14 2114.14,1330.14 2115.93,1330.14 2117.71,1330.14 2119.49,1330.14 2121.27,1330.14 2123.05,1330.14 2124.83,1330.14 2126.61,1330.14 2128.39,1330.14 2130.17,1330.14 2131.95,1330.14 2133.73,1330.14 2135.51,1330.14 2137.29,1330.14 2139.07,1330.14 2140.86,1330.14 2142.64,1330.14 2144.42,1330.14 2146.2,1330.14 2147.98,1330.14 2149.76,1330.14 2151.54,1330.14 2153.32,1330.14 2155.1,1330.14 2156.88,1330.14 2158.66,1330.14 2160.44,1330.14 2162.22,1330.14 2164,1330.14 2165.78,1330.14 2167.57,1330.14 2169.35,1330.14 2171.13,1330.14 2172.91,1330.14 2174.69,1330.14 2176.47,1330.14 2178.25,1330.14 2180.03,1330.14 2181.81,1330.14 2183.59,1330.14 2185.37,1330.14 2187.15,1330.14 2188.93,1330.14 2190.71,1330.14 2192.49,1330.14 2194.28,1330.14 2196.06,1330.14 2197.84,1330.14 2199.62,1330.14 2201.4,1330.14 2203.18,1330.14 2204.96,1330.14 2206.74,1330.14 2208.52,1330.14 2210.3,1330.14 2212.08,1330.14 2213.86,1330.14 2215.64,1330.14 2217.42,1330.14 2219.2,1330.14 2220.99,1330.14 2222.77,1330.14 2224.55,1330.14 2226.33,1330.14 2228.11,1330.14 2229.89,1330.14 2231.67,1330.14 2233.45,1330.14 2235.23,1330.14 2237.01,1330.14 2238.79,1330.14 2240.57,1330.14 2242.35,1330.14 2244.13,1330.14 2245.92,1330.14 2247.7,1330.14 2249.48,1330.14 2251.26,1330.14 2253.04,1330.14 2254.82,1330.14 2256.6,1330.14 2258.38,1330.14 2260.16,1330.14 2261.94,1330.14 2263.72,1330.14 2265.5,1330.14 2267.28,1330.14 2269.06,1330.14 2270.84,1330.14 2272.63,1330.14 2274.41,1330.14 2276.19,1330.14 2277.97,1330.14 2279.75,1330.14 2281.53,1330.14 2283.31,1330.14 2285.09,1330.14 2286.87,1330.14 2288.65,1330.14 2290.43,1330.14 2292.21,1330.14 2293.99,1330.14 2295.77,1330.14 2297.55,1330.14 2299.34,1330.14 2301.12,1330.14 2302.9,1330.14 2304.68,1330.14 2306.46,1330.14 2308.24,1330.14 2310.02,1330.14 2311.8,1330.14 2313.58,1330.14 2315.36,1330.14 2317.14,1330.14 2318.92,1330.14 2320.7,1330.14 2322.48,1330.14 2324.27,1330.14 2326.05,1330.14 2327.83,1330.14 2329.61,1330.14 2331.39,1330.14 2333.17,1330.14 2334.95,1330.14 2336.73,1330.14 2338.51,1330.14 2340.29,1330.14 2342.07,1330.14 2343.85,1330.14 2345.63,1330.14 2347.41,1330.14 2349.19,1330.14 2350.98,1330.14 2352.76,1330.14 "/>
<path clip-path="url(#clip590)" d="M1986.29 248.629 L2278.03 248.629 L2278.03 93.1086 L1986.29 93.1086  Z" fill="#ffffff" fill-rule="evenodd" fill-opacity="1"/>
<polyline clip-path="url(#clip590)" style="stroke:#000000; stroke-linecap:round; stroke-linejoin:round; stroke-width:4; stroke-opacity:1; fill:none" points="1986.29,248.629 2278.03,248.629 2278.03,93.1086 1986.29,93.1086 1986.29,248.629 "/>
<polyline clip-path="url(#clip590)" style="stroke:#009af9; stroke-linecap:round; stroke-linejoin:round; stroke-width:4; stroke-opacity:1; fill:none" points="2011.2,144.949 2160.66,144.949 "/>
<path clip-path="url(#clip590)" d="M2204.83 145.794 L2190.08 145.794 Q2190.43 152.715 2192.03 155.655 Q2194.02 159.266 2197.47 159.266 Q2200.94 159.266 2202.86 155.631 Q2204.55 152.437 2204.83 145.794 M2204.76 141.858 Q2204.11 135.284 2202.86 132.97 Q2200.87 129.312 2197.47 129.312 Q2193.93 129.312 2192.05 132.923 Q2190.57 135.84 2190.13 141.858 L2204.76 141.858 M2197.47 125.84 Q2203.02 125.84 2206.2 130.747 Q2209.37 135.632 2209.37 144.289 Q2209.37 152.923 2206.2 157.83 Q2203.02 162.761 2197.47 162.761 Q2191.89 162.761 2188.74 157.83 Q2185.57 152.923 2185.57 144.289 Q2185.57 135.632 2188.74 130.747 Q2191.89 125.84 2197.47 125.84 Z" fill="#000000" fill-rule="nonzero" fill-opacity="1" /><polyline clip-path="url(#clip590)" style="stroke:#e26f46; stroke-linecap:round; stroke-linejoin:round; stroke-width:4; stroke-opacity:1; fill:none" points="2011.2,196.789 2160.66,196.789 "/>
<path clip-path="url(#clip590)" d="M2204.83 197.634 L2190.08 197.634 Q2190.43 204.555 2192.03 207.495 Q2194.02 211.106 2197.47 211.106 Q2200.94 211.106 2202.86 207.471 Q2204.55 204.277 2204.83 197.634 M2204.76 193.698 Q2204.11 187.124 2202.86 184.81 Q2200.87 181.152 2197.47 181.152 Q2193.93 181.152 2192.05 184.763 Q2190.57 187.68 2190.13 193.698 L2204.76 193.698 M2197.47 177.68 Q2203.02 177.68 2206.2 182.587 Q2209.37 187.472 2209.37 196.129 Q2209.37 204.763 2206.2 209.67 Q2203.02 214.601 2197.47 214.601 Q2191.89 214.601 2188.74 209.67 Q2185.57 204.763 2185.57 196.129 Q2185.57 187.472 2188.74 182.587 Q2191.89 177.68 2197.47 177.68 Z" fill="#000000" fill-rule="nonzero" fill-opacity="1" /><path clip-path="url(#clip590)" d="M2216.89 218.05 L2230.73 218.05 L2230.73 221.476 L2216.89 221.476 L2216.89 218.05 Z" fill="#000000" fill-rule="nonzero" fill-opacity="1" /><path clip-path="url(#clip590)" d="M2244.34 180.782 L2244.34 188.143 L2253.12 188.143 L2253.12 191.453 L2244.34 191.453 L2244.34 205.527 Q2244.34 208.698 2245.2 209.601 Q2246.08 210.504 2248.74 210.504 L2253.12 210.504 L2253.12 214.069 L2248.74 214.069 Q2243.81 214.069 2241.94 212.24 Q2240.06 210.388 2240.06 205.527 L2240.06 191.453 L2236.94 191.453 L2236.94 188.143 L2240.06 188.143 L2240.06 180.782 L2244.34 180.782 Z" fill="#000000" fill-rule="nonzero" fill-opacity="1" /></svg>
