<?xml version="1.0" encoding="utf-8"?>
<svg xmlns="http://www.w3.org/2000/svg" xmlns:xlink="http://www.w3.org/1999/xlink" width="600" height="400" viewBox="0 0 2400 1600">
<defs>
  <clipPath id="clip380">
    <rect x="0" y="0" width="2400" height="1600"/>
  </clipPath>
</defs>
<path clip-path="url(#clip380)" d="M0 1600 L2400 1600 L2400 0 L0 0  Z" fill="#ffffff" fill-rule="evenodd" fill-opacity="1"/>
<defs>
  <clipPath id="clip381">
    <rect x="110" y="47" width="2243" height="1377"/>
  </clipPath>
</defs>
<path clip-path="url(#clip380)" d="M110.881 1423.18 L2352.76 1423.18 L2352.76 47.2441 L110.881 47.2441  Z" fill="#ffffff" fill-rule="evenodd" fill-opacity="1"/>
<polyline clip-path="url(#clip381)" style="stroke:#000000; stroke-linecap:round; stroke-linejoin:round; stroke-width:2; stroke-opacity:0.1; fill:none" points="110.881,1423.18 110.881,47.2441 "/>
<polyline clip-path="url(#clip381)" style="stroke:#000000; stroke-linecap:round; stroke-linejoin:round; stroke-width:2; stroke-opacity:0.1; fill:none" points="484.527,1423.18 484.527,47.2441 "/>
<polyline clip-path="url(#clip381)" style="stroke:#000000; stroke-linecap:round; stroke-linejoin:round; stroke-width:2; stroke-opacity:0.1; fill:none" points="858.173,1423.18 858.173,47.2441 "/>
<polyline clip-path="url(#clip381)" style="stroke:#000000; stroke-linecap:round; stroke-linejoin:round; stroke-width:2; stroke-opacity:0.1; fill:none" points="1231.82,1423.18 1231.82,47.2441 "/>
<polyline clip-path="url(#clip381)" style="stroke:#000000; stroke-linecap:round; stroke-linejoin:round; stroke-width:2; stroke-opacity:0.1; fill:none" points="1605.46,1423.18 1605.46,47.2441 "/>
<polyline clip-path="url(#clip381)" style="stroke:#000000; stroke-linecap:round; stroke-linejoin:round; stroke-width:2; stroke-opacity:0.1; fill:none" points="1979.11,1423.18 1979.11,47.2441 "/>
<polyline clip-path="url(#clip381)" style="stroke:#000000; stroke-linecap:round; stroke-linejoin:round; stroke-width:2; stroke-opacity:0.1; fill:none" points="2352.76,1423.18 2352.76,47.2441 "/>
<polyline clip-path="url(#clip381)" style="stroke:#000000; stroke-linecap:round; stroke-linejoin:round; stroke-width:2; stroke-opacity:0.1; fill:none" points="110.881,1384.24 2352.76,1384.24 "/>
<polyline clip-path="url(#clip381)" style="stroke:#000000; stroke-linecap:round; stroke-linejoin:round; stroke-width:2; stroke-opacity:0.1; fill:none" points="110.881,971.133 2352.76,971.133 "/>
<polyline clip-path="url(#clip381)" style="stroke:#000000; stroke-linecap:round; stroke-linejoin:round; stroke-width:2; stroke-opacity:0.1; fill:none" points="110.881,558.029 2352.76,558.029 "/>
<polyline clip-path="url(#clip381)" style="stroke:#000000; stroke-linecap:round; stroke-linejoin:round; stroke-width:2; stroke-opacity:0.1; fill:none" points="110.881,144.924 2352.76,144.924 "/>
<polyline clip-path="url(#clip380)" style="stroke:#000000; stroke-linecap:round; stroke-linejoin:round; stroke-width:4; stroke-opacity:1; fill:none" points="110.881,1423.18 2352.76,1423.18 "/>
<polyline clip-path="url(#clip380)" style="stroke:#000000; stroke-linecap:round; stroke-linejoin:round; stroke-width:4; stroke-opacity:1; fill:none" points="110.881,1423.18 110.881,1404.28 "/>
<polyline clip-path="url(#clip380)" style="stroke:#000000; stroke-linecap:round; stroke-linejoin:round; stroke-width:4; stroke-opacity:1; fill:none" points="484.527,1423.18 484.527,1404.28 "/>
<polyline clip-path="url(#clip380)" style="stroke:#000000; stroke-linecap:round; stroke-linejoin:round; stroke-width:4; stroke-opacity:1; fill:none" points="858.173,1423.18 858.173,1404.28 "/>
<polyline clip-path="url(#clip380)" style="stroke:#000000; stroke-linecap:round; stroke-linejoin:round; stroke-width:4; stroke-opacity:1; fill:none" points="1231.82,1423.18 1231.82,1404.28 "/>
<polyline clip-path="url(#clip380)" style="stroke:#000000; stroke-linecap:round; stroke-linejoin:round; stroke-width:4; stroke-opacity:1; fill:none" points="1605.46,1423.18 1605.46,1404.28 "/>
<polyline clip-path="url(#clip380)" style="stroke:#000000; stroke-linecap:round; stroke-linejoin:round; stroke-width:4; stroke-opacity:1; fill:none" points="1979.11,1423.18 1979.11,1404.28 "/>
<polyline clip-path="url(#clip380)" style="stroke:#000000; stroke-linecap:round; stroke-linejoin:round; stroke-width:4; stroke-opacity:1; fill:none" points="2352.76,1423.18 2352.76,1404.28 "/>
<path clip-path="url(#clip380)" d="M110.881 1454.1 Q107.27 1454.1 105.441 1457.66 Q103.636 1461.2 103.636 1468.33 Q103.636 1475.44 105.441 1479.01 Q107.27 1482.55 110.881 1482.55 Q114.515 1482.55 116.321 1479.01 Q118.149 1475.44 118.149 1468.33 Q118.149 1461.2 116.321 1457.66 Q114.515 1454.1 110.881 1454.1 M110.881 1450.39 Q116.691 1450.39 119.747 1455 Q122.825 1459.58 122.825 1468.33 Q122.825 1477.06 119.747 1481.67 Q116.691 1486.25 110.881 1486.25 Q105.071 1486.25 101.992 1481.67 Q98.9365 1477.06 98.9365 1468.33 Q98.9365 1459.58 101.992 1455 Q105.071 1450.39 110.881 1450.39 Z" fill="#000000" fill-rule="nonzero" fill-opacity="1" /><path clip-path="url(#clip380)" d="M463.3 1481.64 L479.619 1481.64 L479.619 1485.58 L457.675 1485.58 L457.675 1481.64 Q460.337 1478.89 464.92 1474.26 Q469.527 1469.61 470.707 1468.27 Q472.953 1465.74 473.832 1464.01 Q474.735 1462.25 474.735 1460.56 Q474.735 1457.8 472.791 1456.07 Q470.869 1454.33 467.768 1454.33 Q465.568 1454.33 463.115 1455.09 Q460.684 1455.86 457.906 1457.41 L457.906 1452.69 Q460.731 1451.55 463.184 1450.97 Q465.638 1450.39 467.675 1450.39 Q473.045 1450.39 476.24 1453.08 Q479.434 1455.77 479.434 1460.26 Q479.434 1462.39 478.624 1464.31 Q477.837 1466.2 475.73 1468.8 Q475.152 1469.47 472.05 1472.69 Q468.948 1475.88 463.3 1481.64 Z" fill="#000000" fill-rule="nonzero" fill-opacity="1" /><path clip-path="url(#clip380)" d="M499.434 1454.1 Q495.823 1454.1 493.994 1457.66 Q492.189 1461.2 492.189 1468.33 Q492.189 1475.44 493.994 1479.01 Q495.823 1482.55 499.434 1482.55 Q503.068 1482.55 504.874 1479.01 Q506.703 1475.44 506.703 1468.33 Q506.703 1461.2 504.874 1457.66 Q503.068 1454.1 499.434 1454.1 M499.434 1450.39 Q505.244 1450.39 508.3 1455 Q511.378 1459.58 511.378 1468.33 Q511.378 1477.06 508.3 1481.67 Q505.244 1486.25 499.434 1486.25 Q493.624 1486.25 490.545 1481.67 Q487.49 1477.06 487.49 1468.33 Q487.49 1459.58 490.545 1455 Q493.624 1450.39 499.434 1450.39 Z" fill="#000000" fill-rule="nonzero" fill-opacity="1" /><path clip-path="url(#clip380)" d="M846.344 1455.09 L834.538 1473.54 L846.344 1473.54 L846.344 1455.09 M845.117 1451.02 L850.997 1451.02 L850.997 1473.54 L855.927 1473.54 L855.927 1477.43 L850.997 1477.43 L850.997 1485.58 L846.344 1485.58 L846.344 1477.43 L830.742 1477.43 L830.742 1472.92 L845.117 1451.02 Z" fill="#000000" fill-rule="nonzero" fill-opacity="1" /><path clip-path="url(#clip380)" d="M873.659 1454.1 Q870.047 1454.1 868.219 1457.66 Q866.413 1461.2 866.413 1468.33 Q866.413 1475.44 868.219 1479.01 Q870.047 1482.55 873.659 1482.55 Q877.293 1482.55 879.098 1479.01 Q880.927 1475.44 880.927 1468.33 Q880.927 1461.2 879.098 1457.66 Q877.293 1454.1 873.659 1454.1 M873.659 1450.39 Q879.469 1450.39 882.524 1455 Q885.603 1459.58 885.603 1468.33 Q885.603 1477.06 882.524 1481.67 Q879.469 1486.25 873.659 1486.25 Q867.848 1486.25 864.77 1481.67 Q861.714 1477.06 861.714 1468.33 Q861.714 1459.58 864.77 1455 Q867.848 1450.39 873.659 1450.39 Z" fill="#000000" fill-rule="nonzero" fill-opacity="1" /><path clip-path="url(#clip380)" d="M1217.22 1466.44 Q1214.08 1466.44 1212.22 1468.59 Q1210.39 1470.74 1210.39 1474.49 Q1210.39 1478.22 1212.22 1480.39 Q1214.08 1482.55 1217.22 1482.55 Q1220.37 1482.55 1222.2 1480.39 Q1224.05 1478.22 1224.05 1474.49 Q1224.05 1470.74 1222.2 1468.59 Q1220.37 1466.44 1217.22 1466.44 M1226.51 1451.78 L1226.51 1456.04 Q1224.75 1455.21 1222.94 1454.77 Q1221.16 1454.33 1219.4 1454.33 Q1214.77 1454.33 1212.32 1457.45 Q1209.89 1460.58 1209.54 1466.9 Q1210.9 1464.89 1212.96 1463.82 Q1215.02 1462.73 1217.5 1462.73 Q1222.71 1462.73 1225.72 1465.9 Q1228.75 1469.05 1228.75 1474.49 Q1228.75 1479.82 1225.6 1483.03 Q1222.46 1486.25 1217.22 1486.25 Q1211.23 1486.25 1208.06 1481.67 Q1204.89 1477.06 1204.89 1468.33 Q1204.89 1460.14 1208.77 1455.28 Q1212.66 1450.39 1219.21 1450.39 Q1220.97 1450.39 1222.76 1450.74 Q1224.56 1451.09 1226.51 1451.78 Z" fill="#000000" fill-rule="nonzero" fill-opacity="1" /><path clip-path="url(#clip380)" d="M1246.81 1454.1 Q1243.2 1454.1 1241.37 1457.66 Q1239.56 1461.2 1239.56 1468.33 Q1239.56 1475.44 1241.37 1479.01 Q1243.2 1482.55 1246.81 1482.55 Q1250.44 1482.55 1252.25 1479.01 Q1254.08 1475.44 1254.08 1468.33 Q1254.08 1461.2 1252.25 1457.66 Q1250.44 1454.1 1246.81 1454.1 M1246.81 1450.39 Q1252.62 1450.39 1255.67 1455 Q1258.75 1459.58 1258.75 1468.33 Q1258.75 1477.06 1255.67 1481.67 Q1252.62 1486.25 1246.81 1486.25 Q1241 1486.25 1237.92 1481.67 Q1234.86 1477.06 1234.86 1468.33 Q1234.86 1459.58 1237.92 1455 Q1241 1450.39 1246.81 1450.39 Z" fill="#000000" fill-rule="nonzero" fill-opacity="1" /><path clip-path="url(#clip380)" d="M1590.34 1469.17 Q1587 1469.17 1585.08 1470.95 Q1583.18 1472.73 1583.18 1475.86 Q1583.18 1478.98 1585.08 1480.77 Q1587 1482.55 1590.34 1482.55 Q1593.67 1482.55 1595.59 1480.77 Q1597.51 1478.96 1597.51 1475.86 Q1597.51 1472.73 1595.59 1470.95 Q1593.69 1469.17 1590.34 1469.17 M1585.66 1467.18 Q1582.65 1466.44 1580.96 1464.38 Q1579.3 1462.32 1579.3 1459.35 Q1579.3 1455.21 1582.24 1452.8 Q1585.2 1450.39 1590.34 1450.39 Q1595.5 1450.39 1598.44 1452.8 Q1601.38 1455.21 1601.38 1459.35 Q1601.38 1462.32 1599.69 1464.38 Q1598.02 1466.44 1595.04 1467.18 Q1598.42 1467.96 1600.29 1470.26 Q1602.19 1472.55 1602.19 1475.86 Q1602.19 1480.88 1599.11 1483.57 Q1596.05 1486.25 1590.34 1486.25 Q1584.62 1486.25 1581.54 1483.57 Q1578.49 1480.88 1578.49 1475.86 Q1578.49 1472.55 1580.38 1470.26 Q1582.28 1467.96 1585.66 1467.18 M1583.95 1459.79 Q1583.95 1462.48 1585.61 1463.98 Q1587.3 1465.49 1590.34 1465.49 Q1593.35 1465.49 1595.04 1463.98 Q1596.75 1462.48 1596.75 1459.79 Q1596.75 1457.11 1595.04 1455.6 Q1593.35 1454.1 1590.34 1454.1 Q1587.3 1454.1 1585.61 1455.6 Q1583.95 1457.11 1583.95 1459.79 Z" fill="#000000" fill-rule="nonzero" fill-opacity="1" /><path clip-path="url(#clip380)" d="M1620.5 1454.1 Q1616.89 1454.1 1615.06 1457.66 Q1613.25 1461.2 1613.25 1468.33 Q1613.25 1475.44 1615.06 1479.01 Q1616.89 1482.55 1620.5 1482.55 Q1624.13 1482.55 1625.94 1479.01 Q1627.77 1475.44 1627.77 1468.33 Q1627.77 1461.2 1625.94 1457.66 Q1624.13 1454.1 1620.5 1454.1 M1620.5 1450.39 Q1626.31 1450.39 1629.36 1455 Q1632.44 1459.58 1632.44 1468.33 Q1632.44 1477.06 1629.36 1481.67 Q1626.31 1486.25 1620.5 1486.25 Q1614.69 1486.25 1611.61 1481.67 Q1608.55 1477.06 1608.55 1468.33 Q1608.55 1459.58 1611.61 1455 Q1614.69 1450.39 1620.5 1450.39 Z" fill="#000000" fill-rule="nonzero" fill-opacity="1" /><path clip-path="url(#clip380)" d="M1938.72 1481.64 L1946.36 1481.64 L1946.36 1455.28 L1938.05 1456.95 L1938.05 1452.69 L1946.31 1451.02 L1950.99 1451.02 L1950.99 1481.64 L1958.62 1481.64 L1958.62 1485.58 L1938.72 1485.58 L1938.72 1481.64 Z" fill="#000000" fill-rule="nonzero" fill-opacity="1" /><path clip-path="url(#clip380)" d="M1978.07 1454.1 Q1974.46 1454.1 1972.63 1457.66 Q1970.82 1461.2 1970.82 1468.33 Q1970.82 1475.44 1972.63 1479.01 Q1974.46 1482.55 1978.07 1482.55 Q1981.7 1482.55 1983.51 1479.01 Q1985.34 1475.44 1985.34 1468.33 Q1985.34 1461.2 1983.51 1457.66 Q1981.7 1454.1 1978.07 1454.1 M1978.07 1450.39 Q1983.88 1450.39 1986.93 1455 Q1990.01 1459.58 1990.01 1468.33 Q1990.01 1477.06 1986.93 1481.67 Q1983.88 1486.25 1978.07 1486.25 Q1972.26 1486.25 1969.18 1481.67 Q1966.12 1477.06 1966.12 1468.33 Q1966.12 1459.58 1969.18 1455 Q1972.26 1450.39 1978.07 1450.39 Z" fill="#000000" fill-rule="nonzero" fill-opacity="1" /><path clip-path="url(#clip380)" d="M2008.23 1454.1 Q2004.62 1454.1 2002.79 1457.66 Q2000.98 1461.2 2000.98 1468.33 Q2000.98 1475.44 2002.79 1479.01 Q2004.62 1482.55 2008.23 1482.55 Q2011.86 1482.55 2013.67 1479.01 Q2015.5 1475.44 2015.5 1468.33 Q2015.5 1461.2 2013.67 1457.66 Q2011.86 1454.1 2008.23 1454.1 M2008.23 1450.39 Q2014.04 1450.39 2017.1 1455 Q2020.17 1459.58 2020.17 1468.33 Q2020.17 1477.06 2017.1 1481.67 Q2014.04 1486.25 2008.23 1486.25 Q2002.42 1486.25 1999.34 1481.67 Q1996.29 1477.06 1996.29 1468.33 Q1996.29 1459.58 1999.34 1455 Q2002.42 1450.39 2008.23 1450.39 Z" fill="#000000" fill-rule="nonzero" fill-opacity="1" /><path clip-path="url(#clip380)" d="M2312.36 1481.64 L2320 1481.64 L2320 1455.28 L2311.69 1456.95 L2311.69 1452.69 L2319.96 1451.02 L2324.63 1451.02 L2324.63 1481.64 L2332.27 1481.64 L2332.27 1485.58 L2312.36 1485.58 L2312.36 1481.64 Z" fill="#000000" fill-rule="nonzero" fill-opacity="1" /><path clip-path="url(#clip380)" d="M2345.74 1481.64 L2362.06 1481.64 L2362.06 1485.58 L2340.12 1485.58 L2340.12 1481.64 Q2342.78 1478.89 2347.36 1474.26 Q2351.97 1469.61 2353.15 1468.27 Q2355.39 1465.74 2356.27 1464.01 Q2357.18 1462.25 2357.18 1460.56 Q2357.18 1457.8 2355.23 1456.07 Q2353.31 1454.33 2350.21 1454.33 Q2348.01 1454.33 2345.56 1455.09 Q2343.13 1455.86 2340.35 1457.41 L2340.35 1452.69 Q2343.17 1451.55 2345.63 1450.97 Q2348.08 1450.39 2350.12 1450.39 Q2355.49 1450.39 2358.68 1453.08 Q2361.88 1455.77 2361.88 1460.26 Q2361.88 1462.39 2361.07 1464.31 Q2360.28 1466.2 2358.17 1468.8 Q2357.59 1469.47 2354.49 1472.69 Q2351.39 1475.88 2345.74 1481.64 Z" fill="#000000" fill-rule="nonzero" fill-opacity="1" /><path clip-path="url(#clip380)" d="M2381.88 1454.1 Q2378.27 1454.1 2376.44 1457.66 Q2374.63 1461.2 2374.63 1468.33 Q2374.63 1475.44 2376.44 1479.01 Q2378.27 1482.55 2381.88 1482.55 Q2385.51 1482.55 2387.32 1479.01 Q2389.14 1475.44 2389.14 1468.33 Q2389.14 1461.2 2387.32 1457.66 Q2385.51 1454.1 2381.88 1454.1 M2381.88 1450.39 Q2387.69 1450.39 2390.74 1455 Q2393.82 1459.58 2393.82 1468.33 Q2393.82 1477.06 2390.74 1481.67 Q2387.69 1486.25 2381.88 1486.25 Q2376.07 1486.25 2372.99 1481.67 Q2369.93 1477.06 2369.93 1468.33 Q2369.93 1459.58 2372.99 1455 Q2376.07 1450.39 2381.88 1450.39 Z" fill="#000000" fill-rule="nonzero" fill-opacity="1" /><path clip-path="url(#clip380)" d="M1230.88 1522.27 L1230.88 1532.4 L1242.94 1532.4 L1242.94 1536.95 L1230.88 1536.95 L1230.88 1556.3 Q1230.88 1560.66 1232.06 1561.9 Q1233.27 1563.14 1236.93 1563.14 L1242.94 1563.14 L1242.94 1568.04 L1236.93 1568.04 Q1230.15 1568.04 1227.57 1565.53 Q1224.99 1562.98 1224.99 1556.3 L1224.99 1536.95 L1220.69 1536.95 L1220.69 1532.4 L1224.99 1532.4 L1224.99 1522.27 L1230.88 1522.27 Z" fill="#000000" fill-rule="nonzero" fill-opacity="1" /><polyline clip-path="url(#clip380)" style="stroke:#000000; stroke-linecap:round; stroke-linejoin:round; stroke-width:4; stroke-opacity:1; fill:none" points="110.881,1423.18 110.881,47.2441 "/>
<polyline clip-path="url(#clip380)" style="stroke:#000000; stroke-linecap:round; stroke-linejoin:round; stroke-width:4; stroke-opacity:1; fill:none" points="110.881,1384.24 129.779,1384.24 "/>
<polyline clip-path="url(#clip380)" style="stroke:#000000; stroke-linecap:round; stroke-linejoin:round; stroke-width:4; stroke-opacity:1; fill:none" points="110.881,971.133 129.779,971.133 "/>
<polyline clip-path="url(#clip380)" style="stroke:#000000; stroke-linecap:round; stroke-linejoin:round; stroke-width:4; stroke-opacity:1; fill:none" points="110.881,558.029 129.779,558.029 "/>
<polyline clip-path="url(#clip380)" style="stroke:#000000; stroke-linecap:round; stroke-linejoin:round; stroke-width:4; stroke-opacity:1; fill:none" points="110.881,144.924 129.779,144.924 "/>
<path clip-path="url(#clip380)" d="M62.9365 1370.04 Q59.3254 1370.04 57.4967 1373.6 Q55.6912 1377.14 55.6912 1384.27 Q55.6912 1391.38 57.4967 1394.94 Q59.3254 1398.49 62.9365 1398.49 Q66.5707 1398.49 68.3763 1394.94 Q70.205 1391.38 70.205 1384.27 Q70.205 1377.14 68.3763 1373.6 Q66.5707 1370.04 62.9365 1370.04 M62.9365 1366.33 Q68.7467 1366.33 71.8022 1370.94 Q74.8809 1375.52 74.8809 1384.27 Q74.8809 1393 71.8022 1397.61 Q68.7467 1402.19 62.9365 1402.19 Q57.1264 1402.19 54.0477 1397.61 Q50.9921 1393 50.9921 1384.27 Q50.9921 1375.52 54.0477 1370.94 Q57.1264 1366.33 62.9365 1366.33 Z" fill="#000000" fill-rule="nonzero" fill-opacity="1" /><path clip-path="url(#clip380)" d="M54.9736 984.478 L62.6124 984.478 L62.6124 958.113 L54.3023 959.779 L54.3023 955.52 L62.5661 953.853 L67.242 953.853 L67.242 984.478 L74.8809 984.478 L74.8809 988.413 L54.9736 988.413 L54.9736 984.478 Z" fill="#000000" fill-rule="nonzero" fill-opacity="1" /><path clip-path="url(#clip380)" d="M58.5615 571.374 L74.8809 571.374 L74.8809 575.309 L52.9366 575.309 L52.9366 571.374 Q55.5986 568.619 60.1819 563.989 Q64.7883 559.337 65.9689 557.994 Q68.2143 555.471 69.0939 553.735 Q69.9967 551.975 69.9967 550.286 Q69.9967 547.531 68.0522 545.795 Q66.1309 544.059 63.0291 544.059 Q60.83 544.059 58.3763 544.823 Q55.9458 545.587 53.168 547.138 L53.168 542.415 Q55.9921 541.281 58.4458 540.702 Q60.8995 540.124 62.9365 540.124 Q68.3068 540.124 71.5013 542.809 Q74.6957 545.494 74.6957 549.985 Q74.6957 552.114 73.8855 554.036 Q73.0985 555.934 70.992 558.526 Q70.4133 559.198 67.3115 562.415 Q64.2096 565.61 58.5615 571.374 Z" fill="#000000" fill-rule="nonzero" fill-opacity="1" /><path clip-path="url(#clip380)" d="M67.7513 143.57 Q71.1078 144.287 72.9827 146.556 Q74.8809 148.824 74.8809 152.158 Q74.8809 157.273 71.3624 160.074 Q67.8439 162.875 61.3624 162.875 Q59.1865 162.875 56.8717 162.435 Q54.5801 162.019 52.1264 161.162 L52.1264 156.648 Q54.0708 157.783 56.3856 158.361 Q58.7004 158.94 61.2236 158.94 Q65.6217 158.94 67.9133 157.204 Q70.2281 155.468 70.2281 152.158 Q70.2281 149.102 68.0754 147.389 Q65.9457 145.653 62.1263 145.653 L58.0986 145.653 L58.0986 141.811 L62.3115 141.811 Q65.7606 141.811 67.5893 140.445 Q69.418 139.056 69.418 136.463 Q69.418 133.801 67.5198 132.389 Q65.6448 130.954 62.1263 130.954 Q60.205 130.954 58.006 131.371 Q55.8069 131.787 53.168 132.667 L53.168 128.5 Q55.8301 127.76 58.1449 127.389 Q60.4828 127.019 62.543 127.019 Q67.867 127.019 70.9689 129.449 Q74.0707 131.857 74.0707 135.977 Q74.0707 138.848 72.4272 140.838 Q70.7837 142.806 67.7513 143.57 Z" fill="#000000" fill-rule="nonzero" fill-opacity="1" /><polyline clip-path="url(#clip381)" style="stroke:#009af9; stroke-linecap:round; stroke-linejoin:round; stroke-width:4; stroke-opacity:1; fill:none" points="110.881,1384.24 112.849,1377.62 114.817,1360.05 116.786,1334.74 118.754,1304.29 120.722,1270.59 122.691,1234.89 124.659,1198.07 126.627,1160.71 128.595,1123.25 130.564,1086 132.532,1049.21 134.5,1013.06 136.469,977.707 138.437,943.261 140.405,909.815 142.373,877.46 144.342,846.258 146.31,816.252 148.278,787.496 150.247,760.002 152.215,733.787 154.183,708.882 156.151,685.282 158.12,662.983 160.088,641.989 162.056,622.256 164.025,603.725 165.993,586.339 167.961,570.016 169.929,554.669 171.898,540.211 173.866,526.545 175.834,513.61 177.803,501.362 179.771,489.742 181.739,478.672 183.707,468.073 185.676,457.93 187.644,448.211 189.612,438.877 191.581,429.893 193.549,421.235 195.517,412.88 197.485,404.804 199.454,396.976 201.422,389.38 203.39,382.002 205.358,374.828 207.327,367.841 209.295,361.027 211.263,354.377 213.232,347.883 215.2,341.536 217.168,335.328 219.136,329.249 221.105,323.296 223.073,317.464 225.041,311.751 227.01,306.151 228.978,300.66 230.946,295.276 232.914,289.997 234.883,284.823 236.851,279.75 238.819,274.778 240.788,269.904 242.756,265.13 244.724,260.453 246.692,255.872 248.661,251.386 250.629,246.995 252.597,242.698 254.566,238.495 256.534,234.387 258.502,230.371 260.47,226.446 262.439,222.611 264.407,218.864 266.375,215.205 268.344,211.635 270.312,208.152 272.28,204.756 274.248,201.443 276.217,198.213 278.185,195.064 280.153,191.994 282.122,189.003 284.09,186.091 286.058,183.256 288.026,180.496 289.995,177.808 291.963,175.192 293.931,172.645 295.9,170.167 297.868,167.756 299.836,165.412 301.804,163.132 303.773,160.915 305.741,158.759 307.709,156.663 309.678,154.624 311.646,152.642 313.614,150.716 315.582,148.844 317.551,147.026 319.519,145.258 321.487,143.541 323.456,141.872 325.424,140.25 327.392,138.674 329.36,137.143 331.329,135.656 333.297,134.212 335.265,132.81 337.234,131.448 339.202,130.124 341.17,128.839 343.138,127.591 345.107,126.378 347.075,125.201 349.043,124.057 351.011,122.947 352.98,121.869 354.948,120.823 356.916,119.806 358.885,118.819 360.853,117.861 362.821,116.931 364.789,116.027 366.758,115.15 368.726,114.298 370.694,113.472 372.663,112.669 374.631,111.89 376.599,111.134 378.567,110.4 380.536,109.687 382.504,108.995 384.472,108.323 386.441,107.671 388.409,107.037 390.377,106.423 392.345,105.826 394.314,105.248 396.282,104.686 398.25,104.14 400.219,103.611 402.187,103.097 404.155,102.598 406.123,102.114 408.092,101.644 410.06,101.187 412.028,100.744 413.997,100.314 415.965,99.8974 417.933,99.4926 419.901,99.0998 421.87,98.7185 423.838,98.3484 425.806,97.9891 427.775,97.6403 429.743,97.3018 431.711,96.9732 433.679,96.6542 435.648,96.3447 437.616,96.0445 439.584,95.7531 441.553,95.4704 443.521,95.1961 445.489,94.9298 447.457,94.6713 449.426,94.4203 451.394,94.1768 453.362,93.9404 455.331,93.7109 457.299,93.4882 459.267,93.2721 461.235,93.0624 463.204,92.859 465.172,92.6617 467.14,92.4702 469.109,92.2844 471.077,92.104 473.045,91.9289 475.013,91.7589 476.982,91.5939 478.95,91.4337 480.918,91.2783 482.886,91.1275 484.855,90.9811 486.823,90.8392 488.791,90.7015 490.76,90.568 492.728,90.4383 494.696,90.3125 496.664,90.1904 498.633,90.0718 500.601,89.9567 502.569,89.845 504.538,89.7365 506.506,89.6313 508.474,89.5292 510.442,89.4302 512.411,89.3341 514.379,89.241 516.347,89.1506 518.316,89.0628 520.284,88.9777 522.252,88.895 524.22,88.8148 526.189,88.7368 528.157,88.6612 530.125,88.5878 532.094,88.5166 534.062,88.4475 536.03,88.3805 537.998,88.3156 539.967,88.2525 541.935,88.1914 543.903,88.132 545.872,88.0744 547.84,88.0184 549.808,87.9641 551.776,87.9114 553.745,87.8602 555.713,87.8105 557.681,87.7623 559.65,87.7156 561.618,87.6703 563.586,87.6264 565.554,87.5838 567.523,87.5424 569.491,87.5022 571.459,87.4632 573.428,87.4254 575.396,87.3886 577.364,87.3529 579.332,87.3183 581.301,87.2847 583.269,87.2521 585.237,87.2205 587.206,87.1899 589.174,87.1602 591.142,87.1313 593.11,87.1034 595.079,87.0762 597.047,87.0498 599.015,87.0242 600.984,86.9993 602.952,86.9752 604.92,86.9517 606.888,86.929 608.857,86.907 610.825,86.8856 612.793,86.8649 614.761,86.8448 616.73,86.8253 618.698,86.8064 620.666,86.788 622.635,86.7701 624.603,86.7528 626.571,86.736 628.539,86.7196 630.508,86.7038 632.476,86.6884 634.444,86.6735 636.413,86.6591 638.381,86.6451 640.349,86.6315 642.317,86.6183 644.286,86.6055 646.254,86.5931 648.222,86.581 650.191,86.5693 652.159,86.5579 654.127,86.5468 656.095,86.5361 658.064,86.5257 660.032,86.5156 662,86.5059 663.969,86.4964 665.937,86.4872 667.905,86.4783 669.873,86.4697 671.842,86.4612 673.81,86.4531 675.778,86.4451 677.747,86.4374 679.715,86.4299 681.683,86.4227 683.651,86.4156 685.62,86.4088 687.588,86.4022 689.556,86.3958 691.525,86.3896 693.493,86.3836 695.461,86.3778 697.429,86.3721 699.398,86.3665 701.366,86.3612 703.334,86.3559 705.303,86.3509 707.271,86.3459 709.239,86.3412 711.207,86.3366 713.176,86.3321 715.144,86.3278 717.112,86.3236 719.081,86.3196 721.049,86.3156 723.017,86.3118 724.985,86.308 726.954,86.3044 728.922,86.3008 730.89,86.2974 732.859,86.2941 734.827,86.2908 736.795,86.2877 738.763,86.2847 740.732,86.2818 742.7,86.279 744.668,86.2763 746.636,86.2736 748.605,86.271 750.573,86.2685 752.541,86.266 754.51,86.2636 756.478,86.2612 758.446,86.259 760.414,86.2568 762.383,86.2547 764.351,86.2527 766.319,86.2507 768.288,86.2488 770.256,86.247 772.224,86.2452 774.192,86.2434 776.161,86.2417 778.129,86.24 780.097,86.2384 782.066,86.2368 784.034,86.2352 786.002,86.2338 787.97,86.2324 789.939,86.231 791.907,86.2297 793.875,86.2284 795.844,86.2272 797.812,86.226 799.78,86.2248 801.748,86.2236 803.717,86.2224 805.685,86.2213 807.653,86.2202 809.622,86.2192 811.59,86.2182 813.558,86.2173 815.526,86.2163 817.495,86.2155 819.463,86.2146 821.431,86.2138 823.4,86.213 825.368,86.2121 827.336,86.2113 829.304,86.2106 831.273,86.2098 833.241,86.2091 835.209,86.2083 837.178,86.2077 839.146,86.207 841.114,86.2064 843.082,86.2058 845.051,86.2053 847.019,86.2047 848.987,86.2042 850.956,86.2036 852.924,86.2031 854.892,86.2025 856.86,86.202 858.829,86.2015 860.797,86.201 862.765,86.2006 864.734,86.2001 866.702,86.1997 868.67,86.1993 870.638,86.199 872.607,86.1986 874.575,86.1982 876.543,86.1978 878.511,86.1975 880.48,86.1971 882.448,86.1967 884.416,86.1964 886.385,86.196 888.353,86.1957 890.321,86.1955 892.289,86.1952 894.258,86.1949 896.226,86.1947 898.194,86.1944 900.163,86.1942 902.131,86.1939 904.099,86.1937 906.067,86.1934 908.036,86.1932 910.004,86.1929 911.972,86.1927 913.941,86.1925 915.909,86.1923 917.877,86.1921 919.845,86.192 921.814,86.1918 923.782,86.1916 925.75,86.1915 927.719,86.1913 929.687,86.1911 931.655,86.1909 933.623,86.1908 935.592,86.1906 937.56,86.1904 939.528,86.1903 941.497,86.1902 943.465,86.1901 945.433,86.19 947.401,86.1899 949.37,86.1897 951.338,86.1896 953.306,86.1895 955.275,86.1894 957.243,86.1893 959.211,86.1891 961.179,86.189 963.148,86.1889 965.116,86.1888 967.084,86.1887 969.053,86.1887 971.021,86.1886 972.989,86.1885 974.957,86.1885 976.926,86.1884 978.894,86.1883 980.862,86.1882 982.831,86.1881 984.799,86.188 986.767,86.1879 988.735,86.1878 990.704,86.1878 992.672,86.1877 994.64,86.1877 996.609,86.1877 998.577,86.1876 1000.55,86.1876 1002.51,86.1875 1004.48,86.1875 1006.45,86.1874 1008.42,86.1874 1010.39,86.1873 1012.35,86.1872 1014.32,86.1871 1016.29,86.1871 1018.26,86.1871 1020.23,86.1871 1022.2,86.1871 1024.16,86.187 1026.13,86.187 1028.1,86.187 1030.07,86.1869 1032.04,86.1869 1034.01,86.1868 1035.97,86.1868 1037.94,86.1867 1039.91,86.1867 1041.88,86.1866 1043.85,86.1866 1045.82,86.1866 1047.78,86.1866 1049.75,86.1866 1051.72,86.1866 1053.69,86.1866 1055.66,86.1866 1057.63,86.1865 1059.59,86.1865 1061.56,86.1864 1063.53,86.1864 1065.5,86.1863 1067.47,86.1863 1069.43,86.1863 1071.4,86.1863 1073.37,86.1863 1075.34,86.1864 1077.31,86.1863 1079.28,86.1863 1081.24,86.1863 1083.21,86.1863 1085.18,86.1862 1087.15,86.1862 1089.12,86.1862 1091.09,86.1861 1093.05,86.1861 1095.02,86.1861 1096.99,86.1861 1098.96,86.1862 1100.93,86.1862 1102.9,86.1862 1104.86,86.1862 1106.83,86.1861 1108.8,86.1861 1110.77,86.1861 1112.74,86.186 1114.71,86.186 1116.67,86.186 1118.64,86.186 1120.61,86.186 1122.58,86.186 1124.55,86.186 1126.52,86.186 1128.48,86.186 1130.45,86.186 1132.42,86.186 1134.39,86.186 1136.36,86.186 1138.32,86.1859 1140.29,86.1859 1142.26,86.1859 1144.23,86.1859 1146.2,86.1859 1148.17,86.1859 1150.13,86.1859 1152.1,86.186 1154.07,86.186 1156.04,86.186 1158.01,86.1859 1159.98,86.1859 1161.94,86.1859 1163.91,86.1859 1165.88,86.1858 1167.85,86.1858 1169.82,86.1858 1171.79,86.1858 1173.75,86.1859 1175.72,86.1859 1177.69,86.1859 1179.66,86.1859 1181.63,86.1859 1183.6,86.1859 1185.56,86.1859 1187.53,86.1858 1189.5,86.1858 1191.47,86.1858 1193.44,86.1858 1195.41,86.1858 1197.37,86.1858 1199.34,86.1858 1201.31,86.1858 1203.28,86.1859 1205.25,86.1859 1207.21,86.1859 1209.18,86.1859 1211.15,86.1858 1213.12,86.1858 1215.09,86.1858 1217.06,86.1858 1219.02,86.1857 1220.99,86.1857 1222.96,86.1858 1224.93,86.1858 1226.9,86.1858 1228.87,86.1858 1230.83,86.1858 1232.8,86.1858 1234.77,86.1858 1236.74,86.1858 1238.71,86.1858 1240.68,86.1858 1242.64,86.1857 1244.61,86.1857 1246.58,86.1857 1248.55,86.1857 1250.52,86.1858 1252.49,86.1858 1254.45,86.1858 1256.42,86.1858 1258.39,86.1858 1260.36,86.1858 1262.33,86.1858 1264.3,86.1858 1266.26,86.1857 1268.23,86.1857 1270.2,86.1857 1272.17,86.1857 1274.14,86.1857 1276.1,86.1858 1278.07,86.1858 1280.04,86.1858 1282.01,86.1858 1283.98,86.1858 1285.95,86.1858 1287.91,86.1858 1289.88,86.1858 1291.85,86.1857 1293.82,86.1857 1295.79,86.1857 1297.76,86.1857 1299.72,86.1857 1301.69,86.1857 1303.66,86.1858 1305.63,86.1858 1307.6,86.1858 1309.57,86.1858 1311.53,86.1858 1313.5,86.1858 1315.47,86.1858 1317.44,86.1857 1319.41,86.1857 1321.38,86.1857 1323.34,86.1857 1325.31,86.1857 1327.28,86.1857 1329.25,86.1858 1331.22,86.1858 1333.19,86.1858 1335.15,86.1858 1337.12,86.1858 1339.09,86.1858 1341.06,86.1857 1343.03,86.1857 1344.99,86.1857 1346.96,86.1857 1348.93,86.1857 1350.9,86.1857 1352.87,86.1857 1354.84,86.1858 1356.8,86.1858 1358.77,86.1858 1360.74,86.1858 1362.71,86.1858 1364.68,86.1858 1366.65,86.1857 1368.61,86.1857 1370.58,86.1857 1372.55,86.1857 1374.52,86.1857 1376.49,86.1857 1378.46,86.1857 1380.42,86.1858 1382.39,86.1858 1384.36,86.1858 1386.33,86.1858 1388.3,86.1858 1390.27,86.1858 1392.23,86.1857 1394.2,86.1857 1396.17,86.1857 1398.14,86.1857 1400.11,86.1857 1402.07,86.1857 1404.04,86.1857 1406.01,86.1858 1407.98,86.1858 1409.95,86.1858 1411.92,86.1858 1413.88,86.1858 1415.85,86.1858 1417.82,86.1857 1419.79,86.1857 1421.76,86.1857 1423.73,86.1857 1425.69,86.1857 1427.66,86.1857 1429.63,86.1857 1431.6,86.1858 1433.57,86.1858 1435.54,86.1858 1437.5,86.1858 1439.47,86.1858 1441.44,86.1858 1443.41,86.1857 1445.38,86.1857 1447.35,86.1857 1449.31,86.1857 1451.28,86.1857 1453.25,86.1857 1455.22,86.1857 1457.19,86.1858 1459.16,86.1858 1461.12,86.1858 1463.09,86.1858 1465.06,86.1858 1467.03,86.1858 1469,86.1857 1470.96,86.1857 1472.93,86.1857 1474.9,86.1857 1476.87,86.1857 1478.84,86.1857 1480.81,86.1857 1482.77,86.1858 1484.74,86.1858 1486.71,86.1858 1488.68,86.1858 1490.65,86.1858 1492.62,86.1858 1494.58,86.1857 1496.55,86.1857 1498.52,86.1857 1500.49,86.1857 1502.46,86.1857 1504.43,86.1857 1506.39,86.1857 1508.36,86.1858 1510.33,86.1858 1512.3,86.1858 1514.27,86.1858 1516.24,86.1858 1518.2,86.1858 1520.17,86.1857 1522.14,86.1857 1524.11,86.1857 1526.08,86.1857 1528.05,86.1857 1530.01,86.1857 1531.98,86.1857 1533.95,86.1858 1535.92,86.1858 1537.89,86.1858 1539.85,86.1858 1541.82,86.1858 1543.79,86.1858 1545.76,86.1857 1547.73,86.1857 1549.7,86.1857 1551.66,86.1857 1553.63,86.1857 1555.6,86.1857 1557.57,86.1857 1559.54,86.1858 1561.51,86.1858 1563.47,86.1858 1565.44,86.1858 1567.41,86.1858 1569.38,86.1858 1571.35,86.1857 1573.32,86.1857 1575.28,86.1857 1577.25,86.1857 1579.22,86.1857 1581.19,86.1857 1583.16,86.1857 1585.13,86.1858 1587.09,86.1858 1589.06,86.1858 1591.03,86.1858 1593,86.1858 1594.97,86.1858 1596.94,86.1857 1598.9,86.1857 1600.87,86.1857 1602.84,86.1857 1604.81,86.1857 1606.78,86.1857 1608.74,86.1857 1610.71,86.1858 1612.68,86.1858 1614.65,86.1858 1616.62,86.1858 1618.59,86.1858 1620.55,86.1858 1622.52,86.1857 1624.49,86.1857 1626.46,86.1857 1628.43,86.1857 1630.4,86.1857 1632.36,86.1857 1634.33,86.1857 1636.3,86.1858 1638.27,86.1858 1640.24,86.1858 1642.21,86.1858 1644.17,86.1858 1646.14,86.1858 1648.11,86.1857 1650.08,86.1857 1652.05,86.1857 1654.02,86.1857 1655.98,86.1857 1657.95,86.1857 1659.92,86.1857 1661.89,86.1858 1663.86,86.1858 1665.82,86.1858 1667.79,86.1858 1669.76,86.1858 1671.73,86.1858 1673.7,86.1857 1675.67,86.1857 1677.63,86.1857 1679.6,86.1857 1681.57,86.1857 1683.54,86.1857 1685.51,86.1857 1687.48,86.1858 1689.44,86.1858 1691.41,86.1858 1693.38,86.1858 1695.35,86.1858 1697.32,86.1858 1699.29,86.1857 1701.25,86.1857 1703.22,86.1857 1705.19,86.1857 1707.16,86.1857 1709.13,86.1857 1711.1,86.1857 1713.06,86.1858 1715.03,86.1858 1717,86.1858 1718.97,86.1858 1720.94,86.1858 1722.91,86.1858 1724.87,86.1857 1726.84,86.1857 1728.81,86.1857 1730.78,86.1857 1732.75,86.1857 1734.71,86.1857 1736.68,86.1857 1738.65,86.1858 1740.62,86.1858 1742.59,86.1858 1744.56,86.1858 1746.52,86.1858 1748.49,86.1858 1750.46,86.1857 1752.43,86.1857 1754.4,86.1857 1756.37,86.1857 1758.33,86.1857 1760.3,86.1857 1762.27,86.1857 1764.24,86.1858 1766.21,86.1858 1768.18,86.1858 1770.14,86.1858 1772.11,86.1858 1774.08,86.1858 1776.05,86.1857 1778.02,86.1857 1779.99,86.1857 1781.95,86.1857 1783.92,86.1857 1785.89,86.1857 1787.86,86.1857 1789.83,86.1858 1791.8,86.1858 1793.76,86.1858 1795.73,86.1858 1797.7,86.1858 1799.67,86.1858 1801.64,86.1857 1803.6,86.1857 1805.57,86.1857 1807.54,86.1857 1809.51,86.1857 1811.48,86.1857 1813.45,86.1857 1815.41,86.1858 1817.38,86.1858 1819.35,86.1858 1821.32,86.1858 1823.29,86.1858 1825.26,86.1858 1827.22,86.1857 1829.19,86.1857 1831.16,86.1857 1833.13,86.1857 1835.1,86.1857 1837.07,86.1857 1839.03,86.1857 1841,86.1858 1842.97,86.1858 1844.94,86.1858 1846.91,86.1858 1848.88,86.1858 1850.84,86.1858 1852.81,86.1857 1854.78,86.1857 1856.75,86.1857 1858.72,86.1857 1860.69,86.1857 1862.65,86.1857 1864.62,86.1857 1866.59,86.1858 1868.56,86.1858 1870.53,86.1858 1872.49,86.1858 1874.46,86.1858 1876.43,86.1858 1878.4,86.1857 1880.37,86.1857 1882.34,86.1857 1884.3,86.1857 1886.27,86.1857 1888.24,86.1857 1890.21,86.1857 1892.18,86.1858 1894.15,86.1858 1896.11,86.1858 1898.08,86.1858 1900.05,86.1858 1902.02,86.1858 1903.99,86.1857 1905.96,86.1857 1907.92,86.1857 1909.89,86.1857 1911.86,86.1857 1913.83,86.1857 1915.8,86.1857 1917.77,86.1858 1919.73,86.1858 1921.7,86.1858 1923.67,86.1858 1925.64,86.1858 1927.61,86.1858 1929.57,86.1857 1931.54,86.1857 1933.51,86.1857 1935.48,86.1857 1937.45,86.1857 1939.42,86.1857 1941.38,86.1857 1943.35,86.1858 1945.32,86.1858 1947.29,86.1858 1949.26,86.1858 1951.23,86.1858 1953.19,86.1858 1955.16,86.1857 1957.13,86.1857 1959.1,86.1857 1961.07,86.1857 1963.04,86.1857 1965,86.1857 1966.97,86.1857 1968.94,86.1858 1970.91,86.1858 1972.88,86.1858 1974.85,86.1858 1976.81,86.1858 1978.78,86.1858 1980.75,86.1857 1982.72,86.1857 1984.69,86.1857 1986.66,86.1857 1988.62,86.1857 1990.59,86.1857 1992.56,86.1857 1994.53,86.1858 1996.5,86.1858 1998.46,86.1858 2000.43,86.1858 2002.4,86.1858 2004.37,86.1858 2006.34,86.1857 2008.31,86.1857 2010.27,86.1857 2012.24,86.1857 2014.21,86.1857 2016.18,86.1857 2018.15,86.1857 2020.12,86.1858 2022.08,86.1858 2024.05,86.1858 2026.02,86.1858 2027.99,86.1858 2029.96,86.1857 2031.93,86.1857 2033.89,86.1857 2035.86,86.1857 2037.83,86.1857 2039.8,86.1857 2041.77,86.1857 2043.74,86.1857 2045.7,86.1858 2047.67,86.1858 2049.64,86.1858 2051.61,86.1858 2053.58,86.1858 2055.55,86.1857 2057.51,86.1857 2059.48,86.1857 2061.45,86.1857 2063.42,86.1857 2065.39,86.1857 2067.35,86.1857 2069.32,86.1857 2071.29,86.1858 2073.26,86.1858 2075.23,86.1858 2077.2,86.1858 2079.16,86.1858 2081.13,86.1857 2083.1,86.1857 2085.07,86.1857 2087.04,86.1857 2089.01,86.1857 2090.97,86.1857 2092.94,86.1857 2094.91,86.1857 2096.88,86.1858 2098.85,86.1858 2100.82,86.1858 2102.78,86.1858 2104.75,86.1858 2106.72,86.1857 2108.69,86.1857 2110.66,86.1857 2112.63,86.1857 2114.59,86.1857 2116.56,86.1857 2118.53,86.1857 2120.5,86.1857 2122.47,86.1858 2124.44,86.1858 2126.4,86.1858 2128.37,86.1858 2130.34,86.1858 2132.31,86.1857 2134.28,86.1857 2136.24,86.1857 2138.21,86.1857 2140.18,86.1857 2142.15,86.1857 2144.12,86.1857 2146.09,86.1857 2148.05,86.1858 2150.02,86.1858 2151.99,86.1858 2153.96,86.1858 2155.93,86.1858 2157.9,86.1857 2159.86,86.1857 2161.83,86.1857 2163.8,86.1857 2165.77,86.1857 2167.74,86.1857 2169.71,86.1857 2171.67,86.1857 2173.64,86.1858 2175.61,86.1858 2177.58,86.1858 2179.55,86.1858 2181.52,86.1858 2183.48,86.1857 2185.45,86.1857 2187.42,86.1857 2189.39,86.1857 2191.36,86.1857 2193.32,86.1857 2195.29,86.1857 2197.26,86.1857 2199.23,86.1858 2201.2,86.1858 2203.17,86.1858 2205.13,86.1858 2207.1,86.1858 2209.07,86.1857 2211.04,86.1857 2213.01,86.1857 2214.98,86.1857 2216.94,86.1857 2218.91,86.1857 2220.88,86.1857 2222.85,86.1858 2224.82,86.1858 2226.79,86.1858 2228.75,86.1858 2230.72,86.1858 2232.69,86.1858 2234.66,86.1857 2236.63,86.1857 2238.6,86.1857 2240.56,86.1857 2242.53,86.1857 2244.5,86.1857 2246.47,86.1857 2248.44,86.1858 2250.41,86.1858 2252.37,86.1858 2254.34,86.1858 2256.31,86.1858 2258.28,86.1858 2260.25,86.1857 2262.21,86.1857 2264.18,86.1857 2266.15,86.1857 2268.12,86.1857 2270.09,86.1857 2272.06,86.1857 2274.02,86.1858 2275.99,86.1858 2277.96,86.1858 2279.93,86.1858 2281.9,86.1858 2283.87,86.1858 2285.83,86.1857 2287.8,86.1857 2289.77,86.1857 2291.74,86.1857 2293.71,86.1857 2295.68,86.1857 2297.64,86.1857 2299.61,86.1858 2301.58,86.1858 2303.55,86.1858 2305.52,86.1858 2307.49,86.1858 2309.45,86.1858 2311.42,86.1857 2313.39,86.1857 2315.36,86.1857 2317.33,86.1857 2319.3,86.1857 2321.26,86.1857 2323.23,86.1857 2325.2,86.1858 2327.17,86.1858 2329.14,86.1858 2331.1,86.1858 2333.07,86.1858 2335.04,86.1858 2337.01,86.1857 2338.98,86.1857 2340.95,86.1857 2342.91,86.1857 2344.88,86.1857 2346.85,86.1857 2348.82,86.1857 2350.79,86.1857 2352.76,86.1857 "/>
<polyline clip-path="url(#clip381)" style="stroke:#e26f46; stroke-linecap:round; stroke-linejoin:round; stroke-width:4; stroke-opacity:1; fill:none" points="110.881,1384.24 112.849,1264.06 114.817,1176.04 116.786,1116.09 118.754,1077.35 120.722,1053.25 122.691,1038.96 124.659,1031.38 126.627,1028.56 128.595,1029.24 130.564,1032.54 132.532,1037.84 134.5,1044.69 136.469,1052.79 138.437,1061.88 140.405,1071.85 142.373,1082.49 144.342,1093.69 146.31,1105.33 148.278,1117.22 150.247,1129.33 152.215,1141.63 154.183,1153.99 156.151,1166.43 158.12,1178.84 160.088,1190.99 162.056,1202.74 164.025,1213.94 165.993,1224.41 167.961,1234.07 169.929,1242.92 171.898,1250.97 173.866,1258.33 175.834,1265.02 177.803,1271.02 179.771,1276.39 181.739,1281.28 183.707,1285.85 185.676,1290.04 187.644,1293.86 189.612,1297.36 191.581,1300.59 193.549,1303.56 195.517,1306.27 197.485,1308.76 199.454,1311.07 201.422,1313.21 203.39,1315.2 205.358,1317.04 207.327,1318.76 209.295,1320.37 211.263,1321.88 213.232,1323.31 215.2,1324.65 217.168,1325.93 219.136,1327.15 221.105,1328.32 223.073,1329.45 225.041,1330.54 227.01,1331.6 228.978,1332.63 230.946,1333.64 232.914,1334.63 234.883,1335.61 236.851,1336.57 238.819,1337.51 240.788,1338.45 242.756,1339.38 244.724,1340.29 246.692,1341.21 248.661,1342.11 250.629,1343.01 252.597,1343.91 254.566,1344.8 256.534,1345.67 258.502,1346.54 260.47,1347.4 262.439,1348.26 264.407,1349.11 266.375,1349.95 268.344,1350.77 270.312,1351.59 272.28,1352.39 274.248,1353.18 276.217,1353.96 278.185,1354.73 280.153,1355.49 282.122,1356.24 284.09,1356.96 286.058,1357.68 288.026,1358.38 289.995,1359.06 291.963,1359.74 293.931,1360.4 295.9,1361.05 297.868,1361.68 299.836,1362.29 301.804,1362.9 303.773,1363.48 305.741,1364.06 307.709,1364.62 309.678,1365.16 311.646,1365.7 313.614,1366.22 315.582,1366.73 317.551,1367.22 319.519,1367.7 321.487,1368.17 323.456,1368.62 325.424,1369.07 327.392,1369.5 329.36,1369.92 331.329,1370.33 333.297,1370.73 335.265,1371.12 337.234,1371.49 339.202,1371.86 341.17,1372.21 343.138,1372.56 345.107,1372.9 347.075,1373.23 349.043,1373.55 351.011,1373.86 352.98,1374.16 354.948,1374.45 356.916,1374.73 358.885,1375.01 360.853,1375.28 362.821,1375.54 364.789,1375.79 366.758,1376.04 368.726,1376.28 370.694,1376.51 372.663,1376.73 374.631,1376.95 376.599,1377.16 378.567,1377.37 380.536,1377.57 382.504,1377.77 384.472,1377.96 386.441,1378.14 388.409,1378.32 390.377,1378.49 392.345,1378.66 394.314,1378.82 396.282,1378.98 398.25,1379.14 400.219,1379.29 402.187,1379.43 404.155,1379.57 406.123,1379.71 408.092,1379.84 410.06,1379.97 412.028,1380.1 413.997,1380.22 415.965,1380.34 417.933,1380.45 419.901,1380.56 421.87,1380.67 423.838,1380.78 425.806,1380.88 427.775,1380.98 429.743,1381.07 431.711,1381.17 433.679,1381.26 435.648,1381.35 437.616,1381.43 439.584,1381.51 441.553,1381.59 443.521,1381.67 445.489,1381.75 447.457,1381.82 449.426,1381.89 451.394,1381.96 453.362,1382.03 455.331,1382.09 457.299,1382.16 459.267,1382.22 461.235,1382.28 463.204,1382.34 465.172,1382.39 467.14,1382.45 469.109,1382.5 471.077,1382.55 473.045,1382.6 475.013,1382.65 476.982,1382.7 478.95,1382.74 480.918,1382.79 482.886,1382.83 484.855,1382.87 486.823,1382.91 488.791,1382.95 490.76,1382.99 492.728,1383.02 494.696,1383.06 496.664,1383.1 498.633,1383.13 500.601,1383.16 502.569,1383.19 504.538,1383.23 506.506,1383.26 508.474,1383.28 510.442,1383.31 512.411,1383.34 514.379,1383.37 516.347,1383.39 518.316,1383.42 520.284,1383.44 522.252,1383.46 524.22,1383.49 526.189,1383.51 528.157,1383.53 530.125,1383.55 532.094,1383.57 534.062,1383.59 536.03,1383.61 537.998,1383.63 539.967,1383.65 541.935,1383.67 543.903,1383.68 545.872,1383.7 547.84,1383.71 549.808,1383.73 551.776,1383.75 553.745,1383.76 555.713,1383.77 557.681,1383.79 559.65,1383.8 561.618,1383.81 563.586,1383.83 565.554,1383.84 567.523,1383.85 569.491,1383.86 571.459,1383.87 573.428,1383.88 575.396,1383.89 577.364,1383.9 579.332,1383.91 581.301,1383.92 583.269,1383.93 585.237,1383.94 587.206,1383.95 589.174,1383.96 591.142,1383.97 593.11,1383.98 595.079,1383.98 597.047,1383.99 599.015,1384 600.984,1384.01 602.952,1384.01 604.92,1384.02 606.888,1384.03 608.857,1384.03 610.825,1384.04 612.793,1384.04 614.761,1384.05 616.73,1384.06 618.698,1384.06 620.666,1384.07 622.635,1384.07 624.603,1384.08 626.571,1384.08 628.539,1384.09 630.508,1384.09 632.476,1384.09 634.444,1384.1 636.413,1384.1 638.381,1384.11 640.349,1384.11 642.317,1384.11 644.286,1384.12 646.254,1384.12 648.222,1384.13 650.191,1384.13 652.159,1384.13 654.127,1384.14 656.095,1384.14 658.064,1384.14 660.032,1384.14 662,1384.15 663.969,1384.15 665.937,1384.15 667.905,1384.15 669.873,1384.16 671.842,1384.16 673.81,1384.16 675.778,1384.16 677.747,1384.17 679.715,1384.17 681.683,1384.17 683.651,1384.17 685.62,1384.17 687.588,1384.18 689.556,1384.18 691.525,1384.18 693.493,1384.18 695.461,1384.18 697.429,1384.18 699.398,1384.19 701.366,1384.19 703.334,1384.19 705.303,1384.19 707.271,1384.19 709.239,1384.19 711.207,1384.2 713.176,1384.2 715.144,1384.2 717.112,1384.2 719.081,1384.2 721.049,1384.2 723.017,1384.2 724.985,1384.2 726.954,1384.2 728.922,1384.21 730.89,1384.21 732.859,1384.21 734.827,1384.21 736.795,1384.21 738.763,1384.21 740.732,1384.21 742.7,1384.21 744.668,1384.21 746.636,1384.21 748.605,1384.21 750.573,1384.21 752.541,1384.22 754.51,1384.22 756.478,1384.22 758.446,1384.22 760.414,1384.22 762.383,1384.22 764.351,1384.22 766.319,1384.22 768.288,1384.22 770.256,1384.22 772.224,1384.22 774.192,1384.22 776.161,1384.22 778.129,1384.22 780.097,1384.22 782.066,1384.22 784.034,1384.22 786.002,1384.22 787.97,1384.22 789.939,1384.23 791.907,1384.23 793.875,1384.23 795.844,1384.23 797.812,1384.23 799.78,1384.23 801.748,1384.23 803.717,1384.23 805.685,1384.23 807.653,1384.23 809.622,1384.23 811.59,1384.23 813.558,1384.23 815.526,1384.23 817.495,1384.23 819.463,1384.23 821.431,1384.23 823.4,1384.23 825.368,1384.23 827.336,1384.23 829.304,1384.23 831.273,1384.23 833.241,1384.23 835.209,1384.23 837.178,1384.23 839.146,1384.23 841.114,1384.23 843.082,1384.23 845.051,1384.23 847.019,1384.23 848.987,1384.23 850.956,1384.23 852.924,1384.23 854.892,1384.23 856.86,1384.23 858.829,1384.23 860.797,1384.23 862.765,1384.23 864.734,1384.23 866.702,1384.23 868.67,1384.23 870.638,1384.23 872.607,1384.23 874.575,1384.23 876.543,1384.23 878.511,1384.23 880.48,1384.23 882.448,1384.23 884.416,1384.24 886.385,1384.24 888.353,1384.24 890.321,1384.24 892.289,1384.24 894.258,1384.24 896.226,1384.24 898.194,1384.24 900.163,1384.24 902.131,1384.24 904.099,1384.24 906.067,1384.24 908.036,1384.24 910.004,1384.24 911.972,1384.24 913.941,1384.24 915.909,1384.24 917.877,1384.24 919.845,1384.24 921.814,1384.24 923.782,1384.24 925.75,1384.24 927.719,1384.24 929.687,1384.24 931.655,1384.24 933.623,1384.24 935.592,1384.24 937.56,1384.24 939.528,1384.24 941.497,1384.24 943.465,1384.24 945.433,1384.24 947.401,1384.24 949.37,1384.24 951.338,1384.24 953.306,1384.24 955.275,1384.24 957.243,1384.24 959.211,1384.24 961.179,1384.24 963.148,1384.24 965.116,1384.24 967.084,1384.24 969.053,1384.24 971.021,1384.24 972.989,1384.24 974.957,1384.24 976.926,1384.24 978.894,1384.24 980.862,1384.24 982.831,1384.24 984.799,1384.24 986.767,1384.24 988.735,1384.24 990.704,1384.24 992.672,1384.24 994.64,1384.24 996.609,1384.24 998.577,1384.24 1000.55,1384.24 1002.51,1384.24 1004.48,1384.24 1006.45,1384.24 1008.42,1384.24 1010.39,1384.24 1012.35,1384.24 1014.32,1384.24 1016.29,1384.24 1018.26,1384.24 1020.23,1384.24 1022.2,1384.24 1024.16,1384.24 1026.13,1384.24 1028.1,1384.24 1030.07,1384.24 1032.04,1384.24 1034.01,1384.24 1035.97,1384.24 1037.94,1384.24 1039.91,1384.24 1041.88,1384.24 1043.85,1384.24 1045.82,1384.24 1047.78,1384.24 1049.75,1384.24 1051.72,1384.24 1053.69,1384.24 1055.66,1384.24 1057.63,1384.24 1059.59,1384.24 1061.56,1384.24 1063.53,1384.24 1065.5,1384.24 1067.47,1384.24 1069.43,1384.24 1071.4,1384.24 1073.37,1384.24 1075.34,1384.24 1077.31,1384.24 1079.28,1384.24 1081.24,1384.24 1083.21,1384.24 1085.18,1384.24 1087.15,1384.24 1089.12,1384.24 1091.09,1384.24 1093.05,1384.24 1095.02,1384.24 1096.99,1384.24 1098.96,1384.24 1100.93,1384.24 1102.9,1384.24 1104.86,1384.24 1106.83,1384.24 1108.8,1384.24 1110.77,1384.24 1112.74,1384.24 1114.71,1384.24 1116.67,1384.24 1118.64,1384.24 1120.61,1384.24 1122.58,1384.24 1124.55,1384.24 1126.52,1384.24 1128.48,1384.24 1130.45,1384.24 1132.42,1384.24 1134.39,1384.24 1136.36,1384.24 1138.32,1384.24 1140.29,1384.24 1142.26,1384.24 1144.23,1384.24 1146.2,1384.24 1148.17,1384.24 1150.13,1384.24 1152.1,1384.24 1154.07,1384.24 1156.04,1384.24 1158.01,1384.24 1159.98,1384.24 1161.94,1384.24 1163.91,1384.24 1165.88,1384.24 1167.85,1384.24 1169.82,1384.24 1171.79,1384.24 1173.75,1384.24 1175.72,1384.24 1177.69,1384.24 1179.66,1384.24 1181.63,1384.24 1183.6,1384.24 1185.56,1384.24 1187.53,1384.24 1189.5,1384.24 1191.47,1384.24 1193.44,1384.24 1195.41,1384.24 1197.37,1384.24 1199.34,1384.24 1201.31,1384.24 1203.28,1384.24 1205.25,1384.24 1207.21,1384.24 1209.18,1384.24 1211.15,1384.24 1213.12,1384.24 1215.09,1384.24 1217.06,1384.24 1219.02,1384.24 1220.99,1384.24 1222.96,1384.24 1224.93,1384.24 1226.9,1384.24 1228.87,1384.24 1230.83,1384.24 1232.8,1384.24 1234.77,1384.24 1236.74,1384.24 1238.71,1384.24 1240.68,1384.24 1242.64,1384.24 1244.61,1384.24 1246.58,1384.24 1248.55,1384.24 1250.52,1384.24 1252.49,1384.24 1254.45,1384.24 1256.42,1384.24 1258.39,1384.24 1260.36,1384.24 1262.33,1384.24 1264.3,1384.24 1266.26,1384.24 1268.23,1384.24 1270.2,1384.24 1272.17,1384.24 1274.14,1384.24 1276.1,1384.24 1278.07,1384.24 1280.04,1384.24 1282.01,1384.24 1283.98,1384.24 1285.95,1384.24 1287.91,1384.24 1289.88,1384.24 1291.85,1384.24 1293.82,1384.24 1295.79,1384.24 1297.76,1384.24 1299.72,1384.24 1301.69,1384.24 1303.66,1384.24 1305.63,1384.24 1307.6,1384.24 1309.57,1384.24 1311.53,1384.24 1313.5,1384.24 1315.47,1384.24 1317.44,1384.24 1319.41,1384.24 1321.38,1384.24 1323.34,1384.24 1325.31,1384.24 1327.28,1384.24 1329.25,1384.24 1331.22,1384.24 1333.19,1384.24 1335.15,1384.24 1337.12,1384.24 1339.09,1384.24 1341.06,1384.24 1343.03,1384.24 1344.99,1384.24 1346.96,1384.24 1348.93,1384.24 1350.9,1384.24 1352.87,1384.24 1354.84,1384.24 1356.8,1384.24 1358.77,1384.24 1360.74,1384.24 1362.71,1384.24 1364.68,1384.24 1366.65,1384.24 1368.61,1384.24 1370.58,1384.24 1372.55,1384.24 1374.52,1384.24 1376.49,1384.24 1378.46,1384.24 1380.42,1384.24 1382.39,1384.24 1384.36,1384.24 1386.33,1384.24 1388.3,1384.24 1390.27,1384.24 1392.23,1384.24 1394.2,1384.24 1396.17,1384.24 1398.14,1384.24 1400.11,1384.24 1402.07,1384.24 1404.04,1384.24 1406.01,1384.24 1407.98,1384.24 1409.95,1384.24 1411.92,1384.24 1413.88,1384.24 1415.85,1384.24 1417.82,1384.24 1419.79,1384.24 1421.76,1384.24 1423.73,1384.24 1425.69,1384.24 1427.66,1384.24 1429.63,1384.24 1431.6,1384.24 1433.57,1384.24 1435.54,1384.24 1437.5,1384.24 1439.47,1384.24 1441.44,1384.24 1443.41,1384.24 1445.38,1384.24 1447.35,1384.24 1449.31,1384.24 1451.28,1384.24 1453.25,1384.24 1455.22,1384.24 1457.19,1384.24 1459.16,1384.24 1461.12,1384.24 1463.09,1384.24 1465.06,1384.24 1467.03,1384.24 1469,1384.24 1470.96,1384.24 1472.93,1384.24 1474.9,1384.24 1476.87,1384.24 1478.84,1384.24 1480.81,1384.24 1482.77,1384.24 1484.74,1384.24 1486.71,1384.24 1488.68,1384.24 1490.65,1384.24 1492.62,1384.24 1494.58,1384.24 1496.55,1384.24 1498.52,1384.24 1500.49,1384.24 1502.46,1384.24 1504.43,1384.24 1506.39,1384.24 1508.36,1384.24 1510.33,1384.24 1512.3,1384.24 1514.27,1384.24 1516.24,1384.24 1518.2,1384.24 1520.17,1384.24 1522.14,1384.24 1524.11,1384.24 1526.08,1384.24 1528.05,1384.24 1530.01,1384.24 1531.98,1384.24 1533.95,1384.24 1535.92,1384.24 1537.89,1384.24 1539.85,1384.24 1541.82,1384.24 1543.79,1384.24 1545.76,1384.24 1547.73,1384.24 1549.7,1384.24 1551.66,1384.24 1553.63,1384.24 1555.6,1384.24 1557.57,1384.24 1559.54,1384.24 1561.51,1384.24 1563.47,1384.24 1565.44,1384.24 1567.41,1384.24 1569.38,1384.24 1571.35,1384.24 1573.32,1384.24 1575.28,1384.24 1577.25,1384.24 1579.22,1384.24 1581.19,1384.24 1583.16,1384.24 1585.13,1384.24 1587.09,1384.24 1589.06,1384.24 1591.03,1384.24 1593,1384.24 1594.97,1384.24 1596.94,1384.24 1598.9,1384.24 1600.87,1384.24 1602.84,1384.24 1604.81,1384.24 1606.78,1384.24 1608.74,1384.24 1610.71,1384.24 1612.68,1384.24 1614.65,1384.24 1616.62,1384.24 1618.59,1384.24 1620.55,1384.24 1622.52,1384.24 1624.49,1384.24 1626.46,1384.24 1628.43,1384.24 1630.4,1384.24 1632.36,1384.24 1634.33,1384.24 1636.3,1384.24 1638.27,1384.24 1640.24,1384.24 1642.21,1384.24 1644.17,1384.24 1646.14,1384.24 1648.11,1384.24 1650.08,1384.24 1652.05,1384.24 1654.02,1384.24 1655.98,1384.24 1657.95,1384.24 1659.92,1384.24 1661.89,1384.24 1663.86,1384.24 1665.82,1384.24 1667.79,1384.24 1669.76,1384.24 1671.73,1384.24 1673.7,1384.24 1675.67,1384.24 1677.63,1384.24 1679.6,1384.24 1681.57,1384.24 1683.54,1384.24 1685.51,1384.24 1687.48,1384.24 1689.44,1384.24 1691.41,1384.24 1693.38,1384.24 1695.35,1384.24 1697.32,1384.24 1699.29,1384.24 1701.25,1384.24 1703.22,1384.24 1705.19,1384.24 1707.16,1384.24 1709.13,1384.24 1711.1,1384.24 1713.06,1384.24 1715.03,1384.24 1717,1384.24 1718.97,1384.24 1720.94,1384.24 1722.91,1384.24 1724.87,1384.24 1726.84,1384.24 1728.81,1384.24 1730.78,1384.24 1732.75,1384.24 1734.71,1384.24 1736.68,1384.24 1738.65,1384.24 1740.62,1384.24 1742.59,1384.24 1744.56,1384.24 1746.52,1384.24 1748.49,1384.24 1750.46,1384.24 1752.43,1384.24 1754.4,1384.24 1756.37,1384.24 1758.33,1384.24 1760.3,1384.24 1762.27,1384.24 1764.24,1384.24 1766.21,1384.24 1768.18,1384.24 1770.14,1384.24 1772.11,1384.24 1774.08,1384.24 1776.05,1384.24 1778.02,1384.24 1779.99,1384.24 1781.95,1384.24 1783.92,1384.24 1785.89,1384.24 1787.86,1384.24 1789.83,1384.24 1791.8,1384.24 1793.76,1384.24 1795.73,1384.24 1797.7,1384.24 1799.67,1384.24 1801.64,1384.24 1803.6,1384.24 1805.57,1384.24 1807.54,1384.24 1809.51,1384.24 1811.48,1384.24 1813.45,1384.24 1815.41,1384.24 1817.38,1384.24 1819.35,1384.24 1821.32,1384.24 1823.29,1384.24 1825.26,1384.24 1827.22,1384.24 1829.19,1384.24 1831.16,1384.24 1833.13,1384.24 1835.1,1384.24 1837.07,1384.24 1839.03,1384.24 1841,1384.24 1842.97,1384.24 1844.94,1384.24 1846.91,1384.24 1848.88,1384.24 1850.84,1384.24 1852.81,1384.24 1854.78,1384.24 1856.75,1384.24 1858.72,1384.24 1860.69,1384.24 1862.65,1384.24 1864.62,1384.24 1866.59,1384.24 1868.56,1384.24 1870.53,1384.24 1872.49,1384.24 1874.46,1384.24 1876.43,1384.24 1878.4,1384.24 1880.37,1384.24 1882.34,1384.24 1884.3,1384.24 1886.27,1384.24 1888.24,1384.24 1890.21,1384.24 1892.18,1384.24 1894.15,1384.24 1896.11,1384.24 1898.08,1384.24 1900.05,1384.24 1902.02,1384.24 1903.99,1384.24 1905.96,1384.24 1907.92,1384.24 1909.89,1384.24 1911.86,1384.24 1913.83,1384.24 1915.8,1384.24 1917.77,1384.24 1919.73,1384.24 1921.7,1384.24 1923.67,1384.24 1925.64,1384.24 1927.61,1384.24 1929.57,1384.24 1931.54,1384.24 1933.51,1384.24 1935.48,1384.24 1937.45,1384.24 1939.42,1384.24 1941.38,1384.24 1943.35,1384.24 1945.32,1384.24 1947.29,1384.24 1949.26,1384.24 1951.23,1384.24 1953.19,1384.24 1955.16,1384.24 1957.13,1384.24 1959.1,1384.24 1961.07,1384.24 1963.04,1384.24 1965,1384.24 1966.97,1384.24 1968.94,1384.24 1970.91,1384.24 1972.88,1384.24 1974.85,1384.24 1976.81,1384.24 1978.78,1384.24 1980.75,1384.24 1982.72,1384.24 1984.69,1384.24 1986.66,1384.24 1988.62,1384.24 1990.59,1384.24 1992.56,1384.24 1994.53,1384.24 1996.5,1384.24 1998.46,1384.24 2000.43,1384.24 2002.4,1384.24 2004.37,1384.24 2006.34,1384.24 2008.31,1384.24 2010.27,1384.24 2012.24,1384.24 2014.21,1384.24 2016.18,1384.24 2018.15,1384.24 2020.12,1384.24 2022.08,1384.24 2024.05,1384.24 2026.02,1384.24 2027.99,1384.24 2029.96,1384.24 2031.93,1384.24 2033.89,1384.24 2035.86,1384.24 2037.83,1384.24 2039.8,1384.24 2041.77,1384.24 2043.74,1384.24 2045.7,1384.24 2047.67,1384.24 2049.64,1384.24 2051.61,1384.24 2053.58,1384.24 2055.55,1384.24 2057.51,1384.24 2059.48,1384.24 2061.45,1384.24 2063.42,1384.24 2065.39,1384.24 2067.35,1384.24 2069.32,1384.24 2071.29,1384.24 2073.26,1384.24 2075.23,1384.24 2077.2,1384.24 2079.16,1384.24 2081.13,1384.24 2083.1,1384.24 2085.07,1384.24 2087.04,1384.24 2089.01,1384.24 2090.97,1384.24 2092.94,1384.24 2094.91,1384.24 2096.88,1384.24 2098.85,1384.24 2100.82,1384.24 2102.78,1384.24 2104.75,1384.24 2106.72,1384.24 2108.69,1384.24 2110.66,1384.24 2112.63,1384.24 2114.59,1384.24 2116.56,1384.24 2118.53,1384.24 2120.5,1384.24 2122.47,1384.24 2124.44,1384.24 2126.4,1384.24 2128.37,1384.24 2130.34,1384.24 2132.31,1384.24 2134.28,1384.24 2136.24,1384.24 2138.21,1384.24 2140.18,1384.24 2142.15,1384.24 2144.12,1384.24 2146.09,1384.24 2148.05,1384.24 2150.02,1384.24 2151.99,1384.24 2153.96,1384.24 2155.93,1384.24 2157.9,1384.24 2159.86,1384.24 2161.83,1384.24 2163.8,1384.24 2165.77,1384.24 2167.74,1384.24 2169.71,1384.24 2171.67,1384.24 2173.64,1384.24 2175.61,1384.24 2177.58,1384.24 2179.55,1384.24 2181.52,1384.24 2183.48,1384.24 2185.45,1384.24 2187.42,1384.24 2189.39,1384.24 2191.36,1384.24 2193.32,1384.24 2195.29,1384.24 2197.26,1384.24 2199.23,1384.24 2201.2,1384.24 2203.17,1384.24 2205.13,1384.24 2207.1,1384.24 2209.07,1384.24 2211.04,1384.24 2213.01,1384.24 2214.98,1384.24 2216.94,1384.24 2218.91,1384.24 2220.88,1384.24 2222.85,1384.24 2224.82,1384.24 2226.79,1384.24 2228.75,1384.24 2230.72,1384.24 2232.69,1384.24 2234.66,1384.24 2236.63,1384.24 2238.6,1384.24 2240.56,1384.24 2242.53,1384.24 2244.5,1384.24 2246.47,1384.24 2248.44,1384.24 2250.41,1384.24 2252.37,1384.24 2254.34,1384.24 2256.31,1384.24 2258.28,1384.24 2260.25,1384.24 2262.21,1384.24 2264.18,1384.24 2266.15,1384.24 2268.12,1384.24 2270.09,1384.24 2272.06,1384.24 2274.02,1384.24 2275.99,1384.24 2277.96,1384.24 2279.93,1384.24 2281.9,1384.24 2283.87,1384.24 2285.83,1384.24 2287.8,1384.24 2289.77,1384.24 2291.74,1384.24 2293.71,1384.24 2295.68,1384.24 2297.64,1384.24 2299.61,1384.24 2301.58,1384.24 2303.55,1384.24 2305.52,1384.24 2307.49,1384.24 2309.45,1384.24 2311.42,1384.24 2313.39,1384.24 2315.36,1384.24 2317.33,1384.24 2319.3,1384.24 2321.26,1384.24 2323.23,1384.24 2325.2,1384.24 2327.17,1384.24 2329.14,1384.24 2331.1,1384.24 2333.07,1384.24 2335.04,1384.24 2337.01,1384.24 2338.98,1384.24 2340.95,1384.24 2342.91,1384.24 2344.88,1384.24 2346.85,1384.24 2348.82,1384.24 2350.79,1384.24 2352.76,1384.24 "/>
<path clip-path="url(#clip380)" d="M185.61 248.629 L477.343 248.629 L477.343 93.1086 L185.61 93.1086  Z" fill="#ffffff" fill-rule="evenodd" fill-opacity="1"/>
<polyline clip-path="url(#clip380)" style="stroke:#000000; stroke-linecap:round; stroke-linejoin:round; stroke-width:4; stroke-opacity:1; fill:none" points="185.61,248.629 477.343,248.629 477.343,93.1086 185.61,93.1086 185.61,248.629 "/>
<polyline clip-path="url(#clip380)" style="stroke:#009af9; stroke-linecap:round; stroke-linejoin:round; stroke-width:4; stroke-opacity:1; fill:none" points="210.52,144.949 359.978,144.949 "/>
<path clip-path="url(#clip380)" d="M404.147 145.794 L389.402 145.794 Q389.749 152.715 391.346 155.655 Q393.337 159.266 396.786 159.266 Q400.258 159.266 402.179 155.631 Q403.869 152.437 404.147 145.794 M404.078 141.858 Q403.429 135.284 402.179 132.97 Q400.189 129.312 396.786 129.312 Q393.244 129.312 391.369 132.923 Q389.888 135.84 389.448 141.858 L404.078 141.858 M396.786 125.84 Q402.341 125.84 405.513 130.747 Q408.684 135.632 408.684 144.289 Q408.684 152.923 405.513 157.83 Q402.341 162.761 396.786 162.761 Q391.207 162.761 388.059 157.83 Q384.888 152.923 384.888 144.289 Q384.888 135.632 388.059 130.747 Q391.207 125.84 396.786 125.84 Z" fill="#000000" fill-rule="nonzero" fill-opacity="1" /><polyline clip-path="url(#clip380)" style="stroke:#e26f46; stroke-linecap:round; stroke-linejoin:round; stroke-width:4; stroke-opacity:1; fill:none" points="210.52,196.789 359.978,196.789 "/>
<path clip-path="url(#clip380)" d="M404.147 197.634 L389.402 197.634 Q389.749 204.555 391.346 207.495 Q393.337 211.106 396.786 211.106 Q400.258 211.106 402.179 207.471 Q403.869 204.277 404.147 197.634 M404.078 193.698 Q403.429 187.124 402.179 184.81 Q400.189 181.152 396.786 181.152 Q393.244 181.152 391.369 184.763 Q389.888 187.68 389.448 193.698 L404.078 193.698 M396.786 177.68 Q402.341 177.68 405.513 182.587 Q408.684 187.472 408.684 196.129 Q408.684 204.763 405.513 209.67 Q402.341 214.601 396.786 214.601 Q391.207 214.601 388.059 209.67 Q384.888 204.763 384.888 196.129 Q384.888 187.472 388.059 182.587 Q391.207 177.68 396.786 177.68 Z" fill="#000000" fill-rule="nonzero" fill-opacity="1" /><path clip-path="url(#clip380)" d="M416.207 218.05 L430.05 218.05 L430.05 221.476 L416.207 221.476 L416.207 218.05 Z" fill="#000000" fill-rule="nonzero" fill-opacity="1" /><path clip-path="url(#clip380)" d="M443.661 180.782 L443.661 188.143 L452.434 188.143 L452.434 191.453 L443.661 191.453 L443.661 205.527 Q443.661 208.698 444.517 209.601 Q445.397 210.504 448.059 210.504 L452.434 210.504 L452.434 214.069 L448.059 214.069 Q443.128 214.069 441.253 212.24 Q439.378 210.388 439.378 205.527 L439.378 191.453 L436.253 191.453 L436.253 188.143 L439.378 188.143 L439.378 180.782 L443.661 180.782 Z" fill="#000000" fill-rule="nonzero" fill-opacity="1" /></svg>
