<?xml version="1.0" encoding="utf-8"?>
<svg xmlns="http://www.w3.org/2000/svg" xmlns:xlink="http://www.w3.org/1999/xlink" width="600" height="400" viewBox="0 0 2400 1600">
<defs>
  <clipPath id="clip240">
    <rect x="0" y="0" width="2400" height="1600"/>
  </clipPath>
</defs>
<path clip-path="url(#clip240)" d="M0 1600 L2400 1600 L2400 0 L0 0  Z" fill="#ffffff" fill-rule="evenodd" fill-opacity="1"/>
<defs>
  <clipPath id="clip241">
    <rect x="110" y="47" width="2243" height="1377"/>
  </clipPath>
</defs>
<path clip-path="url(#clip240)" d="M110.881 1423.18 L2352.76 1423.18 L2352.76 47.2441 L110.881 47.2441  Z" fill="#ffffff" fill-rule="evenodd" fill-opacity="1"/>
<polyline clip-path="url(#clip241)" style="stroke:#000000; stroke-linecap:round; stroke-linejoin:round; stroke-width:2; stroke-opacity:0.1; fill:none" points="110.881,1423.18 110.881,47.2441 "/>
<polyline clip-path="url(#clip241)" style="stroke:#000000; stroke-linecap:round; stroke-linejoin:round; stroke-width:2; stroke-opacity:0.1; fill:none" points="858.173,1423.18 858.173,47.2441 "/>
<polyline clip-path="url(#clip241)" style="stroke:#000000; stroke-linecap:round; stroke-linejoin:round; stroke-width:2; stroke-opacity:0.1; fill:none" points="1605.46,1423.18 1605.46,47.2441 "/>
<polyline clip-path="url(#clip241)" style="stroke:#000000; stroke-linecap:round; stroke-linejoin:round; stroke-width:2; stroke-opacity:0.1; fill:none" points="2352.76,1423.18 2352.76,47.2441 "/>
<polyline clip-path="url(#clip241)" style="stroke:#000000; stroke-linecap:round; stroke-linejoin:round; stroke-width:2; stroke-opacity:0.1; fill:none" points="110.881,1329.8 2352.76,1329.8 "/>
<polyline clip-path="url(#clip241)" style="stroke:#000000; stroke-linecap:round; stroke-linejoin:round; stroke-width:2; stroke-opacity:0.1; fill:none" points="110.881,1000.14 2352.76,1000.14 "/>
<polyline clip-path="url(#clip241)" style="stroke:#000000; stroke-linecap:round; stroke-linejoin:round; stroke-width:2; stroke-opacity:0.1; fill:none" points="110.881,670.479 2352.76,670.479 "/>
<polyline clip-path="url(#clip241)" style="stroke:#000000; stroke-linecap:round; stroke-linejoin:round; stroke-width:2; stroke-opacity:0.1; fill:none" points="110.881,340.819 2352.76,340.819 "/>
<polyline clip-path="url(#clip240)" style="stroke:#000000; stroke-linecap:round; stroke-linejoin:round; stroke-width:4; stroke-opacity:1; fill:none" points="110.881,1423.18 2352.76,1423.18 "/>
<polyline clip-path="url(#clip240)" style="stroke:#000000; stroke-linecap:round; stroke-linejoin:round; stroke-width:4; stroke-opacity:1; fill:none" points="110.881,1423.18 110.881,1404.28 "/>
<polyline clip-path="url(#clip240)" style="stroke:#000000; stroke-linecap:round; stroke-linejoin:round; stroke-width:4; stroke-opacity:1; fill:none" points="858.173,1423.18 858.173,1404.28 "/>
<polyline clip-path="url(#clip240)" style="stroke:#000000; stroke-linecap:round; stroke-linejoin:round; stroke-width:4; stroke-opacity:1; fill:none" points="1605.46,1423.18 1605.46,1404.28 "/>
<polyline clip-path="url(#clip240)" style="stroke:#000000; stroke-linecap:round; stroke-linejoin:round; stroke-width:4; stroke-opacity:1; fill:none" points="2352.76,1423.18 2352.76,1404.28 "/>
<path clip-path="url(#clip240)" d="M110.881 1454.1 Q107.27 1454.1 105.441 1457.66 Q103.636 1461.2 103.636 1468.33 Q103.636 1475.44 105.441 1479.01 Q107.27 1482.55 110.881 1482.55 Q114.515 1482.55 116.321 1479.01 Q118.149 1475.44 118.149 1468.33 Q118.149 1461.2 116.321 1457.66 Q114.515 1454.1 110.881 1454.1 M110.881 1450.39 Q116.691 1450.39 119.747 1455 Q122.825 1459.58 122.825 1468.33 Q122.825 1477.06 119.747 1481.67 Q116.691 1486.25 110.881 1486.25 Q105.071 1486.25 101.992 1481.67 Q98.9365 1477.06 98.9365 1468.33 Q98.9365 1459.58 101.992 1455 Q105.071 1450.39 110.881 1450.39 Z" fill="#000000" fill-rule="nonzero" fill-opacity="1" /><path clip-path="url(#clip240)" d="M832.872 1451.02 L851.228 1451.02 L851.228 1454.96 L837.154 1454.96 L837.154 1463.43 Q838.173 1463.08 839.191 1462.92 Q840.21 1462.73 841.228 1462.73 Q847.015 1462.73 850.395 1465.9 Q853.774 1469.08 853.774 1474.49 Q853.774 1480.07 850.302 1483.17 Q846.83 1486.25 840.511 1486.25 Q838.335 1486.25 836.066 1485.88 Q833.821 1485.51 831.413 1484.77 L831.413 1480.07 Q833.497 1481.2 835.719 1481.76 Q837.941 1482.32 840.418 1482.32 Q844.423 1482.32 846.761 1480.21 Q849.099 1478.1 849.099 1474.49 Q849.099 1470.88 846.761 1468.77 Q844.423 1466.67 840.418 1466.67 Q838.543 1466.67 836.668 1467.08 Q834.816 1467.5 832.872 1468.38 L832.872 1451.02 Z" fill="#000000" fill-rule="nonzero" fill-opacity="1" /><path clip-path="url(#clip240)" d="M872.987 1454.1 Q869.376 1454.1 867.548 1457.66 Q865.742 1461.2 865.742 1468.33 Q865.742 1475.44 867.548 1479.01 Q869.376 1482.55 872.987 1482.55 Q876.622 1482.55 878.427 1479.01 Q880.256 1475.44 880.256 1468.33 Q880.256 1461.2 878.427 1457.66 Q876.622 1454.1 872.987 1454.1 M872.987 1450.39 Q878.797 1450.39 881.853 1455 Q884.932 1459.58 884.932 1468.33 Q884.932 1477.06 881.853 1481.67 Q878.797 1486.25 872.987 1486.25 Q867.177 1486.25 864.098 1481.67 Q861.043 1477.06 861.043 1468.33 Q861.043 1459.58 864.098 1455 Q867.177 1450.39 872.987 1450.39 Z" fill="#000000" fill-rule="nonzero" fill-opacity="1" /><path clip-path="url(#clip240)" d="M1565.07 1481.64 L1572.71 1481.64 L1572.71 1455.28 L1564.4 1456.95 L1564.4 1452.69 L1572.66 1451.02 L1577.34 1451.02 L1577.34 1481.64 L1584.98 1481.64 L1584.98 1485.58 L1565.07 1485.58 L1565.07 1481.64 Z" fill="#000000" fill-rule="nonzero" fill-opacity="1" /><path clip-path="url(#clip240)" d="M1604.42 1454.1 Q1600.81 1454.1 1598.98 1457.66 Q1597.18 1461.2 1597.18 1468.33 Q1597.18 1475.44 1598.98 1479.01 Q1600.81 1482.55 1604.42 1482.55 Q1608.06 1482.55 1609.86 1479.01 Q1611.69 1475.44 1611.69 1468.33 Q1611.69 1461.2 1609.86 1457.66 Q1608.06 1454.1 1604.42 1454.1 M1604.42 1450.39 Q1610.23 1450.39 1613.29 1455 Q1616.37 1459.58 1616.37 1468.33 Q1616.37 1477.06 1613.29 1481.67 Q1610.23 1486.25 1604.42 1486.25 Q1598.61 1486.25 1595.53 1481.67 Q1592.48 1477.06 1592.48 1468.33 Q1592.48 1459.58 1595.53 1455 Q1598.61 1450.39 1604.42 1450.39 Z" fill="#000000" fill-rule="nonzero" fill-opacity="1" /><path clip-path="url(#clip240)" d="M1634.58 1454.1 Q1630.97 1454.1 1629.14 1457.66 Q1627.34 1461.2 1627.34 1468.33 Q1627.34 1475.44 1629.14 1479.01 Q1630.97 1482.55 1634.58 1482.55 Q1638.22 1482.55 1640.02 1479.01 Q1641.85 1475.44 1641.85 1468.33 Q1641.85 1461.2 1640.02 1457.66 Q1638.22 1454.1 1634.58 1454.1 M1634.58 1450.39 Q1640.39 1450.39 1643.45 1455 Q1646.53 1459.58 1646.53 1468.33 Q1646.53 1477.06 1643.45 1481.67 Q1640.39 1486.25 1634.58 1486.25 Q1628.77 1486.25 1625.7 1481.67 Q1622.64 1477.06 1622.64 1468.33 Q1622.64 1459.58 1625.7 1455 Q1628.77 1450.39 1634.58 1450.39 Z" fill="#000000" fill-rule="nonzero" fill-opacity="1" /><path clip-path="url(#clip240)" d="M2312.36 1481.64 L2320 1481.64 L2320 1455.28 L2311.69 1456.95 L2311.69 1452.69 L2319.96 1451.02 L2324.63 1451.02 L2324.63 1481.64 L2332.27 1481.64 L2332.27 1485.58 L2312.36 1485.58 L2312.36 1481.64 Z" fill="#000000" fill-rule="nonzero" fill-opacity="1" /><path clip-path="url(#clip240)" d="M2341.76 1451.02 L2360.12 1451.02 L2360.12 1454.96 L2346.04 1454.96 L2346.04 1463.43 Q2347.06 1463.08 2348.08 1462.92 Q2349.1 1462.73 2350.12 1462.73 Q2355.9 1462.73 2359.28 1465.9 Q2362.66 1469.08 2362.66 1474.49 Q2362.66 1480.07 2359.19 1483.17 Q2355.72 1486.25 2349.4 1486.25 Q2347.22 1486.25 2344.96 1485.88 Q2342.71 1485.51 2340.3 1484.77 L2340.3 1480.07 Q2342.39 1481.2 2344.61 1481.76 Q2346.83 1482.32 2349.31 1482.32 Q2353.31 1482.32 2355.65 1480.21 Q2357.99 1478.1 2357.99 1474.49 Q2357.99 1470.88 2355.65 1468.77 Q2353.31 1466.67 2349.31 1466.67 Q2347.43 1466.67 2345.56 1467.08 Q2343.71 1467.5 2341.76 1468.38 L2341.76 1451.02 Z" fill="#000000" fill-rule="nonzero" fill-opacity="1" /><path clip-path="url(#clip240)" d="M2381.88 1454.1 Q2378.27 1454.1 2376.44 1457.66 Q2374.63 1461.2 2374.63 1468.33 Q2374.63 1475.44 2376.44 1479.01 Q2378.27 1482.55 2381.88 1482.55 Q2385.51 1482.55 2387.32 1479.01 Q2389.14 1475.44 2389.14 1468.33 Q2389.14 1461.2 2387.32 1457.66 Q2385.51 1454.1 2381.88 1454.1 M2381.88 1450.39 Q2387.69 1450.39 2390.74 1455 Q2393.82 1459.58 2393.82 1468.33 Q2393.82 1477.06 2390.74 1481.67 Q2387.69 1486.25 2381.88 1486.25 Q2376.07 1486.25 2372.99 1481.67 Q2369.93 1477.06 2369.93 1468.33 Q2369.93 1459.58 2372.99 1455 Q2376.07 1450.39 2381.88 1450.39 Z" fill="#000000" fill-rule="nonzero" fill-opacity="1" /><path clip-path="url(#clip240)" d="M1230.88 1522.27 L1230.88 1532.4 L1242.94 1532.4 L1242.94 1536.95 L1230.88 1536.95 L1230.88 1556.3 Q1230.88 1560.66 1232.06 1561.9 Q1233.27 1563.14 1236.93 1563.14 L1242.94 1563.14 L1242.94 1568.04 L1236.93 1568.04 Q1230.15 1568.04 1227.57 1565.53 Q1224.99 1562.98 1224.99 1556.3 L1224.99 1536.95 L1220.69 1536.95 L1220.69 1532.4 L1224.99 1532.4 L1224.99 1522.27 L1230.88 1522.27 Z" fill="#000000" fill-rule="nonzero" fill-opacity="1" /><polyline clip-path="url(#clip240)" style="stroke:#000000; stroke-linecap:round; stroke-linejoin:round; stroke-width:4; stroke-opacity:1; fill:none" points="110.881,1423.18 110.881,47.2441 "/>
<polyline clip-path="url(#clip240)" style="stroke:#000000; stroke-linecap:round; stroke-linejoin:round; stroke-width:4; stroke-opacity:1; fill:none" points="110.881,1329.8 129.779,1329.8 "/>
<polyline clip-path="url(#clip240)" style="stroke:#000000; stroke-linecap:round; stroke-linejoin:round; stroke-width:4; stroke-opacity:1; fill:none" points="110.881,1000.14 129.779,1000.14 "/>
<polyline clip-path="url(#clip240)" style="stroke:#000000; stroke-linecap:round; stroke-linejoin:round; stroke-width:4; stroke-opacity:1; fill:none" points="110.881,670.479 129.779,670.479 "/>
<polyline clip-path="url(#clip240)" style="stroke:#000000; stroke-linecap:round; stroke-linejoin:round; stroke-width:4; stroke-opacity:1; fill:none" points="110.881,340.819 129.779,340.819 "/>
<path clip-path="url(#clip240)" d="M62.9365 1315.6 Q59.3254 1315.6 57.4967 1319.16 Q55.6912 1322.7 55.6912 1329.83 Q55.6912 1336.94 57.4967 1340.51 Q59.3254 1344.05 62.9365 1344.05 Q66.5707 1344.05 68.3763 1340.51 Q70.205 1336.94 70.205 1329.83 Q70.205 1322.7 68.3763 1319.16 Q66.5707 1315.6 62.9365 1315.6 M62.9365 1311.89 Q68.7467 1311.89 71.8022 1316.5 Q74.8809 1321.08 74.8809 1329.83 Q74.8809 1338.56 71.8022 1343.17 Q68.7467 1347.75 62.9365 1347.75 Q57.1264 1347.75 54.0477 1343.17 Q50.9921 1338.56 50.9921 1329.83 Q50.9921 1321.08 54.0477 1316.5 Q57.1264 1311.89 62.9365 1311.89 Z" fill="#000000" fill-rule="nonzero" fill-opacity="1" /><path clip-path="url(#clip240)" d="M54.9736 1013.48 L62.6124 1013.48 L62.6124 987.119 L54.3023 988.785 L54.3023 984.526 L62.5661 982.859 L67.242 982.859 L67.242 1013.48 L74.8809 1013.48 L74.8809 1017.42 L54.9736 1017.42 L54.9736 1013.48 Z" fill="#000000" fill-rule="nonzero" fill-opacity="1" /><path clip-path="url(#clip240)" d="M58.5615 683.824 L74.8809 683.824 L74.8809 687.759 L52.9366 687.759 L52.9366 683.824 Q55.5986 681.069 60.1819 676.44 Q64.7883 671.787 65.9689 670.444 Q68.2143 667.921 69.0939 666.185 Q69.9967 664.426 69.9967 662.736 Q69.9967 659.981 68.0522 658.245 Q66.1309 656.509 63.0291 656.509 Q60.83 656.509 58.3763 657.273 Q55.9458 658.037 53.168 659.588 L53.168 654.866 Q55.9921 653.731 58.4458 653.153 Q60.8995 652.574 62.9365 652.574 Q68.3068 652.574 71.5013 655.259 Q74.6957 657.944 74.6957 662.435 Q74.6957 664.565 73.8855 666.486 Q73.0985 668.384 70.992 670.977 Q70.4133 671.648 67.3115 674.866 Q64.2096 678.06 58.5615 683.824 Z" fill="#000000" fill-rule="nonzero" fill-opacity="1" /><path clip-path="url(#clip240)" d="M67.7513 339.465 Q71.1078 340.182 72.9827 342.451 Q74.8809 344.719 74.8809 348.052 Q74.8809 353.168 71.3624 355.969 Q67.8439 358.77 61.3624 358.77 Q59.1865 358.77 56.8717 358.33 Q54.5801 357.914 52.1264 357.057 L52.1264 352.543 Q54.0708 353.677 56.3856 354.256 Q58.7004 354.835 61.2236 354.835 Q65.6217 354.835 67.9133 353.099 Q70.2281 351.363 70.2281 348.052 Q70.2281 344.997 68.0754 343.284 Q65.9457 341.548 62.1263 341.548 L58.0986 341.548 L58.0986 337.705 L62.3115 337.705 Q65.7606 337.705 67.5893 336.34 Q69.418 334.951 69.418 332.358 Q69.418 329.696 67.5198 328.284 Q65.6448 326.849 62.1263 326.849 Q60.205 326.849 58.006 327.266 Q55.8069 327.682 53.168 328.562 L53.168 324.395 Q55.8301 323.654 58.1449 323.284 Q60.4828 322.914 62.543 322.914 Q67.867 322.914 70.9689 325.344 Q74.0707 327.752 74.0707 331.872 Q74.0707 334.742 72.4272 336.733 Q70.7837 338.701 67.7513 339.465 Z" fill="#000000" fill-rule="nonzero" fill-opacity="1" /><polyline clip-path="url(#clip241)" style="stroke:#009af9; stroke-linecap:round; stroke-linejoin:round; stroke-width:4; stroke-opacity:1; fill:none" points="110.881,218.917 112.662,162.895 114.442,126.498 116.223,104.529 118.004,92.3814 119.784,86.9865 121.565,86.1857 123.346,88.4171 125.126,92.5768 126.907,97.9106 128.688,103.916 130.468,110.263 132.249,116.736 134.03,123.199 135.81,129.563 137.591,135.775 139.372,141.804 141.152,147.63 142.933,153.248 144.714,158.655 146.494,163.851 148.275,168.843 150.056,173.636 151.837,178.236 153.617,182.651 155.398,186.889 157.179,190.957 158.959,194.862 160.74,198.612 162.521,202.212 164.301,205.669 166.082,208.99 167.863,212.181 169.643,215.248 171.424,218.194 173.205,221.027 174.985,223.749 176.766,226.367 178.547,228.885 180.327,231.307 182.108,233.636 183.889,235.877 185.669,238.033 187.45,240.107 189.231,242.103 191.011,244.024 192.792,245.873 194.573,247.653 196.353,249.366 198.134,251.015 199.915,252.602 201.696,254.131 203.476,255.603 205.257,257.021 207.038,258.386 208.818,259.7 210.599,260.966 212.38,262.185 214.16,263.359 215.941,264.49 217.722,265.58 219.502,266.63 221.283,267.64 223.064,268.614 224.844,269.552 226.625,270.456 228.406,271.326 230.186,272.165 231.967,272.974 233.748,273.753 235.528,274.503 237.309,275.226 239.09,275.922 240.87,276.593 242.651,277.24 244.432,277.863 246.213,278.463 247.993,279.042 249.774,279.6 251.555,280.137 253.335,280.655 255.116,281.154 256.897,281.635 258.677,282.098 260.458,282.545 262.239,282.975 264.019,283.39 265.8,283.79 267.581,284.175 269.361,284.547 271.142,284.904 272.923,285.249 274.703,285.582 276.484,285.902 278.265,286.21 280.045,286.508 281.826,286.795 283.607,287.072 285.387,287.338 287.168,287.595 288.949,287.843 290.729,288.081 292.51,288.311 294.291,288.533 296.072,288.746 297.852,288.952 299.633,289.151 301.414,289.342 303.194,289.526 304.975,289.704 306.756,289.876 308.536,290.041 310.317,290.2 312.098,290.353 313.878,290.501 315.659,290.643 317.44,290.781 319.22,290.913 321.001,291.041 322.782,291.164 324.562,291.283 326.343,291.397 328.124,291.508 329.904,291.614 331.685,291.716 333.466,291.815 335.246,291.91 337.027,292.002 338.808,292.09 340.588,292.175 342.369,292.258 344.15,292.337 345.931,292.413 347.711,292.487 349.492,292.558 351.273,292.626 353.053,292.692 354.834,292.755 356.615,292.817 358.395,292.876 360.176,292.933 361.957,292.988 363.737,293.041 365.518,293.092 367.299,293.141 369.079,293.188 370.86,293.234 372.641,293.278 374.421,293.32 376.202,293.361 377.983,293.4 379.763,293.439 381.544,293.475 383.325,293.511 385.105,293.545 386.886,293.578 388.667,293.609 390.448,293.64 392.228,293.669 394.009,293.697 395.79,293.725 397.57,293.751 399.351,293.776 401.132,293.801 402.912,293.825 404.693,293.847 406.474,293.869 408.254,293.89 410.035,293.911 411.816,293.93 413.596,293.949 415.377,293.967 417.158,293.985 418.938,294.002 420.719,294.018 422.5,294.034 424.28,294.049 426.061,294.064 427.842,294.078 429.622,294.092 431.403,294.105 433.184,294.117 434.964,294.13 436.745,294.141 438.526,294.153 440.307,294.164 442.087,294.174 443.868,294.184 445.649,294.194 447.429,294.204 449.21,294.213 450.991,294.222 452.771,294.23 454.552,294.238 456.333,294.246 458.113,294.253 459.894,294.261 461.675,294.268 463.455,294.275 465.236,294.281 467.017,294.288 468.797,294.294 470.578,294.299 472.359,294.305 474.139,294.31 475.92,294.316 477.701,294.321 479.481,294.326 481.262,294.33 483.043,294.335 484.824,294.339 486.604,294.344 488.385,294.348 490.166,294.351 491.946,294.355 493.727,294.359 495.508,294.362 497.288,294.366 499.069,294.369 500.85,294.372 502.63,294.375 504.411,294.378 506.192,294.381 507.972,294.384 509.753,294.386 511.534,294.389 513.314,294.391 515.095,294.393 516.876,294.396 518.656,294.398 520.437,294.4 522.218,294.402 523.998,294.404 525.779,294.406 527.56,294.408 529.34,294.41 531.121,294.411 532.902,294.413 534.683,294.414 536.463,294.416 538.244,294.417 540.025,294.419 541.805,294.42 543.586,294.421 545.367,294.423 547.147,294.424 548.928,294.425 550.709,294.426 552.489,294.427 554.27,294.428 556.051,294.429 557.831,294.43 559.612,294.431 561.393,294.432 563.173,294.433 564.954,294.434 566.735,294.435 568.515,294.435 570.296,294.436 572.077,294.437 573.857,294.438 575.638,294.438 577.419,294.439 579.199,294.439 580.98,294.44 582.761,294.441 584.542,294.441 586.322,294.442 588.103,294.442 589.884,294.443 591.664,294.443 593.445,294.444 595.226,294.444 597.006,294.445 598.787,294.445 600.568,294.445 602.348,294.446 604.129,294.446 605.91,294.447 607.69,294.447 609.471,294.447 611.252,294.448 613.032,294.448 614.813,294.448 616.594,294.448 618.374,294.449 620.155,294.449 621.936,294.449 623.716,294.45 625.497,294.45 627.278,294.45 629.059,294.45 630.839,294.45 632.62,294.451 634.401,294.451 636.181,294.451 637.962,294.451 639.743,294.451 641.523,294.452 643.304,294.452 645.085,294.452 646.865,294.452 648.646,294.452 650.427,294.452 652.207,294.453 653.988,294.453 655.769,294.453 657.549,294.453 659.33,294.453 661.111,294.453 662.891,294.453 664.672,294.453 666.453,294.453 668.233,294.454 670.014,294.454 671.795,294.454 673.575,294.454 675.356,294.454 677.137,294.454 678.918,294.454 680.698,294.454 682.479,294.454 684.26,294.454 686.04,294.454 687.821,294.454 689.602,294.455 691.382,294.455 693.163,294.455 694.944,294.455 696.724,294.455 698.505,294.455 700.286,294.455 702.066,294.455 703.847,294.455 705.628,294.455 707.408,294.455 709.189,294.455 710.97,294.455 712.75,294.455 714.531,294.455 716.312,294.455 718.092,294.455 719.873,294.455 721.654,294.455 723.435,294.455 725.215,294.455 726.996,294.455 728.777,294.455 730.557,294.456 732.338,294.456 734.119,294.456 735.899,294.456 737.68,294.456 739.461,294.456 741.241,294.456 743.022,294.456 744.803,294.456 746.583,294.456 748.364,294.456 750.145,294.456 751.925,294.456 753.706,294.456 755.487,294.456 757.267,294.456 759.048,294.456 760.829,294.456 762.609,294.456 764.39,294.456 766.171,294.456 767.951,294.456 769.732,294.456 771.513,294.456 773.294,294.456 775.074,294.456 776.855,294.456 778.636,294.456 780.416,294.456 782.197,294.456 783.978,294.456 785.758,294.456 787.539,294.456 789.32,294.456 791.1,294.456 792.881,294.456 794.662,294.456 796.442,294.456 798.223,294.456 800.004,294.456 801.784,294.456 803.565,294.456 805.346,294.456 807.126,294.456 808.907,294.456 810.688,294.456 812.468,294.456 814.249,294.456 816.03,294.456 817.81,294.456 819.591,294.456 821.372,294.456 823.153,294.456 824.933,294.456 826.714,294.456 828.495,294.456 830.275,294.456 832.056,294.456 833.837,294.456 835.617,294.456 837.398,294.456 839.179,294.456 840.959,294.456 842.74,294.456 844.521,294.456 846.301,294.456 848.082,294.456 849.863,294.456 851.643,294.456 853.424,294.456 855.205,294.456 856.985,294.456 858.766,294.456 860.547,294.456 862.327,294.456 864.108,294.456 865.889,294.456 867.67,294.456 869.45,294.456 871.231,294.456 873.012,294.456 874.792,294.456 876.573,294.456 878.354,294.456 880.134,294.456 881.915,294.456 883.696,294.456 885.476,294.456 887.257,294.456 889.038,294.456 890.818,294.456 892.599,294.456 894.38,294.456 896.16,294.456 897.941,294.456 899.722,294.456 901.502,294.456 903.283,294.456 905.064,294.456 906.844,294.456 908.625,294.456 910.406,294.456 912.186,294.456 913.967,294.456 915.748,294.456 917.529,294.456 919.309,294.456 921.09,294.456 922.871,294.456 924.651,294.456 926.432,294.456 928.213,294.456 929.993,294.456 931.774,294.456 933.555,294.456 935.335,294.456 937.116,294.456 938.897,294.456 940.677,294.456 942.458,294.456 944.239,294.456 946.019,294.456 947.8,294.456 949.581,294.456 951.361,294.456 953.142,294.456 954.923,294.456 956.703,294.456 958.484,294.456 960.265,294.456 962.046,294.456 963.826,294.456 965.607,294.456 967.388,294.456 969.168,294.456 970.949,294.456 972.73,294.456 974.51,294.456 976.291,294.456 978.072,294.456 979.852,294.456 981.633,294.456 983.414,294.456 985.194,294.456 986.975,294.456 988.756,294.456 990.536,294.456 992.317,294.456 994.098,294.456 995.878,294.456 997.659,294.456 999.44,294.456 1001.22,294.456 1003,294.456 1004.78,294.456 1006.56,294.456 1008.34,294.456 1010.12,294.456 1011.9,294.456 1013.69,294.456 1015.47,294.456 1017.25,294.456 1019.03,294.456 1020.81,294.456 1022.59,294.456 1024.37,294.456 1026.15,294.456 1027.93,294.456 1029.71,294.456 1031.49,294.456 1033.27,294.456 1035.05,294.456 1036.83,294.456 1038.61,294.456 1040.4,294.456 1042.18,294.456 1043.96,294.456 1045.74,294.456 1047.52,294.456 1049.3,294.456 1051.08,294.456 1052.86,294.456 1054.64,294.456 1056.42,294.456 1058.2,294.456 1059.98,294.456 1061.76,294.456 1063.54,294.456 1065.32,294.456 1067.11,294.456 1068.89,294.456 1070.67,294.456 1072.45,294.456 1074.23,294.456 1076.01,294.456 1077.79,294.456 1079.57,294.456 1081.35,294.456 1083.13,294.456 1084.91,294.456 1086.69,294.456 1088.47,294.456 1090.25,294.456 1092.04,294.456 1093.82,294.456 1095.6,294.456 1097.38,294.456 1099.16,294.456 1100.94,294.456 1102.72,294.456 1104.5,294.456 1106.28,294.456 1108.06,294.456 1109.84,294.456 1111.62,294.456 1113.4,294.456 1115.18,294.456 1116.96,294.456 1118.75,294.456 1120.53,294.456 1122.31,294.456 1124.09,294.456 1125.87,294.456 1127.65,294.456 1129.43,294.456 1131.21,294.456 1132.99,294.456 1134.77,294.456 1136.55,294.456 1138.33,294.456 1140.11,294.456 1141.89,294.456 1143.67,294.456 1145.46,294.456 1147.24,294.456 1149.02,294.456 1150.8,294.456 1152.58,294.456 1154.36,294.456 1156.14,294.456 1157.92,294.456 1159.7,294.456 1161.48,294.456 1163.26,294.456 1165.04,294.456 1166.82,294.456 1168.6,294.456 1170.38,294.456 1172.17,294.456 1173.95,294.456 1175.73,294.456 1177.51,294.456 1179.29,294.456 1181.07,294.456 1182.85,294.456 1184.63,294.456 1186.41,294.456 1188.19,294.456 1189.97,294.456 1191.75,294.456 1193.53,294.456 1195.31,294.456 1197.1,294.456 1198.88,294.456 1200.66,294.456 1202.44,294.456 1204.22,294.456 1206,294.456 1207.78,294.456 1209.56,294.456 1211.34,294.456 1213.12,294.456 1214.9,294.456 1216.68,294.456 1218.46,294.456 1220.24,294.456 1222.02,294.456 1223.81,294.456 1225.59,294.456 1227.37,294.456 1229.15,294.456 1230.93,294.456 1232.71,294.456 1234.49,294.456 1236.27,294.456 1238.05,294.456 1239.83,294.456 1241.61,294.456 1243.39,294.456 1245.17,294.456 1246.95,294.456 1248.73,294.456 1250.52,294.456 1252.3,294.456 1254.08,294.456 1255.86,294.456 1257.64,294.456 1259.42,294.456 1261.2,294.456 1262.98,294.456 1264.76,294.456 1266.54,294.456 1268.32,294.456 1270.1,294.456 1271.88,294.456 1273.66,294.456 1275.45,294.456 1277.23,294.456 1279.01,294.456 1280.79,294.456 1282.57,294.456 1284.35,294.456 1286.13,294.456 1287.91,294.456 1289.69,294.456 1291.47,294.456 1293.25,294.456 1295.03,294.456 1296.81,294.456 1298.59,294.456 1300.37,294.456 1302.16,294.456 1303.94,294.456 1305.72,294.456 1307.5,294.456 1309.28,294.456 1311.06,294.456 1312.84,294.456 1314.62,294.456 1316.4,294.456 1318.18,294.456 1319.96,294.456 1321.74,294.456 1323.52,294.456 1325.3,294.456 1327.08,294.456 1328.87,294.456 1330.65,294.456 1332.43,294.456 1334.21,294.456 1335.99,294.456 1337.77,294.456 1339.55,294.456 1341.33,294.456 1343.11,294.456 1344.89,294.456 1346.67,294.456 1348.45,294.456 1350.23,294.456 1352.01,294.456 1353.79,294.456 1355.58,294.456 1357.36,294.456 1359.14,294.456 1360.92,294.456 1362.7,294.456 1364.48,294.456 1366.26,294.456 1368.04,294.456 1369.82,294.456 1371.6,294.456 1373.38,294.456 1375.16,294.456 1376.94,294.456 1378.72,294.456 1380.51,294.456 1382.29,294.456 1384.07,294.456 1385.85,294.456 1387.63,294.456 1389.41,294.456 1391.19,294.456 1392.97,294.456 1394.75,294.456 1396.53,294.456 1398.31,294.456 1400.09,294.456 1401.87,294.456 1403.65,294.456 1405.43,294.456 1407.22,294.456 1409,294.456 1410.78,294.456 1412.56,294.456 1414.34,294.456 1416.12,294.456 1417.9,294.456 1419.68,294.456 1421.46,294.456 1423.24,294.456 1425.02,294.456 1426.8,294.456 1428.58,294.456 1430.36,294.456 1432.14,294.456 1433.93,294.456 1435.71,294.456 1437.49,294.456 1439.27,294.456 1441.05,294.456 1442.83,294.456 1444.61,294.456 1446.39,294.456 1448.17,294.456 1449.95,294.456 1451.73,294.456 1453.51,294.456 1455.29,294.456 1457.07,294.456 1458.85,294.456 1460.64,294.456 1462.42,294.456 1464.2,294.456 1465.98,294.456 1467.76,294.456 1469.54,294.456 1471.32,294.456 1473.1,294.456 1474.88,294.456 1476.66,294.456 1478.44,294.456 1480.22,294.456 1482,294.456 1483.78,294.456 1485.57,294.456 1487.35,294.456 1489.13,294.456 1490.91,294.456 1492.69,294.456 1494.47,294.456 1496.25,294.456 1498.03,294.456 1499.81,294.456 1501.59,294.456 1503.37,294.456 1505.15,294.456 1506.93,294.456 1508.71,294.456 1510.49,294.456 1512.28,294.456 1514.06,294.456 1515.84,294.456 1517.62,294.456 1519.4,294.456 1521.18,294.456 1522.96,294.456 1524.74,294.456 1526.52,294.456 1528.3,294.456 1530.08,294.456 1531.86,294.456 1533.64,294.456 1535.42,294.456 1537.2,294.456 1538.99,294.456 1540.77,294.456 1542.55,294.456 1544.33,294.456 1546.11,294.456 1547.89,294.456 1549.67,294.456 1551.45,294.456 1553.23,294.456 1555.01,294.456 1556.79,294.456 1558.57,294.456 1560.35,294.456 1562.13,294.456 1563.92,294.456 1565.7,294.456 1567.48,294.456 1569.26,294.456 1571.04,294.456 1572.82,294.456 1574.6,294.456 1576.38,294.456 1578.16,294.456 1579.94,294.456 1581.72,294.456 1583.5,294.456 1585.28,294.456 1587.06,294.456 1588.84,294.456 1590.63,294.456 1592.41,294.456 1594.19,294.456 1595.97,294.456 1597.75,294.456 1599.53,294.456 1601.31,294.456 1603.09,294.456 1604.87,294.456 1606.65,294.456 1608.43,294.456 1610.21,294.456 1611.99,294.456 1613.77,294.456 1615.55,294.456 1617.34,294.456 1619.12,294.456 1620.9,294.456 1622.68,294.456 1624.46,294.456 1626.24,294.456 1628.02,294.456 1629.8,294.456 1631.58,294.456 1633.36,294.456 1635.14,294.456 1636.92,294.456 1638.7,294.456 1640.48,294.456 1642.26,294.456 1644.05,294.456 1645.83,294.456 1647.61,294.456 1649.39,294.456 1651.17,294.456 1652.95,294.456 1654.73,294.456 1656.51,294.456 1658.29,294.456 1660.07,294.456 1661.85,294.456 1663.63,294.456 1665.41,294.456 1667.19,294.456 1668.98,294.456 1670.76,294.456 1672.54,294.456 1674.32,294.456 1676.1,294.456 1677.88,294.456 1679.66,294.456 1681.44,294.456 1683.22,294.456 1685,294.456 1686.78,294.456 1688.56,294.456 1690.34,294.456 1692.12,294.456 1693.9,294.456 1695.69,294.456 1697.47,294.456 1699.25,294.456 1701.03,294.456 1702.81,294.456 1704.59,294.456 1706.37,294.456 1708.15,294.456 1709.93,294.456 1711.71,294.456 1713.49,294.456 1715.27,294.456 1717.05,294.456 1718.83,294.456 1720.61,294.456 1722.4,294.456 1724.18,294.456 1725.96,294.456 1727.74,294.456 1729.52,294.456 1731.3,294.456 1733.08,294.456 1734.86,294.456 1736.64,294.456 1738.42,294.456 1740.2,294.456 1741.98,294.456 1743.76,294.456 1745.54,294.456 1747.33,294.456 1749.11,294.456 1750.89,294.456 1752.67,294.456 1754.45,294.456 1756.23,294.456 1758.01,294.456 1759.79,294.456 1761.57,294.456 1763.35,294.456 1765.13,294.456 1766.91,294.456 1768.69,294.456 1770.47,294.456 1772.25,294.456 1774.04,294.456 1775.82,294.456 1777.6,294.456 1779.38,294.456 1781.16,294.456 1782.94,294.456 1784.72,294.456 1786.5,294.456 1788.28,294.456 1790.06,294.456 1791.84,294.456 1793.62,294.456 1795.4,294.456 1797.18,294.456 1798.96,294.456 1800.75,294.456 1802.53,294.456 1804.31,294.456 1806.09,294.456 1807.87,294.456 1809.65,294.456 1811.43,294.456 1813.21,294.456 1814.99,294.456 1816.77,294.456 1818.55,294.456 1820.33,294.456 1822.11,294.456 1823.89,294.456 1825.67,294.456 1827.46,294.456 1829.24,294.456 1831.02,294.456 1832.8,294.456 1834.58,294.456 1836.36,294.456 1838.14,294.456 1839.92,294.456 1841.7,294.456 1843.48,294.456 1845.26,294.456 1847.04,294.456 1848.82,294.456 1850.6,294.456 1852.39,294.456 1854.17,294.456 1855.95,294.456 1857.73,294.456 1859.51,294.456 1861.29,294.456 1863.07,294.456 1864.85,294.456 1866.63,294.456 1868.41,294.456 1870.19,294.456 1871.97,294.456 1873.75,294.456 1875.53,294.456 1877.31,294.456 1879.1,294.456 1880.88,294.456 1882.66,294.456 1884.44,294.456 1886.22,294.456 1888,294.456 1889.78,294.456 1891.56,294.456 1893.34,294.456 1895.12,294.456 1896.9,294.456 1898.68,294.456 1900.46,294.456 1902.24,294.456 1904.02,294.456 1905.81,294.456 1907.59,294.456 1909.37,294.456 1911.15,294.456 1912.93,294.456 1914.71,294.456 1916.49,294.456 1918.27,294.456 1920.05,294.456 1921.83,294.456 1923.61,294.456 1925.39,294.456 1927.17,294.456 1928.95,294.456 1930.73,294.456 1932.52,294.456 1934.3,294.456 1936.08,294.456 1937.86,294.456 1939.64,294.456 1941.42,294.456 1943.2,294.456 1944.98,294.456 1946.76,294.456 1948.54,294.456 1950.32,294.456 1952.1,294.456 1953.88,294.456 1955.66,294.456 1957.45,294.456 1959.23,294.456 1961.01,294.456 1962.79,294.456 1964.57,294.456 1966.35,294.456 1968.13,294.456 1969.91,294.456 1971.69,294.456 1973.47,294.456 1975.25,294.456 1977.03,294.456 1978.81,294.456 1980.59,294.456 1982.37,294.456 1984.16,294.456 1985.94,294.456 1987.72,294.456 1989.5,294.456 1991.28,294.456 1993.06,294.456 1994.84,294.456 1996.62,294.456 1998.4,294.456 2000.18,294.456 2001.96,294.456 2003.74,294.456 2005.52,294.456 2007.3,294.456 2009.08,294.456 2010.87,294.456 2012.65,294.456 2014.43,294.456 2016.21,294.456 2017.99,294.456 2019.77,294.456 2021.55,294.456 2023.33,294.456 2025.11,294.456 2026.89,294.456 2028.67,294.456 2030.45,294.456 2032.23,294.456 2034.01,294.456 2035.8,294.456 2037.58,294.456 2039.36,294.456 2041.14,294.456 2042.92,294.456 2044.7,294.456 2046.48,294.456 2048.26,294.456 2050.04,294.456 2051.82,294.456 2053.6,294.456 2055.38,294.456 2057.16,294.456 2058.94,294.456 2060.72,294.456 2062.51,294.456 2064.29,294.456 2066.07,294.456 2067.85,294.456 2069.63,294.456 2071.41,294.456 2073.19,294.456 2074.97,294.456 2076.75,294.456 2078.53,294.456 2080.31,294.456 2082.09,294.456 2083.87,294.456 2085.65,294.456 2087.43,294.456 2089.22,294.456 2091,294.456 2092.78,294.456 2094.56,294.456 2096.34,294.456 2098.12,294.456 2099.9,294.456 2101.68,294.456 2103.46,294.456 2105.24,294.456 2107.02,294.456 2108.8,294.456 2110.58,294.456 2112.36,294.456 2114.14,294.456 2115.93,294.456 2117.71,294.456 2119.49,294.456 2121.27,294.456 2123.05,294.456 2124.83,294.456 2126.61,294.456 2128.39,294.456 2130.17,294.456 2131.95,294.456 2133.73,294.456 2135.51,294.456 2137.29,294.456 2139.07,294.456 2140.86,294.456 2142.64,294.456 2144.42,294.456 2146.2,294.456 2147.98,294.456 2149.76,294.456 2151.54,294.456 2153.32,294.456 2155.1,294.456 2156.88,294.456 2158.66,294.456 2160.44,294.456 2162.22,294.456 2164,294.456 2165.78,294.456 2167.57,294.456 2169.35,294.456 2171.13,294.456 2172.91,294.456 2174.69,294.456 2176.47,294.456 2178.25,294.456 2180.03,294.456 2181.81,294.456 2183.59,294.456 2185.37,294.456 2187.15,294.456 2188.93,294.456 2190.71,294.456 2192.49,294.456 2194.28,294.456 2196.06,294.456 2197.84,294.456 2199.62,294.456 2201.4,294.456 2203.18,294.456 2204.96,294.456 2206.74,294.456 2208.52,294.456 2210.3,294.456 2212.08,294.456 2213.86,294.456 2215.64,294.456 2217.42,294.456 2219.2,294.456 2220.99,294.456 2222.77,294.456 2224.55,294.456 2226.33,294.456 2228.11,294.456 2229.89,294.456 2231.67,294.456 2233.45,294.456 2235.23,294.456 2237.01,294.456 2238.79,294.456 2240.57,294.456 2242.35,294.456 2244.13,294.456 2245.92,294.456 2247.7,294.456 2249.48,294.456 2251.26,294.456 2253.04,294.456 2254.82,294.456 2256.6,294.456 2258.38,294.456 2260.16,294.456 2261.94,294.456 2263.72,294.456 2265.5,294.456 2267.28,294.456 2269.06,294.456 2270.84,294.456 2272.63,294.456 2274.41,294.456 2276.19,294.456 2277.97,294.456 2279.75,294.456 2281.53,294.456 2283.31,294.456 2285.09,294.456 2286.87,294.456 2288.65,294.456 2290.43,294.456 2292.21,294.456 2293.99,294.456 2295.77,294.456 2297.55,294.456 2299.34,294.456 2301.12,294.456 2302.9,294.456 2304.68,294.456 2306.46,294.456 2308.24,294.456 2310.02,294.456 2311.8,294.456 2313.58,294.456 2315.36,294.456 2317.14,294.456 2318.92,294.456 2320.7,294.456 2322.48,294.456 2324.27,294.456 2326.05,294.456 2327.83,294.456 2329.61,294.456 2331.39,294.456 2333.17,294.456 2334.95,294.456 2336.73,294.456 2338.51,294.456 2340.29,294.456 2342.07,294.456 2343.85,294.456 2345.63,294.456 2347.41,294.456 2349.19,294.456 2350.98,294.456 2352.76,294.456 "/>
<polyline clip-path="url(#clip241)" style="stroke:#e26f46; stroke-linecap:round; stroke-linejoin:round; stroke-width:4; stroke-opacity:1; fill:none" points="110.881,764.822 112.662,948.486 114.442,1092.5 116.223,1191.81 118.004,1259.69 119.784,1306.36 121.565,1337.64 123.346,1357.89 125.126,1370.5 126.907,1377.95 128.688,1382.01 130.468,1383.84 132.249,1384.24 134.03,1383.72 135.81,1382.64 137.591,1381.2 139.372,1379.57 141.152,1377.84 142.933,1376.06 144.714,1374.29 146.494,1372.55 148.275,1370.85 150.056,1369.21 151.837,1367.63 153.617,1366.1 155.398,1364.65 157.179,1363.25 158.959,1361.91 160.74,1360.63 162.521,1359.41 164.301,1358.24 166.082,1357.12 167.863,1356.05 169.643,1355.03 171.424,1354.05 173.205,1353.11 174.985,1352.21 176.766,1351.35 178.547,1350.52 180.327,1349.73 182.108,1348.97 183.889,1348.25 185.669,1347.55 187.45,1346.88 189.231,1346.23 191.011,1345.62 192.792,1345.02 194.573,1344.45 196.353,1343.91 198.134,1343.38 199.915,1342.88 201.696,1342.39 203.476,1341.92 205.257,1341.47 207.038,1341.04 208.818,1340.63 210.599,1340.23 212.38,1339.84 214.16,1339.47 215.941,1339.12 217.722,1338.77 219.502,1338.44 221.283,1338.13 223.064,1337.82 224.844,1337.53 226.625,1337.25 228.406,1336.97 230.186,1336.71 231.967,1336.46 233.748,1336.21 235.528,1335.98 237.309,1335.75 239.09,1335.54 240.87,1335.33 242.651,1335.13 244.432,1334.93 246.213,1334.75 247.993,1334.57 249.774,1334.39 251.555,1334.23 253.335,1334.07 255.116,1333.91 256.897,1333.76 258.677,1333.62 260.458,1333.48 262.239,1333.35 264.019,1333.22 265.8,1333.09 267.581,1332.97 269.361,1332.86 271.142,1332.75 272.923,1332.64 274.703,1332.54 276.484,1332.44 278.265,1332.34 280.045,1332.25 281.826,1332.16 283.607,1332.08 285.387,1332 287.168,1331.92 288.949,1331.84 290.729,1331.77 292.51,1331.69 294.291,1331.63 296.072,1331.56 297.852,1331.5 299.633,1331.44 301.414,1331.38 303.194,1331.32 304.975,1331.26 306.756,1331.21 308.536,1331.16 310.317,1331.11 312.098,1331.06 313.878,1331.02 315.659,1330.97 317.44,1330.93 319.22,1330.89 321.001,1330.85 322.782,1330.81 324.562,1330.78 326.343,1330.74 328.124,1330.71 329.904,1330.68 331.685,1330.64 333.466,1330.61 335.246,1330.58 337.027,1330.56 338.808,1330.53 340.588,1330.5 342.369,1330.48 344.15,1330.45 345.931,1330.43 347.711,1330.41 349.492,1330.38 351.273,1330.36 353.053,1330.34 354.834,1330.32 356.615,1330.3 358.395,1330.29 360.176,1330.27 361.957,1330.25 363.737,1330.24 365.518,1330.22 367.299,1330.2 369.079,1330.19 370.86,1330.18 372.641,1330.16 374.421,1330.15 376.202,1330.14 377.983,1330.13 379.763,1330.11 381.544,1330.1 383.325,1330.09 385.105,1330.08 386.886,1330.07 388.667,1330.06 390.448,1330.05 392.228,1330.04 394.009,1330.03 395.79,1330.03 397.57,1330.02 399.351,1330.01 401.132,1330 402.912,1329.99 404.693,1329.99 406.474,1329.98 408.254,1329.97 410.035,1329.97 411.816,1329.96 413.596,1329.96 415.377,1329.95 417.158,1329.95 418.938,1329.94 420.719,1329.93 422.5,1329.93 424.28,1329.92 426.061,1329.92 427.842,1329.92 429.622,1329.91 431.403,1329.91 433.184,1329.9 434.964,1329.9 436.745,1329.9 438.526,1329.89 440.307,1329.89 442.087,1329.89 443.868,1329.88 445.649,1329.88 447.429,1329.88 449.21,1329.87 450.991,1329.87 452.771,1329.87 454.552,1329.87 456.333,1329.86 458.113,1329.86 459.894,1329.86 461.675,1329.86 463.455,1329.86 465.236,1329.85 467.017,1329.85 468.797,1329.85 470.578,1329.85 472.359,1329.85 474.139,1329.84 475.92,1329.84 477.701,1329.84 479.481,1329.84 481.262,1329.84 483.043,1329.84 484.824,1329.84 486.604,1329.83 488.385,1329.83 490.166,1329.83 491.946,1329.83 493.727,1329.83 495.508,1329.83 497.288,1329.83 499.069,1329.83 500.85,1329.83 502.63,1329.82 504.411,1329.82 506.192,1329.82 507.972,1329.82 509.753,1329.82 511.534,1329.82 513.314,1329.82 515.095,1329.82 516.876,1329.82 518.656,1329.82 520.437,1329.82 522.218,1329.82 523.998,1329.82 525.779,1329.82 527.56,1329.81 529.34,1329.81 531.121,1329.81 532.902,1329.81 534.683,1329.81 536.463,1329.81 538.244,1329.81 540.025,1329.81 541.805,1329.81 543.586,1329.81 545.367,1329.81 547.147,1329.81 548.928,1329.81 550.709,1329.81 552.489,1329.81 554.27,1329.81 556.051,1329.81 557.831,1329.81 559.612,1329.81 561.393,1329.81 563.173,1329.81 564.954,1329.81 566.735,1329.81 568.515,1329.81 570.296,1329.81 572.077,1329.81 573.857,1329.81 575.638,1329.81 577.419,1329.81 579.199,1329.81 580.98,1329.8 582.761,1329.8 584.542,1329.8 586.322,1329.8 588.103,1329.8 589.884,1329.8 591.664,1329.8 593.445,1329.8 595.226,1329.8 597.006,1329.8 598.787,1329.8 600.568,1329.8 602.348,1329.8 604.129,1329.8 605.91,1329.8 607.69,1329.8 609.471,1329.8 611.252,1329.8 613.032,1329.8 614.813,1329.8 616.594,1329.8 618.374,1329.8 620.155,1329.8 621.936,1329.8 623.716,1329.8 625.497,1329.8 627.278,1329.8 629.059,1329.8 630.839,1329.8 632.62,1329.8 634.401,1329.8 636.181,1329.8 637.962,1329.8 639.743,1329.8 641.523,1329.8 643.304,1329.8 645.085,1329.8 646.865,1329.8 648.646,1329.8 650.427,1329.8 652.207,1329.8 653.988,1329.8 655.769,1329.8 657.549,1329.8 659.33,1329.8 661.111,1329.8 662.891,1329.8 664.672,1329.8 666.453,1329.8 668.233,1329.8 670.014,1329.8 671.795,1329.8 673.575,1329.8 675.356,1329.8 677.137,1329.8 678.918,1329.8 680.698,1329.8 682.479,1329.8 684.26,1329.8 686.04,1329.8 687.821,1329.8 689.602,1329.8 691.382,1329.8 693.163,1329.8 694.944,1329.8 696.724,1329.8 698.505,1329.8 700.286,1329.8 702.066,1329.8 703.847,1329.8 705.628,1329.8 707.408,1329.8 709.189,1329.8 710.97,1329.8 712.75,1329.8 714.531,1329.8 716.312,1329.8 718.092,1329.8 719.873,1329.8 721.654,1329.8 723.435,1329.8 725.215,1329.8 726.996,1329.8 728.777,1329.8 730.557,1329.8 732.338,1329.8 734.119,1329.8 735.899,1329.8 737.68,1329.8 739.461,1329.8 741.241,1329.8 743.022,1329.8 744.803,1329.8 746.583,1329.8 748.364,1329.8 750.145,1329.8 751.925,1329.8 753.706,1329.8 755.487,1329.8 757.267,1329.8 759.048,1329.8 760.829,1329.8 762.609,1329.8 764.39,1329.8 766.171,1329.8 767.951,1329.8 769.732,1329.8 771.513,1329.8 773.294,1329.8 775.074,1329.8 776.855,1329.8 778.636,1329.8 780.416,1329.8 782.197,1329.8 783.978,1329.8 785.758,1329.8 787.539,1329.8 789.32,1329.8 791.1,1329.8 792.881,1329.8 794.662,1329.8 796.442,1329.8 798.223,1329.8 800.004,1329.8 801.784,1329.8 803.565,1329.8 805.346,1329.8 807.126,1329.8 808.907,1329.8 810.688,1329.8 812.468,1329.8 814.249,1329.8 816.03,1329.8 817.81,1329.8 819.591,1329.8 821.372,1329.8 823.153,1329.8 824.933,1329.8 826.714,1329.8 828.495,1329.8 830.275,1329.8 832.056,1329.8 833.837,1329.8 835.617,1329.8 837.398,1329.8 839.179,1329.8 840.959,1329.8 842.74,1329.8 844.521,1329.8 846.301,1329.8 848.082,1329.8 849.863,1329.8 851.643,1329.8 853.424,1329.8 855.205,1329.8 856.985,1329.8 858.766,1329.8 860.547,1329.8 862.327,1329.8 864.108,1329.8 865.889,1329.8 867.67,1329.8 869.45,1329.8 871.231,1329.8 873.012,1329.8 874.792,1329.8 876.573,1329.8 878.354,1329.8 880.134,1329.8 881.915,1329.8 883.696,1329.8 885.476,1329.8 887.257,1329.8 889.038,1329.8 890.818,1329.8 892.599,1329.8 894.38,1329.8 896.16,1329.8 897.941,1329.8 899.722,1329.8 901.502,1329.8 903.283,1329.8 905.064,1329.8 906.844,1329.8 908.625,1329.8 910.406,1329.8 912.186,1329.8 913.967,1329.8 915.748,1329.8 917.529,1329.8 919.309,1329.8 921.09,1329.8 922.871,1329.8 924.651,1329.8 926.432,1329.8 928.213,1329.8 929.993,1329.8 931.774,1329.8 933.555,1329.8 935.335,1329.8 937.116,1329.8 938.897,1329.8 940.677,1329.8 942.458,1329.8 944.239,1329.8 946.019,1329.8 947.8,1329.8 949.581,1329.8 951.361,1329.8 953.142,1329.8 954.923,1329.8 956.703,1329.8 958.484,1329.8 960.265,1329.8 962.046,1329.8 963.826,1329.8 965.607,1329.8 967.388,1329.8 969.168,1329.8 970.949,1329.8 972.73,1329.8 974.51,1329.8 976.291,1329.8 978.072,1329.8 979.852,1329.8 981.633,1329.8 983.414,1329.8 985.194,1329.8 986.975,1329.8 988.756,1329.8 990.536,1329.8 992.317,1329.8 994.098,1329.8 995.878,1329.8 997.659,1329.8 999.44,1329.8 1001.22,1329.8 1003,1329.8 1004.78,1329.8 1006.56,1329.8 1008.34,1329.8 1010.12,1329.8 1011.9,1329.8 1013.69,1329.8 1015.47,1329.8 1017.25,1329.8 1019.03,1329.8 1020.81,1329.8 1022.59,1329.8 1024.37,1329.8 1026.15,1329.8 1027.93,1329.8 1029.71,1329.8 1031.49,1329.8 1033.27,1329.8 1035.05,1329.8 1036.83,1329.8 1038.61,1329.8 1040.4,1329.8 1042.18,1329.8 1043.96,1329.8 1045.74,1329.8 1047.52,1329.8 1049.3,1329.8 1051.08,1329.8 1052.86,1329.8 1054.64,1329.8 1056.42,1329.8 1058.2,1329.8 1059.98,1329.8 1061.76,1329.8 1063.54,1329.8 1065.32,1329.8 1067.11,1329.8 1068.89,1329.8 1070.67,1329.8 1072.45,1329.8 1074.23,1329.8 1076.01,1329.8 1077.79,1329.8 1079.57,1329.8 1081.35,1329.8 1083.13,1329.8 1084.91,1329.8 1086.69,1329.8 1088.47,1329.8 1090.25,1329.8 1092.04,1329.8 1093.82,1329.8 1095.6,1329.8 1097.38,1329.8 1099.16,1329.8 1100.94,1329.8 1102.72,1329.8 1104.5,1329.8 1106.28,1329.8 1108.06,1329.8 1109.84,1329.8 1111.62,1329.8 1113.4,1329.8 1115.18,1329.8 1116.96,1329.8 1118.75,1329.8 1120.53,1329.8 1122.31,1329.8 1124.09,1329.8 1125.87,1329.8 1127.65,1329.8 1129.43,1329.8 1131.21,1329.8 1132.99,1329.8 1134.77,1329.8 1136.55,1329.8 1138.33,1329.8 1140.11,1329.8 1141.89,1329.8 1143.67,1329.8 1145.46,1329.8 1147.24,1329.8 1149.02,1329.8 1150.8,1329.8 1152.58,1329.8 1154.36,1329.8 1156.14,1329.8 1157.92,1329.8 1159.7,1329.8 1161.48,1329.8 1163.26,1329.8 1165.04,1329.8 1166.82,1329.8 1168.6,1329.8 1170.38,1329.8 1172.17,1329.8 1173.95,1329.8 1175.73,1329.8 1177.51,1329.8 1179.29,1329.8 1181.07,1329.8 1182.85,1329.8 1184.63,1329.8 1186.41,1329.8 1188.19,1329.8 1189.97,1329.8 1191.75,1329.8 1193.53,1329.8 1195.31,1329.8 1197.1,1329.8 1198.88,1329.8 1200.66,1329.8 1202.44,1329.8 1204.22,1329.8 1206,1329.8 1207.78,1329.8 1209.56,1329.8 1211.34,1329.8 1213.12,1329.8 1214.9,1329.8 1216.68,1329.8 1218.46,1329.8 1220.24,1329.8 1222.02,1329.8 1223.81,1329.8 1225.59,1329.8 1227.37,1329.8 1229.15,1329.8 1230.93,1329.8 1232.71,1329.8 1234.49,1329.8 1236.27,1329.8 1238.05,1329.8 1239.83,1329.8 1241.61,1329.8 1243.39,1329.8 1245.17,1329.8 1246.95,1329.8 1248.73,1329.8 1250.52,1329.8 1252.3,1329.8 1254.08,1329.8 1255.86,1329.8 1257.64,1329.8 1259.42,1329.8 1261.2,1329.8 1262.98,1329.8 1264.76,1329.8 1266.54,1329.8 1268.32,1329.8 1270.1,1329.8 1271.88,1329.8 1273.66,1329.8 1275.45,1329.8 1277.23,1329.8 1279.01,1329.8 1280.79,1329.8 1282.57,1329.8 1284.35,1329.8 1286.13,1329.8 1287.91,1329.8 1289.69,1329.8 1291.47,1329.8 1293.25,1329.8 1295.03,1329.8 1296.81,1329.8 1298.59,1329.8 1300.37,1329.8 1302.16,1329.8 1303.94,1329.8 1305.72,1329.8 1307.5,1329.8 1309.28,1329.8 1311.06,1329.8 1312.84,1329.8 1314.62,1329.8 1316.4,1329.8 1318.18,1329.8 1319.96,1329.8 1321.74,1329.8 1323.52,1329.8 1325.3,1329.8 1327.08,1329.8 1328.87,1329.8 1330.65,1329.8 1332.43,1329.8 1334.21,1329.8 1335.99,1329.8 1337.77,1329.8 1339.55,1329.8 1341.33,1329.8 1343.11,1329.8 1344.89,1329.8 1346.67,1329.8 1348.45,1329.8 1350.23,1329.8 1352.01,1329.8 1353.79,1329.8 1355.58,1329.8 1357.36,1329.8 1359.14,1329.8 1360.92,1329.8 1362.7,1329.8 1364.48,1329.8 1366.26,1329.8 1368.04,1329.8 1369.82,1329.8 1371.6,1329.8 1373.38,1329.8 1375.16,1329.8 1376.94,1329.8 1378.72,1329.8 1380.51,1329.8 1382.29,1329.8 1384.07,1329.8 1385.85,1329.8 1387.63,1329.8 1389.41,1329.8 1391.19,1329.8 1392.97,1329.8 1394.75,1329.8 1396.53,1329.8 1398.31,1329.8 1400.09,1329.8 1401.87,1329.8 1403.65,1329.8 1405.43,1329.8 1407.22,1329.8 1409,1329.8 1410.78,1329.8 1412.56,1329.8 1414.34,1329.8 1416.12,1329.8 1417.9,1329.8 1419.68,1329.8 1421.46,1329.8 1423.24,1329.8 1425.02,1329.8 1426.8,1329.8 1428.58,1329.8 1430.36,1329.8 1432.14,1329.8 1433.93,1329.8 1435.71,1329.8 1437.49,1329.8 1439.27,1329.8 1441.05,1329.8 1442.83,1329.8 1444.61,1329.8 1446.39,1329.8 1448.17,1329.8 1449.95,1329.8 1451.73,1329.8 1453.51,1329.8 1455.29,1329.8 1457.07,1329.8 1458.85,1329.8 1460.64,1329.8 1462.42,1329.8 1464.2,1329.8 1465.98,1329.8 1467.76,1329.8 1469.54,1329.8 1471.32,1329.8 1473.1,1329.8 1474.88,1329.8 1476.66,1329.8 1478.44,1329.8 1480.22,1329.8 1482,1329.8 1483.78,1329.8 1485.57,1329.8 1487.35,1329.8 1489.13,1329.8 1490.91,1329.8 1492.69,1329.8 1494.47,1329.8 1496.25,1329.8 1498.03,1329.8 1499.81,1329.8 1501.59,1329.8 1503.37,1329.8 1505.15,1329.8 1506.93,1329.8 1508.71,1329.8 1510.49,1329.8 1512.28,1329.8 1514.06,1329.8 1515.84,1329.8 1517.62,1329.8 1519.4,1329.8 1521.18,1329.8 1522.96,1329.8 1524.74,1329.8 1526.52,1329.8 1528.3,1329.8 1530.08,1329.8 1531.86,1329.8 1533.64,1329.8 1535.42,1329.8 1537.2,1329.8 1538.99,1329.8 1540.77,1329.8 1542.55,1329.8 1544.33,1329.8 1546.11,1329.8 1547.89,1329.8 1549.67,1329.8 1551.45,1329.8 1553.23,1329.8 1555.01,1329.8 1556.79,1329.8 1558.57,1329.8 1560.35,1329.8 1562.13,1329.8 1563.92,1329.8 1565.7,1329.8 1567.48,1329.8 1569.26,1329.8 1571.04,1329.8 1572.82,1329.8 1574.6,1329.8 1576.38,1329.8 1578.16,1329.8 1579.94,1329.8 1581.72,1329.8 1583.5,1329.8 1585.28,1329.8 1587.06,1329.8 1588.84,1329.8 1590.63,1329.8 1592.41,1329.8 1594.19,1329.8 1595.97,1329.8 1597.75,1329.8 1599.53,1329.8 1601.31,1329.8 1603.09,1329.8 1604.87,1329.8 1606.65,1329.8 1608.43,1329.8 1610.21,1329.8 1611.99,1329.8 1613.77,1329.8 1615.55,1329.8 1617.34,1329.8 1619.12,1329.8 1620.9,1329.8 1622.68,1329.8 1624.46,1329.8 1626.24,1329.8 1628.02,1329.8 1629.8,1329.8 1631.58,1329.8 1633.36,1329.8 1635.14,1329.8 1636.92,1329.8 1638.7,1329.8 1640.48,1329.8 1642.26,1329.8 1644.05,1329.8 1645.83,1329.8 1647.61,1329.8 1649.39,1329.8 1651.17,1329.8 1652.95,1329.8 1654.73,1329.8 1656.51,1329.8 1658.29,1329.8 1660.07,1329.8 1661.85,1329.8 1663.63,1329.8 1665.41,1329.8 1667.19,1329.8 1668.98,1329.8 1670.76,1329.8 1672.54,1329.8 1674.32,1329.8 1676.1,1329.8 1677.88,1329.8 1679.66,1329.8 1681.44,1329.8 1683.22,1329.8 1685,1329.8 1686.78,1329.8 1688.56,1329.8 1690.34,1329.8 1692.12,1329.8 1693.9,1329.8 1695.69,1329.8 1697.47,1329.8 1699.25,1329.8 1701.03,1329.8 1702.81,1329.8 1704.59,1329.8 1706.37,1329.8 1708.15,1329.8 1709.93,1329.8 1711.71,1329.8 1713.49,1329.8 1715.27,1329.8 1717.05,1329.8 1718.83,1329.8 1720.61,1329.8 1722.4,1329.8 1724.18,1329.8 1725.96,1329.8 1727.74,1329.8 1729.52,1329.8 1731.3,1329.8 1733.08,1329.8 1734.86,1329.8 1736.64,1329.8 1738.42,1329.8 1740.2,1329.8 1741.98,1329.8 1743.76,1329.8 1745.54,1329.8 1747.33,1329.8 1749.11,1329.8 1750.89,1329.8 1752.67,1329.8 1754.45,1329.8 1756.23,1329.8 1758.01,1329.8 1759.79,1329.8 1761.57,1329.8 1763.35,1329.8 1765.13,1329.8 1766.91,1329.8 1768.69,1329.8 1770.47,1329.8 1772.25,1329.8 1774.04,1329.8 1775.82,1329.8 1777.6,1329.8 1779.38,1329.8 1781.16,1329.8 1782.94,1329.8 1784.72,1329.8 1786.5,1329.8 1788.28,1329.8 1790.06,1329.8 1791.84,1329.8 1793.62,1329.8 1795.4,1329.8 1797.18,1329.8 1798.96,1329.8 1800.75,1329.8 1802.53,1329.8 1804.31,1329.8 1806.09,1329.8 1807.87,1329.8 1809.65,1329.8 1811.43,1329.8 1813.21,1329.8 1814.99,1329.8 1816.77,1329.8 1818.55,1329.8 1820.33,1329.8 1822.11,1329.8 1823.89,1329.8 1825.67,1329.8 1827.46,1329.8 1829.24,1329.8 1831.02,1329.8 1832.8,1329.8 1834.58,1329.8 1836.36,1329.8 1838.14,1329.8 1839.92,1329.8 1841.7,1329.8 1843.48,1329.8 1845.26,1329.8 1847.04,1329.8 1848.82,1329.8 1850.6,1329.8 1852.39,1329.8 1854.17,1329.8 1855.95,1329.8 1857.73,1329.8 1859.51,1329.8 1861.29,1329.8 1863.07,1329.8 1864.85,1329.8 1866.63,1329.8 1868.41,1329.8 1870.19,1329.8 1871.97,1329.8 1873.75,1329.8 1875.53,1329.8 1877.31,1329.8 1879.1,1329.8 1880.88,1329.8 1882.66,1329.8 1884.44,1329.8 1886.22,1329.8 1888,1329.8 1889.78,1329.8 1891.56,1329.8 1893.34,1329.8 1895.12,1329.8 1896.9,1329.8 1898.68,1329.8 1900.46,1329.8 1902.24,1329.8 1904.02,1329.8 1905.81,1329.8 1907.59,1329.8 1909.37,1329.8 1911.15,1329.8 1912.93,1329.8 1914.71,1329.8 1916.49,1329.8 1918.27,1329.8 1920.05,1329.8 1921.83,1329.8 1923.61,1329.8 1925.39,1329.8 1927.17,1329.8 1928.95,1329.8 1930.73,1329.8 1932.52,1329.8 1934.3,1329.8 1936.08,1329.8 1937.86,1329.8 1939.64,1329.8 1941.42,1329.8 1943.2,1329.8 1944.98,1329.8 1946.76,1329.8 1948.54,1329.8 1950.32,1329.8 1952.1,1329.8 1953.88,1329.8 1955.66,1329.8 1957.45,1329.8 1959.23,1329.8 1961.01,1329.8 1962.79,1329.8 1964.57,1329.8 1966.35,1329.8 1968.13,1329.8 1969.91,1329.8 1971.69,1329.8 1973.47,1329.8 1975.25,1329.8 1977.03,1329.8 1978.81,1329.8 1980.59,1329.8 1982.37,1329.8 1984.16,1329.8 1985.94,1329.8 1987.72,1329.8 1989.5,1329.8 1991.28,1329.8 1993.06,1329.8 1994.84,1329.8 1996.62,1329.8 1998.4,1329.8 2000.18,1329.8 2001.96,1329.8 2003.74,1329.8 2005.52,1329.8 2007.3,1329.8 2009.08,1329.8 2010.87,1329.8 2012.65,1329.8 2014.43,1329.8 2016.21,1329.8 2017.99,1329.8 2019.77,1329.8 2021.55,1329.8 2023.33,1329.8 2025.11,1329.8 2026.89,1329.8 2028.67,1329.8 2030.45,1329.8 2032.23,1329.8 2034.01,1329.8 2035.8,1329.8 2037.58,1329.8 2039.36,1329.8 2041.14,1329.8 2042.92,1329.8 2044.7,1329.8 2046.48,1329.8 2048.26,1329.8 2050.04,1329.8 2051.82,1329.8 2053.6,1329.8 2055.38,1329.8 2057.16,1329.8 2058.94,1329.8 2060.72,1329.8 2062.51,1329.8 2064.29,1329.8 2066.07,1329.8 2067.85,1329.8 2069.63,1329.8 2071.41,1329.8 2073.19,1329.8 2074.97,1329.8 2076.75,1329.8 2078.53,1329.8 2080.31,1329.8 2082.09,1329.8 2083.87,1329.8 2085.65,1329.8 2087.43,1329.8 2089.22,1329.8 2091,1329.8 2092.78,1329.8 2094.56,1329.8 2096.34,1329.8 2098.12,1329.8 2099.9,1329.8 2101.68,1329.8 2103.46,1329.8 2105.24,1329.8 2107.02,1329.8 2108.8,1329.8 2110.58,1329.8 2112.36,1329.8 2114.14,1329.8 2115.93,1329.8 2117.71,1329.8 2119.49,1329.8 2121.27,1329.8 2123.05,1329.8 2124.83,1329.8 2126.61,1329.8 2128.39,1329.8 2130.17,1329.8 2131.95,1329.8 2133.73,1329.8 2135.51,1329.8 2137.29,1329.8 2139.07,1329.8 2140.86,1329.8 2142.64,1329.8 2144.42,1329.8 2146.2,1329.8 2147.98,1329.8 2149.76,1329.8 2151.54,1329.8 2153.32,1329.8 2155.1,1329.8 2156.88,1329.8 2158.66,1329.8 2160.44,1329.8 2162.22,1329.8 2164,1329.8 2165.78,1329.8 2167.57,1329.8 2169.35,1329.8 2171.13,1329.8 2172.91,1329.8 2174.69,1329.8 2176.47,1329.8 2178.25,1329.8 2180.03,1329.8 2181.81,1329.8 2183.59,1329.8 2185.37,1329.8 2187.15,1329.8 2188.93,1329.8 2190.71,1329.8 2192.49,1329.8 2194.28,1329.8 2196.06,1329.8 2197.84,1329.8 2199.62,1329.8 2201.4,1329.8 2203.18,1329.8 2204.96,1329.8 2206.74,1329.8 2208.52,1329.8 2210.3,1329.8 2212.08,1329.8 2213.86,1329.8 2215.64,1329.8 2217.42,1329.8 2219.2,1329.8 2220.99,1329.8 2222.77,1329.8 2224.55,1329.8 2226.33,1329.8 2228.11,1329.8 2229.89,1329.8 2231.67,1329.8 2233.45,1329.8 2235.23,1329.8 2237.01,1329.8 2238.79,1329.8 2240.57,1329.8 2242.35,1329.8 2244.13,1329.8 2245.92,1329.8 2247.7,1329.8 2249.48,1329.8 2251.26,1329.8 2253.04,1329.8 2254.82,1329.8 2256.6,1329.8 2258.38,1329.8 2260.16,1329.8 2261.94,1329.8 2263.72,1329.8 2265.5,1329.8 2267.28,1329.8 2269.06,1329.8 2270.84,1329.8 2272.63,1329.8 2274.41,1329.8 2276.19,1329.8 2277.97,1329.8 2279.75,1329.8 2281.53,1329.8 2283.31,1329.8 2285.09,1329.8 2286.87,1329.8 2288.65,1329.8 2290.43,1329.8 2292.21,1329.8 2293.99,1329.8 2295.77,1329.8 2297.55,1329.8 2299.34,1329.8 2301.12,1329.8 2302.9,1329.8 2304.68,1329.8 2306.46,1329.8 2308.24,1329.8 2310.02,1329.8 2311.8,1329.8 2313.58,1329.8 2315.36,1329.8 2317.14,1329.8 2318.92,1329.8 2320.7,1329.8 2322.48,1329.8 2324.27,1329.8 2326.05,1329.8 2327.83,1329.8 2329.61,1329.8 2331.39,1329.8 2333.17,1329.8 2334.95,1329.8 2336.73,1329.8 2338.51,1329.8 2340.29,1329.8 2342.07,1329.8 2343.85,1329.8 2345.63,1329.8 2347.41,1329.8 2349.19,1329.8 2350.98,1329.8 2352.76,1329.8 "/>
<path clip-path="url(#clip240)" d="M1986.29 248.629 L2278.03 248.629 L2278.03 93.1086 L1986.29 93.1086  Z" fill="#ffffff" fill-rule="evenodd" fill-opacity="1"/>
<polyline clip-path="url(#clip240)" style="stroke:#000000; stroke-linecap:round; stroke-linejoin:round; stroke-width:4; stroke-opacity:1; fill:none" points="1986.29,248.629 2278.03,248.629 2278.03,93.1086 1986.29,93.1086 1986.29,248.629 "/>
<polyline clip-path="url(#clip240)" style="stroke:#009af9; stroke-linecap:round; stroke-linejoin:round; stroke-width:4; stroke-opacity:1; fill:none" points="2011.2,144.949 2160.66,144.949 "/>
<path clip-path="url(#clip240)" d="M2204.83 145.794 L2190.08 145.794 Q2190.43 152.715 2192.03 155.655 Q2194.02 159.266 2197.47 159.266 Q2200.94 159.266 2202.86 155.631 Q2204.55 152.437 2204.83 145.794 M2204.76 141.858 Q2204.11 135.284 2202.86 132.97 Q2200.87 129.312 2197.47 129.312 Q2193.93 129.312 2192.05 132.923 Q2190.57 135.84 2190.13 141.858 L2204.76 141.858 M2197.47 125.84 Q2203.02 125.84 2206.2 130.747 Q2209.37 135.632 2209.37 144.289 Q2209.37 152.923 2206.2 157.83 Q2203.02 162.761 2197.47 162.761 Q2191.89 162.761 2188.74 157.83 Q2185.57 152.923 2185.57 144.289 Q2185.57 135.632 2188.74 130.747 Q2191.89 125.84 2197.47 125.84 Z" fill="#000000" fill-rule="nonzero" fill-opacity="1" /><polyline clip-path="url(#clip240)" style="stroke:#e26f46; stroke-linecap:round; stroke-linejoin:round; stroke-width:4; stroke-opacity:1; fill:none" points="2011.2,196.789 2160.66,196.789 "/>
<path clip-path="url(#clip240)" d="M2204.83 197.634 L2190.08 197.634 Q2190.43 204.555 2192.03 207.495 Q2194.02 211.106 2197.47 211.106 Q2200.94 211.106 2202.86 207.471 Q2204.55 204.277 2204.83 197.634 M2204.76 193.698 Q2204.11 187.124 2202.86 184.81 Q2200.87 181.152 2197.47 181.152 Q2193.93 181.152 2192.05 184.763 Q2190.57 187.68 2190.13 193.698 L2204.76 193.698 M2197.47 177.68 Q2203.02 177.68 2206.2 182.587 Q2209.37 187.472 2209.37 196.129 Q2209.37 204.763 2206.2 209.67 Q2203.02 214.601 2197.47 214.601 Q2191.89 214.601 2188.74 209.67 Q2185.57 204.763 2185.57 196.129 Q2185.57 187.472 2188.74 182.587 Q2191.89 177.68 2197.47 177.68 Z" fill="#000000" fill-rule="nonzero" fill-opacity="1" /><path clip-path="url(#clip240)" d="M2216.89 218.05 L2230.73 218.05 L2230.73 221.476 L2216.89 221.476 L2216.89 218.05 Z" fill="#000000" fill-rule="nonzero" fill-opacity="1" /><path clip-path="url(#clip240)" d="M2244.34 180.782 L2244.34 188.143 L2253.12 188.143 L2253.12 191.453 L2244.34 191.453 L2244.34 205.527 Q2244.34 208.698 2245.2 209.601 Q2246.08 210.504 2248.74 210.504 L2253.12 210.504 L2253.12 214.069 L2248.74 214.069 Q2243.81 214.069 2241.94 212.24 Q2240.06 210.388 2240.06 205.527 L2240.06 191.453 L2236.94 191.453 L2236.94 188.143 L2240.06 188.143 L2240.06 180.782 L2244.34 180.782 Z" fill="#000000" fill-rule="nonzero" fill-opacity="1" /></svg>
